%TF.GenerationSoftware,KiCad,Pcbnew,10.0.0*%
%TF.CreationDate,2026-04-05T16:25:19-05:00*%
%TF.ProjectId,BuckConvSD2,4275636b-436f-46e7-9653-44322e6b6963,rev?*%
%TF.SameCoordinates,Original*%
%TF.FileFunction,Legend,Top*%
%TF.FilePolarity,Positive*%
%FSLAX46Y46*%
G04 Gerber Fmt 4.6, Leading zero omitted, Abs format (unit mm)*
G04 Created by KiCad (PCBNEW 10.0.0) date 2026-04-05 16:25:19*
%MOMM*%
%LPD*%
G01*
G04 APERTURE LIST*
%ADD10C,0.300000*%
%ADD11C,0.150000*%
%ADD12C,0.200000*%
%ADD13C,0.120000*%
%ADD14C,0.152400*%
%ADD15C,0.127000*%
%ADD16C,0.000000*%
G04 APERTURE END LIST*
D10*
X89337143Y-48440996D02*
X90194286Y-48440996D01*
X89765714Y-49940996D02*
X89765714Y-48440996D01*
X90694285Y-49155282D02*
X91194285Y-49155282D01*
X91408571Y-49940996D02*
X90694285Y-49940996D01*
X90694285Y-49940996D02*
X90694285Y-48440996D01*
X90694285Y-48440996D02*
X91408571Y-48440996D01*
X91980000Y-49512425D02*
X92694286Y-49512425D01*
X91837143Y-49940996D02*
X92337143Y-48440996D01*
X92337143Y-48440996D02*
X92837143Y-49940996D01*
X93337142Y-49940996D02*
X93337142Y-48440996D01*
X93337142Y-48440996D02*
X93837142Y-49512425D01*
X93837142Y-49512425D02*
X94337142Y-48440996D01*
X94337142Y-48440996D02*
X94337142Y-49940996D01*
X96837143Y-48940996D02*
X96837143Y-49940996D01*
X96480000Y-48369568D02*
X96122857Y-49440996D01*
X96122857Y-49440996D02*
X97051428Y-49440996D01*
X84408571Y-52284484D02*
X84622857Y-52355912D01*
X84622857Y-52355912D02*
X84979999Y-52355912D01*
X84979999Y-52355912D02*
X85122857Y-52284484D01*
X85122857Y-52284484D02*
X85194285Y-52213055D01*
X85194285Y-52213055D02*
X85265714Y-52070198D01*
X85265714Y-52070198D02*
X85265714Y-51927341D01*
X85265714Y-51927341D02*
X85194285Y-51784484D01*
X85194285Y-51784484D02*
X85122857Y-51713055D01*
X85122857Y-51713055D02*
X84979999Y-51641626D01*
X84979999Y-51641626D02*
X84694285Y-51570198D01*
X84694285Y-51570198D02*
X84551428Y-51498769D01*
X84551428Y-51498769D02*
X84479999Y-51427341D01*
X84479999Y-51427341D02*
X84408571Y-51284484D01*
X84408571Y-51284484D02*
X84408571Y-51141626D01*
X84408571Y-51141626D02*
X84479999Y-50998769D01*
X84479999Y-50998769D02*
X84551428Y-50927341D01*
X84551428Y-50927341D02*
X84694285Y-50855912D01*
X84694285Y-50855912D02*
X85051428Y-50855912D01*
X85051428Y-50855912D02*
X85265714Y-50927341D01*
X86479999Y-52284484D02*
X86337142Y-52355912D01*
X86337142Y-52355912D02*
X86051428Y-52355912D01*
X86051428Y-52355912D02*
X85908570Y-52284484D01*
X85908570Y-52284484D02*
X85837142Y-52141626D01*
X85837142Y-52141626D02*
X85837142Y-51570198D01*
X85837142Y-51570198D02*
X85908570Y-51427341D01*
X85908570Y-51427341D02*
X86051428Y-51355912D01*
X86051428Y-51355912D02*
X86337142Y-51355912D01*
X86337142Y-51355912D02*
X86479999Y-51427341D01*
X86479999Y-51427341D02*
X86551428Y-51570198D01*
X86551428Y-51570198D02*
X86551428Y-51713055D01*
X86551428Y-51713055D02*
X85837142Y-51855912D01*
X87194284Y-51355912D02*
X87194284Y-52355912D01*
X87194284Y-51498769D02*
X87265713Y-51427341D01*
X87265713Y-51427341D02*
X87408570Y-51355912D01*
X87408570Y-51355912D02*
X87622856Y-51355912D01*
X87622856Y-51355912D02*
X87765713Y-51427341D01*
X87765713Y-51427341D02*
X87837142Y-51570198D01*
X87837142Y-51570198D02*
X87837142Y-52355912D01*
X88551427Y-52355912D02*
X88551427Y-51355912D01*
X88551427Y-50855912D02*
X88479999Y-50927341D01*
X88479999Y-50927341D02*
X88551427Y-50998769D01*
X88551427Y-50998769D02*
X88622856Y-50927341D01*
X88622856Y-50927341D02*
X88551427Y-50855912D01*
X88551427Y-50855912D02*
X88551427Y-50998769D01*
X89479999Y-52355912D02*
X89337142Y-52284484D01*
X89337142Y-52284484D02*
X89265713Y-52213055D01*
X89265713Y-52213055D02*
X89194285Y-52070198D01*
X89194285Y-52070198D02*
X89194285Y-51641626D01*
X89194285Y-51641626D02*
X89265713Y-51498769D01*
X89265713Y-51498769D02*
X89337142Y-51427341D01*
X89337142Y-51427341D02*
X89479999Y-51355912D01*
X89479999Y-51355912D02*
X89694285Y-51355912D01*
X89694285Y-51355912D02*
X89837142Y-51427341D01*
X89837142Y-51427341D02*
X89908571Y-51498769D01*
X89908571Y-51498769D02*
X89979999Y-51641626D01*
X89979999Y-51641626D02*
X89979999Y-52070198D01*
X89979999Y-52070198D02*
X89908571Y-52213055D01*
X89908571Y-52213055D02*
X89837142Y-52284484D01*
X89837142Y-52284484D02*
X89694285Y-52355912D01*
X89694285Y-52355912D02*
X89479999Y-52355912D01*
X90622856Y-52355912D02*
X90622856Y-51355912D01*
X90622856Y-51641626D02*
X90694285Y-51498769D01*
X90694285Y-51498769D02*
X90765714Y-51427341D01*
X90765714Y-51427341D02*
X90908571Y-51355912D01*
X90908571Y-51355912D02*
X91051428Y-51355912D01*
X92694284Y-52355912D02*
X92694284Y-50855912D01*
X92694284Y-50855912D02*
X93051427Y-50855912D01*
X93051427Y-50855912D02*
X93265713Y-50927341D01*
X93265713Y-50927341D02*
X93408570Y-51070198D01*
X93408570Y-51070198D02*
X93479999Y-51213055D01*
X93479999Y-51213055D02*
X93551427Y-51498769D01*
X93551427Y-51498769D02*
X93551427Y-51713055D01*
X93551427Y-51713055D02*
X93479999Y-51998769D01*
X93479999Y-51998769D02*
X93408570Y-52141626D01*
X93408570Y-52141626D02*
X93265713Y-52284484D01*
X93265713Y-52284484D02*
X93051427Y-52355912D01*
X93051427Y-52355912D02*
X92694284Y-52355912D01*
X94765713Y-52284484D02*
X94622856Y-52355912D01*
X94622856Y-52355912D02*
X94337142Y-52355912D01*
X94337142Y-52355912D02*
X94194284Y-52284484D01*
X94194284Y-52284484D02*
X94122856Y-52141626D01*
X94122856Y-52141626D02*
X94122856Y-51570198D01*
X94122856Y-51570198D02*
X94194284Y-51427341D01*
X94194284Y-51427341D02*
X94337142Y-51355912D01*
X94337142Y-51355912D02*
X94622856Y-51355912D01*
X94622856Y-51355912D02*
X94765713Y-51427341D01*
X94765713Y-51427341D02*
X94837142Y-51570198D01*
X94837142Y-51570198D02*
X94837142Y-51713055D01*
X94837142Y-51713055D02*
X94122856Y-51855912D01*
X95408570Y-52284484D02*
X95551427Y-52355912D01*
X95551427Y-52355912D02*
X95837141Y-52355912D01*
X95837141Y-52355912D02*
X95979998Y-52284484D01*
X95979998Y-52284484D02*
X96051427Y-52141626D01*
X96051427Y-52141626D02*
X96051427Y-52070198D01*
X96051427Y-52070198D02*
X95979998Y-51927341D01*
X95979998Y-51927341D02*
X95837141Y-51855912D01*
X95837141Y-51855912D02*
X95622856Y-51855912D01*
X95622856Y-51855912D02*
X95479998Y-51784484D01*
X95479998Y-51784484D02*
X95408570Y-51641626D01*
X95408570Y-51641626D02*
X95408570Y-51570198D01*
X95408570Y-51570198D02*
X95479998Y-51427341D01*
X95479998Y-51427341D02*
X95622856Y-51355912D01*
X95622856Y-51355912D02*
X95837141Y-51355912D01*
X95837141Y-51355912D02*
X95979998Y-51427341D01*
X96694284Y-52355912D02*
X96694284Y-51355912D01*
X96694284Y-50855912D02*
X96622856Y-50927341D01*
X96622856Y-50927341D02*
X96694284Y-50998769D01*
X96694284Y-50998769D02*
X96765713Y-50927341D01*
X96765713Y-50927341D02*
X96694284Y-50855912D01*
X96694284Y-50855912D02*
X96694284Y-50998769D01*
X98051428Y-51355912D02*
X98051428Y-52570198D01*
X98051428Y-52570198D02*
X97979999Y-52713055D01*
X97979999Y-52713055D02*
X97908570Y-52784484D01*
X97908570Y-52784484D02*
X97765713Y-52855912D01*
X97765713Y-52855912D02*
X97551428Y-52855912D01*
X97551428Y-52855912D02*
X97408570Y-52784484D01*
X98051428Y-52284484D02*
X97908570Y-52355912D01*
X97908570Y-52355912D02*
X97622856Y-52355912D01*
X97622856Y-52355912D02*
X97479999Y-52284484D01*
X97479999Y-52284484D02*
X97408570Y-52213055D01*
X97408570Y-52213055D02*
X97337142Y-52070198D01*
X97337142Y-52070198D02*
X97337142Y-51641626D01*
X97337142Y-51641626D02*
X97408570Y-51498769D01*
X97408570Y-51498769D02*
X97479999Y-51427341D01*
X97479999Y-51427341D02*
X97622856Y-51355912D01*
X97622856Y-51355912D02*
X97908570Y-51355912D01*
X97908570Y-51355912D02*
X98051428Y-51427341D01*
X98765713Y-51355912D02*
X98765713Y-52355912D01*
X98765713Y-51498769D02*
X98837142Y-51427341D01*
X98837142Y-51427341D02*
X98979999Y-51355912D01*
X98979999Y-51355912D02*
X99194285Y-51355912D01*
X99194285Y-51355912D02*
X99337142Y-51427341D01*
X99337142Y-51427341D02*
X99408571Y-51570198D01*
X99408571Y-51570198D02*
X99408571Y-52355912D01*
X101265713Y-52355912D02*
X101265713Y-50855912D01*
X101979999Y-52355912D02*
X101979999Y-50855912D01*
X86515715Y-54699400D02*
X86730001Y-54770828D01*
X86730001Y-54770828D02*
X87087143Y-54770828D01*
X87087143Y-54770828D02*
X87230001Y-54699400D01*
X87230001Y-54699400D02*
X87301429Y-54627971D01*
X87301429Y-54627971D02*
X87372858Y-54485114D01*
X87372858Y-54485114D02*
X87372858Y-54342257D01*
X87372858Y-54342257D02*
X87301429Y-54199400D01*
X87301429Y-54199400D02*
X87230001Y-54127971D01*
X87230001Y-54127971D02*
X87087143Y-54056542D01*
X87087143Y-54056542D02*
X86801429Y-53985114D01*
X86801429Y-53985114D02*
X86658572Y-53913685D01*
X86658572Y-53913685D02*
X86587143Y-53842257D01*
X86587143Y-53842257D02*
X86515715Y-53699400D01*
X86515715Y-53699400D02*
X86515715Y-53556542D01*
X86515715Y-53556542D02*
X86587143Y-53413685D01*
X86587143Y-53413685D02*
X86658572Y-53342257D01*
X86658572Y-53342257D02*
X86801429Y-53270828D01*
X86801429Y-53270828D02*
X87158572Y-53270828D01*
X87158572Y-53270828D02*
X87372858Y-53342257D01*
X88015714Y-53770828D02*
X88015714Y-55270828D01*
X88015714Y-53842257D02*
X88158572Y-53770828D01*
X88158572Y-53770828D02*
X88444286Y-53770828D01*
X88444286Y-53770828D02*
X88587143Y-53842257D01*
X88587143Y-53842257D02*
X88658572Y-53913685D01*
X88658572Y-53913685D02*
X88730000Y-54056542D01*
X88730000Y-54056542D02*
X88730000Y-54485114D01*
X88730000Y-54485114D02*
X88658572Y-54627971D01*
X88658572Y-54627971D02*
X88587143Y-54699400D01*
X88587143Y-54699400D02*
X88444286Y-54770828D01*
X88444286Y-54770828D02*
X88158572Y-54770828D01*
X88158572Y-54770828D02*
X88015714Y-54699400D01*
X89372857Y-54770828D02*
X89372857Y-53770828D01*
X89372857Y-54056542D02*
X89444286Y-53913685D01*
X89444286Y-53913685D02*
X89515715Y-53842257D01*
X89515715Y-53842257D02*
X89658572Y-53770828D01*
X89658572Y-53770828D02*
X89801429Y-53770828D01*
X90301428Y-54770828D02*
X90301428Y-53770828D01*
X90301428Y-53270828D02*
X90230000Y-53342257D01*
X90230000Y-53342257D02*
X90301428Y-53413685D01*
X90301428Y-53413685D02*
X90372857Y-53342257D01*
X90372857Y-53342257D02*
X90301428Y-53270828D01*
X90301428Y-53270828D02*
X90301428Y-53413685D01*
X91015714Y-53770828D02*
X91015714Y-54770828D01*
X91015714Y-53913685D02*
X91087143Y-53842257D01*
X91087143Y-53842257D02*
X91230000Y-53770828D01*
X91230000Y-53770828D02*
X91444286Y-53770828D01*
X91444286Y-53770828D02*
X91587143Y-53842257D01*
X91587143Y-53842257D02*
X91658572Y-53985114D01*
X91658572Y-53985114D02*
X91658572Y-54770828D01*
X93015715Y-53770828D02*
X93015715Y-54985114D01*
X93015715Y-54985114D02*
X92944286Y-55127971D01*
X92944286Y-55127971D02*
X92872857Y-55199400D01*
X92872857Y-55199400D02*
X92730000Y-55270828D01*
X92730000Y-55270828D02*
X92515715Y-55270828D01*
X92515715Y-55270828D02*
X92372857Y-55199400D01*
X93015715Y-54699400D02*
X92872857Y-54770828D01*
X92872857Y-54770828D02*
X92587143Y-54770828D01*
X92587143Y-54770828D02*
X92444286Y-54699400D01*
X92444286Y-54699400D02*
X92372857Y-54627971D01*
X92372857Y-54627971D02*
X92301429Y-54485114D01*
X92301429Y-54485114D02*
X92301429Y-54056542D01*
X92301429Y-54056542D02*
X92372857Y-53913685D01*
X92372857Y-53913685D02*
X92444286Y-53842257D01*
X92444286Y-53842257D02*
X92587143Y-53770828D01*
X92587143Y-53770828D02*
X92872857Y-53770828D01*
X92872857Y-53770828D02*
X93015715Y-53842257D01*
X94801429Y-53413685D02*
X94872857Y-53342257D01*
X94872857Y-53342257D02*
X95015715Y-53270828D01*
X95015715Y-53270828D02*
X95372857Y-53270828D01*
X95372857Y-53270828D02*
X95515715Y-53342257D01*
X95515715Y-53342257D02*
X95587143Y-53413685D01*
X95587143Y-53413685D02*
X95658572Y-53556542D01*
X95658572Y-53556542D02*
X95658572Y-53699400D01*
X95658572Y-53699400D02*
X95587143Y-53913685D01*
X95587143Y-53913685D02*
X94730000Y-54770828D01*
X94730000Y-54770828D02*
X95658572Y-54770828D01*
X96587143Y-53270828D02*
X96730000Y-53270828D01*
X96730000Y-53270828D02*
X96872857Y-53342257D01*
X96872857Y-53342257D02*
X96944286Y-53413685D01*
X96944286Y-53413685D02*
X97015714Y-53556542D01*
X97015714Y-53556542D02*
X97087143Y-53842257D01*
X97087143Y-53842257D02*
X97087143Y-54199400D01*
X97087143Y-54199400D02*
X97015714Y-54485114D01*
X97015714Y-54485114D02*
X96944286Y-54627971D01*
X96944286Y-54627971D02*
X96872857Y-54699400D01*
X96872857Y-54699400D02*
X96730000Y-54770828D01*
X96730000Y-54770828D02*
X96587143Y-54770828D01*
X96587143Y-54770828D02*
X96444286Y-54699400D01*
X96444286Y-54699400D02*
X96372857Y-54627971D01*
X96372857Y-54627971D02*
X96301428Y-54485114D01*
X96301428Y-54485114D02*
X96230000Y-54199400D01*
X96230000Y-54199400D02*
X96230000Y-53842257D01*
X96230000Y-53842257D02*
X96301428Y-53556542D01*
X96301428Y-53556542D02*
X96372857Y-53413685D01*
X96372857Y-53413685D02*
X96444286Y-53342257D01*
X96444286Y-53342257D02*
X96587143Y-53270828D01*
X97658571Y-53413685D02*
X97729999Y-53342257D01*
X97729999Y-53342257D02*
X97872857Y-53270828D01*
X97872857Y-53270828D02*
X98229999Y-53270828D01*
X98229999Y-53270828D02*
X98372857Y-53342257D01*
X98372857Y-53342257D02*
X98444285Y-53413685D01*
X98444285Y-53413685D02*
X98515714Y-53556542D01*
X98515714Y-53556542D02*
X98515714Y-53699400D01*
X98515714Y-53699400D02*
X98444285Y-53913685D01*
X98444285Y-53913685D02*
X97587142Y-54770828D01*
X97587142Y-54770828D02*
X98515714Y-54770828D01*
X99801428Y-53270828D02*
X99515713Y-53270828D01*
X99515713Y-53270828D02*
X99372856Y-53342257D01*
X99372856Y-53342257D02*
X99301428Y-53413685D01*
X99301428Y-53413685D02*
X99158570Y-53627971D01*
X99158570Y-53627971D02*
X99087142Y-53913685D01*
X99087142Y-53913685D02*
X99087142Y-54485114D01*
X99087142Y-54485114D02*
X99158570Y-54627971D01*
X99158570Y-54627971D02*
X99229999Y-54699400D01*
X99229999Y-54699400D02*
X99372856Y-54770828D01*
X99372856Y-54770828D02*
X99658570Y-54770828D01*
X99658570Y-54770828D02*
X99801428Y-54699400D01*
X99801428Y-54699400D02*
X99872856Y-54627971D01*
X99872856Y-54627971D02*
X99944285Y-54485114D01*
X99944285Y-54485114D02*
X99944285Y-54127971D01*
X99944285Y-54127971D02*
X99872856Y-53985114D01*
X99872856Y-53985114D02*
X99801428Y-53913685D01*
X99801428Y-53913685D02*
X99658570Y-53842257D01*
X99658570Y-53842257D02*
X99372856Y-53842257D01*
X99372856Y-53842257D02*
X99229999Y-53913685D01*
X99229999Y-53913685D02*
X99158570Y-53985114D01*
X99158570Y-53985114D02*
X99087142Y-54127971D01*
D11*
X150206191Y-49924819D02*
X150872857Y-49924819D01*
X150872857Y-49924819D02*
X150444286Y-50924819D01*
X151253810Y-50829580D02*
X151301429Y-50877200D01*
X151301429Y-50877200D02*
X151253810Y-50924819D01*
X151253810Y-50924819D02*
X151206191Y-50877200D01*
X151206191Y-50877200D02*
X151253810Y-50829580D01*
X151253810Y-50829580D02*
X151253810Y-50924819D01*
X151682381Y-50020057D02*
X151730000Y-49972438D01*
X151730000Y-49972438D02*
X151825238Y-49924819D01*
X151825238Y-49924819D02*
X152063333Y-49924819D01*
X152063333Y-49924819D02*
X152158571Y-49972438D01*
X152158571Y-49972438D02*
X152206190Y-50020057D01*
X152206190Y-50020057D02*
X152253809Y-50115295D01*
X152253809Y-50115295D02*
X152253809Y-50210533D01*
X152253809Y-50210533D02*
X152206190Y-50353390D01*
X152206190Y-50353390D02*
X151634762Y-50924819D01*
X151634762Y-50924819D02*
X152253809Y-50924819D01*
X153110952Y-50258152D02*
X153110952Y-50924819D01*
X152682381Y-50258152D02*
X152682381Y-50781961D01*
X152682381Y-50781961D02*
X152730000Y-50877200D01*
X152730000Y-50877200D02*
X152825238Y-50924819D01*
X152825238Y-50924819D02*
X152968095Y-50924819D01*
X152968095Y-50924819D02*
X153063333Y-50877200D01*
X153063333Y-50877200D02*
X153110952Y-50829580D01*
X153587143Y-50924819D02*
X153587143Y-49924819D01*
X153587143Y-50401009D02*
X154158571Y-50401009D01*
X154158571Y-50924819D02*
X154158571Y-49924819D01*
X150554880Y-67054819D02*
X149983452Y-67054819D01*
X150269166Y-67054819D02*
X150269166Y-66054819D01*
X150269166Y-66054819D02*
X150173928Y-66197676D01*
X150173928Y-66197676D02*
X150078690Y-66292914D01*
X150078690Y-66292914D02*
X149983452Y-66340533D01*
X151173928Y-66054819D02*
X151269166Y-66054819D01*
X151269166Y-66054819D02*
X151364404Y-66102438D01*
X151364404Y-66102438D02*
X151412023Y-66150057D01*
X151412023Y-66150057D02*
X151459642Y-66245295D01*
X151459642Y-66245295D02*
X151507261Y-66435771D01*
X151507261Y-66435771D02*
X151507261Y-66673866D01*
X151507261Y-66673866D02*
X151459642Y-66864342D01*
X151459642Y-66864342D02*
X151412023Y-66959580D01*
X151412023Y-66959580D02*
X151364404Y-67007200D01*
X151364404Y-67007200D02*
X151269166Y-67054819D01*
X151269166Y-67054819D02*
X151173928Y-67054819D01*
X151173928Y-67054819D02*
X151078690Y-67007200D01*
X151078690Y-67007200D02*
X151031071Y-66959580D01*
X151031071Y-66959580D02*
X150983452Y-66864342D01*
X150983452Y-66864342D02*
X150935833Y-66673866D01*
X150935833Y-66673866D02*
X150935833Y-66435771D01*
X150935833Y-66435771D02*
X150983452Y-66245295D01*
X150983452Y-66245295D02*
X151031071Y-66150057D01*
X151031071Y-66150057D02*
X151078690Y-66102438D01*
X151078690Y-66102438D02*
X151173928Y-66054819D01*
X152126309Y-66054819D02*
X152221547Y-66054819D01*
X152221547Y-66054819D02*
X152316785Y-66102438D01*
X152316785Y-66102438D02*
X152364404Y-66150057D01*
X152364404Y-66150057D02*
X152412023Y-66245295D01*
X152412023Y-66245295D02*
X152459642Y-66435771D01*
X152459642Y-66435771D02*
X152459642Y-66673866D01*
X152459642Y-66673866D02*
X152412023Y-66864342D01*
X152412023Y-66864342D02*
X152364404Y-66959580D01*
X152364404Y-66959580D02*
X152316785Y-67007200D01*
X152316785Y-67007200D02*
X152221547Y-67054819D01*
X152221547Y-67054819D02*
X152126309Y-67054819D01*
X152126309Y-67054819D02*
X152031071Y-67007200D01*
X152031071Y-67007200D02*
X151983452Y-66959580D01*
X151983452Y-66959580D02*
X151935833Y-66864342D01*
X151935833Y-66864342D02*
X151888214Y-66673866D01*
X151888214Y-66673866D02*
X151888214Y-66435771D01*
X151888214Y-66435771D02*
X151935833Y-66245295D01*
X151935833Y-66245295D02*
X151983452Y-66150057D01*
X151983452Y-66150057D02*
X152031071Y-66102438D01*
X152031071Y-66102438D02*
X152126309Y-66054819D01*
X153316785Y-66388152D02*
X153316785Y-67054819D01*
X152888214Y-66388152D02*
X152888214Y-66911961D01*
X152888214Y-66911961D02*
X152935833Y-67007200D01*
X152935833Y-67007200D02*
X153031071Y-67054819D01*
X153031071Y-67054819D02*
X153173928Y-67054819D01*
X153173928Y-67054819D02*
X153269166Y-67007200D01*
X153269166Y-67007200D02*
X153316785Y-66959580D01*
X154126309Y-66531009D02*
X153792976Y-66531009D01*
X153792976Y-67054819D02*
X153792976Y-66054819D01*
X153792976Y-66054819D02*
X154269166Y-66054819D01*
X148724819Y-70664523D02*
X148724819Y-71235951D01*
X148724819Y-70950237D02*
X147724819Y-70950237D01*
X147724819Y-70950237D02*
X147867676Y-71045475D01*
X147867676Y-71045475D02*
X147962914Y-71140713D01*
X147962914Y-71140713D02*
X148010533Y-71235951D01*
X147724819Y-70045475D02*
X147724819Y-69950237D01*
X147724819Y-69950237D02*
X147772438Y-69854999D01*
X147772438Y-69854999D02*
X147820057Y-69807380D01*
X147820057Y-69807380D02*
X147915295Y-69759761D01*
X147915295Y-69759761D02*
X148105771Y-69712142D01*
X148105771Y-69712142D02*
X148343866Y-69712142D01*
X148343866Y-69712142D02*
X148534342Y-69759761D01*
X148534342Y-69759761D02*
X148629580Y-69807380D01*
X148629580Y-69807380D02*
X148677200Y-69854999D01*
X148677200Y-69854999D02*
X148724819Y-69950237D01*
X148724819Y-69950237D02*
X148724819Y-70045475D01*
X148724819Y-70045475D02*
X148677200Y-70140713D01*
X148677200Y-70140713D02*
X148629580Y-70188332D01*
X148629580Y-70188332D02*
X148534342Y-70235951D01*
X148534342Y-70235951D02*
X148343866Y-70283570D01*
X148343866Y-70283570D02*
X148105771Y-70283570D01*
X148105771Y-70283570D02*
X147915295Y-70235951D01*
X147915295Y-70235951D02*
X147820057Y-70188332D01*
X147820057Y-70188332D02*
X147772438Y-70140713D01*
X147772438Y-70140713D02*
X147724819Y-70045475D01*
X148629580Y-69283570D02*
X148677200Y-69235951D01*
X148677200Y-69235951D02*
X148724819Y-69283570D01*
X148724819Y-69283570D02*
X148677200Y-69331189D01*
X148677200Y-69331189D02*
X148629580Y-69283570D01*
X148629580Y-69283570D02*
X148724819Y-69283570D01*
X147820057Y-68854999D02*
X147772438Y-68807380D01*
X147772438Y-68807380D02*
X147724819Y-68712142D01*
X147724819Y-68712142D02*
X147724819Y-68474047D01*
X147724819Y-68474047D02*
X147772438Y-68378809D01*
X147772438Y-68378809D02*
X147820057Y-68331190D01*
X147820057Y-68331190D02*
X147915295Y-68283571D01*
X147915295Y-68283571D02*
X148010533Y-68283571D01*
X148010533Y-68283571D02*
X148153390Y-68331190D01*
X148153390Y-68331190D02*
X148724819Y-68902618D01*
X148724819Y-68902618D02*
X148724819Y-68283571D01*
X148724819Y-67854999D02*
X147724819Y-67854999D01*
X148343866Y-67759761D02*
X148724819Y-67474047D01*
X148058152Y-67474047D02*
X148439104Y-67854999D01*
X111764819Y-66917619D02*
X111764819Y-67489047D01*
X111764819Y-67203333D02*
X110764819Y-67203333D01*
X110764819Y-67203333D02*
X110907676Y-67298571D01*
X110907676Y-67298571D02*
X111002914Y-67393809D01*
X111002914Y-67393809D02*
X111050533Y-67489047D01*
X110764819Y-66298571D02*
X110764819Y-66203333D01*
X110764819Y-66203333D02*
X110812438Y-66108095D01*
X110812438Y-66108095D02*
X110860057Y-66060476D01*
X110860057Y-66060476D02*
X110955295Y-66012857D01*
X110955295Y-66012857D02*
X111145771Y-65965238D01*
X111145771Y-65965238D02*
X111383866Y-65965238D01*
X111383866Y-65965238D02*
X111574342Y-66012857D01*
X111574342Y-66012857D02*
X111669580Y-66060476D01*
X111669580Y-66060476D02*
X111717200Y-66108095D01*
X111717200Y-66108095D02*
X111764819Y-66203333D01*
X111764819Y-66203333D02*
X111764819Y-66298571D01*
X111764819Y-66298571D02*
X111717200Y-66393809D01*
X111717200Y-66393809D02*
X111669580Y-66441428D01*
X111669580Y-66441428D02*
X111574342Y-66489047D01*
X111574342Y-66489047D02*
X111383866Y-66536666D01*
X111383866Y-66536666D02*
X111145771Y-66536666D01*
X111145771Y-66536666D02*
X110955295Y-66489047D01*
X110955295Y-66489047D02*
X110860057Y-66441428D01*
X110860057Y-66441428D02*
X110812438Y-66393809D01*
X110812438Y-66393809D02*
X110764819Y-66298571D01*
X110764819Y-65346190D02*
X110764819Y-65250952D01*
X110764819Y-65250952D02*
X110812438Y-65155714D01*
X110812438Y-65155714D02*
X110860057Y-65108095D01*
X110860057Y-65108095D02*
X110955295Y-65060476D01*
X110955295Y-65060476D02*
X111145771Y-65012857D01*
X111145771Y-65012857D02*
X111383866Y-65012857D01*
X111383866Y-65012857D02*
X111574342Y-65060476D01*
X111574342Y-65060476D02*
X111669580Y-65108095D01*
X111669580Y-65108095D02*
X111717200Y-65155714D01*
X111717200Y-65155714D02*
X111764819Y-65250952D01*
X111764819Y-65250952D02*
X111764819Y-65346190D01*
X111764819Y-65346190D02*
X111717200Y-65441428D01*
X111717200Y-65441428D02*
X111669580Y-65489047D01*
X111669580Y-65489047D02*
X111574342Y-65536666D01*
X111574342Y-65536666D02*
X111383866Y-65584285D01*
X111383866Y-65584285D02*
X111145771Y-65584285D01*
X111145771Y-65584285D02*
X110955295Y-65536666D01*
X110955295Y-65536666D02*
X110860057Y-65489047D01*
X110860057Y-65489047D02*
X110812438Y-65441428D01*
X110812438Y-65441428D02*
X110764819Y-65346190D01*
X111098152Y-64584285D02*
X111764819Y-64584285D01*
X111193390Y-64584285D02*
X111145771Y-64536666D01*
X111145771Y-64536666D02*
X111098152Y-64441428D01*
X111098152Y-64441428D02*
X111098152Y-64298571D01*
X111098152Y-64298571D02*
X111145771Y-64203333D01*
X111145771Y-64203333D02*
X111241009Y-64155714D01*
X111241009Y-64155714D02*
X111764819Y-64155714D01*
X111241009Y-63346190D02*
X111241009Y-63679523D01*
X111764819Y-63679523D02*
X110764819Y-63679523D01*
X110764819Y-63679523D02*
X110764819Y-63203333D01*
X98336892Y-66181009D02*
X98003559Y-66181009D01*
X98003559Y-66704819D02*
X98003559Y-65704819D01*
X98003559Y-65704819D02*
X98479749Y-65704819D01*
X99289273Y-66038152D02*
X99289273Y-66704819D01*
X98860702Y-66038152D02*
X98860702Y-66561961D01*
X98860702Y-66561961D02*
X98908321Y-66657200D01*
X98908321Y-66657200D02*
X99003559Y-66704819D01*
X99003559Y-66704819D02*
X99146416Y-66704819D01*
X99146416Y-66704819D02*
X99241654Y-66657200D01*
X99241654Y-66657200D02*
X99289273Y-66609580D01*
X99717845Y-66657200D02*
X99813083Y-66704819D01*
X99813083Y-66704819D02*
X100003559Y-66704819D01*
X100003559Y-66704819D02*
X100098797Y-66657200D01*
X100098797Y-66657200D02*
X100146416Y-66561961D01*
X100146416Y-66561961D02*
X100146416Y-66514342D01*
X100146416Y-66514342D02*
X100098797Y-66419104D01*
X100098797Y-66419104D02*
X100003559Y-66371485D01*
X100003559Y-66371485D02*
X99860702Y-66371485D01*
X99860702Y-66371485D02*
X99765464Y-66323866D01*
X99765464Y-66323866D02*
X99717845Y-66228628D01*
X99717845Y-66228628D02*
X99717845Y-66181009D01*
X99717845Y-66181009D02*
X99765464Y-66085771D01*
X99765464Y-66085771D02*
X99860702Y-66038152D01*
X99860702Y-66038152D02*
X100003559Y-66038152D01*
X100003559Y-66038152D02*
X100098797Y-66085771D01*
X100955940Y-66657200D02*
X100860702Y-66704819D01*
X100860702Y-66704819D02*
X100670226Y-66704819D01*
X100670226Y-66704819D02*
X100574988Y-66657200D01*
X100574988Y-66657200D02*
X100527369Y-66561961D01*
X100527369Y-66561961D02*
X100527369Y-66181009D01*
X100527369Y-66181009D02*
X100574988Y-66085771D01*
X100574988Y-66085771D02*
X100670226Y-66038152D01*
X100670226Y-66038152D02*
X100860702Y-66038152D01*
X100860702Y-66038152D02*
X100955940Y-66085771D01*
X100955940Y-66085771D02*
X101003559Y-66181009D01*
X101003559Y-66181009D02*
X101003559Y-66276247D01*
X101003559Y-66276247D02*
X100527369Y-66371485D01*
X121777143Y-54794819D02*
X121872381Y-54794819D01*
X121872381Y-54794819D02*
X121967619Y-54842438D01*
X121967619Y-54842438D02*
X122015238Y-54890057D01*
X122015238Y-54890057D02*
X122062857Y-54985295D01*
X122062857Y-54985295D02*
X122110476Y-55175771D01*
X122110476Y-55175771D02*
X122110476Y-55413866D01*
X122110476Y-55413866D02*
X122062857Y-55604342D01*
X122062857Y-55604342D02*
X122015238Y-55699580D01*
X122015238Y-55699580D02*
X121967619Y-55747200D01*
X121967619Y-55747200D02*
X121872381Y-55794819D01*
X121872381Y-55794819D02*
X121777143Y-55794819D01*
X121777143Y-55794819D02*
X121681905Y-55747200D01*
X121681905Y-55747200D02*
X121634286Y-55699580D01*
X121634286Y-55699580D02*
X121586667Y-55604342D01*
X121586667Y-55604342D02*
X121539048Y-55413866D01*
X121539048Y-55413866D02*
X121539048Y-55175771D01*
X121539048Y-55175771D02*
X121586667Y-54985295D01*
X121586667Y-54985295D02*
X121634286Y-54890057D01*
X121634286Y-54890057D02*
X121681905Y-54842438D01*
X121681905Y-54842438D02*
X121777143Y-54794819D01*
X122539048Y-55699580D02*
X122586667Y-55747200D01*
X122586667Y-55747200D02*
X122539048Y-55794819D01*
X122539048Y-55794819D02*
X122491429Y-55747200D01*
X122491429Y-55747200D02*
X122539048Y-55699580D01*
X122539048Y-55699580D02*
X122539048Y-55794819D01*
X123539047Y-55794819D02*
X122967619Y-55794819D01*
X123253333Y-55794819D02*
X123253333Y-54794819D01*
X123253333Y-54794819D02*
X123158095Y-54937676D01*
X123158095Y-54937676D02*
X123062857Y-55032914D01*
X123062857Y-55032914D02*
X122967619Y-55080533D01*
X124396190Y-55128152D02*
X124396190Y-55794819D01*
X123967619Y-55128152D02*
X123967619Y-55651961D01*
X123967619Y-55651961D02*
X124015238Y-55747200D01*
X124015238Y-55747200D02*
X124110476Y-55794819D01*
X124110476Y-55794819D02*
X124253333Y-55794819D01*
X124253333Y-55794819D02*
X124348571Y-55747200D01*
X124348571Y-55747200D02*
X124396190Y-55699580D01*
X125205714Y-55271009D02*
X124872381Y-55271009D01*
X124872381Y-55794819D02*
X124872381Y-54794819D01*
X124872381Y-54794819D02*
X125348571Y-54794819D01*
X141235713Y-74944819D02*
X140759523Y-74944819D01*
X140759523Y-74944819D02*
X140711904Y-75421009D01*
X140711904Y-75421009D02*
X140759523Y-75373390D01*
X140759523Y-75373390D02*
X140854761Y-75325771D01*
X140854761Y-75325771D02*
X141092856Y-75325771D01*
X141092856Y-75325771D02*
X141188094Y-75373390D01*
X141188094Y-75373390D02*
X141235713Y-75421009D01*
X141235713Y-75421009D02*
X141283332Y-75516247D01*
X141283332Y-75516247D02*
X141283332Y-75754342D01*
X141283332Y-75754342D02*
X141235713Y-75849580D01*
X141235713Y-75849580D02*
X141188094Y-75897200D01*
X141188094Y-75897200D02*
X141092856Y-75944819D01*
X141092856Y-75944819D02*
X140854761Y-75944819D01*
X140854761Y-75944819D02*
X140759523Y-75897200D01*
X140759523Y-75897200D02*
X140711904Y-75849580D01*
X141616666Y-75278152D02*
X141854761Y-75944819D01*
X141854761Y-75944819D02*
X142092856Y-75278152D01*
X142235714Y-76040057D02*
X142997618Y-76040057D01*
X143378571Y-75944819D02*
X143283333Y-75897200D01*
X143283333Y-75897200D02*
X143235714Y-75849580D01*
X143235714Y-75849580D02*
X143188095Y-75754342D01*
X143188095Y-75754342D02*
X143188095Y-75468628D01*
X143188095Y-75468628D02*
X143235714Y-75373390D01*
X143235714Y-75373390D02*
X143283333Y-75325771D01*
X143283333Y-75325771D02*
X143378571Y-75278152D01*
X143378571Y-75278152D02*
X143521428Y-75278152D01*
X143521428Y-75278152D02*
X143616666Y-75325771D01*
X143616666Y-75325771D02*
X143664285Y-75373390D01*
X143664285Y-75373390D02*
X143711904Y-75468628D01*
X143711904Y-75468628D02*
X143711904Y-75754342D01*
X143711904Y-75754342D02*
X143664285Y-75849580D01*
X143664285Y-75849580D02*
X143616666Y-75897200D01*
X143616666Y-75897200D02*
X143521428Y-75944819D01*
X143521428Y-75944819D02*
X143378571Y-75944819D01*
X144569047Y-75278152D02*
X144569047Y-75944819D01*
X144140476Y-75278152D02*
X144140476Y-75801961D01*
X144140476Y-75801961D02*
X144188095Y-75897200D01*
X144188095Y-75897200D02*
X144283333Y-75944819D01*
X144283333Y-75944819D02*
X144426190Y-75944819D01*
X144426190Y-75944819D02*
X144521428Y-75897200D01*
X144521428Y-75897200D02*
X144569047Y-75849580D01*
X144902381Y-75278152D02*
X145283333Y-75278152D01*
X145045238Y-74944819D02*
X145045238Y-75801961D01*
X145045238Y-75801961D02*
X145092857Y-75897200D01*
X145092857Y-75897200D02*
X145188095Y-75944819D01*
X145188095Y-75944819D02*
X145283333Y-75944819D01*
X153968990Y-75906092D02*
X153968990Y-75572759D01*
X153445180Y-75572759D02*
X154445180Y-75572759D01*
X154445180Y-75572759D02*
X154445180Y-76048949D01*
X154111847Y-76858473D02*
X153445180Y-76858473D01*
X154111847Y-76429902D02*
X153588038Y-76429902D01*
X153588038Y-76429902D02*
X153492800Y-76477521D01*
X153492800Y-76477521D02*
X153445180Y-76572759D01*
X153445180Y-76572759D02*
X153445180Y-76715616D01*
X153445180Y-76715616D02*
X153492800Y-76810854D01*
X153492800Y-76810854D02*
X153540419Y-76858473D01*
X153492800Y-77287045D02*
X153445180Y-77382283D01*
X153445180Y-77382283D02*
X153445180Y-77572759D01*
X153445180Y-77572759D02*
X153492800Y-77667997D01*
X153492800Y-77667997D02*
X153588038Y-77715616D01*
X153588038Y-77715616D02*
X153635657Y-77715616D01*
X153635657Y-77715616D02*
X153730895Y-77667997D01*
X153730895Y-77667997D02*
X153778514Y-77572759D01*
X153778514Y-77572759D02*
X153778514Y-77429902D01*
X153778514Y-77429902D02*
X153826133Y-77334664D01*
X153826133Y-77334664D02*
X153921371Y-77287045D01*
X153921371Y-77287045D02*
X153968990Y-77287045D01*
X153968990Y-77287045D02*
X154064228Y-77334664D01*
X154064228Y-77334664D02*
X154111847Y-77429902D01*
X154111847Y-77429902D02*
X154111847Y-77572759D01*
X154111847Y-77572759D02*
X154064228Y-77667997D01*
X153492800Y-78525140D02*
X153445180Y-78429902D01*
X153445180Y-78429902D02*
X153445180Y-78239426D01*
X153445180Y-78239426D02*
X153492800Y-78144188D01*
X153492800Y-78144188D02*
X153588038Y-78096569D01*
X153588038Y-78096569D02*
X153968990Y-78096569D01*
X153968990Y-78096569D02*
X154064228Y-78144188D01*
X154064228Y-78144188D02*
X154111847Y-78239426D01*
X154111847Y-78239426D02*
X154111847Y-78429902D01*
X154111847Y-78429902D02*
X154064228Y-78525140D01*
X154064228Y-78525140D02*
X153968990Y-78572759D01*
X153968990Y-78572759D02*
X153873752Y-78572759D01*
X153873752Y-78572759D02*
X153778514Y-78096569D01*
X120749999Y-61116033D02*
X121149999Y-61116033D01*
X120949999Y-61816033D02*
X120949999Y-61116033D01*
X121383332Y-61816033D02*
X121383332Y-61116033D01*
X121383332Y-61116033D02*
X121649999Y-61116033D01*
X121649999Y-61116033D02*
X121716666Y-61149366D01*
X121716666Y-61149366D02*
X121749999Y-61182700D01*
X121749999Y-61182700D02*
X121783332Y-61249366D01*
X121783332Y-61249366D02*
X121783332Y-61349366D01*
X121783332Y-61349366D02*
X121749999Y-61416033D01*
X121749999Y-61416033D02*
X121716666Y-61449366D01*
X121716666Y-61449366D02*
X121649999Y-61482700D01*
X121649999Y-61482700D02*
X121383332Y-61482700D01*
X122049999Y-61782700D02*
X122149999Y-61816033D01*
X122149999Y-61816033D02*
X122316666Y-61816033D01*
X122316666Y-61816033D02*
X122383332Y-61782700D01*
X122383332Y-61782700D02*
X122416666Y-61749366D01*
X122416666Y-61749366D02*
X122449999Y-61682700D01*
X122449999Y-61682700D02*
X122449999Y-61616033D01*
X122449999Y-61616033D02*
X122416666Y-61549366D01*
X122416666Y-61549366D02*
X122383332Y-61516033D01*
X122383332Y-61516033D02*
X122316666Y-61482700D01*
X122316666Y-61482700D02*
X122183332Y-61449366D01*
X122183332Y-61449366D02*
X122116666Y-61416033D01*
X122116666Y-61416033D02*
X122083332Y-61382700D01*
X122083332Y-61382700D02*
X122049999Y-61316033D01*
X122049999Y-61316033D02*
X122049999Y-61249366D01*
X122049999Y-61249366D02*
X122083332Y-61182700D01*
X122083332Y-61182700D02*
X122116666Y-61149366D01*
X122116666Y-61149366D02*
X122183332Y-61116033D01*
X122183332Y-61116033D02*
X122349999Y-61116033D01*
X122349999Y-61116033D02*
X122449999Y-61149366D01*
X123083333Y-61116033D02*
X122749999Y-61116033D01*
X122749999Y-61116033D02*
X122716666Y-61449366D01*
X122716666Y-61449366D02*
X122749999Y-61416033D01*
X122749999Y-61416033D02*
X122816666Y-61382700D01*
X122816666Y-61382700D02*
X122983333Y-61382700D01*
X122983333Y-61382700D02*
X123049999Y-61416033D01*
X123049999Y-61416033D02*
X123083333Y-61449366D01*
X123083333Y-61449366D02*
X123116666Y-61516033D01*
X123116666Y-61516033D02*
X123116666Y-61682700D01*
X123116666Y-61682700D02*
X123083333Y-61749366D01*
X123083333Y-61749366D02*
X123049999Y-61782700D01*
X123049999Y-61782700D02*
X122983333Y-61816033D01*
X122983333Y-61816033D02*
X122816666Y-61816033D01*
X122816666Y-61816033D02*
X122749999Y-61782700D01*
X122749999Y-61782700D02*
X122716666Y-61749366D01*
X123716666Y-61349366D02*
X123716666Y-61816033D01*
X123550000Y-61082700D02*
X123383333Y-61582700D01*
X123383333Y-61582700D02*
X123816666Y-61582700D01*
X124416667Y-61116033D02*
X124083333Y-61116033D01*
X124083333Y-61116033D02*
X124050000Y-61449366D01*
X124050000Y-61449366D02*
X124083333Y-61416033D01*
X124083333Y-61416033D02*
X124150000Y-61382700D01*
X124150000Y-61382700D02*
X124316667Y-61382700D01*
X124316667Y-61382700D02*
X124383333Y-61416033D01*
X124383333Y-61416033D02*
X124416667Y-61449366D01*
X124416667Y-61449366D02*
X124450000Y-61516033D01*
X124450000Y-61516033D02*
X124450000Y-61682700D01*
X124450000Y-61682700D02*
X124416667Y-61749366D01*
X124416667Y-61749366D02*
X124383333Y-61782700D01*
X124383333Y-61782700D02*
X124316667Y-61816033D01*
X124316667Y-61816033D02*
X124150000Y-61816033D01*
X124150000Y-61816033D02*
X124083333Y-61782700D01*
X124083333Y-61782700D02*
X124050000Y-61749366D01*
X125050000Y-61116033D02*
X124916667Y-61116033D01*
X124916667Y-61116033D02*
X124850000Y-61149366D01*
X124850000Y-61149366D02*
X124816667Y-61182700D01*
X124816667Y-61182700D02*
X124750000Y-61282700D01*
X124750000Y-61282700D02*
X124716667Y-61416033D01*
X124716667Y-61416033D02*
X124716667Y-61682700D01*
X124716667Y-61682700D02*
X124750000Y-61749366D01*
X124750000Y-61749366D02*
X124783334Y-61782700D01*
X124783334Y-61782700D02*
X124850000Y-61816033D01*
X124850000Y-61816033D02*
X124983334Y-61816033D01*
X124983334Y-61816033D02*
X125050000Y-61782700D01*
X125050000Y-61782700D02*
X125083334Y-61749366D01*
X125083334Y-61749366D02*
X125116667Y-61682700D01*
X125116667Y-61682700D02*
X125116667Y-61516033D01*
X125116667Y-61516033D02*
X125083334Y-61449366D01*
X125083334Y-61449366D02*
X125050000Y-61416033D01*
X125050000Y-61416033D02*
X124983334Y-61382700D01*
X124983334Y-61382700D02*
X124850000Y-61382700D01*
X124850000Y-61382700D02*
X124783334Y-61416033D01*
X124783334Y-61416033D02*
X124750000Y-61449366D01*
X124750000Y-61449366D02*
X124716667Y-61516033D01*
X125550001Y-61116033D02*
X125616667Y-61116033D01*
X125616667Y-61116033D02*
X125683334Y-61149366D01*
X125683334Y-61149366D02*
X125716667Y-61182700D01*
X125716667Y-61182700D02*
X125750001Y-61249366D01*
X125750001Y-61249366D02*
X125783334Y-61382700D01*
X125783334Y-61382700D02*
X125783334Y-61549366D01*
X125783334Y-61549366D02*
X125750001Y-61682700D01*
X125750001Y-61682700D02*
X125716667Y-61749366D01*
X125716667Y-61749366D02*
X125683334Y-61782700D01*
X125683334Y-61782700D02*
X125616667Y-61816033D01*
X125616667Y-61816033D02*
X125550001Y-61816033D01*
X125550001Y-61816033D02*
X125483334Y-61782700D01*
X125483334Y-61782700D02*
X125450001Y-61749366D01*
X125450001Y-61749366D02*
X125416667Y-61682700D01*
X125416667Y-61682700D02*
X125383334Y-61549366D01*
X125383334Y-61549366D02*
X125383334Y-61382700D01*
X125383334Y-61382700D02*
X125416667Y-61249366D01*
X125416667Y-61249366D02*
X125450001Y-61182700D01*
X125450001Y-61182700D02*
X125483334Y-61149366D01*
X125483334Y-61149366D02*
X125550001Y-61116033D01*
X126316668Y-61449366D02*
X126416668Y-61482700D01*
X126416668Y-61482700D02*
X126450001Y-61516033D01*
X126450001Y-61516033D02*
X126483334Y-61582700D01*
X126483334Y-61582700D02*
X126483334Y-61682700D01*
X126483334Y-61682700D02*
X126450001Y-61749366D01*
X126450001Y-61749366D02*
X126416668Y-61782700D01*
X126416668Y-61782700D02*
X126350001Y-61816033D01*
X126350001Y-61816033D02*
X126083334Y-61816033D01*
X126083334Y-61816033D02*
X126083334Y-61116033D01*
X126083334Y-61116033D02*
X126316668Y-61116033D01*
X126316668Y-61116033D02*
X126383334Y-61149366D01*
X126383334Y-61149366D02*
X126416668Y-61182700D01*
X126416668Y-61182700D02*
X126450001Y-61249366D01*
X126450001Y-61249366D02*
X126450001Y-61316033D01*
X126450001Y-61316033D02*
X126416668Y-61382700D01*
X126416668Y-61382700D02*
X126383334Y-61416033D01*
X126383334Y-61416033D02*
X126316668Y-61449366D01*
X126316668Y-61449366D02*
X126083334Y-61449366D01*
X126783334Y-61816033D02*
X126783334Y-61116033D01*
X126783334Y-61116033D02*
X126950001Y-61116033D01*
X126950001Y-61116033D02*
X127050001Y-61149366D01*
X127050001Y-61149366D02*
X127116668Y-61216033D01*
X127116668Y-61216033D02*
X127150001Y-61282700D01*
X127150001Y-61282700D02*
X127183334Y-61416033D01*
X127183334Y-61416033D02*
X127183334Y-61516033D01*
X127183334Y-61516033D02*
X127150001Y-61649366D01*
X127150001Y-61649366D02*
X127116668Y-61716033D01*
X127116668Y-61716033D02*
X127050001Y-61782700D01*
X127050001Y-61782700D02*
X126950001Y-61816033D01*
X126950001Y-61816033D02*
X126783334Y-61816033D01*
X127483334Y-61816033D02*
X127483334Y-61116033D01*
X127483334Y-61116033D02*
X127650001Y-61116033D01*
X127650001Y-61116033D02*
X127750001Y-61149366D01*
X127750001Y-61149366D02*
X127816668Y-61216033D01*
X127816668Y-61216033D02*
X127850001Y-61282700D01*
X127850001Y-61282700D02*
X127883334Y-61416033D01*
X127883334Y-61416033D02*
X127883334Y-61516033D01*
X127883334Y-61516033D02*
X127850001Y-61649366D01*
X127850001Y-61649366D02*
X127816668Y-61716033D01*
X127816668Y-61716033D02*
X127750001Y-61782700D01*
X127750001Y-61782700D02*
X127650001Y-61816033D01*
X127650001Y-61816033D02*
X127483334Y-61816033D01*
X128150001Y-61616033D02*
X128483334Y-61616033D01*
X128083334Y-61816033D02*
X128316668Y-61116033D01*
X128316668Y-61116033D02*
X128550001Y-61816033D01*
X129183334Y-61816033D02*
X128950001Y-61482700D01*
X128783334Y-61816033D02*
X128783334Y-61116033D01*
X128783334Y-61116033D02*
X129050001Y-61116033D01*
X129050001Y-61116033D02*
X129116668Y-61149366D01*
X129116668Y-61149366D02*
X129150001Y-61182700D01*
X129150001Y-61182700D02*
X129183334Y-61249366D01*
X129183334Y-61249366D02*
X129183334Y-61349366D01*
X129183334Y-61349366D02*
X129150001Y-61416033D01*
X129150001Y-61416033D02*
X129116668Y-61449366D01*
X129116668Y-61449366D02*
X129050001Y-61482700D01*
X129050001Y-61482700D02*
X128783334Y-61482700D01*
X117864819Y-69785713D02*
X117864819Y-69595237D01*
X117864819Y-69595237D02*
X117817200Y-69499999D01*
X117817200Y-69499999D02*
X117769580Y-69452380D01*
X117769580Y-69452380D02*
X117626723Y-69357142D01*
X117626723Y-69357142D02*
X117436247Y-69309523D01*
X117436247Y-69309523D02*
X117055295Y-69309523D01*
X117055295Y-69309523D02*
X116960057Y-69357142D01*
X116960057Y-69357142D02*
X116912438Y-69404761D01*
X116912438Y-69404761D02*
X116864819Y-69499999D01*
X116864819Y-69499999D02*
X116864819Y-69690475D01*
X116864819Y-69690475D02*
X116912438Y-69785713D01*
X116912438Y-69785713D02*
X116960057Y-69833332D01*
X116960057Y-69833332D02*
X117055295Y-69880951D01*
X117055295Y-69880951D02*
X117293390Y-69880951D01*
X117293390Y-69880951D02*
X117388628Y-69833332D01*
X117388628Y-69833332D02*
X117436247Y-69785713D01*
X117436247Y-69785713D02*
X117483866Y-69690475D01*
X117483866Y-69690475D02*
X117483866Y-69499999D01*
X117483866Y-69499999D02*
X117436247Y-69404761D01*
X117436247Y-69404761D02*
X117388628Y-69357142D01*
X117388628Y-69357142D02*
X117293390Y-69309523D01*
X116864819Y-68690475D02*
X116864819Y-68595237D01*
X116864819Y-68595237D02*
X116912438Y-68499999D01*
X116912438Y-68499999D02*
X116960057Y-68452380D01*
X116960057Y-68452380D02*
X117055295Y-68404761D01*
X117055295Y-68404761D02*
X117245771Y-68357142D01*
X117245771Y-68357142D02*
X117483866Y-68357142D01*
X117483866Y-68357142D02*
X117674342Y-68404761D01*
X117674342Y-68404761D02*
X117769580Y-68452380D01*
X117769580Y-68452380D02*
X117817200Y-68499999D01*
X117817200Y-68499999D02*
X117864819Y-68595237D01*
X117864819Y-68595237D02*
X117864819Y-68690475D01*
X117864819Y-68690475D02*
X117817200Y-68785713D01*
X117817200Y-68785713D02*
X117769580Y-68833332D01*
X117769580Y-68833332D02*
X117674342Y-68880951D01*
X117674342Y-68880951D02*
X117483866Y-68928570D01*
X117483866Y-68928570D02*
X117245771Y-68928570D01*
X117245771Y-68928570D02*
X117055295Y-68880951D01*
X117055295Y-68880951D02*
X116960057Y-68833332D01*
X116960057Y-68833332D02*
X116912438Y-68785713D01*
X116912438Y-68785713D02*
X116864819Y-68690475D01*
X117769580Y-67928570D02*
X117817200Y-67880951D01*
X117817200Y-67880951D02*
X117864819Y-67928570D01*
X117864819Y-67928570D02*
X117817200Y-67976189D01*
X117817200Y-67976189D02*
X117769580Y-67928570D01*
X117769580Y-67928570D02*
X117864819Y-67928570D01*
X117864819Y-67404761D02*
X117864819Y-67214285D01*
X117864819Y-67214285D02*
X117817200Y-67119047D01*
X117817200Y-67119047D02*
X117769580Y-67071428D01*
X117769580Y-67071428D02*
X117626723Y-66976190D01*
X117626723Y-66976190D02*
X117436247Y-66928571D01*
X117436247Y-66928571D02*
X117055295Y-66928571D01*
X117055295Y-66928571D02*
X116960057Y-66976190D01*
X116960057Y-66976190D02*
X116912438Y-67023809D01*
X116912438Y-67023809D02*
X116864819Y-67119047D01*
X116864819Y-67119047D02*
X116864819Y-67309523D01*
X116864819Y-67309523D02*
X116912438Y-67404761D01*
X116912438Y-67404761D02*
X116960057Y-67452380D01*
X116960057Y-67452380D02*
X117055295Y-67499999D01*
X117055295Y-67499999D02*
X117293390Y-67499999D01*
X117293390Y-67499999D02*
X117388628Y-67452380D01*
X117388628Y-67452380D02*
X117436247Y-67404761D01*
X117436247Y-67404761D02*
X117483866Y-67309523D01*
X117483866Y-67309523D02*
X117483866Y-67119047D01*
X117483866Y-67119047D02*
X117436247Y-67023809D01*
X117436247Y-67023809D02*
X117388628Y-66976190D01*
X117388628Y-66976190D02*
X117293390Y-66928571D01*
X117864819Y-66499999D02*
X116864819Y-66499999D01*
X117483866Y-66404761D02*
X117864819Y-66119047D01*
X117198152Y-66119047D02*
X117579104Y-66499999D01*
X134111009Y-56666190D02*
X134158628Y-56523333D01*
X134158628Y-56523333D02*
X134206247Y-56475714D01*
X134206247Y-56475714D02*
X134301485Y-56428095D01*
X134301485Y-56428095D02*
X134444342Y-56428095D01*
X134444342Y-56428095D02*
X134539580Y-56475714D01*
X134539580Y-56475714D02*
X134587200Y-56523333D01*
X134587200Y-56523333D02*
X134634819Y-56618571D01*
X134634819Y-56618571D02*
X134634819Y-56999523D01*
X134634819Y-56999523D02*
X133634819Y-56999523D01*
X133634819Y-56999523D02*
X133634819Y-56666190D01*
X133634819Y-56666190D02*
X133682438Y-56570952D01*
X133682438Y-56570952D02*
X133730057Y-56523333D01*
X133730057Y-56523333D02*
X133825295Y-56475714D01*
X133825295Y-56475714D02*
X133920533Y-56475714D01*
X133920533Y-56475714D02*
X134015771Y-56523333D01*
X134015771Y-56523333D02*
X134063390Y-56570952D01*
X134063390Y-56570952D02*
X134111009Y-56666190D01*
X134111009Y-56666190D02*
X134111009Y-56999523D01*
X133634819Y-55523333D02*
X133634819Y-55999523D01*
X133634819Y-55999523D02*
X134111009Y-56047142D01*
X134111009Y-56047142D02*
X134063390Y-55999523D01*
X134063390Y-55999523D02*
X134015771Y-55904285D01*
X134015771Y-55904285D02*
X134015771Y-55666190D01*
X134015771Y-55666190D02*
X134063390Y-55570952D01*
X134063390Y-55570952D02*
X134111009Y-55523333D01*
X134111009Y-55523333D02*
X134206247Y-55475714D01*
X134206247Y-55475714D02*
X134444342Y-55475714D01*
X134444342Y-55475714D02*
X134539580Y-55523333D01*
X134539580Y-55523333D02*
X134587200Y-55570952D01*
X134587200Y-55570952D02*
X134634819Y-55666190D01*
X134634819Y-55666190D02*
X134634819Y-55904285D01*
X134634819Y-55904285D02*
X134587200Y-55999523D01*
X134587200Y-55999523D02*
X134539580Y-56047142D01*
X133634819Y-54618571D02*
X133634819Y-54809047D01*
X133634819Y-54809047D02*
X133682438Y-54904285D01*
X133682438Y-54904285D02*
X133730057Y-54951904D01*
X133730057Y-54951904D02*
X133872914Y-55047142D01*
X133872914Y-55047142D02*
X134063390Y-55094761D01*
X134063390Y-55094761D02*
X134444342Y-55094761D01*
X134444342Y-55094761D02*
X134539580Y-55047142D01*
X134539580Y-55047142D02*
X134587200Y-54999523D01*
X134587200Y-54999523D02*
X134634819Y-54904285D01*
X134634819Y-54904285D02*
X134634819Y-54713809D01*
X134634819Y-54713809D02*
X134587200Y-54618571D01*
X134587200Y-54618571D02*
X134539580Y-54570952D01*
X134539580Y-54570952D02*
X134444342Y-54523333D01*
X134444342Y-54523333D02*
X134206247Y-54523333D01*
X134206247Y-54523333D02*
X134111009Y-54570952D01*
X134111009Y-54570952D02*
X134063390Y-54618571D01*
X134063390Y-54618571D02*
X134015771Y-54713809D01*
X134015771Y-54713809D02*
X134015771Y-54904285D01*
X134015771Y-54904285D02*
X134063390Y-54999523D01*
X134063390Y-54999523D02*
X134111009Y-55047142D01*
X134111009Y-55047142D02*
X134206247Y-55094761D01*
X133634819Y-53904285D02*
X133634819Y-53809047D01*
X133634819Y-53809047D02*
X133682438Y-53713809D01*
X133682438Y-53713809D02*
X133730057Y-53666190D01*
X133730057Y-53666190D02*
X133825295Y-53618571D01*
X133825295Y-53618571D02*
X134015771Y-53570952D01*
X134015771Y-53570952D02*
X134253866Y-53570952D01*
X134253866Y-53570952D02*
X134444342Y-53618571D01*
X134444342Y-53618571D02*
X134539580Y-53666190D01*
X134539580Y-53666190D02*
X134587200Y-53713809D01*
X134587200Y-53713809D02*
X134634819Y-53809047D01*
X134634819Y-53809047D02*
X134634819Y-53904285D01*
X134634819Y-53904285D02*
X134587200Y-53999523D01*
X134587200Y-53999523D02*
X134539580Y-54047142D01*
X134539580Y-54047142D02*
X134444342Y-54094761D01*
X134444342Y-54094761D02*
X134253866Y-54142380D01*
X134253866Y-54142380D02*
X134015771Y-54142380D01*
X134015771Y-54142380D02*
X133825295Y-54094761D01*
X133825295Y-54094761D02*
X133730057Y-54047142D01*
X133730057Y-54047142D02*
X133682438Y-53999523D01*
X133682438Y-53999523D02*
X133634819Y-53904285D01*
X134539580Y-52570952D02*
X134587200Y-52618571D01*
X134587200Y-52618571D02*
X134634819Y-52761428D01*
X134634819Y-52761428D02*
X134634819Y-52856666D01*
X134634819Y-52856666D02*
X134587200Y-52999523D01*
X134587200Y-52999523D02*
X134491961Y-53094761D01*
X134491961Y-53094761D02*
X134396723Y-53142380D01*
X134396723Y-53142380D02*
X134206247Y-53189999D01*
X134206247Y-53189999D02*
X134063390Y-53189999D01*
X134063390Y-53189999D02*
X133872914Y-53142380D01*
X133872914Y-53142380D02*
X133777676Y-53094761D01*
X133777676Y-53094761D02*
X133682438Y-52999523D01*
X133682438Y-52999523D02*
X133634819Y-52856666D01*
X133634819Y-52856666D02*
X133634819Y-52761428D01*
X133634819Y-52761428D02*
X133682438Y-52618571D01*
X133682438Y-52618571D02*
X133730057Y-52570952D01*
X134253866Y-52142380D02*
X134253866Y-51380476D01*
X134634819Y-50380476D02*
X134634819Y-50951904D01*
X134634819Y-50666190D02*
X133634819Y-50666190D01*
X133634819Y-50666190D02*
X133777676Y-50761428D01*
X133777676Y-50761428D02*
X133872914Y-50856666D01*
X133872914Y-50856666D02*
X133920533Y-50951904D01*
X133634819Y-50047142D02*
X133634819Y-49428095D01*
X133634819Y-49428095D02*
X134015771Y-49761428D01*
X134015771Y-49761428D02*
X134015771Y-49618571D01*
X134015771Y-49618571D02*
X134063390Y-49523333D01*
X134063390Y-49523333D02*
X134111009Y-49475714D01*
X134111009Y-49475714D02*
X134206247Y-49428095D01*
X134206247Y-49428095D02*
X134444342Y-49428095D01*
X134444342Y-49428095D02*
X134539580Y-49475714D01*
X134539580Y-49475714D02*
X134587200Y-49523333D01*
X134587200Y-49523333D02*
X134634819Y-49618571D01*
X134634819Y-49618571D02*
X134634819Y-49904285D01*
X134634819Y-49904285D02*
X134587200Y-49999523D01*
X134587200Y-49999523D02*
X134539580Y-50047142D01*
X134253866Y-48999523D02*
X134253866Y-48237619D01*
X134111009Y-47428095D02*
X134111009Y-47761428D01*
X134634819Y-47761428D02*
X133634819Y-47761428D01*
X133634819Y-47761428D02*
X133634819Y-47285238D01*
X133740476Y-67724819D02*
X133169048Y-67724819D01*
X133454762Y-67724819D02*
X133454762Y-66724819D01*
X133454762Y-66724819D02*
X133359524Y-66867676D01*
X133359524Y-66867676D02*
X133264286Y-66962914D01*
X133264286Y-66962914D02*
X133169048Y-67010533D01*
X134597619Y-66724819D02*
X134407143Y-66724819D01*
X134407143Y-66724819D02*
X134311905Y-66772438D01*
X134311905Y-66772438D02*
X134264286Y-66820057D01*
X134264286Y-66820057D02*
X134169048Y-66962914D01*
X134169048Y-66962914D02*
X134121429Y-67153390D01*
X134121429Y-67153390D02*
X134121429Y-67534342D01*
X134121429Y-67534342D02*
X134169048Y-67629580D01*
X134169048Y-67629580D02*
X134216667Y-67677200D01*
X134216667Y-67677200D02*
X134311905Y-67724819D01*
X134311905Y-67724819D02*
X134502381Y-67724819D01*
X134502381Y-67724819D02*
X134597619Y-67677200D01*
X134597619Y-67677200D02*
X134645238Y-67629580D01*
X134645238Y-67629580D02*
X134692857Y-67534342D01*
X134692857Y-67534342D02*
X134692857Y-67296247D01*
X134692857Y-67296247D02*
X134645238Y-67201009D01*
X134645238Y-67201009D02*
X134597619Y-67153390D01*
X134597619Y-67153390D02*
X134502381Y-67105771D01*
X134502381Y-67105771D02*
X134311905Y-67105771D01*
X134311905Y-67105771D02*
X134216667Y-67153390D01*
X134216667Y-67153390D02*
X134169048Y-67201009D01*
X134169048Y-67201009D02*
X134121429Y-67296247D01*
X135121429Y-67629580D02*
X135169048Y-67677200D01*
X135169048Y-67677200D02*
X135121429Y-67724819D01*
X135121429Y-67724819D02*
X135073810Y-67677200D01*
X135073810Y-67677200D02*
X135121429Y-67629580D01*
X135121429Y-67629580D02*
X135121429Y-67724819D01*
X135645238Y-67724819D02*
X135835714Y-67724819D01*
X135835714Y-67724819D02*
X135930952Y-67677200D01*
X135930952Y-67677200D02*
X135978571Y-67629580D01*
X135978571Y-67629580D02*
X136073809Y-67486723D01*
X136073809Y-67486723D02*
X136121428Y-67296247D01*
X136121428Y-67296247D02*
X136121428Y-66915295D01*
X136121428Y-66915295D02*
X136073809Y-66820057D01*
X136073809Y-66820057D02*
X136026190Y-66772438D01*
X136026190Y-66772438D02*
X135930952Y-66724819D01*
X135930952Y-66724819D02*
X135740476Y-66724819D01*
X135740476Y-66724819D02*
X135645238Y-66772438D01*
X135645238Y-66772438D02*
X135597619Y-66820057D01*
X135597619Y-66820057D02*
X135550000Y-66915295D01*
X135550000Y-66915295D02*
X135550000Y-67153390D01*
X135550000Y-67153390D02*
X135597619Y-67248628D01*
X135597619Y-67248628D02*
X135645238Y-67296247D01*
X135645238Y-67296247D02*
X135740476Y-67343866D01*
X135740476Y-67343866D02*
X135930952Y-67343866D01*
X135930952Y-67343866D02*
X136026190Y-67296247D01*
X136026190Y-67296247D02*
X136073809Y-67248628D01*
X136073809Y-67248628D02*
X136121428Y-67153390D01*
X136550000Y-67724819D02*
X136550000Y-66724819D01*
X136645238Y-67343866D02*
X136930952Y-67724819D01*
X136930952Y-67058152D02*
X136550000Y-67439104D01*
X108687200Y-58741309D02*
X108734819Y-58598452D01*
X108734819Y-58598452D02*
X108734819Y-58360357D01*
X108734819Y-58360357D02*
X108687200Y-58265119D01*
X108687200Y-58265119D02*
X108639580Y-58217500D01*
X108639580Y-58217500D02*
X108544342Y-58169881D01*
X108544342Y-58169881D02*
X108449104Y-58169881D01*
X108449104Y-58169881D02*
X108353866Y-58217500D01*
X108353866Y-58217500D02*
X108306247Y-58265119D01*
X108306247Y-58265119D02*
X108258628Y-58360357D01*
X108258628Y-58360357D02*
X108211009Y-58550833D01*
X108211009Y-58550833D02*
X108163390Y-58646071D01*
X108163390Y-58646071D02*
X108115771Y-58693690D01*
X108115771Y-58693690D02*
X108020533Y-58741309D01*
X108020533Y-58741309D02*
X107925295Y-58741309D01*
X107925295Y-58741309D02*
X107830057Y-58693690D01*
X107830057Y-58693690D02*
X107782438Y-58646071D01*
X107782438Y-58646071D02*
X107734819Y-58550833D01*
X107734819Y-58550833D02*
X107734819Y-58312738D01*
X107734819Y-58312738D02*
X107782438Y-58169881D01*
X108734819Y-57741309D02*
X107734819Y-57741309D01*
X107734819Y-57741309D02*
X108449104Y-57407976D01*
X108449104Y-57407976D02*
X107734819Y-57074643D01*
X107734819Y-57074643D02*
X108734819Y-57074643D01*
X107734819Y-56169881D02*
X107734819Y-56360357D01*
X107734819Y-56360357D02*
X107782438Y-56455595D01*
X107782438Y-56455595D02*
X107830057Y-56503214D01*
X107830057Y-56503214D02*
X107972914Y-56598452D01*
X107972914Y-56598452D02*
X108163390Y-56646071D01*
X108163390Y-56646071D02*
X108544342Y-56646071D01*
X108544342Y-56646071D02*
X108639580Y-56598452D01*
X108639580Y-56598452D02*
X108687200Y-56550833D01*
X108687200Y-56550833D02*
X108734819Y-56455595D01*
X108734819Y-56455595D02*
X108734819Y-56265119D01*
X108734819Y-56265119D02*
X108687200Y-56169881D01*
X108687200Y-56169881D02*
X108639580Y-56122262D01*
X108639580Y-56122262D02*
X108544342Y-56074643D01*
X108544342Y-56074643D02*
X108306247Y-56074643D01*
X108306247Y-56074643D02*
X108211009Y-56122262D01*
X108211009Y-56122262D02*
X108163390Y-56169881D01*
X108163390Y-56169881D02*
X108115771Y-56265119D01*
X108115771Y-56265119D02*
X108115771Y-56455595D01*
X108115771Y-56455595D02*
X108163390Y-56550833D01*
X108163390Y-56550833D02*
X108211009Y-56598452D01*
X108211009Y-56598452D02*
X108306247Y-56646071D01*
X107734819Y-55788928D02*
X107734819Y-55217500D01*
X108734819Y-55503214D02*
X107734819Y-55503214D01*
X107734819Y-54979404D02*
X107734819Y-54312738D01*
X107734819Y-54312738D02*
X108734819Y-54741309D01*
X107734819Y-54074642D02*
X108734819Y-53741309D01*
X108734819Y-53741309D02*
X107734819Y-53407976D01*
X107734819Y-52598452D02*
X107734819Y-53074642D01*
X107734819Y-53074642D02*
X108211009Y-53122261D01*
X108211009Y-53122261D02*
X108163390Y-53074642D01*
X108163390Y-53074642D02*
X108115771Y-52979404D01*
X108115771Y-52979404D02*
X108115771Y-52741309D01*
X108115771Y-52741309D02*
X108163390Y-52646071D01*
X108163390Y-52646071D02*
X108211009Y-52598452D01*
X108211009Y-52598452D02*
X108306247Y-52550833D01*
X108306247Y-52550833D02*
X108544342Y-52550833D01*
X108544342Y-52550833D02*
X108639580Y-52598452D01*
X108639580Y-52598452D02*
X108687200Y-52646071D01*
X108687200Y-52646071D02*
X108734819Y-52741309D01*
X108734819Y-52741309D02*
X108734819Y-52979404D01*
X108734819Y-52979404D02*
X108687200Y-53074642D01*
X108687200Y-53074642D02*
X108639580Y-53122261D01*
X108449104Y-52169880D02*
X108449104Y-51693690D01*
X108734819Y-52265118D02*
X107734819Y-51931785D01*
X107734819Y-51931785D02*
X108734819Y-51598452D01*
X146202857Y-62734819D02*
X145726667Y-62734819D01*
X145726667Y-62734819D02*
X145679048Y-63211009D01*
X145679048Y-63211009D02*
X145726667Y-63163390D01*
X145726667Y-63163390D02*
X145821905Y-63115771D01*
X145821905Y-63115771D02*
X146060000Y-63115771D01*
X146060000Y-63115771D02*
X146155238Y-63163390D01*
X146155238Y-63163390D02*
X146202857Y-63211009D01*
X146202857Y-63211009D02*
X146250476Y-63306247D01*
X146250476Y-63306247D02*
X146250476Y-63544342D01*
X146250476Y-63544342D02*
X146202857Y-63639580D01*
X146202857Y-63639580D02*
X146155238Y-63687200D01*
X146155238Y-63687200D02*
X146060000Y-63734819D01*
X146060000Y-63734819D02*
X145821905Y-63734819D01*
X145821905Y-63734819D02*
X145726667Y-63687200D01*
X145726667Y-63687200D02*
X145679048Y-63639580D01*
X146583810Y-62734819D02*
X147202857Y-62734819D01*
X147202857Y-62734819D02*
X146869524Y-63115771D01*
X146869524Y-63115771D02*
X147012381Y-63115771D01*
X147012381Y-63115771D02*
X147107619Y-63163390D01*
X147107619Y-63163390D02*
X147155238Y-63211009D01*
X147155238Y-63211009D02*
X147202857Y-63306247D01*
X147202857Y-63306247D02*
X147202857Y-63544342D01*
X147202857Y-63544342D02*
X147155238Y-63639580D01*
X147155238Y-63639580D02*
X147107619Y-63687200D01*
X147107619Y-63687200D02*
X147012381Y-63734819D01*
X147012381Y-63734819D02*
X146726667Y-63734819D01*
X146726667Y-63734819D02*
X146631429Y-63687200D01*
X146631429Y-63687200D02*
X146583810Y-63639580D01*
X147631429Y-63639580D02*
X147679048Y-63687200D01*
X147679048Y-63687200D02*
X147631429Y-63734819D01*
X147631429Y-63734819D02*
X147583810Y-63687200D01*
X147583810Y-63687200D02*
X147631429Y-63639580D01*
X147631429Y-63639580D02*
X147631429Y-63734819D01*
X148536190Y-62734819D02*
X148345714Y-62734819D01*
X148345714Y-62734819D02*
X148250476Y-62782438D01*
X148250476Y-62782438D02*
X148202857Y-62830057D01*
X148202857Y-62830057D02*
X148107619Y-62972914D01*
X148107619Y-62972914D02*
X148060000Y-63163390D01*
X148060000Y-63163390D02*
X148060000Y-63544342D01*
X148060000Y-63544342D02*
X148107619Y-63639580D01*
X148107619Y-63639580D02*
X148155238Y-63687200D01*
X148155238Y-63687200D02*
X148250476Y-63734819D01*
X148250476Y-63734819D02*
X148440952Y-63734819D01*
X148440952Y-63734819D02*
X148536190Y-63687200D01*
X148536190Y-63687200D02*
X148583809Y-63639580D01*
X148583809Y-63639580D02*
X148631428Y-63544342D01*
X148631428Y-63544342D02*
X148631428Y-63306247D01*
X148631428Y-63306247D02*
X148583809Y-63211009D01*
X148583809Y-63211009D02*
X148536190Y-63163390D01*
X148536190Y-63163390D02*
X148440952Y-63115771D01*
X148440952Y-63115771D02*
X148250476Y-63115771D01*
X148250476Y-63115771D02*
X148155238Y-63163390D01*
X148155238Y-63163390D02*
X148107619Y-63211009D01*
X148107619Y-63211009D02*
X148060000Y-63306247D01*
X149060000Y-63734819D02*
X149060000Y-62734819D01*
X149155238Y-63353866D02*
X149440952Y-63734819D01*
X149440952Y-63068152D02*
X149060000Y-63449104D01*
X114528152Y-66081666D02*
X115194819Y-66081666D01*
X114147200Y-66319761D02*
X114861485Y-66557856D01*
X114861485Y-66557856D02*
X114861485Y-65938809D01*
X114528152Y-65129285D02*
X115194819Y-65129285D01*
X114147200Y-65367380D02*
X114861485Y-65605475D01*
X114861485Y-65605475D02*
X114861485Y-64986428D01*
X114290057Y-64653094D02*
X114242438Y-64605475D01*
X114242438Y-64605475D02*
X114194819Y-64510237D01*
X114194819Y-64510237D02*
X114194819Y-64272142D01*
X114194819Y-64272142D02*
X114242438Y-64176904D01*
X114242438Y-64176904D02*
X114290057Y-64129285D01*
X114290057Y-64129285D02*
X114385295Y-64081666D01*
X114385295Y-64081666D02*
X114480533Y-64081666D01*
X114480533Y-64081666D02*
X114623390Y-64129285D01*
X114623390Y-64129285D02*
X115194819Y-64700713D01*
X115194819Y-64700713D02*
X115194819Y-64081666D01*
X115194819Y-63653094D02*
X114194819Y-63653094D01*
X114813866Y-63557856D02*
X115194819Y-63272142D01*
X114528152Y-63272142D02*
X114909104Y-63653094D01*
X134020833Y-62628152D02*
X134020833Y-63294819D01*
X133782738Y-62247200D02*
X133544643Y-62961485D01*
X133544643Y-62961485D02*
X134163690Y-62961485D01*
X134449405Y-62294819D02*
X135116071Y-62294819D01*
X135116071Y-62294819D02*
X134687500Y-63294819D01*
X135497024Y-62628152D02*
X135497024Y-63628152D01*
X135497024Y-62675771D02*
X135592262Y-62628152D01*
X135592262Y-62628152D02*
X135782738Y-62628152D01*
X135782738Y-62628152D02*
X135877976Y-62675771D01*
X135877976Y-62675771D02*
X135925595Y-62723390D01*
X135925595Y-62723390D02*
X135973214Y-62818628D01*
X135973214Y-62818628D02*
X135973214Y-63104342D01*
X135973214Y-63104342D02*
X135925595Y-63199580D01*
X135925595Y-63199580D02*
X135877976Y-63247200D01*
X135877976Y-63247200D02*
X135782738Y-63294819D01*
X135782738Y-63294819D02*
X135592262Y-63294819D01*
X135592262Y-63294819D02*
X135497024Y-63247200D01*
X136735119Y-62771009D02*
X136401786Y-62771009D01*
X136401786Y-63294819D02*
X136401786Y-62294819D01*
X136401786Y-62294819D02*
X136877976Y-62294819D01*
X139470952Y-65548152D02*
X139470952Y-66214819D01*
X139232857Y-65167200D02*
X138994762Y-65881485D01*
X138994762Y-65881485D02*
X139613809Y-65881485D01*
X139899524Y-65214819D02*
X140566190Y-65214819D01*
X140566190Y-65214819D02*
X140137619Y-66214819D01*
X141137619Y-65214819D02*
X141232857Y-65214819D01*
X141232857Y-65214819D02*
X141328095Y-65262438D01*
X141328095Y-65262438D02*
X141375714Y-65310057D01*
X141375714Y-65310057D02*
X141423333Y-65405295D01*
X141423333Y-65405295D02*
X141470952Y-65595771D01*
X141470952Y-65595771D02*
X141470952Y-65833866D01*
X141470952Y-65833866D02*
X141423333Y-66024342D01*
X141423333Y-66024342D02*
X141375714Y-66119580D01*
X141375714Y-66119580D02*
X141328095Y-66167200D01*
X141328095Y-66167200D02*
X141232857Y-66214819D01*
X141232857Y-66214819D02*
X141137619Y-66214819D01*
X141137619Y-66214819D02*
X141042381Y-66167200D01*
X141042381Y-66167200D02*
X140994762Y-66119580D01*
X140994762Y-66119580D02*
X140947143Y-66024342D01*
X140947143Y-66024342D02*
X140899524Y-65833866D01*
X140899524Y-65833866D02*
X140899524Y-65595771D01*
X140899524Y-65595771D02*
X140947143Y-65405295D01*
X140947143Y-65405295D02*
X140994762Y-65310057D01*
X140994762Y-65310057D02*
X141042381Y-65262438D01*
X141042381Y-65262438D02*
X141137619Y-65214819D01*
X142090000Y-65214819D02*
X142185238Y-65214819D01*
X142185238Y-65214819D02*
X142280476Y-65262438D01*
X142280476Y-65262438D02*
X142328095Y-65310057D01*
X142328095Y-65310057D02*
X142375714Y-65405295D01*
X142375714Y-65405295D02*
X142423333Y-65595771D01*
X142423333Y-65595771D02*
X142423333Y-65833866D01*
X142423333Y-65833866D02*
X142375714Y-66024342D01*
X142375714Y-66024342D02*
X142328095Y-66119580D01*
X142328095Y-66119580D02*
X142280476Y-66167200D01*
X142280476Y-66167200D02*
X142185238Y-66214819D01*
X142185238Y-66214819D02*
X142090000Y-66214819D01*
X142090000Y-66214819D02*
X141994762Y-66167200D01*
X141994762Y-66167200D02*
X141947143Y-66119580D01*
X141947143Y-66119580D02*
X141899524Y-66024342D01*
X141899524Y-66024342D02*
X141851905Y-65833866D01*
X141851905Y-65833866D02*
X141851905Y-65595771D01*
X141851905Y-65595771D02*
X141899524Y-65405295D01*
X141899524Y-65405295D02*
X141947143Y-65310057D01*
X141947143Y-65310057D02*
X141994762Y-65262438D01*
X141994762Y-65262438D02*
X142090000Y-65214819D01*
X142851905Y-65548152D02*
X142851905Y-66548152D01*
X142851905Y-65595771D02*
X142947143Y-65548152D01*
X142947143Y-65548152D02*
X143137619Y-65548152D01*
X143137619Y-65548152D02*
X143232857Y-65595771D01*
X143232857Y-65595771D02*
X143280476Y-65643390D01*
X143280476Y-65643390D02*
X143328095Y-65738628D01*
X143328095Y-65738628D02*
X143328095Y-66024342D01*
X143328095Y-66024342D02*
X143280476Y-66119580D01*
X143280476Y-66119580D02*
X143232857Y-66167200D01*
X143232857Y-66167200D02*
X143137619Y-66214819D01*
X143137619Y-66214819D02*
X142947143Y-66214819D01*
X142947143Y-66214819D02*
X142851905Y-66167200D01*
X144090000Y-65691009D02*
X143756667Y-65691009D01*
X143756667Y-66214819D02*
X143756667Y-65214819D01*
X143756667Y-65214819D02*
X144232857Y-65214819D01*
X92440000Y-74514819D02*
X93106666Y-74514819D01*
X93106666Y-74514819D02*
X92678095Y-75514819D01*
X93487619Y-75419580D02*
X93535238Y-75467200D01*
X93535238Y-75467200D02*
X93487619Y-75514819D01*
X93487619Y-75514819D02*
X93440000Y-75467200D01*
X93440000Y-75467200D02*
X93487619Y-75419580D01*
X93487619Y-75419580D02*
X93487619Y-75514819D01*
X94392380Y-74848152D02*
X94392380Y-75514819D01*
X94154285Y-74467200D02*
X93916190Y-75181485D01*
X93916190Y-75181485D02*
X94535237Y-75181485D01*
X94820952Y-74848152D02*
X95059047Y-75514819D01*
X95059047Y-75514819D02*
X95297142Y-74848152D01*
X95440000Y-75610057D02*
X96201904Y-75610057D01*
X96582857Y-75514819D02*
X96487619Y-75467200D01*
X96487619Y-75467200D02*
X96440000Y-75419580D01*
X96440000Y-75419580D02*
X96392381Y-75324342D01*
X96392381Y-75324342D02*
X96392381Y-75038628D01*
X96392381Y-75038628D02*
X96440000Y-74943390D01*
X96440000Y-74943390D02*
X96487619Y-74895771D01*
X96487619Y-74895771D02*
X96582857Y-74848152D01*
X96582857Y-74848152D02*
X96725714Y-74848152D01*
X96725714Y-74848152D02*
X96820952Y-74895771D01*
X96820952Y-74895771D02*
X96868571Y-74943390D01*
X96868571Y-74943390D02*
X96916190Y-75038628D01*
X96916190Y-75038628D02*
X96916190Y-75324342D01*
X96916190Y-75324342D02*
X96868571Y-75419580D01*
X96868571Y-75419580D02*
X96820952Y-75467200D01*
X96820952Y-75467200D02*
X96725714Y-75514819D01*
X96725714Y-75514819D02*
X96582857Y-75514819D01*
X97773333Y-74848152D02*
X97773333Y-75514819D01*
X97344762Y-74848152D02*
X97344762Y-75371961D01*
X97344762Y-75371961D02*
X97392381Y-75467200D01*
X97392381Y-75467200D02*
X97487619Y-75514819D01*
X97487619Y-75514819D02*
X97630476Y-75514819D01*
X97630476Y-75514819D02*
X97725714Y-75467200D01*
X97725714Y-75467200D02*
X97773333Y-75419580D01*
X98106667Y-74848152D02*
X98487619Y-74848152D01*
X98249524Y-74514819D02*
X98249524Y-75371961D01*
X98249524Y-75371961D02*
X98297143Y-75467200D01*
X98297143Y-75467200D02*
X98392381Y-75514819D01*
X98392381Y-75514819D02*
X98487619Y-75514819D01*
X84428570Y-66576009D02*
X84571427Y-66623628D01*
X84571427Y-66623628D02*
X84619046Y-66671247D01*
X84619046Y-66671247D02*
X84666665Y-66766485D01*
X84666665Y-66766485D02*
X84666665Y-66909342D01*
X84666665Y-66909342D02*
X84619046Y-67004580D01*
X84619046Y-67004580D02*
X84571427Y-67052200D01*
X84571427Y-67052200D02*
X84476189Y-67099819D01*
X84476189Y-67099819D02*
X84095237Y-67099819D01*
X84095237Y-67099819D02*
X84095237Y-66099819D01*
X84095237Y-66099819D02*
X84428570Y-66099819D01*
X84428570Y-66099819D02*
X84523808Y-66147438D01*
X84523808Y-66147438D02*
X84571427Y-66195057D01*
X84571427Y-66195057D02*
X84619046Y-66290295D01*
X84619046Y-66290295D02*
X84619046Y-66385533D01*
X84619046Y-66385533D02*
X84571427Y-66480771D01*
X84571427Y-66480771D02*
X84523808Y-66528390D01*
X84523808Y-66528390D02*
X84428570Y-66576009D01*
X84428570Y-66576009D02*
X84095237Y-66576009D01*
X85523808Y-67099819D02*
X85523808Y-66576009D01*
X85523808Y-66576009D02*
X85476189Y-66480771D01*
X85476189Y-66480771D02*
X85380951Y-66433152D01*
X85380951Y-66433152D02*
X85190475Y-66433152D01*
X85190475Y-66433152D02*
X85095237Y-66480771D01*
X85523808Y-67052200D02*
X85428570Y-67099819D01*
X85428570Y-67099819D02*
X85190475Y-67099819D01*
X85190475Y-67099819D02*
X85095237Y-67052200D01*
X85095237Y-67052200D02*
X85047618Y-66956961D01*
X85047618Y-66956961D02*
X85047618Y-66861723D01*
X85047618Y-66861723D02*
X85095237Y-66766485D01*
X85095237Y-66766485D02*
X85190475Y-66718866D01*
X85190475Y-66718866D02*
X85428570Y-66718866D01*
X85428570Y-66718866D02*
X85523808Y-66671247D01*
X85857142Y-66433152D02*
X86238094Y-66433152D01*
X85999999Y-66099819D02*
X85999999Y-66956961D01*
X85999999Y-66956961D02*
X86047618Y-67052200D01*
X86047618Y-67052200D02*
X86142856Y-67099819D01*
X86142856Y-67099819D02*
X86238094Y-67099819D01*
X86428571Y-66433152D02*
X86809523Y-66433152D01*
X86571428Y-66099819D02*
X86571428Y-66956961D01*
X86571428Y-66956961D02*
X86619047Y-67052200D01*
X86619047Y-67052200D02*
X86714285Y-67099819D01*
X86714285Y-67099819D02*
X86809523Y-67099819D01*
X87523809Y-67052200D02*
X87428571Y-67099819D01*
X87428571Y-67099819D02*
X87238095Y-67099819D01*
X87238095Y-67099819D02*
X87142857Y-67052200D01*
X87142857Y-67052200D02*
X87095238Y-66956961D01*
X87095238Y-66956961D02*
X87095238Y-66576009D01*
X87095238Y-66576009D02*
X87142857Y-66480771D01*
X87142857Y-66480771D02*
X87238095Y-66433152D01*
X87238095Y-66433152D02*
X87428571Y-66433152D01*
X87428571Y-66433152D02*
X87523809Y-66480771D01*
X87523809Y-66480771D02*
X87571428Y-66576009D01*
X87571428Y-66576009D02*
X87571428Y-66671247D01*
X87571428Y-66671247D02*
X87095238Y-66766485D01*
X88000000Y-67099819D02*
X88000000Y-66433152D01*
X88000000Y-66623628D02*
X88047619Y-66528390D01*
X88047619Y-66528390D02*
X88095238Y-66480771D01*
X88095238Y-66480771D02*
X88190476Y-66433152D01*
X88190476Y-66433152D02*
X88285714Y-66433152D01*
X88523810Y-66433152D02*
X88761905Y-67099819D01*
X89000000Y-66433152D02*
X88761905Y-67099819D01*
X88761905Y-67099819D02*
X88666667Y-67337914D01*
X88666667Y-67337914D02*
X88619048Y-67385533D01*
X88619048Y-67385533D02*
X88523810Y-67433152D01*
X150539880Y-71569819D02*
X149968452Y-71569819D01*
X150254166Y-71569819D02*
X150254166Y-70569819D01*
X150254166Y-70569819D02*
X150158928Y-70712676D01*
X150158928Y-70712676D02*
X150063690Y-70807914D01*
X150063690Y-70807914D02*
X149968452Y-70855533D01*
X151158928Y-70569819D02*
X151254166Y-70569819D01*
X151254166Y-70569819D02*
X151349404Y-70617438D01*
X151349404Y-70617438D02*
X151397023Y-70665057D01*
X151397023Y-70665057D02*
X151444642Y-70760295D01*
X151444642Y-70760295D02*
X151492261Y-70950771D01*
X151492261Y-70950771D02*
X151492261Y-71188866D01*
X151492261Y-71188866D02*
X151444642Y-71379342D01*
X151444642Y-71379342D02*
X151397023Y-71474580D01*
X151397023Y-71474580D02*
X151349404Y-71522200D01*
X151349404Y-71522200D02*
X151254166Y-71569819D01*
X151254166Y-71569819D02*
X151158928Y-71569819D01*
X151158928Y-71569819D02*
X151063690Y-71522200D01*
X151063690Y-71522200D02*
X151016071Y-71474580D01*
X151016071Y-71474580D02*
X150968452Y-71379342D01*
X150968452Y-71379342D02*
X150920833Y-71188866D01*
X150920833Y-71188866D02*
X150920833Y-70950771D01*
X150920833Y-70950771D02*
X150968452Y-70760295D01*
X150968452Y-70760295D02*
X151016071Y-70665057D01*
X151016071Y-70665057D02*
X151063690Y-70617438D01*
X151063690Y-70617438D02*
X151158928Y-70569819D01*
X152111309Y-70569819D02*
X152206547Y-70569819D01*
X152206547Y-70569819D02*
X152301785Y-70617438D01*
X152301785Y-70617438D02*
X152349404Y-70665057D01*
X152349404Y-70665057D02*
X152397023Y-70760295D01*
X152397023Y-70760295D02*
X152444642Y-70950771D01*
X152444642Y-70950771D02*
X152444642Y-71188866D01*
X152444642Y-71188866D02*
X152397023Y-71379342D01*
X152397023Y-71379342D02*
X152349404Y-71474580D01*
X152349404Y-71474580D02*
X152301785Y-71522200D01*
X152301785Y-71522200D02*
X152206547Y-71569819D01*
X152206547Y-71569819D02*
X152111309Y-71569819D01*
X152111309Y-71569819D02*
X152016071Y-71522200D01*
X152016071Y-71522200D02*
X151968452Y-71474580D01*
X151968452Y-71474580D02*
X151920833Y-71379342D01*
X151920833Y-71379342D02*
X151873214Y-71188866D01*
X151873214Y-71188866D02*
X151873214Y-70950771D01*
X151873214Y-70950771D02*
X151920833Y-70760295D01*
X151920833Y-70760295D02*
X151968452Y-70665057D01*
X151968452Y-70665057D02*
X152016071Y-70617438D01*
X152016071Y-70617438D02*
X152111309Y-70569819D01*
X153301785Y-70903152D02*
X153301785Y-71569819D01*
X152873214Y-70903152D02*
X152873214Y-71426961D01*
X152873214Y-71426961D02*
X152920833Y-71522200D01*
X152920833Y-71522200D02*
X153016071Y-71569819D01*
X153016071Y-71569819D02*
X153158928Y-71569819D01*
X153158928Y-71569819D02*
X153254166Y-71522200D01*
X153254166Y-71522200D02*
X153301785Y-71474580D01*
X154111309Y-71046009D02*
X153777976Y-71046009D01*
X153777976Y-71569819D02*
X153777976Y-70569819D01*
X153777976Y-70569819D02*
X154254166Y-70569819D01*
X119470057Y-72012856D02*
X119422438Y-71965237D01*
X119422438Y-71965237D02*
X119374819Y-71869999D01*
X119374819Y-71869999D02*
X119374819Y-71631904D01*
X119374819Y-71631904D02*
X119422438Y-71536666D01*
X119422438Y-71536666D02*
X119470057Y-71489047D01*
X119470057Y-71489047D02*
X119565295Y-71441428D01*
X119565295Y-71441428D02*
X119660533Y-71441428D01*
X119660533Y-71441428D02*
X119803390Y-71489047D01*
X119803390Y-71489047D02*
X120374819Y-72060475D01*
X120374819Y-72060475D02*
X120374819Y-71441428D01*
X119708152Y-70584285D02*
X120374819Y-70584285D01*
X119327200Y-70822380D02*
X120041485Y-71060475D01*
X120041485Y-71060475D02*
X120041485Y-70441428D01*
X119374819Y-70155713D02*
X119374819Y-69536666D01*
X119374819Y-69536666D02*
X119755771Y-69869999D01*
X119755771Y-69869999D02*
X119755771Y-69727142D01*
X119755771Y-69727142D02*
X119803390Y-69631904D01*
X119803390Y-69631904D02*
X119851009Y-69584285D01*
X119851009Y-69584285D02*
X119946247Y-69536666D01*
X119946247Y-69536666D02*
X120184342Y-69536666D01*
X120184342Y-69536666D02*
X120279580Y-69584285D01*
X120279580Y-69584285D02*
X120327200Y-69631904D01*
X120327200Y-69631904D02*
X120374819Y-69727142D01*
X120374819Y-69727142D02*
X120374819Y-70012856D01*
X120374819Y-70012856D02*
X120327200Y-70108094D01*
X120327200Y-70108094D02*
X120279580Y-70155713D01*
X120374819Y-69108094D02*
X119374819Y-69108094D01*
X119993866Y-69012856D02*
X120374819Y-68727142D01*
X119708152Y-68727142D02*
X120089104Y-69108094D01*
X104418571Y-68484819D02*
X103847143Y-68484819D01*
X104132857Y-68484819D02*
X104132857Y-67484819D01*
X104132857Y-67484819D02*
X104037619Y-67627676D01*
X104037619Y-67627676D02*
X103942381Y-67722914D01*
X103942381Y-67722914D02*
X103847143Y-67770533D01*
X105037619Y-67484819D02*
X105132857Y-67484819D01*
X105132857Y-67484819D02*
X105228095Y-67532438D01*
X105228095Y-67532438D02*
X105275714Y-67580057D01*
X105275714Y-67580057D02*
X105323333Y-67675295D01*
X105323333Y-67675295D02*
X105370952Y-67865771D01*
X105370952Y-67865771D02*
X105370952Y-68103866D01*
X105370952Y-68103866D02*
X105323333Y-68294342D01*
X105323333Y-68294342D02*
X105275714Y-68389580D01*
X105275714Y-68389580D02*
X105228095Y-68437200D01*
X105228095Y-68437200D02*
X105132857Y-68484819D01*
X105132857Y-68484819D02*
X105037619Y-68484819D01*
X105037619Y-68484819D02*
X104942381Y-68437200D01*
X104942381Y-68437200D02*
X104894762Y-68389580D01*
X104894762Y-68389580D02*
X104847143Y-68294342D01*
X104847143Y-68294342D02*
X104799524Y-68103866D01*
X104799524Y-68103866D02*
X104799524Y-67865771D01*
X104799524Y-67865771D02*
X104847143Y-67675295D01*
X104847143Y-67675295D02*
X104894762Y-67580057D01*
X104894762Y-67580057D02*
X104942381Y-67532438D01*
X104942381Y-67532438D02*
X105037619Y-67484819D01*
X106228095Y-67818152D02*
X106228095Y-68484819D01*
X105799524Y-67818152D02*
X105799524Y-68341961D01*
X105799524Y-68341961D02*
X105847143Y-68437200D01*
X105847143Y-68437200D02*
X105942381Y-68484819D01*
X105942381Y-68484819D02*
X106085238Y-68484819D01*
X106085238Y-68484819D02*
X106180476Y-68437200D01*
X106180476Y-68437200D02*
X106228095Y-68389580D01*
X107037619Y-67961009D02*
X106704286Y-67961009D01*
X106704286Y-68484819D02*
X106704286Y-67484819D01*
X106704286Y-67484819D02*
X107180476Y-67484819D01*
%TO.C,L1*%
D12*
X146540000Y-51400000D02*
X156440000Y-51400000D01*
X146540000Y-54500000D02*
X146540000Y-51400000D01*
X146540000Y-58700000D02*
X146540000Y-61800000D01*
X146540000Y-61800000D02*
X156940000Y-61800000D01*
X156440000Y-51400000D02*
X156940000Y-51900000D01*
X156940000Y-51900000D02*
X156940000Y-54500000D01*
X156940000Y-61800000D02*
X156940000Y-58700000D01*
%TO.C,C6*%
D13*
X151979165Y-67470000D02*
X152210835Y-67470000D01*
X151979165Y-68190000D02*
X152210835Y-68190000D01*
%TO.C,R6*%
X146600000Y-69525121D02*
X146600000Y-69189879D01*
X147360000Y-69525121D02*
X147360000Y-69189879D01*
%TO.C,C2*%
X109470000Y-65103335D02*
X109470000Y-64871665D01*
X110190000Y-65103335D02*
X110190000Y-64871665D01*
%TO.C,F1*%
D14*
X99026700Y-65266000D02*
X100291200Y-65266000D01*
X100291200Y-63234000D02*
X99026700Y-63234000D01*
X96877650Y-64250000D02*
G75*
G02*
X96725250Y-64250000I-76200J0D01*
G01*
X96725250Y-64250000D02*
G75*
G02*
X96877650Y-64250000I76200J0D01*
G01*
%TO.C,C3*%
D13*
X123301665Y-56280000D02*
X123533335Y-56280000D01*
X123301665Y-57000000D02*
X123533335Y-57000000D01*
%TO.C,J2*%
X140320000Y-79500000D02*
X140320000Y-78120000D01*
X141700000Y-79500000D02*
X140320000Y-79500000D01*
X142970000Y-76740000D02*
X145620000Y-76740000D01*
X142970000Y-79500000D02*
X142970000Y-76740000D01*
X142970000Y-79500000D02*
X145620000Y-79500000D01*
X145620000Y-79500000D02*
X145620000Y-76740000D01*
%TO.C,F2*%
D14*
X154884000Y-76416700D02*
X154884000Y-77681200D01*
X156916000Y-77681200D02*
X156916000Y-76416700D01*
X155976200Y-74191450D02*
G75*
G02*
X155823800Y-74191450I-76200J0D01*
G01*
X155823800Y-74191450D02*
G75*
G02*
X155976200Y-74191450I76200J0D01*
G01*
%TO.C,U1*%
D15*
X123200000Y-62625000D02*
X127100000Y-62625000D01*
X123200000Y-67675000D02*
X127100000Y-67675000D01*
D12*
X121180000Y-63245000D02*
G75*
G02*
X120980000Y-63245000I-100000J0D01*
G01*
X120980000Y-63245000D02*
G75*
G02*
X121180000Y-63245000I100000J0D01*
G01*
%TO.C,R2*%
D13*
X115860000Y-68167621D02*
X115860000Y-67832379D01*
X116620000Y-68167621D02*
X116620000Y-67832379D01*
%TO.C,CR1*%
X126730000Y-59100000D02*
X126730000Y-47790000D01*
X133230000Y-59100000D02*
X126730000Y-59100000D01*
X133230000Y-59100000D02*
X133230000Y-47790000D01*
%TO.C,R4*%
X135347621Y-65360000D02*
X135012379Y-65360000D01*
X135347621Y-66120000D02*
X135012379Y-66120000D01*
%TO.C,D1*%
X103130000Y-59927500D02*
X103130000Y-52517500D01*
X103130000Y-59927500D02*
X107430000Y-59927500D01*
X107430000Y-59927500D02*
X107430000Y-52517500D01*
%TO.C,R5*%
X147399879Y-64240000D02*
X147735121Y-64240000D01*
X147399879Y-65000000D02*
X147735121Y-65000000D01*
D16*
%TO.C,G\u002A\u002A\u002A*%
G36*
X125636692Y-76140367D02*
G01*
X125654470Y-76147437D01*
X125713512Y-76195962D01*
X125734309Y-76255555D01*
X125716109Y-76320453D01*
X125682952Y-76362752D01*
X125627027Y-76398411D01*
X125560495Y-76413547D01*
X125499450Y-76406247D01*
X125470381Y-76388532D01*
X125450915Y-76345648D01*
X125446921Y-76284087D01*
X125459005Y-76223581D01*
X125465464Y-76209185D01*
X125509688Y-76163678D01*
X125572742Y-76138788D01*
X125636692Y-76140367D01*
G37*
G36*
X128163985Y-73756939D02*
G01*
X128181716Y-73764002D01*
X128240772Y-73812518D01*
X128261568Y-73872110D01*
X128243385Y-73937002D01*
X128210205Y-73979318D01*
X128154268Y-74014975D01*
X128087766Y-74030119D01*
X128026726Y-74022810D01*
X127997643Y-74005093D01*
X127978138Y-73962197D01*
X127974193Y-73900667D01*
X127986245Y-73840135D01*
X127992749Y-73825741D01*
X128036955Y-73780236D01*
X128100024Y-73755369D01*
X128163985Y-73756939D01*
G37*
G36*
X125362365Y-76661529D02*
G01*
X125409190Y-76666151D01*
X125425163Y-76672072D01*
X125413071Y-76691474D01*
X125379552Y-76737506D01*
X125328764Y-76804639D01*
X125264881Y-76887352D01*
X125208989Y-76958696D01*
X125094083Y-77106492D01*
X124994238Y-77238878D01*
X124911593Y-77352803D01*
X124848319Y-77445172D01*
X124806677Y-77512876D01*
X124788758Y-77552773D01*
X124788229Y-77557214D01*
X124803048Y-77578817D01*
X124844097Y-77576504D01*
X124906244Y-77552940D01*
X124984450Y-77510803D01*
X125073584Y-77452739D01*
X125168471Y-77381433D01*
X125238723Y-77322292D01*
X125296929Y-77274360D01*
X125343415Y-77242535D01*
X125370109Y-77232100D01*
X125373005Y-77233785D01*
X125363020Y-77253820D01*
X125326595Y-77292779D01*
X125269915Y-77344606D01*
X125216603Y-77389212D01*
X125085716Y-77490805D01*
X124978711Y-77564167D01*
X124891636Y-77611233D01*
X124820462Y-77633898D01*
X124761258Y-77634172D01*
X124733049Y-77625757D01*
X124678138Y-77582323D01*
X124648062Y-77513229D01*
X124644385Y-77475208D01*
X124656757Y-77402953D01*
X124694553Y-77311475D01*
X124758998Y-77198830D01*
X124851174Y-77063143D01*
X124972299Y-76902445D01*
X125021992Y-76839540D01*
X125165665Y-76659761D01*
X125295410Y-76659761D01*
X125362365Y-76661529D01*
G37*
G36*
X127889597Y-74278089D02*
G01*
X127936475Y-74282730D01*
X127952418Y-74288604D01*
X127940323Y-74308034D01*
X127906802Y-74354068D01*
X127856032Y-74421213D01*
X127792145Y-74503920D01*
X127736255Y-74575257D01*
X127621368Y-74723034D01*
X127521492Y-74855422D01*
X127438853Y-74969369D01*
X127375615Y-75061721D01*
X127333938Y-75129418D01*
X127316050Y-75169320D01*
X127315470Y-75173744D01*
X127330305Y-75195361D01*
X127371368Y-75193051D01*
X127433541Y-75169493D01*
X127511753Y-75127376D01*
X127600844Y-75069293D01*
X127695745Y-74997980D01*
X127766009Y-74938859D01*
X127824208Y-74890909D01*
X127870657Y-74859099D01*
X127897392Y-74848675D01*
X127900248Y-74850323D01*
X127890266Y-74870364D01*
X127853882Y-74909354D01*
X127797166Y-74961157D01*
X127743838Y-75005756D01*
X127612960Y-75107375D01*
X127505993Y-75180718D01*
X127418899Y-75227770D01*
X127347744Y-75250459D01*
X127288510Y-75250735D01*
X127260295Y-75242316D01*
X127205381Y-75198869D01*
X127175310Y-75129781D01*
X127171646Y-75091764D01*
X127184002Y-75019510D01*
X127221824Y-74928034D01*
X127286242Y-74815394D01*
X127378469Y-74679703D01*
X127499560Y-74519010D01*
X127549277Y-74456094D01*
X127692923Y-74276328D01*
X127822689Y-74276328D01*
X127889597Y-74278089D01*
G37*
G36*
X124830786Y-76637678D02*
G01*
X124829837Y-76671215D01*
X124794129Y-76726017D01*
X124773350Y-76750614D01*
X124712307Y-76828213D01*
X124680056Y-76888447D01*
X124678078Y-76928110D01*
X124687421Y-76938343D01*
X124706848Y-76961720D01*
X124690355Y-76980111D01*
X124643069Y-76988436D01*
X124636881Y-76988506D01*
X124572520Y-76976800D01*
X124518632Y-76949866D01*
X124469528Y-76911250D01*
X124223067Y-77116852D01*
X124121440Y-77202382D01*
X124015601Y-77292689D01*
X123916605Y-77378255D01*
X123835570Y-77449554D01*
X123819787Y-77463680D01*
X123662955Y-77604910D01*
X123528600Y-77604910D01*
X123394262Y-77604910D01*
X123743498Y-77141354D01*
X123834890Y-77020966D01*
X123919171Y-76911478D01*
X123993040Y-76817213D01*
X124053001Y-76742406D01*
X124095769Y-76691389D01*
X124117886Y-76668432D01*
X124119169Y-76667668D01*
X124153225Y-76663137D01*
X124213057Y-76662120D01*
X124262776Y-76663772D01*
X124379990Y-76670029D01*
X124142336Y-76986874D01*
X124068703Y-77085459D01*
X124004357Y-77172476D01*
X123953047Y-77242664D01*
X123918620Y-77290912D01*
X123904797Y-77312013D01*
X123904711Y-77312399D01*
X123919006Y-77304799D01*
X123956536Y-77276538D01*
X124009355Y-77233655D01*
X124011561Y-77231833D01*
X124154343Y-77111725D01*
X124268362Y-77013597D01*
X124357260Y-76934094D01*
X124424528Y-76869873D01*
X124473844Y-76817585D01*
X124508767Y-76773856D01*
X124520715Y-76756146D01*
X124560213Y-76699520D01*
X124598410Y-76665305D01*
X124649451Y-76644857D01*
X124726570Y-76629601D01*
X124796531Y-76624202D01*
X124830786Y-76637678D01*
G37*
G36*
X127707363Y-76637678D02*
G01*
X127706382Y-76671215D01*
X127670694Y-76726017D01*
X127649955Y-76750614D01*
X127588842Y-76828213D01*
X127556608Y-76888447D01*
X127554656Y-76928110D01*
X127563972Y-76938343D01*
X127583425Y-76961720D01*
X127566941Y-76980111D01*
X127519638Y-76988436D01*
X127513441Y-76988506D01*
X127449084Y-76976800D01*
X127395208Y-76949866D01*
X127346098Y-76911250D01*
X127099634Y-77116852D01*
X126997983Y-77202382D01*
X126892166Y-77292689D01*
X126793164Y-77378255D01*
X126712112Y-77449554D01*
X126696347Y-77463680D01*
X126539529Y-77604910D01*
X126405190Y-77604910D01*
X126270809Y-77604910D01*
X126620090Y-77141354D01*
X126711435Y-77020966D01*
X126795723Y-76911478D01*
X126869580Y-76817213D01*
X126929574Y-76742406D01*
X126972337Y-76691389D01*
X126994437Y-76668432D01*
X126995742Y-76667668D01*
X127029812Y-76663137D01*
X127089634Y-76662120D01*
X127139330Y-76663772D01*
X127256562Y-76670029D01*
X127018914Y-76986874D01*
X126945273Y-77085459D01*
X126880901Y-77172476D01*
X126829614Y-77242664D01*
X126795182Y-77290912D01*
X126781356Y-77312013D01*
X126781251Y-77312399D01*
X126795576Y-77304799D01*
X126833105Y-77276538D01*
X126885921Y-77233655D01*
X126888128Y-77231833D01*
X127030910Y-77111725D01*
X127144930Y-77013597D01*
X127233785Y-76934094D01*
X127301093Y-76869873D01*
X127350399Y-76817585D01*
X127385323Y-76773856D01*
X127397274Y-76756146D01*
X127436804Y-76699520D01*
X127474989Y-76665305D01*
X127526023Y-76644857D01*
X127603126Y-76629601D01*
X127673089Y-76624202D01*
X127707363Y-76637678D01*
G37*
G36*
X129007579Y-74256279D02*
G01*
X129048288Y-74292042D01*
X129061931Y-74348445D01*
X129061948Y-74352427D01*
X129049611Y-74420590D01*
X129017396Y-74481013D01*
X128972552Y-74528769D01*
X128922263Y-74558945D01*
X128873838Y-74566618D01*
X128834524Y-74546859D01*
X128817791Y-74518510D01*
X128807787Y-74454709D01*
X128833543Y-74408583D01*
X128896938Y-74376822D01*
X128899925Y-74375902D01*
X128956512Y-74351896D01*
X128978783Y-74321683D01*
X128979763Y-74311473D01*
X128974318Y-74285524D01*
X128950426Y-74277920D01*
X128904646Y-74283114D01*
X128819674Y-74312008D01*
X128714974Y-74373266D01*
X128593450Y-74464942D01*
X128457993Y-74585084D01*
X128452599Y-74590207D01*
X128325160Y-74718389D01*
X128221240Y-74837725D01*
X128142308Y-74945524D01*
X128089845Y-75039161D01*
X128065333Y-75115912D01*
X128070251Y-75173092D01*
X128106063Y-75208045D01*
X128110444Y-75209841D01*
X128169224Y-75213398D01*
X128253973Y-75191531D01*
X128360252Y-75146341D01*
X128483520Y-75079984D01*
X128619272Y-74994607D01*
X128744913Y-74905944D01*
X128808425Y-74861367D01*
X128859130Y-74830367D01*
X128888567Y-74817964D01*
X128892088Y-74818714D01*
X128889479Y-74842269D01*
X128856880Y-74881180D01*
X128800317Y-74931196D01*
X128725885Y-74988007D01*
X128639645Y-75047364D01*
X128547634Y-75104971D01*
X128456013Y-75156609D01*
X128370824Y-75197925D01*
X128329466Y-75214529D01*
X128208622Y-75250372D01*
X128112801Y-75259887D01*
X128035856Y-75243400D01*
X128016336Y-75233884D01*
X127956005Y-75178377D01*
X127920621Y-75097729D01*
X127911341Y-75000192D01*
X127929195Y-74894077D01*
X127961426Y-74813055D01*
X128045541Y-74685321D01*
X128161665Y-74563068D01*
X128300847Y-74452146D01*
X128454138Y-74358521D01*
X128612578Y-74288068D01*
X128767183Y-74246761D01*
X128830177Y-74239418D01*
X128936120Y-74239333D01*
X129007579Y-74256279D01*
G37*
G36*
X126329288Y-74081151D02*
G01*
X126337434Y-74107788D01*
X126317617Y-74154791D01*
X126273119Y-74215635D01*
X126252419Y-74238827D01*
X126225153Y-74270818D01*
X126212121Y-74300425D01*
X126211281Y-74340849D01*
X126220645Y-74405348D01*
X126224146Y-74425420D01*
X126242820Y-74575784D01*
X126244624Y-74709127D01*
X126229696Y-74817200D01*
X126216240Y-74858676D01*
X126156126Y-74956953D01*
X126063307Y-75051175D01*
X125946179Y-75134848D01*
X125813005Y-75201464D01*
X125746956Y-75225102D01*
X125626800Y-75254893D01*
X125534314Y-75259674D01*
X125464713Y-75239514D01*
X125450296Y-75230590D01*
X125416517Y-75192059D01*
X125404840Y-75132305D01*
X125404616Y-75119018D01*
X125418316Y-75040157D01*
X125458964Y-74991852D01*
X125525866Y-74974941D01*
X125528353Y-74974905D01*
X125584480Y-74989636D01*
X125614634Y-75025973D01*
X125616676Y-75072098D01*
X125588522Y-75116136D01*
X125556965Y-75136348D01*
X125513758Y-75165351D01*
X125505921Y-75191361D01*
X125527910Y-75208636D01*
X125574151Y-75211425D01*
X125620088Y-75200991D01*
X125690162Y-75161259D01*
X125769152Y-75087746D01*
X125852493Y-74985474D01*
X125935720Y-74859583D01*
X125957193Y-74822865D01*
X126004105Y-74734796D01*
X126048962Y-74640451D01*
X126088346Y-74548390D01*
X126118727Y-74467261D01*
X126136613Y-74405649D01*
X126138917Y-74373150D01*
X126121774Y-74378528D01*
X126078821Y-74406723D01*
X126015468Y-74453699D01*
X125937144Y-74515535D01*
X125881737Y-74561008D01*
X125795168Y-74632058D01*
X125718855Y-74692703D01*
X125658658Y-74738444D01*
X125620439Y-74764799D01*
X125610486Y-74769437D01*
X125590404Y-74760456D01*
X125606719Y-74733880D01*
X125658936Y-74690380D01*
X125677294Y-74677120D01*
X125794610Y-74589513D01*
X125909963Y-74495085D01*
X126016111Y-74400380D01*
X126105881Y-74312019D01*
X126171986Y-74236539D01*
X126193240Y-74206809D01*
X126242931Y-74133049D01*
X126278878Y-74090864D01*
X126306306Y-74075438D01*
X126329288Y-74081151D01*
G37*
G36*
X128342884Y-76464593D02*
G01*
X128351015Y-76491214D01*
X128331208Y-76538250D01*
X128286688Y-76599088D01*
X128266017Y-76622264D01*
X128238752Y-76654268D01*
X128225700Y-76683871D01*
X128224870Y-76724307D01*
X128234233Y-76788770D01*
X128237702Y-76808875D01*
X128256401Y-76959220D01*
X128258230Y-77092568D01*
X128243310Y-77200652D01*
X128229826Y-77242137D01*
X128169704Y-77340402D01*
X128076928Y-77434625D01*
X127959774Y-77518287D01*
X127826629Y-77584878D01*
X127760541Y-77608553D01*
X127640377Y-77638337D01*
X127547890Y-77643120D01*
X127478301Y-77622959D01*
X127463880Y-77614016D01*
X127430117Y-77575495D01*
X127418440Y-77515762D01*
X127418212Y-77502485D01*
X127431914Y-77423599D01*
X127472550Y-77375302D01*
X127539442Y-77358358D01*
X127541954Y-77358347D01*
X127598085Y-77373082D01*
X127628229Y-77409434D01*
X127630239Y-77455548D01*
X127602105Y-77499581D01*
X127570557Y-77519775D01*
X127527339Y-77548804D01*
X127519504Y-77574807D01*
X127541508Y-77592081D01*
X127587740Y-77594869D01*
X127633693Y-77584459D01*
X127703744Y-77544721D01*
X127782746Y-77471179D01*
X127866092Y-77368947D01*
X127949306Y-77243037D01*
X127970779Y-77206297D01*
X128017692Y-77118260D01*
X128062564Y-77023888D01*
X128101930Y-76931846D01*
X128132292Y-76850712D01*
X128150209Y-76789113D01*
X128152517Y-76756593D01*
X128135380Y-76761988D01*
X128092441Y-76790141D01*
X128029073Y-76837131D01*
X127950746Y-76898977D01*
X127895342Y-76944462D01*
X127808748Y-77015511D01*
X127732440Y-77076153D01*
X127672241Y-77121882D01*
X127634024Y-77148240D01*
X127624085Y-77152876D01*
X127604012Y-77143897D01*
X127620320Y-77117340D01*
X127672534Y-77073827D01*
X127690905Y-77060581D01*
X127808221Y-76972967D01*
X127923541Y-76878522D01*
X128029708Y-76783830D01*
X128119449Y-76695453D01*
X128185579Y-76619983D01*
X128206841Y-76590246D01*
X128256523Y-76516490D01*
X128292475Y-76474321D01*
X128319887Y-76458890D01*
X128342884Y-76464593D01*
G37*
G36*
X124518898Y-73599981D02*
G01*
X124566221Y-73604463D01*
X124582752Y-73610272D01*
X124570830Y-73630119D01*
X124538309Y-73675850D01*
X124489847Y-73741055D01*
X124430150Y-73819314D01*
X124418380Y-73834565D01*
X124356967Y-73915495D01*
X124305948Y-73985751D01*
X124270168Y-74038586D01*
X124254361Y-74067157D01*
X124254004Y-74069107D01*
X124273285Y-74082120D01*
X124326538Y-74089824D01*
X124377277Y-74091385D01*
X124442938Y-74094504D01*
X124487455Y-74102661D01*
X124500562Y-74111926D01*
X124481410Y-74122211D01*
X124429406Y-74129534D01*
X124352770Y-74132838D01*
X124341327Y-74132923D01*
X124182087Y-74133371D01*
X124099887Y-74248454D01*
X124060383Y-74302190D01*
X124001338Y-74380552D01*
X123928591Y-74475827D01*
X123847981Y-74580380D01*
X123774921Y-74674345D01*
X123661632Y-74820921D01*
X123573464Y-74938925D01*
X123508881Y-75031150D01*
X123466387Y-75100286D01*
X123444491Y-75149094D01*
X123441635Y-75180287D01*
X123456299Y-75196655D01*
X123483398Y-75200924D01*
X123515596Y-75189001D01*
X123572235Y-75156686D01*
X123645605Y-75109230D01*
X123727985Y-75051848D01*
X123811709Y-74989715D01*
X123889016Y-74928116D01*
X123899675Y-74919162D01*
X123957095Y-74874460D01*
X124004526Y-74844523D01*
X124031868Y-74835818D01*
X124032099Y-74835878D01*
X124027623Y-74850910D01*
X123996623Y-74885086D01*
X123945541Y-74933089D01*
X123880823Y-74989473D01*
X123808836Y-75048886D01*
X123736051Y-75105928D01*
X123668911Y-75155199D01*
X123613827Y-75191324D01*
X123596584Y-75200869D01*
X123499428Y-75235906D01*
X123416149Y-75236122D01*
X123350678Y-75201579D01*
X123347491Y-75198465D01*
X123315898Y-75142152D01*
X123313670Y-75064861D01*
X123341279Y-74965677D01*
X123399087Y-74843649D01*
X123487495Y-74697836D01*
X123606933Y-74527282D01*
X123687938Y-74420135D01*
X123902319Y-74142754D01*
X123811050Y-74136499D01*
X123747366Y-74127583D01*
X123722458Y-74114847D01*
X123734630Y-74102131D01*
X123782234Y-74093280D01*
X123830413Y-74091385D01*
X123941070Y-74091385D01*
X124130710Y-73844833D01*
X124320379Y-73598273D01*
X124451551Y-73598273D01*
X124518898Y-73599981D01*
G37*
G36*
X127642017Y-73599981D02*
G01*
X127689347Y-73604463D01*
X127705857Y-73610272D01*
X127693988Y-73630119D01*
X127661435Y-73675850D01*
X127612960Y-73741055D01*
X127553284Y-73819314D01*
X127541503Y-73834565D01*
X127480063Y-73915495D01*
X127429098Y-73985751D01*
X127393299Y-74038586D01*
X127377491Y-74067157D01*
X127377126Y-74069107D01*
X127396406Y-74082120D01*
X127449666Y-74089824D01*
X127500403Y-74091385D01*
X127566064Y-74094504D01*
X127610571Y-74102661D01*
X127623673Y-74111926D01*
X127604520Y-74122211D01*
X127552525Y-74129534D01*
X127475878Y-74132838D01*
X127464438Y-74132923D01*
X127305208Y-74133371D01*
X127223023Y-74248454D01*
X127183517Y-74302190D01*
X127124459Y-74380552D01*
X127051704Y-74475827D01*
X126971098Y-74580380D01*
X126898058Y-74674345D01*
X126784760Y-74820921D01*
X126696568Y-74938925D01*
X126632022Y-75031150D01*
X126589524Y-75100286D01*
X126567611Y-75149094D01*
X126564751Y-75180287D01*
X126579457Y-75196655D01*
X126606512Y-75200924D01*
X126638740Y-75189001D01*
X126695387Y-75156686D01*
X126768735Y-75109230D01*
X126851148Y-75051848D01*
X126934825Y-74989715D01*
X127012150Y-74928116D01*
X127022789Y-74919162D01*
X127080212Y-74874460D01*
X127127640Y-74844523D01*
X127154979Y-74835818D01*
X127155236Y-74835878D01*
X127150727Y-74850910D01*
X127119748Y-74885086D01*
X127068692Y-74933089D01*
X127003924Y-74989473D01*
X126931963Y-75048886D01*
X126859179Y-75105928D01*
X126792054Y-75155199D01*
X126736947Y-75191324D01*
X126719713Y-75200869D01*
X126622542Y-75235906D01*
X126539275Y-75236122D01*
X126473808Y-75201579D01*
X126470596Y-75198465D01*
X126439029Y-75142152D01*
X126436794Y-75064861D01*
X126464392Y-74965677D01*
X126522213Y-74843649D01*
X126610627Y-74697836D01*
X126730097Y-74527282D01*
X126811062Y-74420135D01*
X127025435Y-74142754D01*
X126934165Y-74136499D01*
X126870496Y-74127583D01*
X126845586Y-74114847D01*
X126857749Y-74102131D01*
X126905382Y-74093280D01*
X126953508Y-74091385D01*
X127064186Y-74091385D01*
X127253831Y-73844833D01*
X127443497Y-73598273D01*
X127574678Y-73598273D01*
X127642017Y-73599981D01*
G37*
G36*
X122047609Y-76630005D02*
G01*
X122102485Y-76660823D01*
X122130531Y-76718611D01*
X122131136Y-76800770D01*
X122103629Y-76904603D01*
X122060504Y-77002392D01*
X122028018Y-77068098D01*
X122013094Y-77107174D01*
X122014189Y-77129454D01*
X122029674Y-77144685D01*
X122036802Y-77149272D01*
X122088407Y-77168586D01*
X122127123Y-77173423D01*
X122165852Y-77180416D01*
X122178764Y-77193992D01*
X122161233Y-77209173D01*
X122117916Y-77213852D01*
X122062624Y-77208231D01*
X122009249Y-77192537D01*
X122006136Y-77191151D01*
X121971047Y-77179908D01*
X121942961Y-77189395D01*
X121908144Y-77225506D01*
X121898388Y-77237375D01*
X121773080Y-77374539D01*
X121640842Y-77487717D01*
X121507588Y-77572874D01*
X121379202Y-77625953D01*
X121306186Y-77640845D01*
X121244237Y-77643838D01*
X121201563Y-77630442D01*
X121157510Y-77593575D01*
X121152374Y-77588502D01*
X121113611Y-77543156D01*
X121105907Y-77524044D01*
X121229966Y-77524044D01*
X121237993Y-77573913D01*
X121273319Y-77598675D01*
X121332830Y-77597618D01*
X121413358Y-77570045D01*
X121511797Y-77515169D01*
X121519348Y-77510261D01*
X121585602Y-77461019D01*
X121666270Y-77392844D01*
X121748062Y-77317193D01*
X121783240Y-77282210D01*
X121854822Y-77206309D01*
X121900296Y-77150553D01*
X121924466Y-77107959D01*
X121932156Y-77071678D01*
X121932217Y-77068392D01*
X121951858Y-76974462D01*
X122007987Y-76883344D01*
X122043241Y-76846209D01*
X122080810Y-76796101D01*
X122095524Y-76744223D01*
X122085666Y-76702915D01*
X122066177Y-76687899D01*
X122019521Y-76689594D01*
X121951096Y-76718350D01*
X121866630Y-76770709D01*
X121771847Y-76843275D01*
X121696300Y-76909936D01*
X121596510Y-77008538D01*
X121497868Y-77115660D01*
X121406828Y-77223476D01*
X121329839Y-77324114D01*
X121273319Y-77409813D01*
X121252367Y-77449758D01*
X121229966Y-77524044D01*
X121105907Y-77524044D01*
X121095049Y-77497064D01*
X121089834Y-77431598D01*
X121089765Y-77419422D01*
X121109118Y-77298055D01*
X121163775Y-77173975D01*
X121248527Y-77051824D01*
X121358279Y-76936248D01*
X121487864Y-76831896D01*
X121632141Y-76743407D01*
X121785925Y-76675414D01*
X121944097Y-76632579D01*
X121966616Y-76628799D01*
X122047609Y-76630005D01*
G37*
G36*
X120279816Y-73111425D02*
G01*
X120530246Y-73142765D01*
X120605688Y-73154858D01*
X120813660Y-73187475D01*
X120986586Y-73209735D01*
X121129161Y-73221942D01*
X121246031Y-73224300D01*
X121341879Y-73217114D01*
X121421401Y-73200620D01*
X121422225Y-73200395D01*
X121495032Y-73179655D01*
X121536959Y-73169730D01*
X121556477Y-73169644D01*
X121562100Y-73178379D01*
X121562346Y-73183979D01*
X121544173Y-73205226D01*
X121496025Y-73233556D01*
X121427501Y-73264903D01*
X121348141Y-73295121D01*
X121267508Y-73320175D01*
X121216747Y-73332123D01*
X121086176Y-73347179D01*
X120924828Y-73348525D01*
X120740511Y-73336636D01*
X120540972Y-73312105D01*
X120333991Y-73275476D01*
X120308996Y-73270267D01*
X120136475Y-73235293D01*
X119996793Y-73210842D01*
X119883201Y-73196516D01*
X119788917Y-73191881D01*
X119707183Y-73196521D01*
X119631227Y-73210007D01*
X119577054Y-73224759D01*
X119418606Y-73287147D01*
X119276378Y-73370644D01*
X119157560Y-73469873D01*
X119069364Y-73579305D01*
X119042295Y-73628927D01*
X119003571Y-73745145D01*
X118995991Y-73854329D01*
X119018412Y-73949994D01*
X119069631Y-74025553D01*
X119121055Y-74062527D01*
X119195510Y-74084818D01*
X119295760Y-74092966D01*
X119409356Y-74087814D01*
X119523819Y-74070332D01*
X119626779Y-74041409D01*
X119672034Y-74021938D01*
X119860940Y-73904675D01*
X120026555Y-73754661D01*
X120106510Y-73660293D01*
X120166186Y-73587932D01*
X120212745Y-73539976D01*
X120243319Y-73517922D01*
X120255089Y-73523196D01*
X120245211Y-73557325D01*
X120223327Y-73600062D01*
X120161669Y-73691395D01*
X120077398Y-73791916D01*
X119982637Y-73888825D01*
X119889418Y-73969382D01*
X119844850Y-74000981D01*
X119700249Y-74075876D01*
X119543183Y-74126827D01*
X119384399Y-74151805D01*
X119234600Y-74148782D01*
X119148092Y-74131181D01*
X119075143Y-74094675D01*
X119006457Y-74035826D01*
X118958068Y-73969085D01*
X118951618Y-73954471D01*
X118932226Y-73856907D01*
X118937089Y-73743558D01*
X118964763Y-73630665D01*
X118985523Y-73581795D01*
X119058800Y-73470641D01*
X119163374Y-73371579D01*
X119303458Y-73280918D01*
X119350783Y-73255923D01*
X119512609Y-73185339D01*
X119680689Y-73136029D01*
X119860779Y-73107599D01*
X120058580Y-73099531D01*
X120279816Y-73111425D01*
G37*
G36*
X120998983Y-75494860D02*
G01*
X121249405Y-75526205D01*
X121324814Y-75538288D01*
X121532805Y-75570910D01*
X121705718Y-75593185D01*
X121848304Y-75605378D01*
X121965211Y-75607740D01*
X122061055Y-75600550D01*
X122140552Y-75584085D01*
X122141355Y-75583837D01*
X122214158Y-75563103D01*
X122256098Y-75553166D01*
X122275627Y-75553070D01*
X122281232Y-75561812D01*
X122281487Y-75567441D01*
X122263320Y-75588654D01*
X122215174Y-75617002D01*
X122146651Y-75648332D01*
X122067293Y-75678572D01*
X121986659Y-75703606D01*
X121935879Y-75715591D01*
X121805305Y-75730627D01*
X121643996Y-75731945D01*
X121459640Y-75720091D01*
X121260109Y-75695553D01*
X121053109Y-75658900D01*
X121028137Y-75653698D01*
X120855622Y-75618728D01*
X120715946Y-75594289D01*
X120602346Y-75579946D01*
X120508080Y-75575318D01*
X120426325Y-75579968D01*
X120350384Y-75593468D01*
X120296191Y-75608204D01*
X120137760Y-75670577D01*
X119995521Y-75754108D01*
X119876686Y-75853304D01*
X119788518Y-75962727D01*
X119761421Y-76012370D01*
X119722701Y-76128555D01*
X119715138Y-76237760D01*
X119737557Y-76333442D01*
X119788764Y-76409003D01*
X119840177Y-76445952D01*
X119914667Y-76468277D01*
X120014924Y-76476391D01*
X120128497Y-76471257D01*
X120242975Y-76453759D01*
X120345913Y-76424871D01*
X120391188Y-76405386D01*
X120580076Y-76288117D01*
X120745702Y-76138122D01*
X120825672Y-76043754D01*
X120885338Y-75971378D01*
X120931873Y-75923419D01*
X120962454Y-75901330D01*
X120974243Y-75906629D01*
X120964344Y-75940750D01*
X120942463Y-75983501D01*
X120880796Y-76074834D01*
X120796535Y-76175364D01*
X120701781Y-76272279D01*
X120608563Y-76352797D01*
X120564015Y-76384441D01*
X120419410Y-76459327D01*
X120262335Y-76510273D01*
X120103536Y-76535232D01*
X119953750Y-76532240D01*
X119867234Y-76514622D01*
X119794280Y-76478114D01*
X119725606Y-76419283D01*
X119677186Y-76352518D01*
X119670757Y-76337941D01*
X119651360Y-76240354D01*
X119656236Y-76126978D01*
X119683914Y-76014085D01*
X119704679Y-75965239D01*
X119777946Y-75854071D01*
X119882528Y-75755025D01*
X120022582Y-75664373D01*
X120069901Y-75639376D01*
X120231744Y-75568769D01*
X120399848Y-75519470D01*
X120579934Y-75491044D01*
X120777716Y-75482980D01*
X120998983Y-75494860D01*
G37*
G36*
X126462678Y-76649948D02*
G01*
X126489503Y-76663862D01*
X126514461Y-76715199D01*
X126505663Y-76778914D01*
X126464942Y-76846878D01*
X126441523Y-76872133D01*
X126388339Y-76913376D01*
X126306515Y-76964509D01*
X126205707Y-77020540D01*
X126095589Y-77076418D01*
X125985787Y-77127148D01*
X125885943Y-77167755D01*
X125844578Y-77182107D01*
X125762964Y-77219768D01*
X125689377Y-77274452D01*
X125627753Y-77339646D01*
X125582042Y-77408914D01*
X125556202Y-77475761D01*
X125554157Y-77533736D01*
X125579879Y-77576331D01*
X125597420Y-77587005D01*
X125661074Y-77597167D01*
X125750697Y-77585266D01*
X125859450Y-77554091D01*
X125980499Y-77506256D01*
X126106949Y-77444478D01*
X126231979Y-77371396D01*
X126338163Y-77297720D01*
X126400975Y-77253222D01*
X126450971Y-77223452D01*
X126479969Y-77213084D01*
X126483457Y-77214746D01*
X126475706Y-77238730D01*
X126437969Y-77277648D01*
X126376603Y-77327223D01*
X126298000Y-77383117D01*
X126208483Y-77441121D01*
X126114459Y-77496897D01*
X126022174Y-77546130D01*
X125938117Y-77584600D01*
X125930353Y-77587708D01*
X125847998Y-77611958D01*
X125748507Y-77629540D01*
X125648209Y-77638646D01*
X125563421Y-77637332D01*
X125535587Y-77633083D01*
X125491365Y-77611527D01*
X125444687Y-77572963D01*
X125443146Y-77571345D01*
X125407346Y-77506218D01*
X125393749Y-77418670D01*
X125402674Y-77321096D01*
X125434385Y-77225828D01*
X125434871Y-77224792D01*
X125481893Y-77152159D01*
X125764219Y-77152159D01*
X125877162Y-77119394D01*
X125954314Y-77092792D01*
X126047168Y-77054782D01*
X126133999Y-77014402D01*
X126274251Y-76936298D01*
X126374246Y-76863011D01*
X126434480Y-76794116D01*
X126448887Y-76764045D01*
X126461142Y-76713739D01*
X126447809Y-76688649D01*
X126402315Y-76680610D01*
X126382033Y-76680309D01*
X126313193Y-76696981D01*
X126223241Y-76746052D01*
X126114320Y-76826029D01*
X125988586Y-76935410D01*
X125929640Y-76991435D01*
X125764219Y-77152159D01*
X125481893Y-77152159D01*
X125497437Y-77128149D01*
X125590937Y-77025732D01*
X125707056Y-76924019D01*
X125837497Y-76829499D01*
X125973924Y-76748621D01*
X126108059Y-76687842D01*
X126138802Y-76677019D01*
X126226666Y-76654692D01*
X126317496Y-76642421D01*
X126399972Y-76640701D01*
X126462678Y-76649948D01*
G37*
G36*
X121442523Y-74272078D02*
G01*
X121479443Y-74322811D01*
X121485566Y-74354817D01*
X121489454Y-74383109D01*
X121500267Y-74384766D01*
X121525772Y-74357457D01*
X121541515Y-74338299D01*
X121573037Y-74303163D01*
X121603379Y-74284651D01*
X121646212Y-74278377D01*
X121715210Y-74279991D01*
X121722664Y-74280357D01*
X121851424Y-74286572D01*
X121611018Y-74594787D01*
X121481531Y-74763080D01*
X121377500Y-74903408D01*
X121299300Y-75015102D01*
X121247290Y-75097651D01*
X121221930Y-75150429D01*
X121220035Y-75168796D01*
X121245556Y-75187312D01*
X121295718Y-75179433D01*
X121365944Y-75147592D01*
X121451715Y-75094323D01*
X121548349Y-75022103D01*
X121647434Y-74937006D01*
X121724242Y-74871087D01*
X121776073Y-74836807D01*
X121803639Y-74833758D01*
X121808897Y-74849120D01*
X121792394Y-74878472D01*
X121747524Y-74923577D01*
X121681442Y-74979390D01*
X121601224Y-75040807D01*
X121513950Y-75102786D01*
X121426702Y-75160249D01*
X121346583Y-75208082D01*
X121280690Y-75241241D01*
X121243490Y-75253714D01*
X121161469Y-75251541D01*
X121095861Y-75216792D01*
X121052800Y-75156661D01*
X121038455Y-75078388D01*
X121046715Y-75023836D01*
X121066030Y-74953952D01*
X120962103Y-75044868D01*
X120841030Y-75138209D01*
X120722623Y-75205822D01*
X120612437Y-75245571D01*
X120516002Y-75255274D01*
X120457044Y-75241970D01*
X120418838Y-75210662D01*
X120383781Y-75158279D01*
X120377635Y-75144861D01*
X120375647Y-75134637D01*
X120513052Y-75134637D01*
X120516809Y-75190982D01*
X120529240Y-75208860D01*
X120562065Y-75215444D01*
X120621094Y-75203286D01*
X120696978Y-75174442D01*
X120711139Y-75167929D01*
X120785546Y-75122678D01*
X120876681Y-75051870D01*
X120977816Y-74962425D01*
X121082217Y-74861180D01*
X121183149Y-74755074D01*
X121273888Y-74650954D01*
X121347661Y-74555767D01*
X121397768Y-74476384D01*
X121407941Y-74454856D01*
X121433551Y-74384220D01*
X121436314Y-74342183D01*
X121414479Y-74322162D01*
X121371174Y-74317411D01*
X121294832Y-74334075D01*
X121200269Y-74384488D01*
X121086533Y-74469246D01*
X120988728Y-74555121D01*
X120829627Y-74707954D01*
X120701916Y-74843129D01*
X120606172Y-74959876D01*
X120543029Y-75057326D01*
X120513052Y-75134637D01*
X120375647Y-75134637D01*
X120359091Y-75049114D01*
X120374899Y-74938587D01*
X120423812Y-74819090D01*
X120454910Y-74766179D01*
X120553625Y-74642211D01*
X120682728Y-74524594D01*
X120832118Y-74419667D01*
X120991779Y-74333762D01*
X121151692Y-74273263D01*
X121276276Y-74246964D01*
X121374372Y-74246566D01*
X121442523Y-74272078D01*
G37*
G36*
X125120434Y-74272078D02*
G01*
X125157318Y-74322811D01*
X125163488Y-74354817D01*
X125167360Y-74383109D01*
X125178185Y-74384766D01*
X125203667Y-74357457D01*
X125219416Y-74338299D01*
X125250900Y-74303163D01*
X125281265Y-74284651D01*
X125324084Y-74278377D01*
X125393092Y-74279991D01*
X125400555Y-74280357D01*
X125529318Y-74286572D01*
X125288927Y-74594787D01*
X125159448Y-74763080D01*
X125055383Y-74903408D01*
X124977193Y-75015102D01*
X124925206Y-75097651D01*
X124899841Y-75150429D01*
X124897923Y-75168796D01*
X124923432Y-75187312D01*
X124973603Y-75179433D01*
X125043878Y-75147592D01*
X125129570Y-75094323D01*
X125226246Y-75022103D01*
X125325315Y-74937006D01*
X125402144Y-74871087D01*
X125453951Y-74836807D01*
X125481568Y-74833758D01*
X125486812Y-74849120D01*
X125470266Y-74878472D01*
X125425421Y-74923577D01*
X125359351Y-74979390D01*
X125279114Y-75040807D01*
X125191836Y-75102786D01*
X125104610Y-75160249D01*
X125024478Y-75208082D01*
X124958594Y-75241241D01*
X124921377Y-75253714D01*
X124839373Y-75251541D01*
X124773732Y-75216792D01*
X124730685Y-75156661D01*
X124716356Y-75078388D01*
X124724617Y-75023836D01*
X124743912Y-74953952D01*
X124640016Y-75044868D01*
X124518916Y-75138209D01*
X124400537Y-75205822D01*
X124290321Y-75245571D01*
X124193884Y-75255274D01*
X124134927Y-75241970D01*
X124096738Y-75210662D01*
X124061696Y-75158279D01*
X124055519Y-75144861D01*
X124053549Y-75134637D01*
X124190943Y-75134637D01*
X124194701Y-75190982D01*
X124207131Y-75208860D01*
X124239997Y-75215444D01*
X124298969Y-75203286D01*
X124374854Y-75174442D01*
X124389041Y-75167929D01*
X124463449Y-75122678D01*
X124554563Y-75051870D01*
X124655685Y-74962425D01*
X124760082Y-74861180D01*
X124861052Y-74755074D01*
X124951769Y-74650954D01*
X125025552Y-74555767D01*
X125075664Y-74476384D01*
X125085822Y-74454856D01*
X125111431Y-74384220D01*
X125114200Y-74342183D01*
X125092375Y-74322162D01*
X125049080Y-74317411D01*
X124972730Y-74334075D01*
X124878178Y-74384488D01*
X124764441Y-74469246D01*
X124666630Y-74555121D01*
X124507503Y-74707954D01*
X124379813Y-74843129D01*
X124284084Y-74959876D01*
X124220935Y-75057326D01*
X124190943Y-75134637D01*
X124053549Y-75134637D01*
X124037000Y-75049114D01*
X124052783Y-74938587D01*
X124101711Y-74819090D01*
X124132813Y-74766179D01*
X124231528Y-74642211D01*
X124360630Y-74524594D01*
X124510004Y-74419667D01*
X124669665Y-74333762D01*
X124829592Y-74273263D01*
X124954168Y-74246964D01*
X125052269Y-74246566D01*
X125120434Y-74272078D01*
G37*
G36*
X123027834Y-74266433D02*
G01*
X123081080Y-74303636D01*
X123108138Y-74372480D01*
X123111729Y-74430412D01*
X123100677Y-74504581D01*
X123068541Y-74583802D01*
X123012098Y-74673698D01*
X122928068Y-74779785D01*
X122866969Y-74849230D01*
X122781382Y-74946547D01*
X122708984Y-75034080D01*
X122653732Y-75106654D01*
X122619628Y-75159056D01*
X122610231Y-75183457D01*
X122628043Y-75195972D01*
X122668690Y-75200924D01*
X122725228Y-75186815D01*
X122806669Y-75146127D01*
X122908923Y-75081411D01*
X123027834Y-74995157D01*
X123101599Y-74937244D01*
X123180369Y-74875986D01*
X123232275Y-74841192D01*
X123260343Y-74831154D01*
X123267748Y-74841410D01*
X123252816Y-74861702D01*
X123213098Y-74900784D01*
X123155965Y-74952052D01*
X123088882Y-75008931D01*
X123019337Y-75064748D01*
X122993247Y-75084774D01*
X122871481Y-75168392D01*
X122764709Y-75222691D01*
X122664243Y-75251857D01*
X122643584Y-75255130D01*
X122581010Y-75259470D01*
X122539772Y-75247819D01*
X122507579Y-75221530D01*
X122479270Y-75185263D01*
X122468556Y-75142225D01*
X122471220Y-75075809D01*
X122471277Y-75075445D01*
X122484255Y-75009271D01*
X122512788Y-74938925D01*
X122560049Y-74859448D01*
X122629302Y-74765845D01*
X122723739Y-74653139D01*
X122803179Y-74563974D01*
X122889408Y-74465295D01*
X122945950Y-74391594D01*
X122974115Y-74340559D01*
X122974900Y-74309950D01*
X122949535Y-74297440D01*
X122938329Y-74296862D01*
X122867315Y-74312527D01*
X122775720Y-74357028D01*
X122668021Y-74426737D01*
X122548695Y-74517927D01*
X122422248Y-74626922D01*
X122293200Y-74750037D01*
X122165963Y-74883580D01*
X122045109Y-75023875D01*
X122030694Y-75041670D01*
X121886146Y-75221488D01*
X121743640Y-75221488D01*
X121669690Y-75220700D01*
X121629731Y-75216897D01*
X121616651Y-75207809D01*
X121623322Y-75191116D01*
X121627959Y-75184507D01*
X121647368Y-75158821D01*
X121688309Y-75105285D01*
X121747122Y-75028626D01*
X121820282Y-74933546D01*
X121904151Y-74824708D01*
X121991158Y-74711962D01*
X122327502Y-74276328D01*
X122458598Y-74276328D01*
X122525938Y-74277463D01*
X122573223Y-74280459D01*
X122589707Y-74284341D01*
X122577687Y-74303190D01*
X122546572Y-74343802D01*
X122512644Y-74385720D01*
X122462227Y-74450095D01*
X122416956Y-74513341D01*
X122397384Y-74543959D01*
X122383674Y-74570143D01*
X122385475Y-74579097D01*
X122406958Y-74568793D01*
X122452214Y-74537185D01*
X122525334Y-74482251D01*
X122530912Y-74477972D01*
X122650992Y-74390597D01*
X122749814Y-74328755D01*
X122834789Y-74288569D01*
X122913401Y-74266187D01*
X122948489Y-74260915D01*
X123027834Y-74266433D01*
G37*
G36*
X122859508Y-76661494D02*
G01*
X122897480Y-76667623D01*
X122906993Y-76679640D01*
X122904066Y-76686695D01*
X122886336Y-76711380D01*
X122847866Y-76762316D01*
X122793309Y-76833419D01*
X122727364Y-76918574D01*
X122679881Y-76979483D01*
X122561614Y-77132971D01*
X122461902Y-77266841D01*
X122382404Y-77378653D01*
X122324767Y-77466026D01*
X122290683Y-77526557D01*
X122281487Y-77554842D01*
X122296541Y-77580789D01*
X122339536Y-77580850D01*
X122407218Y-77555988D01*
X122496344Y-77507048D01*
X122530569Y-77485341D01*
X122625347Y-77419623D01*
X122712615Y-77349741D01*
X122798611Y-77269505D01*
X122889610Y-77172723D01*
X122991902Y-77053163D01*
X123091211Y-76930522D01*
X123161844Y-76843121D01*
X123225035Y-76767496D01*
X123275806Y-76709390D01*
X123309156Y-76674618D01*
X123318491Y-76667433D01*
X123352227Y-76663010D01*
X123411736Y-76662120D01*
X123460036Y-76663772D01*
X123575809Y-76670029D01*
X123333776Y-76979641D01*
X123210380Y-77138958D01*
X123112101Y-77269391D01*
X123037493Y-77373432D01*
X122985096Y-77453548D01*
X122953440Y-77512174D01*
X122941086Y-77551811D01*
X122946568Y-77574952D01*
X122968430Y-77583998D01*
X122976353Y-77584370D01*
X123020301Y-77571929D01*
X123087309Y-77538085D01*
X123169144Y-77488070D01*
X123257561Y-77427106D01*
X123344370Y-77360456D01*
X123391200Y-77320821D01*
X123451770Y-77270663D01*
X123502444Y-77234741D01*
X123534408Y-77219145D01*
X123538657Y-77219212D01*
X123536731Y-77234838D01*
X123507600Y-77269133D01*
X123457495Y-77316897D01*
X123392694Y-77372966D01*
X123319429Y-77432139D01*
X123243982Y-77489251D01*
X123172647Y-77539148D01*
X123111659Y-77576618D01*
X123097290Y-77584168D01*
X123004324Y-77625576D01*
X122935185Y-77642327D01*
X122880953Y-77634687D01*
X122832839Y-77602916D01*
X122822474Y-77593001D01*
X122789228Y-77553138D01*
X122777403Y-77512333D01*
X122781618Y-77451464D01*
X122781924Y-77449183D01*
X122787133Y-77394872D01*
X122785874Y-77362429D01*
X122783100Y-77358347D01*
X122762858Y-77370438D01*
X122719884Y-77402320D01*
X122662910Y-77447456D01*
X122655085Y-77453859D01*
X122583090Y-77507466D01*
X122503233Y-77558787D01*
X122425388Y-77602253D01*
X122359442Y-77632449D01*
X122315304Y-77643862D01*
X122312323Y-77643739D01*
X122278063Y-77637216D01*
X122240397Y-77627681D01*
X122195078Y-77599509D01*
X122160211Y-77553624D01*
X122144188Y-77488309D01*
X122153447Y-77408338D01*
X122189125Y-77311411D01*
X122252330Y-77195151D01*
X122344184Y-77057220D01*
X122465810Y-76895355D01*
X122496060Y-76857073D01*
X122653167Y-76659761D01*
X122786828Y-76659761D01*
X122859508Y-76661494D01*
G37*
G36*
X120816217Y-73400039D02*
G01*
X120807410Y-73418581D01*
X120774316Y-73460635D01*
X120721703Y-73520723D01*
X120654311Y-73593277D01*
X120624907Y-73623815D01*
X120551230Y-73703239D01*
X120475295Y-73790973D01*
X120401465Y-73881301D01*
X120334108Y-73968393D01*
X120277576Y-74046472D01*
X120236307Y-74109750D01*
X120214636Y-74152453D01*
X120213919Y-74167543D01*
X120244130Y-74171605D01*
X120296624Y-74155833D01*
X120360634Y-74125100D01*
X120425558Y-74084225D01*
X120463491Y-74054247D01*
X120540845Y-73993585D01*
X120600743Y-73962270D01*
X120640082Y-73961674D01*
X120649760Y-73970956D01*
X120650386Y-73997417D01*
X120622460Y-74033926D01*
X120563078Y-74083456D01*
X120492720Y-74133300D01*
X120417250Y-74191184D01*
X120367298Y-74248893D01*
X120332658Y-74314748D01*
X120307736Y-74377878D01*
X120291697Y-74428597D01*
X120288435Y-74447439D01*
X120270567Y-74479461D01*
X120227668Y-74499781D01*
X120204575Y-74502330D01*
X120187538Y-74489141D01*
X120193038Y-74448152D01*
X120221603Y-74377065D01*
X120244694Y-74329520D01*
X120303696Y-74212547D01*
X120239538Y-74226308D01*
X120194625Y-74236508D01*
X120172976Y-74242599D01*
X120172751Y-74242739D01*
X120161692Y-74260316D01*
X120135362Y-74303520D01*
X120102231Y-74358518D01*
X119948848Y-74584764D01*
X119778475Y-74782677D01*
X119594453Y-74949426D01*
X119400037Y-75082202D01*
X119198575Y-75178264D01*
X119087791Y-75213936D01*
X118983159Y-75234935D01*
X118862215Y-75248353D01*
X118737618Y-75253853D01*
X118622076Y-75250995D01*
X118528257Y-75239460D01*
X118497011Y-75231492D01*
X118429890Y-75201549D01*
X118373670Y-75162523D01*
X118358341Y-75146533D01*
X118322326Y-75070449D01*
X118318489Y-74985125D01*
X118343722Y-74902397D01*
X118394840Y-74834085D01*
X118450196Y-74798644D01*
X118520213Y-74774595D01*
X118568224Y-74773612D01*
X118606434Y-74796018D01*
X118612409Y-74801725D01*
X118641548Y-74853782D01*
X118638536Y-74908116D01*
X118610382Y-74954667D01*
X118564135Y-74983416D01*
X118506815Y-74984353D01*
X118488775Y-74977815D01*
X118427572Y-74956065D01*
X118392872Y-74962045D01*
X118378766Y-74998088D01*
X118377573Y-75023077D01*
X118396034Y-75094188D01*
X118450442Y-75147549D01*
X118539421Y-75182572D01*
X118661553Y-75198628D01*
X118771029Y-75197989D01*
X118940039Y-75169767D01*
X119101036Y-75102170D01*
X119255229Y-74994636D01*
X119316973Y-74938671D01*
X119369417Y-74884515D01*
X119433647Y-74813151D01*
X119505049Y-74730232D01*
X119579088Y-74641459D01*
X119651157Y-74552555D01*
X119716701Y-74469109D01*
X119771132Y-74396910D01*
X119809868Y-74341587D01*
X119828339Y-74308854D01*
X119828716Y-74302868D01*
X119803229Y-74302798D01*
X119748688Y-74317048D01*
X119673287Y-74342519D01*
X119585223Y-74376167D01*
X119492659Y-74414866D01*
X119403802Y-74455585D01*
X119348939Y-74483213D01*
X119267021Y-74523121D01*
X119211846Y-74542438D01*
X119187069Y-74539994D01*
X119189419Y-74511641D01*
X119201942Y-74498542D01*
X119267979Y-74460011D01*
X119361717Y-74414947D01*
X119471424Y-74368291D01*
X119585399Y-74324994D01*
X119691907Y-74290003D01*
X119705142Y-74286179D01*
X119892365Y-74232968D01*
X120229087Y-73900218D01*
X120374257Y-73758835D01*
X120502369Y-73638361D01*
X120611423Y-73540445D01*
X120699497Y-73466732D01*
X120764669Y-73418874D01*
X120804977Y-73398546D01*
X120816217Y-73400039D01*
G37*
G36*
X121535362Y-75783475D02*
G01*
X121526538Y-75802004D01*
X121493463Y-75844094D01*
X121440827Y-75904167D01*
X121373443Y-75976703D01*
X121344059Y-76007270D01*
X121270385Y-76086684D01*
X121194429Y-76174443D01*
X121120589Y-76264745D01*
X121053236Y-76351831D01*
X120996719Y-76429924D01*
X120955459Y-76493206D01*
X120933767Y-76535918D01*
X120933058Y-76550986D01*
X120963294Y-76555036D01*
X121015759Y-76539291D01*
X121079773Y-76508555D01*
X121144684Y-76467669D01*
X121182622Y-76437684D01*
X121259991Y-76377025D01*
X121319883Y-76345696D01*
X121359231Y-76345106D01*
X121368917Y-76354384D01*
X121369524Y-76380865D01*
X121341587Y-76417357D01*
X121282218Y-76466894D01*
X121211853Y-76516734D01*
X121136384Y-76574620D01*
X121086433Y-76632332D01*
X121051791Y-76698185D01*
X121026876Y-76761326D01*
X121010839Y-76812050D01*
X121007585Y-76830879D01*
X120989729Y-76862891D01*
X120946817Y-76883232D01*
X120923712Y-76885764D01*
X120906674Y-76872592D01*
X120912190Y-76831618D01*
X120940749Y-76760499D01*
X120963837Y-76712955D01*
X121022824Y-76596018D01*
X120958709Y-76609742D01*
X120913773Y-76619956D01*
X120892112Y-76626040D01*
X120891906Y-76626194D01*
X120880811Y-76643762D01*
X120854495Y-76686976D01*
X120821371Y-76741926D01*
X120668001Y-76968231D01*
X120497639Y-77166120D01*
X120313591Y-77332869D01*
X120119178Y-77465651D01*
X119917719Y-77561705D01*
X119806940Y-77597375D01*
X119702310Y-77618382D01*
X119581348Y-77631826D01*
X119456759Y-77637302D01*
X119341214Y-77634443D01*
X119247415Y-77622924D01*
X119216171Y-77614944D01*
X119149010Y-77584988D01*
X119092806Y-77545973D01*
X119077472Y-77529983D01*
X119041489Y-77453895D01*
X119037657Y-77368557D01*
X119062857Y-77285849D01*
X119113994Y-77217539D01*
X119169342Y-77182080D01*
X119239354Y-77158027D01*
X119287370Y-77157068D01*
X119325564Y-77179447D01*
X119331541Y-77185164D01*
X119360683Y-77237221D01*
X119357681Y-77291539D01*
X119329509Y-77338117D01*
X119283266Y-77366863D01*
X119225950Y-77367800D01*
X119207924Y-77361277D01*
X119146714Y-77339504D01*
X119111999Y-77345484D01*
X119097902Y-77381541D01*
X119096715Y-77406529D01*
X119115165Y-77477621D01*
X119169584Y-77530996D01*
X119258563Y-77566026D01*
X119380686Y-77582047D01*
X119490166Y-77581438D01*
X119659191Y-77553201D01*
X119820180Y-77485625D01*
X119974348Y-77378108D01*
X120036117Y-77322120D01*
X120088557Y-77267961D01*
X120152780Y-77196602D01*
X120224182Y-77113684D01*
X120298229Y-77024910D01*
X120370291Y-76935986D01*
X120435842Y-76852580D01*
X120490270Y-76780351D01*
X120529016Y-76725046D01*
X120547498Y-76692302D01*
X120547865Y-76686310D01*
X120522381Y-76686247D01*
X120467842Y-76700490D01*
X120392440Y-76725981D01*
X120304353Y-76759606D01*
X120211789Y-76798326D01*
X120122945Y-76839013D01*
X120068079Y-76866664D01*
X119986169Y-76906541D01*
X119930989Y-76925887D01*
X119906204Y-76923449D01*
X119908555Y-76895083D01*
X119921105Y-76882004D01*
X119987113Y-76843452D01*
X120080855Y-76798385D01*
X120190586Y-76751741D01*
X120304563Y-76708429D01*
X120411040Y-76673454D01*
X120424297Y-76669621D01*
X120611507Y-76616414D01*
X120948238Y-76283654D01*
X121093407Y-76142277D01*
X121221510Y-76021799D01*
X121330567Y-75923882D01*
X121418646Y-75850167D01*
X121483813Y-75802326D01*
X121524097Y-75781982D01*
X121535362Y-75783475D01*
G37*
G36*
X115100056Y-72553938D02*
G01*
X115231495Y-72557949D01*
X115340177Y-72564486D01*
X115398279Y-72570696D01*
X115767009Y-72643391D01*
X116121162Y-72753610D01*
X116458460Y-72899706D01*
X116776606Y-73079947D01*
X117073259Y-73292722D01*
X117346172Y-73536291D01*
X117592967Y-73809018D01*
X117811385Y-74109184D01*
X117999168Y-74435156D01*
X118025242Y-74487669D01*
X118118494Y-74700419D01*
X118199042Y-74931721D01*
X118270161Y-75191219D01*
X118289430Y-75272834D01*
X118308446Y-75358885D01*
X118322646Y-75433208D01*
X118332718Y-75504255D01*
X118339347Y-75580554D01*
X118343252Y-75670581D01*
X118345103Y-75782896D01*
X118345591Y-75925969D01*
X118345591Y-75961165D01*
X118343662Y-76155565D01*
X118336943Y-76319738D01*
X118323789Y-76464525D01*
X118302501Y-76600670D01*
X118271476Y-76738942D01*
X118229040Y-76890104D01*
X118178404Y-77050136D01*
X118047391Y-77385581D01*
X117881366Y-77702180D01*
X117682908Y-77997910D01*
X117454546Y-78270699D01*
X117198803Y-78518487D01*
X116918222Y-78739162D01*
X116615348Y-78930762D01*
X116292710Y-79091138D01*
X115952821Y-79218288D01*
X115598298Y-79310081D01*
X115346928Y-79351717D01*
X115273637Y-79358053D01*
X115171349Y-79362870D01*
X115050712Y-79366103D01*
X114922474Y-79367647D01*
X114797315Y-79367416D01*
X114686028Y-79365304D01*
X114599193Y-79361237D01*
X114566125Y-79358184D01*
X114188813Y-79291718D01*
X113826517Y-79187771D01*
X113481232Y-79047484D01*
X113155042Y-78872096D01*
X112849910Y-78662794D01*
X112567911Y-78420762D01*
X112311045Y-78147197D01*
X112139905Y-77927354D01*
X112058011Y-77802730D01*
X111970169Y-77651044D01*
X111882547Y-77484466D01*
X111824602Y-77363775D01*
X112183503Y-77363775D01*
X112185726Y-77370626D01*
X112208606Y-77418670D01*
X112248669Y-77490147D01*
X112299619Y-77574799D01*
X112355078Y-77662393D01*
X112408688Y-77742671D01*
X112454202Y-77805416D01*
X112458073Y-77810386D01*
X112522081Y-77889011D01*
X112591028Y-77970156D01*
X112659250Y-78047651D01*
X112721228Y-78115294D01*
X112771320Y-78166911D01*
X112803898Y-78196283D01*
X112812280Y-78200761D01*
X112831186Y-78186671D01*
X112874560Y-78147058D01*
X112938288Y-78085910D01*
X113018245Y-78007256D01*
X113110331Y-77915012D01*
X113184752Y-77839493D01*
X113282993Y-77738414D01*
X113371287Y-77645976D01*
X113445633Y-77566480D01*
X113501944Y-77504304D01*
X113536312Y-77463749D01*
X113545205Y-77450303D01*
X113531217Y-77426770D01*
X113478793Y-77409702D01*
X113473292Y-77408725D01*
X113397727Y-77394349D01*
X113318982Y-77377626D01*
X113312768Y-77376202D01*
X113269928Y-77370519D01*
X113192580Y-77364488D01*
X113087375Y-77358452D01*
X112960838Y-77352741D01*
X112819618Y-77347698D01*
X112700950Y-77344397D01*
X112540070Y-77340597D01*
X112415757Y-77338119D01*
X112323445Y-77337176D01*
X112258613Y-77338013D01*
X112216740Y-77340869D01*
X112193271Y-77345949D01*
X112183709Y-77353501D01*
X112183503Y-77363775D01*
X111824602Y-77363775D01*
X111801278Y-77315172D01*
X111732650Y-77155385D01*
X111691788Y-77045098D01*
X111632452Y-76830221D01*
X111973309Y-76830221D01*
X112021022Y-76984909D01*
X112045493Y-77059871D01*
X112067344Y-77119037D01*
X112082590Y-77151768D01*
X112084617Y-77154336D01*
X112108285Y-77158183D01*
X112168100Y-77162309D01*
X112259133Y-77166532D01*
X112376435Y-77170668D01*
X112515042Y-77174543D01*
X112670101Y-77177966D01*
X112778541Y-77179893D01*
X112965846Y-77183616D01*
X113139209Y-77188464D01*
X113293379Y-77194242D01*
X113423095Y-77200704D01*
X113523106Y-77207610D01*
X113588117Y-77214725D01*
X113594938Y-77215862D01*
X113669366Y-77228384D01*
X113717707Y-77231202D01*
X113754078Y-77222453D01*
X113792708Y-77200375D01*
X113810662Y-77188297D01*
X113873595Y-77141414D01*
X113942998Y-77083993D01*
X113970269Y-77059621D01*
X114017225Y-77016322D01*
X114085531Y-76953378D01*
X114166254Y-76879035D01*
X114250542Y-76801478D01*
X114256497Y-76796030D01*
X114354028Y-76705794D01*
X114466870Y-76600420D01*
X114580815Y-76493330D01*
X114677701Y-76401590D01*
X114776495Y-76307687D01*
X114884997Y-76204733D01*
X114990101Y-76105226D01*
X115078620Y-76021615D01*
X115078749Y-76021482D01*
X115160992Y-75943768D01*
X115242564Y-75866392D01*
X115313126Y-75799102D01*
X115356145Y-75757816D01*
X115423113Y-75700350D01*
X115481551Y-75669289D01*
X115533893Y-75657899D01*
X115588070Y-75655207D01*
X115620374Y-75664093D01*
X115629866Y-75687908D01*
X115615653Y-75729936D01*
X115576701Y-75793549D01*
X115512141Y-75882074D01*
X115446165Y-75966999D01*
X115376369Y-76054987D01*
X115314371Y-76132240D01*
X115265090Y-76192640D01*
X115233533Y-76230077D01*
X115225655Y-76238554D01*
X115194750Y-76272686D01*
X115147616Y-76332090D01*
X115088648Y-76410595D01*
X115022046Y-76502083D01*
X114952117Y-76600429D01*
X114883160Y-76699544D01*
X114819462Y-76793257D01*
X114765304Y-76875451D01*
X114724929Y-76940007D01*
X114702683Y-76980802D01*
X114699686Y-76990407D01*
X114684376Y-77008773D01*
X114681179Y-77009055D01*
X114662233Y-77025477D01*
X114630255Y-77067961D01*
X114591564Y-77126324D01*
X114552466Y-77190353D01*
X114519280Y-77249882D01*
X114498288Y-77294714D01*
X114494219Y-77310649D01*
X114513307Y-77317368D01*
X114565420Y-77319914D01*
X114642599Y-77318730D01*
X114737031Y-77314290D01*
X114840854Y-77307019D01*
X114946209Y-77297380D01*
X115045200Y-77285840D01*
X115116747Y-77275123D01*
X115228095Y-77256917D01*
X115305309Y-77247854D01*
X115354648Y-77249345D01*
X115382365Y-77262895D01*
X115394672Y-77289929D01*
X115397882Y-77331912D01*
X115397962Y-77340942D01*
X115394641Y-77369894D01*
X115378733Y-77391335D01*
X115342144Y-77410942D01*
X115276674Y-77434267D01*
X115249305Y-77443120D01*
X115189770Y-77460650D01*
X115131103Y-77473675D01*
X115065206Y-77483062D01*
X114983986Y-77489590D01*
X114879270Y-77494165D01*
X114742935Y-77497546D01*
X114716802Y-77498044D01*
X114333225Y-77505332D01*
X114284781Y-77580813D01*
X114248432Y-77638291D01*
X114217934Y-77687775D01*
X114212214Y-77697362D01*
X114187183Y-77739847D01*
X114148538Y-77805231D01*
X114101626Y-77884571D01*
X114051680Y-77968996D01*
X114003975Y-78049540D01*
X113963806Y-78117350D01*
X113936425Y-78163458D01*
X113928826Y-78176200D01*
X113837463Y-78329400D01*
X113767004Y-78449359D01*
X113716704Y-78537604D01*
X113685564Y-78595707D01*
X113672773Y-78625163D01*
X113672317Y-78628020D01*
X113655931Y-78652316D01*
X113641526Y-78660233D01*
X113615550Y-78688258D01*
X113610706Y-78710978D01*
X113625206Y-78741411D01*
X113671842Y-78774216D01*
X113728826Y-78801743D01*
X114006489Y-78904017D01*
X114306280Y-78979101D01*
X114618611Y-79025908D01*
X114933865Y-79043288D01*
X115242451Y-79030191D01*
X115460636Y-79000270D01*
X115809855Y-78916925D01*
X116142707Y-78798085D01*
X116456624Y-78645399D01*
X116749026Y-78460704D01*
X117017336Y-78245685D01*
X117258988Y-78002118D01*
X117471363Y-77731772D01*
X117579869Y-77563823D01*
X117746877Y-77246187D01*
X117875111Y-76918016D01*
X117964641Y-76582101D01*
X118015514Y-76241254D01*
X118027820Y-75898311D01*
X118001614Y-75555994D01*
X117936979Y-75217181D01*
X117834014Y-74884623D01*
X117692766Y-74561131D01*
X117513299Y-74249532D01*
X117491259Y-74216135D01*
X117393775Y-74083687D01*
X117273118Y-73940262D01*
X117139376Y-73796458D01*
X117002616Y-73662966D01*
X116872879Y-73550424D01*
X116829769Y-73517033D01*
X116689425Y-73412473D01*
X116583202Y-73494329D01*
X116511381Y-73550789D01*
X116438863Y-73609632D01*
X116398150Y-73643723D01*
X116332677Y-73697034D01*
X116263954Y-73748972D01*
X116244042Y-73762998D01*
X116206879Y-73789424D01*
X116142187Y-73836317D01*
X116055461Y-73899719D01*
X115952176Y-73975574D01*
X115837774Y-74059903D01*
X115747588Y-74126600D01*
X115622936Y-74218799D01*
X115500195Y-74309446D01*
X115386113Y-74393609D01*
X115287352Y-74466265D01*
X115210656Y-74522532D01*
X115176565Y-74547435D01*
X115101196Y-74602664D01*
X115031546Y-74654421D01*
X114979427Y-74693871D01*
X114968121Y-74702659D01*
X114923300Y-74733446D01*
X114889874Y-74748559D01*
X114886789Y-74748884D01*
X114865101Y-74761898D01*
X114864064Y-74767394D01*
X114848309Y-74789374D01*
X114809280Y-74820603D01*
X114797267Y-74828575D01*
X114723739Y-74875760D01*
X114676485Y-74906752D01*
X114647108Y-74927235D01*
X114627197Y-74942914D01*
X114625800Y-74944094D01*
X114556681Y-74999882D01*
X114481854Y-75053595D01*
X114432185Y-75086843D01*
X114376179Y-75125136D01*
X114333452Y-75157030D01*
X114319599Y-75169191D01*
X114293884Y-75190318D01*
X114243475Y-75227428D01*
X114177835Y-75273657D01*
X114155205Y-75289220D01*
X114087846Y-75335713D01*
X113996672Y-75399305D01*
X113891387Y-75473162D01*
X113781654Y-75550568D01*
X113723727Y-75591631D01*
X113618869Y-75665832D01*
X113516407Y-75738049D01*
X113424981Y-75802188D01*
X113353172Y-75852205D01*
X113323054Y-75872978D01*
X113262068Y-75914854D01*
X113213637Y-75948532D01*
X113189475Y-75965810D01*
X113156764Y-75989741D01*
X113097704Y-76032116D01*
X113019517Y-76087784D01*
X112929543Y-76151581D01*
X112835032Y-76218388D01*
X112743291Y-76283030D01*
X112661545Y-76340346D01*
X112597130Y-76385236D01*
X112573091Y-76401806D01*
X112493864Y-76456414D01*
X112415617Y-76511192D01*
X112329515Y-76572437D01*
X112226714Y-76646426D01*
X112119079Y-76724380D01*
X111973309Y-76830221D01*
X111632452Y-76830221D01*
X111600749Y-76715425D01*
X111542691Y-76371986D01*
X111518401Y-76028181D01*
X111851462Y-76028181D01*
X111854741Y-76166173D01*
X111862190Y-76291889D01*
X111873631Y-76399587D01*
X111889022Y-76483497D01*
X111908109Y-76537893D01*
X111930613Y-76557025D01*
X111952772Y-76544439D01*
X112000486Y-76509627D01*
X112068051Y-76456996D01*
X112149745Y-76391010D01*
X112211091Y-76340194D01*
X112376761Y-76201194D01*
X112512518Y-76086266D01*
X112617879Y-75995849D01*
X112692290Y-75930442D01*
X112729427Y-75896144D01*
X112758189Y-75870140D01*
X112811048Y-75823989D01*
X112880722Y-75763981D01*
X112959849Y-75696496D01*
X112966842Y-75690585D01*
X113052841Y-75616815D01*
X113136052Y-75544048D01*
X113206710Y-75480862D01*
X113253826Y-75437105D01*
X113303230Y-75390276D01*
X113373470Y-75324926D01*
X113454902Y-75249971D01*
X113531184Y-75180381D01*
X113663371Y-75060327D01*
X113779812Y-74954165D01*
X113884573Y-74858012D01*
X113981725Y-74767920D01*
X114075365Y-74680074D01*
X114169497Y-74590547D01*
X114268180Y-74495475D01*
X114375539Y-74390925D01*
X114495577Y-74273054D01*
X114632369Y-74137965D01*
X114789982Y-73981762D01*
X114972480Y-73800541D01*
X114979614Y-73793469D01*
X115152916Y-73620443D01*
X115305794Y-73466143D01*
X115436805Y-73332073D01*
X115544496Y-73219708D01*
X115627443Y-73130615D01*
X115684131Y-73066297D01*
X115713166Y-73028302D01*
X115716662Y-73020990D01*
X115721133Y-72997904D01*
X115716746Y-72981088D01*
X115697029Y-72967604D01*
X115655545Y-72954453D01*
X115585878Y-72938703D01*
X115497309Y-72920614D01*
X115280563Y-72888250D01*
X115042318Y-72872480D01*
X114797876Y-72873294D01*
X114562661Y-72890713D01*
X114381222Y-72918654D01*
X114029693Y-73008676D01*
X113695430Y-73133834D01*
X113381251Y-73292632D01*
X113089917Y-73483577D01*
X112824245Y-73705196D01*
X112737465Y-73790130D01*
X112647926Y-73882273D01*
X112579648Y-73955388D01*
X112524538Y-74019287D01*
X112474524Y-74083768D01*
X112421590Y-74158620D01*
X112364145Y-74243862D01*
X112185433Y-74548736D01*
X112041952Y-74874397D01*
X111933495Y-75221290D01*
X111902226Y-75355026D01*
X111882681Y-75468269D01*
X111867937Y-75597947D01*
X111857925Y-75738310D01*
X111852472Y-75883645D01*
X111851462Y-76028181D01*
X111518401Y-76028181D01*
X111518052Y-76022900D01*
X111527222Y-75676220D01*
X111570629Y-75340049D01*
X111597824Y-75209750D01*
X111703097Y-74844508D01*
X111843819Y-74498636D01*
X112019025Y-74173747D01*
X112227835Y-73871517D01*
X112469309Y-73593617D01*
X112514520Y-73547959D01*
X112797576Y-73295682D01*
X113102616Y-73077395D01*
X113427254Y-72894315D01*
X113769195Y-72747557D01*
X114126078Y-72638279D01*
X114473664Y-72570696D01*
X114559419Y-72562393D01*
X114675575Y-72556592D01*
X114811473Y-72553245D01*
X114956514Y-72552353D01*
X115100056Y-72553938D01*
G37*
%TO.C,R1*%
D13*
X115860000Y-64939879D02*
X115860000Y-65275121D01*
X116620000Y-64939879D02*
X116620000Y-65275121D01*
%TO.C,C5*%
X135240835Y-64110000D02*
X135009165Y-64110000D01*
X135240835Y-64830000D02*
X135009165Y-64830000D01*
%TO.C,C4*%
X138373335Y-65380000D02*
X138141665Y-65380000D01*
X138373335Y-66100000D02*
X138141665Y-66100000D01*
%TO.C,J4*%
X93140000Y-76610000D02*
X93140000Y-79370000D01*
X95790000Y-76610000D02*
X93140000Y-76610000D01*
X95790000Y-76610000D02*
X95790000Y-79370000D01*
X95790000Y-79370000D02*
X93140000Y-79370000D01*
X97060000Y-76610000D02*
X98440000Y-76610000D01*
X98440000Y-76610000D02*
X98440000Y-77990000D01*
%TO.C,J3*%
X85120000Y-60345000D02*
X86500000Y-60345000D01*
X85120000Y-61725000D02*
X85120000Y-60345000D01*
X85120000Y-62995000D02*
X85120000Y-65645000D01*
X85120000Y-62995000D02*
X87880000Y-62995000D01*
X85120000Y-65645000D02*
X87880000Y-65645000D01*
X87880000Y-62995000D02*
X87880000Y-65645000D01*
%TO.C,C7*%
X152203335Y-69430000D02*
X151971665Y-69430000D01*
X152203335Y-70150000D02*
X151971665Y-70150000D01*
%TO.C,R3*%
X120760000Y-70557621D02*
X120760000Y-70222379D01*
X121520000Y-70557621D02*
X121520000Y-70222379D01*
%TO.C,C1*%
X104545000Y-65541252D02*
X104545000Y-65018748D01*
X106015000Y-65541252D02*
X106015000Y-65018748D01*
%TD*%
M02*
