%TF.GenerationSoftware,KiCad,Pcbnew,10.0.0*%
%TF.CreationDate,2026-04-05T16:29:11-05:00*%
%TF.ProjectId,MotorDriverV2,4d6f746f-7244-4726-9976-657256322e6b,rev?*%
%TF.SameCoordinates,Original*%
%TF.FileFunction,Copper,L2,Bot*%
%TF.FilePolarity,Positive*%
%FSLAX46Y46*%
G04 Gerber Fmt 4.6, Leading zero omitted, Abs format (unit mm)*
G04 Created by KiCad (PCBNEW 10.0.0) date 2026-04-05 16:29:11*
%MOMM*%
%LPD*%
G01*
G04 APERTURE LIST*
G04 Aperture macros list*
%AMRoundRect*
0 Rectangle with rounded corners*
0 $1 Rounding radius*
0 $2 $3 $4 $5 $6 $7 $8 $9 X,Y pos of 4 corners*
0 Add a 4 corners polygon primitive as box body*
4,1,4,$2,$3,$4,$5,$6,$7,$8,$9,$2,$3,0*
0 Add four circle primitives for the rounded corners*
1,1,$1+$1,$2,$3*
1,1,$1+$1,$4,$5*
1,1,$1+$1,$6,$7*
1,1,$1+$1,$8,$9*
0 Add four rect primitives between the rounded corners*
20,1,$1+$1,$2,$3,$4,$5,0*
20,1,$1+$1,$4,$5,$6,$7,0*
20,1,$1+$1,$6,$7,$8,$9,0*
20,1,$1+$1,$8,$9,$2,$3,0*%
G04 Aperture macros list end*
%TA.AperFunction,ComponentPad*%
%ADD10R,1.700000X1.700000*%
%TD*%
%TA.AperFunction,ComponentPad*%
%ADD11C,1.700000*%
%TD*%
%TA.AperFunction,ComponentPad*%
%ADD12RoundRect,0.250000X0.750000X-0.600000X0.750000X0.600000X-0.750000X0.600000X-0.750000X-0.600000X0*%
%TD*%
%TA.AperFunction,ComponentPad*%
%ADD13O,2.000000X1.700000*%
%TD*%
%TA.AperFunction,ComponentPad*%
%ADD14RoundRect,0.250000X-0.750000X0.600000X-0.750000X-0.600000X0.750000X-0.600000X0.750000X0.600000X0*%
%TD*%
%TA.AperFunction,HeatsinkPad*%
%ADD15O,1.000000X2.100000*%
%TD*%
%TA.AperFunction,HeatsinkPad*%
%ADD16O,1.000000X1.800000*%
%TD*%
%TA.AperFunction,ComponentPad*%
%ADD17R,1.350000X1.350000*%
%TD*%
%TA.AperFunction,ComponentPad*%
%ADD18C,1.350000*%
%TD*%
%TA.AperFunction,ViaPad*%
%ADD19C,0.600000*%
%TD*%
%TA.AperFunction,Conductor*%
%ADD20C,0.300000*%
%TD*%
%TA.AperFunction,Conductor*%
%ADD21C,0.200000*%
%TD*%
%TA.AperFunction,Conductor*%
%ADD22C,0.700000*%
%TD*%
%TA.AperFunction,Conductor*%
%ADD23C,0.500000*%
%TD*%
G04 APERTURE END LIST*
D10*
%TO.P,J3,1,Pin_1*%
%TO.N,/ESP_3v3*%
X168670000Y-59290000D03*
D11*
%TO.P,J3,2,Pin_2*%
%TO.N,GND*%
X168670000Y-61830000D03*
%TD*%
D12*
%TO.P,J6,1,Pin_1*%
%TO.N,Out2_1*%
X167470000Y-75760000D03*
D13*
%TO.P,J6,2,Pin_2*%
%TO.N,Out2_2*%
X167470000Y-73260000D03*
%TD*%
D10*
%TO.P,J5,1,Pin_1*%
%TO.N,/IO_15*%
X168670000Y-42697500D03*
D11*
%TO.P,J5,2,Pin_2*%
%TO.N,/IO_16*%
X168670000Y-45237500D03*
%TO.P,J5,3,Pin_3*%
%TO.N,/IO_17*%
X168670000Y-47777500D03*
%TO.P,J5,4,Pin_4*%
%TO.N,/IO_18*%
X168670000Y-50317500D03*
%TO.P,J5,5,Pin_5*%
%TO.N,/IO_13*%
X168670000Y-52857500D03*
%TD*%
D14*
%TO.P,J2,1,Pin_1*%
%TO.N,Out1_1*%
X114340000Y-73410000D03*
D13*
%TO.P,J2,2,Pin_2*%
%TO.N,Out1_2*%
X114340000Y-75910000D03*
%TD*%
D10*
%TO.P,J4,1,Pin_1*%
%TO.N,/IO_04*%
X112920000Y-42630000D03*
D11*
%TO.P,J4,2,Pin_2*%
%TO.N,/IO_05*%
X112920000Y-45170000D03*
%TO.P,J4,3,Pin_3*%
%TO.N,/IO_06*%
X112920000Y-47710000D03*
%TO.P,J4,4,Pin_4*%
%TO.N,/IO_07*%
X112920000Y-50250000D03*
%TO.P,J4,5,Pin_5*%
%TO.N,/IO_08*%
X112920000Y-52790000D03*
%TD*%
D15*
%TO.P,J8,S1,SHIELD*%
%TO.N,GND*%
X142400000Y-78055000D03*
D16*
X142400000Y-82235000D03*
D15*
X151040000Y-78055000D03*
D16*
X151040000Y-82235000D03*
%TD*%
D10*
%TO.P,J7,1,Pin_1*%
%TO.N,/ESP_3v3*%
X112920000Y-59360000D03*
D11*
%TO.P,J7,2,Pin_2*%
%TO.N,GND*%
X112920000Y-61900000D03*
%TD*%
D17*
%TO.P,J1,1,Pin_1*%
%TO.N,GND*%
X124970000Y-82440000D03*
D18*
%TO.P,J1,2,Pin_2*%
%TO.N,+5V*%
X126970000Y-82440000D03*
%TO.P,J1,3,Pin_3*%
%TO.N,+7.4V*%
X128970000Y-82440000D03*
%TD*%
D19*
%TO.N,GND*%
X146560000Y-74680000D03*
%TO.N,/EN*%
X134190000Y-40520000D03*
X157800000Y-36375000D03*
%TO.N,+7.4V*%
X139240000Y-66310000D03*
X128970000Y-78050000D03*
X130290000Y-66370000D03*
X145180000Y-66310000D03*
%TO.N,/ESP_3v3*%
X135580000Y-39250000D03*
X133190000Y-49460000D03*
X166030000Y-41190000D03*
X132150000Y-51720000D03*
%TO.N,/IO_04*%
X135690000Y-41790000D03*
%TO.N,/IO_05*%
X135760000Y-43060000D03*
%TO.N,/IO_06*%
X135750000Y-44330000D03*
%TO.N,/IO_07*%
X135810000Y-45600000D03*
%TO.N,/IO_15*%
X135770000Y-46870000D03*
%TO.N,/IO_16*%
X135780000Y-48140000D03*
%TO.N,/IO_17*%
X135730000Y-49410000D03*
%TO.N,/IO_18*%
X135730000Y-50680000D03*
%TO.N,/IO_08*%
X135680000Y-51950000D03*
%TO.N,D-*%
X143990000Y-70380000D03*
X135420000Y-53220000D03*
%TO.N,D+*%
X135500000Y-54490000D03*
X149140000Y-70490000D03*
%TO.N,/IO_13*%
X147120000Y-57510000D03*
%TO.N,+5V*%
X146580000Y-73517500D03*
X150170000Y-75790000D03*
X142690000Y-75750000D03*
X126970000Y-79680000D03*
X126970000Y-71680000D03*
%TD*%
%TO.N,GND*%
D20*
X146560000Y-76620000D02*
X146560000Y-74680000D01*
X147280000Y-77340000D02*
X146560000Y-76620000D01*
X146560000Y-74680000D02*
X146576126Y-74696126D01*
X150325000Y-77340000D02*
X147280000Y-77340000D01*
X151040000Y-78055000D02*
X150325000Y-77340000D01*
%TO.N,/EN*%
X157795000Y-36380000D02*
X157800000Y-36375000D01*
X134190000Y-37410000D02*
X135220000Y-36380000D01*
D21*
X157800000Y-36370000D02*
X157800000Y-36375000D01*
D20*
X135220000Y-36380000D02*
X157795000Y-36380000D01*
X134190000Y-40520000D02*
X134190000Y-37410000D01*
%TO.N,+7.4V*%
D22*
X128970000Y-78050000D02*
X128970000Y-67690000D01*
X139240000Y-66310000D02*
X145180000Y-66310000D01*
X128970000Y-67690000D02*
X130290000Y-66370000D01*
%TO.N,/ESP_3v3*%
D20*
X158270000Y-39690000D02*
X158430000Y-39850000D01*
X159120000Y-41190000D02*
X166030000Y-41190000D01*
X133190000Y-50680000D02*
X133190000Y-49460000D01*
X158430000Y-40500000D02*
X159120000Y-41190000D01*
X132150000Y-51720000D02*
X133190000Y-50680000D01*
X135580000Y-39250000D02*
X157830000Y-39250000D01*
X157830000Y-39250000D02*
X158270000Y-39690000D01*
X158430000Y-39850000D02*
X158430000Y-40500000D01*
%TO.N,/IO_04*%
X134020000Y-41790000D02*
X133150000Y-42660000D01*
X133150000Y-42660000D02*
X133120000Y-42630000D01*
X133120000Y-42630000D02*
X112920000Y-42630000D01*
X135690000Y-41790000D02*
X134020000Y-41790000D01*
%TO.N,/IO_05*%
X134280000Y-43020000D02*
X132130000Y-45170000D01*
X135760000Y-43060000D02*
X134320000Y-43060000D01*
X134320000Y-43060000D02*
X134280000Y-43020000D01*
X132130000Y-45170000D02*
X112920000Y-45170000D01*
%TO.N,/IO_06*%
X135060000Y-44330000D02*
X131680000Y-47710000D01*
X135750000Y-44330000D02*
X135060000Y-44330000D01*
X131680000Y-47710000D02*
X112920000Y-47710000D01*
%TO.N,/IO_07*%
X135810000Y-45600000D02*
X135420000Y-45600000D01*
X135420000Y-45600000D02*
X130750000Y-50270000D01*
X130730000Y-50250000D02*
X112920000Y-50250000D01*
X130750000Y-50270000D02*
X130730000Y-50250000D01*
%TO.N,/IO_15*%
X163310000Y-42710000D02*
X163600000Y-42710000D01*
X159150000Y-46870000D02*
X163310000Y-42710000D01*
X163612500Y-42697500D02*
X168670000Y-42697500D01*
X135770000Y-46870000D02*
X159150000Y-46870000D01*
X163600000Y-42710000D02*
X163612500Y-42697500D01*
%TO.N,/IO_16*%
X160040000Y-48140000D02*
X162970000Y-45210000D01*
X162997500Y-45237500D02*
X168670000Y-45237500D01*
X162970000Y-45210000D02*
X162997500Y-45237500D01*
X135780000Y-48140000D02*
X160040000Y-48140000D01*
%TO.N,/IO_17*%
X162520000Y-47790000D02*
X165800000Y-47790000D01*
X160900000Y-49410000D02*
X162520000Y-47790000D01*
X135730000Y-49410000D02*
X160900000Y-49410000D01*
X165812500Y-47777500D02*
X168670000Y-47777500D01*
X165800000Y-47790000D02*
X165812500Y-47777500D01*
%TO.N,/IO_18*%
X135750000Y-50700000D02*
X161680000Y-50700000D01*
X135730000Y-50680000D02*
X135750000Y-50700000D01*
X161680000Y-50700000D02*
X162062500Y-50317500D01*
X162062500Y-50317500D02*
X168670000Y-50317500D01*
%TO.N,/IO_08*%
X134840000Y-52790000D02*
X112920000Y-52790000D01*
X135680000Y-51950000D02*
X134840000Y-52790000D01*
%TO.N,D-*%
X143990000Y-70380000D02*
X138500000Y-70380000D01*
X134140000Y-66020000D02*
X134140000Y-54500000D01*
X134140000Y-54500000D02*
X135420000Y-53220000D01*
X138500000Y-70380000D02*
X134140000Y-66020000D01*
%TO.N,D+*%
X135460000Y-54530000D02*
X135500000Y-54490000D01*
X138950000Y-69320000D02*
X135460000Y-65830000D01*
X149140000Y-70490000D02*
X149140000Y-70360000D01*
X135460000Y-65830000D02*
X135460000Y-54530000D01*
X148100000Y-69320000D02*
X138950000Y-69320000D01*
X149140000Y-70360000D02*
X148100000Y-69320000D01*
%TO.N,/IO_13*%
X147120000Y-57510000D02*
X151770000Y-52860000D01*
X151770000Y-52860000D02*
X165840000Y-52860000D01*
X165842500Y-52857500D02*
X168670000Y-52857500D01*
X165840000Y-52860000D02*
X165842500Y-52857500D01*
%TO.N,+5V*%
D23*
X126970000Y-71680000D02*
X126970000Y-79680000D01*
X147920000Y-73540000D02*
X150170000Y-75790000D01*
D20*
X126970000Y-71680000D02*
X126970000Y-71630000D01*
D23*
X142690000Y-75750000D02*
X144900000Y-73540000D01*
X144900000Y-73540000D02*
X147920000Y-73540000D01*
X126970000Y-79680000D02*
X135280000Y-79680000D01*
X135280000Y-79680000D02*
X139210000Y-75750000D01*
X139210000Y-75750000D02*
X142690000Y-75750000D01*
%TD*%
%TA.AperFunction,Conductor*%
%TO.N,GND*%
G36*
X168603736Y-35080726D02*
G01*
X168893796Y-35098271D01*
X168908659Y-35100076D01*
X169190797Y-35151780D01*
X169205334Y-35155363D01*
X169479182Y-35240698D01*
X169493163Y-35246000D01*
X169754734Y-35363724D01*
X169767987Y-35370680D01*
X170013458Y-35519071D01*
X170025776Y-35527573D01*
X170201957Y-35665602D01*
X170251573Y-35704474D01*
X170262781Y-35714404D01*
X170465595Y-35917218D01*
X170475525Y-35928426D01*
X170642466Y-36141510D01*
X170652422Y-36154217D01*
X170660928Y-36166541D01*
X170809319Y-36412012D01*
X170816277Y-36425269D01*
X170933994Y-36686823D01*
X170939304Y-36700825D01*
X171024635Y-36974664D01*
X171028219Y-36989202D01*
X171079923Y-37271340D01*
X171081728Y-37286205D01*
X171099274Y-37576263D01*
X171099500Y-37583750D01*
X171099500Y-81836249D01*
X171099274Y-81843736D01*
X171081728Y-82133794D01*
X171079923Y-82148659D01*
X171028219Y-82430797D01*
X171024635Y-82445335D01*
X170939304Y-82719174D01*
X170933994Y-82733176D01*
X170816277Y-82994730D01*
X170809319Y-83007987D01*
X170660928Y-83253458D01*
X170652422Y-83265782D01*
X170475525Y-83491573D01*
X170465595Y-83502781D01*
X170262781Y-83705595D01*
X170251573Y-83715525D01*
X170025782Y-83892422D01*
X170013458Y-83900928D01*
X169767987Y-84049319D01*
X169754730Y-84056277D01*
X169493176Y-84173994D01*
X169479174Y-84179304D01*
X169205335Y-84264635D01*
X169190797Y-84268219D01*
X168908659Y-84319923D01*
X168893794Y-84321728D01*
X168603736Y-84339274D01*
X168596249Y-84339500D01*
X112693751Y-84339500D01*
X112686264Y-84339274D01*
X112396205Y-84321728D01*
X112381340Y-84319923D01*
X112099202Y-84268219D01*
X112084664Y-84264635D01*
X111810825Y-84179304D01*
X111796827Y-84173995D01*
X111644096Y-84105256D01*
X111535269Y-84056277D01*
X111522012Y-84049319D01*
X111276541Y-83900928D01*
X111264217Y-83892422D01*
X111038426Y-83715525D01*
X111027218Y-83705595D01*
X110824404Y-83502781D01*
X110814474Y-83491573D01*
X110732677Y-83387167D01*
X110637573Y-83265776D01*
X110629071Y-83253458D01*
X110480680Y-83007987D01*
X110473722Y-82994730D01*
X110356000Y-82733163D01*
X110350699Y-82719187D01*
X110265359Y-82445319D01*
X110261780Y-82430797D01*
X110210076Y-82148659D01*
X110208271Y-82133794D01*
X110204246Y-82067259D01*
X110190726Y-81843736D01*
X110190500Y-81836249D01*
X110190500Y-81717155D01*
X123795000Y-81717155D01*
X123795000Y-82190000D01*
X124654314Y-82190000D01*
X124649920Y-82194394D01*
X124597259Y-82285606D01*
X124570000Y-82387339D01*
X124570000Y-82492661D01*
X124597259Y-82594394D01*
X124649920Y-82685606D01*
X124654314Y-82690000D01*
X123795000Y-82690000D01*
X123795000Y-83162844D01*
X123801401Y-83222372D01*
X123801403Y-83222379D01*
X123851645Y-83357086D01*
X123851649Y-83357093D01*
X123937809Y-83472187D01*
X123937812Y-83472190D01*
X124052906Y-83558350D01*
X124052913Y-83558354D01*
X124187620Y-83608596D01*
X124187627Y-83608598D01*
X124247155Y-83614999D01*
X124247172Y-83615000D01*
X124720000Y-83615000D01*
X124720000Y-82755686D01*
X124724394Y-82760080D01*
X124815606Y-82812741D01*
X124917339Y-82840000D01*
X125022661Y-82840000D01*
X125124394Y-82812741D01*
X125215606Y-82760080D01*
X125220000Y-82755686D01*
X125220000Y-83615000D01*
X125692828Y-83615000D01*
X125692844Y-83614999D01*
X125752372Y-83608598D01*
X125752379Y-83608596D01*
X125887086Y-83558354D01*
X125887093Y-83558350D01*
X126002186Y-83472190D01*
X126065836Y-83387167D01*
X126121770Y-83345296D01*
X126191462Y-83340312D01*
X126237986Y-83361158D01*
X126353904Y-83445378D01*
X126434763Y-83486577D01*
X126518764Y-83529379D01*
X126518767Y-83529380D01*
X126606750Y-83557967D01*
X126694736Y-83586555D01*
X126877486Y-83615500D01*
X126877487Y-83615500D01*
X127062513Y-83615500D01*
X127062514Y-83615500D01*
X127245264Y-83586555D01*
X127421235Y-83529379D01*
X127586096Y-83445378D01*
X127735787Y-83336621D01*
X127866621Y-83205787D01*
X127869680Y-83201576D01*
X127925006Y-83158909D01*
X127994619Y-83152926D01*
X128056415Y-83185529D01*
X128070315Y-83201570D01*
X128073379Y-83205787D01*
X128204213Y-83336621D01*
X128353904Y-83445378D01*
X128434763Y-83486577D01*
X128518764Y-83529379D01*
X128518767Y-83529380D01*
X128606750Y-83557967D01*
X128694736Y-83586555D01*
X128877486Y-83615500D01*
X128877487Y-83615500D01*
X129062513Y-83615500D01*
X129062514Y-83615500D01*
X129245264Y-83586555D01*
X129421235Y-83529379D01*
X129586096Y-83445378D01*
X129735787Y-83336621D01*
X129866621Y-83205787D01*
X129975378Y-83056096D01*
X130059379Y-82891235D01*
X130116555Y-82715264D01*
X130145500Y-82532514D01*
X130145500Y-82347486D01*
X130116555Y-82164736D01*
X130076026Y-82040000D01*
X130059380Y-81988767D01*
X130059379Y-81988764D01*
X129975377Y-81823902D01*
X129960411Y-81803304D01*
X129960410Y-81803303D01*
X129954744Y-81795504D01*
X129911878Y-81736504D01*
X141400000Y-81736504D01*
X141400000Y-81985000D01*
X142100000Y-81985000D01*
X142100000Y-82485000D01*
X141400000Y-82485000D01*
X141400000Y-82733495D01*
X141438427Y-82926681D01*
X141438430Y-82926693D01*
X141513807Y-83108671D01*
X141513814Y-83108684D01*
X141623248Y-83272462D01*
X141623251Y-83272466D01*
X141762533Y-83411748D01*
X141762537Y-83411751D01*
X141926315Y-83521185D01*
X141926328Y-83521192D01*
X142108308Y-83596569D01*
X142150000Y-83604862D01*
X142150000Y-82801988D01*
X142159940Y-82819205D01*
X142215795Y-82875060D01*
X142284204Y-82914556D01*
X142360504Y-82935000D01*
X142439496Y-82935000D01*
X142515796Y-82914556D01*
X142584205Y-82875060D01*
X142640060Y-82819205D01*
X142650000Y-82801988D01*
X142650000Y-83604862D01*
X142691690Y-83596569D01*
X142691692Y-83596569D01*
X142873671Y-83521192D01*
X142873684Y-83521185D01*
X143037462Y-83411751D01*
X143037466Y-83411748D01*
X143176748Y-83272466D01*
X143176751Y-83272462D01*
X143286185Y-83108684D01*
X143286192Y-83108671D01*
X143361569Y-82926693D01*
X143361572Y-82926681D01*
X143399999Y-82733495D01*
X143400000Y-82733492D01*
X143400000Y-82485000D01*
X142700000Y-82485000D01*
X142700000Y-81985000D01*
X143400000Y-81985000D01*
X143400000Y-81736508D01*
X143399999Y-81736504D01*
X150040000Y-81736504D01*
X150040000Y-81985000D01*
X150740000Y-81985000D01*
X150740000Y-82485000D01*
X150040000Y-82485000D01*
X150040000Y-82733495D01*
X150078427Y-82926681D01*
X150078430Y-82926693D01*
X150153807Y-83108671D01*
X150153814Y-83108684D01*
X150263248Y-83272462D01*
X150263251Y-83272466D01*
X150402533Y-83411748D01*
X150402537Y-83411751D01*
X150566315Y-83521185D01*
X150566328Y-83521192D01*
X150748308Y-83596569D01*
X150790000Y-83604862D01*
X150790000Y-82801988D01*
X150799940Y-82819205D01*
X150855795Y-82875060D01*
X150924204Y-82914556D01*
X151000504Y-82935000D01*
X151079496Y-82935000D01*
X151155796Y-82914556D01*
X151224205Y-82875060D01*
X151280060Y-82819205D01*
X151290000Y-82801988D01*
X151290000Y-83604862D01*
X151331690Y-83596569D01*
X151331692Y-83596569D01*
X151513671Y-83521192D01*
X151513684Y-83521185D01*
X151677462Y-83411751D01*
X151677466Y-83411748D01*
X151816748Y-83272466D01*
X151816751Y-83272462D01*
X151926185Y-83108684D01*
X151926192Y-83108671D01*
X152001569Y-82926693D01*
X152001572Y-82926681D01*
X152039999Y-82733495D01*
X152040000Y-82733492D01*
X152040000Y-82485000D01*
X151340000Y-82485000D01*
X151340000Y-81985000D01*
X152040000Y-81985000D01*
X152040000Y-81736508D01*
X152039999Y-81736504D01*
X152001572Y-81543318D01*
X152001569Y-81543306D01*
X151926192Y-81361328D01*
X151926185Y-81361315D01*
X151816751Y-81197537D01*
X151816748Y-81197533D01*
X151677466Y-81058251D01*
X151677462Y-81058248D01*
X151513684Y-80948814D01*
X151513671Y-80948807D01*
X151331691Y-80873429D01*
X151331683Y-80873427D01*
X151290000Y-80865135D01*
X151290000Y-81668011D01*
X151280060Y-81650795D01*
X151224205Y-81594940D01*
X151155796Y-81555444D01*
X151079496Y-81535000D01*
X151000504Y-81535000D01*
X150924204Y-81555444D01*
X150855795Y-81594940D01*
X150799940Y-81650795D01*
X150790000Y-81668011D01*
X150790000Y-80865136D01*
X150789999Y-80865135D01*
X150748316Y-80873427D01*
X150748308Y-80873429D01*
X150566328Y-80948807D01*
X150566315Y-80948814D01*
X150402537Y-81058248D01*
X150402533Y-81058251D01*
X150263251Y-81197533D01*
X150263248Y-81197537D01*
X150153814Y-81361315D01*
X150153807Y-81361328D01*
X150078430Y-81543306D01*
X150078427Y-81543318D01*
X150040000Y-81736504D01*
X143399999Y-81736504D01*
X143361572Y-81543318D01*
X143361569Y-81543306D01*
X143286192Y-81361328D01*
X143286185Y-81361315D01*
X143176751Y-81197537D01*
X143176748Y-81197533D01*
X143037466Y-81058251D01*
X143037462Y-81058248D01*
X142873684Y-80948814D01*
X142873671Y-80948807D01*
X142691691Y-80873429D01*
X142691683Y-80873427D01*
X142650000Y-80865135D01*
X142650000Y-81668011D01*
X142640060Y-81650795D01*
X142584205Y-81594940D01*
X142515796Y-81555444D01*
X142439496Y-81535000D01*
X142360504Y-81535000D01*
X142284204Y-81555444D01*
X142215795Y-81594940D01*
X142159940Y-81650795D01*
X142150000Y-81668011D01*
X142150000Y-80865136D01*
X142149999Y-80865135D01*
X142108316Y-80873427D01*
X142108308Y-80873429D01*
X141926328Y-80948807D01*
X141926315Y-80948814D01*
X141762537Y-81058248D01*
X141762533Y-81058251D01*
X141623251Y-81197533D01*
X141623248Y-81197537D01*
X141513814Y-81361315D01*
X141513807Y-81361328D01*
X141438430Y-81543306D01*
X141438427Y-81543318D01*
X141400000Y-81736504D01*
X129911878Y-81736504D01*
X129866621Y-81674213D01*
X129735787Y-81543379D01*
X129586096Y-81434622D01*
X129421235Y-81350620D01*
X129421232Y-81350619D01*
X129245265Y-81293445D01*
X129106097Y-81271403D01*
X129062514Y-81264500D01*
X128877486Y-81264500D01*
X128833915Y-81271401D01*
X128694734Y-81293445D01*
X128518767Y-81350619D01*
X128518764Y-81350620D01*
X128353903Y-81434622D01*
X128273785Y-81492832D01*
X128204213Y-81543379D01*
X128204211Y-81543381D01*
X128204210Y-81543381D01*
X128073381Y-81674210D01*
X128070314Y-81678432D01*
X128014981Y-81721094D01*
X127945367Y-81727069D01*
X127883574Y-81694459D01*
X127869686Y-81678432D01*
X127866621Y-81674213D01*
X127735787Y-81543379D01*
X127586096Y-81434622D01*
X127421235Y-81350620D01*
X127421232Y-81350619D01*
X127245265Y-81293445D01*
X127106097Y-81271403D01*
X127062514Y-81264500D01*
X126877486Y-81264500D01*
X126833915Y-81271401D01*
X126694734Y-81293445D01*
X126518767Y-81350619D01*
X126518764Y-81350620D01*
X126353900Y-81434624D01*
X126237987Y-81518839D01*
X126172180Y-81542319D01*
X126104127Y-81526493D01*
X126065835Y-81492832D01*
X126002186Y-81407809D01*
X125887093Y-81321649D01*
X125887086Y-81321645D01*
X125752379Y-81271403D01*
X125752372Y-81271401D01*
X125692844Y-81265000D01*
X125220000Y-81265000D01*
X125220000Y-82124314D01*
X125215606Y-82119920D01*
X125124394Y-82067259D01*
X125022661Y-82040000D01*
X124917339Y-82040000D01*
X124815606Y-82067259D01*
X124724394Y-82119920D01*
X124720000Y-82124314D01*
X124720000Y-81265000D01*
X124247155Y-81265000D01*
X124187627Y-81271401D01*
X124187620Y-81271403D01*
X124052913Y-81321645D01*
X124052906Y-81321649D01*
X123937812Y-81407809D01*
X123937809Y-81407812D01*
X123851649Y-81522906D01*
X123851645Y-81522913D01*
X123801403Y-81657620D01*
X123801401Y-81657627D01*
X123795000Y-81717155D01*
X110190500Y-81717155D01*
X110190500Y-72759983D01*
X112839500Y-72759983D01*
X112839500Y-74060001D01*
X112839501Y-74060018D01*
X112850000Y-74162796D01*
X112850001Y-74162799D01*
X112888374Y-74278600D01*
X112905186Y-74329334D01*
X112993072Y-74471821D01*
X112997289Y-74478657D01*
X113121344Y-74602712D01*
X113276120Y-74698178D01*
X113322845Y-74750126D01*
X113334068Y-74819088D01*
X113306224Y-74883171D01*
X113298706Y-74891398D01*
X113159889Y-75030215D01*
X113034951Y-75202179D01*
X112938444Y-75391585D01*
X112872753Y-75593760D01*
X112839500Y-75803713D01*
X112839500Y-76016286D01*
X112859968Y-76145520D01*
X112872754Y-76226243D01*
X112932466Y-76410018D01*
X112938444Y-76428414D01*
X113034951Y-76617820D01*
X113159890Y-76789786D01*
X113310213Y-76940109D01*
X113482179Y-77065048D01*
X113482181Y-77065049D01*
X113482184Y-77065051D01*
X113671588Y-77161557D01*
X113873757Y-77227246D01*
X114083713Y-77260500D01*
X114083714Y-77260500D01*
X114596286Y-77260500D01*
X114596287Y-77260500D01*
X114806243Y-77227246D01*
X115008412Y-77161557D01*
X115197816Y-77065051D01*
X115244250Y-77031315D01*
X115369786Y-76940109D01*
X115369788Y-76940106D01*
X115369792Y-76940104D01*
X115520104Y-76789792D01*
X115520106Y-76789788D01*
X115520109Y-76789786D01*
X115645048Y-76617820D01*
X115645047Y-76617820D01*
X115645051Y-76617816D01*
X115741557Y-76428412D01*
X115807246Y-76226243D01*
X115840500Y-76016287D01*
X115840500Y-75803713D01*
X115807246Y-75593757D01*
X115741557Y-75391588D01*
X115645051Y-75202184D01*
X115645049Y-75202181D01*
X115645048Y-75202179D01*
X115520109Y-75030213D01*
X115381294Y-74891398D01*
X115347809Y-74830075D01*
X115352793Y-74760383D01*
X115394665Y-74704450D01*
X115403879Y-74698178D01*
X115409331Y-74694814D01*
X115409334Y-74694814D01*
X115558656Y-74602712D01*
X115682712Y-74478656D01*
X115774814Y-74329334D01*
X115829999Y-74162797D01*
X115840500Y-74060009D01*
X115840499Y-72759992D01*
X115839249Y-72747760D01*
X115829999Y-72657203D01*
X115829998Y-72657200D01*
X115795197Y-72552179D01*
X115774814Y-72490666D01*
X115682712Y-72341344D01*
X115558656Y-72217288D01*
X115409334Y-72125186D01*
X115242797Y-72070001D01*
X115242795Y-72070000D01*
X115140010Y-72059500D01*
X113539998Y-72059500D01*
X113539981Y-72059501D01*
X113437203Y-72070000D01*
X113437200Y-72070001D01*
X113270668Y-72125185D01*
X113270663Y-72125187D01*
X113121342Y-72217289D01*
X112997289Y-72341342D01*
X112905187Y-72490663D01*
X112905185Y-72490668D01*
X112884801Y-72552184D01*
X112850001Y-72657203D01*
X112850001Y-72657204D01*
X112850000Y-72657204D01*
X112839500Y-72759983D01*
X110190500Y-72759983D01*
X110190500Y-71601153D01*
X126169500Y-71601153D01*
X126169500Y-71758846D01*
X126200261Y-71913489D01*
X126200263Y-71913497D01*
X126210061Y-71937151D01*
X126219500Y-71984604D01*
X126219500Y-79375396D01*
X126210062Y-79422844D01*
X126200263Y-79446503D01*
X126200262Y-79446506D01*
X126200260Y-79446511D01*
X126169500Y-79601153D01*
X126169500Y-79758846D01*
X126200261Y-79913489D01*
X126200264Y-79913501D01*
X126260602Y-80059172D01*
X126260609Y-80059185D01*
X126348210Y-80190288D01*
X126348213Y-80190292D01*
X126459707Y-80301786D01*
X126459711Y-80301789D01*
X126590814Y-80389390D01*
X126590827Y-80389397D01*
X126690060Y-80430500D01*
X126736503Y-80449737D01*
X126891153Y-80480499D01*
X126891156Y-80480500D01*
X126891158Y-80480500D01*
X127048844Y-80480500D01*
X127048845Y-80480499D01*
X127125152Y-80465320D01*
X127203488Y-80449739D01*
X127203489Y-80449738D01*
X127203497Y-80449737D01*
X127227155Y-80439937D01*
X127274604Y-80430500D01*
X135353920Y-80430500D01*
X135451462Y-80411096D01*
X135498913Y-80401658D01*
X135635495Y-80345084D01*
X135700291Y-80301789D01*
X135700294Y-80301786D01*
X135700296Y-80301786D01*
X135729547Y-80282240D01*
X135758416Y-80262952D01*
X137568508Y-78452860D01*
X137855411Y-78165957D01*
X139484548Y-76536819D01*
X139545871Y-76503334D01*
X139572229Y-76500500D01*
X141694614Y-76500500D01*
X141761653Y-76520185D01*
X141807408Y-76572989D01*
X141817352Y-76642147D01*
X141788327Y-76705703D01*
X141767205Y-76724336D01*
X141767245Y-76724385D01*
X141765892Y-76725494D01*
X141763503Y-76727603D01*
X141762538Y-76728247D01*
X141762533Y-76728251D01*
X141623251Y-76867533D01*
X141623248Y-76867537D01*
X141513814Y-77031315D01*
X141513807Y-77031328D01*
X141438430Y-77213306D01*
X141438427Y-77213318D01*
X141400000Y-77406504D01*
X141400000Y-77805000D01*
X142100000Y-77805000D01*
X142100000Y-78305000D01*
X141400000Y-78305000D01*
X141400000Y-78703495D01*
X141438427Y-78896681D01*
X141438430Y-78896693D01*
X141513807Y-79078671D01*
X141513814Y-79078684D01*
X141623248Y-79242462D01*
X141623251Y-79242466D01*
X141762533Y-79381748D01*
X141762537Y-79381751D01*
X141926315Y-79491185D01*
X141926328Y-79491192D01*
X142108308Y-79566569D01*
X142150000Y-79574862D01*
X142150000Y-78771988D01*
X142159940Y-78789205D01*
X142215795Y-78845060D01*
X142284204Y-78884556D01*
X142360504Y-78905000D01*
X142439496Y-78905000D01*
X142515796Y-78884556D01*
X142584205Y-78845060D01*
X142640060Y-78789205D01*
X142650000Y-78771988D01*
X142650000Y-79574862D01*
X142691690Y-79566569D01*
X142691692Y-79566569D01*
X142873671Y-79491192D01*
X142873684Y-79491185D01*
X143037462Y-79381751D01*
X143037466Y-79381748D01*
X143176748Y-79242466D01*
X143176751Y-79242462D01*
X143286185Y-79078684D01*
X143286186Y-79078682D01*
X143290129Y-79069163D01*
X143333968Y-79014757D01*
X143400261Y-78992689D01*
X143467961Y-79009965D01*
X143473400Y-79013647D01*
X143476634Y-79015514D01*
X143476635Y-79015515D01*
X143607865Y-79091281D01*
X143754234Y-79130500D01*
X143754236Y-79130500D01*
X143905764Y-79130500D01*
X143905766Y-79130500D01*
X144052135Y-79091281D01*
X144183365Y-79015515D01*
X144290515Y-78908365D01*
X144366281Y-78777135D01*
X144405500Y-78630766D01*
X144405500Y-78479234D01*
X144366281Y-78332865D01*
X144290515Y-78201635D01*
X144183365Y-78094485D01*
X144117750Y-78056602D01*
X144052136Y-78018719D01*
X143978950Y-77999109D01*
X143905766Y-77979500D01*
X143754234Y-77979500D01*
X143607863Y-78018719D01*
X143476635Y-78094485D01*
X143476632Y-78094487D01*
X143369487Y-78201632D01*
X143369483Y-78201638D01*
X143345603Y-78243000D01*
X143295036Y-78291216D01*
X143238216Y-78305000D01*
X142700000Y-78305000D01*
X142700000Y-77805000D01*
X143400000Y-77805000D01*
X143400000Y-77406508D01*
X143399999Y-77406504D01*
X143361572Y-77213318D01*
X143361569Y-77213306D01*
X143286192Y-77031328D01*
X143286185Y-77031315D01*
X143176751Y-76867537D01*
X143176748Y-76867533D01*
X143037466Y-76728251D01*
X143037462Y-76728248D01*
X142994101Y-76699275D01*
X142949296Y-76645663D01*
X142940589Y-76576338D01*
X142970744Y-76513310D01*
X143015540Y-76481612D01*
X143069173Y-76459397D01*
X143069176Y-76459395D01*
X143069179Y-76459394D01*
X143200289Y-76371789D01*
X143311789Y-76260289D01*
X143399394Y-76129179D01*
X143409191Y-76105524D01*
X143436069Y-76065297D01*
X145174549Y-74326819D01*
X145235872Y-74293334D01*
X145262230Y-74290500D01*
X146350696Y-74290500D01*
X146374886Y-74292882D01*
X146404582Y-74298789D01*
X146501155Y-74318000D01*
X146501158Y-74318000D01*
X146658844Y-74318000D01*
X146745256Y-74300810D01*
X146785113Y-74292882D01*
X146809304Y-74290500D01*
X147557770Y-74290500D01*
X147624809Y-74310185D01*
X147645451Y-74326819D01*
X149423926Y-76105293D01*
X149450805Y-76145519D01*
X149460603Y-76169172D01*
X149460606Y-76169178D01*
X149460609Y-76169185D01*
X149548210Y-76300288D01*
X149548213Y-76300292D01*
X149659707Y-76411786D01*
X149659711Y-76411789D01*
X149790814Y-76499390D01*
X149790827Y-76499397D01*
X149936498Y-76559735D01*
X149936503Y-76559737D01*
X150091153Y-76590499D01*
X150091156Y-76590500D01*
X150240923Y-76590500D01*
X150307962Y-76610185D01*
X150353717Y-76662989D01*
X150363661Y-76732147D01*
X150334636Y-76795703D01*
X150328604Y-76802181D01*
X150263251Y-76867533D01*
X150263248Y-76867537D01*
X150153814Y-77031315D01*
X150153807Y-77031328D01*
X150078430Y-77213306D01*
X150078427Y-77213318D01*
X150040000Y-77406504D01*
X150040000Y-77805000D01*
X150740000Y-77805000D01*
X150740000Y-78305000D01*
X150201784Y-78305000D01*
X150134745Y-78285315D01*
X150094397Y-78243000D01*
X150070515Y-78201635D01*
X149963365Y-78094485D01*
X149897750Y-78056602D01*
X149832136Y-78018719D01*
X149758950Y-77999109D01*
X149685766Y-77979500D01*
X149534234Y-77979500D01*
X149387863Y-78018719D01*
X149256635Y-78094485D01*
X149256632Y-78094487D01*
X149149487Y-78201632D01*
X149149485Y-78201635D01*
X149073719Y-78332863D01*
X149034500Y-78479234D01*
X149034500Y-78630765D01*
X149073719Y-78777136D01*
X149111602Y-78842750D01*
X149149485Y-78908365D01*
X149256635Y-79015515D01*
X149387865Y-79091281D01*
X149534234Y-79130500D01*
X149534236Y-79130500D01*
X149685764Y-79130500D01*
X149685766Y-79130500D01*
X149832135Y-79091281D01*
X149963365Y-79015515D01*
X149963366Y-79015513D01*
X149970403Y-79011451D01*
X149971676Y-79013656D01*
X150024956Y-78993043D01*
X150093405Y-79007063D01*
X150143407Y-79055864D01*
X150149867Y-79069157D01*
X150153809Y-79078674D01*
X150153814Y-79078684D01*
X150263248Y-79242462D01*
X150263251Y-79242466D01*
X150402533Y-79381748D01*
X150402537Y-79381751D01*
X150566315Y-79491185D01*
X150566328Y-79491192D01*
X150748308Y-79566569D01*
X150790000Y-79574862D01*
X150790000Y-78771988D01*
X150799940Y-78789205D01*
X150855795Y-78845060D01*
X150924204Y-78884556D01*
X151000504Y-78905000D01*
X151079496Y-78905000D01*
X151155796Y-78884556D01*
X151224205Y-78845060D01*
X151280060Y-78789205D01*
X151290000Y-78771988D01*
X151290000Y-79574862D01*
X151331690Y-79566569D01*
X151331692Y-79566569D01*
X151513671Y-79491192D01*
X151513684Y-79491185D01*
X151677462Y-79381751D01*
X151677466Y-79381748D01*
X151816748Y-79242466D01*
X151816751Y-79242462D01*
X151926185Y-79078684D01*
X151926192Y-79078671D01*
X152001569Y-78896693D01*
X152001572Y-78896681D01*
X152039999Y-78703495D01*
X152040000Y-78703492D01*
X152040000Y-78305000D01*
X151340000Y-78305000D01*
X151340000Y-77805000D01*
X152040000Y-77805000D01*
X152040000Y-77406508D01*
X152039999Y-77406504D01*
X152001572Y-77213318D01*
X152001569Y-77213306D01*
X151926192Y-77031328D01*
X151926185Y-77031315D01*
X151816751Y-76867537D01*
X151816748Y-76867533D01*
X151677466Y-76728251D01*
X151677462Y-76728248D01*
X151513684Y-76618814D01*
X151513671Y-76618807D01*
X151331691Y-76543429D01*
X151331683Y-76543427D01*
X151290000Y-76535135D01*
X151290000Y-77338011D01*
X151280060Y-77320795D01*
X151224205Y-77264940D01*
X151155796Y-77225444D01*
X151079496Y-77205000D01*
X151000504Y-77205000D01*
X150924204Y-77225444D01*
X150855795Y-77264940D01*
X150799940Y-77320795D01*
X150790000Y-77338011D01*
X150790000Y-76535136D01*
X150767752Y-76516878D01*
X150728417Y-76459132D01*
X150726546Y-76389288D01*
X150758736Y-76333342D01*
X150791786Y-76300292D01*
X150791789Y-76300289D01*
X150879394Y-76169179D01*
X150939737Y-76023497D01*
X150970500Y-75868842D01*
X150970500Y-75711158D01*
X150970500Y-75711155D01*
X150970499Y-75711153D01*
X150939738Y-75556510D01*
X150939737Y-75556503D01*
X150939735Y-75556498D01*
X150879397Y-75410827D01*
X150879390Y-75410814D01*
X150791789Y-75279711D01*
X150791786Y-75279707D01*
X150680292Y-75168213D01*
X150680288Y-75168210D01*
X150549185Y-75080609D01*
X150549180Y-75080607D01*
X150549179Y-75080606D01*
X150525519Y-75070805D01*
X150485293Y-75043926D01*
X148677891Y-73236522D01*
X148595082Y-73153713D01*
X165969500Y-73153713D01*
X165969500Y-73366286D01*
X166002753Y-73576239D01*
X166068444Y-73778414D01*
X166164951Y-73967820D01*
X166289890Y-74139786D01*
X166428705Y-74278601D01*
X166462190Y-74339924D01*
X166457206Y-74409616D01*
X166415334Y-74465549D01*
X166406121Y-74471821D01*
X166251342Y-74567289D01*
X166127289Y-74691342D01*
X166035187Y-74840663D01*
X166035186Y-74840666D01*
X165980001Y-75007203D01*
X165980001Y-75007204D01*
X165980000Y-75007204D01*
X165969500Y-75109983D01*
X165969500Y-76410001D01*
X165969501Y-76410018D01*
X165980000Y-76512796D01*
X165980001Y-76512799D01*
X166035185Y-76679331D01*
X166035187Y-76679336D01*
X166063658Y-76725494D01*
X166127288Y-76828656D01*
X166251344Y-76952712D01*
X166400666Y-77044814D01*
X166567203Y-77099999D01*
X166669991Y-77110500D01*
X168270008Y-77110499D01*
X168372797Y-77099999D01*
X168539334Y-77044814D01*
X168688656Y-76952712D01*
X168812712Y-76828656D01*
X168904814Y-76679334D01*
X168959999Y-76512797D01*
X168970500Y-76410009D01*
X168970499Y-75109992D01*
X168967937Y-75084916D01*
X168959999Y-75007203D01*
X168959998Y-75007200D01*
X168956507Y-74996666D01*
X168904814Y-74840666D01*
X168812712Y-74691344D01*
X168688656Y-74567288D01*
X168539334Y-74475186D01*
X168539333Y-74475185D01*
X168533878Y-74471821D01*
X168487154Y-74419873D01*
X168475931Y-74350910D01*
X168503775Y-74286828D01*
X168511272Y-74278623D01*
X168650104Y-74139792D01*
X168775051Y-73967816D01*
X168871557Y-73778412D01*
X168937246Y-73576243D01*
X168970500Y-73366287D01*
X168970500Y-73153713D01*
X168937246Y-72943757D01*
X168871557Y-72741588D01*
X168775051Y-72552184D01*
X168775049Y-72552181D01*
X168775048Y-72552179D01*
X168650109Y-72380213D01*
X168499786Y-72229890D01*
X168327820Y-72104951D01*
X168138414Y-72008444D01*
X168138413Y-72008443D01*
X168138412Y-72008443D01*
X167936243Y-71942754D01*
X167936241Y-71942753D01*
X167936240Y-71942753D01*
X167774957Y-71917208D01*
X167726287Y-71909500D01*
X167213713Y-71909500D01*
X167165042Y-71917208D01*
X167003760Y-71942753D01*
X166801585Y-72008444D01*
X166612179Y-72104951D01*
X166440213Y-72229890D01*
X166289890Y-72380213D01*
X166164951Y-72552179D01*
X166068444Y-72741585D01*
X166002753Y-72943760D01*
X165969500Y-73153713D01*
X148595082Y-73153713D01*
X148398421Y-72957052D01*
X148398414Y-72957046D01*
X148306617Y-72895710D01*
X148306616Y-72895710D01*
X148275500Y-72874919D01*
X148275488Y-72874912D01*
X148138917Y-72818343D01*
X148138907Y-72818340D01*
X147993920Y-72789500D01*
X147993918Y-72789500D01*
X146938924Y-72789500D01*
X146891472Y-72780061D01*
X146813498Y-72747763D01*
X146813488Y-72747760D01*
X146658845Y-72717000D01*
X146658842Y-72717000D01*
X146501158Y-72717000D01*
X146501155Y-72717000D01*
X146346511Y-72747760D01*
X146346501Y-72747763D01*
X146268528Y-72780061D01*
X146221076Y-72789500D01*
X144826080Y-72789500D01*
X144681092Y-72818340D01*
X144681082Y-72818343D01*
X144544511Y-72874912D01*
X144544499Y-72874919D01*
X144513384Y-72895710D01*
X144513383Y-72895710D01*
X144421585Y-72957046D01*
X144421578Y-72957052D01*
X142415451Y-74963181D01*
X142354128Y-74996666D01*
X142327770Y-74999500D01*
X139136080Y-74999500D01*
X138991092Y-75028340D01*
X138991082Y-75028343D01*
X138854511Y-75084912D01*
X138854498Y-75084919D01*
X138731584Y-75167048D01*
X138731580Y-75167051D01*
X135005451Y-78893181D01*
X134944128Y-78926666D01*
X134917770Y-78929500D01*
X129592021Y-78929500D01*
X129524982Y-78909815D01*
X129479227Y-78857011D01*
X129469283Y-78787853D01*
X129498308Y-78724297D01*
X129507889Y-78714968D01*
X129507855Y-78714934D01*
X129630623Y-78592165D01*
X129630626Y-78592162D01*
X129723703Y-78452863D01*
X129787816Y-78298082D01*
X129820500Y-78133767D01*
X129820500Y-68093651D01*
X129840185Y-68026612D01*
X129856819Y-68005970D01*
X130950624Y-66912165D01*
X130950627Y-66912162D01*
X131043704Y-66772863D01*
X131107816Y-66618081D01*
X131140500Y-66453767D01*
X131140500Y-66286233D01*
X131140208Y-66284769D01*
X131107818Y-66121926D01*
X131107815Y-66121917D01*
X131082963Y-66061918D01*
X131043704Y-65967137D01*
X131043702Y-65967135D01*
X131043702Y-65967133D01*
X130950627Y-65827838D01*
X130950624Y-65827834D01*
X130832165Y-65709375D01*
X130832161Y-65709372D01*
X130692866Y-65616297D01*
X130692863Y-65616296D01*
X130538082Y-65552184D01*
X130538073Y-65552181D01*
X130373771Y-65519500D01*
X130373767Y-65519500D01*
X130206233Y-65519500D01*
X130206228Y-65519500D01*
X130041926Y-65552181D01*
X130041917Y-65552184D01*
X129887136Y-65616296D01*
X129887133Y-65616297D01*
X129747838Y-65709372D01*
X129747834Y-65709375D01*
X128309375Y-67147834D01*
X128309372Y-67147838D01*
X128216299Y-67287130D01*
X128216292Y-67287143D01*
X128170962Y-67396583D01*
X128152185Y-67441913D01*
X128152182Y-67441925D01*
X128119500Y-67606228D01*
X128119500Y-78133771D01*
X128152182Y-78298074D01*
X128152184Y-78298082D01*
X128216295Y-78452860D01*
X128309373Y-78592162D01*
X128432145Y-78714934D01*
X128431016Y-78716062D01*
X128465980Y-78767399D01*
X128467847Y-78837243D01*
X128431657Y-78897010D01*
X128368899Y-78927723D01*
X128347979Y-78929500D01*
X127844500Y-78929500D01*
X127777461Y-78909815D01*
X127731706Y-78857011D01*
X127720500Y-78805500D01*
X127720500Y-71984604D01*
X127729939Y-71937151D01*
X127739737Y-71913497D01*
X127770500Y-71758842D01*
X127770500Y-71601158D01*
X127770500Y-71601155D01*
X127770499Y-71601153D01*
X127739738Y-71446510D01*
X127739737Y-71446503D01*
X127739735Y-71446498D01*
X127679397Y-71300827D01*
X127679390Y-71300814D01*
X127591789Y-71169711D01*
X127591786Y-71169707D01*
X127480292Y-71058213D01*
X127480288Y-71058210D01*
X127349185Y-70970609D01*
X127349172Y-70970602D01*
X127203501Y-70910264D01*
X127203489Y-70910261D01*
X127048845Y-70879500D01*
X127048842Y-70879500D01*
X126891158Y-70879500D01*
X126891155Y-70879500D01*
X126736510Y-70910261D01*
X126736498Y-70910264D01*
X126590827Y-70970602D01*
X126590814Y-70970609D01*
X126459711Y-71058210D01*
X126459707Y-71058213D01*
X126348213Y-71169707D01*
X126348210Y-71169711D01*
X126260609Y-71300814D01*
X126260602Y-71300827D01*
X126200264Y-71446498D01*
X126200261Y-71446510D01*
X126169500Y-71601153D01*
X110190500Y-71601153D01*
X110190500Y-58462135D01*
X111569500Y-58462135D01*
X111569500Y-60257870D01*
X111569501Y-60257876D01*
X111575908Y-60317483D01*
X111626202Y-60452328D01*
X111626206Y-60452335D01*
X111712452Y-60567544D01*
X111712455Y-60567547D01*
X111827664Y-60653793D01*
X111827671Y-60653797D01*
X111872618Y-60670561D01*
X111962517Y-60704091D01*
X112022127Y-60710500D01*
X112032685Y-60710499D01*
X112099723Y-60730179D01*
X112120372Y-60746818D01*
X112790591Y-61417037D01*
X112727007Y-61434075D01*
X112612993Y-61499901D01*
X112519901Y-61592993D01*
X112454075Y-61707007D01*
X112437037Y-61770591D01*
X111804728Y-61138282D01*
X111804727Y-61138282D01*
X111765380Y-61192439D01*
X111668904Y-61381782D01*
X111603242Y-61583869D01*
X111603242Y-61583872D01*
X111570000Y-61793753D01*
X111570000Y-62006246D01*
X111603242Y-62216127D01*
X111603242Y-62216130D01*
X111668904Y-62418217D01*
X111765375Y-62607550D01*
X111804728Y-62661716D01*
X112437037Y-62029408D01*
X112454075Y-62092993D01*
X112519901Y-62207007D01*
X112612993Y-62300099D01*
X112727007Y-62365925D01*
X112790590Y-62382962D01*
X112158282Y-63015269D01*
X112158282Y-63015270D01*
X112212449Y-63054624D01*
X112401782Y-63151095D01*
X112603870Y-63216757D01*
X112813754Y-63250000D01*
X113026246Y-63250000D01*
X113236127Y-63216757D01*
X113236130Y-63216757D01*
X113438217Y-63151095D01*
X113627554Y-63054622D01*
X113681716Y-63015270D01*
X113681717Y-63015270D01*
X113049408Y-62382962D01*
X113112993Y-62365925D01*
X113227007Y-62300099D01*
X113320099Y-62207007D01*
X113385925Y-62092993D01*
X113402962Y-62029408D01*
X114035270Y-62661717D01*
X114035270Y-62661716D01*
X114074622Y-62607554D01*
X114171095Y-62418217D01*
X114236757Y-62216130D01*
X114236757Y-62216127D01*
X114270000Y-62006246D01*
X114270000Y-61793753D01*
X114236757Y-61583872D01*
X114236757Y-61583869D01*
X114171095Y-61381782D01*
X114074624Y-61192449D01*
X114035270Y-61138282D01*
X114035269Y-61138282D01*
X113402962Y-61770590D01*
X113385925Y-61707007D01*
X113320099Y-61592993D01*
X113227007Y-61499901D01*
X113112993Y-61434075D01*
X113049409Y-61417037D01*
X113719627Y-60746818D01*
X113780950Y-60713333D01*
X113807307Y-60710499D01*
X113817872Y-60710499D01*
X113877483Y-60704091D01*
X114012331Y-60653796D01*
X114127546Y-60567546D01*
X114213796Y-60452331D01*
X114264091Y-60317483D01*
X114270500Y-60257873D01*
X114270499Y-58462128D01*
X114264091Y-58402517D01*
X114260216Y-58392128D01*
X114213797Y-58267671D01*
X114213793Y-58267664D01*
X114127547Y-58152455D01*
X114127544Y-58152452D01*
X114012335Y-58066206D01*
X114012328Y-58066202D01*
X113877482Y-58015908D01*
X113877483Y-58015908D01*
X113817883Y-58009501D01*
X113817881Y-58009500D01*
X113817873Y-58009500D01*
X113817864Y-58009500D01*
X112022129Y-58009500D01*
X112022123Y-58009501D01*
X111962516Y-58015908D01*
X111827671Y-58066202D01*
X111827664Y-58066206D01*
X111712455Y-58152452D01*
X111712452Y-58152455D01*
X111626206Y-58267664D01*
X111626202Y-58267671D01*
X111575908Y-58402517D01*
X111569501Y-58462116D01*
X111569501Y-58462123D01*
X111569500Y-58462135D01*
X110190500Y-58462135D01*
X110190500Y-41732135D01*
X111569500Y-41732135D01*
X111569500Y-43527870D01*
X111569501Y-43527876D01*
X111575908Y-43587483D01*
X111626202Y-43722328D01*
X111626206Y-43722335D01*
X111712452Y-43837544D01*
X111712455Y-43837547D01*
X111827664Y-43923793D01*
X111827671Y-43923797D01*
X111959082Y-43972810D01*
X112015016Y-44014681D01*
X112039433Y-44080145D01*
X112024582Y-44148418D01*
X112003431Y-44176673D01*
X111889889Y-44290215D01*
X111764951Y-44462179D01*
X111668444Y-44651585D01*
X111602753Y-44853760D01*
X111583042Y-44978211D01*
X111569500Y-45063713D01*
X111569500Y-45276287D01*
X111602754Y-45486243D01*
X111665334Y-45678844D01*
X111668444Y-45688414D01*
X111764951Y-45877820D01*
X111889890Y-46049786D01*
X112040213Y-46200109D01*
X112212182Y-46325050D01*
X112220946Y-46329516D01*
X112271742Y-46377491D01*
X112288536Y-46445312D01*
X112265998Y-46511447D01*
X112220946Y-46550484D01*
X112212182Y-46554949D01*
X112040213Y-46679890D01*
X111889890Y-46830213D01*
X111764951Y-47002179D01*
X111668444Y-47191585D01*
X111602753Y-47393760D01*
X111569500Y-47603713D01*
X111569500Y-47816286D01*
X111602753Y-48026239D01*
X111668444Y-48228414D01*
X111764951Y-48417820D01*
X111889890Y-48589786D01*
X112040213Y-48740109D01*
X112212182Y-48865050D01*
X112220946Y-48869516D01*
X112271742Y-48917491D01*
X112288536Y-48985312D01*
X112265998Y-49051447D01*
X112220946Y-49090484D01*
X112212182Y-49094949D01*
X112040213Y-49219890D01*
X111889890Y-49370213D01*
X111764951Y-49542179D01*
X111668444Y-49731585D01*
X111602753Y-49933760D01*
X111584422Y-50049500D01*
X111569500Y-50143713D01*
X111569500Y-50356287D01*
X111602754Y-50566243D01*
X111660533Y-50744069D01*
X111668444Y-50768414D01*
X111764951Y-50957820D01*
X111889890Y-51129786D01*
X112040213Y-51280109D01*
X112212182Y-51405050D01*
X112220946Y-51409516D01*
X112271742Y-51457491D01*
X112288536Y-51525312D01*
X112265998Y-51591447D01*
X112220946Y-51630484D01*
X112212182Y-51634949D01*
X112040213Y-51759890D01*
X111889890Y-51910213D01*
X111764951Y-52082179D01*
X111668444Y-52271585D01*
X111668443Y-52271587D01*
X111668443Y-52271588D01*
X111664561Y-52283535D01*
X111602753Y-52473760D01*
X111592063Y-52541257D01*
X111569500Y-52683713D01*
X111569500Y-52896287D01*
X111602754Y-53106243D01*
X111665334Y-53298844D01*
X111668444Y-53308414D01*
X111764951Y-53497820D01*
X111889890Y-53669786D01*
X112040213Y-53820109D01*
X112212179Y-53945048D01*
X112212181Y-53945049D01*
X112212184Y-53945051D01*
X112401588Y-54041557D01*
X112603757Y-54107246D01*
X112813713Y-54140500D01*
X112813714Y-54140500D01*
X113026286Y-54140500D01*
X113026287Y-54140500D01*
X113236243Y-54107246D01*
X113438412Y-54041557D01*
X113627816Y-53945051D01*
X113770540Y-53841357D01*
X113799786Y-53820109D01*
X113799788Y-53820106D01*
X113799792Y-53820104D01*
X113950104Y-53669792D01*
X113950106Y-53669788D01*
X113950109Y-53669786D01*
X114077915Y-53493875D01*
X114079259Y-53494851D01*
X114125705Y-53452834D01*
X114179618Y-53440500D01*
X133980192Y-53440500D01*
X134047231Y-53460185D01*
X134092986Y-53512989D01*
X134102930Y-53582147D01*
X134073905Y-53645703D01*
X134067873Y-53652181D01*
X133634727Y-54085325D01*
X133634724Y-54085328D01*
X133597860Y-54140499D01*
X133597861Y-54140500D01*
X133563534Y-54191874D01*
X133514499Y-54310255D01*
X133514497Y-54310261D01*
X133489500Y-54435928D01*
X133489500Y-54435931D01*
X133489500Y-66084069D01*
X133489500Y-66084071D01*
X133489499Y-66084071D01*
X133514497Y-66209738D01*
X133514499Y-66209744D01*
X133563535Y-66328127D01*
X133634723Y-66434669D01*
X133634726Y-66434673D01*
X133634727Y-66434674D01*
X137994724Y-70794669D01*
X138069227Y-70869172D01*
X138085332Y-70885277D01*
X138191866Y-70956461D01*
X138191872Y-70956464D01*
X138191873Y-70956465D01*
X138310256Y-71005501D01*
X138310260Y-71005501D01*
X138310261Y-71005502D01*
X138435928Y-71030500D01*
X138435931Y-71030500D01*
X143485065Y-71030500D01*
X143552104Y-71050185D01*
X143553909Y-71051366D01*
X143610821Y-71089394D01*
X143610823Y-71089395D01*
X143610827Y-71089397D01*
X143756498Y-71149735D01*
X143756503Y-71149737D01*
X143911153Y-71180499D01*
X143911156Y-71180500D01*
X143911158Y-71180500D01*
X144068844Y-71180500D01*
X144068845Y-71180499D01*
X144223497Y-71149737D01*
X144369179Y-71089394D01*
X144500289Y-71001789D01*
X144611789Y-70890289D01*
X144699394Y-70759179D01*
X144759737Y-70613497D01*
X144790500Y-70458842D01*
X144790500Y-70301158D01*
X144790500Y-70301155D01*
X144790499Y-70301153D01*
X144781619Y-70256510D01*
X144759737Y-70146503D01*
X144757851Y-70141951D01*
X144750383Y-70072485D01*
X144781657Y-70010005D01*
X144841746Y-69974352D01*
X144872413Y-69970500D01*
X147779192Y-69970500D01*
X147846231Y-69990185D01*
X147866873Y-70006819D01*
X148303181Y-70443127D01*
X148336666Y-70504450D01*
X148339500Y-70530808D01*
X148339500Y-70568846D01*
X148370261Y-70723489D01*
X148370264Y-70723501D01*
X148430602Y-70869172D01*
X148430609Y-70869185D01*
X148518210Y-71000288D01*
X148518213Y-71000292D01*
X148629707Y-71111786D01*
X148629711Y-71111789D01*
X148760814Y-71199390D01*
X148760827Y-71199397D01*
X148906498Y-71259735D01*
X148906503Y-71259737D01*
X149061153Y-71290499D01*
X149061156Y-71290500D01*
X149061158Y-71290500D01*
X149218844Y-71290500D01*
X149218845Y-71290499D01*
X149373497Y-71259737D01*
X149519179Y-71199394D01*
X149650289Y-71111789D01*
X149761789Y-71000289D01*
X149849394Y-70869179D01*
X149909737Y-70723497D01*
X149940500Y-70568842D01*
X149940500Y-70411158D01*
X149940500Y-70411155D01*
X149940499Y-70411153D01*
X149909738Y-70256510D01*
X149909737Y-70256503D01*
X149864177Y-70146510D01*
X149849397Y-70110827D01*
X149849390Y-70110814D01*
X149761789Y-69979711D01*
X149761786Y-69979707D01*
X149650292Y-69868213D01*
X149650288Y-69868210D01*
X149519185Y-69780609D01*
X149519179Y-69780606D01*
X149476023Y-69762730D01*
X149435796Y-69735850D01*
X148514674Y-68814727D01*
X148514673Y-68814726D01*
X148514669Y-68814723D01*
X148408127Y-68743535D01*
X148289744Y-68694499D01*
X148289738Y-68694497D01*
X148164071Y-68669500D01*
X148164069Y-68669500D01*
X139270808Y-68669500D01*
X139203769Y-68649815D01*
X139183127Y-68633181D01*
X136776174Y-66226228D01*
X138389500Y-66226228D01*
X138389500Y-66393771D01*
X138422182Y-66558074D01*
X138422184Y-66558082D01*
X138486295Y-66712860D01*
X138579373Y-66852162D01*
X138697837Y-66970626D01*
X138790494Y-67032537D01*
X138837137Y-67063703D01*
X138991918Y-67127816D01*
X139156228Y-67160499D01*
X139156232Y-67160500D01*
X139156233Y-67160500D01*
X145263768Y-67160500D01*
X145263769Y-67160499D01*
X145428082Y-67127816D01*
X145582863Y-67063703D01*
X145722162Y-66970626D01*
X145840626Y-66852162D01*
X145933703Y-66712863D01*
X145997816Y-66558082D01*
X146030500Y-66393767D01*
X146030500Y-66226233D01*
X145997816Y-66061918D01*
X145933703Y-65907137D01*
X145841773Y-65769554D01*
X145840626Y-65767837D01*
X145722162Y-65649373D01*
X145582860Y-65556295D01*
X145428082Y-65492184D01*
X145428074Y-65492182D01*
X145263771Y-65459500D01*
X145263767Y-65459500D01*
X139156233Y-65459500D01*
X139156228Y-65459500D01*
X138991925Y-65492182D01*
X138991917Y-65492184D01*
X138837139Y-65556295D01*
X138697837Y-65649373D01*
X138579373Y-65767837D01*
X138486295Y-65907139D01*
X138422184Y-66061917D01*
X138422182Y-66061925D01*
X138389500Y-66226228D01*
X136776174Y-66226228D01*
X136146819Y-65596873D01*
X136113334Y-65535550D01*
X136110500Y-65509192D01*
X136110500Y-58392135D01*
X167319500Y-58392135D01*
X167319500Y-60187870D01*
X167319501Y-60187876D01*
X167325908Y-60247483D01*
X167376202Y-60382328D01*
X167376206Y-60382335D01*
X167462452Y-60497544D01*
X167462455Y-60497547D01*
X167577664Y-60583793D01*
X167577671Y-60583797D01*
X167622618Y-60600561D01*
X167712517Y-60634091D01*
X167772127Y-60640500D01*
X167782685Y-60640499D01*
X167849723Y-60660179D01*
X167870372Y-60676818D01*
X168540591Y-61347037D01*
X168477007Y-61364075D01*
X168362993Y-61429901D01*
X168269901Y-61522993D01*
X168204075Y-61637007D01*
X168187037Y-61700591D01*
X167554728Y-61068282D01*
X167554727Y-61068282D01*
X167515380Y-61122439D01*
X167418904Y-61311782D01*
X167353242Y-61513869D01*
X167353242Y-61513872D01*
X167320000Y-61723753D01*
X167320000Y-61936246D01*
X167353242Y-62146127D01*
X167353242Y-62146130D01*
X167418904Y-62348217D01*
X167515375Y-62537550D01*
X167554728Y-62591716D01*
X168187036Y-61959407D01*
X168204075Y-62022993D01*
X168269901Y-62137007D01*
X168362993Y-62230099D01*
X168477007Y-62295925D01*
X168540590Y-62312962D01*
X167908282Y-62945269D01*
X167908282Y-62945270D01*
X167962449Y-62984624D01*
X168151782Y-63081095D01*
X168353870Y-63146757D01*
X168563754Y-63180000D01*
X168776246Y-63180000D01*
X168986127Y-63146757D01*
X168986130Y-63146757D01*
X169188217Y-63081095D01*
X169377554Y-62984622D01*
X169431716Y-62945270D01*
X169431717Y-62945270D01*
X168799408Y-62312962D01*
X168862993Y-62295925D01*
X168977007Y-62230099D01*
X169070099Y-62137007D01*
X169135925Y-62022993D01*
X169152962Y-61959408D01*
X169785270Y-62591717D01*
X169785270Y-62591716D01*
X169824622Y-62537554D01*
X169921095Y-62348217D01*
X169986757Y-62146130D01*
X169986757Y-62146127D01*
X170020000Y-61936246D01*
X170020000Y-61723753D01*
X169986757Y-61513872D01*
X169986757Y-61513869D01*
X169921095Y-61311782D01*
X169824624Y-61122449D01*
X169785270Y-61068282D01*
X169785269Y-61068282D01*
X169152962Y-61700590D01*
X169135925Y-61637007D01*
X169070099Y-61522993D01*
X168977007Y-61429901D01*
X168862993Y-61364075D01*
X168799409Y-61347037D01*
X169469627Y-60676818D01*
X169530950Y-60643333D01*
X169557307Y-60640499D01*
X169567872Y-60640499D01*
X169627483Y-60634091D01*
X169762331Y-60583796D01*
X169877546Y-60497546D01*
X169963796Y-60382331D01*
X170014091Y-60247483D01*
X170020500Y-60187873D01*
X170020499Y-58392128D01*
X170014091Y-58332517D01*
X170005879Y-58310500D01*
X169963797Y-58197671D01*
X169963793Y-58197664D01*
X169877547Y-58082455D01*
X169877544Y-58082452D01*
X169762335Y-57996206D01*
X169762328Y-57996202D01*
X169627482Y-57945908D01*
X169627483Y-57945908D01*
X169567883Y-57939501D01*
X169567881Y-57939500D01*
X169567873Y-57939500D01*
X169567864Y-57939500D01*
X167772129Y-57939500D01*
X167772123Y-57939501D01*
X167712516Y-57945908D01*
X167577671Y-57996202D01*
X167577664Y-57996206D01*
X167462455Y-58082452D01*
X167462452Y-58082455D01*
X167376206Y-58197664D01*
X167376202Y-58197671D01*
X167325908Y-58332517D01*
X167319501Y-58392116D01*
X167319501Y-58392123D01*
X167319500Y-58392135D01*
X136110500Y-58392135D01*
X136110500Y-55054799D01*
X136130185Y-54987760D01*
X136131398Y-54985908D01*
X136209390Y-54869185D01*
X136209390Y-54869184D01*
X136209394Y-54869179D01*
X136269737Y-54723497D01*
X136300500Y-54568842D01*
X136300500Y-54411158D01*
X136300500Y-54411155D01*
X136300499Y-54411153D01*
X136269738Y-54256510D01*
X136269737Y-54256503D01*
X136242967Y-54191873D01*
X136209397Y-54110827D01*
X136209390Y-54110814D01*
X136121789Y-53979711D01*
X136121786Y-53979707D01*
X136044759Y-53902680D01*
X136011274Y-53841357D01*
X136016258Y-53771665D01*
X136039177Y-53736018D01*
X136037928Y-53734993D01*
X136041791Y-53730286D01*
X136129390Y-53599185D01*
X136129390Y-53599184D01*
X136129394Y-53599179D01*
X136189737Y-53453497D01*
X136220500Y-53298842D01*
X136220500Y-53141158D01*
X136220500Y-53141155D01*
X136220499Y-53141153D01*
X136189738Y-52986510D01*
X136189737Y-52986503D01*
X136180328Y-52963787D01*
X136129397Y-52840827D01*
X136129395Y-52840823D01*
X136129394Y-52840821D01*
X136092804Y-52786060D01*
X136071926Y-52719383D01*
X136090410Y-52652003D01*
X136127014Y-52614068D01*
X136190289Y-52571789D01*
X136301789Y-52460289D01*
X136389394Y-52329179D01*
X136449737Y-52183497D01*
X136480500Y-52028842D01*
X136480500Y-51871158D01*
X136480500Y-51871155D01*
X136480499Y-51871153D01*
X136471221Y-51824509D01*
X136449737Y-51716503D01*
X136422196Y-51650012D01*
X136389397Y-51570827D01*
X136389389Y-51570812D01*
X136371067Y-51543392D01*
X136350188Y-51476715D01*
X136368672Y-51409334D01*
X136420650Y-51362644D01*
X136474168Y-51350500D01*
X161744071Y-51350500D01*
X161856120Y-51328211D01*
X161869744Y-51325501D01*
X161988127Y-51276465D01*
X162094669Y-51205277D01*
X162295627Y-51004319D01*
X162356950Y-50970834D01*
X162383308Y-50968000D01*
X167410382Y-50968000D01*
X167477421Y-50987685D01*
X167511099Y-51022091D01*
X167512085Y-51021375D01*
X167639890Y-51197286D01*
X167790213Y-51347609D01*
X167962182Y-51472550D01*
X167970946Y-51477016D01*
X168021742Y-51524991D01*
X168038536Y-51592812D01*
X168015998Y-51658947D01*
X167970946Y-51697984D01*
X167962182Y-51702449D01*
X167790213Y-51827390D01*
X167639890Y-51977713D01*
X167512085Y-52153625D01*
X167510740Y-52152648D01*
X167464295Y-52194666D01*
X167410382Y-52207000D01*
X165778431Y-52207000D01*
X165777843Y-52207117D01*
X165753649Y-52209500D01*
X151705929Y-52209500D01*
X151580261Y-52234497D01*
X151580255Y-52234499D01*
X151461874Y-52283534D01*
X151355326Y-52354726D01*
X147017068Y-56692984D01*
X146955745Y-56726469D01*
X146953579Y-56726920D01*
X146886508Y-56740261D01*
X146886498Y-56740264D01*
X146740827Y-56800602D01*
X146740814Y-56800609D01*
X146609711Y-56888210D01*
X146609707Y-56888213D01*
X146498213Y-56999707D01*
X146498210Y-56999711D01*
X146410609Y-57130814D01*
X146410602Y-57130827D01*
X146350264Y-57276498D01*
X146350261Y-57276510D01*
X146319500Y-57431153D01*
X146319500Y-57588846D01*
X146350261Y-57743489D01*
X146350264Y-57743501D01*
X146410602Y-57889172D01*
X146410609Y-57889185D01*
X146498210Y-58020288D01*
X146498213Y-58020292D01*
X146609707Y-58131786D01*
X146609711Y-58131789D01*
X146740814Y-58219390D01*
X146740827Y-58219397D01*
X146886498Y-58279735D01*
X146886503Y-58279737D01*
X147041153Y-58310499D01*
X147041156Y-58310500D01*
X147041158Y-58310500D01*
X147198844Y-58310500D01*
X147198845Y-58310499D01*
X147353497Y-58279737D01*
X147499179Y-58219394D01*
X147630289Y-58131789D01*
X147741789Y-58020289D01*
X147829394Y-57889179D01*
X147889737Y-57743497D01*
X147903079Y-57676416D01*
X147935463Y-57614509D01*
X147936959Y-57612985D01*
X152003127Y-53546819D01*
X152064450Y-53513334D01*
X152090808Y-53510500D01*
X165904069Y-53510500D01*
X165904657Y-53510382D01*
X165928851Y-53508000D01*
X167410382Y-53508000D01*
X167477421Y-53527685D01*
X167511099Y-53562091D01*
X167512085Y-53561375D01*
X167639890Y-53737286D01*
X167790213Y-53887609D01*
X167962179Y-54012548D01*
X167962181Y-54012549D01*
X167962184Y-54012551D01*
X168151588Y-54109057D01*
X168353757Y-54174746D01*
X168563713Y-54208000D01*
X168563714Y-54208000D01*
X168776286Y-54208000D01*
X168776287Y-54208000D01*
X168986243Y-54174746D01*
X169188412Y-54109057D01*
X169377816Y-54012551D01*
X169423022Y-53979707D01*
X169549786Y-53887609D01*
X169549788Y-53887606D01*
X169549792Y-53887604D01*
X169700104Y-53737292D01*
X169700106Y-53737288D01*
X169700109Y-53737286D01*
X169825048Y-53565320D01*
X169825047Y-53565320D01*
X169825051Y-53565316D01*
X169921557Y-53375912D01*
X169987246Y-53173743D01*
X170020500Y-52963787D01*
X170020500Y-52751213D01*
X169987246Y-52541257D01*
X169921557Y-52339088D01*
X169825051Y-52149684D01*
X169825049Y-52149681D01*
X169825048Y-52149679D01*
X169700109Y-51977713D01*
X169549786Y-51827390D01*
X169377820Y-51702451D01*
X169377115Y-51702091D01*
X169369054Y-51697985D01*
X169318259Y-51650012D01*
X169301463Y-51582192D01*
X169323999Y-51516056D01*
X169369054Y-51477015D01*
X169377816Y-51472551D01*
X169464580Y-51409514D01*
X169549786Y-51347609D01*
X169549788Y-51347606D01*
X169549792Y-51347604D01*
X169700104Y-51197292D01*
X169700106Y-51197288D01*
X169700109Y-51197286D01*
X169825048Y-51025320D01*
X169825047Y-51025320D01*
X169825051Y-51025316D01*
X169921557Y-50835912D01*
X169987246Y-50633743D01*
X170020500Y-50423787D01*
X170020500Y-50211213D01*
X169987246Y-50001257D01*
X169921557Y-49799088D01*
X169825051Y-49609684D01*
X169825049Y-49609681D01*
X169825048Y-49609679D01*
X169700109Y-49437713D01*
X169549786Y-49287390D01*
X169377820Y-49162451D01*
X169377115Y-49162091D01*
X169369054Y-49157985D01*
X169318259Y-49110012D01*
X169301463Y-49042192D01*
X169323999Y-48976056D01*
X169369054Y-48937015D01*
X169377816Y-48932551D01*
X169464580Y-48869514D01*
X169549786Y-48807609D01*
X169549788Y-48807606D01*
X169549792Y-48807604D01*
X169700104Y-48657292D01*
X169700106Y-48657288D01*
X169700109Y-48657286D01*
X169825048Y-48485320D01*
X169825047Y-48485320D01*
X169825051Y-48485316D01*
X169921557Y-48295912D01*
X169987246Y-48093743D01*
X170020500Y-47883787D01*
X170020500Y-47671213D01*
X169987246Y-47461257D01*
X169921557Y-47259088D01*
X169825051Y-47069684D01*
X169825049Y-47069681D01*
X169825048Y-47069679D01*
X169700109Y-46897713D01*
X169549786Y-46747390D01*
X169377820Y-46622451D01*
X169377115Y-46622091D01*
X169369054Y-46617985D01*
X169318259Y-46570012D01*
X169301463Y-46502192D01*
X169323999Y-46436056D01*
X169369054Y-46397015D01*
X169377816Y-46392551D01*
X169464580Y-46329514D01*
X169549786Y-46267609D01*
X169549788Y-46267606D01*
X169549792Y-46267604D01*
X169700104Y-46117292D01*
X169700106Y-46117288D01*
X169700109Y-46117286D01*
X169825048Y-45945320D01*
X169825047Y-45945320D01*
X169825051Y-45945316D01*
X169921557Y-45755912D01*
X169987246Y-45553743D01*
X170020500Y-45343787D01*
X170020500Y-45131213D01*
X169987246Y-44921257D01*
X169921557Y-44719088D01*
X169825051Y-44529684D01*
X169825049Y-44529681D01*
X169825048Y-44529679D01*
X169700109Y-44357713D01*
X169586569Y-44244173D01*
X169553084Y-44182850D01*
X169558068Y-44113158D01*
X169599940Y-44057225D01*
X169630915Y-44040310D01*
X169762331Y-43991296D01*
X169877546Y-43905046D01*
X169963796Y-43789831D01*
X170014091Y-43654983D01*
X170020500Y-43595373D01*
X170020499Y-41799628D01*
X170014091Y-41740017D01*
X170011151Y-41732135D01*
X169963797Y-41605171D01*
X169963793Y-41605164D01*
X169877547Y-41489955D01*
X169877544Y-41489952D01*
X169762335Y-41403706D01*
X169762328Y-41403702D01*
X169627482Y-41353408D01*
X169627483Y-41353408D01*
X169567883Y-41347001D01*
X169567881Y-41347000D01*
X169567873Y-41347000D01*
X169567864Y-41347000D01*
X167772129Y-41347000D01*
X167772123Y-41347001D01*
X167712516Y-41353408D01*
X167577671Y-41403702D01*
X167577664Y-41403706D01*
X167462455Y-41489952D01*
X167462452Y-41489955D01*
X167376206Y-41605164D01*
X167376202Y-41605171D01*
X167325908Y-41740017D01*
X167323065Y-41766465D01*
X167319501Y-41799623D01*
X167319500Y-41799635D01*
X167319500Y-41923000D01*
X167299815Y-41990039D01*
X167247011Y-42035794D01*
X167195500Y-42047000D01*
X166597045Y-42047000D01*
X166530006Y-42027315D01*
X166484251Y-41974511D01*
X166474307Y-41905353D01*
X166503332Y-41841797D01*
X166528153Y-41819899D01*
X166540286Y-41811791D01*
X166540285Y-41811791D01*
X166540289Y-41811789D01*
X166651789Y-41700289D01*
X166739394Y-41569179D01*
X166799737Y-41423497D01*
X166830500Y-41268842D01*
X166830500Y-41111158D01*
X166830500Y-41111155D01*
X166830499Y-41111153D01*
X166824422Y-41080602D01*
X166799737Y-40956503D01*
X166782409Y-40914669D01*
X166739397Y-40810827D01*
X166739390Y-40810814D01*
X166651789Y-40679711D01*
X166651786Y-40679707D01*
X166540292Y-40568213D01*
X166540288Y-40568210D01*
X166409185Y-40480609D01*
X166409172Y-40480602D01*
X166263501Y-40420264D01*
X166263489Y-40420261D01*
X166108845Y-40389500D01*
X166108842Y-40389500D01*
X165951158Y-40389500D01*
X165951155Y-40389500D01*
X165796510Y-40420261D01*
X165796498Y-40420264D01*
X165650827Y-40480602D01*
X165650820Y-40480606D01*
X165621928Y-40499911D01*
X165593955Y-40518602D01*
X165527279Y-40539480D01*
X165525065Y-40539500D01*
X159440808Y-40539500D01*
X159373769Y-40519815D01*
X159353127Y-40503181D01*
X159116819Y-40266873D01*
X159083334Y-40205550D01*
X159080500Y-40179192D01*
X159080500Y-39785928D01*
X159055502Y-39660261D01*
X159055501Y-39660260D01*
X159055501Y-39660256D01*
X159006465Y-39541873D01*
X159006464Y-39541872D01*
X159006461Y-39541866D01*
X158935276Y-39435331D01*
X158935273Y-39435327D01*
X158903256Y-39403310D01*
X158903254Y-39403307D01*
X158684669Y-39184723D01*
X158244674Y-38744727D01*
X158244673Y-38744726D01*
X158244669Y-38744723D01*
X158138127Y-38673535D01*
X158019744Y-38624499D01*
X158019738Y-38624497D01*
X157894071Y-38599500D01*
X157894069Y-38599500D01*
X136084935Y-38599500D01*
X136017896Y-38579815D01*
X136016090Y-38578633D01*
X135959179Y-38540606D01*
X135959172Y-38540602D01*
X135813501Y-38480264D01*
X135813489Y-38480261D01*
X135658845Y-38449500D01*
X135658842Y-38449500D01*
X135501158Y-38449500D01*
X135501155Y-38449500D01*
X135346510Y-38480261D01*
X135346498Y-38480264D01*
X135200827Y-38540602D01*
X135200814Y-38540609D01*
X135069711Y-38628210D01*
X135069707Y-38628213D01*
X135052181Y-38645740D01*
X134990858Y-38679225D01*
X134921166Y-38674241D01*
X134865233Y-38632369D01*
X134840816Y-38566905D01*
X134840500Y-38558059D01*
X134840500Y-37730808D01*
X134860185Y-37663769D01*
X134876819Y-37643127D01*
X135453127Y-37066819D01*
X135514450Y-37033334D01*
X135540808Y-37030500D01*
X157302548Y-37030500D01*
X157369587Y-37050185D01*
X157371392Y-37051367D01*
X157420821Y-37084394D01*
X157420823Y-37084395D01*
X157420827Y-37084397D01*
X157566498Y-37144735D01*
X157566503Y-37144737D01*
X157721153Y-37175499D01*
X157721156Y-37175500D01*
X157721158Y-37175500D01*
X157878844Y-37175500D01*
X157878845Y-37175499D01*
X158033497Y-37144737D01*
X158179179Y-37084394D01*
X158310289Y-36996789D01*
X158421789Y-36885289D01*
X158509394Y-36754179D01*
X158569737Y-36608497D01*
X158600500Y-36453842D01*
X158600500Y-36296158D01*
X158600500Y-36296155D01*
X158600499Y-36296153D01*
X158574717Y-36166541D01*
X158569737Y-36141503D01*
X158544899Y-36081538D01*
X158509397Y-35995827D01*
X158509390Y-35995814D01*
X158421789Y-35864711D01*
X158421786Y-35864707D01*
X158310291Y-35753212D01*
X158310288Y-35753210D01*
X158179185Y-35665609D01*
X158179172Y-35665602D01*
X158033501Y-35605264D01*
X158033489Y-35605261D01*
X157878845Y-35574500D01*
X157878842Y-35574500D01*
X157721158Y-35574500D01*
X157721155Y-35574500D01*
X157566510Y-35605261D01*
X157566498Y-35605264D01*
X157420827Y-35665602D01*
X157420815Y-35665609D01*
X157356473Y-35708602D01*
X157289796Y-35729480D01*
X157287582Y-35729500D01*
X135155929Y-35729500D01*
X135036736Y-35753210D01*
X135036731Y-35753211D01*
X135030256Y-35754499D01*
X135030255Y-35754499D01*
X134911874Y-35803534D01*
X134805326Y-35874726D01*
X133684724Y-36995328D01*
X133628483Y-37079501D01*
X133613535Y-37101872D01*
X133564499Y-37220255D01*
X133564497Y-37220261D01*
X133539500Y-37345928D01*
X133539500Y-40015064D01*
X133519815Y-40082103D01*
X133518603Y-40083954D01*
X133480608Y-40140817D01*
X133480602Y-40140828D01*
X133420264Y-40286498D01*
X133420261Y-40286510D01*
X133389500Y-40441153D01*
X133389500Y-40598846D01*
X133420261Y-40753489D01*
X133420264Y-40753501D01*
X133480602Y-40899172D01*
X133480609Y-40899185D01*
X133568210Y-41030288D01*
X133568213Y-41030292D01*
X133628761Y-41090840D01*
X133662246Y-41152163D01*
X133657262Y-41221855D01*
X133615390Y-41277788D01*
X133609971Y-41281623D01*
X133605328Y-41284724D01*
X133605325Y-41284727D01*
X132946873Y-41943181D01*
X132885550Y-41976666D01*
X132859192Y-41979500D01*
X114394499Y-41979500D01*
X114327460Y-41959815D01*
X114281705Y-41907011D01*
X114270499Y-41855500D01*
X114270499Y-41732129D01*
X114270498Y-41732123D01*
X114270497Y-41732116D01*
X114264091Y-41672517D01*
X114225548Y-41569179D01*
X114213797Y-41537671D01*
X114213793Y-41537664D01*
X114127547Y-41422455D01*
X114127544Y-41422452D01*
X114012335Y-41336206D01*
X114012328Y-41336202D01*
X113877482Y-41285908D01*
X113877483Y-41285908D01*
X113817883Y-41279501D01*
X113817881Y-41279500D01*
X113817873Y-41279500D01*
X113817864Y-41279500D01*
X112022129Y-41279500D01*
X112022123Y-41279501D01*
X111962516Y-41285908D01*
X111827671Y-41336202D01*
X111827664Y-41336206D01*
X111712455Y-41422452D01*
X111712452Y-41422455D01*
X111626206Y-41537664D01*
X111626202Y-41537671D01*
X111575908Y-41672517D01*
X111571754Y-41711158D01*
X111569501Y-41732123D01*
X111569500Y-41732135D01*
X110190500Y-41732135D01*
X110190500Y-37583750D01*
X110190726Y-37576263D01*
X110204658Y-37345931D01*
X110208271Y-37286201D01*
X110210076Y-37271340D01*
X110227640Y-37175500D01*
X110261780Y-36989198D01*
X110265364Y-36974664D01*
X110350699Y-36700812D01*
X110355997Y-36686842D01*
X110473727Y-36425258D01*
X110480680Y-36412012D01*
X110550716Y-36296158D01*
X110629075Y-36166534D01*
X110637567Y-36154230D01*
X110814481Y-35928417D01*
X110824396Y-35917226D01*
X111027226Y-35714396D01*
X111038417Y-35704481D01*
X111264230Y-35527567D01*
X111276534Y-35519075D01*
X111522012Y-35370680D01*
X111535258Y-35363727D01*
X111796842Y-35245997D01*
X111810812Y-35240699D01*
X112084668Y-35155362D01*
X112099198Y-35151780D01*
X112381344Y-35100075D01*
X112396201Y-35098271D01*
X112686264Y-35080726D01*
X112693751Y-35080500D01*
X112755892Y-35080500D01*
X168534108Y-35080500D01*
X168596249Y-35080500D01*
X168603736Y-35080726D01*
G37*
%TD.AperFunction*%
%TD*%
M02*
