%TF.GenerationSoftware,KiCad,Pcbnew,10.0.0*%
%TF.CreationDate,2026-04-05T16:29:11-05:00*%
%TF.ProjectId,MotorDriverV2,4d6f746f-7244-4726-9976-657256322e6b,rev?*%
%TF.SameCoordinates,Original*%
%TF.FileFunction,Legend,Top*%
%TF.FilePolarity,Positive*%
%FSLAX46Y46*%
G04 Gerber Fmt 4.6, Leading zero omitted, Abs format (unit mm)*
G04 Created by KiCad (PCBNEW 10.0.0) date 2026-04-05 16:29:11*
%MOMM*%
%LPD*%
G01*
G04 APERTURE LIST*
%ADD10C,0.200000*%
%ADD11C,0.150000*%
%ADD12C,0.125000*%
%ADD13C,0.254000*%
%ADD14C,0.062500*%
%ADD15C,0.087500*%
%ADD16C,0.120000*%
%ADD17C,0.100000*%
%ADD18C,0.000000*%
G04 APERTURE END LIST*
D10*
X158024762Y-79017331D02*
X158596190Y-79017331D01*
X158310476Y-80017331D02*
X158310476Y-79017331D01*
X158929524Y-79493521D02*
X159262857Y-79493521D01*
X159405714Y-80017331D02*
X158929524Y-80017331D01*
X158929524Y-80017331D02*
X158929524Y-79017331D01*
X158929524Y-79017331D02*
X159405714Y-79017331D01*
X159786667Y-79731616D02*
X160262857Y-79731616D01*
X159691429Y-80017331D02*
X160024762Y-79017331D01*
X160024762Y-79017331D02*
X160358095Y-80017331D01*
X160691429Y-80017331D02*
X160691429Y-79017331D01*
X160691429Y-79017331D02*
X161024762Y-79731616D01*
X161024762Y-79731616D02*
X161358095Y-79017331D01*
X161358095Y-79017331D02*
X161358095Y-80017331D01*
X163024762Y-79350664D02*
X163024762Y-80017331D01*
X162786667Y-78969712D02*
X162548572Y-79683997D01*
X162548572Y-79683997D02*
X163167619Y-79683997D01*
X154739048Y-81579656D02*
X154881905Y-81627275D01*
X154881905Y-81627275D02*
X155120000Y-81627275D01*
X155120000Y-81627275D02*
X155215238Y-81579656D01*
X155215238Y-81579656D02*
X155262857Y-81532036D01*
X155262857Y-81532036D02*
X155310476Y-81436798D01*
X155310476Y-81436798D02*
X155310476Y-81341560D01*
X155310476Y-81341560D02*
X155262857Y-81246322D01*
X155262857Y-81246322D02*
X155215238Y-81198703D01*
X155215238Y-81198703D02*
X155120000Y-81151084D01*
X155120000Y-81151084D02*
X154929524Y-81103465D01*
X154929524Y-81103465D02*
X154834286Y-81055846D01*
X154834286Y-81055846D02*
X154786667Y-81008227D01*
X154786667Y-81008227D02*
X154739048Y-80912989D01*
X154739048Y-80912989D02*
X154739048Y-80817751D01*
X154739048Y-80817751D02*
X154786667Y-80722513D01*
X154786667Y-80722513D02*
X154834286Y-80674894D01*
X154834286Y-80674894D02*
X154929524Y-80627275D01*
X154929524Y-80627275D02*
X155167619Y-80627275D01*
X155167619Y-80627275D02*
X155310476Y-80674894D01*
X156120000Y-81579656D02*
X156024762Y-81627275D01*
X156024762Y-81627275D02*
X155834286Y-81627275D01*
X155834286Y-81627275D02*
X155739048Y-81579656D01*
X155739048Y-81579656D02*
X155691429Y-81484417D01*
X155691429Y-81484417D02*
X155691429Y-81103465D01*
X155691429Y-81103465D02*
X155739048Y-81008227D01*
X155739048Y-81008227D02*
X155834286Y-80960608D01*
X155834286Y-80960608D02*
X156024762Y-80960608D01*
X156024762Y-80960608D02*
X156120000Y-81008227D01*
X156120000Y-81008227D02*
X156167619Y-81103465D01*
X156167619Y-81103465D02*
X156167619Y-81198703D01*
X156167619Y-81198703D02*
X155691429Y-81293941D01*
X156596191Y-80960608D02*
X156596191Y-81627275D01*
X156596191Y-81055846D02*
X156643810Y-81008227D01*
X156643810Y-81008227D02*
X156739048Y-80960608D01*
X156739048Y-80960608D02*
X156881905Y-80960608D01*
X156881905Y-80960608D02*
X156977143Y-81008227D01*
X156977143Y-81008227D02*
X157024762Y-81103465D01*
X157024762Y-81103465D02*
X157024762Y-81627275D01*
X157500953Y-81627275D02*
X157500953Y-80960608D01*
X157500953Y-80627275D02*
X157453334Y-80674894D01*
X157453334Y-80674894D02*
X157500953Y-80722513D01*
X157500953Y-80722513D02*
X157548572Y-80674894D01*
X157548572Y-80674894D02*
X157500953Y-80627275D01*
X157500953Y-80627275D02*
X157500953Y-80722513D01*
X158120000Y-81627275D02*
X158024762Y-81579656D01*
X158024762Y-81579656D02*
X157977143Y-81532036D01*
X157977143Y-81532036D02*
X157929524Y-81436798D01*
X157929524Y-81436798D02*
X157929524Y-81151084D01*
X157929524Y-81151084D02*
X157977143Y-81055846D01*
X157977143Y-81055846D02*
X158024762Y-81008227D01*
X158024762Y-81008227D02*
X158120000Y-80960608D01*
X158120000Y-80960608D02*
X158262857Y-80960608D01*
X158262857Y-80960608D02*
X158358095Y-81008227D01*
X158358095Y-81008227D02*
X158405714Y-81055846D01*
X158405714Y-81055846D02*
X158453333Y-81151084D01*
X158453333Y-81151084D02*
X158453333Y-81436798D01*
X158453333Y-81436798D02*
X158405714Y-81532036D01*
X158405714Y-81532036D02*
X158358095Y-81579656D01*
X158358095Y-81579656D02*
X158262857Y-81627275D01*
X158262857Y-81627275D02*
X158120000Y-81627275D01*
X158881905Y-81627275D02*
X158881905Y-80960608D01*
X158881905Y-81151084D02*
X158929524Y-81055846D01*
X158929524Y-81055846D02*
X158977143Y-81008227D01*
X158977143Y-81008227D02*
X159072381Y-80960608D01*
X159072381Y-80960608D02*
X159167619Y-80960608D01*
X160262858Y-81627275D02*
X160262858Y-80627275D01*
X160262858Y-80627275D02*
X160500953Y-80627275D01*
X160500953Y-80627275D02*
X160643810Y-80674894D01*
X160643810Y-80674894D02*
X160739048Y-80770132D01*
X160739048Y-80770132D02*
X160786667Y-80865370D01*
X160786667Y-80865370D02*
X160834286Y-81055846D01*
X160834286Y-81055846D02*
X160834286Y-81198703D01*
X160834286Y-81198703D02*
X160786667Y-81389179D01*
X160786667Y-81389179D02*
X160739048Y-81484417D01*
X160739048Y-81484417D02*
X160643810Y-81579656D01*
X160643810Y-81579656D02*
X160500953Y-81627275D01*
X160500953Y-81627275D02*
X160262858Y-81627275D01*
X161643810Y-81579656D02*
X161548572Y-81627275D01*
X161548572Y-81627275D02*
X161358096Y-81627275D01*
X161358096Y-81627275D02*
X161262858Y-81579656D01*
X161262858Y-81579656D02*
X161215239Y-81484417D01*
X161215239Y-81484417D02*
X161215239Y-81103465D01*
X161215239Y-81103465D02*
X161262858Y-81008227D01*
X161262858Y-81008227D02*
X161358096Y-80960608D01*
X161358096Y-80960608D02*
X161548572Y-80960608D01*
X161548572Y-80960608D02*
X161643810Y-81008227D01*
X161643810Y-81008227D02*
X161691429Y-81103465D01*
X161691429Y-81103465D02*
X161691429Y-81198703D01*
X161691429Y-81198703D02*
X161215239Y-81293941D01*
X162072382Y-81579656D02*
X162167620Y-81627275D01*
X162167620Y-81627275D02*
X162358096Y-81627275D01*
X162358096Y-81627275D02*
X162453334Y-81579656D01*
X162453334Y-81579656D02*
X162500953Y-81484417D01*
X162500953Y-81484417D02*
X162500953Y-81436798D01*
X162500953Y-81436798D02*
X162453334Y-81341560D01*
X162453334Y-81341560D02*
X162358096Y-81293941D01*
X162358096Y-81293941D02*
X162215239Y-81293941D01*
X162215239Y-81293941D02*
X162120001Y-81246322D01*
X162120001Y-81246322D02*
X162072382Y-81151084D01*
X162072382Y-81151084D02*
X162072382Y-81103465D01*
X162072382Y-81103465D02*
X162120001Y-81008227D01*
X162120001Y-81008227D02*
X162215239Y-80960608D01*
X162215239Y-80960608D02*
X162358096Y-80960608D01*
X162358096Y-80960608D02*
X162453334Y-81008227D01*
X162929525Y-81627275D02*
X162929525Y-80960608D01*
X162929525Y-80627275D02*
X162881906Y-80674894D01*
X162881906Y-80674894D02*
X162929525Y-80722513D01*
X162929525Y-80722513D02*
X162977144Y-80674894D01*
X162977144Y-80674894D02*
X162929525Y-80627275D01*
X162929525Y-80627275D02*
X162929525Y-80722513D01*
X163834286Y-80960608D02*
X163834286Y-81770132D01*
X163834286Y-81770132D02*
X163786667Y-81865370D01*
X163786667Y-81865370D02*
X163739048Y-81912989D01*
X163739048Y-81912989D02*
X163643810Y-81960608D01*
X163643810Y-81960608D02*
X163500953Y-81960608D01*
X163500953Y-81960608D02*
X163405715Y-81912989D01*
X163834286Y-81579656D02*
X163739048Y-81627275D01*
X163739048Y-81627275D02*
X163548572Y-81627275D01*
X163548572Y-81627275D02*
X163453334Y-81579656D01*
X163453334Y-81579656D02*
X163405715Y-81532036D01*
X163405715Y-81532036D02*
X163358096Y-81436798D01*
X163358096Y-81436798D02*
X163358096Y-81151084D01*
X163358096Y-81151084D02*
X163405715Y-81055846D01*
X163405715Y-81055846D02*
X163453334Y-81008227D01*
X163453334Y-81008227D02*
X163548572Y-80960608D01*
X163548572Y-80960608D02*
X163739048Y-80960608D01*
X163739048Y-80960608D02*
X163834286Y-81008227D01*
X164310477Y-80960608D02*
X164310477Y-81627275D01*
X164310477Y-81055846D02*
X164358096Y-81008227D01*
X164358096Y-81008227D02*
X164453334Y-80960608D01*
X164453334Y-80960608D02*
X164596191Y-80960608D01*
X164596191Y-80960608D02*
X164691429Y-81008227D01*
X164691429Y-81008227D02*
X164739048Y-81103465D01*
X164739048Y-81103465D02*
X164739048Y-81627275D01*
X165977144Y-81627275D02*
X165977144Y-80627275D01*
X166453334Y-81627275D02*
X166453334Y-80627275D01*
X156143809Y-83189600D02*
X156286666Y-83237219D01*
X156286666Y-83237219D02*
X156524761Y-83237219D01*
X156524761Y-83237219D02*
X156619999Y-83189600D01*
X156619999Y-83189600D02*
X156667618Y-83141980D01*
X156667618Y-83141980D02*
X156715237Y-83046742D01*
X156715237Y-83046742D02*
X156715237Y-82951504D01*
X156715237Y-82951504D02*
X156667618Y-82856266D01*
X156667618Y-82856266D02*
X156619999Y-82808647D01*
X156619999Y-82808647D02*
X156524761Y-82761028D01*
X156524761Y-82761028D02*
X156334285Y-82713409D01*
X156334285Y-82713409D02*
X156239047Y-82665790D01*
X156239047Y-82665790D02*
X156191428Y-82618171D01*
X156191428Y-82618171D02*
X156143809Y-82522933D01*
X156143809Y-82522933D02*
X156143809Y-82427695D01*
X156143809Y-82427695D02*
X156191428Y-82332457D01*
X156191428Y-82332457D02*
X156239047Y-82284838D01*
X156239047Y-82284838D02*
X156334285Y-82237219D01*
X156334285Y-82237219D02*
X156572380Y-82237219D01*
X156572380Y-82237219D02*
X156715237Y-82284838D01*
X157143809Y-82570552D02*
X157143809Y-83570552D01*
X157143809Y-82618171D02*
X157239047Y-82570552D01*
X157239047Y-82570552D02*
X157429523Y-82570552D01*
X157429523Y-82570552D02*
X157524761Y-82618171D01*
X157524761Y-82618171D02*
X157572380Y-82665790D01*
X157572380Y-82665790D02*
X157619999Y-82761028D01*
X157619999Y-82761028D02*
X157619999Y-83046742D01*
X157619999Y-83046742D02*
X157572380Y-83141980D01*
X157572380Y-83141980D02*
X157524761Y-83189600D01*
X157524761Y-83189600D02*
X157429523Y-83237219D01*
X157429523Y-83237219D02*
X157239047Y-83237219D01*
X157239047Y-83237219D02*
X157143809Y-83189600D01*
X158048571Y-83237219D02*
X158048571Y-82570552D01*
X158048571Y-82761028D02*
X158096190Y-82665790D01*
X158096190Y-82665790D02*
X158143809Y-82618171D01*
X158143809Y-82618171D02*
X158239047Y-82570552D01*
X158239047Y-82570552D02*
X158334285Y-82570552D01*
X158667619Y-83237219D02*
X158667619Y-82570552D01*
X158667619Y-82237219D02*
X158620000Y-82284838D01*
X158620000Y-82284838D02*
X158667619Y-82332457D01*
X158667619Y-82332457D02*
X158715238Y-82284838D01*
X158715238Y-82284838D02*
X158667619Y-82237219D01*
X158667619Y-82237219D02*
X158667619Y-82332457D01*
X159143809Y-82570552D02*
X159143809Y-83237219D01*
X159143809Y-82665790D02*
X159191428Y-82618171D01*
X159191428Y-82618171D02*
X159286666Y-82570552D01*
X159286666Y-82570552D02*
X159429523Y-82570552D01*
X159429523Y-82570552D02*
X159524761Y-82618171D01*
X159524761Y-82618171D02*
X159572380Y-82713409D01*
X159572380Y-82713409D02*
X159572380Y-83237219D01*
X160477142Y-82570552D02*
X160477142Y-83380076D01*
X160477142Y-83380076D02*
X160429523Y-83475314D01*
X160429523Y-83475314D02*
X160381904Y-83522933D01*
X160381904Y-83522933D02*
X160286666Y-83570552D01*
X160286666Y-83570552D02*
X160143809Y-83570552D01*
X160143809Y-83570552D02*
X160048571Y-83522933D01*
X160477142Y-83189600D02*
X160381904Y-83237219D01*
X160381904Y-83237219D02*
X160191428Y-83237219D01*
X160191428Y-83237219D02*
X160096190Y-83189600D01*
X160096190Y-83189600D02*
X160048571Y-83141980D01*
X160048571Y-83141980D02*
X160000952Y-83046742D01*
X160000952Y-83046742D02*
X160000952Y-82761028D01*
X160000952Y-82761028D02*
X160048571Y-82665790D01*
X160048571Y-82665790D02*
X160096190Y-82618171D01*
X160096190Y-82618171D02*
X160191428Y-82570552D01*
X160191428Y-82570552D02*
X160381904Y-82570552D01*
X160381904Y-82570552D02*
X160477142Y-82618171D01*
X161667619Y-82332457D02*
X161715238Y-82284838D01*
X161715238Y-82284838D02*
X161810476Y-82237219D01*
X161810476Y-82237219D02*
X162048571Y-82237219D01*
X162048571Y-82237219D02*
X162143809Y-82284838D01*
X162143809Y-82284838D02*
X162191428Y-82332457D01*
X162191428Y-82332457D02*
X162239047Y-82427695D01*
X162239047Y-82427695D02*
X162239047Y-82522933D01*
X162239047Y-82522933D02*
X162191428Y-82665790D01*
X162191428Y-82665790D02*
X161620000Y-83237219D01*
X161620000Y-83237219D02*
X162239047Y-83237219D01*
X162858095Y-82237219D02*
X162953333Y-82237219D01*
X162953333Y-82237219D02*
X163048571Y-82284838D01*
X163048571Y-82284838D02*
X163096190Y-82332457D01*
X163096190Y-82332457D02*
X163143809Y-82427695D01*
X163143809Y-82427695D02*
X163191428Y-82618171D01*
X163191428Y-82618171D02*
X163191428Y-82856266D01*
X163191428Y-82856266D02*
X163143809Y-83046742D01*
X163143809Y-83046742D02*
X163096190Y-83141980D01*
X163096190Y-83141980D02*
X163048571Y-83189600D01*
X163048571Y-83189600D02*
X162953333Y-83237219D01*
X162953333Y-83237219D02*
X162858095Y-83237219D01*
X162858095Y-83237219D02*
X162762857Y-83189600D01*
X162762857Y-83189600D02*
X162715238Y-83141980D01*
X162715238Y-83141980D02*
X162667619Y-83046742D01*
X162667619Y-83046742D02*
X162620000Y-82856266D01*
X162620000Y-82856266D02*
X162620000Y-82618171D01*
X162620000Y-82618171D02*
X162667619Y-82427695D01*
X162667619Y-82427695D02*
X162715238Y-82332457D01*
X162715238Y-82332457D02*
X162762857Y-82284838D01*
X162762857Y-82284838D02*
X162858095Y-82237219D01*
X163572381Y-82332457D02*
X163620000Y-82284838D01*
X163620000Y-82284838D02*
X163715238Y-82237219D01*
X163715238Y-82237219D02*
X163953333Y-82237219D01*
X163953333Y-82237219D02*
X164048571Y-82284838D01*
X164048571Y-82284838D02*
X164096190Y-82332457D01*
X164096190Y-82332457D02*
X164143809Y-82427695D01*
X164143809Y-82427695D02*
X164143809Y-82522933D01*
X164143809Y-82522933D02*
X164096190Y-82665790D01*
X164096190Y-82665790D02*
X163524762Y-83237219D01*
X163524762Y-83237219D02*
X164143809Y-83237219D01*
X165000952Y-82237219D02*
X164810476Y-82237219D01*
X164810476Y-82237219D02*
X164715238Y-82284838D01*
X164715238Y-82284838D02*
X164667619Y-82332457D01*
X164667619Y-82332457D02*
X164572381Y-82475314D01*
X164572381Y-82475314D02*
X164524762Y-82665790D01*
X164524762Y-82665790D02*
X164524762Y-83046742D01*
X164524762Y-83046742D02*
X164572381Y-83141980D01*
X164572381Y-83141980D02*
X164620000Y-83189600D01*
X164620000Y-83189600D02*
X164715238Y-83237219D01*
X164715238Y-83237219D02*
X164905714Y-83237219D01*
X164905714Y-83237219D02*
X165000952Y-83189600D01*
X165000952Y-83189600D02*
X165048571Y-83141980D01*
X165048571Y-83141980D02*
X165096190Y-83046742D01*
X165096190Y-83046742D02*
X165096190Y-82808647D01*
X165096190Y-82808647D02*
X165048571Y-82713409D01*
X165048571Y-82713409D02*
X165000952Y-82665790D01*
X165000952Y-82665790D02*
X164905714Y-82618171D01*
X164905714Y-82618171D02*
X164715238Y-82618171D01*
X164715238Y-82618171D02*
X164620000Y-82665790D01*
X164620000Y-82665790D02*
X164572381Y-82713409D01*
X164572381Y-82713409D02*
X164524762Y-82808647D01*
D11*
X123947142Y-51984819D02*
X123470952Y-51984819D01*
X123470952Y-51984819D02*
X123423333Y-52461009D01*
X123423333Y-52461009D02*
X123470952Y-52413390D01*
X123470952Y-52413390D02*
X123566190Y-52365771D01*
X123566190Y-52365771D02*
X123804285Y-52365771D01*
X123804285Y-52365771D02*
X123899523Y-52413390D01*
X123899523Y-52413390D02*
X123947142Y-52461009D01*
X123947142Y-52461009D02*
X123994761Y-52556247D01*
X123994761Y-52556247D02*
X123994761Y-52794342D01*
X123994761Y-52794342D02*
X123947142Y-52889580D01*
X123947142Y-52889580D02*
X123899523Y-52937200D01*
X123899523Y-52937200D02*
X123804285Y-52984819D01*
X123804285Y-52984819D02*
X123566190Y-52984819D01*
X123566190Y-52984819D02*
X123470952Y-52937200D01*
X123470952Y-52937200D02*
X123423333Y-52889580D01*
X124423333Y-52984819D02*
X124423333Y-51984819D01*
X124518571Y-52603866D02*
X124804285Y-52984819D01*
X124804285Y-52318152D02*
X124423333Y-52699104D01*
X125756666Y-52984819D02*
X125185238Y-52984819D01*
X125470952Y-52984819D02*
X125470952Y-51984819D01*
X125470952Y-51984819D02*
X125375714Y-52127676D01*
X125375714Y-52127676D02*
X125280476Y-52222914D01*
X125280476Y-52222914D02*
X125185238Y-52270533D01*
X150927142Y-72054819D02*
X150450952Y-72054819D01*
X150450952Y-72054819D02*
X150403333Y-72531009D01*
X150403333Y-72531009D02*
X150450952Y-72483390D01*
X150450952Y-72483390D02*
X150546190Y-72435771D01*
X150546190Y-72435771D02*
X150784285Y-72435771D01*
X150784285Y-72435771D02*
X150879523Y-72483390D01*
X150879523Y-72483390D02*
X150927142Y-72531009D01*
X150927142Y-72531009D02*
X150974761Y-72626247D01*
X150974761Y-72626247D02*
X150974761Y-72864342D01*
X150974761Y-72864342D02*
X150927142Y-72959580D01*
X150927142Y-72959580D02*
X150879523Y-73007200D01*
X150879523Y-73007200D02*
X150784285Y-73054819D01*
X150784285Y-73054819D02*
X150546190Y-73054819D01*
X150546190Y-73054819D02*
X150450952Y-73007200D01*
X150450952Y-73007200D02*
X150403333Y-72959580D01*
X151403333Y-73054819D02*
X151403333Y-72054819D01*
X151498571Y-72673866D02*
X151784285Y-73054819D01*
X151784285Y-72388152D02*
X151403333Y-72769104D01*
X152736666Y-73054819D02*
X152165238Y-73054819D01*
X152450952Y-73054819D02*
X152450952Y-72054819D01*
X152450952Y-72054819D02*
X152355714Y-72197676D01*
X152355714Y-72197676D02*
X152260476Y-72292914D01*
X152260476Y-72292914D02*
X152165238Y-72340533D01*
X133334819Y-45170356D02*
X133334819Y-45075118D01*
X133334819Y-45075118D02*
X133382438Y-44979880D01*
X133382438Y-44979880D02*
X133430057Y-44932261D01*
X133430057Y-44932261D02*
X133525295Y-44884642D01*
X133525295Y-44884642D02*
X133715771Y-44837023D01*
X133715771Y-44837023D02*
X133953866Y-44837023D01*
X133953866Y-44837023D02*
X134144342Y-44884642D01*
X134144342Y-44884642D02*
X134239580Y-44932261D01*
X134239580Y-44932261D02*
X134287200Y-44979880D01*
X134287200Y-44979880D02*
X134334819Y-45075118D01*
X134334819Y-45075118D02*
X134334819Y-45170356D01*
X134334819Y-45170356D02*
X134287200Y-45265594D01*
X134287200Y-45265594D02*
X134239580Y-45313213D01*
X134239580Y-45313213D02*
X134144342Y-45360832D01*
X134144342Y-45360832D02*
X133953866Y-45408451D01*
X133953866Y-45408451D02*
X133715771Y-45408451D01*
X133715771Y-45408451D02*
X133525295Y-45360832D01*
X133525295Y-45360832D02*
X133430057Y-45313213D01*
X133430057Y-45313213D02*
X133382438Y-45265594D01*
X133382438Y-45265594D02*
X133334819Y-45170356D01*
X134239580Y-44408451D02*
X134287200Y-44360832D01*
X134287200Y-44360832D02*
X134334819Y-44408451D01*
X134334819Y-44408451D02*
X134287200Y-44456070D01*
X134287200Y-44456070D02*
X134239580Y-44408451D01*
X134239580Y-44408451D02*
X134334819Y-44408451D01*
X134334819Y-43408452D02*
X134334819Y-43979880D01*
X134334819Y-43694166D02*
X133334819Y-43694166D01*
X133334819Y-43694166D02*
X133477676Y-43789404D01*
X133477676Y-43789404D02*
X133572914Y-43884642D01*
X133572914Y-43884642D02*
X133620533Y-43979880D01*
X133668152Y-42551309D02*
X134334819Y-42551309D01*
X133668152Y-42979880D02*
X134191961Y-42979880D01*
X134191961Y-42979880D02*
X134287200Y-42932261D01*
X134287200Y-42932261D02*
X134334819Y-42837023D01*
X134334819Y-42837023D02*
X134334819Y-42694166D01*
X134334819Y-42694166D02*
X134287200Y-42598928D01*
X134287200Y-42598928D02*
X134239580Y-42551309D01*
X133811009Y-41741785D02*
X133811009Y-42075118D01*
X134334819Y-42075118D02*
X133334819Y-42075118D01*
X133334819Y-42075118D02*
X133334819Y-41598928D01*
D12*
X136453333Y-67719452D02*
X136453333Y-68386119D01*
X136215238Y-67338500D02*
X135977143Y-68052785D01*
X135977143Y-68052785D02*
X136596190Y-68052785D01*
X136881905Y-67386119D02*
X137548571Y-67386119D01*
X137548571Y-67386119D02*
X137120000Y-68386119D01*
X138358095Y-67719452D02*
X138358095Y-68386119D01*
X137929524Y-67719452D02*
X137929524Y-68243261D01*
X137929524Y-68243261D02*
X137977143Y-68338500D01*
X137977143Y-68338500D02*
X138072381Y-68386119D01*
X138072381Y-68386119D02*
X138215238Y-68386119D01*
X138215238Y-68386119D02*
X138310476Y-68338500D01*
X138310476Y-68338500D02*
X138358095Y-68290880D01*
X139167619Y-67862309D02*
X138834286Y-67862309D01*
X138834286Y-68386119D02*
X138834286Y-67386119D01*
X138834286Y-67386119D02*
X139310476Y-67386119D01*
D13*
X145090237Y-51564318D02*
X145090237Y-50294318D01*
X146420714Y-51443365D02*
X146360238Y-51503842D01*
X146360238Y-51503842D02*
X146178809Y-51564318D01*
X146178809Y-51564318D02*
X146057857Y-51564318D01*
X146057857Y-51564318D02*
X145876428Y-51503842D01*
X145876428Y-51503842D02*
X145755476Y-51382889D01*
X145755476Y-51382889D02*
X145694999Y-51261937D01*
X145694999Y-51261937D02*
X145634523Y-51020032D01*
X145634523Y-51020032D02*
X145634523Y-50838603D01*
X145634523Y-50838603D02*
X145694999Y-50596699D01*
X145694999Y-50596699D02*
X145755476Y-50475746D01*
X145755476Y-50475746D02*
X145876428Y-50354794D01*
X145876428Y-50354794D02*
X146057857Y-50294318D01*
X146057857Y-50294318D02*
X146178809Y-50294318D01*
X146178809Y-50294318D02*
X146360238Y-50354794D01*
X146360238Y-50354794D02*
X146420714Y-50415270D01*
X146844047Y-50294318D02*
X147630238Y-50294318D01*
X147630238Y-50294318D02*
X147206904Y-50778127D01*
X147206904Y-50778127D02*
X147388333Y-50778127D01*
X147388333Y-50778127D02*
X147509285Y-50838603D01*
X147509285Y-50838603D02*
X147569761Y-50899080D01*
X147569761Y-50899080D02*
X147630238Y-51020032D01*
X147630238Y-51020032D02*
X147630238Y-51322413D01*
X147630238Y-51322413D02*
X147569761Y-51443365D01*
X147569761Y-51443365D02*
X147509285Y-51503842D01*
X147509285Y-51503842D02*
X147388333Y-51564318D01*
X147388333Y-51564318D02*
X147025476Y-51564318D01*
X147025476Y-51564318D02*
X146904523Y-51503842D01*
X146904523Y-51503842D02*
X146844047Y-51443365D01*
D11*
X120294819Y-38911428D02*
X120294819Y-39482856D01*
X120294819Y-39197142D02*
X119294819Y-39197142D01*
X119294819Y-39197142D02*
X119437676Y-39292380D01*
X119437676Y-39292380D02*
X119532914Y-39387618D01*
X119532914Y-39387618D02*
X119580533Y-39482856D01*
X119294819Y-38292380D02*
X119294819Y-38197142D01*
X119294819Y-38197142D02*
X119342438Y-38101904D01*
X119342438Y-38101904D02*
X119390057Y-38054285D01*
X119390057Y-38054285D02*
X119485295Y-38006666D01*
X119485295Y-38006666D02*
X119675771Y-37959047D01*
X119675771Y-37959047D02*
X119913866Y-37959047D01*
X119913866Y-37959047D02*
X120104342Y-38006666D01*
X120104342Y-38006666D02*
X120199580Y-38054285D01*
X120199580Y-38054285D02*
X120247200Y-38101904D01*
X120247200Y-38101904D02*
X120294819Y-38197142D01*
X120294819Y-38197142D02*
X120294819Y-38292380D01*
X120294819Y-38292380D02*
X120247200Y-38387618D01*
X120247200Y-38387618D02*
X120199580Y-38435237D01*
X120199580Y-38435237D02*
X120104342Y-38482856D01*
X120104342Y-38482856D02*
X119913866Y-38530475D01*
X119913866Y-38530475D02*
X119675771Y-38530475D01*
X119675771Y-38530475D02*
X119485295Y-38482856D01*
X119485295Y-38482856D02*
X119390057Y-38435237D01*
X119390057Y-38435237D02*
X119342438Y-38387618D01*
X119342438Y-38387618D02*
X119294819Y-38292380D01*
X119628152Y-37101904D02*
X120294819Y-37101904D01*
X119628152Y-37530475D02*
X120151961Y-37530475D01*
X120151961Y-37530475D02*
X120247200Y-37482856D01*
X120247200Y-37482856D02*
X120294819Y-37387618D01*
X120294819Y-37387618D02*
X120294819Y-37244761D01*
X120294819Y-37244761D02*
X120247200Y-37149523D01*
X120247200Y-37149523D02*
X120199580Y-37101904D01*
X119771009Y-36292380D02*
X119771009Y-36625713D01*
X120294819Y-36625713D02*
X119294819Y-36625713D01*
X119294819Y-36625713D02*
X119294819Y-36149523D01*
D13*
X162513842Y-42537619D02*
X162574318Y-42356190D01*
X162574318Y-42356190D02*
X162574318Y-42053809D01*
X162574318Y-42053809D02*
X162513842Y-41932857D01*
X162513842Y-41932857D02*
X162453365Y-41872381D01*
X162453365Y-41872381D02*
X162332413Y-41811904D01*
X162332413Y-41811904D02*
X162211461Y-41811904D01*
X162211461Y-41811904D02*
X162090508Y-41872381D01*
X162090508Y-41872381D02*
X162030032Y-41932857D01*
X162030032Y-41932857D02*
X161969556Y-42053809D01*
X161969556Y-42053809D02*
X161909080Y-42295714D01*
X161909080Y-42295714D02*
X161848603Y-42416666D01*
X161848603Y-42416666D02*
X161788127Y-42477143D01*
X161788127Y-42477143D02*
X161667175Y-42537619D01*
X161667175Y-42537619D02*
X161546222Y-42537619D01*
X161546222Y-42537619D02*
X161425270Y-42477143D01*
X161425270Y-42477143D02*
X161364794Y-42416666D01*
X161364794Y-42416666D02*
X161304318Y-42295714D01*
X161304318Y-42295714D02*
X161304318Y-41993333D01*
X161304318Y-41993333D02*
X161364794Y-41811904D01*
X162574318Y-40602380D02*
X162574318Y-41328095D01*
X162574318Y-40965238D02*
X161304318Y-40965238D01*
X161304318Y-40965238D02*
X161485746Y-41086190D01*
X161485746Y-41086190D02*
X161606699Y-41207142D01*
X161606699Y-41207142D02*
X161667175Y-41328095D01*
D11*
X127784819Y-38435238D02*
X127784819Y-39006666D01*
X127784819Y-38720952D02*
X126784819Y-38720952D01*
X126784819Y-38720952D02*
X126927676Y-38816190D01*
X126927676Y-38816190D02*
X127022914Y-38911428D01*
X127022914Y-38911428D02*
X127070533Y-39006666D01*
X127118152Y-37578095D02*
X127784819Y-37578095D01*
X127118152Y-38006666D02*
X127641961Y-38006666D01*
X127641961Y-38006666D02*
X127737200Y-37959047D01*
X127737200Y-37959047D02*
X127784819Y-37863809D01*
X127784819Y-37863809D02*
X127784819Y-37720952D01*
X127784819Y-37720952D02*
X127737200Y-37625714D01*
X127737200Y-37625714D02*
X127689580Y-37578095D01*
X127261009Y-36768571D02*
X127261009Y-37101904D01*
X127784819Y-37101904D02*
X126784819Y-37101904D01*
X126784819Y-37101904D02*
X126784819Y-36625714D01*
X125997143Y-50154819D02*
X126092381Y-50154819D01*
X126092381Y-50154819D02*
X126187619Y-50202438D01*
X126187619Y-50202438D02*
X126235238Y-50250057D01*
X126235238Y-50250057D02*
X126282857Y-50345295D01*
X126282857Y-50345295D02*
X126330476Y-50535771D01*
X126330476Y-50535771D02*
X126330476Y-50773866D01*
X126330476Y-50773866D02*
X126282857Y-50964342D01*
X126282857Y-50964342D02*
X126235238Y-51059580D01*
X126235238Y-51059580D02*
X126187619Y-51107200D01*
X126187619Y-51107200D02*
X126092381Y-51154819D01*
X126092381Y-51154819D02*
X125997143Y-51154819D01*
X125997143Y-51154819D02*
X125901905Y-51107200D01*
X125901905Y-51107200D02*
X125854286Y-51059580D01*
X125854286Y-51059580D02*
X125806667Y-50964342D01*
X125806667Y-50964342D02*
X125759048Y-50773866D01*
X125759048Y-50773866D02*
X125759048Y-50535771D01*
X125759048Y-50535771D02*
X125806667Y-50345295D01*
X125806667Y-50345295D02*
X125854286Y-50250057D01*
X125854286Y-50250057D02*
X125901905Y-50202438D01*
X125901905Y-50202438D02*
X125997143Y-50154819D01*
X126759048Y-51059580D02*
X126806667Y-51107200D01*
X126806667Y-51107200D02*
X126759048Y-51154819D01*
X126759048Y-51154819D02*
X126711429Y-51107200D01*
X126711429Y-51107200D02*
X126759048Y-51059580D01*
X126759048Y-51059580D02*
X126759048Y-51154819D01*
X127759047Y-51154819D02*
X127187619Y-51154819D01*
X127473333Y-51154819D02*
X127473333Y-50154819D01*
X127473333Y-50154819D02*
X127378095Y-50297676D01*
X127378095Y-50297676D02*
X127282857Y-50392914D01*
X127282857Y-50392914D02*
X127187619Y-50440533D01*
X128616190Y-50488152D02*
X128616190Y-51154819D01*
X128187619Y-50488152D02*
X128187619Y-51011961D01*
X128187619Y-51011961D02*
X128235238Y-51107200D01*
X128235238Y-51107200D02*
X128330476Y-51154819D01*
X128330476Y-51154819D02*
X128473333Y-51154819D01*
X128473333Y-51154819D02*
X128568571Y-51107200D01*
X128568571Y-51107200D02*
X128616190Y-51059580D01*
X129425714Y-50631009D02*
X129092381Y-50631009D01*
X129092381Y-51154819D02*
X129092381Y-50154819D01*
X129092381Y-50154819D02*
X129568571Y-50154819D01*
X159847143Y-58754819D02*
X159942381Y-58754819D01*
X159942381Y-58754819D02*
X160037619Y-58802438D01*
X160037619Y-58802438D02*
X160085238Y-58850057D01*
X160085238Y-58850057D02*
X160132857Y-58945295D01*
X160132857Y-58945295D02*
X160180476Y-59135771D01*
X160180476Y-59135771D02*
X160180476Y-59373866D01*
X160180476Y-59373866D02*
X160132857Y-59564342D01*
X160132857Y-59564342D02*
X160085238Y-59659580D01*
X160085238Y-59659580D02*
X160037619Y-59707200D01*
X160037619Y-59707200D02*
X159942381Y-59754819D01*
X159942381Y-59754819D02*
X159847143Y-59754819D01*
X159847143Y-59754819D02*
X159751905Y-59707200D01*
X159751905Y-59707200D02*
X159704286Y-59659580D01*
X159704286Y-59659580D02*
X159656667Y-59564342D01*
X159656667Y-59564342D02*
X159609048Y-59373866D01*
X159609048Y-59373866D02*
X159609048Y-59135771D01*
X159609048Y-59135771D02*
X159656667Y-58945295D01*
X159656667Y-58945295D02*
X159704286Y-58850057D01*
X159704286Y-58850057D02*
X159751905Y-58802438D01*
X159751905Y-58802438D02*
X159847143Y-58754819D01*
X160609048Y-59659580D02*
X160656667Y-59707200D01*
X160656667Y-59707200D02*
X160609048Y-59754819D01*
X160609048Y-59754819D02*
X160561429Y-59707200D01*
X160561429Y-59707200D02*
X160609048Y-59659580D01*
X160609048Y-59659580D02*
X160609048Y-59754819D01*
X161609047Y-59754819D02*
X161037619Y-59754819D01*
X161323333Y-59754819D02*
X161323333Y-58754819D01*
X161323333Y-58754819D02*
X161228095Y-58897676D01*
X161228095Y-58897676D02*
X161132857Y-58992914D01*
X161132857Y-58992914D02*
X161037619Y-59040533D01*
X162466190Y-59088152D02*
X162466190Y-59754819D01*
X162037619Y-59088152D02*
X162037619Y-59611961D01*
X162037619Y-59611961D02*
X162085238Y-59707200D01*
X162085238Y-59707200D02*
X162180476Y-59754819D01*
X162180476Y-59754819D02*
X162323333Y-59754819D01*
X162323333Y-59754819D02*
X162418571Y-59707200D01*
X162418571Y-59707200D02*
X162466190Y-59659580D01*
X163275714Y-59231009D02*
X162942381Y-59231009D01*
X162942381Y-59754819D02*
X162942381Y-58754819D01*
X162942381Y-58754819D02*
X163418571Y-58754819D01*
X135824819Y-62384761D02*
X135824819Y-62956189D01*
X135824819Y-62670475D02*
X134824819Y-62670475D01*
X134824819Y-62670475D02*
X134967676Y-62765713D01*
X134967676Y-62765713D02*
X135062914Y-62860951D01*
X135062914Y-62860951D02*
X135110533Y-62956189D01*
X135158152Y-61527618D02*
X135824819Y-61527618D01*
X134777200Y-61765713D02*
X135491485Y-62003808D01*
X135491485Y-62003808D02*
X135491485Y-61384761D01*
X135729580Y-61003808D02*
X135777200Y-60956189D01*
X135777200Y-60956189D02*
X135824819Y-61003808D01*
X135824819Y-61003808D02*
X135777200Y-61051427D01*
X135777200Y-61051427D02*
X135729580Y-61003808D01*
X135729580Y-61003808D02*
X135824819Y-61003808D01*
X135253390Y-60384761D02*
X135205771Y-60479999D01*
X135205771Y-60479999D02*
X135158152Y-60527618D01*
X135158152Y-60527618D02*
X135062914Y-60575237D01*
X135062914Y-60575237D02*
X135015295Y-60575237D01*
X135015295Y-60575237D02*
X134920057Y-60527618D01*
X134920057Y-60527618D02*
X134872438Y-60479999D01*
X134872438Y-60479999D02*
X134824819Y-60384761D01*
X134824819Y-60384761D02*
X134824819Y-60194285D01*
X134824819Y-60194285D02*
X134872438Y-60099047D01*
X134872438Y-60099047D02*
X134920057Y-60051428D01*
X134920057Y-60051428D02*
X135015295Y-60003809D01*
X135015295Y-60003809D02*
X135062914Y-60003809D01*
X135062914Y-60003809D02*
X135158152Y-60051428D01*
X135158152Y-60051428D02*
X135205771Y-60099047D01*
X135205771Y-60099047D02*
X135253390Y-60194285D01*
X135253390Y-60194285D02*
X135253390Y-60384761D01*
X135253390Y-60384761D02*
X135301009Y-60479999D01*
X135301009Y-60479999D02*
X135348628Y-60527618D01*
X135348628Y-60527618D02*
X135443866Y-60575237D01*
X135443866Y-60575237D02*
X135634342Y-60575237D01*
X135634342Y-60575237D02*
X135729580Y-60527618D01*
X135729580Y-60527618D02*
X135777200Y-60479999D01*
X135777200Y-60479999D02*
X135824819Y-60384761D01*
X135824819Y-60384761D02*
X135824819Y-60194285D01*
X135824819Y-60194285D02*
X135777200Y-60099047D01*
X135777200Y-60099047D02*
X135729580Y-60051428D01*
X135729580Y-60051428D02*
X135634342Y-60003809D01*
X135634342Y-60003809D02*
X135443866Y-60003809D01*
X135443866Y-60003809D02*
X135348628Y-60051428D01*
X135348628Y-60051428D02*
X135301009Y-60099047D01*
X135301009Y-60099047D02*
X135253390Y-60194285D01*
X135824819Y-59575237D02*
X134824819Y-59575237D01*
X135824819Y-59003809D02*
X135253390Y-59432380D01*
X134824819Y-59003809D02*
X135396247Y-59575237D01*
X149437143Y-67134819D02*
X149532381Y-67134819D01*
X149532381Y-67134819D02*
X149627619Y-67182438D01*
X149627619Y-67182438D02*
X149675238Y-67230057D01*
X149675238Y-67230057D02*
X149722857Y-67325295D01*
X149722857Y-67325295D02*
X149770476Y-67515771D01*
X149770476Y-67515771D02*
X149770476Y-67753866D01*
X149770476Y-67753866D02*
X149722857Y-67944342D01*
X149722857Y-67944342D02*
X149675238Y-68039580D01*
X149675238Y-68039580D02*
X149627619Y-68087200D01*
X149627619Y-68087200D02*
X149532381Y-68134819D01*
X149532381Y-68134819D02*
X149437143Y-68134819D01*
X149437143Y-68134819D02*
X149341905Y-68087200D01*
X149341905Y-68087200D02*
X149294286Y-68039580D01*
X149294286Y-68039580D02*
X149246667Y-67944342D01*
X149246667Y-67944342D02*
X149199048Y-67753866D01*
X149199048Y-67753866D02*
X149199048Y-67515771D01*
X149199048Y-67515771D02*
X149246667Y-67325295D01*
X149246667Y-67325295D02*
X149294286Y-67230057D01*
X149294286Y-67230057D02*
X149341905Y-67182438D01*
X149341905Y-67182438D02*
X149437143Y-67134819D01*
X150199048Y-68039580D02*
X150246667Y-68087200D01*
X150246667Y-68087200D02*
X150199048Y-68134819D01*
X150199048Y-68134819D02*
X150151429Y-68087200D01*
X150151429Y-68087200D02*
X150199048Y-68039580D01*
X150199048Y-68039580D02*
X150199048Y-68134819D01*
X151199047Y-68134819D02*
X150627619Y-68134819D01*
X150913333Y-68134819D02*
X150913333Y-67134819D01*
X150913333Y-67134819D02*
X150818095Y-67277676D01*
X150818095Y-67277676D02*
X150722857Y-67372914D01*
X150722857Y-67372914D02*
X150627619Y-67420533D01*
X152056190Y-67468152D02*
X152056190Y-68134819D01*
X151627619Y-67468152D02*
X151627619Y-67991961D01*
X151627619Y-67991961D02*
X151675238Y-68087200D01*
X151675238Y-68087200D02*
X151770476Y-68134819D01*
X151770476Y-68134819D02*
X151913333Y-68134819D01*
X151913333Y-68134819D02*
X152008571Y-68087200D01*
X152008571Y-68087200D02*
X152056190Y-68039580D01*
X152865714Y-67611009D02*
X152532381Y-67611009D01*
X152532381Y-68134819D02*
X152532381Y-67134819D01*
X152532381Y-67134819D02*
X153008571Y-67134819D01*
X125867619Y-42778152D02*
X126391428Y-42778152D01*
X126391428Y-42778152D02*
X125867619Y-43444819D01*
X125867619Y-43444819D02*
X126391428Y-43444819D01*
X127153333Y-43397200D02*
X127058095Y-43444819D01*
X127058095Y-43444819D02*
X126867619Y-43444819D01*
X126867619Y-43444819D02*
X126772381Y-43397200D01*
X126772381Y-43397200D02*
X126724762Y-43301961D01*
X126724762Y-43301961D02*
X126724762Y-42921009D01*
X126724762Y-42921009D02*
X126772381Y-42825771D01*
X126772381Y-42825771D02*
X126867619Y-42778152D01*
X126867619Y-42778152D02*
X127058095Y-42778152D01*
X127058095Y-42778152D02*
X127153333Y-42825771D01*
X127153333Y-42825771D02*
X127200952Y-42921009D01*
X127200952Y-42921009D02*
X127200952Y-43016247D01*
X127200952Y-43016247D02*
X126724762Y-43111485D01*
X127629524Y-43444819D02*
X127629524Y-42778152D01*
X127629524Y-42968628D02*
X127677143Y-42873390D01*
X127677143Y-42873390D02*
X127724762Y-42825771D01*
X127724762Y-42825771D02*
X127820000Y-42778152D01*
X127820000Y-42778152D02*
X127915238Y-42778152D01*
X128391429Y-43444819D02*
X128296191Y-43397200D01*
X128296191Y-43397200D02*
X128248572Y-43349580D01*
X128248572Y-43349580D02*
X128200953Y-43254342D01*
X128200953Y-43254342D02*
X128200953Y-42968628D01*
X128200953Y-42968628D02*
X128248572Y-42873390D01*
X128248572Y-42873390D02*
X128296191Y-42825771D01*
X128296191Y-42825771D02*
X128391429Y-42778152D01*
X128391429Y-42778152D02*
X128534286Y-42778152D01*
X128534286Y-42778152D02*
X128629524Y-42825771D01*
X128629524Y-42825771D02*
X128677143Y-42873390D01*
X128677143Y-42873390D02*
X128724762Y-42968628D01*
X128724762Y-42968628D02*
X128724762Y-43254342D01*
X128724762Y-43254342D02*
X128677143Y-43349580D01*
X128677143Y-43349580D02*
X128629524Y-43397200D01*
X128629524Y-43397200D02*
X128534286Y-43444819D01*
X128534286Y-43444819D02*
X128391429Y-43444819D01*
D14*
X144214762Y-70700559D02*
X144214762Y-71105321D01*
X144214762Y-71105321D02*
X144238572Y-71152940D01*
X144238572Y-71152940D02*
X144262381Y-71176750D01*
X144262381Y-71176750D02*
X144310000Y-71200559D01*
X144310000Y-71200559D02*
X144405238Y-71200559D01*
X144405238Y-71200559D02*
X144452857Y-71176750D01*
X144452857Y-71176750D02*
X144476667Y-71152940D01*
X144476667Y-71152940D02*
X144500476Y-71105321D01*
X144500476Y-71105321D02*
X144500476Y-70700559D01*
X144714763Y-71176750D02*
X144786191Y-71200559D01*
X144786191Y-71200559D02*
X144905239Y-71200559D01*
X144905239Y-71200559D02*
X144952858Y-71176750D01*
X144952858Y-71176750D02*
X144976667Y-71152940D01*
X144976667Y-71152940D02*
X145000477Y-71105321D01*
X145000477Y-71105321D02*
X145000477Y-71057702D01*
X145000477Y-71057702D02*
X144976667Y-71010083D01*
X144976667Y-71010083D02*
X144952858Y-70986273D01*
X144952858Y-70986273D02*
X144905239Y-70962464D01*
X144905239Y-70962464D02*
X144810001Y-70938654D01*
X144810001Y-70938654D02*
X144762382Y-70914845D01*
X144762382Y-70914845D02*
X144738572Y-70891035D01*
X144738572Y-70891035D02*
X144714763Y-70843416D01*
X144714763Y-70843416D02*
X144714763Y-70795797D01*
X144714763Y-70795797D02*
X144738572Y-70748178D01*
X144738572Y-70748178D02*
X144762382Y-70724369D01*
X144762382Y-70724369D02*
X144810001Y-70700559D01*
X144810001Y-70700559D02*
X144929048Y-70700559D01*
X144929048Y-70700559D02*
X145000477Y-70724369D01*
X145381429Y-70938654D02*
X145452857Y-70962464D01*
X145452857Y-70962464D02*
X145476667Y-70986273D01*
X145476667Y-70986273D02*
X145500476Y-71033892D01*
X145500476Y-71033892D02*
X145500476Y-71105321D01*
X145500476Y-71105321D02*
X145476667Y-71152940D01*
X145476667Y-71152940D02*
X145452857Y-71176750D01*
X145452857Y-71176750D02*
X145405238Y-71200559D01*
X145405238Y-71200559D02*
X145214762Y-71200559D01*
X145214762Y-71200559D02*
X145214762Y-70700559D01*
X145214762Y-70700559D02*
X145381429Y-70700559D01*
X145381429Y-70700559D02*
X145429048Y-70724369D01*
X145429048Y-70724369D02*
X145452857Y-70748178D01*
X145452857Y-70748178D02*
X145476667Y-70795797D01*
X145476667Y-70795797D02*
X145476667Y-70843416D01*
X145476667Y-70843416D02*
X145452857Y-70891035D01*
X145452857Y-70891035D02*
X145429048Y-70914845D01*
X145429048Y-70914845D02*
X145381429Y-70938654D01*
X145381429Y-70938654D02*
X145214762Y-70938654D01*
X145952857Y-71200559D02*
X145714762Y-71200559D01*
X145714762Y-71200559D02*
X145714762Y-70700559D01*
X146405238Y-71152940D02*
X146381429Y-71176750D01*
X146381429Y-71176750D02*
X146310000Y-71200559D01*
X146310000Y-71200559D02*
X146262381Y-71200559D01*
X146262381Y-71200559D02*
X146190953Y-71176750D01*
X146190953Y-71176750D02*
X146143334Y-71129130D01*
X146143334Y-71129130D02*
X146119524Y-71081511D01*
X146119524Y-71081511D02*
X146095715Y-70986273D01*
X146095715Y-70986273D02*
X146095715Y-70914845D01*
X146095715Y-70914845D02*
X146119524Y-70819607D01*
X146119524Y-70819607D02*
X146143334Y-70771988D01*
X146143334Y-70771988D02*
X146190953Y-70724369D01*
X146190953Y-70724369D02*
X146262381Y-70700559D01*
X146262381Y-70700559D02*
X146310000Y-70700559D01*
X146310000Y-70700559D02*
X146381429Y-70724369D01*
X146381429Y-70724369D02*
X146405238Y-70748178D01*
X146833810Y-70700559D02*
X146738572Y-70700559D01*
X146738572Y-70700559D02*
X146690953Y-70724369D01*
X146690953Y-70724369D02*
X146667143Y-70748178D01*
X146667143Y-70748178D02*
X146619524Y-70819607D01*
X146619524Y-70819607D02*
X146595715Y-70914845D01*
X146595715Y-70914845D02*
X146595715Y-71105321D01*
X146595715Y-71105321D02*
X146619524Y-71152940D01*
X146619524Y-71152940D02*
X146643334Y-71176750D01*
X146643334Y-71176750D02*
X146690953Y-71200559D01*
X146690953Y-71200559D02*
X146786191Y-71200559D01*
X146786191Y-71200559D02*
X146833810Y-71176750D01*
X146833810Y-71176750D02*
X146857619Y-71152940D01*
X146857619Y-71152940D02*
X146881429Y-71105321D01*
X146881429Y-71105321D02*
X146881429Y-70986273D01*
X146881429Y-70986273D02*
X146857619Y-70938654D01*
X146857619Y-70938654D02*
X146833810Y-70914845D01*
X146833810Y-70914845D02*
X146786191Y-70891035D01*
X146786191Y-70891035D02*
X146690953Y-70891035D01*
X146690953Y-70891035D02*
X146643334Y-70914845D01*
X146643334Y-70914845D02*
X146619524Y-70938654D01*
X146619524Y-70938654D02*
X146595715Y-70986273D01*
X147095714Y-71010083D02*
X147476667Y-71010083D01*
X147690953Y-70748178D02*
X147714762Y-70724369D01*
X147714762Y-70724369D02*
X147762381Y-70700559D01*
X147762381Y-70700559D02*
X147881429Y-70700559D01*
X147881429Y-70700559D02*
X147929048Y-70724369D01*
X147929048Y-70724369D02*
X147952857Y-70748178D01*
X147952857Y-70748178D02*
X147976667Y-70795797D01*
X147976667Y-70795797D02*
X147976667Y-70843416D01*
X147976667Y-70843416D02*
X147952857Y-70914845D01*
X147952857Y-70914845D02*
X147667143Y-71200559D01*
X147667143Y-71200559D02*
X147976667Y-71200559D01*
X148167143Y-71176750D02*
X148238571Y-71200559D01*
X148238571Y-71200559D02*
X148357619Y-71200559D01*
X148357619Y-71200559D02*
X148405238Y-71176750D01*
X148405238Y-71176750D02*
X148429047Y-71152940D01*
X148429047Y-71152940D02*
X148452857Y-71105321D01*
X148452857Y-71105321D02*
X148452857Y-71057702D01*
X148452857Y-71057702D02*
X148429047Y-71010083D01*
X148429047Y-71010083D02*
X148405238Y-70986273D01*
X148405238Y-70986273D02*
X148357619Y-70962464D01*
X148357619Y-70962464D02*
X148262381Y-70938654D01*
X148262381Y-70938654D02*
X148214762Y-70914845D01*
X148214762Y-70914845D02*
X148190952Y-70891035D01*
X148190952Y-70891035D02*
X148167143Y-70843416D01*
X148167143Y-70843416D02*
X148167143Y-70795797D01*
X148167143Y-70795797D02*
X148190952Y-70748178D01*
X148190952Y-70748178D02*
X148214762Y-70724369D01*
X148214762Y-70724369D02*
X148262381Y-70700559D01*
X148262381Y-70700559D02*
X148381428Y-70700559D01*
X148381428Y-70700559D02*
X148452857Y-70724369D01*
X148952856Y-71152940D02*
X148929047Y-71176750D01*
X148929047Y-71176750D02*
X148857618Y-71200559D01*
X148857618Y-71200559D02*
X148809999Y-71200559D01*
X148809999Y-71200559D02*
X148738571Y-71176750D01*
X148738571Y-71176750D02*
X148690952Y-71129130D01*
X148690952Y-71129130D02*
X148667142Y-71081511D01*
X148667142Y-71081511D02*
X148643333Y-70986273D01*
X148643333Y-70986273D02*
X148643333Y-70914845D01*
X148643333Y-70914845D02*
X148667142Y-70819607D01*
X148667142Y-70819607D02*
X148690952Y-70771988D01*
X148690952Y-70771988D02*
X148738571Y-70724369D01*
X148738571Y-70724369D02*
X148809999Y-70700559D01*
X148809999Y-70700559D02*
X148857618Y-70700559D01*
X148857618Y-70700559D02*
X148929047Y-70724369D01*
X148929047Y-70724369D02*
X148952856Y-70748178D01*
X149381428Y-70700559D02*
X149286190Y-70700559D01*
X149286190Y-70700559D02*
X149238571Y-70724369D01*
X149238571Y-70724369D02*
X149214761Y-70748178D01*
X149214761Y-70748178D02*
X149167142Y-70819607D01*
X149167142Y-70819607D02*
X149143333Y-70914845D01*
X149143333Y-70914845D02*
X149143333Y-71105321D01*
X149143333Y-71105321D02*
X149167142Y-71152940D01*
X149167142Y-71152940D02*
X149190952Y-71176750D01*
X149190952Y-71176750D02*
X149238571Y-71200559D01*
X149238571Y-71200559D02*
X149333809Y-71200559D01*
X149333809Y-71200559D02*
X149381428Y-71176750D01*
X149381428Y-71176750D02*
X149405237Y-71152940D01*
X149405237Y-71152940D02*
X149429047Y-71105321D01*
X149429047Y-71105321D02*
X149429047Y-70986273D01*
X149429047Y-70986273D02*
X149405237Y-70938654D01*
X149405237Y-70938654D02*
X149381428Y-70914845D01*
X149381428Y-70914845D02*
X149333809Y-70891035D01*
X149333809Y-70891035D02*
X149238571Y-70891035D01*
X149238571Y-70891035D02*
X149190952Y-70914845D01*
X149190952Y-70914845D02*
X149167142Y-70938654D01*
X149167142Y-70938654D02*
X149143333Y-70986273D01*
D11*
X165696666Y-58752319D02*
X165696666Y-59466604D01*
X165696666Y-59466604D02*
X165649047Y-59609461D01*
X165649047Y-59609461D02*
X165553809Y-59704700D01*
X165553809Y-59704700D02*
X165410952Y-59752319D01*
X165410952Y-59752319D02*
X165315714Y-59752319D01*
X166077619Y-58752319D02*
X166696666Y-58752319D01*
X166696666Y-58752319D02*
X166363333Y-59133271D01*
X166363333Y-59133271D02*
X166506190Y-59133271D01*
X166506190Y-59133271D02*
X166601428Y-59180890D01*
X166601428Y-59180890D02*
X166649047Y-59228509D01*
X166649047Y-59228509D02*
X166696666Y-59323747D01*
X166696666Y-59323747D02*
X166696666Y-59561842D01*
X166696666Y-59561842D02*
X166649047Y-59657080D01*
X166649047Y-59657080D02*
X166601428Y-59704700D01*
X166601428Y-59704700D02*
X166506190Y-59752319D01*
X166506190Y-59752319D02*
X166220476Y-59752319D01*
X166220476Y-59752319D02*
X166125238Y-59704700D01*
X166125238Y-59704700D02*
X166077619Y-59657080D01*
X162744819Y-76474285D02*
X162744819Y-76283809D01*
X162744819Y-76283809D02*
X162792438Y-76188571D01*
X162792438Y-76188571D02*
X162887676Y-76093333D01*
X162887676Y-76093333D02*
X163078152Y-76045714D01*
X163078152Y-76045714D02*
X163411485Y-76045714D01*
X163411485Y-76045714D02*
X163601961Y-76093333D01*
X163601961Y-76093333D02*
X163697200Y-76188571D01*
X163697200Y-76188571D02*
X163744819Y-76283809D01*
X163744819Y-76283809D02*
X163744819Y-76474285D01*
X163744819Y-76474285D02*
X163697200Y-76569523D01*
X163697200Y-76569523D02*
X163601961Y-76664761D01*
X163601961Y-76664761D02*
X163411485Y-76712380D01*
X163411485Y-76712380D02*
X163078152Y-76712380D01*
X163078152Y-76712380D02*
X162887676Y-76664761D01*
X162887676Y-76664761D02*
X162792438Y-76569523D01*
X162792438Y-76569523D02*
X162744819Y-76474285D01*
X163078152Y-75188571D02*
X163744819Y-75188571D01*
X163078152Y-75617142D02*
X163601961Y-75617142D01*
X163601961Y-75617142D02*
X163697200Y-75569523D01*
X163697200Y-75569523D02*
X163744819Y-75474285D01*
X163744819Y-75474285D02*
X163744819Y-75331428D01*
X163744819Y-75331428D02*
X163697200Y-75236190D01*
X163697200Y-75236190D02*
X163649580Y-75188571D01*
X163078152Y-74855237D02*
X163078152Y-74474285D01*
X162744819Y-74712380D02*
X163601961Y-74712380D01*
X163601961Y-74712380D02*
X163697200Y-74664761D01*
X163697200Y-74664761D02*
X163744819Y-74569523D01*
X163744819Y-74569523D02*
X163744819Y-74474285D01*
X163840057Y-74379047D02*
X163840057Y-73617142D01*
X163221009Y-73045713D02*
X163268628Y-72902856D01*
X163268628Y-72902856D02*
X163316247Y-72855237D01*
X163316247Y-72855237D02*
X163411485Y-72807618D01*
X163411485Y-72807618D02*
X163554342Y-72807618D01*
X163554342Y-72807618D02*
X163649580Y-72855237D01*
X163649580Y-72855237D02*
X163697200Y-72902856D01*
X163697200Y-72902856D02*
X163744819Y-72998094D01*
X163744819Y-72998094D02*
X163744819Y-73379046D01*
X163744819Y-73379046D02*
X162744819Y-73379046D01*
X162744819Y-73379046D02*
X162744819Y-73045713D01*
X162744819Y-73045713D02*
X162792438Y-72950475D01*
X162792438Y-72950475D02*
X162840057Y-72902856D01*
X162840057Y-72902856D02*
X162935295Y-72855237D01*
X162935295Y-72855237D02*
X163030533Y-72855237D01*
X163030533Y-72855237D02*
X163125771Y-72902856D01*
X163125771Y-72902856D02*
X163173390Y-72950475D01*
X163173390Y-72950475D02*
X163221009Y-73045713D01*
X163221009Y-73045713D02*
X163221009Y-73379046D01*
X118048571Y-58954819D02*
X117477143Y-58954819D01*
X117762857Y-58954819D02*
X117762857Y-57954819D01*
X117762857Y-57954819D02*
X117667619Y-58097676D01*
X117667619Y-58097676D02*
X117572381Y-58192914D01*
X117572381Y-58192914D02*
X117477143Y-58240533D01*
X118667619Y-57954819D02*
X118762857Y-57954819D01*
X118762857Y-57954819D02*
X118858095Y-58002438D01*
X118858095Y-58002438D02*
X118905714Y-58050057D01*
X118905714Y-58050057D02*
X118953333Y-58145295D01*
X118953333Y-58145295D02*
X119000952Y-58335771D01*
X119000952Y-58335771D02*
X119000952Y-58573866D01*
X119000952Y-58573866D02*
X118953333Y-58764342D01*
X118953333Y-58764342D02*
X118905714Y-58859580D01*
X118905714Y-58859580D02*
X118858095Y-58907200D01*
X118858095Y-58907200D02*
X118762857Y-58954819D01*
X118762857Y-58954819D02*
X118667619Y-58954819D01*
X118667619Y-58954819D02*
X118572381Y-58907200D01*
X118572381Y-58907200D02*
X118524762Y-58859580D01*
X118524762Y-58859580D02*
X118477143Y-58764342D01*
X118477143Y-58764342D02*
X118429524Y-58573866D01*
X118429524Y-58573866D02*
X118429524Y-58335771D01*
X118429524Y-58335771D02*
X118477143Y-58145295D01*
X118477143Y-58145295D02*
X118524762Y-58050057D01*
X118524762Y-58050057D02*
X118572381Y-58002438D01*
X118572381Y-58002438D02*
X118667619Y-57954819D01*
X119858095Y-58288152D02*
X119858095Y-58954819D01*
X119429524Y-58288152D02*
X119429524Y-58811961D01*
X119429524Y-58811961D02*
X119477143Y-58907200D01*
X119477143Y-58907200D02*
X119572381Y-58954819D01*
X119572381Y-58954819D02*
X119715238Y-58954819D01*
X119715238Y-58954819D02*
X119810476Y-58907200D01*
X119810476Y-58907200D02*
X119858095Y-58859580D01*
X120667619Y-58431009D02*
X120334286Y-58431009D01*
X120334286Y-58954819D02*
X120334286Y-57954819D01*
X120334286Y-57954819D02*
X120810476Y-57954819D01*
X131394819Y-38475238D02*
X131394819Y-39046666D01*
X131394819Y-38760952D02*
X130394819Y-38760952D01*
X130394819Y-38760952D02*
X130537676Y-38856190D01*
X130537676Y-38856190D02*
X130632914Y-38951428D01*
X130632914Y-38951428D02*
X130680533Y-39046666D01*
X130394819Y-37856190D02*
X130394819Y-37760952D01*
X130394819Y-37760952D02*
X130442438Y-37665714D01*
X130442438Y-37665714D02*
X130490057Y-37618095D01*
X130490057Y-37618095D02*
X130585295Y-37570476D01*
X130585295Y-37570476D02*
X130775771Y-37522857D01*
X130775771Y-37522857D02*
X131013866Y-37522857D01*
X131013866Y-37522857D02*
X131204342Y-37570476D01*
X131204342Y-37570476D02*
X131299580Y-37618095D01*
X131299580Y-37618095D02*
X131347200Y-37665714D01*
X131347200Y-37665714D02*
X131394819Y-37760952D01*
X131394819Y-37760952D02*
X131394819Y-37856190D01*
X131394819Y-37856190D02*
X131347200Y-37951428D01*
X131347200Y-37951428D02*
X131299580Y-37999047D01*
X131299580Y-37999047D02*
X131204342Y-38046666D01*
X131204342Y-38046666D02*
X131013866Y-38094285D01*
X131013866Y-38094285D02*
X130775771Y-38094285D01*
X130775771Y-38094285D02*
X130585295Y-38046666D01*
X130585295Y-38046666D02*
X130490057Y-37999047D01*
X130490057Y-37999047D02*
X130442438Y-37951428D01*
X130442438Y-37951428D02*
X130394819Y-37856190D01*
X131394819Y-37094285D02*
X130394819Y-37094285D01*
X131013866Y-36999047D02*
X131394819Y-36713333D01*
X130728152Y-36713333D02*
X131109104Y-37094285D01*
X145468152Y-66074166D02*
X146134819Y-66074166D01*
X145087200Y-66312261D02*
X145801485Y-66550356D01*
X145801485Y-66550356D02*
X145801485Y-65931309D01*
X145134819Y-65645594D02*
X145134819Y-64978928D01*
X145134819Y-64978928D02*
X146134819Y-65407499D01*
X145468152Y-64169404D02*
X146134819Y-64169404D01*
X145468152Y-64597975D02*
X145991961Y-64597975D01*
X145991961Y-64597975D02*
X146087200Y-64550356D01*
X146087200Y-64550356D02*
X146134819Y-64455118D01*
X146134819Y-64455118D02*
X146134819Y-64312261D01*
X146134819Y-64312261D02*
X146087200Y-64217023D01*
X146087200Y-64217023D02*
X146039580Y-64169404D01*
X145611009Y-63359880D02*
X145611009Y-63693213D01*
X146134819Y-63693213D02*
X145134819Y-63693213D01*
X145134819Y-63693213D02*
X145134819Y-63217023D01*
X165316666Y-42152319D02*
X165316666Y-42866604D01*
X165316666Y-42866604D02*
X165269047Y-43009461D01*
X165269047Y-43009461D02*
X165173809Y-43104700D01*
X165173809Y-43104700D02*
X165030952Y-43152319D01*
X165030952Y-43152319D02*
X164935714Y-43152319D01*
X166269047Y-42152319D02*
X165792857Y-42152319D01*
X165792857Y-42152319D02*
X165745238Y-42628509D01*
X165745238Y-42628509D02*
X165792857Y-42580890D01*
X165792857Y-42580890D02*
X165888095Y-42533271D01*
X165888095Y-42533271D02*
X166126190Y-42533271D01*
X166126190Y-42533271D02*
X166221428Y-42580890D01*
X166221428Y-42580890D02*
X166269047Y-42628509D01*
X166269047Y-42628509D02*
X166316666Y-42723747D01*
X166316666Y-42723747D02*
X166316666Y-42961842D01*
X166316666Y-42961842D02*
X166269047Y-43057080D01*
X166269047Y-43057080D02*
X166221428Y-43104700D01*
X166221428Y-43104700D02*
X166126190Y-43152319D01*
X166126190Y-43152319D02*
X165888095Y-43152319D01*
X165888095Y-43152319D02*
X165792857Y-43104700D01*
X165792857Y-43104700D02*
X165745238Y-43057080D01*
D13*
X145434318Y-62259762D02*
X144164318Y-62259762D01*
X145313365Y-60929285D02*
X145373842Y-60989761D01*
X145373842Y-60989761D02*
X145434318Y-61171190D01*
X145434318Y-61171190D02*
X145434318Y-61292142D01*
X145434318Y-61292142D02*
X145373842Y-61473571D01*
X145373842Y-61473571D02*
X145252889Y-61594523D01*
X145252889Y-61594523D02*
X145131937Y-61655000D01*
X145131937Y-61655000D02*
X144890032Y-61715476D01*
X144890032Y-61715476D02*
X144708603Y-61715476D01*
X144708603Y-61715476D02*
X144466699Y-61655000D01*
X144466699Y-61655000D02*
X144345746Y-61594523D01*
X144345746Y-61594523D02*
X144224794Y-61473571D01*
X144224794Y-61473571D02*
X144164318Y-61292142D01*
X144164318Y-61292142D02*
X144164318Y-61171190D01*
X144164318Y-61171190D02*
X144224794Y-60989761D01*
X144224794Y-60989761D02*
X144285270Y-60929285D01*
X145434318Y-59719761D02*
X145434318Y-60445476D01*
X145434318Y-60082619D02*
X144164318Y-60082619D01*
X144164318Y-60082619D02*
X144345746Y-60203571D01*
X144345746Y-60203571D02*
X144466699Y-60324523D01*
X144466699Y-60324523D02*
X144527175Y-60445476D01*
D11*
X117674819Y-76452857D02*
X117674819Y-76262381D01*
X117674819Y-76262381D02*
X117722438Y-76167143D01*
X117722438Y-76167143D02*
X117817676Y-76071905D01*
X117817676Y-76071905D02*
X118008152Y-76024286D01*
X118008152Y-76024286D02*
X118341485Y-76024286D01*
X118341485Y-76024286D02*
X118531961Y-76071905D01*
X118531961Y-76071905D02*
X118627200Y-76167143D01*
X118627200Y-76167143D02*
X118674819Y-76262381D01*
X118674819Y-76262381D02*
X118674819Y-76452857D01*
X118674819Y-76452857D02*
X118627200Y-76548095D01*
X118627200Y-76548095D02*
X118531961Y-76643333D01*
X118531961Y-76643333D02*
X118341485Y-76690952D01*
X118341485Y-76690952D02*
X118008152Y-76690952D01*
X118008152Y-76690952D02*
X117817676Y-76643333D01*
X117817676Y-76643333D02*
X117722438Y-76548095D01*
X117722438Y-76548095D02*
X117674819Y-76452857D01*
X118008152Y-75167143D02*
X118674819Y-75167143D01*
X118008152Y-75595714D02*
X118531961Y-75595714D01*
X118531961Y-75595714D02*
X118627200Y-75548095D01*
X118627200Y-75548095D02*
X118674819Y-75452857D01*
X118674819Y-75452857D02*
X118674819Y-75310000D01*
X118674819Y-75310000D02*
X118627200Y-75214762D01*
X118627200Y-75214762D02*
X118579580Y-75167143D01*
X118008152Y-74833809D02*
X118008152Y-74452857D01*
X117674819Y-74690952D02*
X118531961Y-74690952D01*
X118531961Y-74690952D02*
X118627200Y-74643333D01*
X118627200Y-74643333D02*
X118674819Y-74548095D01*
X118674819Y-74548095D02*
X118674819Y-74452857D01*
X118770057Y-74357619D02*
X118770057Y-73595714D01*
X118389104Y-73405237D02*
X118389104Y-72929047D01*
X118674819Y-73500475D02*
X117674819Y-73167142D01*
X117674819Y-73167142D02*
X118674819Y-72833809D01*
X115186666Y-42064819D02*
X115186666Y-42779104D01*
X115186666Y-42779104D02*
X115139047Y-42921961D01*
X115139047Y-42921961D02*
X115043809Y-43017200D01*
X115043809Y-43017200D02*
X114900952Y-43064819D01*
X114900952Y-43064819D02*
X114805714Y-43064819D01*
X116091428Y-42398152D02*
X116091428Y-43064819D01*
X115853333Y-42017200D02*
X115615238Y-42731485D01*
X115615238Y-42731485D02*
X116234285Y-42731485D01*
D15*
X152359283Y-82209999D02*
X152925950Y-82209999D01*
X152925950Y-82209999D02*
X152992616Y-82176666D01*
X152992616Y-82176666D02*
X153025950Y-82143332D01*
X153025950Y-82143332D02*
X153059283Y-82076666D01*
X153059283Y-82076666D02*
X153059283Y-81943332D01*
X153059283Y-81943332D02*
X153025950Y-81876666D01*
X153025950Y-81876666D02*
X152992616Y-81843332D01*
X152992616Y-81843332D02*
X152925950Y-81809999D01*
X152925950Y-81809999D02*
X152359283Y-81809999D01*
X153025950Y-81509999D02*
X153059283Y-81409999D01*
X153059283Y-81409999D02*
X153059283Y-81243333D01*
X153059283Y-81243333D02*
X153025950Y-81176666D01*
X153025950Y-81176666D02*
X152992616Y-81143333D01*
X152992616Y-81143333D02*
X152925950Y-81109999D01*
X152925950Y-81109999D02*
X152859283Y-81109999D01*
X152859283Y-81109999D02*
X152792616Y-81143333D01*
X152792616Y-81143333D02*
X152759283Y-81176666D01*
X152759283Y-81176666D02*
X152725950Y-81243333D01*
X152725950Y-81243333D02*
X152692616Y-81376666D01*
X152692616Y-81376666D02*
X152659283Y-81443333D01*
X152659283Y-81443333D02*
X152625950Y-81476666D01*
X152625950Y-81476666D02*
X152559283Y-81509999D01*
X152559283Y-81509999D02*
X152492616Y-81509999D01*
X152492616Y-81509999D02*
X152425950Y-81476666D01*
X152425950Y-81476666D02*
X152392616Y-81443333D01*
X152392616Y-81443333D02*
X152359283Y-81376666D01*
X152359283Y-81376666D02*
X152359283Y-81209999D01*
X152359283Y-81209999D02*
X152392616Y-81109999D01*
X152692616Y-80576666D02*
X152725950Y-80476666D01*
X152725950Y-80476666D02*
X152759283Y-80443332D01*
X152759283Y-80443332D02*
X152825950Y-80409999D01*
X152825950Y-80409999D02*
X152925950Y-80409999D01*
X152925950Y-80409999D02*
X152992616Y-80443332D01*
X152992616Y-80443332D02*
X153025950Y-80476666D01*
X153025950Y-80476666D02*
X153059283Y-80543332D01*
X153059283Y-80543332D02*
X153059283Y-80809999D01*
X153059283Y-80809999D02*
X152359283Y-80809999D01*
X152359283Y-80809999D02*
X152359283Y-80576666D01*
X152359283Y-80576666D02*
X152392616Y-80509999D01*
X152392616Y-80509999D02*
X152425950Y-80476666D01*
X152425950Y-80476666D02*
X152492616Y-80443332D01*
X152492616Y-80443332D02*
X152559283Y-80443332D01*
X152559283Y-80443332D02*
X152625950Y-80476666D01*
X152625950Y-80476666D02*
X152659283Y-80509999D01*
X152659283Y-80509999D02*
X152692616Y-80576666D01*
X152692616Y-80576666D02*
X152692616Y-80809999D01*
X153125950Y-80276666D02*
X153125950Y-79743332D01*
X152992616Y-79176666D02*
X153025950Y-79209999D01*
X153025950Y-79209999D02*
X153059283Y-79309999D01*
X153059283Y-79309999D02*
X153059283Y-79376666D01*
X153059283Y-79376666D02*
X153025950Y-79476666D01*
X153025950Y-79476666D02*
X152959283Y-79543333D01*
X152959283Y-79543333D02*
X152892616Y-79576666D01*
X152892616Y-79576666D02*
X152759283Y-79609999D01*
X152759283Y-79609999D02*
X152659283Y-79609999D01*
X152659283Y-79609999D02*
X152525950Y-79576666D01*
X152525950Y-79576666D02*
X152459283Y-79543333D01*
X152459283Y-79543333D02*
X152392616Y-79476666D01*
X152392616Y-79476666D02*
X152359283Y-79376666D01*
X152359283Y-79376666D02*
X152359283Y-79309999D01*
X152359283Y-79309999D02*
X152392616Y-79209999D01*
X152392616Y-79209999D02*
X152425950Y-79176666D01*
D11*
X117589047Y-50902295D02*
X117208095Y-50902295D01*
X117208095Y-50902295D02*
X117208095Y-50102295D01*
X117855714Y-50902295D02*
X117855714Y-50102295D01*
X117855714Y-50102295D02*
X118122380Y-50673723D01*
X118122380Y-50673723D02*
X118389047Y-50102295D01*
X118389047Y-50102295D02*
X118389047Y-50902295D01*
X119189047Y-50902295D02*
X118731904Y-50902295D01*
X118960476Y-50902295D02*
X118960476Y-50102295D01*
X118960476Y-50102295D02*
X118884285Y-50216580D01*
X118884285Y-50216580D02*
X118808095Y-50292771D01*
X118808095Y-50292771D02*
X118731904Y-50330866D01*
X119950952Y-50902295D02*
X119493809Y-50902295D01*
X119722381Y-50902295D02*
X119722381Y-50102295D01*
X119722381Y-50102295D02*
X119646190Y-50216580D01*
X119646190Y-50216580D02*
X119570000Y-50292771D01*
X119570000Y-50292771D02*
X119493809Y-50330866D01*
X120712857Y-50902295D02*
X120255714Y-50902295D01*
X120484286Y-50902295D02*
X120484286Y-50102295D01*
X120484286Y-50102295D02*
X120408095Y-50216580D01*
X120408095Y-50216580D02*
X120331905Y-50292771D01*
X120331905Y-50292771D02*
X120255714Y-50330866D01*
X120979524Y-50102295D02*
X121512858Y-50102295D01*
X121512858Y-50102295D02*
X121170000Y-50902295D01*
X121817620Y-50597533D02*
X122427144Y-50597533D01*
X122731905Y-50102295D02*
X123227143Y-50102295D01*
X123227143Y-50102295D02*
X122960477Y-50407057D01*
X122960477Y-50407057D02*
X123074762Y-50407057D01*
X123074762Y-50407057D02*
X123150953Y-50445152D01*
X123150953Y-50445152D02*
X123189048Y-50483247D01*
X123189048Y-50483247D02*
X123227143Y-50559438D01*
X123227143Y-50559438D02*
X123227143Y-50749914D01*
X123227143Y-50749914D02*
X123189048Y-50826104D01*
X123189048Y-50826104D02*
X123150953Y-50864200D01*
X123150953Y-50864200D02*
X123074762Y-50902295D01*
X123074762Y-50902295D02*
X122846191Y-50902295D01*
X122846191Y-50902295D02*
X122770000Y-50864200D01*
X122770000Y-50864200D02*
X122731905Y-50826104D01*
X123570001Y-50826104D02*
X123608096Y-50864200D01*
X123608096Y-50864200D02*
X123570001Y-50902295D01*
X123570001Y-50902295D02*
X123531905Y-50864200D01*
X123531905Y-50864200D02*
X123570001Y-50826104D01*
X123570001Y-50826104D02*
X123570001Y-50902295D01*
X123874762Y-50102295D02*
X124370000Y-50102295D01*
X124370000Y-50102295D02*
X124103334Y-50407057D01*
X124103334Y-50407057D02*
X124217619Y-50407057D01*
X124217619Y-50407057D02*
X124293810Y-50445152D01*
X124293810Y-50445152D02*
X124331905Y-50483247D01*
X124331905Y-50483247D02*
X124370000Y-50559438D01*
X124370000Y-50559438D02*
X124370000Y-50749914D01*
X124370000Y-50749914D02*
X124331905Y-50826104D01*
X124331905Y-50826104D02*
X124293810Y-50864200D01*
X124293810Y-50864200D02*
X124217619Y-50902295D01*
X124217619Y-50902295D02*
X123989048Y-50902295D01*
X123989048Y-50902295D02*
X123912857Y-50864200D01*
X123912857Y-50864200D02*
X123874762Y-50826104D01*
X128552142Y-52884819D02*
X128075952Y-52884819D01*
X128075952Y-52884819D02*
X128075952Y-51884819D01*
X128885476Y-52361009D02*
X129218809Y-52361009D01*
X129361666Y-52884819D02*
X128885476Y-52884819D01*
X128885476Y-52884819D02*
X128885476Y-51884819D01*
X128885476Y-51884819D02*
X129361666Y-51884819D01*
X129790238Y-52884819D02*
X129790238Y-51884819D01*
X129790238Y-51884819D02*
X130028333Y-51884819D01*
X130028333Y-51884819D02*
X130171190Y-51932438D01*
X130171190Y-51932438D02*
X130266428Y-52027676D01*
X130266428Y-52027676D02*
X130314047Y-52122914D01*
X130314047Y-52122914D02*
X130361666Y-52313390D01*
X130361666Y-52313390D02*
X130361666Y-52456247D01*
X130361666Y-52456247D02*
X130314047Y-52646723D01*
X130314047Y-52646723D02*
X130266428Y-52741961D01*
X130266428Y-52741961D02*
X130171190Y-52837200D01*
X130171190Y-52837200D02*
X130028333Y-52884819D01*
X130028333Y-52884819D02*
X129790238Y-52884819D01*
X117479643Y-51844819D02*
X117574881Y-51844819D01*
X117574881Y-51844819D02*
X117670119Y-51892438D01*
X117670119Y-51892438D02*
X117717738Y-51940057D01*
X117717738Y-51940057D02*
X117765357Y-52035295D01*
X117765357Y-52035295D02*
X117812976Y-52225771D01*
X117812976Y-52225771D02*
X117812976Y-52463866D01*
X117812976Y-52463866D02*
X117765357Y-52654342D01*
X117765357Y-52654342D02*
X117717738Y-52749580D01*
X117717738Y-52749580D02*
X117670119Y-52797200D01*
X117670119Y-52797200D02*
X117574881Y-52844819D01*
X117574881Y-52844819D02*
X117479643Y-52844819D01*
X117479643Y-52844819D02*
X117384405Y-52797200D01*
X117384405Y-52797200D02*
X117336786Y-52749580D01*
X117336786Y-52749580D02*
X117289167Y-52654342D01*
X117289167Y-52654342D02*
X117241548Y-52463866D01*
X117241548Y-52463866D02*
X117241548Y-52225771D01*
X117241548Y-52225771D02*
X117289167Y-52035295D01*
X117289167Y-52035295D02*
X117336786Y-51940057D01*
X117336786Y-51940057D02*
X117384405Y-51892438D01*
X117384405Y-51892438D02*
X117479643Y-51844819D01*
X118241548Y-52749580D02*
X118289167Y-52797200D01*
X118289167Y-52797200D02*
X118241548Y-52844819D01*
X118241548Y-52844819D02*
X118193929Y-52797200D01*
X118193929Y-52797200D02*
X118241548Y-52749580D01*
X118241548Y-52749580D02*
X118241548Y-52844819D01*
X119241547Y-52844819D02*
X118670119Y-52844819D01*
X118955833Y-52844819D02*
X118955833Y-51844819D01*
X118955833Y-51844819D02*
X118860595Y-51987676D01*
X118860595Y-51987676D02*
X118765357Y-52082914D01*
X118765357Y-52082914D02*
X118670119Y-52130533D01*
X120098690Y-52178152D02*
X120098690Y-52844819D01*
X119670119Y-52178152D02*
X119670119Y-52701961D01*
X119670119Y-52701961D02*
X119717738Y-52797200D01*
X119717738Y-52797200D02*
X119812976Y-52844819D01*
X119812976Y-52844819D02*
X119955833Y-52844819D01*
X119955833Y-52844819D02*
X120051071Y-52797200D01*
X120051071Y-52797200D02*
X120098690Y-52749580D01*
X120908214Y-52321009D02*
X120574881Y-52321009D01*
X120574881Y-52844819D02*
X120574881Y-51844819D01*
X120574881Y-51844819D02*
X121051071Y-51844819D01*
X112536666Y-56344819D02*
X112536666Y-57059104D01*
X112536666Y-57059104D02*
X112489047Y-57201961D01*
X112489047Y-57201961D02*
X112393809Y-57297200D01*
X112393809Y-57297200D02*
X112250952Y-57344819D01*
X112250952Y-57344819D02*
X112155714Y-57344819D01*
X112917619Y-56344819D02*
X113584285Y-56344819D01*
X113584285Y-56344819D02*
X113155714Y-57344819D01*
X141507142Y-71944819D02*
X141030952Y-71944819D01*
X141030952Y-71944819D02*
X140983333Y-72421009D01*
X140983333Y-72421009D02*
X141030952Y-72373390D01*
X141030952Y-72373390D02*
X141126190Y-72325771D01*
X141126190Y-72325771D02*
X141364285Y-72325771D01*
X141364285Y-72325771D02*
X141459523Y-72373390D01*
X141459523Y-72373390D02*
X141507142Y-72421009D01*
X141507142Y-72421009D02*
X141554761Y-72516247D01*
X141554761Y-72516247D02*
X141554761Y-72754342D01*
X141554761Y-72754342D02*
X141507142Y-72849580D01*
X141507142Y-72849580D02*
X141459523Y-72897200D01*
X141459523Y-72897200D02*
X141364285Y-72944819D01*
X141364285Y-72944819D02*
X141126190Y-72944819D01*
X141126190Y-72944819D02*
X141030952Y-72897200D01*
X141030952Y-72897200D02*
X140983333Y-72849580D01*
X141983333Y-72944819D02*
X141983333Y-71944819D01*
X142078571Y-72563866D02*
X142364285Y-72944819D01*
X142364285Y-72278152D02*
X141983333Y-72659104D01*
X143316666Y-72944819D02*
X142745238Y-72944819D01*
X143030952Y-72944819D02*
X143030952Y-71944819D01*
X143030952Y-71944819D02*
X142935714Y-72087676D01*
X142935714Y-72087676D02*
X142840476Y-72182914D01*
X142840476Y-72182914D02*
X142745238Y-72230533D01*
D13*
X158684318Y-63419762D02*
X157414318Y-63419762D01*
X158563365Y-62089285D02*
X158623842Y-62149761D01*
X158623842Y-62149761D02*
X158684318Y-62331190D01*
X158684318Y-62331190D02*
X158684318Y-62452142D01*
X158684318Y-62452142D02*
X158623842Y-62633571D01*
X158623842Y-62633571D02*
X158502889Y-62754523D01*
X158502889Y-62754523D02*
X158381937Y-62815000D01*
X158381937Y-62815000D02*
X158140032Y-62875476D01*
X158140032Y-62875476D02*
X157958603Y-62875476D01*
X157958603Y-62875476D02*
X157716699Y-62815000D01*
X157716699Y-62815000D02*
X157595746Y-62754523D01*
X157595746Y-62754523D02*
X157474794Y-62633571D01*
X157474794Y-62633571D02*
X157414318Y-62452142D01*
X157414318Y-62452142D02*
X157414318Y-62331190D01*
X157414318Y-62331190D02*
X157474794Y-62149761D01*
X157474794Y-62149761D02*
X157535270Y-62089285D01*
X157535270Y-61605476D02*
X157474794Y-61545000D01*
X157474794Y-61545000D02*
X157414318Y-61424047D01*
X157414318Y-61424047D02*
X157414318Y-61121666D01*
X157414318Y-61121666D02*
X157474794Y-61000714D01*
X157474794Y-61000714D02*
X157535270Y-60940238D01*
X157535270Y-60940238D02*
X157656222Y-60879761D01*
X157656222Y-60879761D02*
X157777175Y-60879761D01*
X157777175Y-60879761D02*
X157958603Y-60940238D01*
X157958603Y-60940238D02*
X158684318Y-61665952D01*
X158684318Y-61665952D02*
X158684318Y-60879761D01*
D11*
X131954819Y-66704104D02*
X131954819Y-66608866D01*
X131954819Y-66608866D02*
X132002438Y-66513628D01*
X132002438Y-66513628D02*
X132050057Y-66466009D01*
X132050057Y-66466009D02*
X132145295Y-66418390D01*
X132145295Y-66418390D02*
X132335771Y-66370771D01*
X132335771Y-66370771D02*
X132573866Y-66370771D01*
X132573866Y-66370771D02*
X132764342Y-66418390D01*
X132764342Y-66418390D02*
X132859580Y-66466009D01*
X132859580Y-66466009D02*
X132907200Y-66513628D01*
X132907200Y-66513628D02*
X132954819Y-66608866D01*
X132954819Y-66608866D02*
X132954819Y-66704104D01*
X132954819Y-66704104D02*
X132907200Y-66799342D01*
X132907200Y-66799342D02*
X132859580Y-66846961D01*
X132859580Y-66846961D02*
X132764342Y-66894580D01*
X132764342Y-66894580D02*
X132573866Y-66942199D01*
X132573866Y-66942199D02*
X132335771Y-66942199D01*
X132335771Y-66942199D02*
X132145295Y-66894580D01*
X132145295Y-66894580D02*
X132050057Y-66846961D01*
X132050057Y-66846961D02*
X132002438Y-66799342D01*
X132002438Y-66799342D02*
X131954819Y-66704104D01*
X132859580Y-65942199D02*
X132907200Y-65894580D01*
X132907200Y-65894580D02*
X132954819Y-65942199D01*
X132954819Y-65942199D02*
X132907200Y-65989818D01*
X132907200Y-65989818D02*
X132859580Y-65942199D01*
X132859580Y-65942199D02*
X132954819Y-65942199D01*
X132954819Y-64942200D02*
X132954819Y-65513628D01*
X132954819Y-65227914D02*
X131954819Y-65227914D01*
X131954819Y-65227914D02*
X132097676Y-65323152D01*
X132097676Y-65323152D02*
X132192914Y-65418390D01*
X132192914Y-65418390D02*
X132240533Y-65513628D01*
X132288152Y-64085057D02*
X132954819Y-64085057D01*
X132288152Y-64513628D02*
X132811961Y-64513628D01*
X132811961Y-64513628D02*
X132907200Y-64466009D01*
X132907200Y-64466009D02*
X132954819Y-64370771D01*
X132954819Y-64370771D02*
X132954819Y-64227914D01*
X132954819Y-64227914D02*
X132907200Y-64132676D01*
X132907200Y-64132676D02*
X132859580Y-64085057D01*
X132431009Y-63275533D02*
X132431009Y-63608866D01*
X132954819Y-63608866D02*
X131954819Y-63608866D01*
X131954819Y-63608866D02*
X131954819Y-63132676D01*
X123084819Y-39492856D02*
X123084819Y-39397618D01*
X123084819Y-39397618D02*
X123132438Y-39302380D01*
X123132438Y-39302380D02*
X123180057Y-39254761D01*
X123180057Y-39254761D02*
X123275295Y-39207142D01*
X123275295Y-39207142D02*
X123465771Y-39159523D01*
X123465771Y-39159523D02*
X123703866Y-39159523D01*
X123703866Y-39159523D02*
X123894342Y-39207142D01*
X123894342Y-39207142D02*
X123989580Y-39254761D01*
X123989580Y-39254761D02*
X124037200Y-39302380D01*
X124037200Y-39302380D02*
X124084819Y-39397618D01*
X124084819Y-39397618D02*
X124084819Y-39492856D01*
X124084819Y-39492856D02*
X124037200Y-39588094D01*
X124037200Y-39588094D02*
X123989580Y-39635713D01*
X123989580Y-39635713D02*
X123894342Y-39683332D01*
X123894342Y-39683332D02*
X123703866Y-39730951D01*
X123703866Y-39730951D02*
X123465771Y-39730951D01*
X123465771Y-39730951D02*
X123275295Y-39683332D01*
X123275295Y-39683332D02*
X123180057Y-39635713D01*
X123180057Y-39635713D02*
X123132438Y-39588094D01*
X123132438Y-39588094D02*
X123084819Y-39492856D01*
X123989580Y-38730951D02*
X124037200Y-38683332D01*
X124037200Y-38683332D02*
X124084819Y-38730951D01*
X124084819Y-38730951D02*
X124037200Y-38778570D01*
X124037200Y-38778570D02*
X123989580Y-38730951D01*
X123989580Y-38730951D02*
X124084819Y-38730951D01*
X124084819Y-37730952D02*
X124084819Y-38302380D01*
X124084819Y-38016666D02*
X123084819Y-38016666D01*
X123084819Y-38016666D02*
X123227676Y-38111904D01*
X123227676Y-38111904D02*
X123322914Y-38207142D01*
X123322914Y-38207142D02*
X123370533Y-38302380D01*
X123418152Y-36873809D02*
X124084819Y-36873809D01*
X123418152Y-37302380D02*
X123941961Y-37302380D01*
X123941961Y-37302380D02*
X124037200Y-37254761D01*
X124037200Y-37254761D02*
X124084819Y-37159523D01*
X124084819Y-37159523D02*
X124084819Y-37016666D01*
X124084819Y-37016666D02*
X124037200Y-36921428D01*
X124037200Y-36921428D02*
X123989580Y-36873809D01*
X123561009Y-36064285D02*
X123561009Y-36397618D01*
X124084819Y-36397618D02*
X123084819Y-36397618D01*
X123084819Y-36397618D02*
X123084819Y-35921428D01*
X126111071Y-47134819D02*
X125539643Y-47134819D01*
X125825357Y-47134819D02*
X125825357Y-46134819D01*
X125825357Y-46134819D02*
X125730119Y-46277676D01*
X125730119Y-46277676D02*
X125634881Y-46372914D01*
X125634881Y-46372914D02*
X125539643Y-46420533D01*
X126730119Y-46134819D02*
X126825357Y-46134819D01*
X126825357Y-46134819D02*
X126920595Y-46182438D01*
X126920595Y-46182438D02*
X126968214Y-46230057D01*
X126968214Y-46230057D02*
X127015833Y-46325295D01*
X127015833Y-46325295D02*
X127063452Y-46515771D01*
X127063452Y-46515771D02*
X127063452Y-46753866D01*
X127063452Y-46753866D02*
X127015833Y-46944342D01*
X127015833Y-46944342D02*
X126968214Y-47039580D01*
X126968214Y-47039580D02*
X126920595Y-47087200D01*
X126920595Y-47087200D02*
X126825357Y-47134819D01*
X126825357Y-47134819D02*
X126730119Y-47134819D01*
X126730119Y-47134819D02*
X126634881Y-47087200D01*
X126634881Y-47087200D02*
X126587262Y-47039580D01*
X126587262Y-47039580D02*
X126539643Y-46944342D01*
X126539643Y-46944342D02*
X126492024Y-46753866D01*
X126492024Y-46753866D02*
X126492024Y-46515771D01*
X126492024Y-46515771D02*
X126539643Y-46325295D01*
X126539643Y-46325295D02*
X126587262Y-46230057D01*
X126587262Y-46230057D02*
X126634881Y-46182438D01*
X126634881Y-46182438D02*
X126730119Y-46134819D01*
X127920595Y-46468152D02*
X127920595Y-47134819D01*
X127492024Y-46468152D02*
X127492024Y-46991961D01*
X127492024Y-46991961D02*
X127539643Y-47087200D01*
X127539643Y-47087200D02*
X127634881Y-47134819D01*
X127634881Y-47134819D02*
X127777738Y-47134819D01*
X127777738Y-47134819D02*
X127872976Y-47087200D01*
X127872976Y-47087200D02*
X127920595Y-47039580D01*
X128730119Y-46611009D02*
X128396786Y-46611009D01*
X128396786Y-47134819D02*
X128396786Y-46134819D01*
X128396786Y-46134819D02*
X128872976Y-46134819D01*
X151334819Y-61856761D02*
X151334819Y-62428189D01*
X151334819Y-62142475D02*
X150334819Y-62142475D01*
X150334819Y-62142475D02*
X150477676Y-62237713D01*
X150477676Y-62237713D02*
X150572914Y-62332951D01*
X150572914Y-62332951D02*
X150620533Y-62428189D01*
X150668152Y-60999618D02*
X151334819Y-60999618D01*
X150287200Y-61237713D02*
X151001485Y-61475808D01*
X151001485Y-61475808D02*
X151001485Y-60856761D01*
X151239580Y-60475808D02*
X151287200Y-60428189D01*
X151287200Y-60428189D02*
X151334819Y-60475808D01*
X151334819Y-60475808D02*
X151287200Y-60523427D01*
X151287200Y-60523427D02*
X151239580Y-60475808D01*
X151239580Y-60475808D02*
X151334819Y-60475808D01*
X150763390Y-59856761D02*
X150715771Y-59951999D01*
X150715771Y-59951999D02*
X150668152Y-59999618D01*
X150668152Y-59999618D02*
X150572914Y-60047237D01*
X150572914Y-60047237D02*
X150525295Y-60047237D01*
X150525295Y-60047237D02*
X150430057Y-59999618D01*
X150430057Y-59999618D02*
X150382438Y-59951999D01*
X150382438Y-59951999D02*
X150334819Y-59856761D01*
X150334819Y-59856761D02*
X150334819Y-59666285D01*
X150334819Y-59666285D02*
X150382438Y-59571047D01*
X150382438Y-59571047D02*
X150430057Y-59523428D01*
X150430057Y-59523428D02*
X150525295Y-59475809D01*
X150525295Y-59475809D02*
X150572914Y-59475809D01*
X150572914Y-59475809D02*
X150668152Y-59523428D01*
X150668152Y-59523428D02*
X150715771Y-59571047D01*
X150715771Y-59571047D02*
X150763390Y-59666285D01*
X150763390Y-59666285D02*
X150763390Y-59856761D01*
X150763390Y-59856761D02*
X150811009Y-59951999D01*
X150811009Y-59951999D02*
X150858628Y-59999618D01*
X150858628Y-59999618D02*
X150953866Y-60047237D01*
X150953866Y-60047237D02*
X151144342Y-60047237D01*
X151144342Y-60047237D02*
X151239580Y-59999618D01*
X151239580Y-59999618D02*
X151287200Y-59951999D01*
X151287200Y-59951999D02*
X151334819Y-59856761D01*
X151334819Y-59856761D02*
X151334819Y-59666285D01*
X151334819Y-59666285D02*
X151287200Y-59571047D01*
X151287200Y-59571047D02*
X151239580Y-59523428D01*
X151239580Y-59523428D02*
X151144342Y-59475809D01*
X151144342Y-59475809D02*
X150953866Y-59475809D01*
X150953866Y-59475809D02*
X150858628Y-59523428D01*
X150858628Y-59523428D02*
X150811009Y-59571047D01*
X150811009Y-59571047D02*
X150763390Y-59666285D01*
X151334819Y-59047237D02*
X150334819Y-59047237D01*
X151334819Y-58475809D02*
X150763390Y-58904380D01*
X150334819Y-58475809D02*
X150906247Y-59047237D01*
X125143809Y-80504819D02*
X125143809Y-79504819D01*
X125143809Y-79504819D02*
X125524761Y-79504819D01*
X125524761Y-79504819D02*
X125619999Y-79552438D01*
X125619999Y-79552438D02*
X125667618Y-79600057D01*
X125667618Y-79600057D02*
X125715237Y-79695295D01*
X125715237Y-79695295D02*
X125715237Y-79838152D01*
X125715237Y-79838152D02*
X125667618Y-79933390D01*
X125667618Y-79933390D02*
X125619999Y-79981009D01*
X125619999Y-79981009D02*
X125524761Y-80028628D01*
X125524761Y-80028628D02*
X125143809Y-80028628D01*
X126286666Y-80504819D02*
X126191428Y-80457200D01*
X126191428Y-80457200D02*
X126143809Y-80409580D01*
X126143809Y-80409580D02*
X126096190Y-80314342D01*
X126096190Y-80314342D02*
X126096190Y-80028628D01*
X126096190Y-80028628D02*
X126143809Y-79933390D01*
X126143809Y-79933390D02*
X126191428Y-79885771D01*
X126191428Y-79885771D02*
X126286666Y-79838152D01*
X126286666Y-79838152D02*
X126429523Y-79838152D01*
X126429523Y-79838152D02*
X126524761Y-79885771D01*
X126524761Y-79885771D02*
X126572380Y-79933390D01*
X126572380Y-79933390D02*
X126619999Y-80028628D01*
X126619999Y-80028628D02*
X126619999Y-80314342D01*
X126619999Y-80314342D02*
X126572380Y-80409580D01*
X126572380Y-80409580D02*
X126524761Y-80457200D01*
X126524761Y-80457200D02*
X126429523Y-80504819D01*
X126429523Y-80504819D02*
X126286666Y-80504819D01*
X126953333Y-79838152D02*
X127143809Y-80504819D01*
X127143809Y-80504819D02*
X127334285Y-80028628D01*
X127334285Y-80028628D02*
X127524761Y-80504819D01*
X127524761Y-80504819D02*
X127715237Y-79838152D01*
X128477142Y-80457200D02*
X128381904Y-80504819D01*
X128381904Y-80504819D02*
X128191428Y-80504819D01*
X128191428Y-80504819D02*
X128096190Y-80457200D01*
X128096190Y-80457200D02*
X128048571Y-80361961D01*
X128048571Y-80361961D02*
X128048571Y-79981009D01*
X128048571Y-79981009D02*
X128096190Y-79885771D01*
X128096190Y-79885771D02*
X128191428Y-79838152D01*
X128191428Y-79838152D02*
X128381904Y-79838152D01*
X128381904Y-79838152D02*
X128477142Y-79885771D01*
X128477142Y-79885771D02*
X128524761Y-79981009D01*
X128524761Y-79981009D02*
X128524761Y-80076247D01*
X128524761Y-80076247D02*
X128048571Y-80171485D01*
X128953333Y-80504819D02*
X128953333Y-79838152D01*
X128953333Y-80028628D02*
X129000952Y-79933390D01*
X129000952Y-79933390D02*
X129048571Y-79885771D01*
X129048571Y-79885771D02*
X129143809Y-79838152D01*
X129143809Y-79838152D02*
X129239047Y-79838152D01*
D13*
X162513842Y-52777619D02*
X162574318Y-52596190D01*
X162574318Y-52596190D02*
X162574318Y-52293809D01*
X162574318Y-52293809D02*
X162513842Y-52172857D01*
X162513842Y-52172857D02*
X162453365Y-52112381D01*
X162453365Y-52112381D02*
X162332413Y-52051904D01*
X162332413Y-52051904D02*
X162211461Y-52051904D01*
X162211461Y-52051904D02*
X162090508Y-52112381D01*
X162090508Y-52112381D02*
X162030032Y-52172857D01*
X162030032Y-52172857D02*
X161969556Y-52293809D01*
X161969556Y-52293809D02*
X161909080Y-52535714D01*
X161909080Y-52535714D02*
X161848603Y-52656666D01*
X161848603Y-52656666D02*
X161788127Y-52717143D01*
X161788127Y-52717143D02*
X161667175Y-52777619D01*
X161667175Y-52777619D02*
X161546222Y-52777619D01*
X161546222Y-52777619D02*
X161425270Y-52717143D01*
X161425270Y-52717143D02*
X161364794Y-52656666D01*
X161364794Y-52656666D02*
X161304318Y-52535714D01*
X161304318Y-52535714D02*
X161304318Y-52233333D01*
X161304318Y-52233333D02*
X161364794Y-52051904D01*
X161425270Y-51568095D02*
X161364794Y-51507619D01*
X161364794Y-51507619D02*
X161304318Y-51386666D01*
X161304318Y-51386666D02*
X161304318Y-51084285D01*
X161304318Y-51084285D02*
X161364794Y-50963333D01*
X161364794Y-50963333D02*
X161425270Y-50902857D01*
X161425270Y-50902857D02*
X161546222Y-50842380D01*
X161546222Y-50842380D02*
X161667175Y-50842380D01*
X161667175Y-50842380D02*
X161848603Y-50902857D01*
X161848603Y-50902857D02*
X162574318Y-51628571D01*
X162574318Y-51628571D02*
X162574318Y-50842380D01*
%TO.C,R7*%
D16*
X124362936Y-53345000D02*
X124817064Y-53345000D01*
X124362936Y-54815000D02*
X124817064Y-54815000D01*
%TO.C,R6*%
X151312936Y-73505000D02*
X151767064Y-73505000D01*
X151312936Y-74975000D02*
X151767064Y-74975000D01*
%TO.C,C10*%
X131445000Y-43808752D02*
X131445000Y-43286248D01*
X132915000Y-43808752D02*
X132915000Y-43286248D01*
%TO.C,C2*%
X136305000Y-65568752D02*
X136305000Y-65046248D01*
X137775000Y-65568752D02*
X137775000Y-65046248D01*
%TO.C,IC3*%
D17*
D18*
X136380000Y-37980000D02*
X136379999Y-37980000D01*
X136379999Y-37980000D01*
X136379999Y-37980000D01*
X136379999Y-37980000D01*
X136379999Y-37980000D01*
X136379999Y-37980000D01*
X136379999Y-37980000D01*
X136379999Y-37979999D01*
X136379999Y-37979999D01*
X136379999Y-37979999D01*
X136379999Y-37979999D01*
X136379999Y-37979999D01*
X136380000Y-37979999D01*
X136380000Y-37979999D01*
X136380000Y-37979999D01*
X136380000Y-37979999D01*
X136380000Y-37979999D01*
X136380000Y-37979999D01*
X136380000Y-37979999D01*
X136380000Y-37979999D01*
X136380000Y-37979999D01*
X136380000Y-37979999D01*
X136380000Y-37979999D01*
X136380000Y-37979999D01*
X136380001Y-37979999D01*
X136380001Y-37979999D01*
X136380001Y-37979999D01*
X136380001Y-37979999D01*
X136380001Y-37979999D01*
X136380001Y-37979999D01*
X136380001Y-37980000D01*
X136380001Y-37980000D01*
X136380001Y-37980000D01*
X136380001Y-37980000D01*
X136380001Y-37980000D01*
X136380001Y-37980000D01*
X136380001Y-37980000D01*
X136380000Y-37980000D01*
X136380000Y-37980000D02*
X136380001Y-37980000D01*
X136380001Y-37980000D01*
X136380001Y-37980000D01*
X136380001Y-37980000D01*
X136380001Y-37980000D01*
X136380001Y-37980000D01*
X136380001Y-37980001D01*
X136380001Y-37980001D01*
X136380001Y-37980001D01*
X136380001Y-37980001D01*
X136380001Y-37980001D01*
X136380001Y-37980001D01*
X136380001Y-37980001D01*
X136380000Y-37980001D01*
X136380000Y-37980001D01*
X136380000Y-37980001D01*
X136380000Y-37980001D01*
X136380000Y-37980001D01*
X136380000Y-37980001D01*
X136380000Y-37980001D01*
X136380000Y-37980001D01*
X136380000Y-37980001D01*
X136380000Y-37980001D01*
X136380000Y-37980001D01*
X136380000Y-37980001D01*
X136379999Y-37980001D01*
X136379999Y-37980001D01*
X136379999Y-37980001D01*
X136379999Y-37980001D01*
X136379999Y-37980001D01*
X136379999Y-37980001D01*
X136379999Y-37980000D01*
X136379999Y-37980000D01*
X136379999Y-37980000D01*
X136379999Y-37980000D01*
X136379999Y-37980000D01*
X136379999Y-37980000D01*
X136380000Y-37980000D01*
D17*
D18*
X136480000Y-37980000D02*
X136479999Y-37980000D01*
X136479999Y-37980000D01*
X136479999Y-37980000D01*
X136479999Y-37980000D01*
X136479999Y-37980000D01*
X136479999Y-37980000D01*
X136479999Y-37980000D01*
X136479999Y-37979999D01*
X136479999Y-37979999D01*
X136479999Y-37979999D01*
X136479999Y-37979999D01*
X136479999Y-37979999D01*
X136480000Y-37979999D01*
X136480000Y-37979999D01*
X136480000Y-37979999D01*
X136480000Y-37979999D01*
X136480000Y-37979999D01*
X136480000Y-37979999D01*
X136480000Y-37979999D01*
X136480000Y-37979999D01*
X136480000Y-37979999D01*
X136480000Y-37979999D01*
X136480000Y-37979999D01*
X136480000Y-37979999D01*
X136480001Y-37979999D01*
X136480001Y-37979999D01*
X136480001Y-37979999D01*
X136480001Y-37979999D01*
X136480001Y-37979999D01*
X136480001Y-37979999D01*
X136480001Y-37980000D01*
X136480001Y-37980000D01*
X136480001Y-37980000D01*
X136480001Y-37980000D01*
X136480001Y-37980000D01*
X136480001Y-37980000D01*
X136480001Y-37980000D01*
X136480000Y-37980000D01*
X136480000Y-37980000D02*
X136480001Y-37980000D01*
X136480001Y-37980000D01*
X136480001Y-37980000D01*
X136480001Y-37980000D01*
X136480001Y-37980000D01*
X136480001Y-37980000D01*
X136480001Y-37980001D01*
X136480001Y-37980001D01*
X136480001Y-37980001D01*
X136480001Y-37980001D01*
X136480001Y-37980001D01*
X136480001Y-37980001D01*
X136480001Y-37980001D01*
X136480000Y-37980001D01*
X136480000Y-37980001D01*
X136480000Y-37980001D01*
X136480000Y-37980001D01*
X136480000Y-37980001D01*
X136480000Y-37980001D01*
X136480000Y-37980001D01*
X136480000Y-37980001D01*
X136480000Y-37980001D01*
X136480000Y-37980001D01*
X136480000Y-37980001D01*
X136480000Y-37980001D01*
X136479999Y-37980001D01*
X136479999Y-37980001D01*
X136479999Y-37980001D01*
X136479999Y-37980001D01*
X136479999Y-37980001D01*
X136479999Y-37980001D01*
X136479999Y-37980000D01*
X136479999Y-37980000D01*
X136479999Y-37980000D01*
X136479999Y-37980000D01*
X136479999Y-37980000D01*
X136479999Y-37980000D01*
X136480000Y-37980000D01*
D10*
X137480000Y-36790000D02*
X155480000Y-36790000D01*
X137480000Y-37190000D02*
X137480000Y-36790000D01*
X137480000Y-55190000D02*
X137480000Y-55990000D01*
X137480000Y-55990000D02*
X138680000Y-55990000D01*
X154280000Y-55990000D02*
X155480000Y-55990000D01*
X155480000Y-36790000D02*
X155480000Y-37190000D01*
X155480000Y-55990000D02*
X155480000Y-55190000D01*
D17*
X136380000Y-37980000D02*
G75*
G02*
X136480000Y-37980000I50000J0D01*
G01*
X136480000Y-37980000D02*
G75*
G02*
X136380000Y-37980000I-50000J0D01*
G01*
%TO.C,C3*%
D16*
X117425000Y-38101252D02*
X117425000Y-37578748D01*
X118895000Y-38101252D02*
X118895000Y-37578748D01*
%TO.C,S1*%
D10*
X160150000Y-38520000D02*
X161000000Y-38520000D01*
X160150000Y-42570000D02*
X160150000Y-38520000D01*
X160150000Y-44620000D02*
X160150000Y-44270000D01*
X161000000Y-44620000D02*
X160150000Y-44620000D01*
D17*
D18*
X162000000Y-45470000D02*
X161999999Y-45470000D01*
X161999999Y-45470000D01*
X161999999Y-45470000D01*
X161999999Y-45470000D01*
X161999999Y-45470000D01*
X161999999Y-45470000D01*
X161999999Y-45470000D01*
X161999999Y-45469999D01*
X161999999Y-45469999D01*
X161999999Y-45469999D01*
X161999999Y-45469999D01*
X161999999Y-45469999D01*
X162000000Y-45469999D01*
X162000000Y-45469999D01*
X162000000Y-45469999D01*
X162000000Y-45469999D01*
X162000000Y-45469999D01*
X162000000Y-45469999D01*
X162000000Y-45469999D01*
X162000000Y-45469999D01*
X162000000Y-45469999D01*
X162000000Y-45469999D01*
X162000000Y-45469999D01*
X162000000Y-45469999D01*
X162000001Y-45469999D01*
X162000001Y-45469999D01*
X162000001Y-45469999D01*
X162000001Y-45469999D01*
X162000001Y-45469999D01*
X162000001Y-45469999D01*
X162000001Y-45470000D01*
X162000001Y-45470000D01*
X162000001Y-45470000D01*
X162000001Y-45470000D01*
X162000001Y-45470000D01*
X162000001Y-45470000D01*
X162000001Y-45470000D01*
X162000000Y-45470000D01*
X162000000Y-45470000D02*
X162000001Y-45470000D01*
X162000001Y-45470000D01*
X162000001Y-45470000D01*
X162000001Y-45470000D01*
X162000001Y-45470000D01*
X162000001Y-45470000D01*
X162000001Y-45470001D01*
X162000001Y-45470001D01*
X162000001Y-45470001D01*
X162000001Y-45470001D01*
X162000001Y-45470001D01*
X162000001Y-45470001D01*
X162000001Y-45470001D01*
X162000000Y-45470001D01*
X162000000Y-45470001D01*
X162000000Y-45470001D01*
X162000000Y-45470001D01*
X162000000Y-45470001D01*
X162000000Y-45470001D01*
X162000000Y-45470001D01*
X162000000Y-45470001D01*
X162000000Y-45470001D01*
X162000000Y-45470001D01*
X162000000Y-45470001D01*
X162000000Y-45470001D01*
X161999999Y-45470001D01*
X161999999Y-45470001D01*
X161999999Y-45470001D01*
X161999999Y-45470001D01*
X161999999Y-45470001D01*
X161999999Y-45470001D01*
X161999999Y-45470000D01*
X161999999Y-45470000D01*
X161999999Y-45470000D01*
X161999999Y-45470000D01*
X161999999Y-45470000D01*
X161999999Y-45470000D01*
X162000000Y-45470000D01*
D17*
D18*
X162000000Y-45570000D02*
X161999999Y-45570000D01*
X161999999Y-45570000D01*
X161999999Y-45570000D01*
X161999999Y-45570000D01*
X161999999Y-45570000D01*
X161999999Y-45570000D01*
X161999999Y-45570000D01*
X161999999Y-45569999D01*
X161999999Y-45569999D01*
X161999999Y-45569999D01*
X161999999Y-45569999D01*
X161999999Y-45569999D01*
X162000000Y-45569999D01*
X162000000Y-45569999D01*
X162000000Y-45569999D01*
X162000000Y-45569999D01*
X162000000Y-45569999D01*
X162000000Y-45569999D01*
X162000000Y-45569999D01*
X162000000Y-45569999D01*
X162000000Y-45569999D01*
X162000000Y-45569999D01*
X162000000Y-45569999D01*
X162000000Y-45569999D01*
X162000001Y-45569999D01*
X162000001Y-45569999D01*
X162000001Y-45569999D01*
X162000001Y-45569999D01*
X162000001Y-45569999D01*
X162000001Y-45569999D01*
X162000001Y-45570000D01*
X162000001Y-45570000D01*
X162000001Y-45570000D01*
X162000001Y-45570000D01*
X162000001Y-45570000D01*
X162000001Y-45570000D01*
X162000001Y-45570000D01*
X162000000Y-45570000D01*
X162000000Y-45570000D02*
X162000001Y-45570000D01*
X162000001Y-45570000D01*
X162000001Y-45570000D01*
X162000001Y-45570000D01*
X162000001Y-45570000D01*
X162000001Y-45570000D01*
X162000001Y-45570001D01*
X162000001Y-45570001D01*
X162000001Y-45570001D01*
X162000001Y-45570001D01*
X162000001Y-45570001D01*
X162000001Y-45570001D01*
X162000001Y-45570001D01*
X162000000Y-45570001D01*
X162000000Y-45570001D01*
X162000000Y-45570001D01*
X162000000Y-45570001D01*
X162000000Y-45570001D01*
X162000000Y-45570001D01*
X162000000Y-45570001D01*
X162000000Y-45570001D01*
X162000000Y-45570001D01*
X162000000Y-45570001D01*
X162000000Y-45570001D01*
X162000000Y-45570001D01*
X161999999Y-45570001D01*
X161999999Y-45570001D01*
X161999999Y-45570001D01*
X161999999Y-45570001D01*
X161999999Y-45570001D01*
X161999999Y-45570001D01*
X161999999Y-45570000D01*
X161999999Y-45570000D01*
X161999999Y-45570000D01*
X161999999Y-45570000D01*
X161999999Y-45570000D01*
X161999999Y-45570000D01*
X162000000Y-45570000D01*
D10*
X163850000Y-38520000D02*
X163000000Y-38520000D01*
X163850000Y-38870000D02*
X163850000Y-38520000D01*
X163850000Y-40570000D02*
X163850000Y-44620000D01*
X163850000Y-44620000D02*
X163000000Y-44620000D01*
D17*
X162000000Y-45470000D02*
G75*
G02*
X162000000Y-45570000I0J-50000D01*
G01*
X162000000Y-45570000D02*
G75*
G02*
X162000000Y-45470000I0J50000D01*
G01*
%TO.C,C5*%
D16*
X124915000Y-38101252D02*
X124915000Y-37578748D01*
X126385000Y-38101252D02*
X126385000Y-37578748D01*
%TO.C,C9*%
X126951248Y-48055000D02*
X127473752Y-48055000D01*
X126951248Y-49525000D02*
X127473752Y-49525000D01*
D18*
%TO.C,G1*%
G36*
X123357021Y-67128566D02*
G01*
X123369993Y-67134807D01*
X123413144Y-67177668D01*
X123428345Y-67230314D01*
X123415055Y-67287617D01*
X123390815Y-67324994D01*
X123349940Y-67356489D01*
X123301322Y-67369864D01*
X123256724Y-67363410D01*
X123235474Y-67347766D01*
X123221239Y-67309866D01*
X123218341Y-67255513D01*
X123227157Y-67202050D01*
X123231899Y-67189350D01*
X123264207Y-67149160D01*
X123310281Y-67127171D01*
X123357021Y-67128566D01*
G37*
G36*
X125203894Y-65023282D02*
G01*
X125216882Y-65029525D01*
X125260021Y-65072388D01*
X125275226Y-65125031D01*
X125261933Y-65182337D01*
X125237689Y-65219717D01*
X125196823Y-65251210D01*
X125148194Y-65264586D01*
X125103599Y-65258129D01*
X125082350Y-65242482D01*
X125068126Y-65204587D01*
X125065217Y-65150234D01*
X125074037Y-65096772D01*
X125078776Y-65084071D01*
X125111082Y-65043881D01*
X125157162Y-65021890D01*
X125203894Y-65023282D01*
G37*
G36*
X123156522Y-67588903D02*
G01*
X123190768Y-67592997D01*
X123202430Y-67598206D01*
X123193592Y-67615354D01*
X123169091Y-67656015D01*
X123131982Y-67715318D01*
X123085307Y-67788368D01*
X123044467Y-67851397D01*
X122960503Y-67981926D01*
X122887521Y-68098871D01*
X122827127Y-68199506D01*
X122780908Y-68281086D01*
X122750451Y-68340877D01*
X122737357Y-68376133D01*
X122736963Y-68380042D01*
X122747793Y-68399129D01*
X122777798Y-68397091D01*
X122823240Y-68376283D01*
X122880383Y-68339062D01*
X122945501Y-68287780D01*
X123014850Y-68224785D01*
X123066195Y-68172551D01*
X123108739Y-68130203D01*
X123142687Y-68102099D01*
X123162209Y-68092891D01*
X123164313Y-68094362D01*
X123157012Y-68112056D01*
X123130395Y-68146489D01*
X123088974Y-68192264D01*
X123050014Y-68231653D01*
X122954368Y-68321402D01*
X122876180Y-68386194D01*
X122812540Y-68427753D01*
X122760539Y-68447793D01*
X122717274Y-68448027D01*
X122696658Y-68440596D01*
X122656513Y-68402229D01*
X122634544Y-68341210D01*
X122631858Y-68307626D01*
X122640885Y-68243803D01*
X122668523Y-68162991D01*
X122715611Y-68063513D01*
X122782980Y-67943645D01*
X122871476Y-67801698D01*
X122907818Y-67746137D01*
X123012794Y-67587333D01*
X123107614Y-67587333D01*
X123156522Y-67588903D01*
G37*
G36*
X125003406Y-65483624D02*
G01*
X125037642Y-65487718D01*
X125049316Y-65492934D01*
X125040473Y-65510073D01*
X125015976Y-65550737D01*
X124978860Y-65610036D01*
X124932184Y-65683090D01*
X124891343Y-65746115D01*
X124807379Y-65876641D01*
X124734399Y-65993590D01*
X124674005Y-66094229D01*
X124627786Y-66175813D01*
X124597333Y-66235595D01*
X124584235Y-66270849D01*
X124583845Y-66274764D01*
X124594675Y-66293849D01*
X124624678Y-66291809D01*
X124670116Y-66271005D01*
X124727256Y-66233784D01*
X124792377Y-66182504D01*
X124861727Y-66119503D01*
X124913075Y-66067273D01*
X124955620Y-66024922D01*
X124989565Y-65996823D01*
X125009095Y-65987614D01*
X125011188Y-65989082D01*
X125003890Y-66006774D01*
X124977279Y-66041203D01*
X124935856Y-66086985D01*
X124896889Y-66126369D01*
X124801245Y-66216122D01*
X124723058Y-66280915D01*
X124659418Y-66322471D01*
X124607420Y-66342511D01*
X124564164Y-66342748D01*
X124543534Y-66335311D01*
X124503397Y-66296951D01*
X124481425Y-66235931D01*
X124478739Y-66202350D01*
X124487766Y-66138521D01*
X124515403Y-66057711D01*
X124562495Y-65958230D01*
X124629865Y-65838364D01*
X124718358Y-65696422D01*
X124754697Y-65640857D01*
X124859673Y-65482050D01*
X124954495Y-65482050D01*
X125003406Y-65483624D01*
G37*
G36*
X122768084Y-67567829D02*
G01*
X122767387Y-67597453D01*
X122741286Y-67645870D01*
X122726116Y-67667591D01*
X122681480Y-67736127D01*
X122657910Y-67789336D01*
X122656487Y-67824364D01*
X122663299Y-67833398D01*
X122677508Y-67854066D01*
X122665457Y-67870320D01*
X122630901Y-67877647D01*
X122626367Y-67877717D01*
X122579348Y-67867371D01*
X122539958Y-67843594D01*
X122504068Y-67809475D01*
X122323958Y-67991098D01*
X122249697Y-68066632D01*
X122172345Y-68146402D01*
X122100009Y-68221976D01*
X122040788Y-68284960D01*
X122029258Y-68297449D01*
X121914655Y-68422183D01*
X121816469Y-68422183D01*
X121718282Y-68422183D01*
X121973520Y-68012728D01*
X122040284Y-67906379D01*
X122101883Y-67809682D01*
X122155847Y-67726406D01*
X122199698Y-67660346D01*
X122230937Y-67615280D01*
X122247096Y-67594988D01*
X122248050Y-67594319D01*
X122272926Y-67590312D01*
X122316651Y-67589425D01*
X122352991Y-67590892D01*
X122438639Y-67596409D01*
X122264970Y-67876269D01*
X122211163Y-67963367D01*
X122164135Y-68040213D01*
X122126648Y-68102221D01*
X122101478Y-68144832D01*
X122091379Y-68163456D01*
X122091304Y-68163806D01*
X122101756Y-68157082D01*
X122129198Y-68132130D01*
X122167795Y-68094273D01*
X122169400Y-68092655D01*
X122273735Y-67986551D01*
X122357067Y-67899871D01*
X122422005Y-67829655D01*
X122471186Y-67772930D01*
X122507224Y-67726743D01*
X122532747Y-67688117D01*
X122541482Y-67672468D01*
X122570343Y-67622449D01*
X122598267Y-67592237D01*
X122635560Y-67574167D01*
X122691916Y-67560693D01*
X122743036Y-67555921D01*
X122768084Y-67567829D01*
G37*
G36*
X124870221Y-67567829D02*
G01*
X124869523Y-67597453D01*
X124843425Y-67645870D01*
X124828252Y-67667591D01*
X124783620Y-67736127D01*
X124760051Y-67789336D01*
X124758625Y-67824364D01*
X124765433Y-67833398D01*
X124779651Y-67854066D01*
X124767606Y-67870320D01*
X124733043Y-67877647D01*
X124728509Y-67877717D01*
X124681486Y-67867371D01*
X124642100Y-67843594D01*
X124606210Y-67809475D01*
X124426103Y-67991098D01*
X124351838Y-68066632D01*
X124274488Y-68146402D01*
X124202153Y-68221976D01*
X124142926Y-68284960D01*
X124131394Y-68297449D01*
X124016790Y-68422183D01*
X123918607Y-68422183D01*
X123820422Y-68422183D01*
X124075654Y-68012728D01*
X124142420Y-67906379D01*
X124204023Y-67809682D01*
X124257991Y-67726406D01*
X124301832Y-67660346D01*
X124333077Y-67615280D01*
X124349233Y-67594988D01*
X124350189Y-67594319D01*
X124375066Y-67590312D01*
X124418795Y-67589425D01*
X124455129Y-67590892D01*
X124540779Y-67596409D01*
X124367114Y-67876269D01*
X124313301Y-67963367D01*
X124266269Y-68040213D01*
X124228790Y-68102221D01*
X124203616Y-68144832D01*
X124193514Y-68163456D01*
X124193443Y-68163806D01*
X124203893Y-68157082D01*
X124231340Y-68132130D01*
X124269927Y-68094273D01*
X124271534Y-68092655D01*
X124375874Y-67986551D01*
X124459205Y-67899871D01*
X124524153Y-67829655D01*
X124573327Y-67772930D01*
X124609366Y-67726743D01*
X124634887Y-67688117D01*
X124643617Y-67672468D01*
X124672484Y-67622449D01*
X124700410Y-67592237D01*
X124737697Y-67574167D01*
X124794055Y-67560693D01*
X124845177Y-67555921D01*
X124870221Y-67567829D01*
G37*
G36*
X125820395Y-65464357D02*
G01*
X125850138Y-65495949D01*
X125860112Y-65545764D01*
X125860142Y-65549289D01*
X125851116Y-65609482D01*
X125827563Y-65662851D01*
X125794779Y-65705041D01*
X125758052Y-65731703D01*
X125722668Y-65738484D01*
X125693925Y-65721031D01*
X125681712Y-65695977D01*
X125674390Y-65639633D01*
X125693203Y-65598886D01*
X125739534Y-65570843D01*
X125741748Y-65570028D01*
X125783078Y-65548808D01*
X125799337Y-65522126D01*
X125800079Y-65513104D01*
X125796093Y-65490187D01*
X125778624Y-65483477D01*
X125745175Y-65488074D01*
X125683061Y-65513583D01*
X125606558Y-65567687D01*
X125517767Y-65648664D01*
X125418774Y-65754793D01*
X125414824Y-65759318D01*
X125321706Y-65872528D01*
X125245763Y-65977937D01*
X125188071Y-66073173D01*
X125149742Y-66155872D01*
X125131826Y-66223660D01*
X125135418Y-66274182D01*
X125161588Y-66305050D01*
X125164778Y-66306641D01*
X125207747Y-66309790D01*
X125269695Y-66290460D01*
X125347344Y-66250547D01*
X125437416Y-66191934D01*
X125536634Y-66116538D01*
X125628440Y-66038212D01*
X125674847Y-65998827D01*
X125711915Y-65971436D01*
X125733426Y-65960494D01*
X125735977Y-65961153D01*
X125734091Y-65981958D01*
X125710262Y-66016333D01*
X125668929Y-66060503D01*
X125614527Y-66110691D01*
X125551508Y-66163117D01*
X125484295Y-66214018D01*
X125417331Y-66259608D01*
X125355064Y-66296114D01*
X125324827Y-66310776D01*
X125236532Y-66342442D01*
X125166514Y-66350821D01*
X125110283Y-66336266D01*
X125096017Y-66327875D01*
X125051911Y-66278849D01*
X125026071Y-66207604D01*
X125019277Y-66121458D01*
X125032323Y-66027725D01*
X125055895Y-65956145D01*
X125117351Y-65843336D01*
X125202210Y-65735337D01*
X125303927Y-65637367D01*
X125415955Y-65554668D01*
X125531734Y-65492447D01*
X125644717Y-65455941D01*
X125690761Y-65449464D01*
X125768171Y-65449390D01*
X125820395Y-65464357D01*
G37*
G36*
X123863149Y-65309661D02*
G01*
X123869085Y-65333211D01*
X123854631Y-65374724D01*
X123822091Y-65428464D01*
X123806988Y-65448939D01*
X123787062Y-65477201D01*
X123777526Y-65503353D01*
X123776913Y-65539067D01*
X123783761Y-65596013D01*
X123786297Y-65613763D01*
X123799954Y-65746575D01*
X123801284Y-65864361D01*
X123790382Y-65959828D01*
X123780542Y-65996462D01*
X123736610Y-66083258D01*
X123668791Y-66166482D01*
X123583183Y-66240385D01*
X123485878Y-66299217D01*
X123437592Y-66320124D01*
X123349782Y-66346440D01*
X123282204Y-66350658D01*
X123231340Y-66332855D01*
X123220788Y-66324947D01*
X123196123Y-66290927D01*
X123187585Y-66238153D01*
X123187425Y-66226428D01*
X123197438Y-66156762D01*
X123227133Y-66114095D01*
X123276016Y-66099130D01*
X123277842Y-66099118D01*
X123318873Y-66112135D01*
X123340897Y-66144235D01*
X123342390Y-66184965D01*
X123321811Y-66223873D01*
X123298762Y-66241708D01*
X123267166Y-66267345D01*
X123261447Y-66290312D01*
X123277528Y-66305565D01*
X123311316Y-66308037D01*
X123344887Y-66298829D01*
X123396095Y-66263734D01*
X123453808Y-66198789D01*
X123514723Y-66108468D01*
X123575543Y-65997260D01*
X123591240Y-65964817D01*
X123625510Y-65887045D01*
X123658310Y-65803701D01*
X123687067Y-65722391D01*
X123709267Y-65650714D01*
X123722349Y-65596309D01*
X123724031Y-65567590D01*
X123711499Y-65572354D01*
X123680118Y-65597231D01*
X123633821Y-65638734D01*
X123576577Y-65693367D01*
X123536099Y-65733536D01*
X123472825Y-65796286D01*
X123417050Y-65849853D01*
X123373065Y-65890257D01*
X123345135Y-65913533D01*
X123337860Y-65917623D01*
X123323193Y-65909682D01*
X123335110Y-65886223D01*
X123373276Y-65847813D01*
X123386698Y-65836095D01*
X123472426Y-65758709D01*
X123556709Y-65675290D01*
X123634285Y-65591644D01*
X123699875Y-65513588D01*
X123748209Y-65446924D01*
X123763738Y-65420662D01*
X123800048Y-65355509D01*
X123826315Y-65318256D01*
X123846356Y-65304625D01*
X123863149Y-65309661D01*
G37*
G36*
X125334650Y-67414947D02*
G01*
X125340584Y-67438486D01*
X125326115Y-67480008D01*
X125293586Y-67533742D01*
X125278484Y-67554217D01*
X125258561Y-67582481D01*
X125249022Y-67608635D01*
X125248411Y-67644348D01*
X125255259Y-67701294D01*
X125257795Y-67719048D01*
X125271457Y-67851851D01*
X125272778Y-67969647D01*
X125261880Y-68065108D01*
X125252030Y-68101742D01*
X125208098Y-68188535D01*
X125140287Y-68271762D01*
X125054680Y-68345668D01*
X124957375Y-68404499D01*
X124909084Y-68425401D01*
X124821275Y-68451715D01*
X124753703Y-68455937D01*
X124702834Y-68438136D01*
X124692291Y-68430230D01*
X124667625Y-68396204D01*
X124659082Y-68343434D01*
X124658919Y-68331705D01*
X124668930Y-68262041D01*
X124698631Y-68219372D01*
X124747524Y-68204406D01*
X124749334Y-68204392D01*
X124790365Y-68217419D01*
X124812392Y-68249520D01*
X124813877Y-68290238D01*
X124793312Y-68329154D01*
X124770267Y-68346984D01*
X124738663Y-68372625D01*
X124732949Y-68395593D01*
X124749025Y-68410843D01*
X124782807Y-68413315D01*
X124816378Y-68404117D01*
X124867592Y-68369009D01*
X124925306Y-68304064D01*
X124986216Y-68213750D01*
X125047036Y-68102543D01*
X125062731Y-68070092D01*
X125097006Y-67992324D01*
X125129799Y-67908976D01*
X125158565Y-67827667D01*
X125180762Y-67755997D01*
X125193846Y-67701587D01*
X125195528Y-67672868D01*
X125182999Y-67677633D01*
X125151610Y-67702512D01*
X125105319Y-67744012D01*
X125048078Y-67798646D01*
X125007595Y-67838810D01*
X124944318Y-67901564D01*
X124888548Y-67955133D01*
X124844560Y-67995538D01*
X124816637Y-68018813D01*
X124809358Y-68022904D01*
X124794693Y-68014961D01*
X124806609Y-67991504D01*
X124844776Y-67953087D01*
X124858189Y-67941379D01*
X124943918Y-67863989D01*
X125028212Y-67780568D01*
X125105779Y-67696924D01*
X125171370Y-67618870D01*
X125219700Y-67552211D01*
X125235231Y-67525941D01*
X125271544Y-67460790D01*
X125297800Y-67423538D01*
X125317852Y-67409906D01*
X125334650Y-67414947D01*
G37*
G36*
X122540157Y-64884655D02*
G01*
X122574738Y-64888615D01*
X122586805Y-64893746D01*
X122578117Y-64911267D01*
X122554345Y-64951670D01*
X122518918Y-65009265D01*
X122475304Y-65078373D01*
X122466687Y-65091848D01*
X122421802Y-65163339D01*
X122384542Y-65225415D01*
X122358388Y-65272069D01*
X122346828Y-65297306D01*
X122346565Y-65299028D01*
X122360660Y-65310519D01*
X122399575Y-65317327D01*
X122436656Y-65318711D01*
X122484642Y-65321468D01*
X122517181Y-65328663D01*
X122526751Y-65336859D01*
X122512744Y-65345942D01*
X122474746Y-65352421D01*
X122418741Y-65355335D01*
X122410381Y-65355401D01*
X122294014Y-65355791D01*
X122233952Y-65457441D01*
X122205085Y-65504906D01*
X122161931Y-65574121D01*
X122108768Y-65658293D01*
X122049866Y-65750640D01*
X121996468Y-65833641D01*
X121913676Y-65963102D01*
X121849242Y-66067353D01*
X121802056Y-66148798D01*
X121771012Y-66209867D01*
X121754997Y-66252972D01*
X121752903Y-66280539D01*
X121763624Y-66294979D01*
X121783431Y-66298754D01*
X121806962Y-66288222D01*
X121848351Y-66259689D01*
X121901972Y-66217771D01*
X121962181Y-66167070D01*
X122023354Y-66112203D01*
X122079849Y-66057787D01*
X122087626Y-66049879D01*
X122129591Y-66010384D01*
X122164249Y-65983963D01*
X122184236Y-65976245D01*
X122184408Y-65976309D01*
X122181136Y-65989587D01*
X122158488Y-66019792D01*
X122121155Y-66062183D01*
X122073848Y-66111989D01*
X122021250Y-66164465D01*
X121968073Y-66214843D01*
X121918999Y-66258362D01*
X121878735Y-66290267D01*
X121866148Y-66298711D01*
X121795140Y-66329652D01*
X121734284Y-66329852D01*
X121686447Y-66299336D01*
X121684095Y-66296589D01*
X121661015Y-66246842D01*
X121659402Y-66178580D01*
X121679570Y-66090969D01*
X121721809Y-65983179D01*
X121786423Y-65854379D01*
X121873719Y-65703747D01*
X121932906Y-65609097D01*
X122089558Y-65364081D01*
X122022864Y-65358553D01*
X121976341Y-65350681D01*
X121958131Y-65339439D01*
X121967021Y-65328217D01*
X122001823Y-65320381D01*
X122037025Y-65318711D01*
X122117870Y-65318711D01*
X122256475Y-65100922D01*
X122395074Y-64883134D01*
X122490942Y-64883134D01*
X122540157Y-64884655D01*
G37*
G36*
X124822475Y-64884655D02*
G01*
X124857067Y-64888615D01*
X124869132Y-64893746D01*
X124860440Y-64911267D01*
X124836658Y-64951670D01*
X124801239Y-65009265D01*
X124757627Y-65078373D01*
X124749010Y-65091848D01*
X124704127Y-65163339D01*
X124666869Y-65225415D01*
X124640720Y-65272069D01*
X124629158Y-65297306D01*
X124628885Y-65299028D01*
X124642984Y-65310519D01*
X124681903Y-65317327D01*
X124718980Y-65318711D01*
X124766975Y-65321468D01*
X124799501Y-65328663D01*
X124809071Y-65336859D01*
X124795070Y-65345942D01*
X124757067Y-65352421D01*
X124701063Y-65355335D01*
X124692702Y-65355401D01*
X124576335Y-65355791D01*
X124516275Y-65457441D01*
X124487411Y-65504906D01*
X124444254Y-65574121D01*
X124391081Y-65658293D01*
X124332186Y-65750640D01*
X124278786Y-65833641D01*
X124196004Y-65963102D01*
X124131563Y-66067353D01*
X124084378Y-66148798D01*
X124053329Y-66209867D01*
X124037319Y-66252972D01*
X124035223Y-66280539D01*
X124045946Y-66294979D01*
X124065750Y-66298754D01*
X124089288Y-66288222D01*
X124130684Y-66259689D01*
X124184292Y-66217771D01*
X124244505Y-66167070D01*
X124305674Y-66112203D01*
X124362165Y-66057787D01*
X124369955Y-66049879D01*
X124411911Y-66010384D01*
X124446578Y-65983963D01*
X124466550Y-65976245D01*
X124466728Y-65976309D01*
X124463461Y-65989587D01*
X124440814Y-66019792D01*
X124403483Y-66062183D01*
X124356171Y-66111989D01*
X124303572Y-66164465D01*
X124250386Y-66214843D01*
X124201316Y-66258362D01*
X124161054Y-66290267D01*
X124148470Y-66298711D01*
X124077457Y-66329652D01*
X124016603Y-66329852D01*
X123968769Y-66299336D01*
X123966422Y-66296589D01*
X123943338Y-66246842D01*
X123941724Y-66178580D01*
X123961883Y-66090969D01*
X124004132Y-65983179D01*
X124068747Y-65854379D01*
X124156033Y-65703747D01*
X124215228Y-65609097D01*
X124371871Y-65364081D01*
X124305180Y-65358553D01*
X124258663Y-65350681D01*
X124240448Y-65339439D01*
X124249346Y-65328217D01*
X124284137Y-65320381D01*
X124319338Y-65318711D01*
X124400192Y-65318711D01*
X124538796Y-65100922D01*
X124677398Y-64883134D01*
X124773264Y-64883134D01*
X124822475Y-64884655D01*
G37*
G36*
X120734185Y-67561058D02*
G01*
X120774279Y-67588274D01*
X120794787Y-67639321D01*
X120795229Y-67711876D01*
X120775118Y-67803614D01*
X120743597Y-67889989D01*
X120719855Y-67948013D01*
X120708958Y-67982549D01*
X120709751Y-68002227D01*
X120721075Y-68015671D01*
X120726275Y-68019721D01*
X120763997Y-68036775D01*
X120792280Y-68041055D01*
X120820596Y-68047238D01*
X120830025Y-68059207D01*
X120817218Y-68072625D01*
X120785552Y-68076752D01*
X120745156Y-68071792D01*
X120706153Y-68057940D01*
X120703870Y-68056712D01*
X120678232Y-68046778D01*
X120657700Y-68055155D01*
X120632258Y-68087056D01*
X120625137Y-68097549D01*
X120533555Y-68218714D01*
X120436915Y-68318676D01*
X120339537Y-68393877D01*
X120245717Y-68440779D01*
X120192373Y-68453929D01*
X120147094Y-68456577D01*
X120115916Y-68444736D01*
X120083715Y-68412177D01*
X120079978Y-68407690D01*
X120051630Y-68367629D01*
X120046008Y-68350746D01*
X120136662Y-68350746D01*
X120142524Y-68394802D01*
X120168344Y-68416675D01*
X120211831Y-68415741D01*
X120270690Y-68391364D01*
X120342626Y-68342928D01*
X120348137Y-68338584D01*
X120396545Y-68295090D01*
X120455497Y-68234871D01*
X120515286Y-68168033D01*
X120540976Y-68137142D01*
X120593295Y-68070108D01*
X120626527Y-68020846D01*
X120644185Y-67983239D01*
X120649805Y-67951184D01*
X120649837Y-67948285D01*
X120664199Y-67865306D01*
X120705217Y-67784827D01*
X120731002Y-67752046D01*
X120758435Y-67707759D01*
X120769206Y-67661942D01*
X120762002Y-67625455D01*
X120747742Y-67612188D01*
X120713660Y-67613691D01*
X120663655Y-67639089D01*
X120601924Y-67685350D01*
X120532657Y-67749434D01*
X120477448Y-67808309D01*
X120404515Y-67895412D01*
X120332435Y-67990029D01*
X120265913Y-68085251D01*
X120209645Y-68174163D01*
X120168343Y-68249858D01*
X120153039Y-68285136D01*
X120136662Y-68350746D01*
X120046008Y-68350746D01*
X120038076Y-68326919D01*
X120034260Y-68269106D01*
X120034215Y-68258341D01*
X120048359Y-68151139D01*
X120088285Y-68041545D01*
X120150238Y-67933653D01*
X120230439Y-67831569D01*
X120325134Y-67739395D01*
X120430561Y-67661229D01*
X120542951Y-67601174D01*
X120658546Y-67563329D01*
X120674983Y-67559996D01*
X120734185Y-67561058D01*
G37*
G36*
X119442320Y-64453118D02*
G01*
X119625323Y-64480804D01*
X119680451Y-64491476D01*
X119832430Y-64520280D01*
X119958808Y-64539955D01*
X120062996Y-64550725D01*
X120148410Y-64552825D01*
X120218463Y-64546474D01*
X120276563Y-64531907D01*
X120277157Y-64531697D01*
X120330367Y-64513384D01*
X120361012Y-64504624D01*
X120375281Y-64504537D01*
X120379383Y-64512247D01*
X120379564Y-64517206D01*
X120366286Y-64535966D01*
X120331104Y-64560999D01*
X120281020Y-64588674D01*
X120223020Y-64615385D01*
X120164106Y-64637493D01*
X120127008Y-64648072D01*
X120031587Y-64661367D01*
X119913685Y-64662537D01*
X119778976Y-64652054D01*
X119633158Y-64630392D01*
X119481899Y-64598007D01*
X119463637Y-64593422D01*
X119337564Y-64562523D01*
X119235496Y-64540935D01*
X119152479Y-64528278D01*
X119083582Y-64524189D01*
X119023851Y-64528290D01*
X118968341Y-64540206D01*
X118928744Y-64553230D01*
X118812963Y-64608329D01*
X118709020Y-64682102D01*
X118622184Y-64769727D01*
X118557744Y-64866385D01*
X118537963Y-64910231D01*
X118509654Y-65012859D01*
X118504128Y-65109318D01*
X118520510Y-65193819D01*
X118557923Y-65260559D01*
X118595507Y-65293214D01*
X118649930Y-65312914D01*
X118723190Y-65320094D01*
X118806200Y-65315555D01*
X118889855Y-65300107D01*
X118965080Y-65274565D01*
X118998157Y-65257369D01*
X119136200Y-65153779D01*
X119257240Y-65021287D01*
X119315676Y-64937940D01*
X119359272Y-64874012D01*
X119393296Y-64831654D01*
X119415649Y-64812160D01*
X119424254Y-64816833D01*
X119417017Y-64846970D01*
X119401032Y-64884720D01*
X119355959Y-64965402D01*
X119294392Y-65054189D01*
X119225141Y-65139790D01*
X119157016Y-65210932D01*
X119124446Y-65238862D01*
X119018788Y-65305016D01*
X118904007Y-65350011D01*
X118787954Y-65372064D01*
X118678491Y-65369422D01*
X118615271Y-65353856D01*
X118561971Y-65321609D01*
X118511770Y-65269632D01*
X118476398Y-65210673D01*
X118471694Y-65197785D01*
X118457510Y-65111596D01*
X118461075Y-65011469D01*
X118481306Y-64911747D01*
X118496473Y-64868594D01*
X118550022Y-64770397D01*
X118626440Y-64682918D01*
X118728799Y-64602828D01*
X118763386Y-64580760D01*
X118881650Y-64518397D01*
X119004492Y-64474852D01*
X119136092Y-64449736D01*
X119280639Y-64442625D01*
X119442320Y-64453118D01*
G37*
G36*
X119967857Y-66558396D02*
G01*
X120150861Y-66586081D01*
X120205982Y-66596753D01*
X120357964Y-66625565D01*
X120484338Y-66645239D01*
X120588529Y-66656009D01*
X120673943Y-66658100D01*
X120743997Y-66651752D01*
X120802099Y-66637189D01*
X120802695Y-66636980D01*
X120855901Y-66618659D01*
X120886545Y-66609904D01*
X120900819Y-66609814D01*
X120904921Y-66617530D01*
X120905102Y-66622490D01*
X120891817Y-66641246D01*
X120856643Y-66666275D01*
X120806556Y-66693954D01*
X120748559Y-66720659D01*
X120689638Y-66742773D01*
X120652541Y-66753348D01*
X120557125Y-66766646D01*
X120439220Y-66767817D01*
X120304515Y-66757336D01*
X120158691Y-66735669D01*
X120007432Y-66703287D01*
X119989173Y-66698700D01*
X119863100Y-66667801D01*
X119761031Y-66646213D01*
X119678015Y-66633555D01*
X119609118Y-66629466D01*
X119549390Y-66633566D01*
X119493880Y-66645488D01*
X119454279Y-66658507D01*
X119338499Y-66713610D01*
X119234555Y-66787380D01*
X119147722Y-66875008D01*
X119083283Y-66971664D01*
X119063499Y-67015507D01*
X119035193Y-67118141D01*
X119029660Y-67214597D01*
X119046043Y-67299098D01*
X119083462Y-67365847D01*
X119121040Y-67398494D01*
X119175466Y-67418195D01*
X119248729Y-67425371D01*
X119331734Y-67420838D01*
X119415392Y-67405392D01*
X119490615Y-67379845D01*
X119523699Y-67362648D01*
X119661734Y-67259058D01*
X119782773Y-67126567D01*
X119841213Y-67043216D01*
X119884815Y-66979295D01*
X119918834Y-66936934D01*
X119941190Y-66917441D01*
X119949791Y-66922108D01*
X119942549Y-66952248D01*
X119926567Y-66990000D01*
X119881497Y-67070683D01*
X119819931Y-67159474D01*
X119750675Y-67245072D01*
X119682555Y-67316211D01*
X119649979Y-67344145D01*
X119544324Y-67410296D01*
X119429544Y-67455292D01*
X119313493Y-67477349D01*
X119204027Y-67474701D01*
X119140803Y-67459133D01*
X119087503Y-67426887D01*
X119037305Y-67374916D01*
X119001933Y-67315953D01*
X118997228Y-67303064D01*
X118983043Y-67216875D01*
X118986612Y-67116747D01*
X119006840Y-67017027D01*
X119022006Y-66973874D01*
X119075560Y-66875673D01*
X119151974Y-66788196D01*
X119254332Y-66708113D01*
X119288920Y-66686034D01*
X119407189Y-66623675D01*
X119530033Y-66580132D01*
X119661627Y-66555014D01*
X119806173Y-66547905D01*
X119967857Y-66558396D01*
G37*
G36*
X123960619Y-67578660D02*
G01*
X123980223Y-67590964D01*
X123998463Y-67636313D01*
X123992027Y-67692587D01*
X123962291Y-67752628D01*
X123945163Y-67774927D01*
X123906302Y-67811361D01*
X123846508Y-67856526D01*
X123772845Y-67906005D01*
X123692367Y-67955370D01*
X123612120Y-68000190D01*
X123539172Y-68036036D01*
X123508923Y-68048717D01*
X123449292Y-68081997D01*
X123395519Y-68130290D01*
X123350482Y-68187884D01*
X123317083Y-68249061D01*
X123298193Y-68308107D01*
X123296709Y-68359309D01*
X123315501Y-68396944D01*
X123328319Y-68406378D01*
X123374827Y-68415330D01*
X123440324Y-68404850D01*
X123519805Y-68377297D01*
X123608262Y-68335049D01*
X123700673Y-68280463D01*
X123792027Y-68215908D01*
X123869633Y-68150852D01*
X123915524Y-68111548D01*
X123952082Y-68085241D01*
X123973253Y-68076104D01*
X123975823Y-68077549D01*
X123970141Y-68098743D01*
X123942562Y-68133123D01*
X123897726Y-68176890D01*
X123840283Y-68226278D01*
X123774878Y-68277497D01*
X123706140Y-68326752D01*
X123638734Y-68370258D01*
X123577299Y-68404241D01*
X123571609Y-68406993D01*
X123511438Y-68428403D01*
X123438724Y-68443956D01*
X123365429Y-68451981D01*
X123303477Y-68450836D01*
X123283134Y-68447069D01*
X123250818Y-68428030D01*
X123216691Y-68393969D01*
X123215566Y-68392531D01*
X123189408Y-68335003D01*
X123179481Y-68257685D01*
X123185996Y-68171493D01*
X123209161Y-68087348D01*
X123209527Y-68086431D01*
X123243902Y-68022264D01*
X123450184Y-68022264D01*
X123532751Y-67993319D01*
X123589124Y-67969824D01*
X123656987Y-67936254D01*
X123720440Y-67900578D01*
X123822928Y-67831614D01*
X123895997Y-67766881D01*
X123940021Y-67706016D01*
X123950549Y-67679458D01*
X123959509Y-67635014D01*
X123949758Y-67612855D01*
X123916516Y-67605755D01*
X123901694Y-67605483D01*
X123851386Y-67620221D01*
X123785650Y-67663568D01*
X123706060Y-67734211D01*
X123614191Y-67830836D01*
X123571084Y-67880303D01*
X123450184Y-68022264D01*
X123243902Y-68022264D01*
X123255256Y-68001049D01*
X123323590Y-67910592D01*
X123408445Y-67820758D01*
X123503760Y-67737268D01*
X123603465Y-67665820D01*
X123701479Y-67612140D01*
X123723955Y-67602581D01*
X123788165Y-67582844D01*
X123854541Y-67572033D01*
X123914789Y-67570509D01*
X123960619Y-67578660D01*
G37*
G36*
X120292002Y-65478314D02*
G01*
X120318974Y-65523132D01*
X120323461Y-65551393D01*
X120326309Y-65576390D01*
X120334195Y-65577854D01*
X120352834Y-65553725D01*
X120364340Y-65536812D01*
X120387372Y-65505776D01*
X120409544Y-65489423D01*
X120440846Y-65483884D01*
X120491269Y-65485300D01*
X120496721Y-65485611D01*
X120590810Y-65491126D01*
X120415134Y-65763361D01*
X120320515Y-65912026D01*
X120244486Y-66035957D01*
X120187327Y-66134628D01*
X120149336Y-66207535D01*
X120130798Y-66254158D01*
X120129406Y-66270396D01*
X120148051Y-66286741D01*
X120184712Y-66279760D01*
X120236044Y-66251656D01*
X120298700Y-66204607D01*
X120369337Y-66140804D01*
X120441730Y-66065638D01*
X120497876Y-66007414D01*
X120535749Y-65977136D01*
X120555895Y-65974441D01*
X120559747Y-65988018D01*
X120547667Y-66013941D01*
X120514898Y-66053791D01*
X120466602Y-66103081D01*
X120407972Y-66157345D01*
X120344192Y-66212080D01*
X120280437Y-66262825D01*
X120221887Y-66305083D01*
X120173738Y-66334376D01*
X120146538Y-66345389D01*
X120086614Y-66343474D01*
X120038662Y-66312774D01*
X120007190Y-66259663D01*
X119996722Y-66190516D01*
X120002757Y-66142340D01*
X120016858Y-66080634D01*
X119940920Y-66160921D01*
X119852441Y-66243358D01*
X119765915Y-66303087D01*
X119685382Y-66338190D01*
X119614913Y-66346765D01*
X119571831Y-66335008D01*
X119543911Y-66307369D01*
X119518296Y-66261084D01*
X119513783Y-66249241D01*
X119512343Y-66240210D01*
X119612753Y-66240210D01*
X119615501Y-66289979D01*
X119624595Y-66305771D01*
X119648588Y-66311591D01*
X119691699Y-66300841D01*
X119747168Y-66275359D01*
X119757520Y-66269594D01*
X119811888Y-66229642D01*
X119878484Y-66167108D01*
X119952400Y-66088090D01*
X120028692Y-65998666D01*
X120102453Y-65904935D01*
X120168759Y-65812984D01*
X120222677Y-65728900D01*
X120259293Y-65658779D01*
X120266726Y-65639767D01*
X120285441Y-65577357D01*
X120287466Y-65540242D01*
X120271510Y-65522546D01*
X120239858Y-65518353D01*
X120184062Y-65533077D01*
X120114971Y-65577606D01*
X120031861Y-65652477D01*
X119960378Y-65728338D01*
X119844101Y-65863316D01*
X119750764Y-65982727D01*
X119680814Y-66085844D01*
X119634669Y-66171918D01*
X119612753Y-66240210D01*
X119512343Y-66240210D01*
X119500245Y-66164668D01*
X119511787Y-66067030D01*
X119547546Y-65961496D01*
X119570264Y-65914758D01*
X119642426Y-65805251D01*
X119736756Y-65701357D01*
X119845923Y-65608675D01*
X119962607Y-65532807D01*
X120079456Y-65479348D01*
X120170509Y-65456123D01*
X120242190Y-65455778D01*
X120292002Y-65478314D01*
G37*
G36*
X122979740Y-65478314D02*
G01*
X123006701Y-65523132D01*
X123011197Y-65551393D01*
X123014045Y-65576390D01*
X123021930Y-65577854D01*
X123040569Y-65553725D01*
X123052079Y-65536812D01*
X123075106Y-65505776D01*
X123097280Y-65489423D01*
X123128579Y-65483884D01*
X123179004Y-65485300D01*
X123184458Y-65485611D01*
X123278545Y-65491126D01*
X123102866Y-65763361D01*
X123008251Y-65912026D01*
X122932218Y-66035957D01*
X122875062Y-66134628D01*
X122837072Y-66207535D01*
X122818537Y-66254158D01*
X122817137Y-66270396D01*
X122835789Y-66286741D01*
X122872446Y-66279760D01*
X122923775Y-66251656D01*
X122986436Y-66204607D01*
X123057067Y-66140804D01*
X123129465Y-66065638D01*
X123185608Y-66007414D01*
X123223484Y-65977136D01*
X123243629Y-65974441D01*
X123247486Y-65988018D01*
X123235400Y-66013941D01*
X123202629Y-66053791D01*
X123154334Y-66103081D01*
X123095704Y-66157345D01*
X123031920Y-66212080D01*
X122968174Y-66262825D01*
X122909623Y-66305083D01*
X122861467Y-66334376D01*
X122834279Y-66345389D01*
X122774349Y-66343474D01*
X122726393Y-66312774D01*
X122694922Y-66259663D01*
X122684451Y-66190516D01*
X122690489Y-66142340D01*
X122704586Y-66080634D01*
X122628654Y-66160921D01*
X122540174Y-66243358D01*
X122453649Y-66303087D01*
X122373119Y-66338190D01*
X122302643Y-66346765D01*
X122259566Y-66335008D01*
X122231643Y-66307369D01*
X122206024Y-66261084D01*
X122201519Y-66249241D01*
X122200074Y-66240210D01*
X122300485Y-66240210D01*
X122303231Y-66289979D01*
X122312331Y-66305771D01*
X122336316Y-66311591D01*
X122379433Y-66300841D01*
X122434903Y-66275359D01*
X122445249Y-66269594D01*
X122499617Y-66229642D01*
X122566224Y-66167108D01*
X122640125Y-66088090D01*
X122716424Y-65998666D01*
X122790192Y-65904935D01*
X122856492Y-65812984D01*
X122910414Y-65728900D01*
X122947023Y-65658779D01*
X122954460Y-65639767D01*
X122973179Y-65577357D01*
X122975205Y-65540242D01*
X122959245Y-65522546D01*
X122927595Y-65518353D01*
X122871798Y-65533077D01*
X122802703Y-65577606D01*
X122719596Y-65652477D01*
X122648103Y-65728338D01*
X122531832Y-65863316D01*
X122438501Y-65982727D01*
X122368547Y-66085844D01*
X122322396Y-66171918D01*
X122300485Y-66240210D01*
X122200074Y-66240210D01*
X122187977Y-66164668D01*
X122199520Y-66067030D01*
X122235276Y-65961496D01*
X122257996Y-65914758D01*
X122330154Y-65805251D01*
X122424487Y-65701357D01*
X122533658Y-65608675D01*
X122650335Y-65532807D01*
X122767189Y-65479348D01*
X122858242Y-65456123D01*
X122929923Y-65455778D01*
X122979740Y-65478314D01*
G37*
G36*
X121450512Y-65473319D02*
G01*
X121489418Y-65506195D01*
X121509191Y-65567000D01*
X121511817Y-65618171D01*
X121503740Y-65683680D01*
X121480262Y-65753669D01*
X121439019Y-65833058D01*
X121377618Y-65926770D01*
X121332958Y-65988114D01*
X121270410Y-66074071D01*
X121217495Y-66151392D01*
X121177120Y-66215480D01*
X121152204Y-66261756D01*
X121145350Y-66283330D01*
X121158346Y-66294388D01*
X121188063Y-66298754D01*
X121229373Y-66286288D01*
X121288896Y-66250359D01*
X121363613Y-66193190D01*
X121450514Y-66117008D01*
X121504419Y-66065843D01*
X121561971Y-66011739D01*
X121599907Y-65981013D01*
X121620431Y-65972134D01*
X121625836Y-65981196D01*
X121614939Y-65999114D01*
X121585890Y-66033650D01*
X121544135Y-66078941D01*
X121495124Y-66129163D01*
X121444299Y-66178485D01*
X121425241Y-66196145D01*
X121336250Y-66270023D01*
X121258227Y-66317973D01*
X121184814Y-66343744D01*
X121169711Y-66346636D01*
X121123973Y-66350478D01*
X121093841Y-66340177D01*
X121070317Y-66316969D01*
X121049654Y-66284925D01*
X121041808Y-66246908D01*
X121043757Y-66188262D01*
X121043785Y-66187922D01*
X121053284Y-66129479D01*
X121074125Y-66067353D01*
X121108666Y-65997143D01*
X121159272Y-65914456D01*
X121228291Y-65814902D01*
X121286338Y-65736138D01*
X121349338Y-65648987D01*
X121390692Y-65583881D01*
X121411239Y-65538814D01*
X121411827Y-65511752D01*
X121393298Y-65500706D01*
X121385091Y-65500199D01*
X121333208Y-65514033D01*
X121266272Y-65553362D01*
X121187566Y-65614920D01*
X121100369Y-65695465D01*
X121007968Y-65791741D01*
X120913650Y-65900487D01*
X120820680Y-66018450D01*
X120732351Y-66142380D01*
X120721815Y-66158100D01*
X120616185Y-66316903D01*
X120512037Y-66316903D01*
X120458005Y-66316233D01*
X120428806Y-66312878D01*
X120419246Y-66304832D01*
X120424126Y-66290099D01*
X120427516Y-66284269D01*
X120441693Y-66261558D01*
X120471598Y-66214279D01*
X120514600Y-66146575D01*
X120568060Y-66062587D01*
X120629341Y-65966449D01*
X120692932Y-65866841D01*
X120938723Y-65482050D01*
X121034525Y-65482050D01*
X121083720Y-65483065D01*
X121118290Y-65485715D01*
X121130335Y-65489151D01*
X121121556Y-65505791D01*
X121098812Y-65541677D01*
X121074020Y-65578702D01*
X121037177Y-65635549D01*
X121004101Y-65691420D01*
X120989782Y-65718450D01*
X120979757Y-65741593D01*
X120981092Y-65749511D01*
X120996790Y-65740401D01*
X121029854Y-65712481D01*
X121083293Y-65663944D01*
X121087378Y-65660184D01*
X121175122Y-65582998D01*
X121247335Y-65528373D01*
X121309439Y-65492890D01*
X121366889Y-65473124D01*
X121392527Y-65468464D01*
X121450512Y-65473319D01*
G37*
G36*
X121327511Y-67588861D02*
G01*
X121355259Y-67594288D01*
X121362206Y-67604895D01*
X121360061Y-67611128D01*
X121347098Y-67632935D01*
X121318993Y-67677922D01*
X121279136Y-67740713D01*
X121230941Y-67815945D01*
X121196237Y-67869753D01*
X121109813Y-68005319D01*
X121036944Y-68123554D01*
X120978836Y-68222334D01*
X120936727Y-68299519D01*
X120911822Y-68352977D01*
X120905102Y-68377960D01*
X120916098Y-68400871D01*
X120947510Y-68400942D01*
X120996975Y-68378964D01*
X121062109Y-68335741D01*
X121087109Y-68316585D01*
X121156380Y-68258519D01*
X121220149Y-68196795D01*
X121282991Y-68125927D01*
X121349493Y-68040437D01*
X121424240Y-67934841D01*
X121496811Y-67826491D01*
X121548433Y-67749294D01*
X121594626Y-67682490D01*
X121631722Y-67631179D01*
X121656092Y-67600462D01*
X121662914Y-67594111D01*
X121687573Y-67590205D01*
X121731053Y-67589415D01*
X121766353Y-67590892D01*
X121850953Y-67596409D01*
X121674092Y-67869891D01*
X121583911Y-68010602D01*
X121512093Y-68125820D01*
X121457570Y-68217719D01*
X121419277Y-68288479D01*
X121396151Y-68340275D01*
X121387122Y-68375296D01*
X121391123Y-68395716D01*
X121407095Y-68403716D01*
X121412900Y-68404037D01*
X121445003Y-68393040D01*
X121493968Y-68363149D01*
X121553777Y-68318975D01*
X121618397Y-68265135D01*
X121681838Y-68206253D01*
X121716051Y-68171245D01*
X121760310Y-68126936D01*
X121797355Y-68095203D01*
X121820699Y-68081436D01*
X121823804Y-68081494D01*
X121822407Y-68095316D01*
X121801111Y-68125602D01*
X121764498Y-68167787D01*
X121717138Y-68217301D01*
X121663612Y-68269572D01*
X121608487Y-68320025D01*
X121556342Y-68364081D01*
X121511757Y-68397187D01*
X121501258Y-68403857D01*
X121433343Y-68440449D01*
X121382802Y-68455238D01*
X121343184Y-68448475D01*
X121308018Y-68420418D01*
X121300444Y-68411662D01*
X121276146Y-68376455D01*
X121267503Y-68340411D01*
X121270582Y-68286649D01*
X121270808Y-68284625D01*
X121274605Y-68236668D01*
X121273701Y-68207988D01*
X121271674Y-68204392D01*
X121256886Y-68215071D01*
X121225470Y-68243239D01*
X121183853Y-68283104D01*
X121178118Y-68288753D01*
X121125520Y-68336114D01*
X121067157Y-68381424D01*
X121010263Y-68419827D01*
X120962072Y-68446501D01*
X120929811Y-68456598D01*
X120927623Y-68456496D01*
X120902591Y-68450717D01*
X120875071Y-68442293D01*
X120841951Y-68417414D01*
X120816469Y-68376866D01*
X120804756Y-68319185D01*
X120811526Y-68248558D01*
X120837592Y-68162929D01*
X120883781Y-68060235D01*
X120950917Y-67938418D01*
X121039810Y-67795434D01*
X121061910Y-67761626D01*
X121176708Y-67587333D01*
X121274383Y-67587333D01*
X121327511Y-67588861D01*
G37*
G36*
X119834303Y-64708046D02*
G01*
X119827862Y-64724416D01*
X119803682Y-64761581D01*
X119765233Y-64814648D01*
X119715972Y-64878713D01*
X119694507Y-64905713D01*
X119640668Y-64975856D01*
X119585165Y-65053374D01*
X119531204Y-65133144D01*
X119481982Y-65210071D01*
X119440686Y-65279039D01*
X119410524Y-65334938D01*
X119394684Y-65372651D01*
X119394158Y-65385978D01*
X119416254Y-65389561D01*
X119454593Y-65375639D01*
X119501372Y-65348485D01*
X119548815Y-65312381D01*
X119576535Y-65285899D01*
X119633069Y-65232311D01*
X119676839Y-65204653D01*
X119705591Y-65204125D01*
X119712664Y-65212317D01*
X119713117Y-65235712D01*
X119692714Y-65267941D01*
X119649314Y-65311700D01*
X119597898Y-65355730D01*
X119542748Y-65406850D01*
X119506239Y-65457834D01*
X119480924Y-65515987D01*
X119462716Y-65571776D01*
X119451000Y-65616568D01*
X119448620Y-65633202D01*
X119435559Y-65661494D01*
X119404204Y-65679449D01*
X119387328Y-65681690D01*
X119374881Y-65670058D01*
X119378899Y-65633844D01*
X119399773Y-65571045D01*
X119416652Y-65529057D01*
X119459766Y-65425751D01*
X119412898Y-65437872D01*
X119380063Y-65446896D01*
X119364233Y-65452270D01*
X119364075Y-65452411D01*
X119355981Y-65467928D01*
X119336754Y-65506092D01*
X119312544Y-65554649D01*
X119200454Y-65754515D01*
X119075953Y-65929322D01*
X118941459Y-66076610D01*
X118799391Y-66193902D01*
X118652169Y-66278743D01*
X118571203Y-66310246D01*
X118494752Y-66328802D01*
X118406354Y-66340669D01*
X118315308Y-66345514D01*
X118230873Y-66343003D01*
X118162319Y-66332808D01*
X118139486Y-66325758D01*
X118090421Y-66299307D01*
X118049335Y-66264828D01*
X118038135Y-66250723D01*
X118011821Y-66183510D01*
X118009028Y-66108142D01*
X118027450Y-66035071D01*
X118064816Y-65974731D01*
X118105267Y-65943422D01*
X118156421Y-65922170D01*
X118191526Y-65921328D01*
X118219439Y-65941096D01*
X118223801Y-65946146D01*
X118245097Y-65992126D01*
X118242895Y-66040104D01*
X118222321Y-66081227D01*
X118188518Y-66106627D01*
X118146643Y-66107454D01*
X118133456Y-66101693D01*
X118088732Y-66082480D01*
X118063356Y-66087747D01*
X118053064Y-66119611D01*
X118052198Y-66141675D01*
X118065681Y-66204474D01*
X118105443Y-66251616D01*
X118170470Y-66282549D01*
X118259721Y-66296723D01*
X118339722Y-66296173D01*
X118463242Y-66271234D01*
X118580882Y-66211536D01*
X118693558Y-66116559D01*
X118738690Y-66067111D01*
X118777018Y-66019285D01*
X118823941Y-65956242D01*
X118876123Y-65883007D01*
X118930224Y-65804596D01*
X118982900Y-65726037D01*
X119030799Y-65652362D01*
X119070573Y-65588578D01*
X119098890Y-65539719D01*
X119112393Y-65510801D01*
X119112657Y-65505500D01*
X119094032Y-65505455D01*
X119054179Y-65518040D01*
X118999080Y-65540549D01*
X118934719Y-65570263D01*
X118867076Y-65604454D01*
X118802140Y-65640407D01*
X118762046Y-65664817D01*
X118702188Y-65700045D01*
X118661867Y-65717127D01*
X118643750Y-65714962D01*
X118645477Y-65689915D01*
X118654635Y-65678361D01*
X118702882Y-65644323D01*
X118771385Y-65604512D01*
X118851565Y-65563294D01*
X118934854Y-65525051D01*
X119012679Y-65494161D01*
X119022357Y-65490770D01*
X119159168Y-65443765D01*
X119405248Y-65149839D01*
X119511343Y-65024966D01*
X119604943Y-64918557D01*
X119684639Y-64832060D01*
X119749003Y-64766949D01*
X119796628Y-64724684D01*
X119826080Y-64706720D01*
X119834303Y-64708046D01*
G37*
G36*
X120359839Y-66813326D02*
G01*
X120353395Y-66829694D01*
X120329218Y-66866859D01*
X120290766Y-66919927D01*
X120241510Y-66983989D01*
X120220041Y-67010996D01*
X120166200Y-67081136D01*
X120110696Y-67158650D01*
X120056736Y-67238424D01*
X120007511Y-67315354D01*
X119966223Y-67384319D01*
X119936059Y-67440220D01*
X119920218Y-67477933D01*
X119919694Y-67491258D01*
X119941791Y-67494841D01*
X119980123Y-67480918D01*
X120026907Y-67453767D01*
X120074346Y-67417662D01*
X120102067Y-67391182D01*
X120158605Y-67337596D01*
X120202372Y-67309930D01*
X120231129Y-67309406D01*
X120238200Y-67317599D01*
X120238648Y-67340993D01*
X120218253Y-67373226D01*
X120174844Y-67416981D01*
X120123430Y-67461006D01*
X120068279Y-67512133D01*
X120031768Y-67563112D01*
X120006457Y-67621271D01*
X119988246Y-67677058D01*
X119976534Y-67721851D01*
X119974153Y-67738485D01*
X119961097Y-67766767D01*
X119929742Y-67784728D01*
X119912867Y-67786971D01*
X119900415Y-67775340D01*
X119904436Y-67739125D01*
X119925312Y-67676327D01*
X119942186Y-67634332D01*
X119985299Y-67531027D01*
X119938434Y-67543154D01*
X119905605Y-67552171D01*
X119889772Y-67557551D01*
X119889609Y-67557692D01*
X119881513Y-67573207D01*
X119862285Y-67611371D01*
X119838079Y-67659929D01*
X119725992Y-67859798D01*
X119601491Y-68034607D01*
X119466991Y-68181888D01*
X119324922Y-68299184D01*
X119177701Y-68384022D01*
X119096739Y-68415530D01*
X119020282Y-68434081D01*
X118931894Y-68445948D01*
X118840840Y-68450798D01*
X118756407Y-68448284D01*
X118687855Y-68438090D01*
X118665023Y-68431040D01*
X118615951Y-68404585D01*
X118574870Y-68370110D01*
X118563667Y-68356001D01*
X118537364Y-68288790D01*
X118534560Y-68213420D01*
X118552981Y-68140348D01*
X118590351Y-68080010D01*
X118630797Y-68048700D01*
X118681960Y-68027450D01*
X118717053Y-68026610D01*
X118744975Y-68046375D01*
X118749334Y-68051424D01*
X118770636Y-68097410D01*
X118768426Y-68145388D01*
X118747856Y-68186504D01*
X118714051Y-68211914D01*
X118672179Y-68212735D01*
X118658997Y-68206972D01*
X118614263Y-68187756D01*
X118588890Y-68193026D01*
X118578595Y-68224892D01*
X118577736Y-68246956D01*
X118591210Y-68309753D01*
X118630981Y-68356896D01*
X118696001Y-68387829D01*
X118785256Y-68402006D01*
X118865254Y-68401451D01*
X118988775Y-68376510D01*
X119106417Y-68316816D01*
X119219092Y-68221832D01*
X119264226Y-68172393D01*
X119302548Y-68124565D01*
X119349472Y-68061524D01*
X119401660Y-67988283D01*
X119455765Y-67909877D01*
X119508432Y-67831324D01*
X119556333Y-67757644D01*
X119596114Y-67693860D01*
X119624422Y-67644995D01*
X119637933Y-67616081D01*
X119638195Y-67610784D01*
X119619570Y-67610737D01*
X119579713Y-67623324D01*
X119524614Y-67645830D01*
X119460252Y-67675540D01*
X119392608Y-67709734D01*
X119327673Y-67745691D01*
X119287582Y-67770097D01*
X119227724Y-67805325D01*
X119187401Y-67822408D01*
X119169288Y-67820246D01*
X119171011Y-67795201D01*
X119180170Y-67783641D01*
X119228418Y-67749601D01*
X119296920Y-67709790D01*
X119377101Y-67668575D01*
X119460392Y-67630331D01*
X119538215Y-67599436D01*
X119547894Y-67596044D01*
X119684706Y-67549049D01*
X119930783Y-67255122D01*
X120036877Y-67130246D01*
X120130483Y-67023832D01*
X120210172Y-66937339D01*
X120274538Y-66872224D01*
X120322156Y-66829961D01*
X120351613Y-66812001D01*
X120359839Y-66813326D01*
G37*
G36*
X115657048Y-63960681D02*
G01*
X115753095Y-63964257D01*
X115832516Y-63970015D01*
X115874980Y-63975500D01*
X116144437Y-64039693D01*
X116403257Y-64137057D01*
X116649745Y-64266089D01*
X116882234Y-64425315D01*
X117099027Y-64613253D01*
X117298457Y-64828404D01*
X117478820Y-65069297D01*
X117638450Y-65334441D01*
X117775642Y-65622354D01*
X117794724Y-65668740D01*
X117862861Y-65856671D01*
X117921722Y-66060959D01*
X117973700Y-66290187D01*
X117987779Y-66362276D01*
X118001677Y-66438306D01*
X118012050Y-66503941D01*
X118019409Y-66566693D01*
X118024259Y-66634076D01*
X118027107Y-66713616D01*
X118028458Y-66812812D01*
X118028826Y-66939198D01*
X118028825Y-66970269D01*
X118027412Y-67141975D01*
X118022503Y-67287011D01*
X118012877Y-67414893D01*
X117997330Y-67535141D01*
X117974660Y-67657274D01*
X117943643Y-67790813D01*
X117906643Y-67932162D01*
X117810893Y-68228446D01*
X117689572Y-68508101D01*
X117544549Y-68769320D01*
X117377664Y-69010266D01*
X117190769Y-69229134D01*
X116985731Y-69424083D01*
X116764386Y-69593305D01*
X116528605Y-69734972D01*
X116280236Y-69847262D01*
X116021131Y-69928371D01*
X115837447Y-69965121D01*
X115783900Y-69970729D01*
X115709137Y-69974995D01*
X115620976Y-69977848D01*
X115527269Y-69979211D01*
X115435815Y-69979004D01*
X115354456Y-69977136D01*
X115291020Y-69973545D01*
X115266863Y-69970849D01*
X114991126Y-69912138D01*
X114726356Y-69820300D01*
X114474037Y-69696392D01*
X114235649Y-69541477D01*
X114012679Y-69356597D01*
X113806594Y-69142816D01*
X113618884Y-68901186D01*
X113493819Y-68706985D01*
X113433979Y-68596906D01*
X113369783Y-68462927D01*
X113305731Y-68315791D01*
X113263404Y-68209189D01*
X113525687Y-68209189D01*
X113527311Y-68215240D01*
X113544021Y-68257676D01*
X113573306Y-68320807D01*
X113610531Y-68395587D01*
X113651060Y-68472958D01*
X113690256Y-68543876D01*
X113723487Y-68599289D01*
X113726329Y-68603675D01*
X113773096Y-68673146D01*
X113823474Y-68744824D01*
X113873353Y-68813262D01*
X113918648Y-68873002D01*
X113955245Y-68918584D01*
X113979072Y-68944555D01*
X113985185Y-68948504D01*
X113998987Y-68936057D01*
X114030686Y-68901070D01*
X114077256Y-68847058D01*
X114135691Y-68777557D01*
X114202996Y-68696100D01*
X114257362Y-68629406D01*
X114329165Y-68540115D01*
X114393687Y-68458451D01*
X114448005Y-68388243D01*
X114489188Y-68333316D01*
X114514295Y-68297509D01*
X114520790Y-68285608D01*
X114510579Y-68264842D01*
X114472259Y-68249780D01*
X114468237Y-68248898D01*
X114413014Y-68236195D01*
X114355468Y-68221415D01*
X114350925Y-68220160D01*
X114319624Y-68215144D01*
X114263113Y-68209814D01*
X114186217Y-68204475D01*
X114093753Y-68199433D01*
X113990545Y-68194986D01*
X113903820Y-68192075D01*
X113786255Y-68188710D01*
X113695407Y-68186514D01*
X113627943Y-68185685D01*
X113580575Y-68186426D01*
X113549973Y-68188939D01*
X113532835Y-68193437D01*
X113525843Y-68200116D01*
X113525687Y-68209189D01*
X113263404Y-68209189D01*
X113246366Y-68166273D01*
X113196201Y-68025128D01*
X113166355Y-67927712D01*
X113122981Y-67737907D01*
X113372065Y-67737907D01*
X113406949Y-67874553D01*
X113424842Y-67940751D01*
X113440806Y-67993009D01*
X113451931Y-68021913D01*
X113453430Y-68024193D01*
X113470717Y-68027590D01*
X113514430Y-68031237D01*
X113580941Y-68034966D01*
X113666664Y-68038623D01*
X113767974Y-68042044D01*
X113881271Y-68045062D01*
X113960536Y-68046761D01*
X114097400Y-68050046D01*
X114224095Y-68054344D01*
X114336766Y-68059447D01*
X114431564Y-68065151D01*
X114504645Y-68071249D01*
X114552155Y-68077531D01*
X114557126Y-68078541D01*
X114611537Y-68089600D01*
X114646846Y-68092080D01*
X114673436Y-68084369D01*
X114701663Y-68064863D01*
X114714784Y-68054194D01*
X114760784Y-68012775D01*
X114811491Y-67962073D01*
X114831419Y-67940530D01*
X114865733Y-67902274D01*
X114915642Y-67846692D01*
X114974654Y-67781029D01*
X115036241Y-67712527D01*
X115040580Y-67707699D01*
X115111846Y-67627982D01*
X115194330Y-67534927D01*
X115277601Y-67440340D01*
X115348391Y-67359308D01*
X115420591Y-67276348D01*
X115499888Y-67185412D01*
X115576691Y-67097520D01*
X115641386Y-67023657D01*
X115641479Y-67023552D01*
X115701571Y-66954919D01*
X115761181Y-66886554D01*
X115812750Y-66827136D01*
X115844192Y-66790661D01*
X115893124Y-66739891D01*
X115935848Y-66712464D01*
X115974079Y-66702405D01*
X116013669Y-66700023D01*
X116037289Y-66707878D01*
X116044232Y-66728900D01*
X116033829Y-66766043D01*
X116005373Y-66822231D01*
X115958183Y-66900411D01*
X115909964Y-66975424D01*
X115858961Y-67053153D01*
X115813651Y-67121394D01*
X115777651Y-67174743D01*
X115754589Y-67207801D01*
X115748830Y-67215277D01*
X115726237Y-67245442D01*
X115691813Y-67297906D01*
X115648706Y-67367249D01*
X115600035Y-67448066D01*
X115548942Y-67534943D01*
X115498551Y-67622475D01*
X115451996Y-67705252D01*
X115412405Y-67777858D01*
X115382910Y-67834879D01*
X115366652Y-67870915D01*
X115364461Y-67879387D01*
X115353276Y-67895616D01*
X115350929Y-67895866D01*
X115337092Y-67910371D01*
X115313728Y-67947901D01*
X115285449Y-67999446D01*
X115256876Y-68056004D01*
X115232616Y-68108580D01*
X115217295Y-68148169D01*
X115214311Y-68162265D01*
X115228268Y-68168194D01*
X115266331Y-68170438D01*
X115322742Y-68169403D01*
X115391751Y-68165475D01*
X115467624Y-68159057D01*
X115544605Y-68150547D01*
X115616967Y-68140330D01*
X115669247Y-68130880D01*
X115750613Y-68114806D01*
X115807049Y-68106789D01*
X115843096Y-68108108D01*
X115863346Y-68120069D01*
X115872358Y-68143953D01*
X115874685Y-68181055D01*
X115874746Y-68189013D01*
X115872309Y-68214587D01*
X115860691Y-68233547D01*
X115833961Y-68250847D01*
X115786117Y-68271454D01*
X115766125Y-68279263D01*
X115722585Y-68294763D01*
X115679720Y-68306274D01*
X115631581Y-68314551D01*
X115572222Y-68320332D01*
X115495696Y-68324346D01*
X115396061Y-68327350D01*
X115376962Y-68327805D01*
X115096678Y-68334231D01*
X115061272Y-68400892D01*
X115034676Y-68451679D01*
X115012400Y-68495382D01*
X115008225Y-68503855D01*
X114989917Y-68541379D01*
X114961701Y-68599127D01*
X114927413Y-68669216D01*
X114890913Y-68743774D01*
X114856058Y-68814931D01*
X114826688Y-68874813D01*
X114806679Y-68915561D01*
X114801134Y-68926800D01*
X114734356Y-69062134D01*
X114682892Y-69168087D01*
X114646115Y-69246035D01*
X114623372Y-69297338D01*
X114614018Y-69323368D01*
X114613699Y-69325890D01*
X114601714Y-69347349D01*
X114591179Y-69354344D01*
X114572190Y-69379085D01*
X114568660Y-69399180D01*
X114579259Y-69426061D01*
X114613336Y-69455038D01*
X114654993Y-69479338D01*
X114857889Y-69569679D01*
X115076970Y-69636002D01*
X115305210Y-69677336D01*
X115535599Y-69692702D01*
X115761106Y-69681134D01*
X115920558Y-69654697D01*
X116175758Y-69581097D01*
X116419001Y-69476097D01*
X116648402Y-69341249D01*
X116862086Y-69178097D01*
X117058163Y-68988175D01*
X117234750Y-68773046D01*
X117389949Y-68534239D01*
X117469235Y-68385884D01*
X117591298Y-68105319D01*
X117685012Y-67815456D01*
X117750431Y-67518753D01*
X117787606Y-67217691D01*
X117796595Y-66914750D01*
X117777449Y-66612396D01*
X117730217Y-66313117D01*
X117654973Y-66019370D01*
X117551746Y-65733642D01*
X117420608Y-65458402D01*
X117404495Y-65428894D01*
X117333265Y-65311912D01*
X117245091Y-65185208D01*
X117147341Y-65058198D01*
X117047386Y-64940289D01*
X116952594Y-64840888D01*
X116921089Y-64811393D01*
X116818525Y-64719031D01*
X116740905Y-64791331D01*
X116688425Y-64841217D01*
X116635427Y-64893172D01*
X116605673Y-64923295D01*
X116557827Y-64970382D01*
X116507592Y-65016244D01*
X116493061Y-65028653D01*
X116465897Y-65051987D01*
X116418625Y-65093422D01*
X116355244Y-65149419D01*
X116279754Y-65216419D01*
X116196154Y-65290902D01*
X116130245Y-65349811D01*
X116039149Y-65431258D01*
X115949460Y-65511325D01*
X115866078Y-65585639D01*
X115793920Y-65649834D01*
X115737875Y-65699544D01*
X115712950Y-65721536D01*
X115657881Y-65770320D01*
X115606977Y-65816036D01*
X115568889Y-65850878D01*
X115560631Y-65858640D01*
X115527872Y-65885826D01*
X115503439Y-65899197D01*
X115501187Y-65899479D01*
X115485340Y-65910968D01*
X115484584Y-65915835D01*
X115473070Y-65935237D01*
X115444543Y-65962830D01*
X115435783Y-65969867D01*
X115382034Y-66011542D01*
X115347518Y-66038918D01*
X115326059Y-66057011D01*
X115311483Y-66070859D01*
X115310465Y-66071896D01*
X115259960Y-66121179D01*
X115205284Y-66168630D01*
X115168964Y-66197989D01*
X115128055Y-66231823D01*
X115096829Y-66259989D01*
X115086680Y-66270722D01*
X115067897Y-66289381D01*
X115031072Y-66322171D01*
X114983101Y-66363007D01*
X114966562Y-66376751D01*
X114917330Y-66417817D01*
X114850721Y-66473969D01*
X114773785Y-66539225D01*
X114693588Y-66607596D01*
X114651233Y-66643859D01*
X114574633Y-66709408D01*
X114499760Y-66773191D01*
X114432938Y-66829852D01*
X114380464Y-66874039D01*
X114358439Y-66892374D01*
X114313895Y-66929368D01*
X114278489Y-66959120D01*
X114260839Y-66974374D01*
X114236927Y-66995517D01*
X114193753Y-67032943D01*
X114136634Y-67082116D01*
X114070878Y-67138474D01*
X114001806Y-67197480D01*
X113934754Y-67254575D01*
X113875030Y-67305222D01*
X113827951Y-67344861D01*
X113810383Y-67359497D01*
X113752488Y-67407720D01*
X113695306Y-67456108D01*
X113632386Y-67510204D01*
X113557261Y-67575559D01*
X113478614Y-67644430D01*
X113372065Y-67737907D01*
X113122981Y-67737907D01*
X113099811Y-67636504D01*
X113057391Y-67333149D01*
X113039644Y-67029477D01*
X113283032Y-67029477D01*
X113285430Y-67151366D01*
X113290863Y-67262401D01*
X113299257Y-67357515D01*
X113310476Y-67431635D01*
X113324446Y-67479684D01*
X113340880Y-67496588D01*
X113357070Y-67485470D01*
X113391939Y-67454717D01*
X113441315Y-67408251D01*
X113501006Y-67349952D01*
X113545841Y-67305069D01*
X113666898Y-67182288D01*
X113766125Y-67080761D01*
X113843117Y-67000909D01*
X113897485Y-66943137D01*
X113924634Y-66912838D01*
X113945647Y-66889871D01*
X113984286Y-66849101D01*
X114035194Y-66796108D01*
X114093031Y-66736494D01*
X114098144Y-66731252D01*
X114160994Y-66666112D01*
X114221787Y-66601851D01*
X114273430Y-66546027D01*
X114307858Y-66507369D01*
X114343954Y-66466020D01*
X114395283Y-66408281D01*
X114454781Y-66342078D01*
X114510560Y-66280602D01*
X114607139Y-66174570D01*
X114692229Y-66080800D01*
X114768798Y-65995846D01*
X114839803Y-65916290D01*
X114908219Y-65838694D01*
X114977008Y-65759617D01*
X115049142Y-65675628D01*
X115127588Y-65583296D01*
X115215300Y-65479185D01*
X115315276Y-65359853D01*
X115430449Y-65221872D01*
X115563809Y-65061815D01*
X115569026Y-65055548D01*
X115695667Y-64902745D01*
X115807397Y-64766448D01*
X115903139Y-64648002D01*
X115981843Y-64548767D01*
X116042440Y-64470070D01*
X116083883Y-64413263D01*
X116105098Y-64379689D01*
X116107645Y-64373225D01*
X116110915Y-64352848D01*
X116107698Y-64338000D01*
X116093301Y-64326079D01*
X116062995Y-64314466D01*
X116012062Y-64300557D01*
X115947352Y-64284578D01*
X115788956Y-64256009D01*
X115614850Y-64242068D01*
X115436225Y-64242779D01*
X115264313Y-64258162D01*
X115131723Y-64282822D01*
X114874836Y-64362352D01*
X114630570Y-64472895D01*
X114400956Y-64613167D01*
X114188058Y-64781832D01*
X113993921Y-64977597D01*
X113930504Y-65052602D01*
X113865081Y-65133992D01*
X113815178Y-65198582D01*
X113774901Y-65255019D01*
X113738364Y-65311977D01*
X113699673Y-65378097D01*
X113657690Y-65453391D01*
X113527094Y-65722690D01*
X113422242Y-66010334D01*
X113342984Y-66316758D01*
X113320133Y-66434868D01*
X113305841Y-66534900D01*
X113295083Y-66649450D01*
X113287760Y-66773444D01*
X113283781Y-66901808D01*
X113283032Y-67029477D01*
X113039644Y-67029477D01*
X113039370Y-67024804D01*
X113046075Y-66718589D01*
X113077807Y-66421657D01*
X113097674Y-66306537D01*
X113174614Y-65983953D01*
X113277449Y-65678432D01*
X113405489Y-65391456D01*
X113558085Y-65124500D01*
X113734535Y-64879040D01*
X113767569Y-64838704D01*
X113974443Y-64615860D01*
X114197346Y-64423065D01*
X114434582Y-64261334D01*
X114684459Y-64131707D01*
X114945282Y-64035187D01*
X115199295Y-63975500D01*
X115261961Y-63968177D01*
X115346830Y-63963027D01*
X115446157Y-63960065D01*
X115552148Y-63959280D01*
X115657048Y-63960681D01*
G37*
%TO.C,C13*%
D16*
X161228748Y-56885000D02*
X161751252Y-56885000D01*
X161228748Y-58355000D02*
X161751252Y-58355000D01*
%TO.C,R1*%
X136265000Y-60802936D02*
X136265000Y-61257064D01*
X137735000Y-60802936D02*
X137735000Y-61257064D01*
%TO.C,C6*%
X149650000Y-65173752D02*
X149650000Y-64651248D01*
X151120000Y-65173752D02*
X151120000Y-64651248D01*
%TO.C,R3*%
X127092936Y-40605000D02*
X127547064Y-40605000D01*
X127092936Y-42075000D02*
X127547064Y-42075000D01*
%TO.C,U1*%
X145000000Y-72632500D02*
X145050000Y-72632500D01*
X145000000Y-74452500D02*
X145000000Y-72632500D01*
X145050000Y-74452500D02*
X145000000Y-74452500D01*
X148070000Y-72632500D02*
X148120000Y-72632500D01*
X148120000Y-72632500D02*
X148120000Y-74452500D01*
X148120000Y-74452500D02*
X148070000Y-74452500D01*
X145050000Y-74992500D02*
X144720000Y-75232500D01*
X144720000Y-74752500D01*
X145050000Y-74992500D01*
G36*
X145050000Y-74992500D02*
G01*
X144720000Y-75232500D01*
X144720000Y-74752500D01*
X145050000Y-74992500D01*
G37*
%TO.C,J3*%
X167290000Y-57910000D02*
X168670000Y-57910000D01*
X167290000Y-59290000D02*
X167290000Y-57910000D01*
X167290000Y-60560000D02*
X167290000Y-63210000D01*
X167290000Y-60560000D02*
X170050000Y-60560000D01*
X167290000Y-63210000D02*
X170050000Y-63210000D01*
X170050000Y-60560000D02*
X170050000Y-63210000D01*
%TO.C,J6*%
X164720000Y-77360000D02*
X164720000Y-78610000D01*
X164720000Y-78610000D02*
X165970000Y-78610000D01*
X167270000Y-70710000D02*
X167270000Y-71460000D01*
X167270000Y-71460000D02*
X170220000Y-71460000D01*
X167270000Y-77560000D02*
X170220000Y-77560000D01*
X167270000Y-78310000D02*
X167270000Y-77560000D01*
X170220000Y-71460000D02*
X170220000Y-74510000D01*
X170220000Y-77560000D02*
X170220000Y-74510000D01*
X165010000Y-70700000D02*
X170980000Y-70700000D01*
X170980000Y-78320000D01*
X165010000Y-78320000D01*
X165010000Y-70700000D01*
X165020000Y-70710000D02*
X165770000Y-70710000D01*
X165770000Y-72510000D01*
X165020000Y-72510000D01*
X165020000Y-70710000D01*
X165020000Y-74010000D02*
X165770000Y-74010000D01*
X165770000Y-75010000D01*
X165020000Y-75010000D01*
X165020000Y-74010000D01*
X165020000Y-76510000D02*
X165770000Y-76510000D01*
X165770000Y-78310000D01*
X165020000Y-78310000D01*
X165020000Y-76510000D01*
%TO.C,C12*%
X119381252Y-56035000D02*
X118858748Y-56035000D01*
X119381252Y-57505000D02*
X118858748Y-57505000D01*
%TO.C,R4*%
X128555000Y-38107064D02*
X128555000Y-37652936D01*
X130025000Y-38107064D02*
X130025000Y-37652936D01*
%TO.C,C7*%
X146695000Y-65168752D02*
X146695000Y-64646248D01*
X148165000Y-65168752D02*
X148165000Y-64646248D01*
%TO.C,J5*%
X167290000Y-41317500D02*
X168670000Y-41317500D01*
X167290000Y-42697500D02*
X167290000Y-41317500D01*
X167290000Y-43967500D02*
X167290000Y-54237500D01*
X167290000Y-43967500D02*
X170050000Y-43967500D01*
X167290000Y-54237500D02*
X170050000Y-54237500D01*
X170050000Y-43967500D02*
X170050000Y-54237500D01*
%TO.C,IC1*%
D10*
X143775000Y-59427000D02*
X143775000Y-60952000D01*
%TO.C,J2*%
D16*
X111590000Y-71610000D02*
X111590000Y-74660000D01*
X111590000Y-77710000D02*
X111590000Y-74660000D01*
X114540000Y-70860000D02*
X114540000Y-71610000D01*
X114540000Y-71610000D02*
X111590000Y-71610000D01*
X114540000Y-77710000D02*
X111590000Y-77710000D01*
X114540000Y-78460000D02*
X114540000Y-77710000D01*
X117090000Y-70560000D02*
X115840000Y-70560000D01*
X117090000Y-71810000D02*
X117090000Y-70560000D01*
X116040000Y-70860000D02*
X116790000Y-70860000D01*
X116790000Y-72660000D01*
X116040000Y-72660000D01*
X116040000Y-70860000D01*
X116040000Y-74160000D02*
X116790000Y-74160000D01*
X116790000Y-75160000D01*
X116040000Y-75160000D01*
X116040000Y-74160000D01*
X116040000Y-76660000D02*
X116790000Y-76660000D01*
X116790000Y-78460000D01*
X116040000Y-78460000D01*
X116040000Y-76660000D01*
X110830000Y-70850000D02*
X116800000Y-70850000D01*
X116800000Y-78470000D01*
X110830000Y-78470000D01*
X110830000Y-70850000D01*
%TO.C,J4*%
X111540000Y-41250000D02*
X112920000Y-41250000D01*
X111540000Y-42630000D02*
X111540000Y-41250000D01*
X111540000Y-43900000D02*
X111540000Y-54170000D01*
X111540000Y-43900000D02*
X114300000Y-43900000D01*
X111540000Y-54170000D02*
X114300000Y-54170000D01*
X114300000Y-43900000D02*
X114300000Y-54170000D01*
%TO.C,J8*%
X142050000Y-81060000D02*
X142050000Y-79360000D01*
X151390000Y-81060000D02*
X151390000Y-79360000D01*
%TO.C,PS1*%
D10*
X117520000Y-43590000D02*
X124020000Y-43590000D01*
X117520000Y-47090000D02*
X117520000Y-43590000D01*
X117645000Y-49365000D02*
X117645000Y-47615000D01*
X124020000Y-43590000D02*
X124020000Y-47090000D01*
X124020000Y-47090000D02*
X117520000Y-47090000D01*
%TO.C,D1*%
D16*
X128195000Y-55040000D02*
X131055000Y-55040000D01*
X131055000Y-53120000D02*
X128195000Y-53120000D01*
X131055000Y-55040000D02*
X131055000Y-53120000D01*
%TO.C,C11*%
X119383752Y-53335000D02*
X118861248Y-53335000D01*
X119383752Y-54805000D02*
X118861248Y-54805000D01*
%TO.C,J7*%
X111540000Y-57980000D02*
X112920000Y-57980000D01*
X111540000Y-59360000D02*
X111540000Y-57980000D01*
X111540000Y-60630000D02*
X111540000Y-63280000D01*
X111540000Y-60630000D02*
X114300000Y-60630000D01*
X111540000Y-63280000D02*
X114300000Y-63280000D01*
X114300000Y-60630000D02*
X114300000Y-63280000D01*
%TO.C,R5*%
X142277064Y-73465000D02*
X141822936Y-73465000D01*
X142277064Y-74935000D02*
X141822936Y-74935000D01*
%TO.C,IC2*%
D10*
X156945000Y-58917000D02*
X156945000Y-60442000D01*
%TO.C,C1*%
D16*
X133375000Y-65583752D02*
X133375000Y-65061248D01*
X134845000Y-65583752D02*
X134845000Y-65061248D01*
%TO.C,C4*%
X121215000Y-38111252D02*
X121215000Y-37588748D01*
X122685000Y-38111252D02*
X122685000Y-37588748D01*
%TO.C,C8*%
X126921248Y-44265000D02*
X127443752Y-44265000D01*
X126921248Y-45735000D02*
X127443752Y-45735000D01*
%TO.C,R2*%
X148425000Y-60214936D02*
X148425000Y-60669064D01*
X149895000Y-60214936D02*
X149895000Y-60669064D01*
%TO.C,J1*%
X123860000Y-83550000D02*
X123860000Y-82440000D01*
X124970000Y-83550000D02*
X123860000Y-83550000D01*
X125970000Y-81330000D02*
X130080000Y-81330000D01*
X125970000Y-83550000D02*
X125970000Y-81330000D01*
X125970000Y-83550000D02*
X130080000Y-83550000D01*
X130080000Y-83550000D02*
X130080000Y-81330000D01*
%TO.C,S2*%
D10*
X160150000Y-48760000D02*
X161000000Y-48760000D01*
X160150000Y-52810000D02*
X160150000Y-48760000D01*
X160150000Y-54510000D02*
X160150000Y-54860000D01*
X160150000Y-54860000D02*
X161000000Y-54860000D01*
D17*
D18*
X162000000Y-47810000D02*
X161999999Y-47810000D01*
X161999999Y-47810000D01*
X161999999Y-47810000D01*
X161999999Y-47810000D01*
X161999999Y-47810000D01*
X161999999Y-47810000D01*
X161999999Y-47810000D01*
X161999999Y-47809999D01*
X161999999Y-47809999D01*
X161999999Y-47809999D01*
X161999999Y-47809999D01*
X161999999Y-47809999D01*
X162000000Y-47809999D01*
X162000000Y-47809999D01*
X162000000Y-47809999D01*
X162000000Y-47809999D01*
X162000000Y-47809999D01*
X162000000Y-47809999D01*
X162000000Y-47809999D01*
X162000000Y-47809999D01*
X162000000Y-47809999D01*
X162000000Y-47809999D01*
X162000000Y-47809999D01*
X162000000Y-47809999D01*
X162000001Y-47809999D01*
X162000001Y-47809999D01*
X162000001Y-47809999D01*
X162000001Y-47809999D01*
X162000001Y-47809999D01*
X162000001Y-47809999D01*
X162000001Y-47810000D01*
X162000001Y-47810000D01*
X162000001Y-47810000D01*
X162000001Y-47810000D01*
X162000001Y-47810000D01*
X162000001Y-47810000D01*
X162000001Y-47810000D01*
X162000000Y-47810000D01*
X162000000Y-47810000D02*
X162000001Y-47810000D01*
X162000001Y-47810000D01*
X162000001Y-47810000D01*
X162000001Y-47810000D01*
X162000001Y-47810000D01*
X162000001Y-47810000D01*
X162000001Y-47810001D01*
X162000001Y-47810001D01*
X162000001Y-47810001D01*
X162000001Y-47810001D01*
X162000001Y-47810001D01*
X162000001Y-47810001D01*
X162000001Y-47810001D01*
X162000000Y-47810001D01*
X162000000Y-47810001D01*
X162000000Y-47810001D01*
X162000000Y-47810001D01*
X162000000Y-47810001D01*
X162000000Y-47810001D01*
X162000000Y-47810001D01*
X162000000Y-47810001D01*
X162000000Y-47810001D01*
X162000000Y-47810001D01*
X162000000Y-47810001D01*
X162000000Y-47810001D01*
X161999999Y-47810001D01*
X161999999Y-47810001D01*
X161999999Y-47810001D01*
X161999999Y-47810001D01*
X161999999Y-47810001D01*
X161999999Y-47810001D01*
X161999999Y-47810000D01*
X161999999Y-47810000D01*
X161999999Y-47810000D01*
X161999999Y-47810000D01*
X161999999Y-47810000D01*
X161999999Y-47810000D01*
X162000000Y-47810000D01*
D17*
D18*
X162000000Y-47910000D02*
X161999999Y-47910000D01*
X161999999Y-47910000D01*
X161999999Y-47910000D01*
X161999999Y-47910000D01*
X161999999Y-47910000D01*
X161999999Y-47910000D01*
X161999999Y-47910000D01*
X161999999Y-47909999D01*
X161999999Y-47909999D01*
X161999999Y-47909999D01*
X161999999Y-47909999D01*
X161999999Y-47909999D01*
X162000000Y-47909999D01*
X162000000Y-47909999D01*
X162000000Y-47909999D01*
X162000000Y-47909999D01*
X162000000Y-47909999D01*
X162000000Y-47909999D01*
X162000000Y-47909999D01*
X162000000Y-47909999D01*
X162000000Y-47909999D01*
X162000000Y-47909999D01*
X162000000Y-47909999D01*
X162000000Y-47909999D01*
X162000001Y-47909999D01*
X162000001Y-47909999D01*
X162000001Y-47909999D01*
X162000001Y-47909999D01*
X162000001Y-47909999D01*
X162000001Y-47909999D01*
X162000001Y-47910000D01*
X162000001Y-47910000D01*
X162000001Y-47910000D01*
X162000001Y-47910000D01*
X162000001Y-47910000D01*
X162000001Y-47910000D01*
X162000001Y-47910000D01*
X162000000Y-47910000D01*
X162000000Y-47910000D02*
X162000001Y-47910000D01*
X162000001Y-47910000D01*
X162000001Y-47910000D01*
X162000001Y-47910000D01*
X162000001Y-47910000D01*
X162000001Y-47910000D01*
X162000001Y-47910001D01*
X162000001Y-47910001D01*
X162000001Y-47910001D01*
X162000001Y-47910001D01*
X162000001Y-47910001D01*
X162000001Y-47910001D01*
X162000001Y-47910001D01*
X162000000Y-47910001D01*
X162000000Y-47910001D01*
X162000000Y-47910001D01*
X162000000Y-47910001D01*
X162000000Y-47910001D01*
X162000000Y-47910001D01*
X162000000Y-47910001D01*
X162000000Y-47910001D01*
X162000000Y-47910001D01*
X162000000Y-47910001D01*
X162000000Y-47910001D01*
X162000000Y-47910001D01*
X161999999Y-47910001D01*
X161999999Y-47910001D01*
X161999999Y-47910001D01*
X161999999Y-47910001D01*
X161999999Y-47910001D01*
X161999999Y-47910001D01*
X161999999Y-47910000D01*
X161999999Y-47910000D01*
X161999999Y-47910000D01*
X161999999Y-47910000D01*
X161999999Y-47910000D01*
X161999999Y-47910000D01*
X162000000Y-47910000D01*
D10*
X163000000Y-48760000D02*
X163850000Y-48760000D01*
X163850000Y-48760000D02*
X163850000Y-49110000D01*
X163850000Y-50810000D02*
X163850000Y-54860000D01*
X163850000Y-54860000D02*
X163000000Y-54860000D01*
D17*
X162000000Y-47810000D02*
G75*
G02*
X162000000Y-47910000I0J-50000D01*
G01*
X162000000Y-47910000D02*
G75*
G02*
X162000000Y-47810000I0J50000D01*
G01*
%TD*%
M02*
