%TF.GenerationSoftware,KiCad,Pcbnew,10.0.0*%
%TF.CreationDate,2026-04-05T16:29:11-05:00*%
%TF.ProjectId,MotorDriverV2,4d6f746f-7244-4726-9976-657256322e6b,rev?*%
%TF.SameCoordinates,Original*%
%TF.FileFunction,Legend,Bot*%
%TF.FilePolarity,Positive*%
%FSLAX46Y46*%
G04 Gerber Fmt 4.6, Leading zero omitted, Abs format (unit mm)*
G04 Created by KiCad (PCBNEW 10.0.0) date 2026-04-05 16:29:11*
%MOMM*%
%LPD*%
G01*
G04 APERTURE LIST*
%ADD10C,0.100000*%
%ADD11C,0.125000*%
%ADD12C,0.200000*%
%ADD13C,0.000000*%
G04 APERTURE END LIST*
D10*
X162229925Y-62502587D02*
X162706115Y-62502587D01*
X162706115Y-62502587D02*
X162706115Y-61502587D01*
X161468020Y-62502587D02*
X161468020Y-61978777D01*
X161468020Y-61978777D02*
X161515639Y-61883539D01*
X161515639Y-61883539D02*
X161610877Y-61835920D01*
X161610877Y-61835920D02*
X161801353Y-61835920D01*
X161801353Y-61835920D02*
X161896591Y-61883539D01*
X161468020Y-62454968D02*
X161563258Y-62502587D01*
X161563258Y-62502587D02*
X161801353Y-62502587D01*
X161801353Y-62502587D02*
X161896591Y-62454968D01*
X161896591Y-62454968D02*
X161944210Y-62359729D01*
X161944210Y-62359729D02*
X161944210Y-62264491D01*
X161944210Y-62264491D02*
X161896591Y-62169253D01*
X161896591Y-62169253D02*
X161801353Y-62121634D01*
X161801353Y-62121634D02*
X161563258Y-62121634D01*
X161563258Y-62121634D02*
X161468020Y-62074015D01*
X160563258Y-61835920D02*
X160563258Y-62502587D01*
X160991829Y-61835920D02*
X160991829Y-62359729D01*
X160991829Y-62359729D02*
X160944210Y-62454968D01*
X160944210Y-62454968D02*
X160848972Y-62502587D01*
X160848972Y-62502587D02*
X160706115Y-62502587D01*
X160706115Y-62502587D02*
X160610877Y-62454968D01*
X160610877Y-62454968D02*
X160563258Y-62407348D01*
X160087067Y-62502587D02*
X160087067Y-61835920D01*
X160087067Y-62026396D02*
X160039448Y-61931158D01*
X160039448Y-61931158D02*
X159991829Y-61883539D01*
X159991829Y-61883539D02*
X159896591Y-61835920D01*
X159896591Y-61835920D02*
X159801353Y-61835920D01*
X159325162Y-62502587D02*
X159420400Y-62454968D01*
X159420400Y-62454968D02*
X159468019Y-62407348D01*
X159468019Y-62407348D02*
X159515638Y-62312110D01*
X159515638Y-62312110D02*
X159515638Y-62026396D01*
X159515638Y-62026396D02*
X159468019Y-61931158D01*
X159468019Y-61931158D02*
X159420400Y-61883539D01*
X159420400Y-61883539D02*
X159325162Y-61835920D01*
X159325162Y-61835920D02*
X159182305Y-61835920D01*
X159182305Y-61835920D02*
X159087067Y-61883539D01*
X159087067Y-61883539D02*
X159039448Y-61931158D01*
X159039448Y-61931158D02*
X158991829Y-62026396D01*
X158991829Y-62026396D02*
X158991829Y-62312110D01*
X158991829Y-62312110D02*
X159039448Y-62407348D01*
X159039448Y-62407348D02*
X159087067Y-62454968D01*
X159087067Y-62454968D02*
X159182305Y-62502587D01*
X159182305Y-62502587D02*
X159325162Y-62502587D01*
X157229924Y-62407348D02*
X157277543Y-62454968D01*
X157277543Y-62454968D02*
X157420400Y-62502587D01*
X157420400Y-62502587D02*
X157515638Y-62502587D01*
X157515638Y-62502587D02*
X157658495Y-62454968D01*
X157658495Y-62454968D02*
X157753733Y-62359729D01*
X157753733Y-62359729D02*
X157801352Y-62264491D01*
X157801352Y-62264491D02*
X157848971Y-62074015D01*
X157848971Y-62074015D02*
X157848971Y-61931158D01*
X157848971Y-61931158D02*
X157801352Y-61740682D01*
X157801352Y-61740682D02*
X157753733Y-61645444D01*
X157753733Y-61645444D02*
X157658495Y-61550206D01*
X157658495Y-61550206D02*
X157515638Y-61502587D01*
X157515638Y-61502587D02*
X157420400Y-61502587D01*
X157420400Y-61502587D02*
X157277543Y-61550206D01*
X157277543Y-61550206D02*
X157229924Y-61597825D01*
X156372781Y-62502587D02*
X156372781Y-61978777D01*
X156372781Y-61978777D02*
X156420400Y-61883539D01*
X156420400Y-61883539D02*
X156515638Y-61835920D01*
X156515638Y-61835920D02*
X156706114Y-61835920D01*
X156706114Y-61835920D02*
X156801352Y-61883539D01*
X156372781Y-62454968D02*
X156468019Y-62502587D01*
X156468019Y-62502587D02*
X156706114Y-62502587D01*
X156706114Y-62502587D02*
X156801352Y-62454968D01*
X156801352Y-62454968D02*
X156848971Y-62359729D01*
X156848971Y-62359729D02*
X156848971Y-62264491D01*
X156848971Y-62264491D02*
X156801352Y-62169253D01*
X156801352Y-62169253D02*
X156706114Y-62121634D01*
X156706114Y-62121634D02*
X156468019Y-62121634D01*
X156468019Y-62121634D02*
X156372781Y-62074015D01*
X155896590Y-61835920D02*
X155896590Y-62502587D01*
X155896590Y-61931158D02*
X155848971Y-61883539D01*
X155848971Y-61883539D02*
X155753733Y-61835920D01*
X155753733Y-61835920D02*
X155610876Y-61835920D01*
X155610876Y-61835920D02*
X155515638Y-61883539D01*
X155515638Y-61883539D02*
X155468019Y-61978777D01*
X155468019Y-61978777D02*
X155468019Y-62502587D01*
X155134685Y-61835920D02*
X154753733Y-61835920D01*
X154991828Y-61502587D02*
X154991828Y-62359729D01*
X154991828Y-62359729D02*
X154944209Y-62454968D01*
X154944209Y-62454968D02*
X154848971Y-62502587D01*
X154848971Y-62502587D02*
X154753733Y-62502587D01*
X153991828Y-61835920D02*
X153991828Y-62502587D01*
X154420399Y-61835920D02*
X154420399Y-62359729D01*
X154420399Y-62359729D02*
X154372780Y-62454968D01*
X154372780Y-62454968D02*
X154277542Y-62502587D01*
X154277542Y-62502587D02*
X154134685Y-62502587D01*
X154134685Y-62502587D02*
X154039447Y-62454968D01*
X154039447Y-62454968D02*
X153991828Y-62407348D01*
X162706115Y-64112531D02*
X162706115Y-63112531D01*
X162706115Y-63112531D02*
X162468020Y-63112531D01*
X162468020Y-63112531D02*
X162325163Y-63160150D01*
X162325163Y-63160150D02*
X162229925Y-63255388D01*
X162229925Y-63255388D02*
X162182306Y-63350626D01*
X162182306Y-63350626D02*
X162134687Y-63541102D01*
X162134687Y-63541102D02*
X162134687Y-63683959D01*
X162134687Y-63683959D02*
X162182306Y-63874435D01*
X162182306Y-63874435D02*
X162229925Y-63969673D01*
X162229925Y-63969673D02*
X162325163Y-64064912D01*
X162325163Y-64064912D02*
X162468020Y-64112531D01*
X162468020Y-64112531D02*
X162706115Y-64112531D01*
X161277544Y-64112531D02*
X161277544Y-63588721D01*
X161277544Y-63588721D02*
X161325163Y-63493483D01*
X161325163Y-63493483D02*
X161420401Y-63445864D01*
X161420401Y-63445864D02*
X161610877Y-63445864D01*
X161610877Y-63445864D02*
X161706115Y-63493483D01*
X161277544Y-64064912D02*
X161372782Y-64112531D01*
X161372782Y-64112531D02*
X161610877Y-64112531D01*
X161610877Y-64112531D02*
X161706115Y-64064912D01*
X161706115Y-64064912D02*
X161753734Y-63969673D01*
X161753734Y-63969673D02*
X161753734Y-63874435D01*
X161753734Y-63874435D02*
X161706115Y-63779197D01*
X161706115Y-63779197D02*
X161610877Y-63731578D01*
X161610877Y-63731578D02*
X161372782Y-63731578D01*
X161372782Y-63731578D02*
X161277544Y-63683959D01*
X160801353Y-63445864D02*
X160801353Y-64112531D01*
X160801353Y-63541102D02*
X160753734Y-63493483D01*
X160753734Y-63493483D02*
X160658496Y-63445864D01*
X160658496Y-63445864D02*
X160515639Y-63445864D01*
X160515639Y-63445864D02*
X160420401Y-63493483D01*
X160420401Y-63493483D02*
X160372782Y-63588721D01*
X160372782Y-63588721D02*
X160372782Y-64112531D01*
X159896591Y-64112531D02*
X159896591Y-63445864D01*
X159896591Y-63112531D02*
X159944210Y-63160150D01*
X159944210Y-63160150D02*
X159896591Y-63207769D01*
X159896591Y-63207769D02*
X159848972Y-63160150D01*
X159848972Y-63160150D02*
X159896591Y-63112531D01*
X159896591Y-63112531D02*
X159896591Y-63207769D01*
X159039449Y-64064912D02*
X159134687Y-64112531D01*
X159134687Y-64112531D02*
X159325163Y-64112531D01*
X159325163Y-64112531D02*
X159420401Y-64064912D01*
X159420401Y-64064912D02*
X159468020Y-63969673D01*
X159468020Y-63969673D02*
X159468020Y-63588721D01*
X159468020Y-63588721D02*
X159420401Y-63493483D01*
X159420401Y-63493483D02*
X159325163Y-63445864D01*
X159325163Y-63445864D02*
X159134687Y-63445864D01*
X159134687Y-63445864D02*
X159039449Y-63493483D01*
X159039449Y-63493483D02*
X158991830Y-63588721D01*
X158991830Y-63588721D02*
X158991830Y-63683959D01*
X158991830Y-63683959D02*
X159468020Y-63779197D01*
X158420401Y-64112531D02*
X158515639Y-64064912D01*
X158515639Y-64064912D02*
X158563258Y-63969673D01*
X158563258Y-63969673D02*
X158563258Y-63112531D01*
X157277543Y-64112531D02*
X157277543Y-63112531D01*
X157277543Y-63112531D02*
X157039448Y-63112531D01*
X157039448Y-63112531D02*
X156896591Y-63160150D01*
X156896591Y-63160150D02*
X156801353Y-63255388D01*
X156801353Y-63255388D02*
X156753734Y-63350626D01*
X156753734Y-63350626D02*
X156706115Y-63541102D01*
X156706115Y-63541102D02*
X156706115Y-63683959D01*
X156706115Y-63683959D02*
X156753734Y-63874435D01*
X156753734Y-63874435D02*
X156801353Y-63969673D01*
X156801353Y-63969673D02*
X156896591Y-64064912D01*
X156896591Y-64064912D02*
X157039448Y-64112531D01*
X157039448Y-64112531D02*
X157277543Y-64112531D01*
X156277543Y-64112531D02*
X156277543Y-63445864D01*
X156277543Y-63636340D02*
X156229924Y-63541102D01*
X156229924Y-63541102D02*
X156182305Y-63493483D01*
X156182305Y-63493483D02*
X156087067Y-63445864D01*
X156087067Y-63445864D02*
X155991829Y-63445864D01*
X155229924Y-64112531D02*
X155229924Y-63588721D01*
X155229924Y-63588721D02*
X155277543Y-63493483D01*
X155277543Y-63493483D02*
X155372781Y-63445864D01*
X155372781Y-63445864D02*
X155563257Y-63445864D01*
X155563257Y-63445864D02*
X155658495Y-63493483D01*
X155229924Y-64064912D02*
X155325162Y-64112531D01*
X155325162Y-64112531D02*
X155563257Y-64112531D01*
X155563257Y-64112531D02*
X155658495Y-64064912D01*
X155658495Y-64064912D02*
X155706114Y-63969673D01*
X155706114Y-63969673D02*
X155706114Y-63874435D01*
X155706114Y-63874435D02*
X155658495Y-63779197D01*
X155658495Y-63779197D02*
X155563257Y-63731578D01*
X155563257Y-63731578D02*
X155325162Y-63731578D01*
X155325162Y-63731578D02*
X155229924Y-63683959D01*
X154753733Y-63445864D02*
X154753733Y-64112531D01*
X154753733Y-63541102D02*
X154706114Y-63493483D01*
X154706114Y-63493483D02*
X154610876Y-63445864D01*
X154610876Y-63445864D02*
X154468019Y-63445864D01*
X154468019Y-63445864D02*
X154372781Y-63493483D01*
X154372781Y-63493483D02*
X154325162Y-63588721D01*
X154325162Y-63588721D02*
X154325162Y-64112531D01*
X153468019Y-64064912D02*
X153563257Y-64112531D01*
X153563257Y-64112531D02*
X153753733Y-64112531D01*
X153753733Y-64112531D02*
X153848971Y-64064912D01*
X153848971Y-64064912D02*
X153896590Y-63969673D01*
X153896590Y-63969673D02*
X153896590Y-63588721D01*
X153896590Y-63588721D02*
X153848971Y-63493483D01*
X153848971Y-63493483D02*
X153753733Y-63445864D01*
X153753733Y-63445864D02*
X153563257Y-63445864D01*
X153563257Y-63445864D02*
X153468019Y-63493483D01*
X153468019Y-63493483D02*
X153420400Y-63588721D01*
X153420400Y-63588721D02*
X153420400Y-63683959D01*
X153420400Y-63683959D02*
X153896590Y-63779197D01*
X162420401Y-64722475D02*
X162420401Y-65436760D01*
X162420401Y-65436760D02*
X162468020Y-65579617D01*
X162468020Y-65579617D02*
X162563258Y-65674856D01*
X162563258Y-65674856D02*
X162706115Y-65722475D01*
X162706115Y-65722475D02*
X162801353Y-65722475D01*
X161563258Y-65674856D02*
X161658496Y-65722475D01*
X161658496Y-65722475D02*
X161848972Y-65722475D01*
X161848972Y-65722475D02*
X161944210Y-65674856D01*
X161944210Y-65674856D02*
X161991829Y-65579617D01*
X161991829Y-65579617D02*
X161991829Y-65198665D01*
X161991829Y-65198665D02*
X161944210Y-65103427D01*
X161944210Y-65103427D02*
X161848972Y-65055808D01*
X161848972Y-65055808D02*
X161658496Y-65055808D01*
X161658496Y-65055808D02*
X161563258Y-65103427D01*
X161563258Y-65103427D02*
X161515639Y-65198665D01*
X161515639Y-65198665D02*
X161515639Y-65293903D01*
X161515639Y-65293903D02*
X161991829Y-65389141D01*
X161134686Y-65674856D02*
X161039448Y-65722475D01*
X161039448Y-65722475D02*
X160848972Y-65722475D01*
X160848972Y-65722475D02*
X160753734Y-65674856D01*
X160753734Y-65674856D02*
X160706115Y-65579617D01*
X160706115Y-65579617D02*
X160706115Y-65531998D01*
X160706115Y-65531998D02*
X160753734Y-65436760D01*
X160753734Y-65436760D02*
X160848972Y-65389141D01*
X160848972Y-65389141D02*
X160991829Y-65389141D01*
X160991829Y-65389141D02*
X161087067Y-65341522D01*
X161087067Y-65341522D02*
X161134686Y-65246284D01*
X161134686Y-65246284D02*
X161134686Y-65198665D01*
X161134686Y-65198665D02*
X161087067Y-65103427D01*
X161087067Y-65103427D02*
X160991829Y-65055808D01*
X160991829Y-65055808D02*
X160848972Y-65055808D01*
X160848972Y-65055808D02*
X160753734Y-65103427D01*
X159848972Y-65055808D02*
X159848972Y-65722475D01*
X160277543Y-65055808D02*
X160277543Y-65579617D01*
X160277543Y-65579617D02*
X160229924Y-65674856D01*
X160229924Y-65674856D02*
X160134686Y-65722475D01*
X160134686Y-65722475D02*
X159991829Y-65722475D01*
X159991829Y-65722475D02*
X159896591Y-65674856D01*
X159896591Y-65674856D02*
X159848972Y-65627236D01*
X159420400Y-65674856D02*
X159325162Y-65722475D01*
X159325162Y-65722475D02*
X159134686Y-65722475D01*
X159134686Y-65722475D02*
X159039448Y-65674856D01*
X159039448Y-65674856D02*
X158991829Y-65579617D01*
X158991829Y-65579617D02*
X158991829Y-65531998D01*
X158991829Y-65531998D02*
X159039448Y-65436760D01*
X159039448Y-65436760D02*
X159134686Y-65389141D01*
X159134686Y-65389141D02*
X159277543Y-65389141D01*
X159277543Y-65389141D02*
X159372781Y-65341522D01*
X159372781Y-65341522D02*
X159420400Y-65246284D01*
X159420400Y-65246284D02*
X159420400Y-65198665D01*
X159420400Y-65198665D02*
X159372781Y-65103427D01*
X159372781Y-65103427D02*
X159277543Y-65055808D01*
X159277543Y-65055808D02*
X159134686Y-65055808D01*
X159134686Y-65055808D02*
X159039448Y-65103427D01*
X157801352Y-65722475D02*
X157801352Y-64722475D01*
X157801352Y-64722475D02*
X157468019Y-65436760D01*
X157468019Y-65436760D02*
X157134686Y-64722475D01*
X157134686Y-64722475D02*
X157134686Y-65722475D01*
X156229924Y-65722475D02*
X156229924Y-65198665D01*
X156229924Y-65198665D02*
X156277543Y-65103427D01*
X156277543Y-65103427D02*
X156372781Y-65055808D01*
X156372781Y-65055808D02*
X156563257Y-65055808D01*
X156563257Y-65055808D02*
X156658495Y-65103427D01*
X156229924Y-65674856D02*
X156325162Y-65722475D01*
X156325162Y-65722475D02*
X156563257Y-65722475D01*
X156563257Y-65722475D02*
X156658495Y-65674856D01*
X156658495Y-65674856D02*
X156706114Y-65579617D01*
X156706114Y-65579617D02*
X156706114Y-65484379D01*
X156706114Y-65484379D02*
X156658495Y-65389141D01*
X156658495Y-65389141D02*
X156563257Y-65341522D01*
X156563257Y-65341522D02*
X156325162Y-65341522D01*
X156325162Y-65341522D02*
X156229924Y-65293903D01*
X155753733Y-65722475D02*
X155753733Y-65055808D01*
X155753733Y-65246284D02*
X155706114Y-65151046D01*
X155706114Y-65151046D02*
X155658495Y-65103427D01*
X155658495Y-65103427D02*
X155563257Y-65055808D01*
X155563257Y-65055808D02*
X155468019Y-65055808D01*
X155277542Y-65055808D02*
X154896590Y-65055808D01*
X155134685Y-64722475D02*
X155134685Y-65579617D01*
X155134685Y-65579617D02*
X155087066Y-65674856D01*
X155087066Y-65674856D02*
X154991828Y-65722475D01*
X154991828Y-65722475D02*
X154896590Y-65722475D01*
X154563256Y-65722475D02*
X154563256Y-65055808D01*
X154563256Y-64722475D02*
X154610875Y-64770094D01*
X154610875Y-64770094D02*
X154563256Y-64817713D01*
X154563256Y-64817713D02*
X154515637Y-64770094D01*
X154515637Y-64770094D02*
X154563256Y-64722475D01*
X154563256Y-64722475D02*
X154563256Y-64817713D01*
X154087066Y-65055808D02*
X154087066Y-65722475D01*
X154087066Y-65151046D02*
X154039447Y-65103427D01*
X154039447Y-65103427D02*
X153944209Y-65055808D01*
X153944209Y-65055808D02*
X153801352Y-65055808D01*
X153801352Y-65055808D02*
X153706114Y-65103427D01*
X153706114Y-65103427D02*
X153658495Y-65198665D01*
X153658495Y-65198665D02*
X153658495Y-65722475D01*
X152801352Y-65674856D02*
X152896590Y-65722475D01*
X152896590Y-65722475D02*
X153087066Y-65722475D01*
X153087066Y-65722475D02*
X153182304Y-65674856D01*
X153182304Y-65674856D02*
X153229923Y-65579617D01*
X153229923Y-65579617D02*
X153229923Y-65198665D01*
X153229923Y-65198665D02*
X153182304Y-65103427D01*
X153182304Y-65103427D02*
X153087066Y-65055808D01*
X153087066Y-65055808D02*
X152896590Y-65055808D01*
X152896590Y-65055808D02*
X152801352Y-65103427D01*
X152801352Y-65103427D02*
X152753733Y-65198665D01*
X152753733Y-65198665D02*
X152753733Y-65293903D01*
X152753733Y-65293903D02*
X153229923Y-65389141D01*
X152420399Y-65055808D02*
X151896590Y-65055808D01*
X151896590Y-65055808D02*
X152420399Y-65722475D01*
X152420399Y-65722475D02*
X151896590Y-65722475D01*
X162229925Y-67332419D02*
X162706115Y-67332419D01*
X162706115Y-67332419D02*
X162706115Y-66332419D01*
X161468020Y-66665752D02*
X161468020Y-67332419D01*
X161896591Y-66665752D02*
X161896591Y-67189561D01*
X161896591Y-67189561D02*
X161848972Y-67284800D01*
X161848972Y-67284800D02*
X161753734Y-67332419D01*
X161753734Y-67332419D02*
X161610877Y-67332419D01*
X161610877Y-67332419D02*
X161515639Y-67284800D01*
X161515639Y-67284800D02*
X161468020Y-67237180D01*
X160991829Y-67332419D02*
X160991829Y-66665752D01*
X160991829Y-66332419D02*
X161039448Y-66380038D01*
X161039448Y-66380038D02*
X160991829Y-66427657D01*
X160991829Y-66427657D02*
X160944210Y-66380038D01*
X160944210Y-66380038D02*
X160991829Y-66332419D01*
X160991829Y-66332419D02*
X160991829Y-66427657D01*
X160563258Y-67284800D02*
X160468020Y-67332419D01*
X160468020Y-67332419D02*
X160277544Y-67332419D01*
X160277544Y-67332419D02*
X160182306Y-67284800D01*
X160182306Y-67284800D02*
X160134687Y-67189561D01*
X160134687Y-67189561D02*
X160134687Y-67141942D01*
X160134687Y-67141942D02*
X160182306Y-67046704D01*
X160182306Y-67046704D02*
X160277544Y-66999085D01*
X160277544Y-66999085D02*
X160420401Y-66999085D01*
X160420401Y-66999085D02*
X160515639Y-66951466D01*
X160515639Y-66951466D02*
X160563258Y-66856228D01*
X160563258Y-66856228D02*
X160563258Y-66808609D01*
X160563258Y-66808609D02*
X160515639Y-66713371D01*
X160515639Y-66713371D02*
X160420401Y-66665752D01*
X160420401Y-66665752D02*
X160277544Y-66665752D01*
X160277544Y-66665752D02*
X160182306Y-66713371D01*
X159087067Y-66332419D02*
X158515639Y-66332419D01*
X158801353Y-67332419D02*
X158801353Y-66332419D01*
X158182305Y-67332419D02*
X158182305Y-66665752D01*
X158182305Y-66856228D02*
X158134686Y-66760990D01*
X158134686Y-66760990D02*
X158087067Y-66713371D01*
X158087067Y-66713371D02*
X157991829Y-66665752D01*
X157991829Y-66665752D02*
X157896591Y-66665752D01*
X157182305Y-67284800D02*
X157277543Y-67332419D01*
X157277543Y-67332419D02*
X157468019Y-67332419D01*
X157468019Y-67332419D02*
X157563257Y-67284800D01*
X157563257Y-67284800D02*
X157610876Y-67189561D01*
X157610876Y-67189561D02*
X157610876Y-66808609D01*
X157610876Y-66808609D02*
X157563257Y-66713371D01*
X157563257Y-66713371D02*
X157468019Y-66665752D01*
X157468019Y-66665752D02*
X157277543Y-66665752D01*
X157277543Y-66665752D02*
X157182305Y-66713371D01*
X157182305Y-66713371D02*
X157134686Y-66808609D01*
X157134686Y-66808609D02*
X157134686Y-66903847D01*
X157134686Y-66903847D02*
X157610876Y-66999085D01*
X156801352Y-66665752D02*
X156563257Y-67332419D01*
X156563257Y-67332419D02*
X156325162Y-66665752D01*
X155944209Y-67332419D02*
X155944209Y-66665752D01*
X155944209Y-66332419D02*
X155991828Y-66380038D01*
X155991828Y-66380038D02*
X155944209Y-66427657D01*
X155944209Y-66427657D02*
X155896590Y-66380038D01*
X155896590Y-66380038D02*
X155944209Y-66332419D01*
X155944209Y-66332419D02*
X155944209Y-66427657D01*
X155468019Y-66665752D02*
X155468019Y-67332419D01*
X155468019Y-66760990D02*
X155420400Y-66713371D01*
X155420400Y-66713371D02*
X155325162Y-66665752D01*
X155325162Y-66665752D02*
X155182305Y-66665752D01*
X155182305Y-66665752D02*
X155087067Y-66713371D01*
X155087067Y-66713371D02*
X155039448Y-66808609D01*
X155039448Y-66808609D02*
X155039448Y-67332419D01*
X154420400Y-67332419D02*
X154515638Y-67284800D01*
X154515638Y-67284800D02*
X154563257Y-67237180D01*
X154563257Y-67237180D02*
X154610876Y-67141942D01*
X154610876Y-67141942D02*
X154610876Y-66856228D01*
X154610876Y-66856228D02*
X154563257Y-66760990D01*
X154563257Y-66760990D02*
X154515638Y-66713371D01*
X154515638Y-66713371D02*
X154420400Y-66665752D01*
X154420400Y-66665752D02*
X154277543Y-66665752D01*
X154277543Y-66665752D02*
X154182305Y-66713371D01*
X154182305Y-66713371D02*
X154134686Y-66760990D01*
X154134686Y-66760990D02*
X154087067Y-66856228D01*
X154087067Y-66856228D02*
X154087067Y-67141942D01*
X154087067Y-67141942D02*
X154134686Y-67237180D01*
X154134686Y-67237180D02*
X154182305Y-67284800D01*
X154182305Y-67284800D02*
X154277543Y-67332419D01*
X154277543Y-67332419D02*
X154420400Y-67332419D01*
D11*
X160694285Y-69485460D02*
X160218095Y-69485460D01*
X160789523Y-69771175D02*
X160456190Y-68771175D01*
X160456190Y-68771175D02*
X160122857Y-69771175D01*
X159360952Y-69771175D02*
X159360952Y-68771175D01*
X159360952Y-69723556D02*
X159456190Y-69771175D01*
X159456190Y-69771175D02*
X159646666Y-69771175D01*
X159646666Y-69771175D02*
X159741904Y-69723556D01*
X159741904Y-69723556D02*
X159789523Y-69675936D01*
X159789523Y-69675936D02*
X159837142Y-69580698D01*
X159837142Y-69580698D02*
X159837142Y-69294984D01*
X159837142Y-69294984D02*
X159789523Y-69199746D01*
X159789523Y-69199746D02*
X159741904Y-69152127D01*
X159741904Y-69152127D02*
X159646666Y-69104508D01*
X159646666Y-69104508D02*
X159456190Y-69104508D01*
X159456190Y-69104508D02*
X159360952Y-69152127D01*
X158979999Y-69104508D02*
X158741904Y-69771175D01*
X158741904Y-69771175D02*
X158503809Y-69104508D01*
X158122856Y-69771175D02*
X158122856Y-69104508D01*
X158122856Y-68771175D02*
X158170475Y-68818794D01*
X158170475Y-68818794D02*
X158122856Y-68866413D01*
X158122856Y-68866413D02*
X158075237Y-68818794D01*
X158075237Y-68818794D02*
X158122856Y-68771175D01*
X158122856Y-68771175D02*
X158122856Y-68866413D01*
X157694285Y-69723556D02*
X157599047Y-69771175D01*
X157599047Y-69771175D02*
X157408571Y-69771175D01*
X157408571Y-69771175D02*
X157313333Y-69723556D01*
X157313333Y-69723556D02*
X157265714Y-69628317D01*
X157265714Y-69628317D02*
X157265714Y-69580698D01*
X157265714Y-69580698D02*
X157313333Y-69485460D01*
X157313333Y-69485460D02*
X157408571Y-69437841D01*
X157408571Y-69437841D02*
X157551428Y-69437841D01*
X157551428Y-69437841D02*
X157646666Y-69390222D01*
X157646666Y-69390222D02*
X157694285Y-69294984D01*
X157694285Y-69294984D02*
X157694285Y-69247365D01*
X157694285Y-69247365D02*
X157646666Y-69152127D01*
X157646666Y-69152127D02*
X157551428Y-69104508D01*
X157551428Y-69104508D02*
X157408571Y-69104508D01*
X157408571Y-69104508D02*
X157313333Y-69152127D01*
X156694285Y-69771175D02*
X156789523Y-69723556D01*
X156789523Y-69723556D02*
X156837142Y-69675936D01*
X156837142Y-69675936D02*
X156884761Y-69580698D01*
X156884761Y-69580698D02*
X156884761Y-69294984D01*
X156884761Y-69294984D02*
X156837142Y-69199746D01*
X156837142Y-69199746D02*
X156789523Y-69152127D01*
X156789523Y-69152127D02*
X156694285Y-69104508D01*
X156694285Y-69104508D02*
X156551428Y-69104508D01*
X156551428Y-69104508D02*
X156456190Y-69152127D01*
X156456190Y-69152127D02*
X156408571Y-69199746D01*
X156408571Y-69199746D02*
X156360952Y-69294984D01*
X156360952Y-69294984D02*
X156360952Y-69580698D01*
X156360952Y-69580698D02*
X156408571Y-69675936D01*
X156408571Y-69675936D02*
X156456190Y-69723556D01*
X156456190Y-69723556D02*
X156551428Y-69771175D01*
X156551428Y-69771175D02*
X156694285Y-69771175D01*
X155932380Y-69771175D02*
X155932380Y-69104508D01*
X155932380Y-69294984D02*
X155884761Y-69199746D01*
X155884761Y-69199746D02*
X155837142Y-69152127D01*
X155837142Y-69152127D02*
X155741904Y-69104508D01*
X155741904Y-69104508D02*
X155646666Y-69104508D01*
X155313332Y-69675936D02*
X155265713Y-69723556D01*
X155265713Y-69723556D02*
X155313332Y-69771175D01*
X155313332Y-69771175D02*
X155360951Y-69723556D01*
X155360951Y-69723556D02*
X155313332Y-69675936D01*
X155313332Y-69675936D02*
X155313332Y-69771175D01*
X155313332Y-69152127D02*
X155265713Y-69199746D01*
X155265713Y-69199746D02*
X155313332Y-69247365D01*
X155313332Y-69247365D02*
X155360951Y-69199746D01*
X155360951Y-69199746D02*
X155313332Y-69152127D01*
X155313332Y-69152127D02*
X155313332Y-69247365D01*
X164360952Y-71381119D02*
X164360952Y-70381119D01*
X164360952Y-70381119D02*
X164122857Y-70381119D01*
X164122857Y-70381119D02*
X163980000Y-70428738D01*
X163980000Y-70428738D02*
X163884762Y-70523976D01*
X163884762Y-70523976D02*
X163837143Y-70619214D01*
X163837143Y-70619214D02*
X163789524Y-70809690D01*
X163789524Y-70809690D02*
X163789524Y-70952547D01*
X163789524Y-70952547D02*
X163837143Y-71143023D01*
X163837143Y-71143023D02*
X163884762Y-71238261D01*
X163884762Y-71238261D02*
X163980000Y-71333500D01*
X163980000Y-71333500D02*
X164122857Y-71381119D01*
X164122857Y-71381119D02*
X164360952Y-71381119D01*
X163360952Y-71381119D02*
X163360952Y-70714452D01*
X163360952Y-70904928D02*
X163313333Y-70809690D01*
X163313333Y-70809690D02*
X163265714Y-70762071D01*
X163265714Y-70762071D02*
X163170476Y-70714452D01*
X163170476Y-70714452D02*
X163075238Y-70714452D01*
X161979999Y-71381119D02*
X161979999Y-70381119D01*
X161979999Y-70381119D02*
X161408571Y-71381119D01*
X161408571Y-71381119D02*
X161408571Y-70381119D01*
X160932380Y-71285880D02*
X160884761Y-71333500D01*
X160884761Y-71333500D02*
X160932380Y-71381119D01*
X160932380Y-71381119D02*
X160979999Y-71333500D01*
X160979999Y-71333500D02*
X160932380Y-71285880D01*
X160932380Y-71285880D02*
X160932380Y-71381119D01*
X159789523Y-70381119D02*
X159551428Y-71381119D01*
X159551428Y-71381119D02*
X159360952Y-70666833D01*
X159360952Y-70666833D02*
X159170476Y-71381119D01*
X159170476Y-71381119D02*
X158932381Y-70381119D01*
X158408571Y-71381119D02*
X158503809Y-71333500D01*
X158503809Y-71333500D02*
X158551428Y-71285880D01*
X158551428Y-71285880D02*
X158599047Y-71190642D01*
X158599047Y-71190642D02*
X158599047Y-70904928D01*
X158599047Y-70904928D02*
X158551428Y-70809690D01*
X158551428Y-70809690D02*
X158503809Y-70762071D01*
X158503809Y-70762071D02*
X158408571Y-70714452D01*
X158408571Y-70714452D02*
X158265714Y-70714452D01*
X158265714Y-70714452D02*
X158170476Y-70762071D01*
X158170476Y-70762071D02*
X158122857Y-70809690D01*
X158122857Y-70809690D02*
X158075238Y-70904928D01*
X158075238Y-70904928D02*
X158075238Y-71190642D01*
X158075238Y-71190642D02*
X158122857Y-71285880D01*
X158122857Y-71285880D02*
X158170476Y-71333500D01*
X158170476Y-71333500D02*
X158265714Y-71381119D01*
X158265714Y-71381119D02*
X158408571Y-71381119D01*
X157646666Y-70714452D02*
X157646666Y-71381119D01*
X157646666Y-70809690D02*
X157599047Y-70762071D01*
X157599047Y-70762071D02*
X157503809Y-70714452D01*
X157503809Y-70714452D02*
X157360952Y-70714452D01*
X157360952Y-70714452D02*
X157265714Y-70762071D01*
X157265714Y-70762071D02*
X157218095Y-70857309D01*
X157218095Y-70857309D02*
X157218095Y-71381119D01*
X156313333Y-70714452D02*
X156313333Y-71523976D01*
X156313333Y-71523976D02*
X156360952Y-71619214D01*
X156360952Y-71619214D02*
X156408571Y-71666833D01*
X156408571Y-71666833D02*
X156503809Y-71714452D01*
X156503809Y-71714452D02*
X156646666Y-71714452D01*
X156646666Y-71714452D02*
X156741904Y-71666833D01*
X156313333Y-71333500D02*
X156408571Y-71381119D01*
X156408571Y-71381119D02*
X156599047Y-71381119D01*
X156599047Y-71381119D02*
X156694285Y-71333500D01*
X156694285Y-71333500D02*
X156741904Y-71285880D01*
X156741904Y-71285880D02*
X156789523Y-71190642D01*
X156789523Y-71190642D02*
X156789523Y-70904928D01*
X156789523Y-70904928D02*
X156741904Y-70809690D01*
X156741904Y-70809690D02*
X156694285Y-70762071D01*
X156694285Y-70762071D02*
X156599047Y-70714452D01*
X156599047Y-70714452D02*
X156408571Y-70714452D01*
X156408571Y-70714452D02*
X156313333Y-70762071D01*
X155837142Y-71381119D02*
X155837142Y-70381119D01*
X155741904Y-71000166D02*
X155456190Y-71381119D01*
X155456190Y-70714452D02*
X155837142Y-71095404D01*
X154599047Y-71381119D02*
X154599047Y-70857309D01*
X154599047Y-70857309D02*
X154646666Y-70762071D01*
X154646666Y-70762071D02*
X154741904Y-70714452D01*
X154741904Y-70714452D02*
X154932380Y-70714452D01*
X154932380Y-70714452D02*
X155027618Y-70762071D01*
X154599047Y-71333500D02*
X154694285Y-71381119D01*
X154694285Y-71381119D02*
X154932380Y-71381119D01*
X154932380Y-71381119D02*
X155027618Y-71333500D01*
X155027618Y-71333500D02*
X155075237Y-71238261D01*
X155075237Y-71238261D02*
X155075237Y-71143023D01*
X155075237Y-71143023D02*
X155027618Y-71047785D01*
X155027618Y-71047785D02*
X154932380Y-71000166D01*
X154932380Y-71000166D02*
X154694285Y-71000166D01*
X154694285Y-71000166D02*
X154599047Y-70952547D01*
X154170475Y-71333500D02*
X154075237Y-71381119D01*
X154075237Y-71381119D02*
X153884761Y-71381119D01*
X153884761Y-71381119D02*
X153789523Y-71333500D01*
X153789523Y-71333500D02*
X153741904Y-71238261D01*
X153741904Y-71238261D02*
X153741904Y-71190642D01*
X153741904Y-71190642D02*
X153789523Y-71095404D01*
X153789523Y-71095404D02*
X153884761Y-71047785D01*
X153884761Y-71047785D02*
X154027618Y-71047785D01*
X154027618Y-71047785D02*
X154122856Y-71000166D01*
X154122856Y-71000166D02*
X154170475Y-70904928D01*
X154170475Y-70904928D02*
X154170475Y-70857309D01*
X154170475Y-70857309D02*
X154122856Y-70762071D01*
X154122856Y-70762071D02*
X154027618Y-70714452D01*
X154027618Y-70714452D02*
X153884761Y-70714452D01*
X153884761Y-70714452D02*
X153789523Y-70762071D01*
X152932380Y-71333500D02*
X153027618Y-71381119D01*
X153027618Y-71381119D02*
X153218094Y-71381119D01*
X153218094Y-71381119D02*
X153313332Y-71333500D01*
X153313332Y-71333500D02*
X153360951Y-71238261D01*
X153360951Y-71238261D02*
X153360951Y-70857309D01*
X153360951Y-70857309D02*
X153313332Y-70762071D01*
X153313332Y-70762071D02*
X153218094Y-70714452D01*
X153218094Y-70714452D02*
X153027618Y-70714452D01*
X153027618Y-70714452D02*
X152932380Y-70762071D01*
X152932380Y-70762071D02*
X152884761Y-70857309D01*
X152884761Y-70857309D02*
X152884761Y-70952547D01*
X152884761Y-70952547D02*
X153360951Y-71047785D01*
X152456189Y-71381119D02*
X152456189Y-70714452D01*
X152456189Y-70809690D02*
X152408570Y-70762071D01*
X152408570Y-70762071D02*
X152313332Y-70714452D01*
X152313332Y-70714452D02*
X152170475Y-70714452D01*
X152170475Y-70714452D02*
X152075237Y-70762071D01*
X152075237Y-70762071D02*
X152027618Y-70857309D01*
X152027618Y-70857309D02*
X152027618Y-71381119D01*
X152027618Y-70857309D02*
X151979999Y-70762071D01*
X151979999Y-70762071D02*
X151884761Y-70714452D01*
X151884761Y-70714452D02*
X151741904Y-70714452D01*
X151741904Y-70714452D02*
X151646665Y-70762071D01*
X151646665Y-70762071D02*
X151599046Y-70857309D01*
X151599046Y-70857309D02*
X151599046Y-71381119D01*
D12*
X161105237Y-55707331D02*
X160533809Y-55707331D01*
X160819523Y-56707331D02*
X160819523Y-55707331D01*
X160200475Y-56183521D02*
X159867142Y-56183521D01*
X159724285Y-56707331D02*
X160200475Y-56707331D01*
X160200475Y-56707331D02*
X160200475Y-55707331D01*
X160200475Y-55707331D02*
X159724285Y-55707331D01*
X159343332Y-56421616D02*
X158867142Y-56421616D01*
X159438570Y-56707331D02*
X159105237Y-55707331D01*
X159105237Y-55707331D02*
X158771904Y-56707331D01*
X158438570Y-56707331D02*
X158438570Y-55707331D01*
X158438570Y-55707331D02*
X158105237Y-56421616D01*
X158105237Y-56421616D02*
X157771904Y-55707331D01*
X157771904Y-55707331D02*
X157771904Y-56707331D01*
X156105237Y-56040664D02*
X156105237Y-56707331D01*
X156343332Y-55659712D02*
X156581427Y-56373997D01*
X156581427Y-56373997D02*
X155962380Y-56373997D01*
X164390951Y-58269656D02*
X164248094Y-58317275D01*
X164248094Y-58317275D02*
X164009999Y-58317275D01*
X164009999Y-58317275D02*
X163914761Y-58269656D01*
X163914761Y-58269656D02*
X163867142Y-58222036D01*
X163867142Y-58222036D02*
X163819523Y-58126798D01*
X163819523Y-58126798D02*
X163819523Y-58031560D01*
X163819523Y-58031560D02*
X163867142Y-57936322D01*
X163867142Y-57936322D02*
X163914761Y-57888703D01*
X163914761Y-57888703D02*
X164009999Y-57841084D01*
X164009999Y-57841084D02*
X164200475Y-57793465D01*
X164200475Y-57793465D02*
X164295713Y-57745846D01*
X164295713Y-57745846D02*
X164343332Y-57698227D01*
X164343332Y-57698227D02*
X164390951Y-57602989D01*
X164390951Y-57602989D02*
X164390951Y-57507751D01*
X164390951Y-57507751D02*
X164343332Y-57412513D01*
X164343332Y-57412513D02*
X164295713Y-57364894D01*
X164295713Y-57364894D02*
X164200475Y-57317275D01*
X164200475Y-57317275D02*
X163962380Y-57317275D01*
X163962380Y-57317275D02*
X163819523Y-57364894D01*
X163009999Y-58269656D02*
X163105237Y-58317275D01*
X163105237Y-58317275D02*
X163295713Y-58317275D01*
X163295713Y-58317275D02*
X163390951Y-58269656D01*
X163390951Y-58269656D02*
X163438570Y-58174417D01*
X163438570Y-58174417D02*
X163438570Y-57793465D01*
X163438570Y-57793465D02*
X163390951Y-57698227D01*
X163390951Y-57698227D02*
X163295713Y-57650608D01*
X163295713Y-57650608D02*
X163105237Y-57650608D01*
X163105237Y-57650608D02*
X163009999Y-57698227D01*
X163009999Y-57698227D02*
X162962380Y-57793465D01*
X162962380Y-57793465D02*
X162962380Y-57888703D01*
X162962380Y-57888703D02*
X163438570Y-57983941D01*
X162533808Y-57650608D02*
X162533808Y-58317275D01*
X162533808Y-57745846D02*
X162486189Y-57698227D01*
X162486189Y-57698227D02*
X162390951Y-57650608D01*
X162390951Y-57650608D02*
X162248094Y-57650608D01*
X162248094Y-57650608D02*
X162152856Y-57698227D01*
X162152856Y-57698227D02*
X162105237Y-57793465D01*
X162105237Y-57793465D02*
X162105237Y-58317275D01*
X161629046Y-58317275D02*
X161629046Y-57650608D01*
X161629046Y-57317275D02*
X161676665Y-57364894D01*
X161676665Y-57364894D02*
X161629046Y-57412513D01*
X161629046Y-57412513D02*
X161581427Y-57364894D01*
X161581427Y-57364894D02*
X161629046Y-57317275D01*
X161629046Y-57317275D02*
X161629046Y-57412513D01*
X161009999Y-58317275D02*
X161105237Y-58269656D01*
X161105237Y-58269656D02*
X161152856Y-58222036D01*
X161152856Y-58222036D02*
X161200475Y-58126798D01*
X161200475Y-58126798D02*
X161200475Y-57841084D01*
X161200475Y-57841084D02*
X161152856Y-57745846D01*
X161152856Y-57745846D02*
X161105237Y-57698227D01*
X161105237Y-57698227D02*
X161009999Y-57650608D01*
X161009999Y-57650608D02*
X160867142Y-57650608D01*
X160867142Y-57650608D02*
X160771904Y-57698227D01*
X160771904Y-57698227D02*
X160724285Y-57745846D01*
X160724285Y-57745846D02*
X160676666Y-57841084D01*
X160676666Y-57841084D02*
X160676666Y-58126798D01*
X160676666Y-58126798D02*
X160724285Y-58222036D01*
X160724285Y-58222036D02*
X160771904Y-58269656D01*
X160771904Y-58269656D02*
X160867142Y-58317275D01*
X160867142Y-58317275D02*
X161009999Y-58317275D01*
X160248094Y-58317275D02*
X160248094Y-57650608D01*
X160248094Y-57841084D02*
X160200475Y-57745846D01*
X160200475Y-57745846D02*
X160152856Y-57698227D01*
X160152856Y-57698227D02*
X160057618Y-57650608D01*
X160057618Y-57650608D02*
X159962380Y-57650608D01*
X158867141Y-58317275D02*
X158867141Y-57317275D01*
X158867141Y-57317275D02*
X158629046Y-57317275D01*
X158629046Y-57317275D02*
X158486189Y-57364894D01*
X158486189Y-57364894D02*
X158390951Y-57460132D01*
X158390951Y-57460132D02*
X158343332Y-57555370D01*
X158343332Y-57555370D02*
X158295713Y-57745846D01*
X158295713Y-57745846D02*
X158295713Y-57888703D01*
X158295713Y-57888703D02*
X158343332Y-58079179D01*
X158343332Y-58079179D02*
X158390951Y-58174417D01*
X158390951Y-58174417D02*
X158486189Y-58269656D01*
X158486189Y-58269656D02*
X158629046Y-58317275D01*
X158629046Y-58317275D02*
X158867141Y-58317275D01*
X157486189Y-58269656D02*
X157581427Y-58317275D01*
X157581427Y-58317275D02*
X157771903Y-58317275D01*
X157771903Y-58317275D02*
X157867141Y-58269656D01*
X157867141Y-58269656D02*
X157914760Y-58174417D01*
X157914760Y-58174417D02*
X157914760Y-57793465D01*
X157914760Y-57793465D02*
X157867141Y-57698227D01*
X157867141Y-57698227D02*
X157771903Y-57650608D01*
X157771903Y-57650608D02*
X157581427Y-57650608D01*
X157581427Y-57650608D02*
X157486189Y-57698227D01*
X157486189Y-57698227D02*
X157438570Y-57793465D01*
X157438570Y-57793465D02*
X157438570Y-57888703D01*
X157438570Y-57888703D02*
X157914760Y-57983941D01*
X157057617Y-58269656D02*
X156962379Y-58317275D01*
X156962379Y-58317275D02*
X156771903Y-58317275D01*
X156771903Y-58317275D02*
X156676665Y-58269656D01*
X156676665Y-58269656D02*
X156629046Y-58174417D01*
X156629046Y-58174417D02*
X156629046Y-58126798D01*
X156629046Y-58126798D02*
X156676665Y-58031560D01*
X156676665Y-58031560D02*
X156771903Y-57983941D01*
X156771903Y-57983941D02*
X156914760Y-57983941D01*
X156914760Y-57983941D02*
X157009998Y-57936322D01*
X157009998Y-57936322D02*
X157057617Y-57841084D01*
X157057617Y-57841084D02*
X157057617Y-57793465D01*
X157057617Y-57793465D02*
X157009998Y-57698227D01*
X157009998Y-57698227D02*
X156914760Y-57650608D01*
X156914760Y-57650608D02*
X156771903Y-57650608D01*
X156771903Y-57650608D02*
X156676665Y-57698227D01*
X156200474Y-58317275D02*
X156200474Y-57650608D01*
X156200474Y-57317275D02*
X156248093Y-57364894D01*
X156248093Y-57364894D02*
X156200474Y-57412513D01*
X156200474Y-57412513D02*
X156152855Y-57364894D01*
X156152855Y-57364894D02*
X156200474Y-57317275D01*
X156200474Y-57317275D02*
X156200474Y-57412513D01*
X155295713Y-57650608D02*
X155295713Y-58460132D01*
X155295713Y-58460132D02*
X155343332Y-58555370D01*
X155343332Y-58555370D02*
X155390951Y-58602989D01*
X155390951Y-58602989D02*
X155486189Y-58650608D01*
X155486189Y-58650608D02*
X155629046Y-58650608D01*
X155629046Y-58650608D02*
X155724284Y-58602989D01*
X155295713Y-58269656D02*
X155390951Y-58317275D01*
X155390951Y-58317275D02*
X155581427Y-58317275D01*
X155581427Y-58317275D02*
X155676665Y-58269656D01*
X155676665Y-58269656D02*
X155724284Y-58222036D01*
X155724284Y-58222036D02*
X155771903Y-58126798D01*
X155771903Y-58126798D02*
X155771903Y-57841084D01*
X155771903Y-57841084D02*
X155724284Y-57745846D01*
X155724284Y-57745846D02*
X155676665Y-57698227D01*
X155676665Y-57698227D02*
X155581427Y-57650608D01*
X155581427Y-57650608D02*
X155390951Y-57650608D01*
X155390951Y-57650608D02*
X155295713Y-57698227D01*
X154819522Y-57650608D02*
X154819522Y-58317275D01*
X154819522Y-57745846D02*
X154771903Y-57698227D01*
X154771903Y-57698227D02*
X154676665Y-57650608D01*
X154676665Y-57650608D02*
X154533808Y-57650608D01*
X154533808Y-57650608D02*
X154438570Y-57698227D01*
X154438570Y-57698227D02*
X154390951Y-57793465D01*
X154390951Y-57793465D02*
X154390951Y-58317275D01*
X153152855Y-58317275D02*
X153152855Y-57317275D01*
X152676665Y-58317275D02*
X152676665Y-57317275D01*
X162986190Y-59879600D02*
X162843333Y-59927219D01*
X162843333Y-59927219D02*
X162605238Y-59927219D01*
X162605238Y-59927219D02*
X162510000Y-59879600D01*
X162510000Y-59879600D02*
X162462381Y-59831980D01*
X162462381Y-59831980D02*
X162414762Y-59736742D01*
X162414762Y-59736742D02*
X162414762Y-59641504D01*
X162414762Y-59641504D02*
X162462381Y-59546266D01*
X162462381Y-59546266D02*
X162510000Y-59498647D01*
X162510000Y-59498647D02*
X162605238Y-59451028D01*
X162605238Y-59451028D02*
X162795714Y-59403409D01*
X162795714Y-59403409D02*
X162890952Y-59355790D01*
X162890952Y-59355790D02*
X162938571Y-59308171D01*
X162938571Y-59308171D02*
X162986190Y-59212933D01*
X162986190Y-59212933D02*
X162986190Y-59117695D01*
X162986190Y-59117695D02*
X162938571Y-59022457D01*
X162938571Y-59022457D02*
X162890952Y-58974838D01*
X162890952Y-58974838D02*
X162795714Y-58927219D01*
X162795714Y-58927219D02*
X162557619Y-58927219D01*
X162557619Y-58927219D02*
X162414762Y-58974838D01*
X161986190Y-59260552D02*
X161986190Y-60260552D01*
X161986190Y-59308171D02*
X161890952Y-59260552D01*
X161890952Y-59260552D02*
X161700476Y-59260552D01*
X161700476Y-59260552D02*
X161605238Y-59308171D01*
X161605238Y-59308171D02*
X161557619Y-59355790D01*
X161557619Y-59355790D02*
X161510000Y-59451028D01*
X161510000Y-59451028D02*
X161510000Y-59736742D01*
X161510000Y-59736742D02*
X161557619Y-59831980D01*
X161557619Y-59831980D02*
X161605238Y-59879600D01*
X161605238Y-59879600D02*
X161700476Y-59927219D01*
X161700476Y-59927219D02*
X161890952Y-59927219D01*
X161890952Y-59927219D02*
X161986190Y-59879600D01*
X161081428Y-59927219D02*
X161081428Y-59260552D01*
X161081428Y-59451028D02*
X161033809Y-59355790D01*
X161033809Y-59355790D02*
X160986190Y-59308171D01*
X160986190Y-59308171D02*
X160890952Y-59260552D01*
X160890952Y-59260552D02*
X160795714Y-59260552D01*
X160462380Y-59927219D02*
X160462380Y-59260552D01*
X160462380Y-58927219D02*
X160509999Y-58974838D01*
X160509999Y-58974838D02*
X160462380Y-59022457D01*
X160462380Y-59022457D02*
X160414761Y-58974838D01*
X160414761Y-58974838D02*
X160462380Y-58927219D01*
X160462380Y-58927219D02*
X160462380Y-59022457D01*
X159986190Y-59260552D02*
X159986190Y-59927219D01*
X159986190Y-59355790D02*
X159938571Y-59308171D01*
X159938571Y-59308171D02*
X159843333Y-59260552D01*
X159843333Y-59260552D02*
X159700476Y-59260552D01*
X159700476Y-59260552D02*
X159605238Y-59308171D01*
X159605238Y-59308171D02*
X159557619Y-59403409D01*
X159557619Y-59403409D02*
X159557619Y-59927219D01*
X158652857Y-59260552D02*
X158652857Y-60070076D01*
X158652857Y-60070076D02*
X158700476Y-60165314D01*
X158700476Y-60165314D02*
X158748095Y-60212933D01*
X158748095Y-60212933D02*
X158843333Y-60260552D01*
X158843333Y-60260552D02*
X158986190Y-60260552D01*
X158986190Y-60260552D02*
X159081428Y-60212933D01*
X158652857Y-59879600D02*
X158748095Y-59927219D01*
X158748095Y-59927219D02*
X158938571Y-59927219D01*
X158938571Y-59927219D02*
X159033809Y-59879600D01*
X159033809Y-59879600D02*
X159081428Y-59831980D01*
X159081428Y-59831980D02*
X159129047Y-59736742D01*
X159129047Y-59736742D02*
X159129047Y-59451028D01*
X159129047Y-59451028D02*
X159081428Y-59355790D01*
X159081428Y-59355790D02*
X159033809Y-59308171D01*
X159033809Y-59308171D02*
X158938571Y-59260552D01*
X158938571Y-59260552D02*
X158748095Y-59260552D01*
X158748095Y-59260552D02*
X158652857Y-59308171D01*
X157462380Y-59022457D02*
X157414761Y-58974838D01*
X157414761Y-58974838D02*
X157319523Y-58927219D01*
X157319523Y-58927219D02*
X157081428Y-58927219D01*
X157081428Y-58927219D02*
X156986190Y-58974838D01*
X156986190Y-58974838D02*
X156938571Y-59022457D01*
X156938571Y-59022457D02*
X156890952Y-59117695D01*
X156890952Y-59117695D02*
X156890952Y-59212933D01*
X156890952Y-59212933D02*
X156938571Y-59355790D01*
X156938571Y-59355790D02*
X157509999Y-59927219D01*
X157509999Y-59927219D02*
X156890952Y-59927219D01*
X156271904Y-58927219D02*
X156176666Y-58927219D01*
X156176666Y-58927219D02*
X156081428Y-58974838D01*
X156081428Y-58974838D02*
X156033809Y-59022457D01*
X156033809Y-59022457D02*
X155986190Y-59117695D01*
X155986190Y-59117695D02*
X155938571Y-59308171D01*
X155938571Y-59308171D02*
X155938571Y-59546266D01*
X155938571Y-59546266D02*
X155986190Y-59736742D01*
X155986190Y-59736742D02*
X156033809Y-59831980D01*
X156033809Y-59831980D02*
X156081428Y-59879600D01*
X156081428Y-59879600D02*
X156176666Y-59927219D01*
X156176666Y-59927219D02*
X156271904Y-59927219D01*
X156271904Y-59927219D02*
X156367142Y-59879600D01*
X156367142Y-59879600D02*
X156414761Y-59831980D01*
X156414761Y-59831980D02*
X156462380Y-59736742D01*
X156462380Y-59736742D02*
X156509999Y-59546266D01*
X156509999Y-59546266D02*
X156509999Y-59308171D01*
X156509999Y-59308171D02*
X156462380Y-59117695D01*
X156462380Y-59117695D02*
X156414761Y-59022457D01*
X156414761Y-59022457D02*
X156367142Y-58974838D01*
X156367142Y-58974838D02*
X156271904Y-58927219D01*
X155557618Y-59022457D02*
X155509999Y-58974838D01*
X155509999Y-58974838D02*
X155414761Y-58927219D01*
X155414761Y-58927219D02*
X155176666Y-58927219D01*
X155176666Y-58927219D02*
X155081428Y-58974838D01*
X155081428Y-58974838D02*
X155033809Y-59022457D01*
X155033809Y-59022457D02*
X154986190Y-59117695D01*
X154986190Y-59117695D02*
X154986190Y-59212933D01*
X154986190Y-59212933D02*
X155033809Y-59355790D01*
X155033809Y-59355790D02*
X155605237Y-59927219D01*
X155605237Y-59927219D02*
X154986190Y-59927219D01*
X154129047Y-58927219D02*
X154319523Y-58927219D01*
X154319523Y-58927219D02*
X154414761Y-58974838D01*
X154414761Y-58974838D02*
X154462380Y-59022457D01*
X154462380Y-59022457D02*
X154557618Y-59165314D01*
X154557618Y-59165314D02*
X154605237Y-59355790D01*
X154605237Y-59355790D02*
X154605237Y-59736742D01*
X154605237Y-59736742D02*
X154557618Y-59831980D01*
X154557618Y-59831980D02*
X154509999Y-59879600D01*
X154509999Y-59879600D02*
X154414761Y-59927219D01*
X154414761Y-59927219D02*
X154224285Y-59927219D01*
X154224285Y-59927219D02*
X154129047Y-59879600D01*
X154129047Y-59879600D02*
X154081428Y-59831980D01*
X154081428Y-59831980D02*
X154033809Y-59736742D01*
X154033809Y-59736742D02*
X154033809Y-59498647D01*
X154033809Y-59498647D02*
X154081428Y-59403409D01*
X154081428Y-59403409D02*
X154129047Y-59355790D01*
X154129047Y-59355790D02*
X154224285Y-59308171D01*
X154224285Y-59308171D02*
X154414761Y-59308171D01*
X154414761Y-59308171D02*
X154509999Y-59355790D01*
X154509999Y-59355790D02*
X154557618Y-59403409D01*
X154557618Y-59403409D02*
X154605237Y-59498647D01*
D13*
%TO.C,G1*%
G36*
X117628918Y-57543881D02*
G01*
X117661224Y-57584071D01*
X117665963Y-57596772D01*
X117674783Y-57650234D01*
X117671874Y-57704587D01*
X117657650Y-57742482D01*
X117636401Y-57758129D01*
X117591806Y-57764586D01*
X117543177Y-57751210D01*
X117502311Y-57719717D01*
X117478067Y-57682337D01*
X117464774Y-57625031D01*
X117479979Y-57572388D01*
X117523118Y-57529525D01*
X117536106Y-57523282D01*
X117582838Y-57521890D01*
X117628918Y-57543881D01*
G37*
G36*
X119475793Y-59649160D02*
G01*
X119508101Y-59689350D01*
X119512843Y-59702050D01*
X119521659Y-59755513D01*
X119518761Y-59809866D01*
X119504526Y-59847766D01*
X119483276Y-59863410D01*
X119438678Y-59869864D01*
X119390060Y-59856489D01*
X119349185Y-59824994D01*
X119324945Y-59787617D01*
X119311655Y-59730314D01*
X119326856Y-59677668D01*
X119370007Y-59634807D01*
X119382979Y-59628566D01*
X119429719Y-59627171D01*
X119475793Y-59649160D01*
G37*
G36*
X117985303Y-58140857D02*
G01*
X118021642Y-58196422D01*
X118110135Y-58338364D01*
X118177505Y-58458230D01*
X118224597Y-58557711D01*
X118252234Y-58638521D01*
X118261261Y-58702350D01*
X118258575Y-58735931D01*
X118236603Y-58796951D01*
X118196466Y-58835311D01*
X118175836Y-58842748D01*
X118132580Y-58842511D01*
X118080582Y-58822471D01*
X118016942Y-58780915D01*
X117938755Y-58716122D01*
X117843111Y-58626369D01*
X117804144Y-58586985D01*
X117762721Y-58541203D01*
X117736110Y-58506774D01*
X117728812Y-58489082D01*
X117730905Y-58487614D01*
X117750435Y-58496823D01*
X117784380Y-58524922D01*
X117826925Y-58567273D01*
X117878273Y-58619503D01*
X117947623Y-58682504D01*
X118012744Y-58733784D01*
X118069884Y-58771005D01*
X118115322Y-58791809D01*
X118145325Y-58793849D01*
X118156155Y-58774764D01*
X118155765Y-58770849D01*
X118142667Y-58735595D01*
X118112214Y-58675813D01*
X118065995Y-58594229D01*
X118005601Y-58493590D01*
X117932621Y-58376641D01*
X117848657Y-58246115D01*
X117807816Y-58183090D01*
X117761140Y-58110036D01*
X117724024Y-58050737D01*
X117699527Y-58010073D01*
X117690684Y-57992934D01*
X117702358Y-57987718D01*
X117736594Y-57983624D01*
X117785505Y-57982050D01*
X117880327Y-57982050D01*
X117985303Y-58140857D01*
G37*
G36*
X119832182Y-60246137D02*
G01*
X119868524Y-60301698D01*
X119957020Y-60443645D01*
X120024389Y-60563513D01*
X120071477Y-60662991D01*
X120099115Y-60743803D01*
X120108142Y-60807626D01*
X120105456Y-60841210D01*
X120083487Y-60902229D01*
X120043342Y-60940596D01*
X120022726Y-60948027D01*
X119979461Y-60947793D01*
X119927460Y-60927753D01*
X119863820Y-60886194D01*
X119785632Y-60821402D01*
X119689986Y-60731653D01*
X119651026Y-60692264D01*
X119609605Y-60646489D01*
X119582988Y-60612056D01*
X119575687Y-60594362D01*
X119577791Y-60592891D01*
X119597313Y-60602099D01*
X119631261Y-60630203D01*
X119673805Y-60672551D01*
X119725150Y-60724785D01*
X119794499Y-60787780D01*
X119859617Y-60839062D01*
X119916760Y-60876283D01*
X119962202Y-60897091D01*
X119992207Y-60899129D01*
X120003037Y-60880042D01*
X120002643Y-60876133D01*
X119989549Y-60840877D01*
X119959092Y-60781086D01*
X119912873Y-60699506D01*
X119852479Y-60598871D01*
X119779497Y-60481926D01*
X119695533Y-60351397D01*
X119654693Y-60288368D01*
X119608018Y-60215318D01*
X119570909Y-60156015D01*
X119546408Y-60115354D01*
X119537570Y-60098206D01*
X119549232Y-60092997D01*
X119583478Y-60088903D01*
X119632386Y-60087333D01*
X119727206Y-60087333D01*
X119832182Y-60246137D01*
G37*
G36*
X117945945Y-60060693D02*
G01*
X118002303Y-60074167D01*
X118039590Y-60092237D01*
X118067516Y-60122449D01*
X118096383Y-60172468D01*
X118105113Y-60188117D01*
X118130634Y-60226743D01*
X118166673Y-60272930D01*
X118215847Y-60329655D01*
X118280795Y-60399871D01*
X118364126Y-60486551D01*
X118468466Y-60592655D01*
X118470073Y-60594273D01*
X118508660Y-60632130D01*
X118536107Y-60657082D01*
X118546557Y-60663806D01*
X118546486Y-60663456D01*
X118536384Y-60644832D01*
X118511210Y-60602221D01*
X118473731Y-60540213D01*
X118426699Y-60463367D01*
X118372886Y-60376269D01*
X118199221Y-60096409D01*
X118284871Y-60090892D01*
X118321205Y-60089425D01*
X118364934Y-60090312D01*
X118389811Y-60094319D01*
X118390767Y-60094988D01*
X118406923Y-60115280D01*
X118438168Y-60160346D01*
X118482009Y-60226406D01*
X118535977Y-60309682D01*
X118597580Y-60406379D01*
X118664346Y-60512728D01*
X118919578Y-60922183D01*
X118821393Y-60922183D01*
X118723210Y-60922183D01*
X118608606Y-60797449D01*
X118597074Y-60784960D01*
X118537847Y-60721976D01*
X118465512Y-60646402D01*
X118388162Y-60566632D01*
X118313897Y-60491098D01*
X118133790Y-60309475D01*
X118097900Y-60343594D01*
X118058514Y-60367371D01*
X118011491Y-60377717D01*
X118006957Y-60377647D01*
X117972394Y-60370320D01*
X117960349Y-60354066D01*
X117974567Y-60333398D01*
X117981375Y-60324364D01*
X117979949Y-60289336D01*
X117956380Y-60236127D01*
X117911748Y-60167591D01*
X117896575Y-60145870D01*
X117870477Y-60097453D01*
X117869779Y-60067829D01*
X117894823Y-60055921D01*
X117945945Y-60060693D01*
G37*
G36*
X120048084Y-60060693D02*
G01*
X120104440Y-60074167D01*
X120141733Y-60092237D01*
X120169657Y-60122449D01*
X120198518Y-60172468D01*
X120207253Y-60188117D01*
X120232776Y-60226743D01*
X120268814Y-60272930D01*
X120317995Y-60329655D01*
X120382933Y-60399871D01*
X120466265Y-60486551D01*
X120570600Y-60592655D01*
X120572205Y-60594273D01*
X120610802Y-60632130D01*
X120638244Y-60657082D01*
X120648696Y-60663806D01*
X120648621Y-60663456D01*
X120638522Y-60644832D01*
X120613352Y-60602221D01*
X120575865Y-60540213D01*
X120528837Y-60463367D01*
X120475030Y-60376269D01*
X120301361Y-60096409D01*
X120387009Y-60090892D01*
X120423349Y-60089425D01*
X120467074Y-60090312D01*
X120491950Y-60094319D01*
X120492904Y-60094988D01*
X120509063Y-60115280D01*
X120540302Y-60160346D01*
X120584153Y-60226406D01*
X120638117Y-60309682D01*
X120699716Y-60406379D01*
X120766480Y-60512728D01*
X121021718Y-60922183D01*
X120923531Y-60922183D01*
X120825345Y-60922183D01*
X120710742Y-60797449D01*
X120699212Y-60784960D01*
X120639991Y-60721976D01*
X120567655Y-60646402D01*
X120490303Y-60566632D01*
X120416042Y-60491098D01*
X120235932Y-60309475D01*
X120200042Y-60343594D01*
X120160652Y-60367371D01*
X120113633Y-60377717D01*
X120109099Y-60377647D01*
X120074543Y-60370320D01*
X120062492Y-60354066D01*
X120076701Y-60333398D01*
X120083513Y-60324364D01*
X120082090Y-60289336D01*
X120058520Y-60236127D01*
X120013884Y-60167591D01*
X119998714Y-60145870D01*
X119972613Y-60097453D01*
X119971916Y-60067829D01*
X119996964Y-60055921D01*
X120048084Y-60060693D01*
G37*
G36*
X117049239Y-57949464D02*
G01*
X117095283Y-57955941D01*
X117208266Y-57992447D01*
X117324045Y-58054668D01*
X117436073Y-58137367D01*
X117537790Y-58235337D01*
X117622649Y-58343336D01*
X117684105Y-58456145D01*
X117707677Y-58527725D01*
X117720723Y-58621458D01*
X117713929Y-58707604D01*
X117688089Y-58778849D01*
X117643983Y-58827875D01*
X117629717Y-58836266D01*
X117573486Y-58850821D01*
X117503468Y-58842442D01*
X117415173Y-58810776D01*
X117384936Y-58796114D01*
X117322669Y-58759608D01*
X117255705Y-58714018D01*
X117188492Y-58663117D01*
X117125473Y-58610691D01*
X117071071Y-58560503D01*
X117029738Y-58516333D01*
X117005909Y-58481958D01*
X117004023Y-58461153D01*
X117006574Y-58460494D01*
X117028085Y-58471436D01*
X117065153Y-58498827D01*
X117111560Y-58538212D01*
X117203366Y-58616538D01*
X117302584Y-58691934D01*
X117392656Y-58750547D01*
X117470305Y-58790460D01*
X117532253Y-58809790D01*
X117575222Y-58806641D01*
X117578412Y-58805050D01*
X117604582Y-58774182D01*
X117608174Y-58723660D01*
X117590258Y-58655872D01*
X117551929Y-58573173D01*
X117494237Y-58477937D01*
X117418294Y-58372528D01*
X117325176Y-58259318D01*
X117321226Y-58254793D01*
X117222233Y-58148664D01*
X117133442Y-58067687D01*
X117056939Y-58013583D01*
X116994825Y-57988074D01*
X116961376Y-57983477D01*
X116943907Y-57990187D01*
X116939921Y-58013104D01*
X116940663Y-58022126D01*
X116956922Y-58048808D01*
X116998252Y-58070028D01*
X117000466Y-58070843D01*
X117046797Y-58098886D01*
X117065610Y-58139633D01*
X117058288Y-58195977D01*
X117046075Y-58221031D01*
X117017332Y-58238484D01*
X116981948Y-58231703D01*
X116945221Y-58205041D01*
X116912437Y-58162851D01*
X116888884Y-58109482D01*
X116879858Y-58049289D01*
X116879888Y-58045764D01*
X116889862Y-57995949D01*
X116919605Y-57964357D01*
X116971829Y-57949390D01*
X117049239Y-57949464D01*
G37*
G36*
X117442200Y-59923538D02*
G01*
X117468456Y-59960790D01*
X117504769Y-60025941D01*
X117520300Y-60052211D01*
X117568630Y-60118870D01*
X117634221Y-60196924D01*
X117711788Y-60280568D01*
X117796082Y-60363989D01*
X117881811Y-60441379D01*
X117895224Y-60453087D01*
X117933391Y-60491504D01*
X117945307Y-60514961D01*
X117930642Y-60522904D01*
X117923363Y-60518813D01*
X117895440Y-60495538D01*
X117851452Y-60455133D01*
X117795682Y-60401564D01*
X117732405Y-60338810D01*
X117691922Y-60298646D01*
X117634681Y-60244012D01*
X117588390Y-60202512D01*
X117557001Y-60177633D01*
X117544472Y-60172868D01*
X117546154Y-60201587D01*
X117559238Y-60255997D01*
X117581435Y-60327667D01*
X117610201Y-60408976D01*
X117642994Y-60492324D01*
X117677269Y-60570092D01*
X117692964Y-60602543D01*
X117753784Y-60713750D01*
X117814694Y-60804064D01*
X117872408Y-60869009D01*
X117923622Y-60904117D01*
X117957193Y-60913315D01*
X117990975Y-60910843D01*
X118007051Y-60895593D01*
X118001337Y-60872625D01*
X117969733Y-60846984D01*
X117946688Y-60829154D01*
X117926123Y-60790238D01*
X117927608Y-60749520D01*
X117949635Y-60717419D01*
X117990666Y-60704392D01*
X117992476Y-60704406D01*
X118041369Y-60719372D01*
X118071070Y-60762041D01*
X118081081Y-60831705D01*
X118080918Y-60843434D01*
X118072375Y-60896204D01*
X118047709Y-60930230D01*
X118037166Y-60938136D01*
X117986297Y-60955937D01*
X117918725Y-60951715D01*
X117830916Y-60925401D01*
X117782625Y-60904499D01*
X117685320Y-60845668D01*
X117599713Y-60771762D01*
X117531902Y-60688535D01*
X117487970Y-60601742D01*
X117478120Y-60565108D01*
X117467222Y-60469647D01*
X117468543Y-60351851D01*
X117482205Y-60219048D01*
X117484741Y-60201294D01*
X117491589Y-60144348D01*
X117490978Y-60108635D01*
X117481439Y-60082481D01*
X117461516Y-60054217D01*
X117446414Y-60033742D01*
X117413885Y-59980008D01*
X117399416Y-59938486D01*
X117405350Y-59914947D01*
X117422148Y-59909906D01*
X117442200Y-59923538D01*
G37*
G36*
X118913685Y-57818256D02*
G01*
X118939952Y-57855509D01*
X118976262Y-57920662D01*
X118991791Y-57946924D01*
X119040125Y-58013588D01*
X119105715Y-58091644D01*
X119183291Y-58175290D01*
X119267574Y-58258709D01*
X119353302Y-58336095D01*
X119366724Y-58347813D01*
X119404890Y-58386223D01*
X119416807Y-58409682D01*
X119402140Y-58417623D01*
X119394865Y-58413533D01*
X119366935Y-58390257D01*
X119322950Y-58349853D01*
X119267175Y-58296286D01*
X119203901Y-58233536D01*
X119163423Y-58193367D01*
X119106179Y-58138734D01*
X119059882Y-58097231D01*
X119028501Y-58072354D01*
X119015969Y-58067590D01*
X119017651Y-58096309D01*
X119030733Y-58150714D01*
X119052933Y-58222391D01*
X119081690Y-58303701D01*
X119114490Y-58387045D01*
X119148760Y-58464817D01*
X119164457Y-58497260D01*
X119225277Y-58608468D01*
X119286192Y-58698789D01*
X119343905Y-58763734D01*
X119395113Y-58798829D01*
X119428684Y-58808037D01*
X119462472Y-58805565D01*
X119478553Y-58790312D01*
X119472834Y-58767345D01*
X119441238Y-58741708D01*
X119418189Y-58723873D01*
X119397610Y-58684965D01*
X119399103Y-58644235D01*
X119421127Y-58612135D01*
X119462158Y-58599118D01*
X119463984Y-58599130D01*
X119512867Y-58614095D01*
X119542562Y-58656762D01*
X119552575Y-58726428D01*
X119552415Y-58738153D01*
X119543877Y-58790927D01*
X119519212Y-58824947D01*
X119508660Y-58832855D01*
X119457796Y-58850658D01*
X119390218Y-58846440D01*
X119302408Y-58820124D01*
X119254122Y-58799217D01*
X119156817Y-58740385D01*
X119071209Y-58666482D01*
X119003390Y-58583258D01*
X118959458Y-58496462D01*
X118949618Y-58459828D01*
X118938716Y-58364361D01*
X118940046Y-58246575D01*
X118953703Y-58113763D01*
X118956239Y-58096013D01*
X118963087Y-58039067D01*
X118962474Y-58003353D01*
X118952938Y-57977201D01*
X118933012Y-57948939D01*
X118917909Y-57928464D01*
X118885369Y-57874724D01*
X118870915Y-57833211D01*
X118876851Y-57809661D01*
X118893644Y-57804625D01*
X118913685Y-57818256D01*
G37*
G36*
X118201204Y-57600922D02*
G01*
X118339808Y-57818711D01*
X118420662Y-57818711D01*
X118455863Y-57820381D01*
X118490654Y-57828217D01*
X118499552Y-57839439D01*
X118481337Y-57850681D01*
X118434820Y-57858553D01*
X118368129Y-57864081D01*
X118524772Y-58109097D01*
X118583967Y-58203747D01*
X118671253Y-58354379D01*
X118735868Y-58483179D01*
X118778117Y-58590969D01*
X118798276Y-58678580D01*
X118796662Y-58746842D01*
X118773578Y-58796589D01*
X118771231Y-58799336D01*
X118723397Y-58829852D01*
X118662543Y-58829652D01*
X118591530Y-58798711D01*
X118578946Y-58790267D01*
X118538684Y-58758362D01*
X118489614Y-58714843D01*
X118436428Y-58664465D01*
X118383829Y-58611989D01*
X118336517Y-58562183D01*
X118299186Y-58519792D01*
X118276539Y-58489587D01*
X118273272Y-58476309D01*
X118273450Y-58476245D01*
X118293422Y-58483963D01*
X118328089Y-58510384D01*
X118370045Y-58549879D01*
X118377835Y-58557787D01*
X118434326Y-58612203D01*
X118495495Y-58667070D01*
X118555708Y-58717771D01*
X118609316Y-58759689D01*
X118650712Y-58788222D01*
X118674250Y-58798754D01*
X118694054Y-58794979D01*
X118704777Y-58780539D01*
X118702681Y-58752972D01*
X118686671Y-58709867D01*
X118655622Y-58648798D01*
X118608437Y-58567353D01*
X118543996Y-58463102D01*
X118461214Y-58333641D01*
X118407814Y-58250640D01*
X118348919Y-58158293D01*
X118295746Y-58074121D01*
X118252589Y-58004906D01*
X118223725Y-57957441D01*
X118163665Y-57855791D01*
X118047298Y-57855401D01*
X118038937Y-57855335D01*
X117982933Y-57852421D01*
X117944930Y-57845942D01*
X117930929Y-57836859D01*
X117940499Y-57828663D01*
X117973025Y-57821468D01*
X118021020Y-57818711D01*
X118058097Y-57817327D01*
X118097016Y-57810519D01*
X118111115Y-57799028D01*
X118110842Y-57797306D01*
X118099280Y-57772069D01*
X118073131Y-57725415D01*
X118035873Y-57663339D01*
X117990990Y-57591848D01*
X117982373Y-57578373D01*
X117938761Y-57509265D01*
X117903342Y-57451670D01*
X117879560Y-57411267D01*
X117870868Y-57393746D01*
X117882933Y-57388615D01*
X117917525Y-57384655D01*
X117966736Y-57383134D01*
X118062602Y-57383134D01*
X118201204Y-57600922D01*
G37*
G36*
X120483525Y-57600922D02*
G01*
X120622130Y-57818711D01*
X120702975Y-57818711D01*
X120738177Y-57820381D01*
X120772979Y-57828217D01*
X120781869Y-57839439D01*
X120763659Y-57850681D01*
X120717136Y-57858553D01*
X120650442Y-57864081D01*
X120807094Y-58109097D01*
X120866281Y-58203747D01*
X120953577Y-58354379D01*
X121018191Y-58483179D01*
X121060430Y-58590969D01*
X121080598Y-58678580D01*
X121078985Y-58746842D01*
X121055905Y-58796589D01*
X121053553Y-58799336D01*
X121005716Y-58829852D01*
X120944860Y-58829652D01*
X120873852Y-58798711D01*
X120861265Y-58790267D01*
X120821001Y-58758362D01*
X120771927Y-58714843D01*
X120718750Y-58664465D01*
X120666152Y-58611989D01*
X120618845Y-58562183D01*
X120581512Y-58519792D01*
X120558864Y-58489587D01*
X120555592Y-58476309D01*
X120555764Y-58476245D01*
X120575751Y-58483963D01*
X120610409Y-58510384D01*
X120652374Y-58549879D01*
X120660151Y-58557787D01*
X120716646Y-58612203D01*
X120777819Y-58667070D01*
X120838028Y-58717771D01*
X120891649Y-58759689D01*
X120933038Y-58788222D01*
X120956569Y-58798754D01*
X120976376Y-58794979D01*
X120987097Y-58780539D01*
X120985003Y-58752972D01*
X120968988Y-58709867D01*
X120937944Y-58648798D01*
X120890758Y-58567353D01*
X120826324Y-58463102D01*
X120743532Y-58333641D01*
X120690134Y-58250640D01*
X120631232Y-58158293D01*
X120578069Y-58074121D01*
X120534915Y-58004906D01*
X120506048Y-57957441D01*
X120445986Y-57855791D01*
X120329619Y-57855401D01*
X120321259Y-57855335D01*
X120265254Y-57852421D01*
X120227256Y-57845942D01*
X120213249Y-57836859D01*
X120222819Y-57828663D01*
X120255358Y-57821468D01*
X120303344Y-57818711D01*
X120340425Y-57817327D01*
X120379340Y-57810519D01*
X120393435Y-57799028D01*
X120393172Y-57797306D01*
X120381612Y-57772069D01*
X120355458Y-57725415D01*
X120318198Y-57663339D01*
X120273313Y-57591848D01*
X120264696Y-57578373D01*
X120221082Y-57509265D01*
X120185655Y-57451670D01*
X120161883Y-57411267D01*
X120153195Y-57393746D01*
X120165262Y-57388615D01*
X120199843Y-57384655D01*
X120249058Y-57383134D01*
X120344926Y-57383134D01*
X120483525Y-57600922D01*
G37*
G36*
X122688370Y-60867629D02*
G01*
X122660022Y-60907690D01*
X122656285Y-60912177D01*
X122624084Y-60944736D01*
X122592906Y-60956577D01*
X122547627Y-60953929D01*
X122494283Y-60940779D01*
X122400463Y-60893877D01*
X122303085Y-60818676D01*
X122206445Y-60718714D01*
X122114863Y-60597549D01*
X122107742Y-60587056D01*
X122082300Y-60555155D01*
X122061768Y-60546778D01*
X122036130Y-60556712D01*
X122033847Y-60557940D01*
X121994844Y-60571792D01*
X121954448Y-60576752D01*
X121922782Y-60572625D01*
X121909975Y-60559207D01*
X121919404Y-60547238D01*
X121947720Y-60541055D01*
X121976003Y-60536775D01*
X122013725Y-60519721D01*
X122018925Y-60515671D01*
X122030249Y-60502227D01*
X122031042Y-60482549D01*
X122020145Y-60448013D01*
X121996403Y-60389989D01*
X121964882Y-60303614D01*
X121944771Y-60211876D01*
X121945075Y-60161942D01*
X121970794Y-60161942D01*
X121981565Y-60207759D01*
X122008998Y-60252046D01*
X122034783Y-60284827D01*
X122075801Y-60365306D01*
X122090163Y-60448285D01*
X122090195Y-60451184D01*
X122095815Y-60483239D01*
X122113473Y-60520846D01*
X122146705Y-60570108D01*
X122199024Y-60637142D01*
X122224714Y-60668033D01*
X122284503Y-60734871D01*
X122343455Y-60795090D01*
X122391863Y-60838584D01*
X122397374Y-60842928D01*
X122469310Y-60891364D01*
X122528169Y-60915741D01*
X122571656Y-60916675D01*
X122597476Y-60894802D01*
X122603338Y-60850746D01*
X122586961Y-60785136D01*
X122571657Y-60749858D01*
X122530355Y-60674163D01*
X122474087Y-60585251D01*
X122407565Y-60490029D01*
X122335485Y-60395412D01*
X122262552Y-60308309D01*
X122207343Y-60249434D01*
X122138076Y-60185350D01*
X122076345Y-60139089D01*
X122026340Y-60113691D01*
X121992258Y-60112188D01*
X121977998Y-60125455D01*
X121970794Y-60161942D01*
X121945075Y-60161942D01*
X121945213Y-60139321D01*
X121965721Y-60088274D01*
X122005815Y-60061058D01*
X122065017Y-60059996D01*
X122081454Y-60063329D01*
X122197049Y-60101174D01*
X122309439Y-60161229D01*
X122414866Y-60239395D01*
X122509561Y-60331569D01*
X122589762Y-60433653D01*
X122651715Y-60541545D01*
X122691641Y-60651139D01*
X122705785Y-60758341D01*
X122705740Y-60769106D01*
X122701924Y-60826919D01*
X122693992Y-60850746D01*
X122688370Y-60867629D01*
G37*
G36*
X119530473Y-60586431D02*
G01*
X119530839Y-60587348D01*
X119554004Y-60671493D01*
X119560519Y-60757685D01*
X119550592Y-60835003D01*
X119524434Y-60892531D01*
X119523309Y-60893969D01*
X119489182Y-60928030D01*
X119456866Y-60947069D01*
X119436523Y-60950836D01*
X119374571Y-60951981D01*
X119301276Y-60943956D01*
X119228562Y-60928403D01*
X119168391Y-60906993D01*
X119162701Y-60904241D01*
X119101266Y-60870258D01*
X119033860Y-60826752D01*
X118965122Y-60777497D01*
X118899717Y-60726278D01*
X118842274Y-60676890D01*
X118797438Y-60633123D01*
X118769859Y-60598743D01*
X118764177Y-60577549D01*
X118766747Y-60576104D01*
X118787918Y-60585241D01*
X118824476Y-60611548D01*
X118870367Y-60650852D01*
X118947973Y-60715908D01*
X119039327Y-60780463D01*
X119131738Y-60835049D01*
X119220195Y-60877297D01*
X119299676Y-60904850D01*
X119365173Y-60915330D01*
X119411681Y-60906378D01*
X119424499Y-60896944D01*
X119443291Y-60859309D01*
X119441807Y-60808107D01*
X119422917Y-60749061D01*
X119389518Y-60687884D01*
X119344481Y-60630290D01*
X119290708Y-60581997D01*
X119231077Y-60548717D01*
X119200828Y-60536036D01*
X119127880Y-60500190D01*
X119047633Y-60455370D01*
X118967155Y-60406005D01*
X118893492Y-60356526D01*
X118833698Y-60311361D01*
X118794837Y-60274927D01*
X118777709Y-60252628D01*
X118747973Y-60192587D01*
X118741537Y-60136313D01*
X118742059Y-60135014D01*
X118780491Y-60135014D01*
X118789451Y-60179458D01*
X118799979Y-60206016D01*
X118844003Y-60266881D01*
X118917072Y-60331614D01*
X119019560Y-60400578D01*
X119083013Y-60436254D01*
X119150876Y-60469824D01*
X119207249Y-60493319D01*
X119289816Y-60522264D01*
X119168916Y-60380303D01*
X119125809Y-60330836D01*
X119033940Y-60234211D01*
X118954350Y-60163568D01*
X118888614Y-60120221D01*
X118838306Y-60105483D01*
X118823484Y-60105755D01*
X118790242Y-60112855D01*
X118780491Y-60135014D01*
X118742059Y-60135014D01*
X118759777Y-60090964D01*
X118779381Y-60078660D01*
X118825211Y-60070509D01*
X118885459Y-60072033D01*
X118951835Y-60082844D01*
X119016045Y-60102581D01*
X119038521Y-60112140D01*
X119136535Y-60165820D01*
X119236240Y-60237268D01*
X119331555Y-60320758D01*
X119416410Y-60410592D01*
X119484744Y-60501049D01*
X119496098Y-60522264D01*
X119530473Y-60586431D01*
G37*
G36*
X123078373Y-59055014D02*
G01*
X123209967Y-59080132D01*
X123332811Y-59123675D01*
X123451080Y-59186034D01*
X123485668Y-59208113D01*
X123588026Y-59288196D01*
X123664440Y-59375673D01*
X123717994Y-59473874D01*
X123733160Y-59517027D01*
X123753388Y-59616747D01*
X123756957Y-59716875D01*
X123742772Y-59803064D01*
X123738067Y-59815953D01*
X123702695Y-59874916D01*
X123652497Y-59926887D01*
X123599197Y-59959133D01*
X123535973Y-59974701D01*
X123426507Y-59977349D01*
X123310456Y-59955292D01*
X123195676Y-59910296D01*
X123090021Y-59844145D01*
X123057445Y-59816211D01*
X122989325Y-59745072D01*
X122920069Y-59659474D01*
X122858503Y-59570683D01*
X122813433Y-59490000D01*
X122797451Y-59452248D01*
X122790209Y-59422108D01*
X122798810Y-59417441D01*
X122821166Y-59436934D01*
X122855185Y-59479295D01*
X122898787Y-59543216D01*
X122957227Y-59626567D01*
X123078266Y-59759058D01*
X123216301Y-59862648D01*
X123249385Y-59879845D01*
X123324608Y-59905392D01*
X123408266Y-59920838D01*
X123491271Y-59925371D01*
X123564534Y-59918195D01*
X123618960Y-59898494D01*
X123656538Y-59865847D01*
X123693957Y-59799098D01*
X123710340Y-59714597D01*
X123704807Y-59618141D01*
X123676501Y-59515507D01*
X123656717Y-59471664D01*
X123592278Y-59375008D01*
X123505445Y-59287380D01*
X123401501Y-59213610D01*
X123285721Y-59158507D01*
X123246120Y-59145488D01*
X123190610Y-59133566D01*
X123130882Y-59129466D01*
X123061985Y-59133555D01*
X122978969Y-59146213D01*
X122876900Y-59167801D01*
X122750827Y-59198700D01*
X122732568Y-59203287D01*
X122581309Y-59235669D01*
X122435485Y-59257336D01*
X122300780Y-59267817D01*
X122182875Y-59266646D01*
X122087459Y-59253348D01*
X122050362Y-59242773D01*
X121991441Y-59220659D01*
X121933444Y-59193954D01*
X121883357Y-59166275D01*
X121848183Y-59141246D01*
X121834898Y-59122490D01*
X121835079Y-59117530D01*
X121839181Y-59109814D01*
X121853455Y-59109904D01*
X121884099Y-59118659D01*
X121937305Y-59136980D01*
X121937901Y-59137189D01*
X121996003Y-59151752D01*
X122066057Y-59158100D01*
X122151471Y-59156009D01*
X122255662Y-59145239D01*
X122382036Y-59125565D01*
X122534018Y-59096753D01*
X122589139Y-59086081D01*
X122772143Y-59058396D01*
X122933827Y-59047905D01*
X123078373Y-59055014D01*
G37*
G36*
X123603908Y-56949736D02*
G01*
X123735508Y-56974852D01*
X123858350Y-57018397D01*
X123976614Y-57080760D01*
X124011201Y-57102828D01*
X124113560Y-57182918D01*
X124189978Y-57270397D01*
X124243527Y-57368594D01*
X124258694Y-57411747D01*
X124278925Y-57511469D01*
X124282490Y-57611596D01*
X124268306Y-57697785D01*
X124263602Y-57710673D01*
X124228230Y-57769632D01*
X124178029Y-57821609D01*
X124124729Y-57853856D01*
X124061509Y-57869422D01*
X123952046Y-57872064D01*
X123835993Y-57850011D01*
X123721212Y-57805016D01*
X123615554Y-57738862D01*
X123582984Y-57710932D01*
X123514859Y-57639790D01*
X123445608Y-57554189D01*
X123384041Y-57465402D01*
X123338968Y-57384720D01*
X123322983Y-57346970D01*
X123315746Y-57316833D01*
X123324351Y-57312160D01*
X123346704Y-57331654D01*
X123380728Y-57374012D01*
X123424324Y-57437940D01*
X123482760Y-57521287D01*
X123603800Y-57653779D01*
X123741843Y-57757369D01*
X123774920Y-57774565D01*
X123850145Y-57800107D01*
X123933800Y-57815555D01*
X124016810Y-57820094D01*
X124090070Y-57812914D01*
X124144493Y-57793214D01*
X124182077Y-57760559D01*
X124219490Y-57693819D01*
X124235872Y-57609318D01*
X124230346Y-57512859D01*
X124202037Y-57410231D01*
X124182256Y-57366385D01*
X124117816Y-57269727D01*
X124030980Y-57182102D01*
X123927037Y-57108329D01*
X123811256Y-57053230D01*
X123771659Y-57040206D01*
X123716149Y-57028290D01*
X123656418Y-57024189D01*
X123587521Y-57028278D01*
X123504504Y-57040935D01*
X123402436Y-57062523D01*
X123276363Y-57093422D01*
X123258101Y-57098007D01*
X123106842Y-57130392D01*
X122961024Y-57152054D01*
X122826315Y-57162537D01*
X122708413Y-57161367D01*
X122612992Y-57148072D01*
X122575894Y-57137493D01*
X122516980Y-57115385D01*
X122458980Y-57088674D01*
X122408896Y-57060999D01*
X122373714Y-57035966D01*
X122360436Y-57017206D01*
X122360617Y-57012247D01*
X122364719Y-57004537D01*
X122378988Y-57004624D01*
X122409633Y-57013384D01*
X122462843Y-57031697D01*
X122463437Y-57031907D01*
X122521537Y-57046474D01*
X122591590Y-57052825D01*
X122677004Y-57050725D01*
X122781192Y-57039955D01*
X122907570Y-57020280D01*
X123059549Y-56991476D01*
X123114677Y-56980804D01*
X123297680Y-56953118D01*
X123459361Y-56942625D01*
X123603908Y-56949736D01*
G37*
G36*
X120538481Y-58749241D02*
G01*
X120533976Y-58761084D01*
X120508357Y-58807369D01*
X120480434Y-58835008D01*
X120437357Y-58846765D01*
X120366881Y-58838190D01*
X120286351Y-58803087D01*
X120199826Y-58743358D01*
X120111346Y-58660921D01*
X120035414Y-58580634D01*
X120049511Y-58642340D01*
X120055549Y-58690516D01*
X120045078Y-58759663D01*
X120013607Y-58812774D01*
X119965651Y-58843474D01*
X119905721Y-58845389D01*
X119878533Y-58834376D01*
X119830377Y-58805083D01*
X119771826Y-58762825D01*
X119708080Y-58712080D01*
X119644296Y-58657345D01*
X119585666Y-58603081D01*
X119537371Y-58553791D01*
X119504600Y-58513941D01*
X119492514Y-58488018D01*
X119496371Y-58474441D01*
X119516516Y-58477136D01*
X119554392Y-58507414D01*
X119610535Y-58565638D01*
X119682933Y-58640804D01*
X119753564Y-58704607D01*
X119816225Y-58751656D01*
X119867554Y-58779760D01*
X119904211Y-58786741D01*
X119922863Y-58770396D01*
X119921463Y-58754158D01*
X119902928Y-58707535D01*
X119864938Y-58634628D01*
X119807782Y-58535957D01*
X119731749Y-58412026D01*
X119637134Y-58263361D01*
X119461455Y-57991126D01*
X119555542Y-57985611D01*
X119560996Y-57985300D01*
X119611421Y-57983884D01*
X119642720Y-57989423D01*
X119664894Y-58005776D01*
X119687921Y-58036812D01*
X119699431Y-58053725D01*
X119718070Y-58077854D01*
X119725955Y-58076390D01*
X119728803Y-58051393D01*
X119730577Y-58040242D01*
X119764795Y-58040242D01*
X119766821Y-58077357D01*
X119785540Y-58139767D01*
X119792977Y-58158779D01*
X119829586Y-58228900D01*
X119883508Y-58312984D01*
X119949808Y-58404935D01*
X120023576Y-58498666D01*
X120099875Y-58588090D01*
X120173776Y-58667108D01*
X120240383Y-58729642D01*
X120294751Y-58769594D01*
X120305097Y-58775359D01*
X120360567Y-58800841D01*
X120403684Y-58811591D01*
X120427669Y-58805771D01*
X120436769Y-58789979D01*
X120439515Y-58740210D01*
X120417604Y-58671918D01*
X120371453Y-58585844D01*
X120301499Y-58482727D01*
X120208168Y-58363316D01*
X120091897Y-58228338D01*
X120020404Y-58152477D01*
X119937297Y-58077606D01*
X119868202Y-58033077D01*
X119812405Y-58018353D01*
X119780755Y-58022546D01*
X119764795Y-58040242D01*
X119730577Y-58040242D01*
X119733299Y-58023132D01*
X119760260Y-57978314D01*
X119810077Y-57955778D01*
X119881758Y-57956123D01*
X119972811Y-57979348D01*
X120089665Y-58032807D01*
X120206342Y-58108675D01*
X120315513Y-58201357D01*
X120409846Y-58305251D01*
X120482004Y-58414758D01*
X120504724Y-58461496D01*
X120540480Y-58567030D01*
X120552023Y-58664668D01*
X120539926Y-58740210D01*
X120538481Y-58749241D01*
G37*
G36*
X123226217Y-58749241D02*
G01*
X123221704Y-58761084D01*
X123196089Y-58807369D01*
X123168169Y-58835008D01*
X123125087Y-58846765D01*
X123054618Y-58838190D01*
X122974085Y-58803087D01*
X122887559Y-58743358D01*
X122799080Y-58660921D01*
X122723142Y-58580634D01*
X122737243Y-58642340D01*
X122743278Y-58690516D01*
X122732810Y-58759663D01*
X122701338Y-58812774D01*
X122653386Y-58843474D01*
X122593462Y-58845389D01*
X122566262Y-58834376D01*
X122518113Y-58805083D01*
X122459563Y-58762825D01*
X122395808Y-58712080D01*
X122332028Y-58657345D01*
X122273398Y-58603081D01*
X122225102Y-58553791D01*
X122192333Y-58513941D01*
X122180253Y-58488018D01*
X122184105Y-58474441D01*
X122204251Y-58477136D01*
X122242124Y-58507414D01*
X122298270Y-58565638D01*
X122370663Y-58640804D01*
X122441300Y-58704607D01*
X122503956Y-58751656D01*
X122555288Y-58779760D01*
X122591949Y-58786741D01*
X122610594Y-58770396D01*
X122609202Y-58754158D01*
X122590664Y-58707535D01*
X122552673Y-58634628D01*
X122495514Y-58535957D01*
X122419485Y-58412026D01*
X122324866Y-58263361D01*
X122149190Y-57991126D01*
X122243279Y-57985611D01*
X122248731Y-57985300D01*
X122299154Y-57983884D01*
X122330456Y-57989423D01*
X122352628Y-58005776D01*
X122375660Y-58036812D01*
X122387166Y-58053725D01*
X122405805Y-58077854D01*
X122413691Y-58076390D01*
X122416539Y-58051393D01*
X122418309Y-58040242D01*
X122452534Y-58040242D01*
X122454559Y-58077357D01*
X122473274Y-58139767D01*
X122480707Y-58158779D01*
X122517323Y-58228900D01*
X122571241Y-58312984D01*
X122637547Y-58404935D01*
X122711308Y-58498666D01*
X122787600Y-58588090D01*
X122861516Y-58667108D01*
X122928112Y-58729642D01*
X122982480Y-58769594D01*
X122992832Y-58775359D01*
X123048301Y-58800841D01*
X123091412Y-58811591D01*
X123115405Y-58805771D01*
X123124499Y-58789979D01*
X123127247Y-58740210D01*
X123105331Y-58671918D01*
X123059186Y-58585844D01*
X122989236Y-58482727D01*
X122895899Y-58363316D01*
X122779622Y-58228338D01*
X122708139Y-58152477D01*
X122625029Y-58077606D01*
X122555938Y-58033077D01*
X122500142Y-58018353D01*
X122468490Y-58022546D01*
X122452534Y-58040242D01*
X122418309Y-58040242D01*
X122421026Y-58023132D01*
X122447998Y-57978314D01*
X122497810Y-57955778D01*
X122569491Y-57956123D01*
X122660544Y-57979348D01*
X122777393Y-58032807D01*
X122894077Y-58108675D01*
X123003244Y-58201357D01*
X123097574Y-58305251D01*
X123169736Y-58414758D01*
X123192454Y-58461496D01*
X123228213Y-58567030D01*
X123239755Y-58664668D01*
X123227657Y-58740210D01*
X123226217Y-58749241D01*
G37*
G36*
X121373111Y-57973124D02*
G01*
X121430561Y-57992890D01*
X121492665Y-58028373D01*
X121564878Y-58082998D01*
X121652622Y-58160184D01*
X121656707Y-58163944D01*
X121710146Y-58212481D01*
X121743210Y-58240401D01*
X121758908Y-58249511D01*
X121760243Y-58241593D01*
X121750218Y-58218450D01*
X121735899Y-58191420D01*
X121702823Y-58135549D01*
X121665980Y-58078702D01*
X121641188Y-58041677D01*
X121618444Y-58005791D01*
X121609665Y-57989151D01*
X121621710Y-57985715D01*
X121656280Y-57983065D01*
X121705475Y-57982050D01*
X121801277Y-57982050D01*
X122047068Y-58366841D01*
X122110659Y-58466449D01*
X122171940Y-58562587D01*
X122225400Y-58646575D01*
X122268402Y-58714279D01*
X122298307Y-58761558D01*
X122312484Y-58784269D01*
X122315874Y-58790099D01*
X122320754Y-58804832D01*
X122311194Y-58812878D01*
X122281995Y-58816233D01*
X122227963Y-58816903D01*
X122123815Y-58816903D01*
X122018185Y-58658100D01*
X122007649Y-58642380D01*
X121919320Y-58518450D01*
X121826350Y-58400487D01*
X121732032Y-58291741D01*
X121639631Y-58195465D01*
X121552434Y-58114920D01*
X121473728Y-58053362D01*
X121406792Y-58014033D01*
X121354909Y-58000199D01*
X121346702Y-58000706D01*
X121328173Y-58011752D01*
X121328761Y-58038814D01*
X121349308Y-58083881D01*
X121390662Y-58148987D01*
X121453662Y-58236138D01*
X121511709Y-58314902D01*
X121580728Y-58414456D01*
X121631334Y-58497143D01*
X121665875Y-58567353D01*
X121686716Y-58629479D01*
X121696215Y-58687922D01*
X121696243Y-58688262D01*
X121698192Y-58746908D01*
X121690346Y-58784925D01*
X121669683Y-58816969D01*
X121646159Y-58840177D01*
X121616027Y-58850478D01*
X121570289Y-58846636D01*
X121555186Y-58843744D01*
X121481773Y-58817973D01*
X121403750Y-58770023D01*
X121314759Y-58696145D01*
X121295701Y-58678485D01*
X121244876Y-58629163D01*
X121195865Y-58578941D01*
X121154110Y-58533650D01*
X121125061Y-58499114D01*
X121114164Y-58481196D01*
X121119569Y-58472134D01*
X121140093Y-58481013D01*
X121178029Y-58511739D01*
X121235581Y-58565843D01*
X121289486Y-58617008D01*
X121376387Y-58693190D01*
X121451104Y-58750359D01*
X121510627Y-58786288D01*
X121551937Y-58798754D01*
X121581654Y-58794388D01*
X121594650Y-58783330D01*
X121587796Y-58761756D01*
X121562880Y-58715480D01*
X121522505Y-58651392D01*
X121469590Y-58574071D01*
X121407042Y-58488114D01*
X121362382Y-58426770D01*
X121300981Y-58333058D01*
X121259738Y-58253669D01*
X121236260Y-58183680D01*
X121228183Y-58118171D01*
X121230809Y-58067000D01*
X121250582Y-58006195D01*
X121289488Y-57973319D01*
X121347473Y-57968464D01*
X121373111Y-57973124D01*
G37*
G36*
X121678090Y-60261626D02*
G01*
X121700190Y-60295434D01*
X121789083Y-60438418D01*
X121856219Y-60560235D01*
X121902408Y-60662929D01*
X121928474Y-60748558D01*
X121935244Y-60819185D01*
X121923531Y-60876866D01*
X121898049Y-60917414D01*
X121864929Y-60942293D01*
X121837409Y-60950717D01*
X121812377Y-60956496D01*
X121810189Y-60956598D01*
X121777928Y-60946501D01*
X121729737Y-60919827D01*
X121672843Y-60881424D01*
X121614480Y-60836114D01*
X121561882Y-60788753D01*
X121556147Y-60783104D01*
X121514530Y-60743239D01*
X121483114Y-60715071D01*
X121468326Y-60704392D01*
X121466299Y-60707988D01*
X121465395Y-60736668D01*
X121469192Y-60784625D01*
X121469418Y-60786649D01*
X121472497Y-60840411D01*
X121463854Y-60876455D01*
X121439556Y-60911662D01*
X121431982Y-60920418D01*
X121396816Y-60948475D01*
X121357198Y-60955238D01*
X121306657Y-60940449D01*
X121238742Y-60903857D01*
X121228243Y-60897187D01*
X121183658Y-60864081D01*
X121131513Y-60820025D01*
X121076388Y-60769572D01*
X121022862Y-60717301D01*
X120975502Y-60667787D01*
X120938889Y-60625602D01*
X120917593Y-60595316D01*
X120916196Y-60581494D01*
X120919301Y-60581436D01*
X120942645Y-60595203D01*
X120979690Y-60626936D01*
X121023949Y-60671245D01*
X121058162Y-60706253D01*
X121121603Y-60765135D01*
X121186223Y-60818975D01*
X121246032Y-60863149D01*
X121294997Y-60893040D01*
X121327100Y-60904037D01*
X121332905Y-60903716D01*
X121348877Y-60895716D01*
X121352878Y-60875296D01*
X121343849Y-60840275D01*
X121320723Y-60788479D01*
X121282430Y-60717719D01*
X121227907Y-60625820D01*
X121156089Y-60510602D01*
X121065908Y-60369891D01*
X120889047Y-60096409D01*
X120973647Y-60090892D01*
X121008947Y-60089415D01*
X121052427Y-60090205D01*
X121077086Y-60094111D01*
X121083908Y-60100462D01*
X121108278Y-60131179D01*
X121145374Y-60182490D01*
X121191567Y-60249294D01*
X121243189Y-60326491D01*
X121315760Y-60434841D01*
X121390507Y-60540437D01*
X121457009Y-60625927D01*
X121519851Y-60696795D01*
X121583620Y-60758519D01*
X121652891Y-60816585D01*
X121677891Y-60835741D01*
X121743025Y-60878964D01*
X121792490Y-60900942D01*
X121823902Y-60900871D01*
X121834898Y-60877960D01*
X121828178Y-60852977D01*
X121803273Y-60799519D01*
X121761164Y-60722334D01*
X121703056Y-60623554D01*
X121630187Y-60505319D01*
X121543763Y-60369753D01*
X121509059Y-60315945D01*
X121460864Y-60240713D01*
X121421007Y-60177922D01*
X121392902Y-60132935D01*
X121379939Y-60111128D01*
X121377794Y-60104895D01*
X121384741Y-60094288D01*
X121412489Y-60088861D01*
X121465617Y-60087333D01*
X121563292Y-60087333D01*
X121678090Y-60261626D01*
G37*
G36*
X122417844Y-59329961D02*
G01*
X122465462Y-59372224D01*
X122529828Y-59437339D01*
X122609517Y-59523832D01*
X122703123Y-59630246D01*
X122809217Y-59755122D01*
X123055294Y-60049049D01*
X123192106Y-60096044D01*
X123201785Y-60099436D01*
X123279608Y-60130331D01*
X123362899Y-60168575D01*
X123443080Y-60209790D01*
X123511582Y-60249601D01*
X123559830Y-60283641D01*
X123568989Y-60295201D01*
X123570712Y-60320246D01*
X123552599Y-60322408D01*
X123512276Y-60305325D01*
X123452418Y-60270097D01*
X123412327Y-60245691D01*
X123347392Y-60209734D01*
X123279748Y-60175540D01*
X123215386Y-60145830D01*
X123160287Y-60123324D01*
X123120430Y-60110737D01*
X123101805Y-60110784D01*
X123102067Y-60116081D01*
X123115578Y-60144995D01*
X123143886Y-60193860D01*
X123183667Y-60257644D01*
X123231568Y-60331324D01*
X123284235Y-60409877D01*
X123338340Y-60488283D01*
X123390528Y-60561524D01*
X123437452Y-60624565D01*
X123475774Y-60672393D01*
X123520908Y-60721832D01*
X123633583Y-60816816D01*
X123751225Y-60876510D01*
X123874746Y-60901451D01*
X123954744Y-60902006D01*
X124043999Y-60887829D01*
X124109019Y-60856896D01*
X124148790Y-60809753D01*
X124162264Y-60746956D01*
X124161405Y-60724892D01*
X124151110Y-60693026D01*
X124125737Y-60687756D01*
X124081003Y-60706972D01*
X124067821Y-60712735D01*
X124025949Y-60711914D01*
X123992144Y-60686504D01*
X123971574Y-60645388D01*
X123969364Y-60597410D01*
X123990666Y-60551424D01*
X123995025Y-60546375D01*
X124022947Y-60526610D01*
X124058040Y-60527450D01*
X124109203Y-60548700D01*
X124149649Y-60580010D01*
X124187019Y-60640348D01*
X124205440Y-60713420D01*
X124202636Y-60788790D01*
X124176333Y-60856001D01*
X124165130Y-60870110D01*
X124124049Y-60904585D01*
X124074977Y-60931040D01*
X124052145Y-60938090D01*
X123983593Y-60948284D01*
X123899160Y-60950798D01*
X123808106Y-60945948D01*
X123719718Y-60934081D01*
X123643261Y-60915530D01*
X123562299Y-60884022D01*
X123415078Y-60799184D01*
X123273009Y-60681888D01*
X123138509Y-60534607D01*
X123014008Y-60359798D01*
X122901921Y-60159929D01*
X122877715Y-60111371D01*
X122858487Y-60073207D01*
X122850391Y-60057692D01*
X122850228Y-60057551D01*
X122834395Y-60052171D01*
X122801566Y-60043154D01*
X122754701Y-60031027D01*
X122797814Y-60134332D01*
X122814688Y-60176327D01*
X122835564Y-60239125D01*
X122839585Y-60275340D01*
X122827133Y-60286971D01*
X122810258Y-60284728D01*
X122778903Y-60266767D01*
X122765847Y-60238485D01*
X122763466Y-60221851D01*
X122751754Y-60177058D01*
X122733543Y-60121271D01*
X122708232Y-60063112D01*
X122671721Y-60012133D01*
X122616570Y-59961006D01*
X122565156Y-59916981D01*
X122521747Y-59873226D01*
X122501352Y-59840993D01*
X122501800Y-59817599D01*
X122508871Y-59809406D01*
X122537628Y-59809930D01*
X122581395Y-59837596D01*
X122637933Y-59891182D01*
X122665654Y-59917662D01*
X122713093Y-59953767D01*
X122759877Y-59980918D01*
X122798209Y-59994841D01*
X122820306Y-59991258D01*
X122819782Y-59977933D01*
X122803941Y-59940220D01*
X122773777Y-59884319D01*
X122732489Y-59815354D01*
X122683264Y-59738424D01*
X122629304Y-59658650D01*
X122573800Y-59581136D01*
X122519959Y-59510996D01*
X122498490Y-59483989D01*
X122449234Y-59419927D01*
X122410782Y-59366859D01*
X122386605Y-59329694D01*
X122380161Y-59313326D01*
X122388387Y-59312001D01*
X122417844Y-59329961D01*
G37*
G36*
X122943372Y-57224684D02*
G01*
X122990997Y-57266949D01*
X123055361Y-57332060D01*
X123135057Y-57418557D01*
X123228657Y-57524966D01*
X123334752Y-57649839D01*
X123580832Y-57943765D01*
X123717643Y-57990770D01*
X123727321Y-57994161D01*
X123805146Y-58025051D01*
X123888435Y-58063294D01*
X123968615Y-58104512D01*
X124037118Y-58144323D01*
X124085365Y-58178361D01*
X124094523Y-58189915D01*
X124096250Y-58214962D01*
X124078133Y-58217127D01*
X124037812Y-58200045D01*
X123977954Y-58164817D01*
X123937860Y-58140407D01*
X123872924Y-58104454D01*
X123805281Y-58070263D01*
X123740920Y-58040549D01*
X123685821Y-58018040D01*
X123645968Y-58005455D01*
X123627343Y-58005500D01*
X123627607Y-58010801D01*
X123641110Y-58039719D01*
X123669427Y-58088578D01*
X123709201Y-58152362D01*
X123757100Y-58226037D01*
X123809776Y-58304596D01*
X123863877Y-58383007D01*
X123916059Y-58456242D01*
X123962982Y-58519285D01*
X124001310Y-58567111D01*
X124046442Y-58616559D01*
X124159118Y-58711536D01*
X124276758Y-58771234D01*
X124400278Y-58796173D01*
X124480279Y-58796723D01*
X124569530Y-58782549D01*
X124634557Y-58751616D01*
X124674319Y-58704474D01*
X124687802Y-58641675D01*
X124686936Y-58619611D01*
X124676644Y-58587747D01*
X124651268Y-58582480D01*
X124606544Y-58601693D01*
X124593357Y-58607454D01*
X124551482Y-58606627D01*
X124517679Y-58581227D01*
X124497105Y-58540104D01*
X124494903Y-58492126D01*
X124516199Y-58446146D01*
X124520561Y-58441096D01*
X124548474Y-58421328D01*
X124583579Y-58422170D01*
X124634733Y-58443422D01*
X124675184Y-58474731D01*
X124712550Y-58535071D01*
X124730972Y-58608142D01*
X124728179Y-58683510D01*
X124701865Y-58750723D01*
X124690665Y-58764828D01*
X124649579Y-58799307D01*
X124600514Y-58825758D01*
X124577681Y-58832808D01*
X124509127Y-58843003D01*
X124424692Y-58845514D01*
X124333646Y-58840669D01*
X124245248Y-58828802D01*
X124168797Y-58810246D01*
X124087831Y-58778743D01*
X123940609Y-58693902D01*
X123798541Y-58576610D01*
X123664047Y-58429322D01*
X123539546Y-58254515D01*
X123427456Y-58054649D01*
X123403246Y-58006092D01*
X123384019Y-57967928D01*
X123375925Y-57952411D01*
X123375767Y-57952270D01*
X123359937Y-57946896D01*
X123327102Y-57937872D01*
X123280234Y-57925751D01*
X123323348Y-58029057D01*
X123340227Y-58071045D01*
X123361101Y-58133844D01*
X123365119Y-58170058D01*
X123352672Y-58181690D01*
X123335796Y-58179449D01*
X123304441Y-58161494D01*
X123291380Y-58133202D01*
X123289000Y-58116568D01*
X123277284Y-58071776D01*
X123259076Y-58015987D01*
X123233761Y-57957834D01*
X123197252Y-57906850D01*
X123142102Y-57855730D01*
X123090686Y-57811700D01*
X123047286Y-57767941D01*
X123026883Y-57735712D01*
X123027336Y-57712317D01*
X123034409Y-57704125D01*
X123063161Y-57704653D01*
X123106931Y-57732311D01*
X123163465Y-57785899D01*
X123191185Y-57812381D01*
X123238628Y-57848485D01*
X123285407Y-57875639D01*
X123323746Y-57889561D01*
X123345842Y-57885978D01*
X123345316Y-57872651D01*
X123329476Y-57834938D01*
X123299314Y-57779039D01*
X123258018Y-57710071D01*
X123208796Y-57633144D01*
X123154835Y-57553374D01*
X123099332Y-57475856D01*
X123045493Y-57405713D01*
X123024028Y-57378713D01*
X122974767Y-57314648D01*
X122936318Y-57261581D01*
X122912138Y-57224416D01*
X122905697Y-57208046D01*
X122913920Y-57206720D01*
X122943372Y-57224684D01*
G37*
G36*
X129682609Y-59833149D02*
G01*
X129640189Y-60136504D01*
X129617019Y-60237907D01*
X129573645Y-60427712D01*
X129543799Y-60525128D01*
X129493634Y-60666273D01*
X129476596Y-60709189D01*
X129434269Y-60815791D01*
X129370217Y-60962927D01*
X129306021Y-61096906D01*
X129246181Y-61206985D01*
X129121116Y-61401186D01*
X128933406Y-61642816D01*
X128727321Y-61856597D01*
X128504351Y-62041477D01*
X128265963Y-62196392D01*
X128013644Y-62320300D01*
X127748874Y-62412138D01*
X127473137Y-62470849D01*
X127448980Y-62473545D01*
X127385544Y-62477136D01*
X127304185Y-62479004D01*
X127212731Y-62479211D01*
X127119024Y-62477848D01*
X127030863Y-62474995D01*
X126956100Y-62470729D01*
X126902553Y-62465121D01*
X126718869Y-62428371D01*
X126459764Y-62347262D01*
X126211395Y-62234972D01*
X125975614Y-62093305D01*
X125754269Y-61924083D01*
X125549231Y-61729134D01*
X125362336Y-61510266D01*
X125195451Y-61269320D01*
X125050428Y-61008101D01*
X124929107Y-60728446D01*
X124833357Y-60432162D01*
X124796357Y-60290813D01*
X124765340Y-60157274D01*
X124742670Y-60035141D01*
X124727123Y-59914893D01*
X124717497Y-59787011D01*
X124712588Y-59641975D01*
X124711175Y-59470269D01*
X124711174Y-59439198D01*
X124711245Y-59414750D01*
X124943405Y-59414750D01*
X124952394Y-59717691D01*
X124989569Y-60018753D01*
X125054988Y-60315456D01*
X125148702Y-60605319D01*
X125270765Y-60885884D01*
X125350051Y-61034239D01*
X125505250Y-61273046D01*
X125681837Y-61488175D01*
X125877914Y-61678097D01*
X126091598Y-61841249D01*
X126320999Y-61976097D01*
X126564242Y-62081097D01*
X126819442Y-62154697D01*
X126978894Y-62181134D01*
X127204401Y-62192702D01*
X127434790Y-62177336D01*
X127663030Y-62136002D01*
X127882111Y-62069679D01*
X128085007Y-61979338D01*
X128126664Y-61955038D01*
X128160741Y-61926061D01*
X128171340Y-61899180D01*
X128167810Y-61879085D01*
X128148821Y-61854344D01*
X128138286Y-61847349D01*
X128126301Y-61825890D01*
X128125982Y-61823368D01*
X128116628Y-61797338D01*
X128093885Y-61746035D01*
X128057108Y-61668087D01*
X128005644Y-61562134D01*
X127938866Y-61426800D01*
X127933321Y-61415561D01*
X127913312Y-61374813D01*
X127883942Y-61314931D01*
X127849087Y-61243774D01*
X127812587Y-61169216D01*
X127778299Y-61099127D01*
X127750083Y-61041379D01*
X127731775Y-61003855D01*
X127727600Y-60995382D01*
X127705324Y-60951679D01*
X127678728Y-60900892D01*
X127643322Y-60834231D01*
X127363038Y-60827805D01*
X127343939Y-60827350D01*
X127244304Y-60824346D01*
X127167778Y-60820332D01*
X127108419Y-60814551D01*
X127060280Y-60806274D01*
X127017415Y-60794763D01*
X126991698Y-60785608D01*
X128219210Y-60785608D01*
X128225705Y-60797509D01*
X128250812Y-60833316D01*
X128291995Y-60888243D01*
X128346313Y-60958451D01*
X128410835Y-61040115D01*
X128482638Y-61129406D01*
X128537004Y-61196100D01*
X128604309Y-61277557D01*
X128662744Y-61347058D01*
X128709314Y-61401070D01*
X128741013Y-61436057D01*
X128754815Y-61448504D01*
X128760928Y-61444555D01*
X128784755Y-61418584D01*
X128821352Y-61373002D01*
X128866647Y-61313262D01*
X128916526Y-61244824D01*
X128966904Y-61173146D01*
X129013671Y-61103675D01*
X129016513Y-61099289D01*
X129049744Y-61043876D01*
X129088940Y-60972958D01*
X129129469Y-60895587D01*
X129166694Y-60820807D01*
X129195979Y-60757676D01*
X129212689Y-60715240D01*
X129214313Y-60709189D01*
X129214157Y-60700116D01*
X129207165Y-60693437D01*
X129190027Y-60688939D01*
X129159425Y-60686426D01*
X129112057Y-60685685D01*
X129044593Y-60686514D01*
X128953745Y-60688710D01*
X128836180Y-60692075D01*
X128749455Y-60694986D01*
X128646247Y-60699433D01*
X128553783Y-60704475D01*
X128476887Y-60709814D01*
X128420376Y-60715144D01*
X128389075Y-60720160D01*
X128384532Y-60721415D01*
X128326986Y-60736195D01*
X128271763Y-60748898D01*
X128267741Y-60749780D01*
X128229421Y-60764842D01*
X128219210Y-60785608D01*
X126991698Y-60785608D01*
X126973875Y-60779263D01*
X126953883Y-60771454D01*
X126906039Y-60750847D01*
X126879309Y-60733547D01*
X126867691Y-60714587D01*
X126865254Y-60689013D01*
X126865315Y-60681055D01*
X126867642Y-60643953D01*
X126876654Y-60620069D01*
X126896904Y-60608108D01*
X126932951Y-60606789D01*
X126989387Y-60614806D01*
X127070753Y-60630880D01*
X127123033Y-60640330D01*
X127195395Y-60650547D01*
X127272376Y-60659057D01*
X127348249Y-60665475D01*
X127417258Y-60669403D01*
X127473669Y-60670438D01*
X127511732Y-60668194D01*
X127525689Y-60662265D01*
X127522705Y-60648169D01*
X127507384Y-60608580D01*
X127483124Y-60556004D01*
X127454551Y-60499446D01*
X127426272Y-60447901D01*
X127402908Y-60410371D01*
X127389071Y-60395866D01*
X127386724Y-60395616D01*
X127375539Y-60379387D01*
X127373348Y-60370915D01*
X127357090Y-60334879D01*
X127327595Y-60277858D01*
X127288004Y-60205252D01*
X127241449Y-60122475D01*
X127191058Y-60034943D01*
X127139965Y-59948066D01*
X127091294Y-59867249D01*
X127048187Y-59797906D01*
X127013763Y-59745442D01*
X126991170Y-59715277D01*
X126985411Y-59707801D01*
X126962349Y-59674743D01*
X126926349Y-59621394D01*
X126881039Y-59553153D01*
X126830036Y-59475424D01*
X126781817Y-59400411D01*
X126734627Y-59322231D01*
X126706171Y-59266043D01*
X126695768Y-59228900D01*
X126702711Y-59207878D01*
X126726331Y-59200023D01*
X126765921Y-59202405D01*
X126804152Y-59212464D01*
X126846876Y-59239891D01*
X126895808Y-59290661D01*
X126927250Y-59327136D01*
X126978819Y-59386554D01*
X127038429Y-59454919D01*
X127098521Y-59523552D01*
X127098614Y-59523657D01*
X127163309Y-59597520D01*
X127240112Y-59685412D01*
X127319409Y-59776348D01*
X127391609Y-59859308D01*
X127462399Y-59940340D01*
X127545670Y-60034927D01*
X127628154Y-60127982D01*
X127699420Y-60207699D01*
X127703759Y-60212527D01*
X127765346Y-60281029D01*
X127824358Y-60346692D01*
X127874267Y-60402274D01*
X127908581Y-60440530D01*
X127928509Y-60462073D01*
X127979216Y-60512775D01*
X128025216Y-60554194D01*
X128038337Y-60564863D01*
X128066564Y-60584369D01*
X128093154Y-60592080D01*
X128128463Y-60589600D01*
X128182874Y-60578541D01*
X128187845Y-60577531D01*
X128235355Y-60571249D01*
X128308436Y-60565151D01*
X128403234Y-60559447D01*
X128515905Y-60554344D01*
X128642600Y-60550046D01*
X128779464Y-60546761D01*
X128858729Y-60545062D01*
X128972026Y-60542044D01*
X129073336Y-60538623D01*
X129159059Y-60534966D01*
X129225570Y-60531237D01*
X129269283Y-60527590D01*
X129286570Y-60524193D01*
X129288069Y-60521913D01*
X129299194Y-60493009D01*
X129315158Y-60440751D01*
X129333051Y-60374553D01*
X129367935Y-60237907D01*
X129261386Y-60144430D01*
X129182739Y-60075559D01*
X129107614Y-60010204D01*
X129044694Y-59956108D01*
X128987512Y-59907720D01*
X128929617Y-59859497D01*
X128912049Y-59844861D01*
X128864970Y-59805222D01*
X128805246Y-59754575D01*
X128738194Y-59697480D01*
X128669122Y-59638474D01*
X128603366Y-59582116D01*
X128546247Y-59532943D01*
X128503073Y-59495517D01*
X128479161Y-59474374D01*
X128461511Y-59459120D01*
X128426105Y-59429368D01*
X128381561Y-59392374D01*
X128359536Y-59374039D01*
X128307062Y-59329852D01*
X128240240Y-59273191D01*
X128165367Y-59209408D01*
X128088767Y-59143859D01*
X128046412Y-59107596D01*
X127966215Y-59039225D01*
X127889279Y-58973969D01*
X127822670Y-58917817D01*
X127773438Y-58876751D01*
X127756899Y-58863007D01*
X127708928Y-58822171D01*
X127672103Y-58789381D01*
X127653320Y-58770722D01*
X127643171Y-58759989D01*
X127611945Y-58731823D01*
X127571036Y-58697989D01*
X127534716Y-58668630D01*
X127480040Y-58621179D01*
X127429535Y-58571896D01*
X127428517Y-58570859D01*
X127413941Y-58557011D01*
X127392482Y-58538918D01*
X127357966Y-58511542D01*
X127304217Y-58469867D01*
X127295457Y-58462830D01*
X127266930Y-58435237D01*
X127255416Y-58415835D01*
X127254660Y-58410968D01*
X127238813Y-58399479D01*
X127236561Y-58399197D01*
X127212128Y-58385826D01*
X127179369Y-58358640D01*
X127171111Y-58350878D01*
X127133023Y-58316036D01*
X127082119Y-58270320D01*
X127027050Y-58221536D01*
X127002125Y-58199544D01*
X126946080Y-58149834D01*
X126873922Y-58085639D01*
X126790540Y-58011325D01*
X126700851Y-57931258D01*
X126609755Y-57849811D01*
X126543846Y-57790902D01*
X126460246Y-57716419D01*
X126384756Y-57649419D01*
X126321375Y-57593422D01*
X126274103Y-57551987D01*
X126246939Y-57528653D01*
X126232408Y-57516244D01*
X126182173Y-57470382D01*
X126134327Y-57423295D01*
X126104573Y-57393172D01*
X126051575Y-57341217D01*
X125999095Y-57291331D01*
X125921475Y-57219031D01*
X125818911Y-57311393D01*
X125787406Y-57340888D01*
X125692614Y-57440289D01*
X125592659Y-57558198D01*
X125494909Y-57685208D01*
X125406735Y-57811912D01*
X125335505Y-57928894D01*
X125319392Y-57958402D01*
X125188254Y-58233642D01*
X125085027Y-58519370D01*
X125009783Y-58813117D01*
X124962551Y-59112396D01*
X124943405Y-59414750D01*
X124711245Y-59414750D01*
X124711542Y-59312812D01*
X124712893Y-59213616D01*
X124715741Y-59134076D01*
X124720591Y-59066693D01*
X124727950Y-59003941D01*
X124738323Y-58938306D01*
X124752221Y-58862276D01*
X124766300Y-58790187D01*
X124818278Y-58560959D01*
X124877139Y-58356671D01*
X124945276Y-58168740D01*
X124964358Y-58122354D01*
X125101550Y-57834441D01*
X125261180Y-57569297D01*
X125441543Y-57328404D01*
X125640973Y-57113253D01*
X125857766Y-56925315D01*
X125963576Y-56852848D01*
X126629085Y-56852848D01*
X126632355Y-56873225D01*
X126634902Y-56879689D01*
X126656117Y-56913263D01*
X126697560Y-56970070D01*
X126758157Y-57048767D01*
X126836861Y-57148002D01*
X126932603Y-57266448D01*
X127044333Y-57402745D01*
X127170974Y-57555548D01*
X127176191Y-57561815D01*
X127309551Y-57721872D01*
X127424724Y-57859853D01*
X127524700Y-57979185D01*
X127612412Y-58083296D01*
X127690858Y-58175628D01*
X127762992Y-58259617D01*
X127831781Y-58338694D01*
X127900197Y-58416290D01*
X127971202Y-58495846D01*
X128047771Y-58580800D01*
X128132861Y-58674570D01*
X128229440Y-58780602D01*
X128285219Y-58842078D01*
X128344717Y-58908281D01*
X128396046Y-58966020D01*
X128432142Y-59007369D01*
X128466570Y-59046027D01*
X128518213Y-59101851D01*
X128579006Y-59166112D01*
X128641856Y-59231252D01*
X128646969Y-59236494D01*
X128704806Y-59296108D01*
X128755714Y-59349101D01*
X128794353Y-59389871D01*
X128815366Y-59412838D01*
X128842515Y-59443137D01*
X128896883Y-59500909D01*
X128973875Y-59580761D01*
X129073102Y-59682288D01*
X129194159Y-59805069D01*
X129238994Y-59849952D01*
X129298685Y-59908251D01*
X129348061Y-59954717D01*
X129382930Y-59985470D01*
X129399120Y-59996588D01*
X129415554Y-59979684D01*
X129429524Y-59931635D01*
X129440743Y-59857515D01*
X129449137Y-59762401D01*
X129454570Y-59651366D01*
X129456968Y-59529477D01*
X129456219Y-59401808D01*
X129452240Y-59273444D01*
X129444917Y-59149450D01*
X129434159Y-59034900D01*
X129419867Y-58934868D01*
X129397016Y-58816758D01*
X129317758Y-58510334D01*
X129212906Y-58222690D01*
X129082310Y-57953391D01*
X129040327Y-57878097D01*
X129001636Y-57811977D01*
X128965099Y-57755019D01*
X128924822Y-57698582D01*
X128874919Y-57633992D01*
X128809496Y-57552602D01*
X128746079Y-57477597D01*
X128551942Y-57281832D01*
X128339044Y-57113167D01*
X128109430Y-56972895D01*
X127865164Y-56862352D01*
X127608277Y-56782822D01*
X127475687Y-56758162D01*
X127303775Y-56742779D01*
X127125150Y-56742068D01*
X126951044Y-56756009D01*
X126792648Y-56784578D01*
X126727938Y-56800557D01*
X126677005Y-56814466D01*
X126646699Y-56826079D01*
X126632302Y-56838000D01*
X126629085Y-56852848D01*
X125963576Y-56852848D01*
X126090255Y-56766089D01*
X126336743Y-56637057D01*
X126595563Y-56539693D01*
X126865020Y-56475500D01*
X126907484Y-56470015D01*
X126986905Y-56464257D01*
X127082952Y-56460681D01*
X127187852Y-56459280D01*
X127293843Y-56460065D01*
X127393170Y-56463027D01*
X127478039Y-56468177D01*
X127540705Y-56475500D01*
X127794718Y-56535187D01*
X128055541Y-56631707D01*
X128305418Y-56761334D01*
X128542654Y-56923065D01*
X128765557Y-57115860D01*
X128972431Y-57338704D01*
X129005465Y-57379040D01*
X129181915Y-57624500D01*
X129334511Y-57891456D01*
X129462551Y-58178432D01*
X129565386Y-58483953D01*
X129642326Y-58806537D01*
X129662193Y-58921657D01*
X129693925Y-59218589D01*
X129700630Y-59524804D01*
X129700356Y-59529477D01*
X129682609Y-59833149D01*
G37*
%TD*%
M02*
