%TF.GenerationSoftware,KiCad,Pcbnew,9.0.7*%
%TF.CreationDate,2026-03-10T13:03:22-05:00*%
%TF.ProjectId,MotorDriverV2,4d6f746f-7244-4726-9976-657256322e6b,rev?*%
%TF.SameCoordinates,Original*%
%TF.FileFunction,Legend,Top*%
%TF.FilePolarity,Positive*%
%FSLAX46Y46*%
G04 Gerber Fmt 4.6, Leading zero omitted, Abs format (unit mm)*
G04 Created by KiCad (PCBNEW 9.0.7) date 2026-03-10 13:03:22*
%MOMM*%
%LPD*%
G01*
G04 APERTURE LIST*
%ADD10C,0.150000*%
%ADD11C,0.125000*%
%ADD12C,0.254000*%
%ADD13C,0.062500*%
%ADD14C,0.087500*%
%ADD15C,0.120000*%
%ADD16C,0.100000*%
%ADD17C,0.200000*%
G04 APERTURE END LIST*
D10*
X123947142Y-51984819D02*
X123470952Y-51984819D01*
X123470952Y-51984819D02*
X123423333Y-52461009D01*
X123423333Y-52461009D02*
X123470952Y-52413390D01*
X123470952Y-52413390D02*
X123566190Y-52365771D01*
X123566190Y-52365771D02*
X123804285Y-52365771D01*
X123804285Y-52365771D02*
X123899523Y-52413390D01*
X123899523Y-52413390D02*
X123947142Y-52461009D01*
X123947142Y-52461009D02*
X123994761Y-52556247D01*
X123994761Y-52556247D02*
X123994761Y-52794342D01*
X123994761Y-52794342D02*
X123947142Y-52889580D01*
X123947142Y-52889580D02*
X123899523Y-52937200D01*
X123899523Y-52937200D02*
X123804285Y-52984819D01*
X123804285Y-52984819D02*
X123566190Y-52984819D01*
X123566190Y-52984819D02*
X123470952Y-52937200D01*
X123470952Y-52937200D02*
X123423333Y-52889580D01*
X124423333Y-52984819D02*
X124423333Y-51984819D01*
X124518571Y-52603866D02*
X124804285Y-52984819D01*
X124804285Y-52318152D02*
X124423333Y-52699104D01*
X125756666Y-52984819D02*
X125185238Y-52984819D01*
X125470952Y-52984819D02*
X125470952Y-51984819D01*
X125470952Y-51984819D02*
X125375714Y-52127676D01*
X125375714Y-52127676D02*
X125280476Y-52222914D01*
X125280476Y-52222914D02*
X125185238Y-52270533D01*
X150927142Y-72054819D02*
X150450952Y-72054819D01*
X150450952Y-72054819D02*
X150403333Y-72531009D01*
X150403333Y-72531009D02*
X150450952Y-72483390D01*
X150450952Y-72483390D02*
X150546190Y-72435771D01*
X150546190Y-72435771D02*
X150784285Y-72435771D01*
X150784285Y-72435771D02*
X150879523Y-72483390D01*
X150879523Y-72483390D02*
X150927142Y-72531009D01*
X150927142Y-72531009D02*
X150974761Y-72626247D01*
X150974761Y-72626247D02*
X150974761Y-72864342D01*
X150974761Y-72864342D02*
X150927142Y-72959580D01*
X150927142Y-72959580D02*
X150879523Y-73007200D01*
X150879523Y-73007200D02*
X150784285Y-73054819D01*
X150784285Y-73054819D02*
X150546190Y-73054819D01*
X150546190Y-73054819D02*
X150450952Y-73007200D01*
X150450952Y-73007200D02*
X150403333Y-72959580D01*
X151403333Y-73054819D02*
X151403333Y-72054819D01*
X151498571Y-72673866D02*
X151784285Y-73054819D01*
X151784285Y-72388152D02*
X151403333Y-72769104D01*
X152736666Y-73054819D02*
X152165238Y-73054819D01*
X152450952Y-73054819D02*
X152450952Y-72054819D01*
X152450952Y-72054819D02*
X152355714Y-72197676D01*
X152355714Y-72197676D02*
X152260476Y-72292914D01*
X152260476Y-72292914D02*
X152165238Y-72340533D01*
X133334819Y-45170356D02*
X133334819Y-45075118D01*
X133334819Y-45075118D02*
X133382438Y-44979880D01*
X133382438Y-44979880D02*
X133430057Y-44932261D01*
X133430057Y-44932261D02*
X133525295Y-44884642D01*
X133525295Y-44884642D02*
X133715771Y-44837023D01*
X133715771Y-44837023D02*
X133953866Y-44837023D01*
X133953866Y-44837023D02*
X134144342Y-44884642D01*
X134144342Y-44884642D02*
X134239580Y-44932261D01*
X134239580Y-44932261D02*
X134287200Y-44979880D01*
X134287200Y-44979880D02*
X134334819Y-45075118D01*
X134334819Y-45075118D02*
X134334819Y-45170356D01*
X134334819Y-45170356D02*
X134287200Y-45265594D01*
X134287200Y-45265594D02*
X134239580Y-45313213D01*
X134239580Y-45313213D02*
X134144342Y-45360832D01*
X134144342Y-45360832D02*
X133953866Y-45408451D01*
X133953866Y-45408451D02*
X133715771Y-45408451D01*
X133715771Y-45408451D02*
X133525295Y-45360832D01*
X133525295Y-45360832D02*
X133430057Y-45313213D01*
X133430057Y-45313213D02*
X133382438Y-45265594D01*
X133382438Y-45265594D02*
X133334819Y-45170356D01*
X134239580Y-44408451D02*
X134287200Y-44360832D01*
X134287200Y-44360832D02*
X134334819Y-44408451D01*
X134334819Y-44408451D02*
X134287200Y-44456070D01*
X134287200Y-44456070D02*
X134239580Y-44408451D01*
X134239580Y-44408451D02*
X134334819Y-44408451D01*
X134334819Y-43408452D02*
X134334819Y-43979880D01*
X134334819Y-43694166D02*
X133334819Y-43694166D01*
X133334819Y-43694166D02*
X133477676Y-43789404D01*
X133477676Y-43789404D02*
X133572914Y-43884642D01*
X133572914Y-43884642D02*
X133620533Y-43979880D01*
X133668152Y-42551309D02*
X134334819Y-42551309D01*
X133668152Y-42979880D02*
X134191961Y-42979880D01*
X134191961Y-42979880D02*
X134287200Y-42932261D01*
X134287200Y-42932261D02*
X134334819Y-42837023D01*
X134334819Y-42837023D02*
X134334819Y-42694166D01*
X134334819Y-42694166D02*
X134287200Y-42598928D01*
X134287200Y-42598928D02*
X134239580Y-42551309D01*
X133811009Y-41741785D02*
X133811009Y-42075118D01*
X134334819Y-42075118D02*
X133334819Y-42075118D01*
X133334819Y-42075118D02*
X133334819Y-41598928D01*
D11*
X136453333Y-67719452D02*
X136453333Y-68386119D01*
X136215238Y-67338500D02*
X135977143Y-68052785D01*
X135977143Y-68052785D02*
X136596190Y-68052785D01*
X136881905Y-67386119D02*
X137548571Y-67386119D01*
X137548571Y-67386119D02*
X137120000Y-68386119D01*
X138358095Y-67719452D02*
X138358095Y-68386119D01*
X137929524Y-67719452D02*
X137929524Y-68243261D01*
X137929524Y-68243261D02*
X137977143Y-68338500D01*
X137977143Y-68338500D02*
X138072381Y-68386119D01*
X138072381Y-68386119D02*
X138215238Y-68386119D01*
X138215238Y-68386119D02*
X138310476Y-68338500D01*
X138310476Y-68338500D02*
X138358095Y-68290880D01*
X139167619Y-67862309D02*
X138834286Y-67862309D01*
X138834286Y-68386119D02*
X138834286Y-67386119D01*
X138834286Y-67386119D02*
X139310476Y-67386119D01*
D12*
X145090237Y-51564318D02*
X145090237Y-50294318D01*
X146420714Y-51443365D02*
X146360238Y-51503842D01*
X146360238Y-51503842D02*
X146178809Y-51564318D01*
X146178809Y-51564318D02*
X146057857Y-51564318D01*
X146057857Y-51564318D02*
X145876428Y-51503842D01*
X145876428Y-51503842D02*
X145755476Y-51382889D01*
X145755476Y-51382889D02*
X145694999Y-51261937D01*
X145694999Y-51261937D02*
X145634523Y-51020032D01*
X145634523Y-51020032D02*
X145634523Y-50838603D01*
X145634523Y-50838603D02*
X145694999Y-50596699D01*
X145694999Y-50596699D02*
X145755476Y-50475746D01*
X145755476Y-50475746D02*
X145876428Y-50354794D01*
X145876428Y-50354794D02*
X146057857Y-50294318D01*
X146057857Y-50294318D02*
X146178809Y-50294318D01*
X146178809Y-50294318D02*
X146360238Y-50354794D01*
X146360238Y-50354794D02*
X146420714Y-50415270D01*
X146844047Y-50294318D02*
X147630238Y-50294318D01*
X147630238Y-50294318D02*
X147206904Y-50778127D01*
X147206904Y-50778127D02*
X147388333Y-50778127D01*
X147388333Y-50778127D02*
X147509285Y-50838603D01*
X147509285Y-50838603D02*
X147569761Y-50899080D01*
X147569761Y-50899080D02*
X147630238Y-51020032D01*
X147630238Y-51020032D02*
X147630238Y-51322413D01*
X147630238Y-51322413D02*
X147569761Y-51443365D01*
X147569761Y-51443365D02*
X147509285Y-51503842D01*
X147509285Y-51503842D02*
X147388333Y-51564318D01*
X147388333Y-51564318D02*
X147025476Y-51564318D01*
X147025476Y-51564318D02*
X146904523Y-51503842D01*
X146904523Y-51503842D02*
X146844047Y-51443365D01*
D10*
X120294819Y-38911428D02*
X120294819Y-39482856D01*
X120294819Y-39197142D02*
X119294819Y-39197142D01*
X119294819Y-39197142D02*
X119437676Y-39292380D01*
X119437676Y-39292380D02*
X119532914Y-39387618D01*
X119532914Y-39387618D02*
X119580533Y-39482856D01*
X119294819Y-38292380D02*
X119294819Y-38197142D01*
X119294819Y-38197142D02*
X119342438Y-38101904D01*
X119342438Y-38101904D02*
X119390057Y-38054285D01*
X119390057Y-38054285D02*
X119485295Y-38006666D01*
X119485295Y-38006666D02*
X119675771Y-37959047D01*
X119675771Y-37959047D02*
X119913866Y-37959047D01*
X119913866Y-37959047D02*
X120104342Y-38006666D01*
X120104342Y-38006666D02*
X120199580Y-38054285D01*
X120199580Y-38054285D02*
X120247200Y-38101904D01*
X120247200Y-38101904D02*
X120294819Y-38197142D01*
X120294819Y-38197142D02*
X120294819Y-38292380D01*
X120294819Y-38292380D02*
X120247200Y-38387618D01*
X120247200Y-38387618D02*
X120199580Y-38435237D01*
X120199580Y-38435237D02*
X120104342Y-38482856D01*
X120104342Y-38482856D02*
X119913866Y-38530475D01*
X119913866Y-38530475D02*
X119675771Y-38530475D01*
X119675771Y-38530475D02*
X119485295Y-38482856D01*
X119485295Y-38482856D02*
X119390057Y-38435237D01*
X119390057Y-38435237D02*
X119342438Y-38387618D01*
X119342438Y-38387618D02*
X119294819Y-38292380D01*
X119628152Y-37101904D02*
X120294819Y-37101904D01*
X119628152Y-37530475D02*
X120151961Y-37530475D01*
X120151961Y-37530475D02*
X120247200Y-37482856D01*
X120247200Y-37482856D02*
X120294819Y-37387618D01*
X120294819Y-37387618D02*
X120294819Y-37244761D01*
X120294819Y-37244761D02*
X120247200Y-37149523D01*
X120247200Y-37149523D02*
X120199580Y-37101904D01*
X119771009Y-36292380D02*
X119771009Y-36625713D01*
X120294819Y-36625713D02*
X119294819Y-36625713D01*
X119294819Y-36625713D02*
X119294819Y-36149523D01*
D12*
X162513842Y-42537619D02*
X162574318Y-42356190D01*
X162574318Y-42356190D02*
X162574318Y-42053809D01*
X162574318Y-42053809D02*
X162513842Y-41932857D01*
X162513842Y-41932857D02*
X162453365Y-41872381D01*
X162453365Y-41872381D02*
X162332413Y-41811904D01*
X162332413Y-41811904D02*
X162211461Y-41811904D01*
X162211461Y-41811904D02*
X162090508Y-41872381D01*
X162090508Y-41872381D02*
X162030032Y-41932857D01*
X162030032Y-41932857D02*
X161969556Y-42053809D01*
X161969556Y-42053809D02*
X161909080Y-42295714D01*
X161909080Y-42295714D02*
X161848603Y-42416666D01*
X161848603Y-42416666D02*
X161788127Y-42477143D01*
X161788127Y-42477143D02*
X161667175Y-42537619D01*
X161667175Y-42537619D02*
X161546222Y-42537619D01*
X161546222Y-42537619D02*
X161425270Y-42477143D01*
X161425270Y-42477143D02*
X161364794Y-42416666D01*
X161364794Y-42416666D02*
X161304318Y-42295714D01*
X161304318Y-42295714D02*
X161304318Y-41993333D01*
X161304318Y-41993333D02*
X161364794Y-41811904D01*
X162574318Y-40602380D02*
X162574318Y-41328095D01*
X162574318Y-40965238D02*
X161304318Y-40965238D01*
X161304318Y-40965238D02*
X161485746Y-41086190D01*
X161485746Y-41086190D02*
X161606699Y-41207142D01*
X161606699Y-41207142D02*
X161667175Y-41328095D01*
D10*
X127784819Y-38435238D02*
X127784819Y-39006666D01*
X127784819Y-38720952D02*
X126784819Y-38720952D01*
X126784819Y-38720952D02*
X126927676Y-38816190D01*
X126927676Y-38816190D02*
X127022914Y-38911428D01*
X127022914Y-38911428D02*
X127070533Y-39006666D01*
X127118152Y-37578095D02*
X127784819Y-37578095D01*
X127118152Y-38006666D02*
X127641961Y-38006666D01*
X127641961Y-38006666D02*
X127737200Y-37959047D01*
X127737200Y-37959047D02*
X127784819Y-37863809D01*
X127784819Y-37863809D02*
X127784819Y-37720952D01*
X127784819Y-37720952D02*
X127737200Y-37625714D01*
X127737200Y-37625714D02*
X127689580Y-37578095D01*
X127261009Y-36768571D02*
X127261009Y-37101904D01*
X127784819Y-37101904D02*
X126784819Y-37101904D01*
X126784819Y-37101904D02*
X126784819Y-36625714D01*
X125569643Y-49924819D02*
X125664881Y-49924819D01*
X125664881Y-49924819D02*
X125760119Y-49972438D01*
X125760119Y-49972438D02*
X125807738Y-50020057D01*
X125807738Y-50020057D02*
X125855357Y-50115295D01*
X125855357Y-50115295D02*
X125902976Y-50305771D01*
X125902976Y-50305771D02*
X125902976Y-50543866D01*
X125902976Y-50543866D02*
X125855357Y-50734342D01*
X125855357Y-50734342D02*
X125807738Y-50829580D01*
X125807738Y-50829580D02*
X125760119Y-50877200D01*
X125760119Y-50877200D02*
X125664881Y-50924819D01*
X125664881Y-50924819D02*
X125569643Y-50924819D01*
X125569643Y-50924819D02*
X125474405Y-50877200D01*
X125474405Y-50877200D02*
X125426786Y-50829580D01*
X125426786Y-50829580D02*
X125379167Y-50734342D01*
X125379167Y-50734342D02*
X125331548Y-50543866D01*
X125331548Y-50543866D02*
X125331548Y-50305771D01*
X125331548Y-50305771D02*
X125379167Y-50115295D01*
X125379167Y-50115295D02*
X125426786Y-50020057D01*
X125426786Y-50020057D02*
X125474405Y-49972438D01*
X125474405Y-49972438D02*
X125569643Y-49924819D01*
X126331548Y-50829580D02*
X126379167Y-50877200D01*
X126379167Y-50877200D02*
X126331548Y-50924819D01*
X126331548Y-50924819D02*
X126283929Y-50877200D01*
X126283929Y-50877200D02*
X126331548Y-50829580D01*
X126331548Y-50829580D02*
X126331548Y-50924819D01*
X127331547Y-50924819D02*
X126760119Y-50924819D01*
X127045833Y-50924819D02*
X127045833Y-49924819D01*
X127045833Y-49924819D02*
X126950595Y-50067676D01*
X126950595Y-50067676D02*
X126855357Y-50162914D01*
X126855357Y-50162914D02*
X126760119Y-50210533D01*
X128188690Y-50258152D02*
X128188690Y-50924819D01*
X127760119Y-50258152D02*
X127760119Y-50781961D01*
X127760119Y-50781961D02*
X127807738Y-50877200D01*
X127807738Y-50877200D02*
X127902976Y-50924819D01*
X127902976Y-50924819D02*
X128045833Y-50924819D01*
X128045833Y-50924819D02*
X128141071Y-50877200D01*
X128141071Y-50877200D02*
X128188690Y-50829580D01*
X128998214Y-50401009D02*
X128664881Y-50401009D01*
X128664881Y-50924819D02*
X128664881Y-49924819D01*
X128664881Y-49924819D02*
X129141071Y-49924819D01*
X159847143Y-58754819D02*
X159942381Y-58754819D01*
X159942381Y-58754819D02*
X160037619Y-58802438D01*
X160037619Y-58802438D02*
X160085238Y-58850057D01*
X160085238Y-58850057D02*
X160132857Y-58945295D01*
X160132857Y-58945295D02*
X160180476Y-59135771D01*
X160180476Y-59135771D02*
X160180476Y-59373866D01*
X160180476Y-59373866D02*
X160132857Y-59564342D01*
X160132857Y-59564342D02*
X160085238Y-59659580D01*
X160085238Y-59659580D02*
X160037619Y-59707200D01*
X160037619Y-59707200D02*
X159942381Y-59754819D01*
X159942381Y-59754819D02*
X159847143Y-59754819D01*
X159847143Y-59754819D02*
X159751905Y-59707200D01*
X159751905Y-59707200D02*
X159704286Y-59659580D01*
X159704286Y-59659580D02*
X159656667Y-59564342D01*
X159656667Y-59564342D02*
X159609048Y-59373866D01*
X159609048Y-59373866D02*
X159609048Y-59135771D01*
X159609048Y-59135771D02*
X159656667Y-58945295D01*
X159656667Y-58945295D02*
X159704286Y-58850057D01*
X159704286Y-58850057D02*
X159751905Y-58802438D01*
X159751905Y-58802438D02*
X159847143Y-58754819D01*
X160609048Y-59659580D02*
X160656667Y-59707200D01*
X160656667Y-59707200D02*
X160609048Y-59754819D01*
X160609048Y-59754819D02*
X160561429Y-59707200D01*
X160561429Y-59707200D02*
X160609048Y-59659580D01*
X160609048Y-59659580D02*
X160609048Y-59754819D01*
X161609047Y-59754819D02*
X161037619Y-59754819D01*
X161323333Y-59754819D02*
X161323333Y-58754819D01*
X161323333Y-58754819D02*
X161228095Y-58897676D01*
X161228095Y-58897676D02*
X161132857Y-58992914D01*
X161132857Y-58992914D02*
X161037619Y-59040533D01*
X162466190Y-59088152D02*
X162466190Y-59754819D01*
X162037619Y-59088152D02*
X162037619Y-59611961D01*
X162037619Y-59611961D02*
X162085238Y-59707200D01*
X162085238Y-59707200D02*
X162180476Y-59754819D01*
X162180476Y-59754819D02*
X162323333Y-59754819D01*
X162323333Y-59754819D02*
X162418571Y-59707200D01*
X162418571Y-59707200D02*
X162466190Y-59659580D01*
X163275714Y-59231009D02*
X162942381Y-59231009D01*
X162942381Y-59754819D02*
X162942381Y-58754819D01*
X162942381Y-58754819D02*
X163418571Y-58754819D01*
X135824819Y-62384761D02*
X135824819Y-62956189D01*
X135824819Y-62670475D02*
X134824819Y-62670475D01*
X134824819Y-62670475D02*
X134967676Y-62765713D01*
X134967676Y-62765713D02*
X135062914Y-62860951D01*
X135062914Y-62860951D02*
X135110533Y-62956189D01*
X135158152Y-61527618D02*
X135824819Y-61527618D01*
X134777200Y-61765713D02*
X135491485Y-62003808D01*
X135491485Y-62003808D02*
X135491485Y-61384761D01*
X135729580Y-61003808D02*
X135777200Y-60956189D01*
X135777200Y-60956189D02*
X135824819Y-61003808D01*
X135824819Y-61003808D02*
X135777200Y-61051427D01*
X135777200Y-61051427D02*
X135729580Y-61003808D01*
X135729580Y-61003808D02*
X135824819Y-61003808D01*
X135253390Y-60384761D02*
X135205771Y-60479999D01*
X135205771Y-60479999D02*
X135158152Y-60527618D01*
X135158152Y-60527618D02*
X135062914Y-60575237D01*
X135062914Y-60575237D02*
X135015295Y-60575237D01*
X135015295Y-60575237D02*
X134920057Y-60527618D01*
X134920057Y-60527618D02*
X134872438Y-60479999D01*
X134872438Y-60479999D02*
X134824819Y-60384761D01*
X134824819Y-60384761D02*
X134824819Y-60194285D01*
X134824819Y-60194285D02*
X134872438Y-60099047D01*
X134872438Y-60099047D02*
X134920057Y-60051428D01*
X134920057Y-60051428D02*
X135015295Y-60003809D01*
X135015295Y-60003809D02*
X135062914Y-60003809D01*
X135062914Y-60003809D02*
X135158152Y-60051428D01*
X135158152Y-60051428D02*
X135205771Y-60099047D01*
X135205771Y-60099047D02*
X135253390Y-60194285D01*
X135253390Y-60194285D02*
X135253390Y-60384761D01*
X135253390Y-60384761D02*
X135301009Y-60479999D01*
X135301009Y-60479999D02*
X135348628Y-60527618D01*
X135348628Y-60527618D02*
X135443866Y-60575237D01*
X135443866Y-60575237D02*
X135634342Y-60575237D01*
X135634342Y-60575237D02*
X135729580Y-60527618D01*
X135729580Y-60527618D02*
X135777200Y-60479999D01*
X135777200Y-60479999D02*
X135824819Y-60384761D01*
X135824819Y-60384761D02*
X135824819Y-60194285D01*
X135824819Y-60194285D02*
X135777200Y-60099047D01*
X135777200Y-60099047D02*
X135729580Y-60051428D01*
X135729580Y-60051428D02*
X135634342Y-60003809D01*
X135634342Y-60003809D02*
X135443866Y-60003809D01*
X135443866Y-60003809D02*
X135348628Y-60051428D01*
X135348628Y-60051428D02*
X135301009Y-60099047D01*
X135301009Y-60099047D02*
X135253390Y-60194285D01*
X135824819Y-59575237D02*
X134824819Y-59575237D01*
X135824819Y-59003809D02*
X135253390Y-59432380D01*
X134824819Y-59003809D02*
X135396247Y-59575237D01*
X149437143Y-67134819D02*
X149532381Y-67134819D01*
X149532381Y-67134819D02*
X149627619Y-67182438D01*
X149627619Y-67182438D02*
X149675238Y-67230057D01*
X149675238Y-67230057D02*
X149722857Y-67325295D01*
X149722857Y-67325295D02*
X149770476Y-67515771D01*
X149770476Y-67515771D02*
X149770476Y-67753866D01*
X149770476Y-67753866D02*
X149722857Y-67944342D01*
X149722857Y-67944342D02*
X149675238Y-68039580D01*
X149675238Y-68039580D02*
X149627619Y-68087200D01*
X149627619Y-68087200D02*
X149532381Y-68134819D01*
X149532381Y-68134819D02*
X149437143Y-68134819D01*
X149437143Y-68134819D02*
X149341905Y-68087200D01*
X149341905Y-68087200D02*
X149294286Y-68039580D01*
X149294286Y-68039580D02*
X149246667Y-67944342D01*
X149246667Y-67944342D02*
X149199048Y-67753866D01*
X149199048Y-67753866D02*
X149199048Y-67515771D01*
X149199048Y-67515771D02*
X149246667Y-67325295D01*
X149246667Y-67325295D02*
X149294286Y-67230057D01*
X149294286Y-67230057D02*
X149341905Y-67182438D01*
X149341905Y-67182438D02*
X149437143Y-67134819D01*
X150199048Y-68039580D02*
X150246667Y-68087200D01*
X150246667Y-68087200D02*
X150199048Y-68134819D01*
X150199048Y-68134819D02*
X150151429Y-68087200D01*
X150151429Y-68087200D02*
X150199048Y-68039580D01*
X150199048Y-68039580D02*
X150199048Y-68134819D01*
X151199047Y-68134819D02*
X150627619Y-68134819D01*
X150913333Y-68134819D02*
X150913333Y-67134819D01*
X150913333Y-67134819D02*
X150818095Y-67277676D01*
X150818095Y-67277676D02*
X150722857Y-67372914D01*
X150722857Y-67372914D02*
X150627619Y-67420533D01*
X152056190Y-67468152D02*
X152056190Y-68134819D01*
X151627619Y-67468152D02*
X151627619Y-67991961D01*
X151627619Y-67991961D02*
X151675238Y-68087200D01*
X151675238Y-68087200D02*
X151770476Y-68134819D01*
X151770476Y-68134819D02*
X151913333Y-68134819D01*
X151913333Y-68134819D02*
X152008571Y-68087200D01*
X152008571Y-68087200D02*
X152056190Y-68039580D01*
X152865714Y-67611009D02*
X152532381Y-67611009D01*
X152532381Y-68134819D02*
X152532381Y-67134819D01*
X152532381Y-67134819D02*
X153008571Y-67134819D01*
X125867619Y-42778152D02*
X126391428Y-42778152D01*
X126391428Y-42778152D02*
X125867619Y-43444819D01*
X125867619Y-43444819D02*
X126391428Y-43444819D01*
X127153333Y-43397200D02*
X127058095Y-43444819D01*
X127058095Y-43444819D02*
X126867619Y-43444819D01*
X126867619Y-43444819D02*
X126772381Y-43397200D01*
X126772381Y-43397200D02*
X126724762Y-43301961D01*
X126724762Y-43301961D02*
X126724762Y-42921009D01*
X126724762Y-42921009D02*
X126772381Y-42825771D01*
X126772381Y-42825771D02*
X126867619Y-42778152D01*
X126867619Y-42778152D02*
X127058095Y-42778152D01*
X127058095Y-42778152D02*
X127153333Y-42825771D01*
X127153333Y-42825771D02*
X127200952Y-42921009D01*
X127200952Y-42921009D02*
X127200952Y-43016247D01*
X127200952Y-43016247D02*
X126724762Y-43111485D01*
X127629524Y-43444819D02*
X127629524Y-42778152D01*
X127629524Y-42968628D02*
X127677143Y-42873390D01*
X127677143Y-42873390D02*
X127724762Y-42825771D01*
X127724762Y-42825771D02*
X127820000Y-42778152D01*
X127820000Y-42778152D02*
X127915238Y-42778152D01*
X128391429Y-43444819D02*
X128296191Y-43397200D01*
X128296191Y-43397200D02*
X128248572Y-43349580D01*
X128248572Y-43349580D02*
X128200953Y-43254342D01*
X128200953Y-43254342D02*
X128200953Y-42968628D01*
X128200953Y-42968628D02*
X128248572Y-42873390D01*
X128248572Y-42873390D02*
X128296191Y-42825771D01*
X128296191Y-42825771D02*
X128391429Y-42778152D01*
X128391429Y-42778152D02*
X128534286Y-42778152D01*
X128534286Y-42778152D02*
X128629524Y-42825771D01*
X128629524Y-42825771D02*
X128677143Y-42873390D01*
X128677143Y-42873390D02*
X128724762Y-42968628D01*
X128724762Y-42968628D02*
X128724762Y-43254342D01*
X128724762Y-43254342D02*
X128677143Y-43349580D01*
X128677143Y-43349580D02*
X128629524Y-43397200D01*
X128629524Y-43397200D02*
X128534286Y-43444819D01*
X128534286Y-43444819D02*
X128391429Y-43444819D01*
D13*
X144434762Y-70700559D02*
X144434762Y-71105321D01*
X144434762Y-71105321D02*
X144458572Y-71152940D01*
X144458572Y-71152940D02*
X144482381Y-71176750D01*
X144482381Y-71176750D02*
X144530000Y-71200559D01*
X144530000Y-71200559D02*
X144625238Y-71200559D01*
X144625238Y-71200559D02*
X144672857Y-71176750D01*
X144672857Y-71176750D02*
X144696667Y-71152940D01*
X144696667Y-71152940D02*
X144720476Y-71105321D01*
X144720476Y-71105321D02*
X144720476Y-70700559D01*
X144934763Y-71176750D02*
X145006191Y-71200559D01*
X145006191Y-71200559D02*
X145125239Y-71200559D01*
X145125239Y-71200559D02*
X145172858Y-71176750D01*
X145172858Y-71176750D02*
X145196667Y-71152940D01*
X145196667Y-71152940D02*
X145220477Y-71105321D01*
X145220477Y-71105321D02*
X145220477Y-71057702D01*
X145220477Y-71057702D02*
X145196667Y-71010083D01*
X145196667Y-71010083D02*
X145172858Y-70986273D01*
X145172858Y-70986273D02*
X145125239Y-70962464D01*
X145125239Y-70962464D02*
X145030001Y-70938654D01*
X145030001Y-70938654D02*
X144982382Y-70914845D01*
X144982382Y-70914845D02*
X144958572Y-70891035D01*
X144958572Y-70891035D02*
X144934763Y-70843416D01*
X144934763Y-70843416D02*
X144934763Y-70795797D01*
X144934763Y-70795797D02*
X144958572Y-70748178D01*
X144958572Y-70748178D02*
X144982382Y-70724369D01*
X144982382Y-70724369D02*
X145030001Y-70700559D01*
X145030001Y-70700559D02*
X145149048Y-70700559D01*
X145149048Y-70700559D02*
X145220477Y-70724369D01*
X145601429Y-70938654D02*
X145672857Y-70962464D01*
X145672857Y-70962464D02*
X145696667Y-70986273D01*
X145696667Y-70986273D02*
X145720476Y-71033892D01*
X145720476Y-71033892D02*
X145720476Y-71105321D01*
X145720476Y-71105321D02*
X145696667Y-71152940D01*
X145696667Y-71152940D02*
X145672857Y-71176750D01*
X145672857Y-71176750D02*
X145625238Y-71200559D01*
X145625238Y-71200559D02*
X145434762Y-71200559D01*
X145434762Y-71200559D02*
X145434762Y-70700559D01*
X145434762Y-70700559D02*
X145601429Y-70700559D01*
X145601429Y-70700559D02*
X145649048Y-70724369D01*
X145649048Y-70724369D02*
X145672857Y-70748178D01*
X145672857Y-70748178D02*
X145696667Y-70795797D01*
X145696667Y-70795797D02*
X145696667Y-70843416D01*
X145696667Y-70843416D02*
X145672857Y-70891035D01*
X145672857Y-70891035D02*
X145649048Y-70914845D01*
X145649048Y-70914845D02*
X145601429Y-70938654D01*
X145601429Y-70938654D02*
X145434762Y-70938654D01*
X146172857Y-71200559D02*
X145934762Y-71200559D01*
X145934762Y-71200559D02*
X145934762Y-70700559D01*
X146625238Y-71152940D02*
X146601429Y-71176750D01*
X146601429Y-71176750D02*
X146530000Y-71200559D01*
X146530000Y-71200559D02*
X146482381Y-71200559D01*
X146482381Y-71200559D02*
X146410953Y-71176750D01*
X146410953Y-71176750D02*
X146363334Y-71129130D01*
X146363334Y-71129130D02*
X146339524Y-71081511D01*
X146339524Y-71081511D02*
X146315715Y-70986273D01*
X146315715Y-70986273D02*
X146315715Y-70914845D01*
X146315715Y-70914845D02*
X146339524Y-70819607D01*
X146339524Y-70819607D02*
X146363334Y-70771988D01*
X146363334Y-70771988D02*
X146410953Y-70724369D01*
X146410953Y-70724369D02*
X146482381Y-70700559D01*
X146482381Y-70700559D02*
X146530000Y-70700559D01*
X146530000Y-70700559D02*
X146601429Y-70724369D01*
X146601429Y-70724369D02*
X146625238Y-70748178D01*
X147053810Y-70700559D02*
X146958572Y-70700559D01*
X146958572Y-70700559D02*
X146910953Y-70724369D01*
X146910953Y-70724369D02*
X146887143Y-70748178D01*
X146887143Y-70748178D02*
X146839524Y-70819607D01*
X146839524Y-70819607D02*
X146815715Y-70914845D01*
X146815715Y-70914845D02*
X146815715Y-71105321D01*
X146815715Y-71105321D02*
X146839524Y-71152940D01*
X146839524Y-71152940D02*
X146863334Y-71176750D01*
X146863334Y-71176750D02*
X146910953Y-71200559D01*
X146910953Y-71200559D02*
X147006191Y-71200559D01*
X147006191Y-71200559D02*
X147053810Y-71176750D01*
X147053810Y-71176750D02*
X147077619Y-71152940D01*
X147077619Y-71152940D02*
X147101429Y-71105321D01*
X147101429Y-71105321D02*
X147101429Y-70986273D01*
X147101429Y-70986273D02*
X147077619Y-70938654D01*
X147077619Y-70938654D02*
X147053810Y-70914845D01*
X147053810Y-70914845D02*
X147006191Y-70891035D01*
X147006191Y-70891035D02*
X146910953Y-70891035D01*
X146910953Y-70891035D02*
X146863334Y-70914845D01*
X146863334Y-70914845D02*
X146839524Y-70938654D01*
X146839524Y-70938654D02*
X146815715Y-70986273D01*
X147315714Y-71010083D02*
X147696667Y-71010083D01*
X147910953Y-70748178D02*
X147934762Y-70724369D01*
X147934762Y-70724369D02*
X147982381Y-70700559D01*
X147982381Y-70700559D02*
X148101429Y-70700559D01*
X148101429Y-70700559D02*
X148149048Y-70724369D01*
X148149048Y-70724369D02*
X148172857Y-70748178D01*
X148172857Y-70748178D02*
X148196667Y-70795797D01*
X148196667Y-70795797D02*
X148196667Y-70843416D01*
X148196667Y-70843416D02*
X148172857Y-70914845D01*
X148172857Y-70914845D02*
X147887143Y-71200559D01*
X147887143Y-71200559D02*
X148196667Y-71200559D01*
X148387143Y-71176750D02*
X148458571Y-71200559D01*
X148458571Y-71200559D02*
X148577619Y-71200559D01*
X148577619Y-71200559D02*
X148625238Y-71176750D01*
X148625238Y-71176750D02*
X148649047Y-71152940D01*
X148649047Y-71152940D02*
X148672857Y-71105321D01*
X148672857Y-71105321D02*
X148672857Y-71057702D01*
X148672857Y-71057702D02*
X148649047Y-71010083D01*
X148649047Y-71010083D02*
X148625238Y-70986273D01*
X148625238Y-70986273D02*
X148577619Y-70962464D01*
X148577619Y-70962464D02*
X148482381Y-70938654D01*
X148482381Y-70938654D02*
X148434762Y-70914845D01*
X148434762Y-70914845D02*
X148410952Y-70891035D01*
X148410952Y-70891035D02*
X148387143Y-70843416D01*
X148387143Y-70843416D02*
X148387143Y-70795797D01*
X148387143Y-70795797D02*
X148410952Y-70748178D01*
X148410952Y-70748178D02*
X148434762Y-70724369D01*
X148434762Y-70724369D02*
X148482381Y-70700559D01*
X148482381Y-70700559D02*
X148601428Y-70700559D01*
X148601428Y-70700559D02*
X148672857Y-70724369D01*
X149172856Y-71152940D02*
X149149047Y-71176750D01*
X149149047Y-71176750D02*
X149077618Y-71200559D01*
X149077618Y-71200559D02*
X149029999Y-71200559D01*
X149029999Y-71200559D02*
X148958571Y-71176750D01*
X148958571Y-71176750D02*
X148910952Y-71129130D01*
X148910952Y-71129130D02*
X148887142Y-71081511D01*
X148887142Y-71081511D02*
X148863333Y-70986273D01*
X148863333Y-70986273D02*
X148863333Y-70914845D01*
X148863333Y-70914845D02*
X148887142Y-70819607D01*
X148887142Y-70819607D02*
X148910952Y-70771988D01*
X148910952Y-70771988D02*
X148958571Y-70724369D01*
X148958571Y-70724369D02*
X149029999Y-70700559D01*
X149029999Y-70700559D02*
X149077618Y-70700559D01*
X149077618Y-70700559D02*
X149149047Y-70724369D01*
X149149047Y-70724369D02*
X149172856Y-70748178D01*
X149601428Y-70700559D02*
X149506190Y-70700559D01*
X149506190Y-70700559D02*
X149458571Y-70724369D01*
X149458571Y-70724369D02*
X149434761Y-70748178D01*
X149434761Y-70748178D02*
X149387142Y-70819607D01*
X149387142Y-70819607D02*
X149363333Y-70914845D01*
X149363333Y-70914845D02*
X149363333Y-71105321D01*
X149363333Y-71105321D02*
X149387142Y-71152940D01*
X149387142Y-71152940D02*
X149410952Y-71176750D01*
X149410952Y-71176750D02*
X149458571Y-71200559D01*
X149458571Y-71200559D02*
X149553809Y-71200559D01*
X149553809Y-71200559D02*
X149601428Y-71176750D01*
X149601428Y-71176750D02*
X149625237Y-71152940D01*
X149625237Y-71152940D02*
X149649047Y-71105321D01*
X149649047Y-71105321D02*
X149649047Y-70986273D01*
X149649047Y-70986273D02*
X149625237Y-70938654D01*
X149625237Y-70938654D02*
X149601428Y-70914845D01*
X149601428Y-70914845D02*
X149553809Y-70891035D01*
X149553809Y-70891035D02*
X149458571Y-70891035D01*
X149458571Y-70891035D02*
X149410952Y-70914845D01*
X149410952Y-70914845D02*
X149387142Y-70938654D01*
X149387142Y-70938654D02*
X149363333Y-70986273D01*
D10*
X165696666Y-58752319D02*
X165696666Y-59466604D01*
X165696666Y-59466604D02*
X165649047Y-59609461D01*
X165649047Y-59609461D02*
X165553809Y-59704700D01*
X165553809Y-59704700D02*
X165410952Y-59752319D01*
X165410952Y-59752319D02*
X165315714Y-59752319D01*
X166077619Y-58752319D02*
X166696666Y-58752319D01*
X166696666Y-58752319D02*
X166363333Y-59133271D01*
X166363333Y-59133271D02*
X166506190Y-59133271D01*
X166506190Y-59133271D02*
X166601428Y-59180890D01*
X166601428Y-59180890D02*
X166649047Y-59228509D01*
X166649047Y-59228509D02*
X166696666Y-59323747D01*
X166696666Y-59323747D02*
X166696666Y-59561842D01*
X166696666Y-59561842D02*
X166649047Y-59657080D01*
X166649047Y-59657080D02*
X166601428Y-59704700D01*
X166601428Y-59704700D02*
X166506190Y-59752319D01*
X166506190Y-59752319D02*
X166220476Y-59752319D01*
X166220476Y-59752319D02*
X166125238Y-59704700D01*
X166125238Y-59704700D02*
X166077619Y-59657080D01*
X162744819Y-76474285D02*
X162744819Y-76283809D01*
X162744819Y-76283809D02*
X162792438Y-76188571D01*
X162792438Y-76188571D02*
X162887676Y-76093333D01*
X162887676Y-76093333D02*
X163078152Y-76045714D01*
X163078152Y-76045714D02*
X163411485Y-76045714D01*
X163411485Y-76045714D02*
X163601961Y-76093333D01*
X163601961Y-76093333D02*
X163697200Y-76188571D01*
X163697200Y-76188571D02*
X163744819Y-76283809D01*
X163744819Y-76283809D02*
X163744819Y-76474285D01*
X163744819Y-76474285D02*
X163697200Y-76569523D01*
X163697200Y-76569523D02*
X163601961Y-76664761D01*
X163601961Y-76664761D02*
X163411485Y-76712380D01*
X163411485Y-76712380D02*
X163078152Y-76712380D01*
X163078152Y-76712380D02*
X162887676Y-76664761D01*
X162887676Y-76664761D02*
X162792438Y-76569523D01*
X162792438Y-76569523D02*
X162744819Y-76474285D01*
X163078152Y-75188571D02*
X163744819Y-75188571D01*
X163078152Y-75617142D02*
X163601961Y-75617142D01*
X163601961Y-75617142D02*
X163697200Y-75569523D01*
X163697200Y-75569523D02*
X163744819Y-75474285D01*
X163744819Y-75474285D02*
X163744819Y-75331428D01*
X163744819Y-75331428D02*
X163697200Y-75236190D01*
X163697200Y-75236190D02*
X163649580Y-75188571D01*
X163078152Y-74855237D02*
X163078152Y-74474285D01*
X162744819Y-74712380D02*
X163601961Y-74712380D01*
X163601961Y-74712380D02*
X163697200Y-74664761D01*
X163697200Y-74664761D02*
X163744819Y-74569523D01*
X163744819Y-74569523D02*
X163744819Y-74474285D01*
X163840057Y-74379047D02*
X163840057Y-73617142D01*
X163221009Y-73045713D02*
X163268628Y-72902856D01*
X163268628Y-72902856D02*
X163316247Y-72855237D01*
X163316247Y-72855237D02*
X163411485Y-72807618D01*
X163411485Y-72807618D02*
X163554342Y-72807618D01*
X163554342Y-72807618D02*
X163649580Y-72855237D01*
X163649580Y-72855237D02*
X163697200Y-72902856D01*
X163697200Y-72902856D02*
X163744819Y-72998094D01*
X163744819Y-72998094D02*
X163744819Y-73379046D01*
X163744819Y-73379046D02*
X162744819Y-73379046D01*
X162744819Y-73379046D02*
X162744819Y-73045713D01*
X162744819Y-73045713D02*
X162792438Y-72950475D01*
X162792438Y-72950475D02*
X162840057Y-72902856D01*
X162840057Y-72902856D02*
X162935295Y-72855237D01*
X162935295Y-72855237D02*
X163030533Y-72855237D01*
X163030533Y-72855237D02*
X163125771Y-72902856D01*
X163125771Y-72902856D02*
X163173390Y-72950475D01*
X163173390Y-72950475D02*
X163221009Y-73045713D01*
X163221009Y-73045713D02*
X163221009Y-73379046D01*
X118048571Y-58954819D02*
X117477143Y-58954819D01*
X117762857Y-58954819D02*
X117762857Y-57954819D01*
X117762857Y-57954819D02*
X117667619Y-58097676D01*
X117667619Y-58097676D02*
X117572381Y-58192914D01*
X117572381Y-58192914D02*
X117477143Y-58240533D01*
X118667619Y-57954819D02*
X118762857Y-57954819D01*
X118762857Y-57954819D02*
X118858095Y-58002438D01*
X118858095Y-58002438D02*
X118905714Y-58050057D01*
X118905714Y-58050057D02*
X118953333Y-58145295D01*
X118953333Y-58145295D02*
X119000952Y-58335771D01*
X119000952Y-58335771D02*
X119000952Y-58573866D01*
X119000952Y-58573866D02*
X118953333Y-58764342D01*
X118953333Y-58764342D02*
X118905714Y-58859580D01*
X118905714Y-58859580D02*
X118858095Y-58907200D01*
X118858095Y-58907200D02*
X118762857Y-58954819D01*
X118762857Y-58954819D02*
X118667619Y-58954819D01*
X118667619Y-58954819D02*
X118572381Y-58907200D01*
X118572381Y-58907200D02*
X118524762Y-58859580D01*
X118524762Y-58859580D02*
X118477143Y-58764342D01*
X118477143Y-58764342D02*
X118429524Y-58573866D01*
X118429524Y-58573866D02*
X118429524Y-58335771D01*
X118429524Y-58335771D02*
X118477143Y-58145295D01*
X118477143Y-58145295D02*
X118524762Y-58050057D01*
X118524762Y-58050057D02*
X118572381Y-58002438D01*
X118572381Y-58002438D02*
X118667619Y-57954819D01*
X119858095Y-58288152D02*
X119858095Y-58954819D01*
X119429524Y-58288152D02*
X119429524Y-58811961D01*
X119429524Y-58811961D02*
X119477143Y-58907200D01*
X119477143Y-58907200D02*
X119572381Y-58954819D01*
X119572381Y-58954819D02*
X119715238Y-58954819D01*
X119715238Y-58954819D02*
X119810476Y-58907200D01*
X119810476Y-58907200D02*
X119858095Y-58859580D01*
X120667619Y-58431009D02*
X120334286Y-58431009D01*
X120334286Y-58954819D02*
X120334286Y-57954819D01*
X120334286Y-57954819D02*
X120810476Y-57954819D01*
X131394819Y-38475238D02*
X131394819Y-39046666D01*
X131394819Y-38760952D02*
X130394819Y-38760952D01*
X130394819Y-38760952D02*
X130537676Y-38856190D01*
X130537676Y-38856190D02*
X130632914Y-38951428D01*
X130632914Y-38951428D02*
X130680533Y-39046666D01*
X130394819Y-37856190D02*
X130394819Y-37760952D01*
X130394819Y-37760952D02*
X130442438Y-37665714D01*
X130442438Y-37665714D02*
X130490057Y-37618095D01*
X130490057Y-37618095D02*
X130585295Y-37570476D01*
X130585295Y-37570476D02*
X130775771Y-37522857D01*
X130775771Y-37522857D02*
X131013866Y-37522857D01*
X131013866Y-37522857D02*
X131204342Y-37570476D01*
X131204342Y-37570476D02*
X131299580Y-37618095D01*
X131299580Y-37618095D02*
X131347200Y-37665714D01*
X131347200Y-37665714D02*
X131394819Y-37760952D01*
X131394819Y-37760952D02*
X131394819Y-37856190D01*
X131394819Y-37856190D02*
X131347200Y-37951428D01*
X131347200Y-37951428D02*
X131299580Y-37999047D01*
X131299580Y-37999047D02*
X131204342Y-38046666D01*
X131204342Y-38046666D02*
X131013866Y-38094285D01*
X131013866Y-38094285D02*
X130775771Y-38094285D01*
X130775771Y-38094285D02*
X130585295Y-38046666D01*
X130585295Y-38046666D02*
X130490057Y-37999047D01*
X130490057Y-37999047D02*
X130442438Y-37951428D01*
X130442438Y-37951428D02*
X130394819Y-37856190D01*
X131394819Y-37094285D02*
X130394819Y-37094285D01*
X131013866Y-36999047D02*
X131394819Y-36713333D01*
X130728152Y-36713333D02*
X131109104Y-37094285D01*
X145468152Y-66074166D02*
X146134819Y-66074166D01*
X145087200Y-66312261D02*
X145801485Y-66550356D01*
X145801485Y-66550356D02*
X145801485Y-65931309D01*
X145134819Y-65645594D02*
X145134819Y-64978928D01*
X145134819Y-64978928D02*
X146134819Y-65407499D01*
X145468152Y-64169404D02*
X146134819Y-64169404D01*
X145468152Y-64597975D02*
X145991961Y-64597975D01*
X145991961Y-64597975D02*
X146087200Y-64550356D01*
X146087200Y-64550356D02*
X146134819Y-64455118D01*
X146134819Y-64455118D02*
X146134819Y-64312261D01*
X146134819Y-64312261D02*
X146087200Y-64217023D01*
X146087200Y-64217023D02*
X146039580Y-64169404D01*
X145611009Y-63359880D02*
X145611009Y-63693213D01*
X146134819Y-63693213D02*
X145134819Y-63693213D01*
X145134819Y-63693213D02*
X145134819Y-63217023D01*
X165316666Y-42152319D02*
X165316666Y-42866604D01*
X165316666Y-42866604D02*
X165269047Y-43009461D01*
X165269047Y-43009461D02*
X165173809Y-43104700D01*
X165173809Y-43104700D02*
X165030952Y-43152319D01*
X165030952Y-43152319D02*
X164935714Y-43152319D01*
X166269047Y-42152319D02*
X165792857Y-42152319D01*
X165792857Y-42152319D02*
X165745238Y-42628509D01*
X165745238Y-42628509D02*
X165792857Y-42580890D01*
X165792857Y-42580890D02*
X165888095Y-42533271D01*
X165888095Y-42533271D02*
X166126190Y-42533271D01*
X166126190Y-42533271D02*
X166221428Y-42580890D01*
X166221428Y-42580890D02*
X166269047Y-42628509D01*
X166269047Y-42628509D02*
X166316666Y-42723747D01*
X166316666Y-42723747D02*
X166316666Y-42961842D01*
X166316666Y-42961842D02*
X166269047Y-43057080D01*
X166269047Y-43057080D02*
X166221428Y-43104700D01*
X166221428Y-43104700D02*
X166126190Y-43152319D01*
X166126190Y-43152319D02*
X165888095Y-43152319D01*
X165888095Y-43152319D02*
X165792857Y-43104700D01*
X165792857Y-43104700D02*
X165745238Y-43057080D01*
D12*
X145434318Y-62259762D02*
X144164318Y-62259762D01*
X145313365Y-60929285D02*
X145373842Y-60989761D01*
X145373842Y-60989761D02*
X145434318Y-61171190D01*
X145434318Y-61171190D02*
X145434318Y-61292142D01*
X145434318Y-61292142D02*
X145373842Y-61473571D01*
X145373842Y-61473571D02*
X145252889Y-61594523D01*
X145252889Y-61594523D02*
X145131937Y-61655000D01*
X145131937Y-61655000D02*
X144890032Y-61715476D01*
X144890032Y-61715476D02*
X144708603Y-61715476D01*
X144708603Y-61715476D02*
X144466699Y-61655000D01*
X144466699Y-61655000D02*
X144345746Y-61594523D01*
X144345746Y-61594523D02*
X144224794Y-61473571D01*
X144224794Y-61473571D02*
X144164318Y-61292142D01*
X144164318Y-61292142D02*
X144164318Y-61171190D01*
X144164318Y-61171190D02*
X144224794Y-60989761D01*
X144224794Y-60989761D02*
X144285270Y-60929285D01*
X145434318Y-59719761D02*
X145434318Y-60445476D01*
X145434318Y-60082619D02*
X144164318Y-60082619D01*
X144164318Y-60082619D02*
X144345746Y-60203571D01*
X144345746Y-60203571D02*
X144466699Y-60324523D01*
X144466699Y-60324523D02*
X144527175Y-60445476D01*
D10*
X117674819Y-76452857D02*
X117674819Y-76262381D01*
X117674819Y-76262381D02*
X117722438Y-76167143D01*
X117722438Y-76167143D02*
X117817676Y-76071905D01*
X117817676Y-76071905D02*
X118008152Y-76024286D01*
X118008152Y-76024286D02*
X118341485Y-76024286D01*
X118341485Y-76024286D02*
X118531961Y-76071905D01*
X118531961Y-76071905D02*
X118627200Y-76167143D01*
X118627200Y-76167143D02*
X118674819Y-76262381D01*
X118674819Y-76262381D02*
X118674819Y-76452857D01*
X118674819Y-76452857D02*
X118627200Y-76548095D01*
X118627200Y-76548095D02*
X118531961Y-76643333D01*
X118531961Y-76643333D02*
X118341485Y-76690952D01*
X118341485Y-76690952D02*
X118008152Y-76690952D01*
X118008152Y-76690952D02*
X117817676Y-76643333D01*
X117817676Y-76643333D02*
X117722438Y-76548095D01*
X117722438Y-76548095D02*
X117674819Y-76452857D01*
X118008152Y-75167143D02*
X118674819Y-75167143D01*
X118008152Y-75595714D02*
X118531961Y-75595714D01*
X118531961Y-75595714D02*
X118627200Y-75548095D01*
X118627200Y-75548095D02*
X118674819Y-75452857D01*
X118674819Y-75452857D02*
X118674819Y-75310000D01*
X118674819Y-75310000D02*
X118627200Y-75214762D01*
X118627200Y-75214762D02*
X118579580Y-75167143D01*
X118008152Y-74833809D02*
X118008152Y-74452857D01*
X117674819Y-74690952D02*
X118531961Y-74690952D01*
X118531961Y-74690952D02*
X118627200Y-74643333D01*
X118627200Y-74643333D02*
X118674819Y-74548095D01*
X118674819Y-74548095D02*
X118674819Y-74452857D01*
X118770057Y-74357619D02*
X118770057Y-73595714D01*
X118389104Y-73405237D02*
X118389104Y-72929047D01*
X118674819Y-73500475D02*
X117674819Y-73167142D01*
X117674819Y-73167142D02*
X118674819Y-72833809D01*
X115186666Y-42064819D02*
X115186666Y-42779104D01*
X115186666Y-42779104D02*
X115139047Y-42921961D01*
X115139047Y-42921961D02*
X115043809Y-43017200D01*
X115043809Y-43017200D02*
X114900952Y-43064819D01*
X114900952Y-43064819D02*
X114805714Y-43064819D01*
X116091428Y-42398152D02*
X116091428Y-43064819D01*
X115853333Y-42017200D02*
X115615238Y-42731485D01*
X115615238Y-42731485D02*
X116234285Y-42731485D01*
D14*
X152359283Y-84060000D02*
X152925950Y-84060000D01*
X152925950Y-84060000D02*
X152992616Y-84026667D01*
X152992616Y-84026667D02*
X153025950Y-83993333D01*
X153025950Y-83993333D02*
X153059283Y-83926667D01*
X153059283Y-83926667D02*
X153059283Y-83793333D01*
X153059283Y-83793333D02*
X153025950Y-83726667D01*
X153025950Y-83726667D02*
X152992616Y-83693333D01*
X152992616Y-83693333D02*
X152925950Y-83660000D01*
X152925950Y-83660000D02*
X152359283Y-83660000D01*
X153025950Y-83360000D02*
X153059283Y-83260000D01*
X153059283Y-83260000D02*
X153059283Y-83093334D01*
X153059283Y-83093334D02*
X153025950Y-83026667D01*
X153025950Y-83026667D02*
X152992616Y-82993334D01*
X152992616Y-82993334D02*
X152925950Y-82960000D01*
X152925950Y-82960000D02*
X152859283Y-82960000D01*
X152859283Y-82960000D02*
X152792616Y-82993334D01*
X152792616Y-82993334D02*
X152759283Y-83026667D01*
X152759283Y-83026667D02*
X152725950Y-83093334D01*
X152725950Y-83093334D02*
X152692616Y-83226667D01*
X152692616Y-83226667D02*
X152659283Y-83293334D01*
X152659283Y-83293334D02*
X152625950Y-83326667D01*
X152625950Y-83326667D02*
X152559283Y-83360000D01*
X152559283Y-83360000D02*
X152492616Y-83360000D01*
X152492616Y-83360000D02*
X152425950Y-83326667D01*
X152425950Y-83326667D02*
X152392616Y-83293334D01*
X152392616Y-83293334D02*
X152359283Y-83226667D01*
X152359283Y-83226667D02*
X152359283Y-83060000D01*
X152359283Y-83060000D02*
X152392616Y-82960000D01*
X152692616Y-82426667D02*
X152725950Y-82326667D01*
X152725950Y-82326667D02*
X152759283Y-82293333D01*
X152759283Y-82293333D02*
X152825950Y-82260000D01*
X152825950Y-82260000D02*
X152925950Y-82260000D01*
X152925950Y-82260000D02*
X152992616Y-82293333D01*
X152992616Y-82293333D02*
X153025950Y-82326667D01*
X153025950Y-82326667D02*
X153059283Y-82393333D01*
X153059283Y-82393333D02*
X153059283Y-82660000D01*
X153059283Y-82660000D02*
X152359283Y-82660000D01*
X152359283Y-82660000D02*
X152359283Y-82426667D01*
X152359283Y-82426667D02*
X152392616Y-82360000D01*
X152392616Y-82360000D02*
X152425950Y-82326667D01*
X152425950Y-82326667D02*
X152492616Y-82293333D01*
X152492616Y-82293333D02*
X152559283Y-82293333D01*
X152559283Y-82293333D02*
X152625950Y-82326667D01*
X152625950Y-82326667D02*
X152659283Y-82360000D01*
X152659283Y-82360000D02*
X152692616Y-82426667D01*
X152692616Y-82426667D02*
X152692616Y-82660000D01*
X152992616Y-81560000D02*
X153025950Y-81593333D01*
X153025950Y-81593333D02*
X153059283Y-81693333D01*
X153059283Y-81693333D02*
X153059283Y-81760000D01*
X153059283Y-81760000D02*
X153025950Y-81860000D01*
X153025950Y-81860000D02*
X152959283Y-81926667D01*
X152959283Y-81926667D02*
X152892616Y-81960000D01*
X152892616Y-81960000D02*
X152759283Y-81993333D01*
X152759283Y-81993333D02*
X152659283Y-81993333D01*
X152659283Y-81993333D02*
X152525950Y-81960000D01*
X152525950Y-81960000D02*
X152459283Y-81926667D01*
X152459283Y-81926667D02*
X152392616Y-81860000D01*
X152392616Y-81860000D02*
X152359283Y-81760000D01*
X152359283Y-81760000D02*
X152359283Y-81693333D01*
X152359283Y-81693333D02*
X152392616Y-81593333D01*
X152392616Y-81593333D02*
X152425950Y-81560000D01*
X152425950Y-81293333D02*
X152392616Y-81260000D01*
X152392616Y-81260000D02*
X152359283Y-81193333D01*
X152359283Y-81193333D02*
X152359283Y-81026667D01*
X152359283Y-81026667D02*
X152392616Y-80960000D01*
X152392616Y-80960000D02*
X152425950Y-80926667D01*
X152425950Y-80926667D02*
X152492616Y-80893333D01*
X152492616Y-80893333D02*
X152559283Y-80893333D01*
X152559283Y-80893333D02*
X152659283Y-80926667D01*
X152659283Y-80926667D02*
X153059283Y-81326667D01*
X153059283Y-81326667D02*
X153059283Y-80893333D01*
X152992616Y-80593333D02*
X153025950Y-80560000D01*
X153025950Y-80560000D02*
X153059283Y-80593333D01*
X153059283Y-80593333D02*
X153025950Y-80626666D01*
X153025950Y-80626666D02*
X152992616Y-80593333D01*
X152992616Y-80593333D02*
X153059283Y-80593333D01*
X152359283Y-80126667D02*
X152359283Y-80060000D01*
X152359283Y-80060000D02*
X152392616Y-79993333D01*
X152392616Y-79993333D02*
X152425950Y-79960000D01*
X152425950Y-79960000D02*
X152492616Y-79926667D01*
X152492616Y-79926667D02*
X152625950Y-79893333D01*
X152625950Y-79893333D02*
X152792616Y-79893333D01*
X152792616Y-79893333D02*
X152925950Y-79926667D01*
X152925950Y-79926667D02*
X152992616Y-79960000D01*
X152992616Y-79960000D02*
X153025950Y-79993333D01*
X153025950Y-79993333D02*
X153059283Y-80060000D01*
X153059283Y-80060000D02*
X153059283Y-80126667D01*
X153059283Y-80126667D02*
X153025950Y-80193333D01*
X153025950Y-80193333D02*
X152992616Y-80226667D01*
X152992616Y-80226667D02*
X152925950Y-80260000D01*
X152925950Y-80260000D02*
X152792616Y-80293333D01*
X152792616Y-80293333D02*
X152625950Y-80293333D01*
X152625950Y-80293333D02*
X152492616Y-80260000D01*
X152492616Y-80260000D02*
X152425950Y-80226667D01*
X152425950Y-80226667D02*
X152392616Y-80193333D01*
X152392616Y-80193333D02*
X152359283Y-80126667D01*
X153125950Y-79760000D02*
X153125950Y-79226666D01*
X153059283Y-78693333D02*
X153059283Y-79093333D01*
X153059283Y-78893333D02*
X152359283Y-78893333D01*
X152359283Y-78893333D02*
X152459283Y-78960000D01*
X152459283Y-78960000D02*
X152525950Y-79026667D01*
X152525950Y-79026667D02*
X152559283Y-79093333D01*
X152359283Y-78093333D02*
X152359283Y-78226666D01*
X152359283Y-78226666D02*
X152392616Y-78293333D01*
X152392616Y-78293333D02*
X152425950Y-78326666D01*
X152425950Y-78326666D02*
X152525950Y-78393333D01*
X152525950Y-78393333D02*
X152659283Y-78426666D01*
X152659283Y-78426666D02*
X152925950Y-78426666D01*
X152925950Y-78426666D02*
X152992616Y-78393333D01*
X152992616Y-78393333D02*
X153025950Y-78360000D01*
X153025950Y-78360000D02*
X153059283Y-78293333D01*
X153059283Y-78293333D02*
X153059283Y-78160000D01*
X153059283Y-78160000D02*
X153025950Y-78093333D01*
X153025950Y-78093333D02*
X152992616Y-78060000D01*
X152992616Y-78060000D02*
X152925950Y-78026666D01*
X152925950Y-78026666D02*
X152759283Y-78026666D01*
X152759283Y-78026666D02*
X152692616Y-78060000D01*
X152692616Y-78060000D02*
X152659283Y-78093333D01*
X152659283Y-78093333D02*
X152625950Y-78160000D01*
X152625950Y-78160000D02*
X152625950Y-78293333D01*
X152625950Y-78293333D02*
X152659283Y-78360000D01*
X152659283Y-78360000D02*
X152692616Y-78393333D01*
X152692616Y-78393333D02*
X152759283Y-78426666D01*
X153059283Y-77726666D02*
X152359283Y-77726666D01*
X152359283Y-77726666D02*
X152359283Y-77459999D01*
X152359283Y-77459999D02*
X152392616Y-77393333D01*
X152392616Y-77393333D02*
X152425950Y-77359999D01*
X152425950Y-77359999D02*
X152492616Y-77326666D01*
X152492616Y-77326666D02*
X152592616Y-77326666D01*
X152592616Y-77326666D02*
X152659283Y-77359999D01*
X152659283Y-77359999D02*
X152692616Y-77393333D01*
X152692616Y-77393333D02*
X152725950Y-77459999D01*
X152725950Y-77459999D02*
X152725950Y-77726666D01*
D12*
X118018332Y-51304318D02*
X117413570Y-51304318D01*
X117413570Y-51304318D02*
X117413570Y-50034318D01*
X118441665Y-51304318D02*
X118441665Y-50034318D01*
X118441665Y-50034318D02*
X118864999Y-50941461D01*
X118864999Y-50941461D02*
X119288332Y-50034318D01*
X119288332Y-50034318D02*
X119288332Y-51304318D01*
X120558333Y-51304318D02*
X119832618Y-51304318D01*
X120195475Y-51304318D02*
X120195475Y-50034318D01*
X120195475Y-50034318D02*
X120074523Y-50215746D01*
X120074523Y-50215746D02*
X119953571Y-50336699D01*
X119953571Y-50336699D02*
X119832618Y-50397175D01*
X121767857Y-51304318D02*
X121042142Y-51304318D01*
X121404999Y-51304318D02*
X121404999Y-50034318D01*
X121404999Y-50034318D02*
X121284047Y-50215746D01*
X121284047Y-50215746D02*
X121163095Y-50336699D01*
X121163095Y-50336699D02*
X121042142Y-50397175D01*
X122977381Y-51304318D02*
X122251666Y-51304318D01*
X122614523Y-51304318D02*
X122614523Y-50034318D01*
X122614523Y-50034318D02*
X122493571Y-50215746D01*
X122493571Y-50215746D02*
X122372619Y-50336699D01*
X122372619Y-50336699D02*
X122251666Y-50397175D01*
X123400714Y-50034318D02*
X124247381Y-50034318D01*
X124247381Y-50034318D02*
X123703095Y-51304318D01*
D10*
X128552142Y-52884819D02*
X128075952Y-52884819D01*
X128075952Y-52884819D02*
X128075952Y-51884819D01*
X128885476Y-52361009D02*
X129218809Y-52361009D01*
X129361666Y-52884819D02*
X128885476Y-52884819D01*
X128885476Y-52884819D02*
X128885476Y-51884819D01*
X128885476Y-51884819D02*
X129361666Y-51884819D01*
X129790238Y-52884819D02*
X129790238Y-51884819D01*
X129790238Y-51884819D02*
X130028333Y-51884819D01*
X130028333Y-51884819D02*
X130171190Y-51932438D01*
X130171190Y-51932438D02*
X130266428Y-52027676D01*
X130266428Y-52027676D02*
X130314047Y-52122914D01*
X130314047Y-52122914D02*
X130361666Y-52313390D01*
X130361666Y-52313390D02*
X130361666Y-52456247D01*
X130361666Y-52456247D02*
X130314047Y-52646723D01*
X130314047Y-52646723D02*
X130266428Y-52741961D01*
X130266428Y-52741961D02*
X130171190Y-52837200D01*
X130171190Y-52837200D02*
X130028333Y-52884819D01*
X130028333Y-52884819D02*
X129790238Y-52884819D01*
X117479643Y-51844819D02*
X117574881Y-51844819D01*
X117574881Y-51844819D02*
X117670119Y-51892438D01*
X117670119Y-51892438D02*
X117717738Y-51940057D01*
X117717738Y-51940057D02*
X117765357Y-52035295D01*
X117765357Y-52035295D02*
X117812976Y-52225771D01*
X117812976Y-52225771D02*
X117812976Y-52463866D01*
X117812976Y-52463866D02*
X117765357Y-52654342D01*
X117765357Y-52654342D02*
X117717738Y-52749580D01*
X117717738Y-52749580D02*
X117670119Y-52797200D01*
X117670119Y-52797200D02*
X117574881Y-52844819D01*
X117574881Y-52844819D02*
X117479643Y-52844819D01*
X117479643Y-52844819D02*
X117384405Y-52797200D01*
X117384405Y-52797200D02*
X117336786Y-52749580D01*
X117336786Y-52749580D02*
X117289167Y-52654342D01*
X117289167Y-52654342D02*
X117241548Y-52463866D01*
X117241548Y-52463866D02*
X117241548Y-52225771D01*
X117241548Y-52225771D02*
X117289167Y-52035295D01*
X117289167Y-52035295D02*
X117336786Y-51940057D01*
X117336786Y-51940057D02*
X117384405Y-51892438D01*
X117384405Y-51892438D02*
X117479643Y-51844819D01*
X118241548Y-52749580D02*
X118289167Y-52797200D01*
X118289167Y-52797200D02*
X118241548Y-52844819D01*
X118241548Y-52844819D02*
X118193929Y-52797200D01*
X118193929Y-52797200D02*
X118241548Y-52749580D01*
X118241548Y-52749580D02*
X118241548Y-52844819D01*
X119241547Y-52844819D02*
X118670119Y-52844819D01*
X118955833Y-52844819D02*
X118955833Y-51844819D01*
X118955833Y-51844819D02*
X118860595Y-51987676D01*
X118860595Y-51987676D02*
X118765357Y-52082914D01*
X118765357Y-52082914D02*
X118670119Y-52130533D01*
X120098690Y-52178152D02*
X120098690Y-52844819D01*
X119670119Y-52178152D02*
X119670119Y-52701961D01*
X119670119Y-52701961D02*
X119717738Y-52797200D01*
X119717738Y-52797200D02*
X119812976Y-52844819D01*
X119812976Y-52844819D02*
X119955833Y-52844819D01*
X119955833Y-52844819D02*
X120051071Y-52797200D01*
X120051071Y-52797200D02*
X120098690Y-52749580D01*
X120908214Y-52321009D02*
X120574881Y-52321009D01*
X120574881Y-52844819D02*
X120574881Y-51844819D01*
X120574881Y-51844819D02*
X121051071Y-51844819D01*
X112536666Y-56344819D02*
X112536666Y-57059104D01*
X112536666Y-57059104D02*
X112489047Y-57201961D01*
X112489047Y-57201961D02*
X112393809Y-57297200D01*
X112393809Y-57297200D02*
X112250952Y-57344819D01*
X112250952Y-57344819D02*
X112155714Y-57344819D01*
X112917619Y-56344819D02*
X113584285Y-56344819D01*
X113584285Y-56344819D02*
X113155714Y-57344819D01*
X141507142Y-71944819D02*
X141030952Y-71944819D01*
X141030952Y-71944819D02*
X140983333Y-72421009D01*
X140983333Y-72421009D02*
X141030952Y-72373390D01*
X141030952Y-72373390D02*
X141126190Y-72325771D01*
X141126190Y-72325771D02*
X141364285Y-72325771D01*
X141364285Y-72325771D02*
X141459523Y-72373390D01*
X141459523Y-72373390D02*
X141507142Y-72421009D01*
X141507142Y-72421009D02*
X141554761Y-72516247D01*
X141554761Y-72516247D02*
X141554761Y-72754342D01*
X141554761Y-72754342D02*
X141507142Y-72849580D01*
X141507142Y-72849580D02*
X141459523Y-72897200D01*
X141459523Y-72897200D02*
X141364285Y-72944819D01*
X141364285Y-72944819D02*
X141126190Y-72944819D01*
X141126190Y-72944819D02*
X141030952Y-72897200D01*
X141030952Y-72897200D02*
X140983333Y-72849580D01*
X141983333Y-72944819D02*
X141983333Y-71944819D01*
X142078571Y-72563866D02*
X142364285Y-72944819D01*
X142364285Y-72278152D02*
X141983333Y-72659104D01*
X143316666Y-72944819D02*
X142745238Y-72944819D01*
X143030952Y-72944819D02*
X143030952Y-71944819D01*
X143030952Y-71944819D02*
X142935714Y-72087676D01*
X142935714Y-72087676D02*
X142840476Y-72182914D01*
X142840476Y-72182914D02*
X142745238Y-72230533D01*
D12*
X158684318Y-63419762D02*
X157414318Y-63419762D01*
X158563365Y-62089285D02*
X158623842Y-62149761D01*
X158623842Y-62149761D02*
X158684318Y-62331190D01*
X158684318Y-62331190D02*
X158684318Y-62452142D01*
X158684318Y-62452142D02*
X158623842Y-62633571D01*
X158623842Y-62633571D02*
X158502889Y-62754523D01*
X158502889Y-62754523D02*
X158381937Y-62815000D01*
X158381937Y-62815000D02*
X158140032Y-62875476D01*
X158140032Y-62875476D02*
X157958603Y-62875476D01*
X157958603Y-62875476D02*
X157716699Y-62815000D01*
X157716699Y-62815000D02*
X157595746Y-62754523D01*
X157595746Y-62754523D02*
X157474794Y-62633571D01*
X157474794Y-62633571D02*
X157414318Y-62452142D01*
X157414318Y-62452142D02*
X157414318Y-62331190D01*
X157414318Y-62331190D02*
X157474794Y-62149761D01*
X157474794Y-62149761D02*
X157535270Y-62089285D01*
X157535270Y-61605476D02*
X157474794Y-61545000D01*
X157474794Y-61545000D02*
X157414318Y-61424047D01*
X157414318Y-61424047D02*
X157414318Y-61121666D01*
X157414318Y-61121666D02*
X157474794Y-61000714D01*
X157474794Y-61000714D02*
X157535270Y-60940238D01*
X157535270Y-60940238D02*
X157656222Y-60879761D01*
X157656222Y-60879761D02*
X157777175Y-60879761D01*
X157777175Y-60879761D02*
X157958603Y-60940238D01*
X157958603Y-60940238D02*
X158684318Y-61665952D01*
X158684318Y-61665952D02*
X158684318Y-60879761D01*
D10*
X131954819Y-66704104D02*
X131954819Y-66608866D01*
X131954819Y-66608866D02*
X132002438Y-66513628D01*
X132002438Y-66513628D02*
X132050057Y-66466009D01*
X132050057Y-66466009D02*
X132145295Y-66418390D01*
X132145295Y-66418390D02*
X132335771Y-66370771D01*
X132335771Y-66370771D02*
X132573866Y-66370771D01*
X132573866Y-66370771D02*
X132764342Y-66418390D01*
X132764342Y-66418390D02*
X132859580Y-66466009D01*
X132859580Y-66466009D02*
X132907200Y-66513628D01*
X132907200Y-66513628D02*
X132954819Y-66608866D01*
X132954819Y-66608866D02*
X132954819Y-66704104D01*
X132954819Y-66704104D02*
X132907200Y-66799342D01*
X132907200Y-66799342D02*
X132859580Y-66846961D01*
X132859580Y-66846961D02*
X132764342Y-66894580D01*
X132764342Y-66894580D02*
X132573866Y-66942199D01*
X132573866Y-66942199D02*
X132335771Y-66942199D01*
X132335771Y-66942199D02*
X132145295Y-66894580D01*
X132145295Y-66894580D02*
X132050057Y-66846961D01*
X132050057Y-66846961D02*
X132002438Y-66799342D01*
X132002438Y-66799342D02*
X131954819Y-66704104D01*
X132859580Y-65942199D02*
X132907200Y-65894580D01*
X132907200Y-65894580D02*
X132954819Y-65942199D01*
X132954819Y-65942199D02*
X132907200Y-65989818D01*
X132907200Y-65989818D02*
X132859580Y-65942199D01*
X132859580Y-65942199D02*
X132954819Y-65942199D01*
X132954819Y-64942200D02*
X132954819Y-65513628D01*
X132954819Y-65227914D02*
X131954819Y-65227914D01*
X131954819Y-65227914D02*
X132097676Y-65323152D01*
X132097676Y-65323152D02*
X132192914Y-65418390D01*
X132192914Y-65418390D02*
X132240533Y-65513628D01*
X132288152Y-64085057D02*
X132954819Y-64085057D01*
X132288152Y-64513628D02*
X132811961Y-64513628D01*
X132811961Y-64513628D02*
X132907200Y-64466009D01*
X132907200Y-64466009D02*
X132954819Y-64370771D01*
X132954819Y-64370771D02*
X132954819Y-64227914D01*
X132954819Y-64227914D02*
X132907200Y-64132676D01*
X132907200Y-64132676D02*
X132859580Y-64085057D01*
X132431009Y-63275533D02*
X132431009Y-63608866D01*
X132954819Y-63608866D02*
X131954819Y-63608866D01*
X131954819Y-63608866D02*
X131954819Y-63132676D01*
X123084819Y-39492856D02*
X123084819Y-39397618D01*
X123084819Y-39397618D02*
X123132438Y-39302380D01*
X123132438Y-39302380D02*
X123180057Y-39254761D01*
X123180057Y-39254761D02*
X123275295Y-39207142D01*
X123275295Y-39207142D02*
X123465771Y-39159523D01*
X123465771Y-39159523D02*
X123703866Y-39159523D01*
X123703866Y-39159523D02*
X123894342Y-39207142D01*
X123894342Y-39207142D02*
X123989580Y-39254761D01*
X123989580Y-39254761D02*
X124037200Y-39302380D01*
X124037200Y-39302380D02*
X124084819Y-39397618D01*
X124084819Y-39397618D02*
X124084819Y-39492856D01*
X124084819Y-39492856D02*
X124037200Y-39588094D01*
X124037200Y-39588094D02*
X123989580Y-39635713D01*
X123989580Y-39635713D02*
X123894342Y-39683332D01*
X123894342Y-39683332D02*
X123703866Y-39730951D01*
X123703866Y-39730951D02*
X123465771Y-39730951D01*
X123465771Y-39730951D02*
X123275295Y-39683332D01*
X123275295Y-39683332D02*
X123180057Y-39635713D01*
X123180057Y-39635713D02*
X123132438Y-39588094D01*
X123132438Y-39588094D02*
X123084819Y-39492856D01*
X123989580Y-38730951D02*
X124037200Y-38683332D01*
X124037200Y-38683332D02*
X124084819Y-38730951D01*
X124084819Y-38730951D02*
X124037200Y-38778570D01*
X124037200Y-38778570D02*
X123989580Y-38730951D01*
X123989580Y-38730951D02*
X124084819Y-38730951D01*
X124084819Y-37730952D02*
X124084819Y-38302380D01*
X124084819Y-38016666D02*
X123084819Y-38016666D01*
X123084819Y-38016666D02*
X123227676Y-38111904D01*
X123227676Y-38111904D02*
X123322914Y-38207142D01*
X123322914Y-38207142D02*
X123370533Y-38302380D01*
X123418152Y-36873809D02*
X124084819Y-36873809D01*
X123418152Y-37302380D02*
X123941961Y-37302380D01*
X123941961Y-37302380D02*
X124037200Y-37254761D01*
X124037200Y-37254761D02*
X124084819Y-37159523D01*
X124084819Y-37159523D02*
X124084819Y-37016666D01*
X124084819Y-37016666D02*
X124037200Y-36921428D01*
X124037200Y-36921428D02*
X123989580Y-36873809D01*
X123561009Y-36064285D02*
X123561009Y-36397618D01*
X124084819Y-36397618D02*
X123084819Y-36397618D01*
X123084819Y-36397618D02*
X123084819Y-35921428D01*
X126111071Y-47134819D02*
X125539643Y-47134819D01*
X125825357Y-47134819D02*
X125825357Y-46134819D01*
X125825357Y-46134819D02*
X125730119Y-46277676D01*
X125730119Y-46277676D02*
X125634881Y-46372914D01*
X125634881Y-46372914D02*
X125539643Y-46420533D01*
X126730119Y-46134819D02*
X126825357Y-46134819D01*
X126825357Y-46134819D02*
X126920595Y-46182438D01*
X126920595Y-46182438D02*
X126968214Y-46230057D01*
X126968214Y-46230057D02*
X127015833Y-46325295D01*
X127015833Y-46325295D02*
X127063452Y-46515771D01*
X127063452Y-46515771D02*
X127063452Y-46753866D01*
X127063452Y-46753866D02*
X127015833Y-46944342D01*
X127015833Y-46944342D02*
X126968214Y-47039580D01*
X126968214Y-47039580D02*
X126920595Y-47087200D01*
X126920595Y-47087200D02*
X126825357Y-47134819D01*
X126825357Y-47134819D02*
X126730119Y-47134819D01*
X126730119Y-47134819D02*
X126634881Y-47087200D01*
X126634881Y-47087200D02*
X126587262Y-47039580D01*
X126587262Y-47039580D02*
X126539643Y-46944342D01*
X126539643Y-46944342D02*
X126492024Y-46753866D01*
X126492024Y-46753866D02*
X126492024Y-46515771D01*
X126492024Y-46515771D02*
X126539643Y-46325295D01*
X126539643Y-46325295D02*
X126587262Y-46230057D01*
X126587262Y-46230057D02*
X126634881Y-46182438D01*
X126634881Y-46182438D02*
X126730119Y-46134819D01*
X127920595Y-46468152D02*
X127920595Y-47134819D01*
X127492024Y-46468152D02*
X127492024Y-46991961D01*
X127492024Y-46991961D02*
X127539643Y-47087200D01*
X127539643Y-47087200D02*
X127634881Y-47134819D01*
X127634881Y-47134819D02*
X127777738Y-47134819D01*
X127777738Y-47134819D02*
X127872976Y-47087200D01*
X127872976Y-47087200D02*
X127920595Y-47039580D01*
X128730119Y-46611009D02*
X128396786Y-46611009D01*
X128396786Y-47134819D02*
X128396786Y-46134819D01*
X128396786Y-46134819D02*
X128872976Y-46134819D01*
X151334819Y-61856761D02*
X151334819Y-62428189D01*
X151334819Y-62142475D02*
X150334819Y-62142475D01*
X150334819Y-62142475D02*
X150477676Y-62237713D01*
X150477676Y-62237713D02*
X150572914Y-62332951D01*
X150572914Y-62332951D02*
X150620533Y-62428189D01*
X150668152Y-60999618D02*
X151334819Y-60999618D01*
X150287200Y-61237713D02*
X151001485Y-61475808D01*
X151001485Y-61475808D02*
X151001485Y-60856761D01*
X151239580Y-60475808D02*
X151287200Y-60428189D01*
X151287200Y-60428189D02*
X151334819Y-60475808D01*
X151334819Y-60475808D02*
X151287200Y-60523427D01*
X151287200Y-60523427D02*
X151239580Y-60475808D01*
X151239580Y-60475808D02*
X151334819Y-60475808D01*
X150763390Y-59856761D02*
X150715771Y-59951999D01*
X150715771Y-59951999D02*
X150668152Y-59999618D01*
X150668152Y-59999618D02*
X150572914Y-60047237D01*
X150572914Y-60047237D02*
X150525295Y-60047237D01*
X150525295Y-60047237D02*
X150430057Y-59999618D01*
X150430057Y-59999618D02*
X150382438Y-59951999D01*
X150382438Y-59951999D02*
X150334819Y-59856761D01*
X150334819Y-59856761D02*
X150334819Y-59666285D01*
X150334819Y-59666285D02*
X150382438Y-59571047D01*
X150382438Y-59571047D02*
X150430057Y-59523428D01*
X150430057Y-59523428D02*
X150525295Y-59475809D01*
X150525295Y-59475809D02*
X150572914Y-59475809D01*
X150572914Y-59475809D02*
X150668152Y-59523428D01*
X150668152Y-59523428D02*
X150715771Y-59571047D01*
X150715771Y-59571047D02*
X150763390Y-59666285D01*
X150763390Y-59666285D02*
X150763390Y-59856761D01*
X150763390Y-59856761D02*
X150811009Y-59951999D01*
X150811009Y-59951999D02*
X150858628Y-59999618D01*
X150858628Y-59999618D02*
X150953866Y-60047237D01*
X150953866Y-60047237D02*
X151144342Y-60047237D01*
X151144342Y-60047237D02*
X151239580Y-59999618D01*
X151239580Y-59999618D02*
X151287200Y-59951999D01*
X151287200Y-59951999D02*
X151334819Y-59856761D01*
X151334819Y-59856761D02*
X151334819Y-59666285D01*
X151334819Y-59666285D02*
X151287200Y-59571047D01*
X151287200Y-59571047D02*
X151239580Y-59523428D01*
X151239580Y-59523428D02*
X151144342Y-59475809D01*
X151144342Y-59475809D02*
X150953866Y-59475809D01*
X150953866Y-59475809D02*
X150858628Y-59523428D01*
X150858628Y-59523428D02*
X150811009Y-59571047D01*
X150811009Y-59571047D02*
X150763390Y-59666285D01*
X151334819Y-59047237D02*
X150334819Y-59047237D01*
X151334819Y-58475809D02*
X150763390Y-58904380D01*
X150334819Y-58475809D02*
X150906247Y-59047237D01*
X125143809Y-80504819D02*
X125143809Y-79504819D01*
X125143809Y-79504819D02*
X125524761Y-79504819D01*
X125524761Y-79504819D02*
X125619999Y-79552438D01*
X125619999Y-79552438D02*
X125667618Y-79600057D01*
X125667618Y-79600057D02*
X125715237Y-79695295D01*
X125715237Y-79695295D02*
X125715237Y-79838152D01*
X125715237Y-79838152D02*
X125667618Y-79933390D01*
X125667618Y-79933390D02*
X125619999Y-79981009D01*
X125619999Y-79981009D02*
X125524761Y-80028628D01*
X125524761Y-80028628D02*
X125143809Y-80028628D01*
X126286666Y-80504819D02*
X126191428Y-80457200D01*
X126191428Y-80457200D02*
X126143809Y-80409580D01*
X126143809Y-80409580D02*
X126096190Y-80314342D01*
X126096190Y-80314342D02*
X126096190Y-80028628D01*
X126096190Y-80028628D02*
X126143809Y-79933390D01*
X126143809Y-79933390D02*
X126191428Y-79885771D01*
X126191428Y-79885771D02*
X126286666Y-79838152D01*
X126286666Y-79838152D02*
X126429523Y-79838152D01*
X126429523Y-79838152D02*
X126524761Y-79885771D01*
X126524761Y-79885771D02*
X126572380Y-79933390D01*
X126572380Y-79933390D02*
X126619999Y-80028628D01*
X126619999Y-80028628D02*
X126619999Y-80314342D01*
X126619999Y-80314342D02*
X126572380Y-80409580D01*
X126572380Y-80409580D02*
X126524761Y-80457200D01*
X126524761Y-80457200D02*
X126429523Y-80504819D01*
X126429523Y-80504819D02*
X126286666Y-80504819D01*
X126953333Y-79838152D02*
X127143809Y-80504819D01*
X127143809Y-80504819D02*
X127334285Y-80028628D01*
X127334285Y-80028628D02*
X127524761Y-80504819D01*
X127524761Y-80504819D02*
X127715237Y-79838152D01*
X128477142Y-80457200D02*
X128381904Y-80504819D01*
X128381904Y-80504819D02*
X128191428Y-80504819D01*
X128191428Y-80504819D02*
X128096190Y-80457200D01*
X128096190Y-80457200D02*
X128048571Y-80361961D01*
X128048571Y-80361961D02*
X128048571Y-79981009D01*
X128048571Y-79981009D02*
X128096190Y-79885771D01*
X128096190Y-79885771D02*
X128191428Y-79838152D01*
X128191428Y-79838152D02*
X128381904Y-79838152D01*
X128381904Y-79838152D02*
X128477142Y-79885771D01*
X128477142Y-79885771D02*
X128524761Y-79981009D01*
X128524761Y-79981009D02*
X128524761Y-80076247D01*
X128524761Y-80076247D02*
X128048571Y-80171485D01*
X128953333Y-80504819D02*
X128953333Y-79838152D01*
X128953333Y-80028628D02*
X129000952Y-79933390D01*
X129000952Y-79933390D02*
X129048571Y-79885771D01*
X129048571Y-79885771D02*
X129143809Y-79838152D01*
X129143809Y-79838152D02*
X129239047Y-79838152D01*
D12*
X162513842Y-52777619D02*
X162574318Y-52596190D01*
X162574318Y-52596190D02*
X162574318Y-52293809D01*
X162574318Y-52293809D02*
X162513842Y-52172857D01*
X162513842Y-52172857D02*
X162453365Y-52112381D01*
X162453365Y-52112381D02*
X162332413Y-52051904D01*
X162332413Y-52051904D02*
X162211461Y-52051904D01*
X162211461Y-52051904D02*
X162090508Y-52112381D01*
X162090508Y-52112381D02*
X162030032Y-52172857D01*
X162030032Y-52172857D02*
X161969556Y-52293809D01*
X161969556Y-52293809D02*
X161909080Y-52535714D01*
X161909080Y-52535714D02*
X161848603Y-52656666D01*
X161848603Y-52656666D02*
X161788127Y-52717143D01*
X161788127Y-52717143D02*
X161667175Y-52777619D01*
X161667175Y-52777619D02*
X161546222Y-52777619D01*
X161546222Y-52777619D02*
X161425270Y-52717143D01*
X161425270Y-52717143D02*
X161364794Y-52656666D01*
X161364794Y-52656666D02*
X161304318Y-52535714D01*
X161304318Y-52535714D02*
X161304318Y-52233333D01*
X161304318Y-52233333D02*
X161364794Y-52051904D01*
X161425270Y-51568095D02*
X161364794Y-51507619D01*
X161364794Y-51507619D02*
X161304318Y-51386666D01*
X161304318Y-51386666D02*
X161304318Y-51084285D01*
X161304318Y-51084285D02*
X161364794Y-50963333D01*
X161364794Y-50963333D02*
X161425270Y-50902857D01*
X161425270Y-50902857D02*
X161546222Y-50842380D01*
X161546222Y-50842380D02*
X161667175Y-50842380D01*
X161667175Y-50842380D02*
X161848603Y-50902857D01*
X161848603Y-50902857D02*
X162574318Y-51628571D01*
X162574318Y-51628571D02*
X162574318Y-50842380D01*
D15*
%TO.C,R7*%
X124362936Y-53345000D02*
X124817064Y-53345000D01*
X124362936Y-54815000D02*
X124817064Y-54815000D01*
%TO.C,R6*%
X151312936Y-73505000D02*
X151767064Y-73505000D01*
X151312936Y-74975000D02*
X151767064Y-74975000D01*
%TO.C,C10*%
X131445000Y-43808752D02*
X131445000Y-43286248D01*
X132915000Y-43808752D02*
X132915000Y-43286248D01*
%TO.C,C2*%
X136305000Y-65568752D02*
X136305000Y-65046248D01*
X137775000Y-65568752D02*
X137775000Y-65046248D01*
D16*
%TO.C,IC3*%
X136380000Y-37980000D02*
X136380000Y-37980000D01*
X136480000Y-37980000D02*
X136480000Y-37980000D01*
D17*
X137480000Y-36790000D02*
X155480000Y-36790000D01*
X137480000Y-37190000D02*
X137480000Y-36790000D01*
X137480000Y-55190000D02*
X137480000Y-55990000D01*
X137480000Y-55990000D02*
X138680000Y-55990000D01*
X154280000Y-55990000D02*
X155480000Y-55990000D01*
X155480000Y-36790000D02*
X155480000Y-37190000D01*
X155480000Y-55990000D02*
X155480000Y-55190000D01*
D16*
X136380000Y-37980000D02*
G75*
G02*
X136480000Y-37980000I50000J0D01*
G01*
X136480000Y-37980000D02*
G75*
G02*
X136380000Y-37980000I-50000J0D01*
G01*
D15*
%TO.C,C3*%
X117425000Y-38101252D02*
X117425000Y-37578748D01*
X118895000Y-38101252D02*
X118895000Y-37578748D01*
D17*
%TO.C,S1*%
X160150000Y-38520000D02*
X161000000Y-38520000D01*
X160150000Y-42570000D02*
X160150000Y-38520000D01*
X160150000Y-44620000D02*
X160150000Y-44270000D01*
X161000000Y-44620000D02*
X160150000Y-44620000D01*
D16*
X162000000Y-45470000D02*
X162000000Y-45470000D01*
X162000000Y-45570000D02*
X162000000Y-45570000D01*
D17*
X163850000Y-38520000D02*
X163000000Y-38520000D01*
X163850000Y-38870000D02*
X163850000Y-38520000D01*
X163850000Y-40570000D02*
X163850000Y-44620000D01*
X163850000Y-44620000D02*
X163000000Y-44620000D01*
D16*
X162000000Y-45470000D02*
G75*
G02*
X162000000Y-45570000I0J-50000D01*
G01*
X162000000Y-45570000D02*
G75*
G02*
X162000000Y-45470000I0J50000D01*
G01*
D15*
%TO.C,C5*%
X124915000Y-38101252D02*
X124915000Y-37578748D01*
X126385000Y-38101252D02*
X126385000Y-37578748D01*
%TO.C,C9*%
X126951248Y-48055000D02*
X127473752Y-48055000D01*
X126951248Y-49525000D02*
X127473752Y-49525000D01*
%TO.C,C13*%
X161228748Y-56885000D02*
X161751252Y-56885000D01*
X161228748Y-58355000D02*
X161751252Y-58355000D01*
%TO.C,R1*%
X136265000Y-60802936D02*
X136265000Y-61257064D01*
X137735000Y-60802936D02*
X137735000Y-61257064D01*
%TO.C,C6*%
X149650000Y-65173752D02*
X149650000Y-64651248D01*
X151120000Y-65173752D02*
X151120000Y-64651248D01*
%TO.C,R3*%
X127092936Y-40605000D02*
X127547064Y-40605000D01*
X127092936Y-42075000D02*
X127547064Y-42075000D01*
%TO.C,U1*%
X145000000Y-72632500D02*
X145050000Y-72632500D01*
X145000000Y-74452500D02*
X145000000Y-72632500D01*
X145050000Y-74452500D02*
X145000000Y-74452500D01*
X148070000Y-72632500D02*
X148120000Y-72632500D01*
X148120000Y-72632500D02*
X148120000Y-74452500D01*
X148120000Y-74452500D02*
X148070000Y-74452500D01*
X145050000Y-74992500D02*
X144720000Y-75232500D01*
X144720000Y-74752500D01*
X145050000Y-74992500D01*
G36*
X145050000Y-74992500D02*
G01*
X144720000Y-75232500D01*
X144720000Y-74752500D01*
X145050000Y-74992500D01*
G37*
%TO.C,J3*%
X167290000Y-57910000D02*
X168670000Y-57910000D01*
X167290000Y-59290000D02*
X167290000Y-57910000D01*
X167290000Y-60560000D02*
X167290000Y-63210000D01*
X167290000Y-60560000D02*
X170050000Y-60560000D01*
X167290000Y-63210000D02*
X170050000Y-63210000D01*
X170050000Y-60560000D02*
X170050000Y-63210000D01*
%TO.C,J6*%
X164720000Y-77360000D02*
X164720000Y-78610000D01*
X164720000Y-78610000D02*
X165970000Y-78610000D01*
X167270000Y-70710000D02*
X167270000Y-71460000D01*
X167270000Y-71460000D02*
X170220000Y-71460000D01*
X167270000Y-77560000D02*
X170220000Y-77560000D01*
X167270000Y-78310000D02*
X167270000Y-77560000D01*
X170220000Y-71460000D02*
X170220000Y-74510000D01*
X170220000Y-77560000D02*
X170220000Y-74510000D01*
X165010000Y-78320000D02*
X170980000Y-78320000D01*
X170980000Y-70700000D01*
X165010000Y-70700000D01*
X165010000Y-78320000D01*
X165020000Y-72510000D02*
X165770000Y-72510000D01*
X165770000Y-70710000D01*
X165020000Y-70710000D01*
X165020000Y-72510000D01*
X165020000Y-75010000D02*
X165770000Y-75010000D01*
X165770000Y-74010000D01*
X165020000Y-74010000D01*
X165020000Y-75010000D01*
X165020000Y-78310000D02*
X165770000Y-78310000D01*
X165770000Y-76510000D01*
X165020000Y-76510000D01*
X165020000Y-78310000D01*
%TO.C,C12*%
X119381252Y-56035000D02*
X118858748Y-56035000D01*
X119381252Y-57505000D02*
X118858748Y-57505000D01*
%TO.C,R4*%
X128555000Y-38107064D02*
X128555000Y-37652936D01*
X130025000Y-38107064D02*
X130025000Y-37652936D01*
%TO.C,C7*%
X146695000Y-65168752D02*
X146695000Y-64646248D01*
X148165000Y-65168752D02*
X148165000Y-64646248D01*
%TO.C,J5*%
X167290000Y-41317500D02*
X168670000Y-41317500D01*
X167290000Y-42697500D02*
X167290000Y-41317500D01*
X167290000Y-43967500D02*
X167290000Y-54237500D01*
X167290000Y-43967500D02*
X170050000Y-43967500D01*
X167290000Y-54237500D02*
X170050000Y-54237500D01*
X170050000Y-43967500D02*
X170050000Y-54237500D01*
D17*
%TO.C,IC1*%
X143775000Y-59427000D02*
X143775000Y-60952000D01*
D15*
%TO.C,J2*%
X111590000Y-71610000D02*
X111590000Y-74660000D01*
X111590000Y-77710000D02*
X111590000Y-74660000D01*
X114540000Y-70860000D02*
X114540000Y-71610000D01*
X114540000Y-71610000D02*
X111590000Y-71610000D01*
X114540000Y-77710000D02*
X111590000Y-77710000D01*
X114540000Y-78460000D02*
X114540000Y-77710000D01*
X117090000Y-70560000D02*
X115840000Y-70560000D01*
X117090000Y-71810000D02*
X117090000Y-70560000D01*
X116790000Y-70860000D02*
X116040000Y-70860000D01*
X116040000Y-72660000D01*
X116790000Y-72660000D01*
X116790000Y-70860000D01*
X116790000Y-74160000D02*
X116040000Y-74160000D01*
X116040000Y-75160000D01*
X116790000Y-75160000D01*
X116790000Y-74160000D01*
X116790000Y-76660000D02*
X116040000Y-76660000D01*
X116040000Y-78460000D01*
X116790000Y-78460000D01*
X116790000Y-76660000D01*
X116800000Y-70850000D02*
X110830000Y-70850000D01*
X110830000Y-78470000D01*
X116800000Y-78470000D01*
X116800000Y-70850000D01*
%TO.C,J4*%
X111540000Y-41250000D02*
X112920000Y-41250000D01*
X111540000Y-42630000D02*
X111540000Y-41250000D01*
X111540000Y-43900000D02*
X111540000Y-54170000D01*
X111540000Y-43900000D02*
X114300000Y-43900000D01*
X111540000Y-54170000D02*
X114300000Y-54170000D01*
X114300000Y-43900000D02*
X114300000Y-54170000D01*
%TO.C,J8*%
X142050000Y-81060000D02*
X142050000Y-79360000D01*
X151390000Y-81060000D02*
X151390000Y-79360000D01*
D17*
%TO.C,PS1*%
X117520000Y-43590000D02*
X124020000Y-43590000D01*
X117520000Y-47090000D02*
X117520000Y-43590000D01*
X117645000Y-49365000D02*
X117645000Y-47615000D01*
X124020000Y-43590000D02*
X124020000Y-47090000D01*
X124020000Y-47090000D02*
X117520000Y-47090000D01*
D15*
%TO.C,D1*%
X128195000Y-55040000D02*
X131055000Y-55040000D01*
X131055000Y-53120000D02*
X128195000Y-53120000D01*
X131055000Y-55040000D02*
X131055000Y-53120000D01*
%TO.C,C11*%
X119383752Y-53335000D02*
X118861248Y-53335000D01*
X119383752Y-54805000D02*
X118861248Y-54805000D01*
%TO.C,J7*%
X111540000Y-57980000D02*
X112920000Y-57980000D01*
X111540000Y-59360000D02*
X111540000Y-57980000D01*
X111540000Y-60630000D02*
X111540000Y-63280000D01*
X111540000Y-60630000D02*
X114300000Y-60630000D01*
X111540000Y-63280000D02*
X114300000Y-63280000D01*
X114300000Y-60630000D02*
X114300000Y-63280000D01*
%TO.C,R5*%
X142277064Y-73465000D02*
X141822936Y-73465000D01*
X142277064Y-74935000D02*
X141822936Y-74935000D01*
D17*
%TO.C,IC2*%
X156945000Y-58917000D02*
X156945000Y-60442000D01*
D15*
%TO.C,C1*%
X133375000Y-65583752D02*
X133375000Y-65061248D01*
X134845000Y-65583752D02*
X134845000Y-65061248D01*
%TO.C,C4*%
X121215000Y-38111252D02*
X121215000Y-37588748D01*
X122685000Y-38111252D02*
X122685000Y-37588748D01*
%TO.C,C8*%
X126921248Y-44265000D02*
X127443752Y-44265000D01*
X126921248Y-45735000D02*
X127443752Y-45735000D01*
%TO.C,R2*%
X148425000Y-60214936D02*
X148425000Y-60669064D01*
X149895000Y-60214936D02*
X149895000Y-60669064D01*
%TO.C,J1*%
X123860000Y-83550000D02*
X123860000Y-82440000D01*
X124970000Y-83550000D02*
X123860000Y-83550000D01*
X125970000Y-81330000D02*
X130080000Y-81330000D01*
X125970000Y-83550000D02*
X125970000Y-81330000D01*
X125970000Y-83550000D02*
X130080000Y-83550000D01*
X130080000Y-83550000D02*
X130080000Y-81330000D01*
D17*
%TO.C,S2*%
X160150000Y-48760000D02*
X161000000Y-48760000D01*
X160150000Y-52810000D02*
X160150000Y-48760000D01*
X160150000Y-54510000D02*
X160150000Y-54860000D01*
X160150000Y-54860000D02*
X161000000Y-54860000D01*
D16*
X162000000Y-47810000D02*
X162000000Y-47810000D01*
X162000000Y-47910000D02*
X162000000Y-47910000D01*
D17*
X163000000Y-48760000D02*
X163850000Y-48760000D01*
X163850000Y-48760000D02*
X163850000Y-49110000D01*
X163850000Y-50810000D02*
X163850000Y-54860000D01*
X163850000Y-54860000D02*
X163000000Y-54860000D01*
D16*
X162000000Y-47810000D02*
G75*
G02*
X162000000Y-47910000I0J-50000D01*
G01*
X162000000Y-47910000D02*
G75*
G02*
X162000000Y-47810000I0J50000D01*
G01*
%TD*%
M02*
