M48
; DRILL file {KiCad 9.0.7} date 2026-03-10T13:29:48-0500
; FORMAT={-:-/ absolute / metric / decimal}
; #@! TF.CreationDate,2026-03-10T13:29:48-05:00
; #@! TF.GenerationSoftware,Kicad,Pcbnew,9.0.7
; #@! TF.FileFunction,Plated,1,2,PTH
FMAT,2
METRIC
; #@! TA.AperFunction,Plated,PTH,ViaDrill
T1C0.300
; #@! TA.AperFunction,Plated,PTH,ComponentDrill
T2C0.600
; #@! TA.AperFunction,Plated,PTH,ComponentDrill
T3C0.800
; #@! TA.AperFunction,Plated,PTH,ComponentDrill
T4C1.000
%
G90
G05
T1
X126.97Y-71.68
X126.97Y-79.68
X128.97Y-78.05
X130.29Y-66.37
X133.17Y-51.93
X133.19Y-49.46
X134.19Y-40.52
X135.42Y-53.22
X135.5Y-54.49
X135.58Y-39.25
X135.68Y-51.95
X135.69Y-41.79
X135.73Y-49.41
X135.73Y-50.68
X135.75Y-44.33
X135.76Y-43.06
X135.77Y-46.87
X135.78Y-48.14
X135.81Y-45.6
X139.24Y-66.31
X142.69Y-75.75
X143.18Y-70.38
X145.18Y-66.31
X146.61Y-70.55
X146.7Y-75.83
X147.12Y-57.51
X149.14Y-70.49
X150.17Y-75.79
X157.8Y-36.375
X166.03Y-41.19
T3
X124.97Y-82.44
X126.97Y-82.44
X128.97Y-82.44
T4
X112.92Y-42.63
X112.92Y-45.17
X112.92Y-47.71
X112.92Y-50.25
X112.92Y-52.79
X112.92Y-59.36
X112.92Y-61.9
X114.34Y-73.41
X114.34Y-75.91
X167.47Y-73.26
X167.47Y-75.76
X168.67Y-42.697
X168.67Y-45.237
X168.67Y-47.777
X168.67Y-50.317
X168.67Y-52.857
X168.67Y-59.29
X168.67Y-61.83
T2
G00X142.4Y-77.505
M15
G01X142.4Y-78.605
M16
G05
G00X142.4Y-81.835
M15
G01X142.4Y-82.635
M16
G05
G00X151.04Y-77.505
M15
G01X151.04Y-78.605
M16
G05
G00X151.04Y-81.835
M15
G01X151.04Y-82.635
M16
G05
M30
