%TF.GenerationSoftware,KiCad,Pcbnew,10.0.0*%
%TF.CreationDate,2026-04-02T23:42:17-05:00*%
%TF.ProjectId,BuckConvSD2,4275636b-436f-46e7-9653-44322e6b6963,rev?*%
%TF.SameCoordinates,Original*%
%TF.FileFunction,Copper,L1,Top*%
%TF.FilePolarity,Positive*%
%FSLAX46Y46*%
G04 Gerber Fmt 4.6, Leading zero omitted, Abs format (unit mm)*
G04 Created by KiCad (PCBNEW 10.0.0) date 2026-04-02 23:42:17*
%MOMM*%
%LPD*%
G01*
G04 APERTURE LIST*
G04 Aperture macros list*
%AMRoundRect*
0 Rectangle with rounded corners*
0 $1 Rounding radius*
0 $2 $3 $4 $5 $6 $7 $8 $9 X,Y pos of 4 corners*
0 Add a 4 corners polygon primitive as box body*
4,1,4,$2,$3,$4,$5,$6,$7,$8,$9,$2,$3,0*
0 Add four circle primitives for the rounded corners*
1,1,$1+$1,$2,$3*
1,1,$1+$1,$4,$5*
1,1,$1+$1,$6,$7*
1,1,$1+$1,$8,$9*
0 Add four rect primitives between the rounded corners*
20,1,$1+$1,$2,$3,$4,$5,0*
20,1,$1+$1,$4,$5,$6,$7,0*
20,1,$1+$1,$6,$7,$8,$9,0*
20,1,$1+$1,$8,$9,$2,$3,0*%
G04 Aperture macros list end*
%TA.AperFunction,SMDPad,CuDef*%
%ADD10R,2.400000X3.400000*%
%TD*%
%TA.AperFunction,SMDPad,CuDef*%
%ADD11RoundRect,0.155000X-0.212500X-0.155000X0.212500X-0.155000X0.212500X0.155000X-0.212500X0.155000X0*%
%TD*%
%TA.AperFunction,SMDPad,CuDef*%
%ADD12RoundRect,0.160000X0.160000X-0.197500X0.160000X0.197500X-0.160000X0.197500X-0.160000X-0.197500X0*%
%TD*%
%TA.AperFunction,SMDPad,CuDef*%
%ADD13RoundRect,0.155000X0.155000X-0.212500X0.155000X0.212500X-0.155000X0.212500X-0.155000X-0.212500X0*%
%TD*%
%TA.AperFunction,SMDPad,CuDef*%
%ADD14R,0.762000X1.778000*%
%TD*%
%TA.AperFunction,ComponentPad*%
%ADD15R,1.700000X1.700000*%
%TD*%
%TA.AperFunction,ComponentPad*%
%ADD16C,1.700000*%
%TD*%
%TA.AperFunction,SMDPad,CuDef*%
%ADD17R,1.778000X0.762000*%
%TD*%
%TA.AperFunction,SMDPad,CuDef*%
%ADD18RoundRect,0.015000X-0.760000X-0.285000X0.760000X-0.285000X0.760000X0.285000X-0.760000X0.285000X0*%
%TD*%
%TA.AperFunction,SMDPad,CuDef*%
%ADD19R,2.950000X4.900000*%
%TD*%
%TA.AperFunction,ComponentPad*%
%ADD20C,0.300000*%
%TD*%
%TA.AperFunction,SMDPad,CuDef*%
%ADD21RoundRect,0.250000X1.400000X2.000000X-1.400000X2.000000X-1.400000X-2.000000X1.400000X-2.000000X0*%
%TD*%
%TA.AperFunction,SMDPad,CuDef*%
%ADD22RoundRect,0.160000X0.197500X0.160000X-0.197500X0.160000X-0.197500X-0.160000X0.197500X-0.160000X0*%
%TD*%
%TA.AperFunction,SMDPad,CuDef*%
%ADD23RoundRect,0.250000X0.900000X-1.500000X0.900000X1.500000X-0.900000X1.500000X-0.900000X-1.500000X0*%
%TD*%
%TA.AperFunction,SMDPad,CuDef*%
%ADD24RoundRect,0.160000X-0.197500X-0.160000X0.197500X-0.160000X0.197500X0.160000X-0.197500X0.160000X0*%
%TD*%
%TA.AperFunction,SMDPad,CuDef*%
%ADD25RoundRect,0.160000X-0.160000X0.197500X-0.160000X-0.197500X0.160000X-0.197500X0.160000X0.197500X0*%
%TD*%
%TA.AperFunction,SMDPad,CuDef*%
%ADD26RoundRect,0.155000X0.212500X0.155000X-0.212500X0.155000X-0.212500X-0.155000X0.212500X-0.155000X0*%
%TD*%
%TA.AperFunction,SMDPad,CuDef*%
%ADD27RoundRect,0.250000X0.475000X-0.337500X0.475000X0.337500X-0.475000X0.337500X-0.475000X-0.337500X0*%
%TD*%
%TA.AperFunction,Conductor*%
%ADD28C,1.400000*%
%TD*%
%TA.AperFunction,Conductor*%
%ADD29C,1.000000*%
%TD*%
G04 APERTURE END LIST*
D10*
%TO.P,L1,1,1_1*%
%TO.N,Net-(U1-SW)*%
X147640000Y-56600000D03*
%TO.P,L1,2,2_2*%
%TO.N,Net-(C6-Pad2)*%
X155840000Y-56600000D03*
%TD*%
D11*
%TO.P,C6,1*%
%TO.N,GND*%
X151527500Y-67830000D03*
%TO.P,C6,2*%
%TO.N,Net-(C6-Pad2)*%
X152662500Y-67830000D03*
%TD*%
D12*
%TO.P,R6,1*%
%TO.N,GND*%
X146980000Y-69955000D03*
%TO.P,R6,2*%
%TO.N,/FB*%
X146980000Y-68760000D03*
%TD*%
D13*
%TO.P,C2,1*%
%TO.N,GND*%
X109830000Y-65555000D03*
%TO.P,C2,2*%
%TO.N,Net-(D1-A1)*%
X109830000Y-64420000D03*
%TD*%
D14*
%TO.P,F1,1*%
%TO.N,/7v4*%
X98338150Y-64250000D03*
%TO.P,F1,2*%
%TO.N,Net-(D1-A1)*%
X100979750Y-64250000D03*
%TD*%
D11*
%TO.P,C3,1*%
%TO.N,Net-(U1-BOOT)*%
X122850000Y-56640000D03*
%TO.P,C3,2*%
%TO.N,Net-(U1-SW)*%
X123985000Y-56640000D03*
%TD*%
D15*
%TO.P,J2,1,Pin_1_1*%
%TO.N,GND*%
X141700000Y-78120000D03*
D16*
%TO.P,J2,2,Pin_2_2*%
%TO.N,Net-(J2-Pin_2)*%
X144240000Y-78120000D03*
%TD*%
D17*
%TO.P,F2,1*%
%TO.N,Net-(C6-Pad2)*%
X155900000Y-75728150D03*
%TO.P,F2,2*%
%TO.N,Net-(J2-Pin_2)*%
X155900000Y-78369750D03*
%TD*%
D18*
%TO.P,U1,1,BOOT_1*%
%TO.N,Net-(U1-BOOT)*%
X122450000Y-63245000D03*
%TO.P,U1,2,VIN_2*%
%TO.N,Net-(D1-A1)*%
X122450000Y-64515000D03*
%TO.P,U1,3,EN_3*%
%TO.N,Net-(U1-EN)*%
X122450000Y-65785000D03*
%TO.P,U1,4,RT/CLK_4*%
%TO.N,Net-(U1-RT{slash}CLK)*%
X122450000Y-67055000D03*
%TO.P,U1,5,FB_5*%
%TO.N,/FB*%
X127850000Y-67055000D03*
%TO.P,U1,6,COMP_6*%
%TO.N,Net-(U1-COMP)*%
X127850000Y-65785000D03*
%TO.P,U1,7,GND_7*%
%TO.N,GND*%
X127850000Y-64515000D03*
%TO.P,U1,8,SW_8*%
%TO.N,Net-(U1-SW)*%
X127850000Y-63245000D03*
D19*
%TO.P,U1,9*%
%TO.N,N/C*%
X125150000Y-65150000D03*
D20*
%TO.P,U1,10*%
X124500000Y-63200000D03*
%TO.P,U1,11*%
X125800000Y-63200000D03*
%TO.P,U1,12*%
X124500000Y-64500000D03*
%TO.P,U1,13*%
X125800000Y-64500000D03*
%TO.P,U1,14*%
X124500000Y-65800000D03*
%TO.P,U1,15*%
X125800000Y-65800000D03*
%TO.P,U1,16*%
X124500000Y-67100000D03*
%TO.P,U1,17*%
X125800000Y-67100000D03*
%TD*%
D12*
%TO.P,R2,1*%
%TO.N,GND*%
X116240000Y-68597500D03*
%TO.P,R2,2*%
%TO.N,Net-(U1-EN)*%
X116240000Y-67402500D03*
%TD*%
D21*
%TO.P,CR1,1*%
%TO.N,Net-(U1-SW)*%
X129980000Y-56590000D03*
%TO.P,CR1,2*%
%TO.N,GND*%
X129980000Y-47790000D03*
%TD*%
D22*
%TO.P,R4,1*%
%TO.N,Net-(C4-Pad2)*%
X135777500Y-65740000D03*
%TO.P,R4,2*%
%TO.N,Net-(U1-COMP)*%
X134582500Y-65740000D03*
%TD*%
D23*
%TO.P,D1,1,A1_1*%
%TO.N,Net-(D1-A1)*%
X105280000Y-57917500D03*
%TO.P,D1,2,A2_2*%
%TO.N,GND*%
X105280000Y-52517500D03*
%TD*%
D24*
%TO.P,R5,1*%
%TO.N,/FB*%
X146970000Y-64620000D03*
%TO.P,R5,2*%
%TO.N,Net-(C6-Pad2)*%
X148165000Y-64620000D03*
%TD*%
D25*
%TO.P,R1,1*%
%TO.N,Net-(D1-A1)*%
X116240000Y-64510000D03*
%TO.P,R1,2*%
%TO.N,Net-(U1-EN)*%
X116240000Y-65705000D03*
%TD*%
D26*
%TO.P,C5,1*%
%TO.N,GND*%
X135692500Y-64470000D03*
%TO.P,C5,2*%
%TO.N,Net-(U1-COMP)*%
X134557500Y-64470000D03*
%TD*%
%TO.P,C4,1*%
%TO.N,GND*%
X138825000Y-65740000D03*
%TO.P,C4,2*%
%TO.N,Net-(C4-Pad2)*%
X137690000Y-65740000D03*
%TD*%
D15*
%TO.P,J4,1,Pin_1_1*%
%TO.N,GND*%
X97060000Y-77990000D03*
D16*
%TO.P,J4,2,Pin_2_2*%
%TO.N,/7v4*%
X94520000Y-77990000D03*
%TD*%
D15*
%TO.P,J3,1,Pin_1_1*%
%TO.N,GND*%
X86500000Y-61725000D03*
D16*
%TO.P,J3,2,Pin_2_2*%
%TO.N,/7v4*%
X86500000Y-64265000D03*
%TD*%
D26*
%TO.P,C7,1*%
%TO.N,Net-(C6-Pad2)*%
X152655000Y-69790000D03*
%TO.P,C7,2*%
%TO.N,GND*%
X151520000Y-69790000D03*
%TD*%
D12*
%TO.P,R3,1*%
%TO.N,GND*%
X121140000Y-70987500D03*
%TO.P,R3,2*%
%TO.N,Net-(U1-RT{slash}CLK)*%
X121140000Y-69792500D03*
%TD*%
D27*
%TO.P,C1,1*%
%TO.N,GND*%
X105280000Y-66317500D03*
%TO.P,C1,2*%
%TO.N,Net-(D1-A1)*%
X105280000Y-64242500D03*
%TD*%
%TO.N,Net-(U1-SW)*%
D28*
X147640000Y-56600000D02*
X129990000Y-56600000D01*
X129980000Y-62580000D02*
X129980000Y-56590000D01*
X129710000Y-62850000D02*
X129980000Y-62580000D01*
D29*
X124050000Y-56590000D02*
X124050000Y-56640000D01*
D28*
X129980000Y-56590000D02*
X125720000Y-56590000D01*
X129990000Y-56600000D02*
X129980000Y-56590000D01*
X125720000Y-56590000D02*
X125710000Y-56580000D01*
D29*
X125720000Y-56590000D02*
X124050000Y-56590000D01*
X129315000Y-63245000D02*
X129710000Y-62850000D01*
X127850000Y-63245000D02*
X129315000Y-63245000D01*
%TO.N,Net-(C6-Pad2)*%
D28*
X155900000Y-69280000D02*
X155900000Y-68200000D01*
X155900000Y-75728150D02*
X155900000Y-69280000D01*
X152712500Y-68740000D02*
X152662500Y-68790000D01*
D29*
X149860000Y-64610000D02*
X148409899Y-64610000D01*
X152662500Y-69782500D02*
X152655000Y-69790000D01*
D28*
X155360000Y-68740000D02*
X152712500Y-68740000D01*
X155840000Y-63920000D02*
X155840000Y-68140000D01*
X155840000Y-56600000D02*
X155840000Y-63920000D01*
D29*
X148409899Y-64610000D02*
X148292449Y-64492550D01*
X152662500Y-68790000D02*
X152662500Y-69782500D01*
X152662500Y-67830000D02*
X152662500Y-68790000D01*
D28*
X155150000Y-64610000D02*
X149860000Y-64610000D01*
X155900000Y-69280000D02*
X155360000Y-68740000D01*
X155840000Y-68140000D02*
X155900000Y-68200000D01*
X155840000Y-63920000D02*
X155150000Y-64610000D01*
X155900000Y-68200000D02*
X155360000Y-68740000D01*
%TO.N,/FB*%
X128090000Y-68260000D02*
X146750000Y-68260000D01*
D29*
X127850000Y-68020000D02*
X128090000Y-68260000D01*
D28*
X146750000Y-68260000D02*
X146980000Y-68030000D01*
D29*
X146970000Y-64620000D02*
X146970000Y-65150000D01*
X127850000Y-67055000D02*
X127850000Y-68020000D01*
D28*
X146970000Y-65150000D02*
X146970000Y-68020000D01*
D29*
X146980000Y-68760000D02*
X146980000Y-68030000D01*
D28*
X146970000Y-68020000D02*
X146980000Y-68030000D01*
%TO.N,Net-(D1-A1)*%
X109785000Y-64242500D02*
X109830000Y-64287500D01*
X105280000Y-64242500D02*
X109785000Y-64242500D01*
X105272500Y-64250000D02*
X105280000Y-64242500D01*
D29*
X116240000Y-64510000D02*
X115070000Y-64510000D01*
D28*
X114940000Y-64380000D02*
X114802500Y-64242500D01*
X105280000Y-64242500D02*
X105280000Y-57917500D01*
D29*
X122445000Y-64510000D02*
X122450000Y-64515000D01*
D28*
X114802500Y-64242500D02*
X109785000Y-64242500D01*
D29*
X116240000Y-64510000D02*
X122445000Y-64510000D01*
D28*
X100979750Y-64250000D02*
X105272500Y-64250000D01*
D29*
X115070000Y-64510000D02*
X114940000Y-64380000D01*
%TO.N,Net-(U1-BOOT)*%
D28*
X122470000Y-61710000D02*
X122450000Y-61730000D01*
D29*
X122450000Y-63245000D02*
X122450000Y-61730000D01*
D28*
X122470000Y-57920000D02*
X122470000Y-61710000D01*
D29*
X122850000Y-56640000D02*
X122850000Y-57540000D01*
X122850000Y-57540000D02*
X122470000Y-57920000D01*
%TO.N,Net-(J2-Pin_2)*%
D28*
X155900000Y-78369750D02*
X144489750Y-78369750D01*
X144489750Y-78369750D02*
X144240000Y-78120000D01*
%TO.N,Net-(U1-EN)*%
D29*
X117950000Y-66560000D02*
X118725000Y-65785000D01*
X116240000Y-67402500D02*
X116240000Y-66560000D01*
X116240000Y-66560000D02*
X117950000Y-66560000D01*
X116240000Y-66560000D02*
X116240000Y-65710000D01*
X118725000Y-65785000D02*
X122450000Y-65785000D01*
%TO.N,Net-(U1-RT{slash}CLK)*%
X121120000Y-67260000D02*
X121140000Y-67280000D01*
X121140000Y-67280000D02*
X121140000Y-69792500D01*
X122450000Y-67055000D02*
X121325000Y-67055000D01*
X121325000Y-67055000D02*
X121120000Y-67260000D01*
%TO.N,Net-(U1-COMP)*%
D28*
X129585000Y-65785000D02*
X134520000Y-65785000D01*
D29*
X127850000Y-65785000D02*
X129585000Y-65785000D01*
X134582500Y-64495000D02*
X134557500Y-64470000D01*
X134582500Y-65740000D02*
X134582500Y-64495000D01*
D28*
X134520000Y-65785000D02*
X134520000Y-65740000D01*
%TO.N,Net-(C4-Pad2)*%
D29*
X137690000Y-65740000D02*
X135920000Y-65740000D01*
%TO.N,/7v4*%
D28*
X94520000Y-77990000D02*
X94520000Y-66090000D01*
X94565000Y-66045000D02*
X92785000Y-64265000D01*
X86500000Y-64265000D02*
X92785000Y-64265000D01*
X94520000Y-66090000D02*
X94565000Y-66045000D01*
X98323150Y-64265000D02*
X98338150Y-64250000D01*
X92785000Y-64265000D02*
X96150000Y-64265000D01*
X96150000Y-64265000D02*
X98323150Y-64265000D01*
X94565000Y-65850000D02*
X96150000Y-64265000D01*
X94565000Y-66045000D02*
X94565000Y-65850000D01*
%TD*%
%TA.AperFunction,Conductor*%
%TO.N,GND*%
G36*
X127944285Y-45160185D02*
G01*
X127990040Y-45212989D01*
X127999984Y-45282147D01*
X127982785Y-45329597D01*
X127895643Y-45470875D01*
X127895641Y-45470880D01*
X127840494Y-45637302D01*
X127840493Y-45637309D01*
X127830000Y-45740013D01*
X127830000Y-47540000D01*
X132129999Y-47540000D01*
X132129999Y-45740028D01*
X132129998Y-45740013D01*
X132119505Y-45637302D01*
X132064358Y-45470880D01*
X132064356Y-45470875D01*
X131977215Y-45329597D01*
X131958775Y-45262204D01*
X131979698Y-45195541D01*
X132033340Y-45150771D01*
X132082754Y-45140500D01*
X159975500Y-45140500D01*
X160042539Y-45160185D01*
X160088294Y-45212989D01*
X160099500Y-45264500D01*
X160099500Y-80225500D01*
X160079815Y-80292539D01*
X160027011Y-80338294D01*
X159975500Y-80349500D01*
X83624500Y-80349500D01*
X83557461Y-80329815D01*
X83511706Y-80277011D01*
X83500500Y-80225500D01*
X83500500Y-64158713D01*
X85149500Y-64158713D01*
X85149500Y-64371287D01*
X85153487Y-64396459D01*
X85173180Y-64520799D01*
X85182754Y-64581243D01*
X85246668Y-64777950D01*
X85248444Y-64783414D01*
X85344951Y-64972820D01*
X85469890Y-65144786D01*
X85620213Y-65295109D01*
X85792179Y-65420048D01*
X85792181Y-65420049D01*
X85792184Y-65420051D01*
X85981588Y-65516557D01*
X86183757Y-65582246D01*
X86393713Y-65615500D01*
X86393714Y-65615500D01*
X86606286Y-65615500D01*
X86606287Y-65615500D01*
X86816243Y-65582246D01*
X87018412Y-65516557D01*
X87092092Y-65479014D01*
X87148387Y-65465500D01*
X92236374Y-65465500D01*
X92303413Y-65485185D01*
X92324055Y-65501819D01*
X93283181Y-66460945D01*
X93316666Y-66522268D01*
X93319500Y-66548626D01*
X93319500Y-77341612D01*
X93305985Y-77397907D01*
X93268444Y-77471585D01*
X93202753Y-77673760D01*
X93201291Y-77682993D01*
X93169500Y-77883713D01*
X93169500Y-78096287D01*
X93202754Y-78306243D01*
X93204947Y-78312993D01*
X93268444Y-78508414D01*
X93364951Y-78697820D01*
X93489890Y-78869786D01*
X93640213Y-79020109D01*
X93812179Y-79145048D01*
X93812181Y-79145049D01*
X93812184Y-79145051D01*
X94001588Y-79241557D01*
X94203757Y-79307246D01*
X94413713Y-79340500D01*
X94413714Y-79340500D01*
X94626286Y-79340500D01*
X94626287Y-79340500D01*
X94836243Y-79307246D01*
X95038412Y-79241557D01*
X95227816Y-79145051D01*
X95314478Y-79082088D01*
X95399784Y-79020110D01*
X95399784Y-79020109D01*
X95399792Y-79020104D01*
X95513717Y-78906178D01*
X95575036Y-78872696D01*
X95644728Y-78877680D01*
X95700662Y-78919551D01*
X95717577Y-78950528D01*
X95766646Y-79082088D01*
X95766649Y-79082093D01*
X95852809Y-79197187D01*
X95852812Y-79197190D01*
X95967906Y-79283350D01*
X95967913Y-79283354D01*
X96102620Y-79333596D01*
X96102627Y-79333598D01*
X96162155Y-79339999D01*
X96162172Y-79340000D01*
X96810000Y-79340000D01*
X96810000Y-78423012D01*
X96867007Y-78455925D01*
X96994174Y-78490000D01*
X97125826Y-78490000D01*
X97252993Y-78455925D01*
X97310000Y-78423012D01*
X97310000Y-79340000D01*
X97957828Y-79340000D01*
X97957844Y-79339999D01*
X98017372Y-79333598D01*
X98017379Y-79333596D01*
X98152086Y-79283354D01*
X98152093Y-79283350D01*
X98267187Y-79197190D01*
X98267190Y-79197187D01*
X98353350Y-79082093D01*
X98353354Y-79082086D01*
X98403596Y-78947379D01*
X98403598Y-78947372D01*
X98409999Y-78887844D01*
X98410000Y-78887827D01*
X98410000Y-78240000D01*
X97493012Y-78240000D01*
X97525925Y-78182993D01*
X97560000Y-78055826D01*
X97560000Y-77924174D01*
X97525925Y-77797007D01*
X97493012Y-77740000D01*
X98410000Y-77740000D01*
X98410000Y-77092172D01*
X98409999Y-77092155D01*
X98403598Y-77032627D01*
X98403596Y-77032620D01*
X98353354Y-76897913D01*
X98353350Y-76897906D01*
X98267190Y-76782812D01*
X98267187Y-76782809D01*
X98152093Y-76696649D01*
X98152086Y-76696645D01*
X98017379Y-76646403D01*
X98017372Y-76646401D01*
X97957844Y-76640000D01*
X97310000Y-76640000D01*
X97310000Y-77556988D01*
X97252993Y-77524075D01*
X97125826Y-77490000D01*
X96994174Y-77490000D01*
X96867007Y-77524075D01*
X96810000Y-77556988D01*
X96810000Y-76640000D01*
X96162155Y-76640000D01*
X96102627Y-76646401D01*
X96102620Y-76646403D01*
X95967913Y-76696645D01*
X95967910Y-76696647D01*
X95918811Y-76733403D01*
X95853346Y-76757820D01*
X95785073Y-76742968D01*
X95735668Y-76693563D01*
X95720500Y-76634136D01*
X95720500Y-71238337D01*
X120320000Y-71238337D01*
X120326043Y-71304843D01*
X120373724Y-71457859D01*
X120373726Y-71457863D01*
X120456639Y-71595019D01*
X120456642Y-71595023D01*
X120569976Y-71708357D01*
X120569980Y-71708360D01*
X120707136Y-71791273D01*
X120707138Y-71791274D01*
X120860155Y-71838956D01*
X120860161Y-71838958D01*
X120889999Y-71841668D01*
X120890000Y-71841668D01*
X121390000Y-71841668D01*
X121419838Y-71838958D01*
X121419844Y-71838956D01*
X121572861Y-71791274D01*
X121572863Y-71791273D01*
X121710019Y-71708360D01*
X121710023Y-71708357D01*
X121823357Y-71595023D01*
X121823360Y-71595019D01*
X121906273Y-71457863D01*
X121906275Y-71457859D01*
X121953956Y-71304843D01*
X121960000Y-71238337D01*
X121960000Y-71237500D01*
X121390000Y-71237500D01*
X121390000Y-71841668D01*
X120890000Y-71841668D01*
X120890000Y-71237500D01*
X120320000Y-71237500D01*
X120320000Y-71238337D01*
X95720500Y-71238337D01*
X95720500Y-68848337D01*
X115420000Y-68848337D01*
X115426043Y-68914843D01*
X115473724Y-69067859D01*
X115473726Y-69067863D01*
X115556639Y-69205019D01*
X115556642Y-69205023D01*
X115669976Y-69318357D01*
X115669980Y-69318360D01*
X115807136Y-69401273D01*
X115807138Y-69401274D01*
X115960155Y-69448956D01*
X115960161Y-69448958D01*
X115989999Y-69451668D01*
X115990000Y-69451668D01*
X116490000Y-69451668D01*
X116519838Y-69448958D01*
X116519844Y-69448956D01*
X116672861Y-69401274D01*
X116672863Y-69401273D01*
X116810019Y-69318360D01*
X116810023Y-69318357D01*
X116923357Y-69205023D01*
X116923360Y-69205019D01*
X117006273Y-69067863D01*
X117006275Y-69067859D01*
X117053956Y-68914843D01*
X117060000Y-68848337D01*
X117060000Y-68847500D01*
X116490000Y-68847500D01*
X116490000Y-69451668D01*
X115990000Y-69451668D01*
X115990000Y-68847500D01*
X115420000Y-68847500D01*
X115420000Y-68848337D01*
X95720500Y-68848337D01*
X95720500Y-66704986D01*
X104055001Y-66704986D01*
X104065494Y-66807697D01*
X104120641Y-66974119D01*
X104120643Y-66974124D01*
X104212684Y-67123345D01*
X104336654Y-67247315D01*
X104485875Y-67339356D01*
X104485880Y-67339358D01*
X104652302Y-67394505D01*
X104652309Y-67394506D01*
X104755019Y-67404999D01*
X105029999Y-67404999D01*
X105530000Y-67404999D01*
X105804972Y-67404999D01*
X105804986Y-67404998D01*
X105907697Y-67394505D01*
X106074119Y-67339358D01*
X106074124Y-67339356D01*
X106223345Y-67247315D01*
X106347315Y-67123345D01*
X106439356Y-66974124D01*
X106439358Y-66974119D01*
X106494505Y-66807697D01*
X106494506Y-66807690D01*
X106504999Y-66704986D01*
X106505000Y-66704973D01*
X106505000Y-66567500D01*
X105530000Y-66567500D01*
X105530000Y-67404999D01*
X105029999Y-67404999D01*
X105030000Y-67404998D01*
X105030000Y-66567500D01*
X104055001Y-66567500D01*
X104055001Y-66704986D01*
X95720500Y-66704986D01*
X95720500Y-66443625D01*
X95740185Y-66376586D01*
X95756819Y-66355944D01*
X96610944Y-65501819D01*
X96672267Y-65468334D01*
X96698625Y-65465500D01*
X97517196Y-65465500D01*
X97584235Y-65485185D01*
X97592216Y-65491616D01*
X97592505Y-65491232D01*
X97714814Y-65582793D01*
X97714821Y-65582797D01*
X97849667Y-65633091D01*
X97849666Y-65633091D01*
X97856594Y-65633835D01*
X97909277Y-65639500D01*
X98767022Y-65639499D01*
X98826633Y-65633091D01*
X98961481Y-65582796D01*
X99076696Y-65496546D01*
X99162946Y-65381331D01*
X99213241Y-65246483D01*
X99219650Y-65186873D01*
X99219649Y-65117626D01*
X99239333Y-65050588D01*
X99251028Y-65036079D01*
X99250676Y-65035778D01*
X99253831Y-65032082D01*
X99253840Y-65032074D01*
X99364910Y-64879199D01*
X99450697Y-64710832D01*
X99509090Y-64531118D01*
X99530418Y-64396459D01*
X99536477Y-64358206D01*
X99566406Y-64295071D01*
X99625718Y-64258140D01*
X99695580Y-64259138D01*
X99753813Y-64297748D01*
X99781423Y-64358206D01*
X99808809Y-64531118D01*
X99867204Y-64710836D01*
X99910932Y-64796656D01*
X99952990Y-64879199D01*
X100064060Y-65032073D01*
X100064067Y-65032080D01*
X100067224Y-65035777D01*
X100065786Y-65037004D01*
X100095416Y-65091267D01*
X100098250Y-65117623D01*
X100098250Y-65186869D01*
X100098251Y-65186876D01*
X100104658Y-65246483D01*
X100154952Y-65381328D01*
X100154956Y-65381335D01*
X100241202Y-65496544D01*
X100241205Y-65496547D01*
X100356414Y-65582793D01*
X100356421Y-65582797D01*
X100491267Y-65633091D01*
X100491266Y-65633091D01*
X100498194Y-65633835D01*
X100550877Y-65639500D01*
X101408622Y-65639499D01*
X101468233Y-65633091D01*
X101603081Y-65582796D01*
X101718296Y-65496546D01*
X101718298Y-65496542D01*
X101724567Y-65490275D01*
X101726384Y-65492092D01*
X101771499Y-65458319D01*
X101814835Y-65450500D01*
X104028230Y-65450500D01*
X104095269Y-65470185D01*
X104141024Y-65522989D01*
X104150968Y-65592147D01*
X104133768Y-65639598D01*
X104120644Y-65660873D01*
X104120641Y-65660880D01*
X104065494Y-65827302D01*
X104065493Y-65827309D01*
X104055000Y-65930013D01*
X104055000Y-66067500D01*
X106504999Y-66067500D01*
X106504999Y-65930028D01*
X106504998Y-65930013D01*
X106495155Y-65833657D01*
X109020000Y-65833657D01*
X109022921Y-65870777D01*
X109022922Y-65870783D01*
X109069091Y-66029694D01*
X109069092Y-66029697D01*
X109153333Y-66172142D01*
X109153339Y-66172150D01*
X109270349Y-66289160D01*
X109270357Y-66289166D01*
X109412802Y-66373407D01*
X109412805Y-66373409D01*
X109571717Y-66419577D01*
X109571724Y-66419579D01*
X109579998Y-66420229D01*
X109580000Y-66420228D01*
X110080000Y-66420228D01*
X110080001Y-66420229D01*
X110088275Y-66419579D01*
X110088282Y-66419577D01*
X110247194Y-66373409D01*
X110247197Y-66373407D01*
X110389642Y-66289166D01*
X110389650Y-66289160D01*
X110506660Y-66172150D01*
X110506666Y-66172142D01*
X110590907Y-66029697D01*
X110590908Y-66029694D01*
X110637077Y-65870783D01*
X110637078Y-65870777D01*
X110639999Y-65833657D01*
X110640000Y-65833642D01*
X110640000Y-65805000D01*
X110080000Y-65805000D01*
X110080000Y-66420228D01*
X109580000Y-66420228D01*
X109580000Y-65805000D01*
X109020000Y-65805000D01*
X109020000Y-65833657D01*
X106495155Y-65833657D01*
X106494506Y-65827304D01*
X106484099Y-65795899D01*
X106411786Y-65612480D01*
X106409597Y-65588211D01*
X106403165Y-65564705D01*
X106406514Y-65554032D01*
X106405510Y-65542893D01*
X106416789Y-65521293D01*
X106424087Y-65498041D01*
X106432674Y-65490874D01*
X106437852Y-65480959D01*
X106459022Y-65468884D01*
X106477729Y-65453272D01*
X106491365Y-65450437D01*
X106498544Y-65446343D01*
X106518458Y-65444805D01*
X106527144Y-65443000D01*
X109481724Y-65443000D01*
X109520040Y-65449068D01*
X109548882Y-65458440D01*
X109611351Y-65468334D01*
X109735514Y-65488000D01*
X109735519Y-65488000D01*
X109924487Y-65488000D01*
X110036962Y-65470185D01*
X110111118Y-65458440D01*
X110139959Y-65449068D01*
X110178276Y-65443000D01*
X114352156Y-65443000D01*
X114408450Y-65456514D01*
X114412229Y-65458440D01*
X114479163Y-65492545D01*
X114479165Y-65492545D01*
X114479168Y-65492547D01*
X114658882Y-65550940D01*
X114678405Y-65554032D01*
X114845514Y-65580499D01*
X114845518Y-65580499D01*
X115034485Y-65580499D01*
X115096102Y-65570740D01*
X115165396Y-65579695D01*
X115218848Y-65624691D01*
X115239487Y-65691443D01*
X115239500Y-65693213D01*
X115239500Y-66461459D01*
X115239500Y-67501041D01*
X115239500Y-67501043D01*
X115239499Y-67501043D01*
X115277947Y-67694329D01*
X115277950Y-67694339D01*
X115353364Y-67876407D01*
X115353371Y-67876420D01*
X115455825Y-68029753D01*
X115476703Y-68096431D01*
X115471109Y-68135533D01*
X115426043Y-68280159D01*
X115420000Y-68346662D01*
X115420000Y-68347500D01*
X115882335Y-68347500D01*
X115929787Y-68356939D01*
X115948160Y-68364549D01*
X115948165Y-68364551D01*
X115948169Y-68364551D01*
X115948170Y-68364552D01*
X116141456Y-68403000D01*
X116141459Y-68403000D01*
X116338543Y-68403000D01*
X116468582Y-68377132D01*
X116531835Y-68364551D01*
X116540842Y-68360820D01*
X116550213Y-68356939D01*
X116597665Y-68347500D01*
X117060000Y-68347500D01*
X117060000Y-68346662D01*
X117053957Y-68280161D01*
X117008890Y-68135534D01*
X117007740Y-68065674D01*
X117024174Y-68029753D01*
X117107405Y-67905190D01*
X117126632Y-67876414D01*
X117202051Y-67694335D01*
X117208820Y-67660308D01*
X117241205Y-67598397D01*
X117301921Y-67563823D01*
X117330437Y-67560500D01*
X118048543Y-67560500D01*
X118084588Y-67553329D01*
X118154114Y-67539500D01*
X118241836Y-67522051D01*
X118295165Y-67499961D01*
X118423914Y-67446632D01*
X118587782Y-67337139D01*
X118727139Y-67197782D01*
X118727140Y-67197779D01*
X119103103Y-66821817D01*
X119164425Y-66788334D01*
X119190783Y-66785500D01*
X120048032Y-66785500D01*
X120115071Y-66805185D01*
X120160826Y-66857989D01*
X120170770Y-66927147D01*
X120162593Y-66956953D01*
X120157949Y-66968163D01*
X120157947Y-66968171D01*
X120119500Y-67161455D01*
X120119500Y-67358542D01*
X120137117Y-67447105D01*
X120139500Y-67471297D01*
X120139500Y-69891041D01*
X120139500Y-69891043D01*
X120139499Y-69891043D01*
X120177947Y-70084329D01*
X120177950Y-70084339D01*
X120253364Y-70266407D01*
X120253371Y-70266420D01*
X120355825Y-70419753D01*
X120376703Y-70486431D01*
X120371109Y-70525533D01*
X120326043Y-70670159D01*
X120320000Y-70736662D01*
X120320000Y-70737500D01*
X120782335Y-70737500D01*
X120829787Y-70746939D01*
X120848160Y-70754549D01*
X120848165Y-70754551D01*
X120848169Y-70754551D01*
X120848170Y-70754552D01*
X121041456Y-70793000D01*
X121041459Y-70793000D01*
X121238543Y-70793000D01*
X121368582Y-70767132D01*
X121431835Y-70754551D01*
X121440842Y-70750820D01*
X121450213Y-70746939D01*
X121497665Y-70737500D01*
X121960000Y-70737500D01*
X121960000Y-70736662D01*
X121953957Y-70670161D01*
X121908890Y-70525534D01*
X121907740Y-70455674D01*
X121924174Y-70419753D01*
X121971016Y-70349650D01*
X122026632Y-70266414D01*
X122051724Y-70205837D01*
X146160000Y-70205837D01*
X146166043Y-70272343D01*
X146213724Y-70425359D01*
X146213726Y-70425363D01*
X146296639Y-70562519D01*
X146296642Y-70562523D01*
X146409976Y-70675857D01*
X146409980Y-70675860D01*
X146547136Y-70758773D01*
X146547138Y-70758774D01*
X146700155Y-70806456D01*
X146700161Y-70806458D01*
X146729999Y-70809168D01*
X146730000Y-70809168D01*
X147230000Y-70809168D01*
X147259838Y-70806458D01*
X147259844Y-70806456D01*
X147412861Y-70758774D01*
X147412863Y-70758773D01*
X147550019Y-70675860D01*
X147550023Y-70675857D01*
X147663357Y-70562523D01*
X147663360Y-70562519D01*
X147746273Y-70425363D01*
X147746275Y-70425359D01*
X147793956Y-70272343D01*
X147800000Y-70205837D01*
X147800000Y-70205000D01*
X147230000Y-70205000D01*
X147230000Y-70809168D01*
X146730000Y-70809168D01*
X146730000Y-70205000D01*
X146160000Y-70205000D01*
X146160000Y-70205837D01*
X122051724Y-70205837D01*
X122102051Y-70084335D01*
X122110870Y-70040000D01*
X150654770Y-70040000D01*
X150655421Y-70048281D01*
X150701590Y-70207194D01*
X150701592Y-70207197D01*
X150785833Y-70349642D01*
X150785839Y-70349650D01*
X150902849Y-70466660D01*
X150902857Y-70466666D01*
X151045302Y-70550907D01*
X151045305Y-70550908D01*
X151204216Y-70597077D01*
X151204222Y-70597078D01*
X151241342Y-70599999D01*
X151241358Y-70600000D01*
X151270000Y-70600000D01*
X151270000Y-70040000D01*
X150654770Y-70040000D01*
X122110870Y-70040000D01*
X122140500Y-69891041D01*
X122140500Y-68179500D01*
X122160185Y-68112461D01*
X122212989Y-68066706D01*
X122264500Y-68055500D01*
X122548543Y-68055500D01*
X122678582Y-68029632D01*
X122741835Y-68017051D01*
X122923914Y-67941632D01*
X123021520Y-67876414D01*
X123021544Y-67876398D01*
X123088222Y-67855520D01*
X123090435Y-67855500D01*
X123178993Y-67855500D01*
X123246032Y-67875185D01*
X123278260Y-67905190D01*
X123317449Y-67957541D01*
X123317452Y-67957544D01*
X123317454Y-67957546D01*
X123317457Y-67957548D01*
X123432664Y-68043793D01*
X123432671Y-68043797D01*
X123567517Y-68094091D01*
X123567516Y-68094091D01*
X123570456Y-68094407D01*
X123627127Y-68100500D01*
X126672872Y-68100499D01*
X126729541Y-68094407D01*
X126798299Y-68106813D01*
X126849436Y-68154424D01*
X126864411Y-68193506D01*
X126887117Y-68307656D01*
X126889500Y-68331847D01*
X126889500Y-68354486D01*
X126919059Y-68541118D01*
X126977454Y-68720836D01*
X127041993Y-68847500D01*
X127063240Y-68889199D01*
X127174310Y-69042073D01*
X127307927Y-69175690D01*
X127460801Y-69286760D01*
X127522814Y-69318357D01*
X127629163Y-69372545D01*
X127629165Y-69372545D01*
X127629168Y-69372547D01*
X127706833Y-69397782D01*
X127808881Y-69430940D01*
X127995514Y-69460500D01*
X127995519Y-69460500D01*
X146052727Y-69460500D01*
X146119766Y-69480185D01*
X146165521Y-69532989D01*
X146175465Y-69602147D01*
X146171113Y-69621389D01*
X146166043Y-69637659D01*
X146160000Y-69704162D01*
X146160000Y-69705000D01*
X146622335Y-69705000D01*
X146669787Y-69714439D01*
X146688160Y-69722049D01*
X146688165Y-69722051D01*
X146688169Y-69722051D01*
X146688170Y-69722052D01*
X146881456Y-69760500D01*
X146881459Y-69760500D01*
X147078543Y-69760500D01*
X147208582Y-69734632D01*
X147271835Y-69722051D01*
X147280842Y-69718320D01*
X147290213Y-69714439D01*
X147337665Y-69705000D01*
X147800000Y-69705000D01*
X147800000Y-69704162D01*
X147793957Y-69637661D01*
X147748890Y-69493034D01*
X147747740Y-69423174D01*
X147764174Y-69387253D01*
X147866628Y-69233920D01*
X147866628Y-69233919D01*
X147866632Y-69233914D01*
X147942051Y-69051835D01*
X147958569Y-68968794D01*
X147980500Y-68858543D01*
X147980500Y-68735632D01*
X148000185Y-68668593D01*
X148004177Y-68662753D01*
X148006760Y-68659199D01*
X148092547Y-68490832D01*
X148150940Y-68311118D01*
X148178750Y-68135533D01*
X148180500Y-68124487D01*
X148180500Y-67935514D01*
X148172027Y-67882022D01*
X148170500Y-67862623D01*
X148170500Y-67580000D01*
X150662270Y-67580000D01*
X151277500Y-67580000D01*
X151277500Y-67020000D01*
X151248842Y-67020000D01*
X151211722Y-67022921D01*
X151211716Y-67022922D01*
X151052805Y-67069091D01*
X151052802Y-67069092D01*
X150910357Y-67153333D01*
X150910349Y-67153339D01*
X150793339Y-67270349D01*
X150793333Y-67270357D01*
X150709092Y-67412802D01*
X150709090Y-67412805D01*
X150662921Y-67571718D01*
X150662270Y-67580000D01*
X148170500Y-67580000D01*
X148170500Y-65733439D01*
X148190185Y-65666400D01*
X148242989Y-65620645D01*
X148306661Y-65610037D01*
X148311357Y-65610499D01*
X148311358Y-65610500D01*
X148508439Y-65610500D01*
X149154367Y-65610500D01*
X149221406Y-65630185D01*
X149227254Y-65634183D01*
X149230799Y-65636759D01*
X149399163Y-65722545D01*
X149399165Y-65722545D01*
X149399168Y-65722547D01*
X149495497Y-65753846D01*
X149578881Y-65780940D01*
X149765514Y-65810500D01*
X149765519Y-65810500D01*
X154515500Y-65810500D01*
X154582539Y-65830185D01*
X154628294Y-65882989D01*
X154639500Y-65934500D01*
X154639500Y-67415500D01*
X154619815Y-67482539D01*
X154567011Y-67528294D01*
X154515500Y-67539500D01*
X153707958Y-67539500D01*
X153640919Y-67519815D01*
X153595164Y-67467011D01*
X153593397Y-67462952D01*
X153549135Y-67356092D01*
X153549128Y-67356079D01*
X153439639Y-67192218D01*
X153439636Y-67192214D01*
X153300285Y-67052863D01*
X153300281Y-67052860D01*
X153136420Y-66943371D01*
X153136407Y-66943364D01*
X152954339Y-66867950D01*
X152954329Y-66867947D01*
X152761043Y-66829500D01*
X152761041Y-66829500D01*
X152563959Y-66829500D01*
X152563957Y-66829500D01*
X152370670Y-66867947D01*
X152370660Y-66867950D01*
X152188592Y-66943364D01*
X152188579Y-66943371D01*
X152048986Y-67036645D01*
X151982308Y-67057523D01*
X151945501Y-67052620D01*
X151843277Y-67022921D01*
X151806157Y-67020000D01*
X151777500Y-67020000D01*
X151777500Y-67327481D01*
X151768061Y-67374933D01*
X151700450Y-67538160D01*
X151700447Y-67538172D01*
X151662252Y-67730191D01*
X151629867Y-67792102D01*
X151569152Y-67826676D01*
X151540635Y-67830000D01*
X151527500Y-67830000D01*
X151527500Y-67956000D01*
X151507815Y-68023039D01*
X151455011Y-68068794D01*
X151403500Y-68080000D01*
X150662270Y-68080000D01*
X150662921Y-68088281D01*
X150709090Y-68247194D01*
X150709092Y-68247197D01*
X150793333Y-68389642D01*
X150793339Y-68389650D01*
X150910349Y-68506660D01*
X150910357Y-68506666D01*
X151052802Y-68590907D01*
X151052805Y-68590908D01*
X151211716Y-68637077D01*
X151211722Y-68637078D01*
X151248842Y-68639999D01*
X151248858Y-68640000D01*
X151338000Y-68640000D01*
X151405039Y-68659685D01*
X151450794Y-68712489D01*
X151462000Y-68764000D01*
X151462000Y-68856000D01*
X151442315Y-68923039D01*
X151389511Y-68968794D01*
X151338000Y-68980000D01*
X151241342Y-68980000D01*
X151204222Y-68982921D01*
X151204216Y-68982922D01*
X151045305Y-69029091D01*
X151045302Y-69029092D01*
X150902857Y-69113333D01*
X150902849Y-69113339D01*
X150785839Y-69230349D01*
X150785833Y-69230357D01*
X150701592Y-69372802D01*
X150701590Y-69372805D01*
X150655421Y-69531718D01*
X150654770Y-69540000D01*
X151396000Y-69540000D01*
X151463039Y-69559685D01*
X151508794Y-69612489D01*
X151520000Y-69664000D01*
X151520000Y-69790000D01*
X151533135Y-69790000D01*
X151600174Y-69809685D01*
X151645929Y-69862489D01*
X151654752Y-69889809D01*
X151692947Y-70081828D01*
X151692949Y-70081836D01*
X151760561Y-70245064D01*
X151770000Y-70292517D01*
X151770000Y-70600000D01*
X151798642Y-70600000D01*
X151798657Y-70599999D01*
X151835777Y-70597078D01*
X151835783Y-70597077D01*
X151938000Y-70567380D01*
X152007869Y-70567579D01*
X152041486Y-70583354D01*
X152181079Y-70676627D01*
X152181083Y-70676629D01*
X152181086Y-70676631D01*
X152363164Y-70752051D01*
X152556455Y-70790499D01*
X152556458Y-70790500D01*
X152556460Y-70790500D01*
X152753542Y-70790500D01*
X152753543Y-70790499D01*
X152946836Y-70752051D01*
X153128914Y-70676631D01*
X153292781Y-70567139D01*
X153300279Y-70559640D01*
X153300282Y-70559639D01*
X153439639Y-70420282D01*
X153549132Y-70256414D01*
X153574285Y-70195690D01*
X153624552Y-70074335D01*
X153631321Y-70040308D01*
X153663706Y-69978397D01*
X153724422Y-69943823D01*
X153752938Y-69940500D01*
X154575500Y-69940500D01*
X154642539Y-69960185D01*
X154688294Y-70012989D01*
X154699500Y-70064500D01*
X154699500Y-74893064D01*
X154679815Y-74960103D01*
X154658930Y-74982540D01*
X154659724Y-74983334D01*
X154653452Y-74989605D01*
X154567206Y-75104814D01*
X154567202Y-75104821D01*
X154516908Y-75239667D01*
X154510501Y-75299266D01*
X154510501Y-75299273D01*
X154510500Y-75299285D01*
X154510500Y-76157020D01*
X154510501Y-76157026D01*
X154516908Y-76216633D01*
X154567202Y-76351478D01*
X154567206Y-76351485D01*
X154653452Y-76466694D01*
X154653455Y-76466697D01*
X154768664Y-76552943D01*
X154768671Y-76552947D01*
X154903516Y-76603241D01*
X154929419Y-76606025D01*
X154963127Y-76609650D01*
X155032373Y-76609649D01*
X155099412Y-76629333D01*
X155113923Y-76641026D01*
X155114223Y-76640676D01*
X155117918Y-76643831D01*
X155117927Y-76643840D01*
X155270801Y-76754910D01*
X155299436Y-76769500D01*
X155439163Y-76840695D01*
X155439165Y-76840695D01*
X155439168Y-76840697D01*
X155524561Y-76868443D01*
X155618881Y-76899090D01*
X155768433Y-76922777D01*
X155831568Y-76952706D01*
X155868499Y-77012018D01*
X155867501Y-77081880D01*
X155828891Y-77140113D01*
X155764927Y-77168227D01*
X155749035Y-77169250D01*
X145250508Y-77169250D01*
X145183469Y-77149565D01*
X145162827Y-77132931D01*
X145119786Y-77089890D01*
X144947820Y-76964951D01*
X144758414Y-76868444D01*
X144758413Y-76868443D01*
X144758412Y-76868443D01*
X144556243Y-76802754D01*
X144556241Y-76802753D01*
X144556240Y-76802753D01*
X144394957Y-76777208D01*
X144346287Y-76769500D01*
X144133713Y-76769500D01*
X144085042Y-76777208D01*
X143923760Y-76802753D01*
X143721585Y-76868444D01*
X143532179Y-76964951D01*
X143360215Y-77089889D01*
X143246285Y-77203819D01*
X143184962Y-77237303D01*
X143115270Y-77232319D01*
X143059337Y-77190447D01*
X143042422Y-77159470D01*
X142993354Y-77027913D01*
X142993350Y-77027906D01*
X142907190Y-76912812D01*
X142907187Y-76912809D01*
X142792093Y-76826649D01*
X142792086Y-76826645D01*
X142657379Y-76776403D01*
X142657372Y-76776401D01*
X142597844Y-76770000D01*
X141950000Y-76770000D01*
X141950000Y-77686988D01*
X141892993Y-77654075D01*
X141765826Y-77620000D01*
X141634174Y-77620000D01*
X141507007Y-77654075D01*
X141450000Y-77686988D01*
X141450000Y-76770000D01*
X140802155Y-76770000D01*
X140742627Y-76776401D01*
X140742620Y-76776403D01*
X140607913Y-76826645D01*
X140607906Y-76826649D01*
X140492812Y-76912809D01*
X140492809Y-76912812D01*
X140406649Y-77027906D01*
X140406645Y-77027913D01*
X140356403Y-77162620D01*
X140356401Y-77162627D01*
X140350000Y-77222155D01*
X140350000Y-77870000D01*
X141266988Y-77870000D01*
X141234075Y-77927007D01*
X141200000Y-78054174D01*
X141200000Y-78185826D01*
X141234075Y-78312993D01*
X141266988Y-78370000D01*
X140350000Y-78370000D01*
X140350000Y-79017844D01*
X140356401Y-79077372D01*
X140356403Y-79077379D01*
X140406645Y-79212086D01*
X140406649Y-79212093D01*
X140492809Y-79327187D01*
X140492812Y-79327190D01*
X140607906Y-79413350D01*
X140607913Y-79413354D01*
X140742620Y-79463596D01*
X140742627Y-79463598D01*
X140802155Y-79469999D01*
X140802172Y-79470000D01*
X141450000Y-79470000D01*
X141450000Y-78553012D01*
X141507007Y-78585925D01*
X141634174Y-78620000D01*
X141765826Y-78620000D01*
X141892993Y-78585925D01*
X141950000Y-78553012D01*
X141950000Y-79470000D01*
X142597828Y-79470000D01*
X142597844Y-79469999D01*
X142657372Y-79463598D01*
X142657379Y-79463596D01*
X142792086Y-79413354D01*
X142792093Y-79413350D01*
X142907187Y-79327190D01*
X142907190Y-79327187D01*
X142993350Y-79212093D01*
X142993354Y-79212086D01*
X143042422Y-79080529D01*
X143084293Y-79024595D01*
X143149757Y-79000178D01*
X143218030Y-79015030D01*
X143246285Y-79036181D01*
X143360213Y-79150109D01*
X143532179Y-79275048D01*
X143532181Y-79275049D01*
X143532184Y-79275051D01*
X143721588Y-79371557D01*
X143923757Y-79437246D01*
X143928648Y-79438020D01*
X143965549Y-79450009D01*
X144028913Y-79482295D01*
X144028915Y-79482295D01*
X144028918Y-79482297D01*
X144125247Y-79513596D01*
X144208631Y-79540690D01*
X144395264Y-79570250D01*
X144395269Y-79570250D01*
X155994486Y-79570250D01*
X156181118Y-79540690D01*
X156360832Y-79482297D01*
X156529199Y-79396510D01*
X156682073Y-79285440D01*
X156682081Y-79285431D01*
X156685777Y-79282276D01*
X156687004Y-79283713D01*
X156741268Y-79254083D01*
X156767626Y-79251249D01*
X156836871Y-79251249D01*
X156836872Y-79251249D01*
X156896483Y-79244841D01*
X157031331Y-79194546D01*
X157146546Y-79108296D01*
X157232796Y-78993081D01*
X157283091Y-78858233D01*
X157289500Y-78798623D01*
X157289499Y-77940878D01*
X157283091Y-77881267D01*
X157257626Y-77812993D01*
X157232797Y-77746421D01*
X157232793Y-77746414D01*
X157146547Y-77631205D01*
X157146544Y-77631202D01*
X157031335Y-77544956D01*
X157031328Y-77544952D01*
X156896482Y-77494658D01*
X156896483Y-77494658D01*
X156836883Y-77488251D01*
X156836881Y-77488250D01*
X156836873Y-77488250D01*
X156836865Y-77488250D01*
X156767625Y-77488250D01*
X156700586Y-77468565D01*
X156686076Y-77456872D01*
X156685777Y-77457224D01*
X156682080Y-77454067D01*
X156682073Y-77454060D01*
X156529199Y-77342990D01*
X156526495Y-77341612D01*
X156360836Y-77257204D01*
X156181118Y-77198809D01*
X156008205Y-77171423D01*
X155945070Y-77141494D01*
X155908139Y-77082182D01*
X155909137Y-77012320D01*
X155947747Y-76954087D01*
X156008205Y-76926477D01*
X156181118Y-76899090D01*
X156184762Y-76897906D01*
X156360832Y-76840697D01*
X156529199Y-76754910D01*
X156682073Y-76643840D01*
X156682081Y-76643831D01*
X156685777Y-76640676D01*
X156687004Y-76642113D01*
X156741268Y-76612483D01*
X156767626Y-76609649D01*
X156836871Y-76609649D01*
X156836872Y-76609649D01*
X156896483Y-76603241D01*
X157031331Y-76552946D01*
X157146546Y-76466696D01*
X157232796Y-76351481D01*
X157283091Y-76216633D01*
X157289500Y-76157023D01*
X157289499Y-75299278D01*
X157283091Y-75239667D01*
X157232796Y-75104819D01*
X157232795Y-75104818D01*
X157232793Y-75104814D01*
X157146547Y-74989605D01*
X157140276Y-74983334D01*
X157142090Y-74981519D01*
X157108309Y-74936373D01*
X157100500Y-74893064D01*
X157100500Y-68105513D01*
X157077064Y-67957548D01*
X157070940Y-67918882D01*
X157046569Y-67843875D01*
X157040500Y-67805557D01*
X157040500Y-58916976D01*
X157060185Y-58849937D01*
X157112989Y-58804182D01*
X157140135Y-58796736D01*
X157139932Y-58795876D01*
X157147479Y-58794092D01*
X157147481Y-58794091D01*
X157147483Y-58794091D01*
X157282331Y-58743796D01*
X157397546Y-58657546D01*
X157483796Y-58542331D01*
X157534091Y-58407483D01*
X157540500Y-58347873D01*
X157540499Y-54852128D01*
X157534091Y-54792517D01*
X157520846Y-54757006D01*
X157483797Y-54657671D01*
X157483793Y-54657664D01*
X157397547Y-54542455D01*
X157397544Y-54542452D01*
X157282335Y-54456206D01*
X157282328Y-54456202D01*
X157147482Y-54405908D01*
X157147483Y-54405908D01*
X157087883Y-54399501D01*
X157087881Y-54399500D01*
X157087873Y-54399500D01*
X157087864Y-54399500D01*
X154592129Y-54399500D01*
X154592123Y-54399501D01*
X154532516Y-54405908D01*
X154397671Y-54456202D01*
X154397664Y-54456206D01*
X154282455Y-54542452D01*
X154282452Y-54542455D01*
X154196206Y-54657664D01*
X154196202Y-54657671D01*
X154145908Y-54792517D01*
X154139501Y-54852116D01*
X154139501Y-54852123D01*
X154139500Y-54852135D01*
X154139500Y-58347870D01*
X154139501Y-58347876D01*
X154145908Y-58407483D01*
X154196202Y-58542328D01*
X154196206Y-58542335D01*
X154282452Y-58657544D01*
X154282455Y-58657547D01*
X154397664Y-58743793D01*
X154397671Y-58743797D01*
X154532517Y-58794091D01*
X154540062Y-58795874D01*
X154539523Y-58798151D01*
X154593287Y-58820408D01*
X154633147Y-58877793D01*
X154639500Y-58916975D01*
X154639500Y-63285500D01*
X154619815Y-63352539D01*
X154567011Y-63398294D01*
X154515500Y-63409500D01*
X149765514Y-63409500D01*
X149578881Y-63439059D01*
X149399163Y-63497454D01*
X149230799Y-63583240D01*
X149227254Y-63585817D01*
X149161448Y-63609298D01*
X149154367Y-63609500D01*
X148799673Y-63609500D01*
X148752221Y-63600061D01*
X148584285Y-63530499D01*
X148584277Y-63530497D01*
X148390992Y-63492050D01*
X148390989Y-63492050D01*
X148193909Y-63492050D01*
X148193906Y-63492050D01*
X148000620Y-63530497D01*
X148000612Y-63530499D01*
X147818538Y-63605917D01*
X147818528Y-63605922D01*
X147654671Y-63715408D01*
X147631444Y-63738635D01*
X147570120Y-63772119D01*
X147500428Y-63767133D01*
X147474874Y-63754054D01*
X147443924Y-63733374D01*
X147443917Y-63733370D01*
X147443914Y-63733368D01*
X147443910Y-63733366D01*
X147443906Y-63733364D01*
X147261839Y-63657950D01*
X147261829Y-63657947D01*
X147068543Y-63619500D01*
X147068541Y-63619500D01*
X146871459Y-63619500D01*
X146871457Y-63619500D01*
X146678170Y-63657947D01*
X146678160Y-63657950D01*
X146496092Y-63733364D01*
X146496079Y-63733371D01*
X146332218Y-63842860D01*
X146332214Y-63842863D01*
X146192863Y-63982214D01*
X146192860Y-63982218D01*
X146083371Y-64146079D01*
X146083364Y-64146092D01*
X146007950Y-64328160D01*
X146007947Y-64328170D01*
X145984887Y-64444099D01*
X145963590Y-64492790D01*
X145943241Y-64520799D01*
X145857454Y-64689163D01*
X145799059Y-64868881D01*
X145769500Y-65055513D01*
X145769500Y-66935500D01*
X145749815Y-67002539D01*
X145697011Y-67048294D01*
X145645500Y-67059500D01*
X135179479Y-67059500D01*
X135112440Y-67039815D01*
X135066685Y-66987011D01*
X135056741Y-66917853D01*
X135085766Y-66854297D01*
X135123185Y-66825015D01*
X135149197Y-66811761D01*
X135149196Y-66811761D01*
X135149199Y-66811760D01*
X135302073Y-66700690D01*
X135338032Y-66664730D01*
X135399353Y-66631244D01*
X135469045Y-66636227D01*
X135473166Y-66637849D01*
X135628165Y-66702051D01*
X135628169Y-66702051D01*
X135628170Y-66702052D01*
X135821456Y-66740500D01*
X135821459Y-66740500D01*
X137788543Y-66740500D01*
X137918582Y-66714632D01*
X137981835Y-66702051D01*
X138136834Y-66637849D01*
X138163907Y-66626635D01*
X138163907Y-66626634D01*
X138163914Y-66626632D01*
X138303515Y-66533353D01*
X138370190Y-66512476D01*
X138406999Y-66517380D01*
X138509216Y-66547077D01*
X138509222Y-66547078D01*
X138546342Y-66549999D01*
X138546358Y-66550000D01*
X138575000Y-66550000D01*
X139075000Y-66550000D01*
X139103642Y-66550000D01*
X139103657Y-66549999D01*
X139140777Y-66547078D01*
X139140783Y-66547077D01*
X139299694Y-66500908D01*
X139299697Y-66500907D01*
X139442142Y-66416666D01*
X139442150Y-66416660D01*
X139559160Y-66299650D01*
X139559166Y-66299642D01*
X139643407Y-66157197D01*
X139643409Y-66157194D01*
X139689578Y-65998281D01*
X139690230Y-65990000D01*
X139075000Y-65990000D01*
X139075000Y-66550000D01*
X138575000Y-66550000D01*
X138575000Y-66242519D01*
X138584439Y-66195067D01*
X138652049Y-66031839D01*
X138652051Y-66031835D01*
X138660373Y-65990000D01*
X138675402Y-65914446D01*
X138675402Y-65914445D01*
X138690499Y-65838545D01*
X138690500Y-65838543D01*
X138690500Y-65641456D01*
X138660373Y-65490000D01*
X139075000Y-65490000D01*
X139690230Y-65490000D01*
X139689578Y-65481718D01*
X139643409Y-65322805D01*
X139643407Y-65322802D01*
X139559166Y-65180357D01*
X139559160Y-65180349D01*
X139442150Y-65063339D01*
X139442142Y-65063333D01*
X139299697Y-64979092D01*
X139299694Y-64979091D01*
X139140783Y-64932922D01*
X139140777Y-64932921D01*
X139103657Y-64930000D01*
X139075000Y-64930000D01*
X139075000Y-65490000D01*
X138660373Y-65490000D01*
X138652052Y-65448170D01*
X138652051Y-65448169D01*
X138652051Y-65448165D01*
X138640405Y-65420048D01*
X138584439Y-65284933D01*
X138575000Y-65237481D01*
X138575000Y-64930000D01*
X138546342Y-64930000D01*
X138509222Y-64932921D01*
X138406999Y-64962620D01*
X138337130Y-64962420D01*
X138303514Y-64946645D01*
X138163920Y-64853371D01*
X138163907Y-64853364D01*
X137981839Y-64777950D01*
X137981829Y-64777947D01*
X137788543Y-64739500D01*
X137788541Y-64739500D01*
X136629996Y-64739500D01*
X136563587Y-64720000D01*
X135816500Y-64720000D01*
X135749461Y-64700315D01*
X135703706Y-64647511D01*
X135692500Y-64596000D01*
X135692500Y-64470000D01*
X135689634Y-64467134D01*
X135632354Y-64450315D01*
X135586599Y-64397511D01*
X135578135Y-64371931D01*
X135577934Y-64370995D01*
X135547900Y-64220000D01*
X135942500Y-64220000D01*
X136557730Y-64220000D01*
X136557078Y-64211718D01*
X136510909Y-64052805D01*
X136510907Y-64052802D01*
X136426666Y-63910357D01*
X136426660Y-63910349D01*
X136309650Y-63793339D01*
X136309642Y-63793333D01*
X136167197Y-63709092D01*
X136167194Y-63709091D01*
X136008283Y-63662922D01*
X136008277Y-63662921D01*
X135971157Y-63660000D01*
X135942500Y-63660000D01*
X135942500Y-64220000D01*
X135547900Y-64220000D01*
X135544551Y-64203165D01*
X135543703Y-64201118D01*
X135482185Y-64052600D01*
X135469132Y-64021086D01*
X135469034Y-64020940D01*
X135463397Y-64012502D01*
X135442520Y-63945824D01*
X135442500Y-63943613D01*
X135442500Y-63660000D01*
X135413842Y-63660000D01*
X135376722Y-63662921D01*
X135274498Y-63692620D01*
X135204629Y-63692420D01*
X135171013Y-63676645D01*
X135031420Y-63583372D01*
X135031410Y-63583367D01*
X134849336Y-63507949D01*
X134849328Y-63507947D01*
X134656043Y-63469500D01*
X134656040Y-63469500D01*
X134458960Y-63469500D01*
X134458957Y-63469500D01*
X134265671Y-63507947D01*
X134265663Y-63507949D01*
X134083589Y-63583367D01*
X134083579Y-63583372D01*
X133919719Y-63692860D01*
X133919715Y-63692863D01*
X133780363Y-63832215D01*
X133780360Y-63832219D01*
X133670872Y-63996079D01*
X133670867Y-63996089D01*
X133614723Y-64131632D01*
X133596529Y-64175558D01*
X133595450Y-64178162D01*
X133595447Y-64178171D01*
X133557000Y-64371455D01*
X133557000Y-64460500D01*
X133537315Y-64527539D01*
X133484511Y-64573294D01*
X133433000Y-64584500D01*
X129490514Y-64584500D01*
X129303881Y-64614059D01*
X129124163Y-64672454D01*
X129030851Y-64720000D01*
X128969058Y-64751485D01*
X128912764Y-64765000D01*
X127974000Y-64765000D01*
X127906961Y-64745315D01*
X127861206Y-64692511D01*
X127850000Y-64641000D01*
X127850000Y-64389000D01*
X127869685Y-64321961D01*
X127922489Y-64276206D01*
X127974000Y-64265000D01*
X129138982Y-64265000D01*
X129169503Y-64248334D01*
X129195861Y-64245500D01*
X129413542Y-64245500D01*
X129431840Y-64241860D01*
X129510188Y-64226275D01*
X129606836Y-64207051D01*
X129676575Y-64178164D01*
X129788914Y-64131632D01*
X129920604Y-64043638D01*
X129970097Y-64024269D01*
X129991118Y-64020940D01*
X130170832Y-63962547D01*
X130339199Y-63876760D01*
X130492074Y-63765690D01*
X130895690Y-63362073D01*
X131006760Y-63209199D01*
X131092547Y-63040832D01*
X131150940Y-62861118D01*
X131157913Y-62817093D01*
X131180500Y-62674486D01*
X131180500Y-59464499D01*
X131200185Y-59397460D01*
X131252989Y-59351705D01*
X131304500Y-59340499D01*
X131430002Y-59340499D01*
X131430008Y-59340499D01*
X131532797Y-59329999D01*
X131699334Y-59274814D01*
X131848656Y-59182712D01*
X131972712Y-59058656D01*
X132064814Y-58909334D01*
X132119999Y-58742797D01*
X132130500Y-58640009D01*
X132130500Y-57924500D01*
X132150185Y-57857461D01*
X132202989Y-57811706D01*
X132254500Y-57800500D01*
X145815501Y-57800500D01*
X145882540Y-57820185D01*
X145928295Y-57872989D01*
X145939501Y-57924500D01*
X145939501Y-58347876D01*
X145945908Y-58407483D01*
X145996202Y-58542328D01*
X145996206Y-58542335D01*
X146082452Y-58657544D01*
X146082455Y-58657547D01*
X146197664Y-58743793D01*
X146197671Y-58743797D01*
X146332517Y-58794091D01*
X146332516Y-58794091D01*
X146339444Y-58794835D01*
X146392127Y-58800500D01*
X148887872Y-58800499D01*
X148947483Y-58794091D01*
X149082331Y-58743796D01*
X149197546Y-58657546D01*
X149283796Y-58542331D01*
X149334091Y-58407483D01*
X149340500Y-58347873D01*
X149340499Y-54852128D01*
X149334091Y-54792517D01*
X149320846Y-54757006D01*
X149283797Y-54657671D01*
X149283793Y-54657664D01*
X149197547Y-54542455D01*
X149197544Y-54542452D01*
X149082335Y-54456206D01*
X149082328Y-54456202D01*
X148947482Y-54405908D01*
X148947483Y-54405908D01*
X148887883Y-54399501D01*
X148887881Y-54399500D01*
X148887873Y-54399500D01*
X148887864Y-54399500D01*
X146392129Y-54399500D01*
X146392123Y-54399501D01*
X146332516Y-54405908D01*
X146197671Y-54456202D01*
X146197664Y-54456206D01*
X146082455Y-54542452D01*
X146082452Y-54542455D01*
X145996206Y-54657664D01*
X145996202Y-54657671D01*
X145945908Y-54792517D01*
X145939501Y-54852116D01*
X145939501Y-54852123D01*
X145939500Y-54852135D01*
X145939500Y-55275500D01*
X145919815Y-55342539D01*
X145867011Y-55388294D01*
X145815500Y-55399500D01*
X132254499Y-55399500D01*
X132187460Y-55379815D01*
X132141705Y-55327011D01*
X132130499Y-55275500D01*
X132130499Y-54539998D01*
X132130498Y-54539981D01*
X132119999Y-54437203D01*
X132119998Y-54437200D01*
X132086670Y-54336624D01*
X132064814Y-54270666D01*
X131972712Y-54121344D01*
X131848656Y-53997288D01*
X131699334Y-53905186D01*
X131532797Y-53850001D01*
X131532795Y-53850000D01*
X131430010Y-53839500D01*
X128529998Y-53839500D01*
X128529981Y-53839501D01*
X128427203Y-53850000D01*
X128427200Y-53850001D01*
X128260668Y-53905185D01*
X128260663Y-53905187D01*
X128111342Y-53997289D01*
X127987289Y-54121342D01*
X127895187Y-54270663D01*
X127895186Y-54270666D01*
X127840001Y-54437203D01*
X127840001Y-54437204D01*
X127840000Y-54437204D01*
X127829500Y-54539983D01*
X127829500Y-55265500D01*
X127809815Y-55332539D01*
X127757011Y-55378294D01*
X127705500Y-55389500D01*
X125877377Y-55389500D01*
X125857978Y-55387973D01*
X125804485Y-55379500D01*
X125804481Y-55379500D01*
X125615519Y-55379500D01*
X125615514Y-55379500D01*
X125428881Y-55409059D01*
X125249163Y-55467454D01*
X125080800Y-55553240D01*
X125063489Y-55565818D01*
X124997682Y-55589298D01*
X124990603Y-55589500D01*
X123951457Y-55589500D01*
X123758170Y-55627947D01*
X123758160Y-55627950D01*
X123576093Y-55703364D01*
X123576084Y-55703369D01*
X123481472Y-55766585D01*
X123414794Y-55787461D01*
X123347414Y-55768975D01*
X123343693Y-55766584D01*
X123323917Y-55753370D01*
X123323916Y-55753369D01*
X123323914Y-55753368D01*
X123323911Y-55753366D01*
X123323906Y-55753364D01*
X123141839Y-55677950D01*
X123141829Y-55677947D01*
X122948543Y-55639500D01*
X122948541Y-55639500D01*
X122751459Y-55639500D01*
X122751457Y-55639500D01*
X122558170Y-55677947D01*
X122558160Y-55677950D01*
X122376092Y-55753364D01*
X122376079Y-55753371D01*
X122212218Y-55862860D01*
X122212214Y-55862863D01*
X122072863Y-56002214D01*
X122072860Y-56002218D01*
X121963371Y-56166079D01*
X121963364Y-56166092D01*
X121887950Y-56348160D01*
X121887947Y-56348170D01*
X121849500Y-56541456D01*
X121849500Y-56823738D01*
X121829815Y-56890777D01*
X121798386Y-56924055D01*
X121687933Y-57004305D01*
X121687924Y-57004312D01*
X121554312Y-57137924D01*
X121554312Y-57137925D01*
X121554310Y-57137927D01*
X121506610Y-57203579D01*
X121443240Y-57290800D01*
X121357454Y-57459163D01*
X121299059Y-57638881D01*
X121269500Y-57825513D01*
X121269500Y-61499484D01*
X121267973Y-61518882D01*
X121249500Y-61635513D01*
X121249500Y-61824486D01*
X121279059Y-62011118D01*
X121337454Y-62190836D01*
X121423241Y-62359201D01*
X121423242Y-62359203D01*
X121424975Y-62361588D01*
X121425352Y-62362646D01*
X121425785Y-62363352D01*
X121425636Y-62363442D01*
X121448452Y-62427395D01*
X121432624Y-62495448D01*
X121399579Y-62533273D01*
X121322058Y-62592058D01*
X121236435Y-62704970D01*
X121236432Y-62704976D01*
X121184449Y-62836795D01*
X121184447Y-62836800D01*
X121174500Y-62919637D01*
X121174500Y-63385500D01*
X121154815Y-63452539D01*
X121102011Y-63498294D01*
X121050500Y-63509500D01*
X115818626Y-63509500D01*
X115751587Y-63489815D01*
X115730945Y-63473181D01*
X115584576Y-63326812D01*
X115584574Y-63326810D01*
X115431699Y-63215740D01*
X115418862Y-63209199D01*
X115263336Y-63129954D01*
X115083618Y-63071559D01*
X114896986Y-63042000D01*
X114896981Y-63042000D01*
X109879481Y-63042000D01*
X106604500Y-63042000D01*
X106537461Y-63022315D01*
X106491706Y-62969511D01*
X106480500Y-62918000D01*
X106480500Y-60183138D01*
X106500185Y-60116099D01*
X106539401Y-60077600D01*
X106648656Y-60010212D01*
X106772712Y-59886156D01*
X106864814Y-59736834D01*
X106919999Y-59570297D01*
X106930500Y-59467509D01*
X106930499Y-56367492D01*
X106919999Y-56264703D01*
X106864814Y-56098166D01*
X106772712Y-55948844D01*
X106648656Y-55824788D01*
X106499334Y-55732686D01*
X106332797Y-55677501D01*
X106332795Y-55677500D01*
X106230010Y-55667000D01*
X104329998Y-55667000D01*
X104329981Y-55667001D01*
X104227203Y-55677500D01*
X104227200Y-55677501D01*
X104060668Y-55732685D01*
X104060663Y-55732687D01*
X103911342Y-55824789D01*
X103787289Y-55948842D01*
X103695187Y-56098163D01*
X103695185Y-56098168D01*
X103667349Y-56182170D01*
X103640001Y-56264703D01*
X103640001Y-56264704D01*
X103640000Y-56264704D01*
X103629500Y-56367483D01*
X103629500Y-59467501D01*
X103629501Y-59467518D01*
X103640000Y-59570296D01*
X103640001Y-59570299D01*
X103695185Y-59736831D01*
X103695186Y-59736834D01*
X103787288Y-59886156D01*
X103911344Y-60010212D01*
X104020597Y-60077599D01*
X104067321Y-60129547D01*
X104079500Y-60183138D01*
X104079500Y-62925500D01*
X104059815Y-62992539D01*
X104007011Y-63038294D01*
X103955500Y-63049500D01*
X101814835Y-63049500D01*
X101747796Y-63029815D01*
X101725362Y-63008929D01*
X101724567Y-63009725D01*
X101718294Y-63003452D01*
X101603085Y-62917206D01*
X101603078Y-62917202D01*
X101468232Y-62866908D01*
X101468233Y-62866908D01*
X101408633Y-62860501D01*
X101408631Y-62860500D01*
X101408623Y-62860500D01*
X101408614Y-62860500D01*
X100550879Y-62860500D01*
X100550873Y-62860501D01*
X100491266Y-62866908D01*
X100356421Y-62917202D01*
X100356414Y-62917206D01*
X100241205Y-63003452D01*
X100241202Y-63003455D01*
X100154956Y-63118664D01*
X100154952Y-63118671D01*
X100104658Y-63253517D01*
X100101220Y-63285500D01*
X100098251Y-63313123D01*
X100098250Y-63313135D01*
X100098250Y-63382374D01*
X100078565Y-63449413D01*
X100066868Y-63463933D01*
X100067217Y-63464231D01*
X100064054Y-63467933D01*
X99952992Y-63620797D01*
X99867204Y-63789163D01*
X99808809Y-63968881D01*
X99781423Y-64141794D01*
X99751494Y-64204929D01*
X99692182Y-64241860D01*
X99622320Y-64240862D01*
X99564087Y-64202252D01*
X99536477Y-64141794D01*
X99509090Y-63968881D01*
X99450695Y-63789163D01*
X99393364Y-63676645D01*
X99364910Y-63620801D01*
X99253840Y-63467927D01*
X99253831Y-63467918D01*
X99250676Y-63464223D01*
X99252113Y-63462995D01*
X99222483Y-63408732D01*
X99219649Y-63382374D01*
X99219649Y-63313129D01*
X99219648Y-63313123D01*
X99219647Y-63313116D01*
X99213241Y-63253517D01*
X99196711Y-63209199D01*
X99162947Y-63118671D01*
X99162943Y-63118664D01*
X99076697Y-63003455D01*
X99076694Y-63003452D01*
X98961485Y-62917206D01*
X98961478Y-62917202D01*
X98826632Y-62866908D01*
X98826633Y-62866908D01*
X98767033Y-62860501D01*
X98767031Y-62860500D01*
X98767023Y-62860500D01*
X98767014Y-62860500D01*
X97909279Y-62860500D01*
X97909273Y-62860501D01*
X97849666Y-62866908D01*
X97714821Y-62917202D01*
X97714814Y-62917206D01*
X97599605Y-63003452D01*
X97599604Y-63003453D01*
X97591103Y-63014810D01*
X97535170Y-63056682D01*
X97491836Y-63064500D01*
X87855863Y-63064500D01*
X87788824Y-63044815D01*
X87743069Y-62992011D01*
X87733125Y-62922853D01*
X87756597Y-62866188D01*
X87793352Y-62817089D01*
X87793354Y-62817086D01*
X87843596Y-62682379D01*
X87843598Y-62682372D01*
X87849999Y-62622844D01*
X87850000Y-62622827D01*
X87850000Y-61975000D01*
X86933012Y-61975000D01*
X86965925Y-61917993D01*
X87000000Y-61790826D01*
X87000000Y-61659174D01*
X86965925Y-61532007D01*
X86933012Y-61475000D01*
X87850000Y-61475000D01*
X87850000Y-60827172D01*
X87849999Y-60827155D01*
X87843598Y-60767627D01*
X87843596Y-60767620D01*
X87793354Y-60632913D01*
X87793350Y-60632906D01*
X87707190Y-60517812D01*
X87707187Y-60517809D01*
X87592093Y-60431649D01*
X87592086Y-60431645D01*
X87457379Y-60381403D01*
X87457372Y-60381401D01*
X87397844Y-60375000D01*
X86750000Y-60375000D01*
X86750000Y-61291988D01*
X86692993Y-61259075D01*
X86565826Y-61225000D01*
X86434174Y-61225000D01*
X86307007Y-61259075D01*
X86250000Y-61291988D01*
X86250000Y-60375000D01*
X85602155Y-60375000D01*
X85542627Y-60381401D01*
X85542620Y-60381403D01*
X85407913Y-60431645D01*
X85407906Y-60431649D01*
X85292812Y-60517809D01*
X85292809Y-60517812D01*
X85206649Y-60632906D01*
X85206645Y-60632913D01*
X85156403Y-60767620D01*
X85156401Y-60767627D01*
X85150000Y-60827155D01*
X85150000Y-61475000D01*
X86066988Y-61475000D01*
X86034075Y-61532007D01*
X86000000Y-61659174D01*
X86000000Y-61790826D01*
X86034075Y-61917993D01*
X86066988Y-61975000D01*
X85150000Y-61975000D01*
X85150000Y-62622844D01*
X85156401Y-62682372D01*
X85156403Y-62682379D01*
X85206645Y-62817086D01*
X85206649Y-62817093D01*
X85292809Y-62932187D01*
X85292812Y-62932190D01*
X85407906Y-63018350D01*
X85407913Y-63018354D01*
X85539470Y-63067422D01*
X85595404Y-63109293D01*
X85619821Y-63174758D01*
X85604969Y-63243031D01*
X85583819Y-63271285D01*
X85469889Y-63385215D01*
X85344951Y-63557179D01*
X85248444Y-63746585D01*
X85248443Y-63746587D01*
X85248443Y-63746588D01*
X85240147Y-63772119D01*
X85182753Y-63948760D01*
X85167431Y-64045500D01*
X85149500Y-64158713D01*
X83500500Y-64158713D01*
X83500500Y-54067486D01*
X103630001Y-54067486D01*
X103640494Y-54170197D01*
X103695641Y-54336619D01*
X103695643Y-54336624D01*
X103787684Y-54485845D01*
X103911654Y-54609815D01*
X104060875Y-54701856D01*
X104060880Y-54701858D01*
X104227302Y-54757005D01*
X104227309Y-54757006D01*
X104330019Y-54767499D01*
X105029999Y-54767499D01*
X105530000Y-54767499D01*
X106229972Y-54767499D01*
X106229986Y-54767498D01*
X106332697Y-54757005D01*
X106499119Y-54701858D01*
X106499124Y-54701856D01*
X106648345Y-54609815D01*
X106772315Y-54485845D01*
X106864356Y-54336624D01*
X106864358Y-54336619D01*
X106919505Y-54170197D01*
X106919506Y-54170190D01*
X106929999Y-54067486D01*
X106930000Y-54067473D01*
X106930000Y-52767500D01*
X105530000Y-52767500D01*
X105530000Y-54767499D01*
X105029999Y-54767499D01*
X105030000Y-54767498D01*
X105030000Y-52767500D01*
X103630001Y-52767500D01*
X103630001Y-54067486D01*
X83500500Y-54067486D01*
X83500500Y-50967513D01*
X103630000Y-50967513D01*
X103630000Y-52267500D01*
X105030000Y-52267500D01*
X105530000Y-52267500D01*
X106929999Y-52267500D01*
X106929999Y-50967528D01*
X106929998Y-50967513D01*
X106919505Y-50864802D01*
X106864358Y-50698380D01*
X106864356Y-50698375D01*
X106772315Y-50549154D01*
X106648345Y-50425184D01*
X106499124Y-50333143D01*
X106499119Y-50333141D01*
X106332697Y-50277994D01*
X106332690Y-50277993D01*
X106229986Y-50267500D01*
X105530000Y-50267500D01*
X105530000Y-52267500D01*
X105030000Y-52267500D01*
X105030000Y-50267500D01*
X104330028Y-50267500D01*
X104330012Y-50267501D01*
X104227302Y-50277994D01*
X104060880Y-50333141D01*
X104060875Y-50333143D01*
X103911654Y-50425184D01*
X103787684Y-50549154D01*
X103695643Y-50698375D01*
X103695641Y-50698380D01*
X103640494Y-50864802D01*
X103640493Y-50864809D01*
X103630000Y-50967513D01*
X83500500Y-50967513D01*
X83500500Y-49839986D01*
X127830001Y-49839986D01*
X127840494Y-49942697D01*
X127895641Y-50109119D01*
X127895643Y-50109124D01*
X127987684Y-50258345D01*
X128111654Y-50382315D01*
X128260875Y-50474356D01*
X128260880Y-50474358D01*
X128427302Y-50529505D01*
X128427309Y-50529506D01*
X128530019Y-50539999D01*
X129729999Y-50539999D01*
X130230000Y-50539999D01*
X131429972Y-50539999D01*
X131429986Y-50539998D01*
X131532697Y-50529505D01*
X131699119Y-50474358D01*
X131699124Y-50474356D01*
X131848345Y-50382315D01*
X131972315Y-50258345D01*
X132064356Y-50109124D01*
X132064358Y-50109119D01*
X132119505Y-49942697D01*
X132119506Y-49942690D01*
X132129999Y-49839986D01*
X132130000Y-49839973D01*
X132130000Y-48040000D01*
X130230000Y-48040000D01*
X130230000Y-50539999D01*
X129729999Y-50539999D01*
X129730000Y-50539998D01*
X129730000Y-48040000D01*
X127830001Y-48040000D01*
X127830001Y-49839986D01*
X83500500Y-49839986D01*
X83500500Y-45264500D01*
X83520185Y-45197461D01*
X83572989Y-45151706D01*
X83624500Y-45140500D01*
X127877246Y-45140500D01*
X127944285Y-45160185D01*
G37*
%TD.AperFunction*%
%TD*%
M02*
