%TF.GenerationSoftware,KiCad,Pcbnew,10.0.0*%
%TF.CreationDate,2026-04-02T23:42:17-05:00*%
%TF.ProjectId,BuckConvSD2,4275636b-436f-46e7-9653-44322e6b6963,rev?*%
%TF.SameCoordinates,Original*%
%TF.FileFunction,Legend,Bot*%
%TF.FilePolarity,Positive*%
%FSLAX46Y46*%
G04 Gerber Fmt 4.6, Leading zero omitted, Abs format (unit mm)*
G04 Created by KiCad (PCBNEW 10.0.0) date 2026-04-02 23:42:17*
%MOMM*%
%LPD*%
G01*
G04 APERTURE LIST*
%ADD10C,0.158750*%
%ADD11C,0.187500*%
%ADD12C,0.300000*%
%ADD13C,0.000000*%
G04 APERTURE END LIST*
D10*
X109407142Y-70454100D02*
X108802380Y-70454100D01*
X109528094Y-70816957D02*
X109104761Y-69546957D01*
X109104761Y-69546957D02*
X108681427Y-70816957D01*
X107713809Y-70816957D02*
X107713809Y-69546957D01*
X107713809Y-70756481D02*
X107834761Y-70816957D01*
X107834761Y-70816957D02*
X108076666Y-70816957D01*
X108076666Y-70816957D02*
X108197618Y-70756481D01*
X108197618Y-70756481D02*
X108258095Y-70696004D01*
X108258095Y-70696004D02*
X108318571Y-70575052D01*
X108318571Y-70575052D02*
X108318571Y-70212195D01*
X108318571Y-70212195D02*
X108258095Y-70091242D01*
X108258095Y-70091242D02*
X108197618Y-70030766D01*
X108197618Y-70030766D02*
X108076666Y-69970290D01*
X108076666Y-69970290D02*
X107834761Y-69970290D01*
X107834761Y-69970290D02*
X107713809Y-70030766D01*
X107229999Y-69970290D02*
X106927618Y-70816957D01*
X106927618Y-70816957D02*
X106625237Y-69970290D01*
X106141428Y-70816957D02*
X106141428Y-69970290D01*
X106141428Y-69546957D02*
X106201904Y-69607433D01*
X106201904Y-69607433D02*
X106141428Y-69667909D01*
X106141428Y-69667909D02*
X106080951Y-69607433D01*
X106080951Y-69607433D02*
X106141428Y-69546957D01*
X106141428Y-69546957D02*
X106141428Y-69667909D01*
X105597142Y-70756481D02*
X105476189Y-70816957D01*
X105476189Y-70816957D02*
X105234285Y-70816957D01*
X105234285Y-70816957D02*
X105113332Y-70756481D01*
X105113332Y-70756481D02*
X105052856Y-70635528D01*
X105052856Y-70635528D02*
X105052856Y-70575052D01*
X105052856Y-70575052D02*
X105113332Y-70454100D01*
X105113332Y-70454100D02*
X105234285Y-70393623D01*
X105234285Y-70393623D02*
X105415713Y-70393623D01*
X105415713Y-70393623D02*
X105536666Y-70333147D01*
X105536666Y-70333147D02*
X105597142Y-70212195D01*
X105597142Y-70212195D02*
X105597142Y-70151719D01*
X105597142Y-70151719D02*
X105536666Y-70030766D01*
X105536666Y-70030766D02*
X105415713Y-69970290D01*
X105415713Y-69970290D02*
X105234285Y-69970290D01*
X105234285Y-69970290D02*
X105113332Y-70030766D01*
X104327142Y-70816957D02*
X104448094Y-70756481D01*
X104448094Y-70756481D02*
X104508571Y-70696004D01*
X104508571Y-70696004D02*
X104569047Y-70575052D01*
X104569047Y-70575052D02*
X104569047Y-70212195D01*
X104569047Y-70212195D02*
X104508571Y-70091242D01*
X104508571Y-70091242D02*
X104448094Y-70030766D01*
X104448094Y-70030766D02*
X104327142Y-69970290D01*
X104327142Y-69970290D02*
X104145713Y-69970290D01*
X104145713Y-69970290D02*
X104024761Y-70030766D01*
X104024761Y-70030766D02*
X103964285Y-70091242D01*
X103964285Y-70091242D02*
X103903809Y-70212195D01*
X103903809Y-70212195D02*
X103903809Y-70575052D01*
X103903809Y-70575052D02*
X103964285Y-70696004D01*
X103964285Y-70696004D02*
X104024761Y-70756481D01*
X104024761Y-70756481D02*
X104145713Y-70816957D01*
X104145713Y-70816957D02*
X104327142Y-70816957D01*
X103359523Y-70816957D02*
X103359523Y-69970290D01*
X103359523Y-70212195D02*
X103299046Y-70091242D01*
X103299046Y-70091242D02*
X103238570Y-70030766D01*
X103238570Y-70030766D02*
X103117618Y-69970290D01*
X103117618Y-69970290D02*
X102996665Y-69970290D01*
X102573333Y-70696004D02*
X102512856Y-70756481D01*
X102512856Y-70756481D02*
X102573333Y-70816957D01*
X102573333Y-70816957D02*
X102633809Y-70756481D01*
X102633809Y-70756481D02*
X102573333Y-70696004D01*
X102573333Y-70696004D02*
X102573333Y-70816957D01*
X102573333Y-70030766D02*
X102512856Y-70091242D01*
X102512856Y-70091242D02*
X102573333Y-70151719D01*
X102573333Y-70151719D02*
X102633809Y-70091242D01*
X102633809Y-70091242D02*
X102573333Y-70030766D01*
X102573333Y-70030766D02*
X102573333Y-70151719D01*
X114063809Y-72861586D02*
X114063809Y-71591586D01*
X114063809Y-71591586D02*
X113761428Y-71591586D01*
X113761428Y-71591586D02*
X113579999Y-71652062D01*
X113579999Y-71652062D02*
X113459047Y-71773014D01*
X113459047Y-71773014D02*
X113398570Y-71893967D01*
X113398570Y-71893967D02*
X113338094Y-72135871D01*
X113338094Y-72135871D02*
X113338094Y-72317300D01*
X113338094Y-72317300D02*
X113398570Y-72559205D01*
X113398570Y-72559205D02*
X113459047Y-72680157D01*
X113459047Y-72680157D02*
X113579999Y-72801110D01*
X113579999Y-72801110D02*
X113761428Y-72861586D01*
X113761428Y-72861586D02*
X114063809Y-72861586D01*
X112793809Y-72861586D02*
X112793809Y-72014919D01*
X112793809Y-72256824D02*
X112733332Y-72135871D01*
X112733332Y-72135871D02*
X112672856Y-72075395D01*
X112672856Y-72075395D02*
X112551904Y-72014919D01*
X112551904Y-72014919D02*
X112430951Y-72014919D01*
X111040000Y-72861586D02*
X111040000Y-71591586D01*
X111040000Y-71591586D02*
X110314285Y-72861586D01*
X110314285Y-72861586D02*
X110314285Y-71591586D01*
X109709524Y-72740633D02*
X109649047Y-72801110D01*
X109649047Y-72801110D02*
X109709524Y-72861586D01*
X109709524Y-72861586D02*
X109770000Y-72801110D01*
X109770000Y-72801110D02*
X109709524Y-72740633D01*
X109709524Y-72740633D02*
X109709524Y-72861586D01*
X108258095Y-71591586D02*
X107955714Y-72861586D01*
X107955714Y-72861586D02*
X107713809Y-71954443D01*
X107713809Y-71954443D02*
X107471904Y-72861586D01*
X107471904Y-72861586D02*
X107169524Y-71591586D01*
X106504285Y-72861586D02*
X106625237Y-72801110D01*
X106625237Y-72801110D02*
X106685714Y-72740633D01*
X106685714Y-72740633D02*
X106746190Y-72619681D01*
X106746190Y-72619681D02*
X106746190Y-72256824D01*
X106746190Y-72256824D02*
X106685714Y-72135871D01*
X106685714Y-72135871D02*
X106625237Y-72075395D01*
X106625237Y-72075395D02*
X106504285Y-72014919D01*
X106504285Y-72014919D02*
X106322856Y-72014919D01*
X106322856Y-72014919D02*
X106201904Y-72075395D01*
X106201904Y-72075395D02*
X106141428Y-72135871D01*
X106141428Y-72135871D02*
X106080952Y-72256824D01*
X106080952Y-72256824D02*
X106080952Y-72619681D01*
X106080952Y-72619681D02*
X106141428Y-72740633D01*
X106141428Y-72740633D02*
X106201904Y-72801110D01*
X106201904Y-72801110D02*
X106322856Y-72861586D01*
X106322856Y-72861586D02*
X106504285Y-72861586D01*
X105536666Y-72014919D02*
X105536666Y-72861586D01*
X105536666Y-72135871D02*
X105476189Y-72075395D01*
X105476189Y-72075395D02*
X105355237Y-72014919D01*
X105355237Y-72014919D02*
X105173808Y-72014919D01*
X105173808Y-72014919D02*
X105052856Y-72075395D01*
X105052856Y-72075395D02*
X104992380Y-72196348D01*
X104992380Y-72196348D02*
X104992380Y-72861586D01*
X103843332Y-72014919D02*
X103843332Y-73043014D01*
X103843332Y-73043014D02*
X103903808Y-73163967D01*
X103903808Y-73163967D02*
X103964284Y-73224443D01*
X103964284Y-73224443D02*
X104085237Y-73284919D01*
X104085237Y-73284919D02*
X104266665Y-73284919D01*
X104266665Y-73284919D02*
X104387618Y-73224443D01*
X103843332Y-72801110D02*
X103964284Y-72861586D01*
X103964284Y-72861586D02*
X104206189Y-72861586D01*
X104206189Y-72861586D02*
X104327141Y-72801110D01*
X104327141Y-72801110D02*
X104387618Y-72740633D01*
X104387618Y-72740633D02*
X104448094Y-72619681D01*
X104448094Y-72619681D02*
X104448094Y-72256824D01*
X104448094Y-72256824D02*
X104387618Y-72135871D01*
X104387618Y-72135871D02*
X104327141Y-72075395D01*
X104327141Y-72075395D02*
X104206189Y-72014919D01*
X104206189Y-72014919D02*
X103964284Y-72014919D01*
X103964284Y-72014919D02*
X103843332Y-72075395D01*
X103238570Y-72861586D02*
X103238570Y-71591586D01*
X103117617Y-72377776D02*
X102754760Y-72861586D01*
X102754760Y-72014919D02*
X103238570Y-72498729D01*
X101666189Y-72861586D02*
X101666189Y-72196348D01*
X101666189Y-72196348D02*
X101726665Y-72075395D01*
X101726665Y-72075395D02*
X101847617Y-72014919D01*
X101847617Y-72014919D02*
X102089522Y-72014919D01*
X102089522Y-72014919D02*
X102210475Y-72075395D01*
X101666189Y-72801110D02*
X101787141Y-72861586D01*
X101787141Y-72861586D02*
X102089522Y-72861586D01*
X102089522Y-72861586D02*
X102210475Y-72801110D01*
X102210475Y-72801110D02*
X102270951Y-72680157D01*
X102270951Y-72680157D02*
X102270951Y-72559205D01*
X102270951Y-72559205D02*
X102210475Y-72438252D01*
X102210475Y-72438252D02*
X102089522Y-72377776D01*
X102089522Y-72377776D02*
X101787141Y-72377776D01*
X101787141Y-72377776D02*
X101666189Y-72317300D01*
X101121903Y-72801110D02*
X101000950Y-72861586D01*
X101000950Y-72861586D02*
X100759046Y-72861586D01*
X100759046Y-72861586D02*
X100638093Y-72801110D01*
X100638093Y-72801110D02*
X100577617Y-72680157D01*
X100577617Y-72680157D02*
X100577617Y-72619681D01*
X100577617Y-72619681D02*
X100638093Y-72498729D01*
X100638093Y-72498729D02*
X100759046Y-72438252D01*
X100759046Y-72438252D02*
X100940474Y-72438252D01*
X100940474Y-72438252D02*
X101061427Y-72377776D01*
X101061427Y-72377776D02*
X101121903Y-72256824D01*
X101121903Y-72256824D02*
X101121903Y-72196348D01*
X101121903Y-72196348D02*
X101061427Y-72075395D01*
X101061427Y-72075395D02*
X100940474Y-72014919D01*
X100940474Y-72014919D02*
X100759046Y-72014919D01*
X100759046Y-72014919D02*
X100638093Y-72075395D01*
X99549522Y-72801110D02*
X99670474Y-72861586D01*
X99670474Y-72861586D02*
X99912379Y-72861586D01*
X99912379Y-72861586D02*
X100033332Y-72801110D01*
X100033332Y-72801110D02*
X100093808Y-72680157D01*
X100093808Y-72680157D02*
X100093808Y-72196348D01*
X100093808Y-72196348D02*
X100033332Y-72075395D01*
X100033332Y-72075395D02*
X99912379Y-72014919D01*
X99912379Y-72014919D02*
X99670474Y-72014919D01*
X99670474Y-72014919D02*
X99549522Y-72075395D01*
X99549522Y-72075395D02*
X99489046Y-72196348D01*
X99489046Y-72196348D02*
X99489046Y-72317300D01*
X99489046Y-72317300D02*
X100093808Y-72438252D01*
X98944761Y-72861586D02*
X98944761Y-72014919D01*
X98944761Y-72135871D02*
X98884284Y-72075395D01*
X98884284Y-72075395D02*
X98763332Y-72014919D01*
X98763332Y-72014919D02*
X98581903Y-72014919D01*
X98581903Y-72014919D02*
X98460951Y-72075395D01*
X98460951Y-72075395D02*
X98400475Y-72196348D01*
X98400475Y-72196348D02*
X98400475Y-72861586D01*
X98400475Y-72196348D02*
X98339999Y-72075395D01*
X98339999Y-72075395D02*
X98219046Y-72014919D01*
X98219046Y-72014919D02*
X98037618Y-72014919D01*
X98037618Y-72014919D02*
X97916665Y-72075395D01*
X97916665Y-72075395D02*
X97856189Y-72196348D01*
X97856189Y-72196348D02*
X97856189Y-72861586D01*
D11*
X113155216Y-61191930D02*
X113869502Y-61191930D01*
X113869502Y-61191930D02*
X113869502Y-59691930D01*
X112012359Y-61191930D02*
X112012359Y-60406216D01*
X112012359Y-60406216D02*
X112083787Y-60263359D01*
X112083787Y-60263359D02*
X112226644Y-60191930D01*
X112226644Y-60191930D02*
X112512359Y-60191930D01*
X112512359Y-60191930D02*
X112655216Y-60263359D01*
X112012359Y-61120502D02*
X112155216Y-61191930D01*
X112155216Y-61191930D02*
X112512359Y-61191930D01*
X112512359Y-61191930D02*
X112655216Y-61120502D01*
X112655216Y-61120502D02*
X112726644Y-60977644D01*
X112726644Y-60977644D02*
X112726644Y-60834787D01*
X112726644Y-60834787D02*
X112655216Y-60691930D01*
X112655216Y-60691930D02*
X112512359Y-60620502D01*
X112512359Y-60620502D02*
X112155216Y-60620502D01*
X112155216Y-60620502D02*
X112012359Y-60549073D01*
X110655216Y-60191930D02*
X110655216Y-61191930D01*
X111298073Y-60191930D02*
X111298073Y-60977644D01*
X111298073Y-60977644D02*
X111226644Y-61120502D01*
X111226644Y-61120502D02*
X111083787Y-61191930D01*
X111083787Y-61191930D02*
X110869501Y-61191930D01*
X110869501Y-61191930D02*
X110726644Y-61120502D01*
X110726644Y-61120502D02*
X110655216Y-61049073D01*
X109940930Y-61191930D02*
X109940930Y-60191930D01*
X109940930Y-60477644D02*
X109869501Y-60334787D01*
X109869501Y-60334787D02*
X109798073Y-60263359D01*
X109798073Y-60263359D02*
X109655215Y-60191930D01*
X109655215Y-60191930D02*
X109512358Y-60191930D01*
X108798073Y-61191930D02*
X108940930Y-61120502D01*
X108940930Y-61120502D02*
X109012359Y-61049073D01*
X109012359Y-61049073D02*
X109083787Y-60906216D01*
X109083787Y-60906216D02*
X109083787Y-60477644D01*
X109083787Y-60477644D02*
X109012359Y-60334787D01*
X109012359Y-60334787D02*
X108940930Y-60263359D01*
X108940930Y-60263359D02*
X108798073Y-60191930D01*
X108798073Y-60191930D02*
X108583787Y-60191930D01*
X108583787Y-60191930D02*
X108440930Y-60263359D01*
X108440930Y-60263359D02*
X108369502Y-60334787D01*
X108369502Y-60334787D02*
X108298073Y-60477644D01*
X108298073Y-60477644D02*
X108298073Y-60906216D01*
X108298073Y-60906216D02*
X108369502Y-61049073D01*
X108369502Y-61049073D02*
X108440930Y-61120502D01*
X108440930Y-61120502D02*
X108583787Y-61191930D01*
X108583787Y-61191930D02*
X108798073Y-61191930D01*
X105655216Y-61049073D02*
X105726644Y-61120502D01*
X105726644Y-61120502D02*
X105940930Y-61191930D01*
X105940930Y-61191930D02*
X106083787Y-61191930D01*
X106083787Y-61191930D02*
X106298073Y-61120502D01*
X106298073Y-61120502D02*
X106440930Y-60977644D01*
X106440930Y-60977644D02*
X106512359Y-60834787D01*
X106512359Y-60834787D02*
X106583787Y-60549073D01*
X106583787Y-60549073D02*
X106583787Y-60334787D01*
X106583787Y-60334787D02*
X106512359Y-60049073D01*
X106512359Y-60049073D02*
X106440930Y-59906216D01*
X106440930Y-59906216D02*
X106298073Y-59763359D01*
X106298073Y-59763359D02*
X106083787Y-59691930D01*
X106083787Y-59691930D02*
X105940930Y-59691930D01*
X105940930Y-59691930D02*
X105726644Y-59763359D01*
X105726644Y-59763359D02*
X105655216Y-59834787D01*
X104369502Y-61191930D02*
X104369502Y-60406216D01*
X104369502Y-60406216D02*
X104440930Y-60263359D01*
X104440930Y-60263359D02*
X104583787Y-60191930D01*
X104583787Y-60191930D02*
X104869502Y-60191930D01*
X104869502Y-60191930D02*
X105012359Y-60263359D01*
X104369502Y-61120502D02*
X104512359Y-61191930D01*
X104512359Y-61191930D02*
X104869502Y-61191930D01*
X104869502Y-61191930D02*
X105012359Y-61120502D01*
X105012359Y-61120502D02*
X105083787Y-60977644D01*
X105083787Y-60977644D02*
X105083787Y-60834787D01*
X105083787Y-60834787D02*
X105012359Y-60691930D01*
X105012359Y-60691930D02*
X104869502Y-60620502D01*
X104869502Y-60620502D02*
X104512359Y-60620502D01*
X104512359Y-60620502D02*
X104369502Y-60549073D01*
X103655216Y-60191930D02*
X103655216Y-61191930D01*
X103655216Y-60334787D02*
X103583787Y-60263359D01*
X103583787Y-60263359D02*
X103440930Y-60191930D01*
X103440930Y-60191930D02*
X103226644Y-60191930D01*
X103226644Y-60191930D02*
X103083787Y-60263359D01*
X103083787Y-60263359D02*
X103012359Y-60406216D01*
X103012359Y-60406216D02*
X103012359Y-61191930D01*
X102512358Y-60191930D02*
X101940930Y-60191930D01*
X102298073Y-59691930D02*
X102298073Y-60977644D01*
X102298073Y-60977644D02*
X102226644Y-61120502D01*
X102226644Y-61120502D02*
X102083787Y-61191930D01*
X102083787Y-61191930D02*
X101940930Y-61191930D01*
X100798073Y-60191930D02*
X100798073Y-61191930D01*
X101440930Y-60191930D02*
X101440930Y-60977644D01*
X101440930Y-60977644D02*
X101369501Y-61120502D01*
X101369501Y-61120502D02*
X101226644Y-61191930D01*
X101226644Y-61191930D02*
X101012358Y-61191930D01*
X101012358Y-61191930D02*
X100869501Y-61120502D01*
X100869501Y-61120502D02*
X100798073Y-61049073D01*
X113869502Y-63606846D02*
X113869502Y-62106846D01*
X113869502Y-62106846D02*
X113512359Y-62106846D01*
X113512359Y-62106846D02*
X113298073Y-62178275D01*
X113298073Y-62178275D02*
X113155216Y-62321132D01*
X113155216Y-62321132D02*
X113083787Y-62463989D01*
X113083787Y-62463989D02*
X113012359Y-62749703D01*
X113012359Y-62749703D02*
X113012359Y-62963989D01*
X113012359Y-62963989D02*
X113083787Y-63249703D01*
X113083787Y-63249703D02*
X113155216Y-63392560D01*
X113155216Y-63392560D02*
X113298073Y-63535418D01*
X113298073Y-63535418D02*
X113512359Y-63606846D01*
X113512359Y-63606846D02*
X113869502Y-63606846D01*
X111726645Y-63606846D02*
X111726645Y-62821132D01*
X111726645Y-62821132D02*
X111798073Y-62678275D01*
X111798073Y-62678275D02*
X111940930Y-62606846D01*
X111940930Y-62606846D02*
X112226645Y-62606846D01*
X112226645Y-62606846D02*
X112369502Y-62678275D01*
X111726645Y-63535418D02*
X111869502Y-63606846D01*
X111869502Y-63606846D02*
X112226645Y-63606846D01*
X112226645Y-63606846D02*
X112369502Y-63535418D01*
X112369502Y-63535418D02*
X112440930Y-63392560D01*
X112440930Y-63392560D02*
X112440930Y-63249703D01*
X112440930Y-63249703D02*
X112369502Y-63106846D01*
X112369502Y-63106846D02*
X112226645Y-63035418D01*
X112226645Y-63035418D02*
X111869502Y-63035418D01*
X111869502Y-63035418D02*
X111726645Y-62963989D01*
X111012359Y-62606846D02*
X111012359Y-63606846D01*
X111012359Y-62749703D02*
X110940930Y-62678275D01*
X110940930Y-62678275D02*
X110798073Y-62606846D01*
X110798073Y-62606846D02*
X110583787Y-62606846D01*
X110583787Y-62606846D02*
X110440930Y-62678275D01*
X110440930Y-62678275D02*
X110369502Y-62821132D01*
X110369502Y-62821132D02*
X110369502Y-63606846D01*
X109655216Y-63606846D02*
X109655216Y-62606846D01*
X109655216Y-62106846D02*
X109726644Y-62178275D01*
X109726644Y-62178275D02*
X109655216Y-62249703D01*
X109655216Y-62249703D02*
X109583787Y-62178275D01*
X109583787Y-62178275D02*
X109655216Y-62106846D01*
X109655216Y-62106846D02*
X109655216Y-62249703D01*
X108369501Y-63535418D02*
X108512358Y-63606846D01*
X108512358Y-63606846D02*
X108798073Y-63606846D01*
X108798073Y-63606846D02*
X108940930Y-63535418D01*
X108940930Y-63535418D02*
X109012358Y-63392560D01*
X109012358Y-63392560D02*
X109012358Y-62821132D01*
X109012358Y-62821132D02*
X108940930Y-62678275D01*
X108940930Y-62678275D02*
X108798073Y-62606846D01*
X108798073Y-62606846D02*
X108512358Y-62606846D01*
X108512358Y-62606846D02*
X108369501Y-62678275D01*
X108369501Y-62678275D02*
X108298073Y-62821132D01*
X108298073Y-62821132D02*
X108298073Y-62963989D01*
X108298073Y-62963989D02*
X109012358Y-63106846D01*
X107440930Y-63606846D02*
X107583787Y-63535418D01*
X107583787Y-63535418D02*
X107655216Y-63392560D01*
X107655216Y-63392560D02*
X107655216Y-62106846D01*
X105726645Y-63606846D02*
X105726645Y-62106846D01*
X105726645Y-62106846D02*
X105369502Y-62106846D01*
X105369502Y-62106846D02*
X105155216Y-62178275D01*
X105155216Y-62178275D02*
X105012359Y-62321132D01*
X105012359Y-62321132D02*
X104940930Y-62463989D01*
X104940930Y-62463989D02*
X104869502Y-62749703D01*
X104869502Y-62749703D02*
X104869502Y-62963989D01*
X104869502Y-62963989D02*
X104940930Y-63249703D01*
X104940930Y-63249703D02*
X105012359Y-63392560D01*
X105012359Y-63392560D02*
X105155216Y-63535418D01*
X105155216Y-63535418D02*
X105369502Y-63606846D01*
X105369502Y-63606846D02*
X105726645Y-63606846D01*
X104226645Y-63606846D02*
X104226645Y-62606846D01*
X104226645Y-62892560D02*
X104155216Y-62749703D01*
X104155216Y-62749703D02*
X104083788Y-62678275D01*
X104083788Y-62678275D02*
X103940930Y-62606846D01*
X103940930Y-62606846D02*
X103798073Y-62606846D01*
X102655217Y-63606846D02*
X102655217Y-62821132D01*
X102655217Y-62821132D02*
X102726645Y-62678275D01*
X102726645Y-62678275D02*
X102869502Y-62606846D01*
X102869502Y-62606846D02*
X103155217Y-62606846D01*
X103155217Y-62606846D02*
X103298074Y-62678275D01*
X102655217Y-63535418D02*
X102798074Y-63606846D01*
X102798074Y-63606846D02*
X103155217Y-63606846D01*
X103155217Y-63606846D02*
X103298074Y-63535418D01*
X103298074Y-63535418D02*
X103369502Y-63392560D01*
X103369502Y-63392560D02*
X103369502Y-63249703D01*
X103369502Y-63249703D02*
X103298074Y-63106846D01*
X103298074Y-63106846D02*
X103155217Y-63035418D01*
X103155217Y-63035418D02*
X102798074Y-63035418D01*
X102798074Y-63035418D02*
X102655217Y-62963989D01*
X101940931Y-62606846D02*
X101940931Y-63606846D01*
X101940931Y-62749703D02*
X101869502Y-62678275D01*
X101869502Y-62678275D02*
X101726645Y-62606846D01*
X101726645Y-62606846D02*
X101512359Y-62606846D01*
X101512359Y-62606846D02*
X101369502Y-62678275D01*
X101369502Y-62678275D02*
X101298074Y-62821132D01*
X101298074Y-62821132D02*
X101298074Y-63606846D01*
X100012359Y-63535418D02*
X100155216Y-63606846D01*
X100155216Y-63606846D02*
X100440931Y-63606846D01*
X100440931Y-63606846D02*
X100583788Y-63535418D01*
X100583788Y-63535418D02*
X100655216Y-63392560D01*
X100655216Y-63392560D02*
X100655216Y-62821132D01*
X100655216Y-62821132D02*
X100583788Y-62678275D01*
X100583788Y-62678275D02*
X100440931Y-62606846D01*
X100440931Y-62606846D02*
X100155216Y-62606846D01*
X100155216Y-62606846D02*
X100012359Y-62678275D01*
X100012359Y-62678275D02*
X99940931Y-62821132D01*
X99940931Y-62821132D02*
X99940931Y-62963989D01*
X99940931Y-62963989D02*
X100655216Y-63106846D01*
X113440930Y-64521762D02*
X113440930Y-65593191D01*
X113440930Y-65593191D02*
X113512359Y-65807476D01*
X113512359Y-65807476D02*
X113655216Y-65950334D01*
X113655216Y-65950334D02*
X113869502Y-66021762D01*
X113869502Y-66021762D02*
X114012359Y-66021762D01*
X112155216Y-65950334D02*
X112298073Y-66021762D01*
X112298073Y-66021762D02*
X112583788Y-66021762D01*
X112583788Y-66021762D02*
X112726645Y-65950334D01*
X112726645Y-65950334D02*
X112798073Y-65807476D01*
X112798073Y-65807476D02*
X112798073Y-65236048D01*
X112798073Y-65236048D02*
X112726645Y-65093191D01*
X112726645Y-65093191D02*
X112583788Y-65021762D01*
X112583788Y-65021762D02*
X112298073Y-65021762D01*
X112298073Y-65021762D02*
X112155216Y-65093191D01*
X112155216Y-65093191D02*
X112083788Y-65236048D01*
X112083788Y-65236048D02*
X112083788Y-65378905D01*
X112083788Y-65378905D02*
X112798073Y-65521762D01*
X111512359Y-65950334D02*
X111369502Y-66021762D01*
X111369502Y-66021762D02*
X111083788Y-66021762D01*
X111083788Y-66021762D02*
X110940931Y-65950334D01*
X110940931Y-65950334D02*
X110869502Y-65807476D01*
X110869502Y-65807476D02*
X110869502Y-65736048D01*
X110869502Y-65736048D02*
X110940931Y-65593191D01*
X110940931Y-65593191D02*
X111083788Y-65521762D01*
X111083788Y-65521762D02*
X111298074Y-65521762D01*
X111298074Y-65521762D02*
X111440931Y-65450334D01*
X111440931Y-65450334D02*
X111512359Y-65307476D01*
X111512359Y-65307476D02*
X111512359Y-65236048D01*
X111512359Y-65236048D02*
X111440931Y-65093191D01*
X111440931Y-65093191D02*
X111298074Y-65021762D01*
X111298074Y-65021762D02*
X111083788Y-65021762D01*
X111083788Y-65021762D02*
X110940931Y-65093191D01*
X109583788Y-65021762D02*
X109583788Y-66021762D01*
X110226645Y-65021762D02*
X110226645Y-65807476D01*
X110226645Y-65807476D02*
X110155216Y-65950334D01*
X110155216Y-65950334D02*
X110012359Y-66021762D01*
X110012359Y-66021762D02*
X109798073Y-66021762D01*
X109798073Y-66021762D02*
X109655216Y-65950334D01*
X109655216Y-65950334D02*
X109583788Y-65878905D01*
X108940930Y-65950334D02*
X108798073Y-66021762D01*
X108798073Y-66021762D02*
X108512359Y-66021762D01*
X108512359Y-66021762D02*
X108369502Y-65950334D01*
X108369502Y-65950334D02*
X108298073Y-65807476D01*
X108298073Y-65807476D02*
X108298073Y-65736048D01*
X108298073Y-65736048D02*
X108369502Y-65593191D01*
X108369502Y-65593191D02*
X108512359Y-65521762D01*
X108512359Y-65521762D02*
X108726645Y-65521762D01*
X108726645Y-65521762D02*
X108869502Y-65450334D01*
X108869502Y-65450334D02*
X108940930Y-65307476D01*
X108940930Y-65307476D02*
X108940930Y-65236048D01*
X108940930Y-65236048D02*
X108869502Y-65093191D01*
X108869502Y-65093191D02*
X108726645Y-65021762D01*
X108726645Y-65021762D02*
X108512359Y-65021762D01*
X108512359Y-65021762D02*
X108369502Y-65093191D01*
X106512359Y-66021762D02*
X106512359Y-64521762D01*
X106512359Y-64521762D02*
X106012359Y-65593191D01*
X106012359Y-65593191D02*
X105512359Y-64521762D01*
X105512359Y-64521762D02*
X105512359Y-66021762D01*
X104155216Y-66021762D02*
X104155216Y-65236048D01*
X104155216Y-65236048D02*
X104226644Y-65093191D01*
X104226644Y-65093191D02*
X104369501Y-65021762D01*
X104369501Y-65021762D02*
X104655216Y-65021762D01*
X104655216Y-65021762D02*
X104798073Y-65093191D01*
X104155216Y-65950334D02*
X104298073Y-66021762D01*
X104298073Y-66021762D02*
X104655216Y-66021762D01*
X104655216Y-66021762D02*
X104798073Y-65950334D01*
X104798073Y-65950334D02*
X104869501Y-65807476D01*
X104869501Y-65807476D02*
X104869501Y-65664619D01*
X104869501Y-65664619D02*
X104798073Y-65521762D01*
X104798073Y-65521762D02*
X104655216Y-65450334D01*
X104655216Y-65450334D02*
X104298073Y-65450334D01*
X104298073Y-65450334D02*
X104155216Y-65378905D01*
X103440930Y-66021762D02*
X103440930Y-65021762D01*
X103440930Y-65307476D02*
X103369501Y-65164619D01*
X103369501Y-65164619D02*
X103298073Y-65093191D01*
X103298073Y-65093191D02*
X103155215Y-65021762D01*
X103155215Y-65021762D02*
X103012358Y-65021762D01*
X102726644Y-65021762D02*
X102155216Y-65021762D01*
X102512359Y-64521762D02*
X102512359Y-65807476D01*
X102512359Y-65807476D02*
X102440930Y-65950334D01*
X102440930Y-65950334D02*
X102298073Y-66021762D01*
X102298073Y-66021762D02*
X102155216Y-66021762D01*
X101655216Y-66021762D02*
X101655216Y-65021762D01*
X101655216Y-64521762D02*
X101726644Y-64593191D01*
X101726644Y-64593191D02*
X101655216Y-64664619D01*
X101655216Y-64664619D02*
X101583787Y-64593191D01*
X101583787Y-64593191D02*
X101655216Y-64521762D01*
X101655216Y-64521762D02*
X101655216Y-64664619D01*
X100940930Y-65021762D02*
X100940930Y-66021762D01*
X100940930Y-65164619D02*
X100869501Y-65093191D01*
X100869501Y-65093191D02*
X100726644Y-65021762D01*
X100726644Y-65021762D02*
X100512358Y-65021762D01*
X100512358Y-65021762D02*
X100369501Y-65093191D01*
X100369501Y-65093191D02*
X100298073Y-65236048D01*
X100298073Y-65236048D02*
X100298073Y-66021762D01*
X99012358Y-65950334D02*
X99155215Y-66021762D01*
X99155215Y-66021762D02*
X99440930Y-66021762D01*
X99440930Y-66021762D02*
X99583787Y-65950334D01*
X99583787Y-65950334D02*
X99655215Y-65807476D01*
X99655215Y-65807476D02*
X99655215Y-65236048D01*
X99655215Y-65236048D02*
X99583787Y-65093191D01*
X99583787Y-65093191D02*
X99440930Y-65021762D01*
X99440930Y-65021762D02*
X99155215Y-65021762D01*
X99155215Y-65021762D02*
X99012358Y-65093191D01*
X99012358Y-65093191D02*
X98940930Y-65236048D01*
X98940930Y-65236048D02*
X98940930Y-65378905D01*
X98940930Y-65378905D02*
X99655215Y-65521762D01*
X98440930Y-65021762D02*
X97655216Y-65021762D01*
X97655216Y-65021762D02*
X98440930Y-66021762D01*
X98440930Y-66021762D02*
X97655216Y-66021762D01*
X113155216Y-68436678D02*
X113869502Y-68436678D01*
X113869502Y-68436678D02*
X113869502Y-66936678D01*
X112012359Y-67436678D02*
X112012359Y-68436678D01*
X112655216Y-67436678D02*
X112655216Y-68222392D01*
X112655216Y-68222392D02*
X112583787Y-68365250D01*
X112583787Y-68365250D02*
X112440930Y-68436678D01*
X112440930Y-68436678D02*
X112226644Y-68436678D01*
X112226644Y-68436678D02*
X112083787Y-68365250D01*
X112083787Y-68365250D02*
X112012359Y-68293821D01*
X111298073Y-68436678D02*
X111298073Y-67436678D01*
X111298073Y-66936678D02*
X111369501Y-67008107D01*
X111369501Y-67008107D02*
X111298073Y-67079535D01*
X111298073Y-67079535D02*
X111226644Y-67008107D01*
X111226644Y-67008107D02*
X111298073Y-66936678D01*
X111298073Y-66936678D02*
X111298073Y-67079535D01*
X110655215Y-68365250D02*
X110512358Y-68436678D01*
X110512358Y-68436678D02*
X110226644Y-68436678D01*
X110226644Y-68436678D02*
X110083787Y-68365250D01*
X110083787Y-68365250D02*
X110012358Y-68222392D01*
X110012358Y-68222392D02*
X110012358Y-68150964D01*
X110012358Y-68150964D02*
X110083787Y-68008107D01*
X110083787Y-68008107D02*
X110226644Y-67936678D01*
X110226644Y-67936678D02*
X110440930Y-67936678D01*
X110440930Y-67936678D02*
X110583787Y-67865250D01*
X110583787Y-67865250D02*
X110655215Y-67722392D01*
X110655215Y-67722392D02*
X110655215Y-67650964D01*
X110655215Y-67650964D02*
X110583787Y-67508107D01*
X110583787Y-67508107D02*
X110440930Y-67436678D01*
X110440930Y-67436678D02*
X110226644Y-67436678D01*
X110226644Y-67436678D02*
X110083787Y-67508107D01*
X108440929Y-66936678D02*
X107583787Y-66936678D01*
X108012358Y-68436678D02*
X108012358Y-66936678D01*
X107083787Y-68436678D02*
X107083787Y-67436678D01*
X107083787Y-67722392D02*
X107012358Y-67579535D01*
X107012358Y-67579535D02*
X106940930Y-67508107D01*
X106940930Y-67508107D02*
X106798072Y-67436678D01*
X106798072Y-67436678D02*
X106655215Y-67436678D01*
X105583787Y-68365250D02*
X105726644Y-68436678D01*
X105726644Y-68436678D02*
X106012359Y-68436678D01*
X106012359Y-68436678D02*
X106155216Y-68365250D01*
X106155216Y-68365250D02*
X106226644Y-68222392D01*
X106226644Y-68222392D02*
X106226644Y-67650964D01*
X106226644Y-67650964D02*
X106155216Y-67508107D01*
X106155216Y-67508107D02*
X106012359Y-67436678D01*
X106012359Y-67436678D02*
X105726644Y-67436678D01*
X105726644Y-67436678D02*
X105583787Y-67508107D01*
X105583787Y-67508107D02*
X105512359Y-67650964D01*
X105512359Y-67650964D02*
X105512359Y-67793821D01*
X105512359Y-67793821D02*
X106226644Y-67936678D01*
X105012359Y-67436678D02*
X104655216Y-68436678D01*
X104655216Y-68436678D02*
X104298073Y-67436678D01*
X103726645Y-68436678D02*
X103726645Y-67436678D01*
X103726645Y-66936678D02*
X103798073Y-67008107D01*
X103798073Y-67008107D02*
X103726645Y-67079535D01*
X103726645Y-67079535D02*
X103655216Y-67008107D01*
X103655216Y-67008107D02*
X103726645Y-66936678D01*
X103726645Y-66936678D02*
X103726645Y-67079535D01*
X103012359Y-67436678D02*
X103012359Y-68436678D01*
X103012359Y-67579535D02*
X102940930Y-67508107D01*
X102940930Y-67508107D02*
X102798073Y-67436678D01*
X102798073Y-67436678D02*
X102583787Y-67436678D01*
X102583787Y-67436678D02*
X102440930Y-67508107D01*
X102440930Y-67508107D02*
X102369502Y-67650964D01*
X102369502Y-67650964D02*
X102369502Y-68436678D01*
X101440930Y-68436678D02*
X101583787Y-68365250D01*
X101583787Y-68365250D02*
X101655216Y-68293821D01*
X101655216Y-68293821D02*
X101726644Y-68150964D01*
X101726644Y-68150964D02*
X101726644Y-67722392D01*
X101726644Y-67722392D02*
X101655216Y-67579535D01*
X101655216Y-67579535D02*
X101583787Y-67508107D01*
X101583787Y-67508107D02*
X101440930Y-67436678D01*
X101440930Y-67436678D02*
X101226644Y-67436678D01*
X101226644Y-67436678D02*
X101083787Y-67508107D01*
X101083787Y-67508107D02*
X101012359Y-67579535D01*
X101012359Y-67579535D02*
X100940930Y-67722392D01*
X100940930Y-67722392D02*
X100940930Y-68150964D01*
X100940930Y-68150964D02*
X101012359Y-68293821D01*
X101012359Y-68293821D02*
X101083787Y-68365250D01*
X101083787Y-68365250D02*
X101226644Y-68436678D01*
X101226644Y-68436678D02*
X101440930Y-68436678D01*
D12*
X110702856Y-51140996D02*
X109845714Y-51140996D01*
X110274285Y-52640996D02*
X110274285Y-51140996D01*
X109345714Y-51855282D02*
X108845714Y-51855282D01*
X108631428Y-52640996D02*
X109345714Y-52640996D01*
X109345714Y-52640996D02*
X109345714Y-51140996D01*
X109345714Y-51140996D02*
X108631428Y-51140996D01*
X108059999Y-52212425D02*
X107345714Y-52212425D01*
X108202856Y-52640996D02*
X107702856Y-51140996D01*
X107702856Y-51140996D02*
X107202856Y-52640996D01*
X106702857Y-52640996D02*
X106702857Y-51140996D01*
X106702857Y-51140996D02*
X106202857Y-52212425D01*
X106202857Y-52212425D02*
X105702857Y-51140996D01*
X105702857Y-51140996D02*
X105702857Y-52640996D01*
X103202857Y-51640996D02*
X103202857Y-52640996D01*
X103559999Y-51069568D02*
X103917142Y-52140996D01*
X103917142Y-52140996D02*
X102988571Y-52140996D01*
X115631428Y-54984484D02*
X115417143Y-55055912D01*
X115417143Y-55055912D02*
X115060000Y-55055912D01*
X115060000Y-55055912D02*
X114917143Y-54984484D01*
X114917143Y-54984484D02*
X114845714Y-54913055D01*
X114845714Y-54913055D02*
X114774285Y-54770198D01*
X114774285Y-54770198D02*
X114774285Y-54627341D01*
X114774285Y-54627341D02*
X114845714Y-54484484D01*
X114845714Y-54484484D02*
X114917143Y-54413055D01*
X114917143Y-54413055D02*
X115060000Y-54341626D01*
X115060000Y-54341626D02*
X115345714Y-54270198D01*
X115345714Y-54270198D02*
X115488571Y-54198769D01*
X115488571Y-54198769D02*
X115560000Y-54127341D01*
X115560000Y-54127341D02*
X115631428Y-53984484D01*
X115631428Y-53984484D02*
X115631428Y-53841626D01*
X115631428Y-53841626D02*
X115560000Y-53698769D01*
X115560000Y-53698769D02*
X115488571Y-53627341D01*
X115488571Y-53627341D02*
X115345714Y-53555912D01*
X115345714Y-53555912D02*
X114988571Y-53555912D01*
X114988571Y-53555912D02*
X114774285Y-53627341D01*
X113560000Y-54984484D02*
X113702857Y-55055912D01*
X113702857Y-55055912D02*
X113988572Y-55055912D01*
X113988572Y-55055912D02*
X114131429Y-54984484D01*
X114131429Y-54984484D02*
X114202857Y-54841626D01*
X114202857Y-54841626D02*
X114202857Y-54270198D01*
X114202857Y-54270198D02*
X114131429Y-54127341D01*
X114131429Y-54127341D02*
X113988572Y-54055912D01*
X113988572Y-54055912D02*
X113702857Y-54055912D01*
X113702857Y-54055912D02*
X113560000Y-54127341D01*
X113560000Y-54127341D02*
X113488572Y-54270198D01*
X113488572Y-54270198D02*
X113488572Y-54413055D01*
X113488572Y-54413055D02*
X114202857Y-54555912D01*
X112845715Y-54055912D02*
X112845715Y-55055912D01*
X112845715Y-54198769D02*
X112774286Y-54127341D01*
X112774286Y-54127341D02*
X112631429Y-54055912D01*
X112631429Y-54055912D02*
X112417143Y-54055912D01*
X112417143Y-54055912D02*
X112274286Y-54127341D01*
X112274286Y-54127341D02*
X112202858Y-54270198D01*
X112202858Y-54270198D02*
X112202858Y-55055912D01*
X111488572Y-55055912D02*
X111488572Y-54055912D01*
X111488572Y-53555912D02*
X111560000Y-53627341D01*
X111560000Y-53627341D02*
X111488572Y-53698769D01*
X111488572Y-53698769D02*
X111417143Y-53627341D01*
X111417143Y-53627341D02*
X111488572Y-53555912D01*
X111488572Y-53555912D02*
X111488572Y-53698769D01*
X110560000Y-55055912D02*
X110702857Y-54984484D01*
X110702857Y-54984484D02*
X110774286Y-54913055D01*
X110774286Y-54913055D02*
X110845714Y-54770198D01*
X110845714Y-54770198D02*
X110845714Y-54341626D01*
X110845714Y-54341626D02*
X110774286Y-54198769D01*
X110774286Y-54198769D02*
X110702857Y-54127341D01*
X110702857Y-54127341D02*
X110560000Y-54055912D01*
X110560000Y-54055912D02*
X110345714Y-54055912D01*
X110345714Y-54055912D02*
X110202857Y-54127341D01*
X110202857Y-54127341D02*
X110131429Y-54198769D01*
X110131429Y-54198769D02*
X110060000Y-54341626D01*
X110060000Y-54341626D02*
X110060000Y-54770198D01*
X110060000Y-54770198D02*
X110131429Y-54913055D01*
X110131429Y-54913055D02*
X110202857Y-54984484D01*
X110202857Y-54984484D02*
X110345714Y-55055912D01*
X110345714Y-55055912D02*
X110560000Y-55055912D01*
X109417143Y-55055912D02*
X109417143Y-54055912D01*
X109417143Y-54341626D02*
X109345714Y-54198769D01*
X109345714Y-54198769D02*
X109274286Y-54127341D01*
X109274286Y-54127341D02*
X109131428Y-54055912D01*
X109131428Y-54055912D02*
X108988571Y-54055912D01*
X107345715Y-55055912D02*
X107345715Y-53555912D01*
X107345715Y-53555912D02*
X106988572Y-53555912D01*
X106988572Y-53555912D02*
X106774286Y-53627341D01*
X106774286Y-53627341D02*
X106631429Y-53770198D01*
X106631429Y-53770198D02*
X106560000Y-53913055D01*
X106560000Y-53913055D02*
X106488572Y-54198769D01*
X106488572Y-54198769D02*
X106488572Y-54413055D01*
X106488572Y-54413055D02*
X106560000Y-54698769D01*
X106560000Y-54698769D02*
X106631429Y-54841626D01*
X106631429Y-54841626D02*
X106774286Y-54984484D01*
X106774286Y-54984484D02*
X106988572Y-55055912D01*
X106988572Y-55055912D02*
X107345715Y-55055912D01*
X105274286Y-54984484D02*
X105417143Y-55055912D01*
X105417143Y-55055912D02*
X105702858Y-55055912D01*
X105702858Y-55055912D02*
X105845715Y-54984484D01*
X105845715Y-54984484D02*
X105917143Y-54841626D01*
X105917143Y-54841626D02*
X105917143Y-54270198D01*
X105917143Y-54270198D02*
X105845715Y-54127341D01*
X105845715Y-54127341D02*
X105702858Y-54055912D01*
X105702858Y-54055912D02*
X105417143Y-54055912D01*
X105417143Y-54055912D02*
X105274286Y-54127341D01*
X105274286Y-54127341D02*
X105202858Y-54270198D01*
X105202858Y-54270198D02*
X105202858Y-54413055D01*
X105202858Y-54413055D02*
X105917143Y-54555912D01*
X104631429Y-54984484D02*
X104488572Y-55055912D01*
X104488572Y-55055912D02*
X104202858Y-55055912D01*
X104202858Y-55055912D02*
X104060001Y-54984484D01*
X104060001Y-54984484D02*
X103988572Y-54841626D01*
X103988572Y-54841626D02*
X103988572Y-54770198D01*
X103988572Y-54770198D02*
X104060001Y-54627341D01*
X104060001Y-54627341D02*
X104202858Y-54555912D01*
X104202858Y-54555912D02*
X104417144Y-54555912D01*
X104417144Y-54555912D02*
X104560001Y-54484484D01*
X104560001Y-54484484D02*
X104631429Y-54341626D01*
X104631429Y-54341626D02*
X104631429Y-54270198D01*
X104631429Y-54270198D02*
X104560001Y-54127341D01*
X104560001Y-54127341D02*
X104417144Y-54055912D01*
X104417144Y-54055912D02*
X104202858Y-54055912D01*
X104202858Y-54055912D02*
X104060001Y-54127341D01*
X103345715Y-55055912D02*
X103345715Y-54055912D01*
X103345715Y-53555912D02*
X103417143Y-53627341D01*
X103417143Y-53627341D02*
X103345715Y-53698769D01*
X103345715Y-53698769D02*
X103274286Y-53627341D01*
X103274286Y-53627341D02*
X103345715Y-53555912D01*
X103345715Y-53555912D02*
X103345715Y-53698769D01*
X101988572Y-54055912D02*
X101988572Y-55270198D01*
X101988572Y-55270198D02*
X102060000Y-55413055D01*
X102060000Y-55413055D02*
X102131429Y-55484484D01*
X102131429Y-55484484D02*
X102274286Y-55555912D01*
X102274286Y-55555912D02*
X102488572Y-55555912D01*
X102488572Y-55555912D02*
X102631429Y-55484484D01*
X101988572Y-54984484D02*
X102131429Y-55055912D01*
X102131429Y-55055912D02*
X102417143Y-55055912D01*
X102417143Y-55055912D02*
X102560000Y-54984484D01*
X102560000Y-54984484D02*
X102631429Y-54913055D01*
X102631429Y-54913055D02*
X102702857Y-54770198D01*
X102702857Y-54770198D02*
X102702857Y-54341626D01*
X102702857Y-54341626D02*
X102631429Y-54198769D01*
X102631429Y-54198769D02*
X102560000Y-54127341D01*
X102560000Y-54127341D02*
X102417143Y-54055912D01*
X102417143Y-54055912D02*
X102131429Y-54055912D01*
X102131429Y-54055912D02*
X101988572Y-54127341D01*
X101274286Y-54055912D02*
X101274286Y-55055912D01*
X101274286Y-54198769D02*
X101202857Y-54127341D01*
X101202857Y-54127341D02*
X101060000Y-54055912D01*
X101060000Y-54055912D02*
X100845714Y-54055912D01*
X100845714Y-54055912D02*
X100702857Y-54127341D01*
X100702857Y-54127341D02*
X100631429Y-54270198D01*
X100631429Y-54270198D02*
X100631429Y-55055912D01*
X98774286Y-55055912D02*
X98774286Y-53555912D01*
X98060000Y-55055912D02*
X98060000Y-53555912D01*
X113524284Y-57399400D02*
X113309999Y-57470828D01*
X113309999Y-57470828D02*
X112952856Y-57470828D01*
X112952856Y-57470828D02*
X112809999Y-57399400D01*
X112809999Y-57399400D02*
X112738570Y-57327971D01*
X112738570Y-57327971D02*
X112667141Y-57185114D01*
X112667141Y-57185114D02*
X112667141Y-57042257D01*
X112667141Y-57042257D02*
X112738570Y-56899400D01*
X112738570Y-56899400D02*
X112809999Y-56827971D01*
X112809999Y-56827971D02*
X112952856Y-56756542D01*
X112952856Y-56756542D02*
X113238570Y-56685114D01*
X113238570Y-56685114D02*
X113381427Y-56613685D01*
X113381427Y-56613685D02*
X113452856Y-56542257D01*
X113452856Y-56542257D02*
X113524284Y-56399400D01*
X113524284Y-56399400D02*
X113524284Y-56256542D01*
X113524284Y-56256542D02*
X113452856Y-56113685D01*
X113452856Y-56113685D02*
X113381427Y-56042257D01*
X113381427Y-56042257D02*
X113238570Y-55970828D01*
X113238570Y-55970828D02*
X112881427Y-55970828D01*
X112881427Y-55970828D02*
X112667141Y-56042257D01*
X112024285Y-56470828D02*
X112024285Y-57970828D01*
X112024285Y-56542257D02*
X111881428Y-56470828D01*
X111881428Y-56470828D02*
X111595713Y-56470828D01*
X111595713Y-56470828D02*
X111452856Y-56542257D01*
X111452856Y-56542257D02*
X111381428Y-56613685D01*
X111381428Y-56613685D02*
X111309999Y-56756542D01*
X111309999Y-56756542D02*
X111309999Y-57185114D01*
X111309999Y-57185114D02*
X111381428Y-57327971D01*
X111381428Y-57327971D02*
X111452856Y-57399400D01*
X111452856Y-57399400D02*
X111595713Y-57470828D01*
X111595713Y-57470828D02*
X111881428Y-57470828D01*
X111881428Y-57470828D02*
X112024285Y-57399400D01*
X110667142Y-57470828D02*
X110667142Y-56470828D01*
X110667142Y-56756542D02*
X110595713Y-56613685D01*
X110595713Y-56613685D02*
X110524285Y-56542257D01*
X110524285Y-56542257D02*
X110381427Y-56470828D01*
X110381427Y-56470828D02*
X110238570Y-56470828D01*
X109738571Y-57470828D02*
X109738571Y-56470828D01*
X109738571Y-55970828D02*
X109809999Y-56042257D01*
X109809999Y-56042257D02*
X109738571Y-56113685D01*
X109738571Y-56113685D02*
X109667142Y-56042257D01*
X109667142Y-56042257D02*
X109738571Y-55970828D01*
X109738571Y-55970828D02*
X109738571Y-56113685D01*
X109024285Y-56470828D02*
X109024285Y-57470828D01*
X109024285Y-56613685D02*
X108952856Y-56542257D01*
X108952856Y-56542257D02*
X108809999Y-56470828D01*
X108809999Y-56470828D02*
X108595713Y-56470828D01*
X108595713Y-56470828D02*
X108452856Y-56542257D01*
X108452856Y-56542257D02*
X108381428Y-56685114D01*
X108381428Y-56685114D02*
X108381428Y-57470828D01*
X107024285Y-56470828D02*
X107024285Y-57685114D01*
X107024285Y-57685114D02*
X107095713Y-57827971D01*
X107095713Y-57827971D02*
X107167142Y-57899400D01*
X107167142Y-57899400D02*
X107309999Y-57970828D01*
X107309999Y-57970828D02*
X107524285Y-57970828D01*
X107524285Y-57970828D02*
X107667142Y-57899400D01*
X107024285Y-57399400D02*
X107167142Y-57470828D01*
X107167142Y-57470828D02*
X107452856Y-57470828D01*
X107452856Y-57470828D02*
X107595713Y-57399400D01*
X107595713Y-57399400D02*
X107667142Y-57327971D01*
X107667142Y-57327971D02*
X107738570Y-57185114D01*
X107738570Y-57185114D02*
X107738570Y-56756542D01*
X107738570Y-56756542D02*
X107667142Y-56613685D01*
X107667142Y-56613685D02*
X107595713Y-56542257D01*
X107595713Y-56542257D02*
X107452856Y-56470828D01*
X107452856Y-56470828D02*
X107167142Y-56470828D01*
X107167142Y-56470828D02*
X107024285Y-56542257D01*
X105238570Y-56113685D02*
X105167142Y-56042257D01*
X105167142Y-56042257D02*
X105024285Y-55970828D01*
X105024285Y-55970828D02*
X104667142Y-55970828D01*
X104667142Y-55970828D02*
X104524285Y-56042257D01*
X104524285Y-56042257D02*
X104452856Y-56113685D01*
X104452856Y-56113685D02*
X104381427Y-56256542D01*
X104381427Y-56256542D02*
X104381427Y-56399400D01*
X104381427Y-56399400D02*
X104452856Y-56613685D01*
X104452856Y-56613685D02*
X105309999Y-57470828D01*
X105309999Y-57470828D02*
X104381427Y-57470828D01*
X103452856Y-55970828D02*
X103309999Y-55970828D01*
X103309999Y-55970828D02*
X103167142Y-56042257D01*
X103167142Y-56042257D02*
X103095714Y-56113685D01*
X103095714Y-56113685D02*
X103024285Y-56256542D01*
X103024285Y-56256542D02*
X102952856Y-56542257D01*
X102952856Y-56542257D02*
X102952856Y-56899400D01*
X102952856Y-56899400D02*
X103024285Y-57185114D01*
X103024285Y-57185114D02*
X103095714Y-57327971D01*
X103095714Y-57327971D02*
X103167142Y-57399400D01*
X103167142Y-57399400D02*
X103309999Y-57470828D01*
X103309999Y-57470828D02*
X103452856Y-57470828D01*
X103452856Y-57470828D02*
X103595714Y-57399400D01*
X103595714Y-57399400D02*
X103667142Y-57327971D01*
X103667142Y-57327971D02*
X103738571Y-57185114D01*
X103738571Y-57185114D02*
X103809999Y-56899400D01*
X103809999Y-56899400D02*
X103809999Y-56542257D01*
X103809999Y-56542257D02*
X103738571Y-56256542D01*
X103738571Y-56256542D02*
X103667142Y-56113685D01*
X103667142Y-56113685D02*
X103595714Y-56042257D01*
X103595714Y-56042257D02*
X103452856Y-55970828D01*
X102381428Y-56113685D02*
X102310000Y-56042257D01*
X102310000Y-56042257D02*
X102167143Y-55970828D01*
X102167143Y-55970828D02*
X101810000Y-55970828D01*
X101810000Y-55970828D02*
X101667143Y-56042257D01*
X101667143Y-56042257D02*
X101595714Y-56113685D01*
X101595714Y-56113685D02*
X101524285Y-56256542D01*
X101524285Y-56256542D02*
X101524285Y-56399400D01*
X101524285Y-56399400D02*
X101595714Y-56613685D01*
X101595714Y-56613685D02*
X102452857Y-57470828D01*
X102452857Y-57470828D02*
X101524285Y-57470828D01*
X100238572Y-55970828D02*
X100524286Y-55970828D01*
X100524286Y-55970828D02*
X100667143Y-56042257D01*
X100667143Y-56042257D02*
X100738572Y-56113685D01*
X100738572Y-56113685D02*
X100881429Y-56327971D01*
X100881429Y-56327971D02*
X100952857Y-56613685D01*
X100952857Y-56613685D02*
X100952857Y-57185114D01*
X100952857Y-57185114D02*
X100881429Y-57327971D01*
X100881429Y-57327971D02*
X100810000Y-57399400D01*
X100810000Y-57399400D02*
X100667143Y-57470828D01*
X100667143Y-57470828D02*
X100381429Y-57470828D01*
X100381429Y-57470828D02*
X100238572Y-57399400D01*
X100238572Y-57399400D02*
X100167143Y-57327971D01*
X100167143Y-57327971D02*
X100095714Y-57185114D01*
X100095714Y-57185114D02*
X100095714Y-56827971D01*
X100095714Y-56827971D02*
X100167143Y-56685114D01*
X100167143Y-56685114D02*
X100238572Y-56613685D01*
X100238572Y-56613685D02*
X100381429Y-56542257D01*
X100381429Y-56542257D02*
X100667143Y-56542257D01*
X100667143Y-56542257D02*
X100810000Y-56613685D01*
X100810000Y-56613685D02*
X100881429Y-56685114D01*
X100881429Y-56685114D02*
X100952857Y-56827971D01*
D13*
%TO.C,G\u002A\u002A\u002A*%
G36*
X122533171Y-51536152D02*
G01*
X122624508Y-51630178D01*
X122637956Y-51659913D01*
X122662849Y-51784991D01*
X122654697Y-51912117D01*
X122614400Y-52000747D01*
X122554310Y-52037359D01*
X122428183Y-52052457D01*
X122290783Y-52021170D01*
X122175199Y-51947489D01*
X122106635Y-51860061D01*
X122069064Y-51725987D01*
X122112040Y-51602853D01*
X122234066Y-51502594D01*
X122270695Y-51488013D01*
X122402858Y-51484774D01*
X122533171Y-51536152D01*
G37*
G36*
X127755035Y-56460840D02*
G01*
X127846411Y-56554869D01*
X127859749Y-56584612D01*
X127884728Y-56709628D01*
X127876471Y-56836828D01*
X127836244Y-56925436D01*
X127776187Y-56962045D01*
X127650048Y-56977122D01*
X127512589Y-56945849D01*
X127397035Y-56872169D01*
X127328528Y-56784769D01*
X127290921Y-56650675D01*
X127333887Y-56527548D01*
X127455891Y-56427283D01*
X127492608Y-56412674D01*
X127624753Y-56409415D01*
X127755035Y-56460840D01*
G37*
G36*
X123540806Y-52932620D02*
G01*
X123643543Y-53062610D01*
X123893737Y-53394637D01*
X124084310Y-53675008D01*
X124217403Y-53907743D01*
X124295552Y-54096748D01*
X124321083Y-54246038D01*
X124313503Y-54324592D01*
X124251371Y-54467344D01*
X124137907Y-54557114D01*
X124079603Y-54574517D01*
X123957226Y-54573940D01*
X123810198Y-54527058D01*
X123630255Y-54429841D01*
X123409228Y-54278301D01*
X123138808Y-54068329D01*
X123028612Y-53976183D01*
X122911438Y-53869145D01*
X122836256Y-53788585D01*
X122815631Y-53747174D01*
X122821536Y-53743769D01*
X122876781Y-53765306D01*
X122972751Y-53831036D01*
X123093002Y-53930106D01*
X123238179Y-54052261D01*
X123434264Y-54199608D01*
X123618348Y-54319622D01*
X123779944Y-54406649D01*
X123908411Y-54455319D01*
X123993256Y-54460097D01*
X124023907Y-54415430D01*
X124022712Y-54406292D01*
X123985748Y-54323849D01*
X123899634Y-54183965D01*
X123768977Y-53993148D01*
X123598224Y-53757709D01*
X123391857Y-53484170D01*
X123154475Y-53178834D01*
X123038993Y-53031431D01*
X122906998Y-52860547D01*
X122802093Y-52721812D01*
X122732823Y-52626690D01*
X122707841Y-52586543D01*
X122740778Y-52574406D01*
X122837641Y-52564817D01*
X122975888Y-52561179D01*
X123244010Y-52561179D01*
X123540806Y-52932620D01*
G37*
G36*
X128762712Y-57857320D02*
G01*
X128865395Y-57987288D01*
X129115667Y-58319325D01*
X129306114Y-58599683D01*
X129439270Y-58832431D01*
X129517362Y-59021442D01*
X129542934Y-59170742D01*
X129535339Y-59249295D01*
X129473194Y-59392056D01*
X129359731Y-59481801D01*
X129301453Y-59499186D01*
X129179120Y-59498630D01*
X129032060Y-59451790D01*
X128852130Y-59354544D01*
X128631055Y-59202964D01*
X128360608Y-58993053D01*
X128250451Y-58900888D01*
X128133336Y-58793797D01*
X128058076Y-58713305D01*
X128037452Y-58671911D01*
X128043433Y-58668425D01*
X128098585Y-58689989D01*
X128194638Y-58755741D01*
X128314907Y-58854781D01*
X128460064Y-58976981D01*
X128656104Y-59124306D01*
X128840278Y-59244279D01*
X129001872Y-59331358D01*
X129130287Y-59380037D01*
X129215100Y-59384814D01*
X129245717Y-59340177D01*
X129244625Y-59330998D01*
X129207600Y-59248573D01*
X129121550Y-59108677D01*
X128990824Y-58917824D01*
X128820061Y-58682427D01*
X128613764Y-58408890D01*
X128376341Y-58103513D01*
X128260860Y-57956098D01*
X128128864Y-57785201D01*
X128023929Y-57646493D01*
X127954659Y-57551382D01*
X127929682Y-57511285D01*
X127962683Y-57499055D01*
X128059433Y-57489504D01*
X128197774Y-57485849D01*
X128465859Y-57485849D01*
X128762712Y-57857320D01*
G37*
G36*
X123429541Y-57423538D02*
G01*
X123588861Y-57455054D01*
X123694306Y-57497306D01*
X123773198Y-57567998D01*
X123854884Y-57685002D01*
X123879586Y-57721594D01*
X123951733Y-57811949D01*
X124053610Y-57919989D01*
X124192694Y-58052683D01*
X124376270Y-58216952D01*
X124611861Y-58419702D01*
X124906882Y-58667869D01*
X124911445Y-58671637D01*
X125020581Y-58760238D01*
X125098115Y-58818633D01*
X125127714Y-58834338D01*
X125127502Y-58833543D01*
X125098929Y-58789939D01*
X125027784Y-58690254D01*
X124921820Y-58545233D01*
X124788813Y-58365440D01*
X124636658Y-58161736D01*
X124145627Y-57507066D01*
X124387850Y-57494141D01*
X124490538Y-57490725D01*
X124614133Y-57492822D01*
X124684533Y-57502187D01*
X124687233Y-57503772D01*
X124732893Y-57551198D01*
X124821249Y-57656613D01*
X124945207Y-57811182D01*
X125097809Y-58005958D01*
X125271967Y-58232174D01*
X125460714Y-58480925D01*
X126182404Y-59438731D01*
X125904741Y-59438731D01*
X125627167Y-59438731D01*
X125303141Y-59146920D01*
X125270568Y-59117733D01*
X125103104Y-58970413D01*
X124898542Y-58793616D01*
X124679908Y-58607019D01*
X124469875Y-58430295D01*
X123960621Y-58005478D01*
X123859149Y-58085273D01*
X123747831Y-58140918D01*
X123614858Y-58165105D01*
X123602059Y-58164965D01*
X123504317Y-58147765D01*
X123470258Y-58109763D01*
X123510456Y-58061463D01*
X123529691Y-58040318D01*
X123525663Y-57958368D01*
X123459069Y-57833911D01*
X123332795Y-57673571D01*
X123289945Y-57622751D01*
X123216205Y-57509515D01*
X123214176Y-57440226D01*
X123284989Y-57412381D01*
X123429541Y-57423538D01*
G37*
G36*
X129373120Y-57423538D02*
G01*
X129532466Y-57455054D01*
X129637927Y-57497306D01*
X129716845Y-57567998D01*
X129798459Y-57685002D01*
X129823142Y-57721594D01*
X129895304Y-57811949D01*
X129997208Y-57919989D01*
X130136189Y-58052683D01*
X130319868Y-58216952D01*
X130555459Y-58419702D01*
X130850477Y-58667869D01*
X130855035Y-58671637D01*
X130964170Y-58760238D01*
X131041716Y-58818633D01*
X131071260Y-58834338D01*
X131071072Y-58833543D01*
X131042508Y-58789939D01*
X130971375Y-58690254D01*
X130865356Y-58545233D01*
X130732412Y-58365440D01*
X130580270Y-58161736D01*
X130089227Y-57507066D01*
X130331410Y-57494141D01*
X130434148Y-57490725D01*
X130557778Y-57492822D01*
X130628127Y-57502187D01*
X130630786Y-57503772D01*
X130676482Y-57551198D01*
X130764854Y-57656613D01*
X130888743Y-57811182D01*
X131041371Y-58005958D01*
X131215507Y-58232174D01*
X131404347Y-58480925D01*
X132125947Y-59438731D01*
X131848370Y-59438731D01*
X131570771Y-59438731D01*
X131246721Y-59146920D01*
X131214110Y-59117733D01*
X131046683Y-58970413D01*
X130842130Y-58793616D01*
X130623444Y-58607019D01*
X130413458Y-58430295D01*
X129904220Y-58005478D01*
X129802760Y-58085273D01*
X129691415Y-58140918D01*
X129558434Y-58165105D01*
X129545649Y-58164965D01*
X129447947Y-58147765D01*
X129413864Y-58109763D01*
X129454008Y-58061463D01*
X129473316Y-58040318D01*
X129469231Y-57958368D01*
X129402586Y-57833911D01*
X129276463Y-57673571D01*
X129233521Y-57622751D01*
X129159756Y-57509515D01*
X129157784Y-57440226D01*
X129228560Y-57412381D01*
X129373120Y-57423538D01*
G37*
G36*
X120894209Y-52484915D02*
G01*
X121024366Y-52500089D01*
X121343807Y-52585441D01*
X121671186Y-52731005D01*
X121987914Y-52924463D01*
X122275489Y-53153642D01*
X122515429Y-53406245D01*
X122689230Y-53670176D01*
X122755819Y-53837579D01*
X122792712Y-54056828D01*
X122773537Y-54258363D01*
X122700427Y-54425004D01*
X122575767Y-54539693D01*
X122535440Y-54559354D01*
X122376458Y-54593427D01*
X122178458Y-54573763D01*
X121928777Y-54499700D01*
X121843327Y-54465393D01*
X121667303Y-54380028D01*
X121478007Y-54273334D01*
X121287887Y-54154297D01*
X121109690Y-54031660D01*
X120955905Y-53914278D01*
X120839039Y-53810934D01*
X120771672Y-53730536D01*
X120766283Y-53681862D01*
X120773561Y-53680315D01*
X120834391Y-53705944D01*
X120939149Y-53769997D01*
X121070387Y-53862100D01*
X121329982Y-54045291D01*
X121610474Y-54221704D01*
X121865162Y-54358810D01*
X122084759Y-54452179D01*
X122259873Y-54497364D01*
X122381324Y-54490014D01*
X122390377Y-54486301D01*
X122464378Y-54414082D01*
X122474542Y-54295937D01*
X122423887Y-54137353D01*
X122315492Y-53943880D01*
X122152395Y-53721143D01*
X121937678Y-53474577D01*
X121674359Y-53209726D01*
X121663218Y-53199135D01*
X121383337Y-52950894D01*
X121132252Y-52761474D01*
X120915908Y-52634907D01*
X120740336Y-52575200D01*
X120645749Y-52564469D01*
X120596377Y-52580183D01*
X120585125Y-52633799D01*
X120587155Y-52654893D01*
X120633175Y-52717321D01*
X120750085Y-52766924D01*
X120756265Y-52768815D01*
X120887250Y-52834443D01*
X120940468Y-52929755D01*
X120919796Y-53061575D01*
X120885225Y-53120158D01*
X120803997Y-53160980D01*
X120703936Y-53145130D01*
X120600027Y-53082781D01*
X120507367Y-52984105D01*
X120440806Y-52859260D01*
X120415320Y-52718416D01*
X120415355Y-52710192D01*
X120443545Y-52593647D01*
X120527661Y-52519756D01*
X120675311Y-52484743D01*
X120894209Y-52484915D01*
G37*
G36*
X122005212Y-57102697D02*
G01*
X122079497Y-57189823D01*
X122182148Y-57342222D01*
X122226073Y-57403662D01*
X122362711Y-57559597D01*
X122548140Y-57742204D01*
X122767500Y-57937859D01*
X123005783Y-58133003D01*
X123248194Y-58314031D01*
X123286139Y-58341400D01*
X123394024Y-58431301D01*
X123427714Y-58486177D01*
X123386247Y-58504735D01*
X123365704Y-58495154D01*
X123286746Y-58440689D01*
X123162356Y-58346209D01*
X123004695Y-58220905D01*
X122825772Y-58074107D01*
X122711291Y-57980126D01*
X122549452Y-57852329D01*
X122418520Y-57755246D01*
X122329806Y-57697076D01*
X122294389Y-57685928D01*
X122299161Y-57753126D01*
X122336184Y-57880400D01*
X122398918Y-58048038D01*
X122480265Y-58238213D01*
X122572969Y-58433204D01*
X122669909Y-58615112D01*
X122714271Y-58691024D01*
X122886214Y-58951179D01*
X123058417Y-59162415D01*
X123221654Y-59314368D01*
X123366395Y-59396472D01*
X123461343Y-59417976D01*
X123556859Y-59412221D01*
X123602333Y-59376528D01*
X123586139Y-59322800D01*
X123496844Y-59262818D01*
X123431656Y-59221094D01*
X123373536Y-59130117D01*
X123377682Y-59034835D01*
X123439958Y-58959725D01*
X123555935Y-58929282D01*
X123561139Y-58929304D01*
X123699345Y-58964311D01*
X123783307Y-59064106D01*
X123811625Y-59227102D01*
X123811157Y-59254526D01*
X123787027Y-59377948D01*
X123717269Y-59457549D01*
X123687469Y-59476026D01*
X123543687Y-59517682D01*
X123352579Y-59507796D01*
X123104296Y-59446255D01*
X122967755Y-59397330D01*
X122692640Y-59259747D01*
X122450579Y-59086881D01*
X122258879Y-58892192D01*
X122134663Y-58689165D01*
X122106795Y-58603449D01*
X122075966Y-58380125D01*
X122079754Y-58104598D01*
X122118382Y-57793955D01*
X122125548Y-57752406D01*
X122144905Y-57619215D01*
X122143184Y-57535664D01*
X122116217Y-57474503D01*
X122059876Y-57408377D01*
X122017170Y-57360492D01*
X121925177Y-57234785D01*
X121884259Y-57137601D01*
X121901045Y-57082594D01*
X121948561Y-57070807D01*
X122005212Y-57102697D01*
G37*
G36*
X126165728Y-52177973D02*
G01*
X126239995Y-52265136D01*
X126342671Y-52417540D01*
X126386591Y-52478968D01*
X126523166Y-52634930D01*
X126708656Y-52817495D01*
X126927977Y-53013173D01*
X127166310Y-53208290D01*
X127408722Y-53389294D01*
X127446656Y-53416701D01*
X127554548Y-53506578D01*
X127588256Y-53561491D01*
X127546771Y-53580049D01*
X127526201Y-53570465D01*
X127447234Y-53516011D01*
X127322846Y-53421503D01*
X127165164Y-53296193D01*
X126986301Y-53149392D01*
X126871817Y-53055436D01*
X126709985Y-52927671D01*
X126579079Y-52830604D01*
X126490340Y-52772347D01*
X126454913Y-52761236D01*
X126459672Y-52828392D01*
X126496627Y-52955694D01*
X126559410Y-53123315D01*
X126640783Y-53313536D01*
X126733460Y-53508470D01*
X126830396Y-53690441D01*
X126874770Y-53766309D01*
X127046724Y-54026428D01*
X127218927Y-54237744D01*
X127382139Y-54389636D01*
X127526926Y-54471730D01*
X127621841Y-54493287D01*
X127717378Y-54487521D01*
X127762810Y-54451832D01*
X127746627Y-54398090D01*
X127657348Y-54338164D01*
X127592149Y-54296402D01*
X127533977Y-54205408D01*
X127538186Y-54110107D01*
X127600489Y-54035023D01*
X127716471Y-54004590D01*
X127721598Y-54004663D01*
X127859839Y-54039603D01*
X127943821Y-54139408D01*
X127972141Y-54302352D01*
X127971666Y-54329807D01*
X127947545Y-54453269D01*
X127877751Y-54532889D01*
X127847959Y-54551331D01*
X127704156Y-54592981D01*
X127513050Y-54583105D01*
X127264784Y-54521542D01*
X127128316Y-54472702D01*
X126853158Y-54335065D01*
X126611142Y-54162178D01*
X126419360Y-53967500D01*
X126295152Y-53764436D01*
X126267345Y-53678736D01*
X126236500Y-53455437D01*
X126240231Y-53179924D01*
X126278812Y-52869232D01*
X126286043Y-52827761D01*
X126305398Y-52694495D01*
X126303657Y-52610977D01*
X126276728Y-52549800D01*
X126220393Y-52483699D01*
X126177622Y-52435772D01*
X126085679Y-52310062D01*
X126044723Y-52212945D01*
X126061562Y-52157911D01*
X126109052Y-52146098D01*
X126165728Y-52177973D01*
G37*
G36*
X124151275Y-51669618D02*
G01*
X124543113Y-52179051D01*
X124771794Y-52179051D01*
X124871235Y-52182970D01*
X124969659Y-52201255D01*
X124994793Y-52227525D01*
X124943315Y-52253842D01*
X124811768Y-52272265D01*
X124623182Y-52285192D01*
X125066117Y-52858315D01*
X125233416Y-53079702D01*
X125480261Y-53432106D01*
X125662944Y-53733380D01*
X125782423Y-53985519D01*
X125839440Y-54190452D01*
X125834822Y-54350155D01*
X125769591Y-54466507D01*
X125762958Y-54472944D01*
X125627698Y-54544321D01*
X125455646Y-54543876D01*
X125254870Y-54471480D01*
X125219255Y-54451753D01*
X125105390Y-54377113D01*
X124966701Y-54275310D01*
X124816314Y-54157447D01*
X124667623Y-54034688D01*
X124533806Y-53918191D01*
X124428316Y-53818998D01*
X124364294Y-53748382D01*
X124354983Y-53717327D01*
X124355514Y-53717199D01*
X124411999Y-53735189D01*
X124510003Y-53797046D01*
X124628648Y-53889412D01*
X124650627Y-53907909D01*
X124810396Y-54035189D01*
X124983297Y-54163572D01*
X125153574Y-54282132D01*
X125305131Y-54380184D01*
X125422169Y-54446954D01*
X125488769Y-54471590D01*
X125544680Y-54462769D01*
X125575053Y-54428952D01*
X125569133Y-54364499D01*
X125523871Y-54263653D01*
X125436057Y-54120802D01*
X125302688Y-53930247D01*
X125120467Y-53686422D01*
X124886359Y-53383569D01*
X124735448Y-53189413D01*
X124568900Y-52973394D01*
X124418579Y-52776527D01*
X124296558Y-52614618D01*
X124214924Y-52503592D01*
X124045109Y-52265800D01*
X123716107Y-52264878D01*
X123692469Y-52264702D01*
X123534101Y-52257877D01*
X123426664Y-52242738D01*
X123387095Y-52221494D01*
X123414160Y-52202351D01*
X123506122Y-52185499D01*
X123641800Y-52179051D01*
X123746637Y-52175826D01*
X123856680Y-52159909D01*
X123896509Y-52133022D01*
X123895757Y-52128993D01*
X123863104Y-52069958D01*
X123789118Y-51960796D01*
X123683832Y-51815629D01*
X123556866Y-51648410D01*
X123532540Y-51616896D01*
X123409228Y-51455188D01*
X123309069Y-51320468D01*
X123241816Y-51225981D01*
X123217295Y-51184960D01*
X123251403Y-51172971D01*
X123349192Y-51163705D01*
X123488334Y-51160174D01*
X123759369Y-51160174D01*
X124151275Y-51669618D01*
G37*
G36*
X130604293Y-51669618D02*
G01*
X130996124Y-52179051D01*
X131224765Y-52179051D01*
X131324311Y-52182970D01*
X131422673Y-52201255D01*
X131447817Y-52227525D01*
X131396357Y-52253842D01*
X131264778Y-52272265D01*
X131076194Y-52285192D01*
X131519156Y-52858315D01*
X131686519Y-53079702D01*
X131933305Y-53432106D01*
X132115980Y-53733380D01*
X132235418Y-53985519D01*
X132292467Y-54190452D01*
X132287864Y-54350155D01*
X132222583Y-54466507D01*
X132215998Y-54472944D01*
X132080711Y-54544321D01*
X131908654Y-54543876D01*
X131707902Y-54471480D01*
X131672281Y-54451753D01*
X131558464Y-54377113D01*
X131419739Y-54275310D01*
X131269353Y-54157447D01*
X131120607Y-54034688D01*
X130986890Y-53918191D01*
X130881341Y-53818998D01*
X130817288Y-53748382D01*
X130808037Y-53717327D01*
X130808513Y-53717199D01*
X130865006Y-53735189D01*
X130963019Y-53797046D01*
X131081664Y-53889412D01*
X131103683Y-53907909D01*
X131263409Y-54035189D01*
X131436410Y-54163572D01*
X131606626Y-54282132D01*
X131758222Y-54380184D01*
X131875242Y-54446954D01*
X131941771Y-54471590D01*
X131997761Y-54462769D01*
X132028068Y-54428952D01*
X132022159Y-54364499D01*
X131976922Y-54263653D01*
X131889119Y-54120802D01*
X131755683Y-53930247D01*
X131573505Y-53686422D01*
X131339415Y-53383569D01*
X131188467Y-53189413D01*
X131021916Y-52973394D01*
X130871596Y-52776527D01*
X130749590Y-52614618D01*
X130667973Y-52503592D01*
X130498132Y-52265800D01*
X130169108Y-52264878D01*
X130145472Y-52264702D01*
X129987121Y-52257877D01*
X129879670Y-52242738D01*
X129840092Y-52221494D01*
X129867177Y-52202351D01*
X129959161Y-52185499D01*
X130094832Y-52179051D01*
X130199662Y-52175826D01*
X130309700Y-52159909D01*
X130349538Y-52133022D01*
X130348797Y-52128993D01*
X130316145Y-52069958D01*
X130242209Y-51960796D01*
X130136798Y-51815629D01*
X130009902Y-51648410D01*
X129985583Y-51616896D01*
X129862241Y-51455188D01*
X129762105Y-51320468D01*
X129694903Y-51225981D01*
X129670272Y-51184960D01*
X129704427Y-51172971D01*
X129802209Y-51163705D01*
X129941367Y-51160174D01*
X130212393Y-51160174D01*
X130604293Y-51669618D01*
G37*
G36*
X136838248Y-59311140D02*
G01*
X136758157Y-59404822D01*
X136747542Y-59415313D01*
X136656519Y-59491485D01*
X136568346Y-59519164D01*
X136440347Y-59512973D01*
X136289484Y-59482210D01*
X136024211Y-59372537D01*
X135748880Y-59196586D01*
X135475649Y-58962736D01*
X135216733Y-58679321D01*
X135196572Y-58654805D01*
X135124645Y-58580194D01*
X135066604Y-58560591D01*
X134994107Y-58583823D01*
X134987678Y-58586679D01*
X134877385Y-58619107D01*
X134763140Y-58630723D01*
X134673646Y-58621048D01*
X134637420Y-58589685D01*
X134664095Y-58561632D01*
X134744117Y-58547186D01*
X134824112Y-58537194D01*
X134930739Y-58497285D01*
X134945474Y-58487810D01*
X134977467Y-58456336D01*
X134979724Y-58410303D01*
X134948890Y-58329562D01*
X134881766Y-58193800D01*
X134792665Y-57991752D01*
X134735831Y-57777210D01*
X134736695Y-57660365D01*
X134809410Y-57660365D01*
X134839809Y-57767561D01*
X134917437Y-57871098D01*
X134990282Y-57947822D01*
X135106252Y-58136091D01*
X135146833Y-58330171D01*
X135146957Y-58336964D01*
X135162844Y-58411921D01*
X135212793Y-58499933D01*
X135306749Y-58615137D01*
X135454658Y-58771961D01*
X135527336Y-58844241D01*
X135696336Y-59000559D01*
X135863012Y-59141418D01*
X135999907Y-59243161D01*
X136015507Y-59253308D01*
X136218912Y-59366692D01*
X136385295Y-59423660D01*
X136508259Y-59425843D01*
X136581249Y-59374686D01*
X136597832Y-59271645D01*
X136551542Y-59118151D01*
X136508259Y-59035619D01*
X136391481Y-58858539D01*
X136232398Y-58650604D01*
X136044295Y-58427842D01*
X135840477Y-58206501D01*
X135634291Y-58002771D01*
X135478190Y-57865034D01*
X135282349Y-57715093D01*
X135107832Y-57606910D01*
X134966453Y-57547495D01*
X134870049Y-57543990D01*
X134829776Y-57575019D01*
X134809410Y-57660365D01*
X134736695Y-57660365D01*
X134737086Y-57607451D01*
X134795027Y-57488044D01*
X134908408Y-57424368D01*
X135075761Y-57421877D01*
X135122290Y-57429689D01*
X135449105Y-57518197D01*
X135766857Y-57658685D01*
X136064963Y-57841519D01*
X136332713Y-58057136D01*
X136559478Y-58295939D01*
X136734598Y-58548326D01*
X136847529Y-58804705D01*
X136887522Y-59055475D01*
X136887380Y-59080629D01*
X136876600Y-59215894D01*
X136854166Y-59271645D01*
X136838248Y-59311140D01*
G37*
G36*
X127909621Y-58653333D02*
G01*
X127910621Y-58655470D01*
X127976147Y-58852309D01*
X127994591Y-59053921D01*
X127966488Y-59234806D01*
X127892519Y-59369372D01*
X127889339Y-59372725D01*
X127792891Y-59452399D01*
X127701522Y-59496942D01*
X127644004Y-59505717D01*
X127468821Y-59508432D01*
X127261579Y-59489615D01*
X127056011Y-59453291D01*
X126885848Y-59403184D01*
X126869811Y-59396766D01*
X126696129Y-59317278D01*
X126505445Y-59215555D01*
X126311179Y-59100307D01*
X126126213Y-58980457D01*
X125963802Y-58864970D01*
X125837012Y-58762535D01*
X125759037Y-58682128D01*
X125743017Y-58632565D01*
X125750225Y-58629134D01*
X125810145Y-58650557D01*
X125913450Y-58712068D01*
X126043237Y-58804010D01*
X126262626Y-58956239D01*
X126520972Y-59107239D01*
X126782237Y-59234887D01*
X127032358Y-59333724D01*
X127257051Y-59398139D01*
X127442239Y-59422730D01*
X127573757Y-59401734D01*
X127610004Y-59379680D01*
X127663149Y-59291672D01*
X127658924Y-59171881D01*
X127605528Y-59033760D01*
X127511082Y-58890638D01*
X127383755Y-58755932D01*
X127231710Y-58642944D01*
X127063082Y-58565135D01*
X126977613Y-58535474D01*
X126771311Y-58451571D01*
X126544445Y-58346755D01*
X126316902Y-58231293D01*
X126108622Y-58115525D01*
X125939556Y-58009876D01*
X125829668Y-57924661D01*
X125781283Y-57872474D01*
X125697146Y-57732046D01*
X125678962Y-57600395D01*
X125680427Y-57597382D01*
X125789131Y-57597382D01*
X125814445Y-57701328D01*
X125844222Y-57763459D01*
X125968672Y-57905804D01*
X126175288Y-58057239D01*
X126465074Y-58218614D01*
X126644485Y-58302044D01*
X126836344Y-58380585D01*
X126995749Y-58435547D01*
X127229113Y-58503247D01*
X126887327Y-58171158D01*
X126765523Y-58055401D01*
X126505731Y-57829400D01*
X126280684Y-57664148D01*
X126094813Y-57562755D01*
X125952586Y-57528304D01*
X125910690Y-57528931D01*
X125816688Y-57545544D01*
X125789131Y-57597382D01*
X125680427Y-57597382D01*
X125730527Y-57494324D01*
X125785957Y-57465578D01*
X125915511Y-57446470D01*
X126085935Y-57450024D01*
X126273605Y-57475377D01*
X126455158Y-57521512D01*
X126518678Y-57543873D01*
X126795815Y-57669461D01*
X127077711Y-57836564D01*
X127347227Y-58031872D01*
X127587161Y-58242023D01*
X127780352Y-58453635D01*
X127812469Y-58503247D01*
X127909621Y-58653333D01*
G37*
G36*
X137940931Y-55071041D02*
G01*
X138313032Y-55129771D01*
X138660368Y-55231636D01*
X138994771Y-55377523D01*
X139092544Y-55429172D01*
X139381925Y-55616477D01*
X139598010Y-55821127D01*
X139749389Y-56050816D01*
X139792300Y-56151751D01*
X139849492Y-56385013D01*
X139859562Y-56619274D01*
X139819490Y-56820906D01*
X139806206Y-56851025D01*
X139706152Y-56988971D01*
X139564259Y-57110524D01*
X139413526Y-57185967D01*
X139234763Y-57222365D01*
X138925277Y-57228555D01*
X138597164Y-57176979D01*
X138272613Y-57071717D01*
X137973830Y-56916982D01*
X137881781Y-56851600D01*
X137689172Y-56685234D01*
X137493393Y-56484989D01*
X137319292Y-56277269D01*
X137191873Y-56088557D01*
X137146665Y-56000224D01*
X137126213Y-55929726D01*
X137150566Y-55918775D01*
X137213759Y-55964417D01*
X137309908Y-56063509D01*
X137433190Y-56213054D01*
X137598424Y-56408038D01*
X137940638Y-56717955D01*
X138330925Y-56960263D01*
X138424472Y-57000519D01*
X138637158Y-57060208D01*
X138873702Y-57096364D01*
X139108364Y-57106975D01*
X139315513Y-57090203D01*
X139469433Y-57044078D01*
X139575661Y-56967733D01*
X139681466Y-56811609D01*
X139727785Y-56613912D01*
X139712155Y-56388269D01*
X139632156Y-56148206D01*
X139576167Y-56045630D01*
X139393995Y-55819545D01*
X139148455Y-55614584D01*
X138854560Y-55441990D01*
X138527211Y-55313114D01*
X138415237Y-55282668D01*
X138258326Y-55254776D01*
X138089403Y-55245167D01*
X137894629Y-55254729D01*
X137659902Y-55284366D01*
X137371310Y-55334862D01*
X137014853Y-55407114D01*
X136963254Y-55417866D01*
X136535550Y-55493595D01*
X136123278Y-55544298D01*
X135742365Y-55568791D01*
X135409056Y-55566067D01*
X135139268Y-55535000D01*
X135034348Y-55510239D01*
X134867737Y-55458506D01*
X134703774Y-55396030D01*
X134562186Y-55331296D01*
X134462705Y-55272721D01*
X134425171Y-55228889D01*
X134425697Y-55217261D01*
X134437279Y-55199198D01*
X134477632Y-55199394D01*
X134564281Y-55219923D01*
X134714713Y-55262765D01*
X134716375Y-55263281D01*
X134880627Y-55297298D01*
X135078662Y-55312160D01*
X135320218Y-55307279D01*
X135614828Y-55282080D01*
X135972105Y-55236061D01*
X136401861Y-55168651D01*
X136557673Y-55143690D01*
X137075091Y-55078925D01*
X137532278Y-55054375D01*
X137940931Y-55071041D01*
G37*
G36*
X139426860Y-50146342D02*
G01*
X139798968Y-50205076D01*
X140146256Y-50306967D01*
X140480626Y-50452813D01*
X140578400Y-50504455D01*
X140867842Y-50691779D01*
X141083920Y-50896464D01*
X141235322Y-51126130D01*
X141278212Y-51227106D01*
X141335399Y-51460360D01*
X141345446Y-51694569D01*
X141305382Y-51896161D01*
X141292051Y-51926355D01*
X141192069Y-52064250D01*
X141050152Y-52185846D01*
X140899421Y-52261274D01*
X140720677Y-52297639D01*
X140411159Y-52303893D01*
X140083080Y-52252284D01*
X139758550Y-52147006D01*
X139459775Y-51992257D01*
X139367683Y-51926977D01*
X139175077Y-51760521D01*
X138979280Y-51560287D01*
X138805161Y-51352585D01*
X138677761Y-51163875D01*
X138632542Y-51075569D01*
X138612131Y-51005044D01*
X138636451Y-50994148D01*
X138699626Y-51039724D01*
X138795827Y-51138816D01*
X138919127Y-51288327D01*
X139084335Y-51483311D01*
X139426531Y-51793268D01*
X139816849Y-52035560D01*
X139910355Y-52075784D01*
X140123094Y-52135549D01*
X140359597Y-52171671D01*
X140594305Y-52182317D01*
X140801446Y-52165482D01*
X140955279Y-52119420D01*
X141061545Y-52043031D01*
X141167372Y-51886910D01*
X141213692Y-51689235D01*
X141198038Y-51463645D01*
X141118017Y-51223517D01*
X141062089Y-51120983D01*
X140879863Y-50894874D01*
X140634358Y-50689847D01*
X140340482Y-50517325D01*
X140013093Y-50388417D01*
X139901160Y-50357930D01*
X139744223Y-50330072D01*
X139575344Y-50320486D01*
X139380530Y-50330060D01*
X139145832Y-50359669D01*
X138857215Y-50410185D01*
X138500752Y-50482446D01*
X138449108Y-50493208D01*
X138021438Y-50568894D01*
X137609144Y-50619580D01*
X137228310Y-50644150D01*
X136894936Y-50641362D01*
X136625154Y-50610258D01*
X136520259Y-50585569D01*
X136353662Y-50533799D01*
X136189687Y-50471370D01*
X136048098Y-50406593D01*
X135948613Y-50348058D01*
X135911067Y-50304160D01*
X135911575Y-50292587D01*
X135923191Y-50274542D01*
X135963523Y-50274719D01*
X136050149Y-50295226D01*
X136200583Y-50338074D01*
X136202290Y-50338537D01*
X136366597Y-50372623D01*
X136564643Y-50387468D01*
X136806118Y-50382596D01*
X137100710Y-50357382D01*
X137458012Y-50311385D01*
X137887719Y-50243988D01*
X138043602Y-50218999D01*
X138561038Y-50154243D01*
X139018162Y-50129670D01*
X139426860Y-50146342D01*
G37*
G36*
X130759654Y-54355756D02*
G01*
X130746883Y-54383474D01*
X130674492Y-54491710D01*
X130595580Y-54556396D01*
X130473761Y-54583890D01*
X130274498Y-54563843D01*
X130046772Y-54481708D01*
X129802175Y-54342013D01*
X129551952Y-54149147D01*
X129337278Y-53961300D01*
X129377155Y-54105687D01*
X129394227Y-54218405D01*
X129364607Y-54380133D01*
X129275672Y-54504375D01*
X129140047Y-54576180D01*
X128970615Y-54580668D01*
X128893698Y-54554894D01*
X128757577Y-54486380D01*
X128592006Y-54387550D01*
X128411773Y-54268813D01*
X128231447Y-54140752D01*
X128065663Y-54013854D01*
X127929142Y-53898530D01*
X127836493Y-53805337D01*
X127802297Y-53744687D01*
X127813136Y-53712947D01*
X127870201Y-53719249D01*
X127977246Y-53790082D01*
X128135984Y-53926275D01*
X128340683Y-54102106D01*
X128540438Y-54251330D01*
X128717483Y-54361398D01*
X128862700Y-54427190D01*
X128966354Y-54443462D01*
X129019066Y-54405206D01*
X129015100Y-54367252D01*
X128962706Y-54258204D01*
X128855282Y-54087644D01*
X128693727Y-53856860D01*
X128478704Y-53566912D01*
X128211170Y-53219188D01*
X127714467Y-52582343D01*
X127980524Y-52569509D01*
X127995940Y-52568753D01*
X128138530Y-52565414D01*
X128227000Y-52578378D01*
X128289740Y-52616627D01*
X128354794Y-52689227D01*
X128387331Y-52728804D01*
X128439994Y-52785236D01*
X128462357Y-52781807D01*
X128470351Y-52723354D01*
X128475385Y-52697256D01*
X128572202Y-52697256D01*
X128577914Y-52784108D01*
X128630831Y-52930061D01*
X128651812Y-52974541D01*
X128755357Y-53138565D01*
X128907812Y-53335235D01*
X129095249Y-53550372D01*
X129303878Y-53769610D01*
X129519588Y-53978804D01*
X129728521Y-54163615D01*
X129916784Y-54309917D01*
X130070530Y-54403414D01*
X130099833Y-54416873D01*
X130256636Y-54476468D01*
X130378480Y-54501589D01*
X130446384Y-54487989D01*
X130472074Y-54451052D01*
X130479835Y-54334628D01*
X130417862Y-54174886D01*
X130287385Y-53973533D01*
X130089591Y-53732304D01*
X129825760Y-53453010D01*
X129496962Y-53137224D01*
X129294865Y-52959790D01*
X129059859Y-52784657D01*
X128864496Y-52680504D01*
X128706747Y-52646063D01*
X128617289Y-52655884D01*
X128572202Y-52697256D01*
X128475385Y-52697256D01*
X128483107Y-52657225D01*
X128559315Y-52552398D01*
X128700160Y-52499684D01*
X128902864Y-52500511D01*
X129160258Y-52554847D01*
X129490691Y-52679855D01*
X129820585Y-52857345D01*
X130129228Y-53074152D01*
X130395977Y-53317169D01*
X130599943Y-53573314D01*
X130664203Y-53682644D01*
X130765306Y-53929551D01*
X130797919Y-54157921D01*
X130763718Y-54334628D01*
X130759654Y-54355756D01*
G37*
G36*
X138358929Y-54355756D02*
G01*
X138346230Y-54383474D01*
X138273792Y-54491710D01*
X138194856Y-54556396D01*
X138073032Y-54583890D01*
X137873781Y-54563843D01*
X137646109Y-54481708D01*
X137401455Y-54342013D01*
X137151293Y-54149147D01*
X136936559Y-53961300D01*
X136976463Y-54105687D01*
X136993534Y-54218405D01*
X136963896Y-54380133D01*
X136874924Y-54504375D01*
X136739361Y-54576180D01*
X136569885Y-54580668D01*
X136493023Y-54554894D01*
X136356878Y-54486380D01*
X136191339Y-54387550D01*
X136011059Y-54268813D01*
X135830740Y-54140752D01*
X135664991Y-54013854D01*
X135528447Y-53898530D01*
X135435741Y-53805337D01*
X135401639Y-53744687D01*
X135412503Y-53712947D01*
X135469464Y-53719249D01*
X135576558Y-53790082D01*
X135735259Y-53926275D01*
X135939988Y-54102106D01*
X136139658Y-54251330D01*
X136316876Y-54361398D01*
X136461973Y-54427190D01*
X136565625Y-54443462D01*
X136618352Y-54405206D01*
X136614435Y-54367252D01*
X136562035Y-54258204D01*
X136454577Y-54087644D01*
X136292999Y-53856860D01*
X136078047Y-53566912D01*
X135810503Y-53219188D01*
X135313780Y-52582343D01*
X135579817Y-52569509D01*
X135595215Y-52568753D01*
X135737784Y-52565414D01*
X135826285Y-52578378D01*
X135888976Y-52616627D01*
X135954108Y-52689227D01*
X135986631Y-52728804D01*
X136039336Y-52785236D01*
X136061678Y-52781807D01*
X136069710Y-52723354D01*
X136074704Y-52697256D01*
X136171478Y-52697256D01*
X136177181Y-52784108D01*
X136230097Y-52930061D01*
X136251117Y-52974541D01*
X136354654Y-53138565D01*
X136507083Y-53335235D01*
X136694566Y-53550372D01*
X136903115Y-53769610D01*
X137118829Y-53978804D01*
X137327793Y-54163615D01*
X137516098Y-54309917D01*
X137669840Y-54403414D01*
X137699094Y-54416873D01*
X137855892Y-54476468D01*
X137977858Y-54501589D01*
X138045682Y-54487989D01*
X138071370Y-54451052D01*
X138079129Y-54334628D01*
X138017189Y-54174886D01*
X137886722Y-53973533D01*
X137688898Y-53732304D01*
X137425016Y-53453010D01*
X137096287Y-53137224D01*
X136894195Y-52959790D01*
X136659194Y-52784657D01*
X136463810Y-52680504D01*
X136306069Y-52646063D01*
X136216592Y-52655884D01*
X136171478Y-52697256D01*
X136074704Y-52697256D01*
X136082363Y-52657225D01*
X136158647Y-52552398D01*
X136299462Y-52499684D01*
X136502147Y-52500511D01*
X136759564Y-52554847D01*
X137089979Y-52679855D01*
X137419870Y-52857345D01*
X137728540Y-53074152D01*
X137995293Y-53317169D01*
X138199262Y-53573314D01*
X138263518Y-53682644D01*
X138364580Y-53929551D01*
X138397243Y-54157921D01*
X138363036Y-54334628D01*
X138358929Y-54355756D01*
G37*
G36*
X133119502Y-52540229D02*
G01*
X133281931Y-52586472D01*
X133457510Y-52669509D01*
X133661696Y-52797284D01*
X133909805Y-52977818D01*
X133921331Y-52986664D01*
X134072414Y-53100164D01*
X134165919Y-53165480D01*
X134210308Y-53186764D01*
X134214028Y-53168268D01*
X134185700Y-53114161D01*
X134145269Y-53050897D01*
X134051727Y-52920223D01*
X133947551Y-52787207D01*
X133877445Y-52700598D01*
X133813167Y-52616684D01*
X133788327Y-52577736D01*
X133822385Y-52569718D01*
X133920081Y-52563528D01*
X134059227Y-52561179D01*
X134330096Y-52561179D01*
X135025052Y-53461295D01*
X135204824Y-53694250D01*
X135378117Y-53919130D01*
X135529279Y-54115583D01*
X135650797Y-54273981D01*
X135735393Y-54384593D01*
X135775496Y-54437663D01*
X135785075Y-54451321D01*
X135798859Y-54485815D01*
X135771833Y-54504590D01*
X135689273Y-54512454D01*
X135536475Y-54514079D01*
X135242030Y-54514079D01*
X134943353Y-54142535D01*
X134913576Y-54105773D01*
X134663865Y-53815891D01*
X134400968Y-53539960D01*
X134134328Y-53285580D01*
X133873068Y-53060378D01*
X133626511Y-52871956D01*
X133403985Y-52727924D01*
X133214727Y-52635983D01*
X133067993Y-52603613D01*
X133044850Y-52604807D01*
X132992435Y-52630654D01*
X132994055Y-52693895D01*
X133052248Y-52799345D01*
X133169076Y-52951627D01*
X133347248Y-53155516D01*
X133511387Y-53339751D01*
X133706515Y-53572621D01*
X133849604Y-53766024D01*
X133947258Y-53930247D01*
X134006211Y-54075595D01*
X134033024Y-54212323D01*
X134033147Y-54213072D01*
X134038650Y-54350309D01*
X134016516Y-54439229D01*
X133958019Y-54514165D01*
X133891498Y-54568485D01*
X133806296Y-54592560D01*
X133677006Y-54583590D01*
X133634324Y-54576828D01*
X133426735Y-54516565D01*
X133206121Y-54404370D01*
X132954527Y-54231599D01*
X132900623Y-54190220D01*
X132756925Y-54074894D01*
X132618312Y-53957369D01*
X132500268Y-53851436D01*
X132418203Y-53770692D01*
X132387348Y-53728755D01*
X132402650Y-53707563D01*
X132460646Y-53728304D01*
X132567892Y-53800200D01*
X132730647Y-53926771D01*
X132883058Y-54046423D01*
X133128759Y-54224647D01*
X133340035Y-54358368D01*
X133508306Y-54442436D01*
X133625132Y-54471590D01*
X133709114Y-54461357D01*
X133745920Y-54435500D01*
X133726498Y-54385078D01*
X133656036Y-54276816D01*
X133541878Y-54126859D01*
X133392283Y-53945992D01*
X133215438Y-53744912D01*
X133089197Y-53601431D01*
X132915576Y-53382230D01*
X132798952Y-53196485D01*
X132732548Y-53032802D01*
X132709723Y-52879548D01*
X132717130Y-52759850D01*
X132773045Y-52617598D01*
X132883058Y-52540734D01*
X133047002Y-52529337D01*
X133119502Y-52540229D01*
G37*
G36*
X133981816Y-57893544D02*
G01*
X134044319Y-57972642D01*
X134295629Y-58307091D01*
X134485415Y-58592078D01*
X134616011Y-58832295D01*
X134689727Y-59032564D01*
X134708860Y-59197808D01*
X134675755Y-59332763D01*
X134603708Y-59427568D01*
X134510076Y-59485780D01*
X134432245Y-59505479D01*
X134361455Y-59518956D01*
X134355297Y-59519214D01*
X134264101Y-59495629D01*
X134127834Y-59433239D01*
X133966994Y-59343430D01*
X133802000Y-59237383D01*
X133653246Y-59126628D01*
X133637076Y-59113394D01*
X133519347Y-59020139D01*
X133430558Y-58954257D01*
X133388738Y-58929282D01*
X133383002Y-58937713D01*
X133380404Y-59004750D01*
X133391162Y-59116960D01*
X133391792Y-59121681D01*
X133400506Y-59247445D01*
X133376075Y-59331763D01*
X133307375Y-59414119D01*
X133285957Y-59434606D01*
X133186550Y-59500257D01*
X133074493Y-59516043D01*
X132931640Y-59481431D01*
X132739552Y-59395865D01*
X132709865Y-59380266D01*
X132583843Y-59302854D01*
X132436458Y-59199755D01*
X132280565Y-59081745D01*
X132129184Y-58959479D01*
X131995291Y-58843638D01*
X131891765Y-58744947D01*
X131831577Y-58674079D01*
X131827587Y-58641794D01*
X131836375Y-58641657D01*
X131902417Y-58673885D01*
X132007130Y-58748102D01*
X132132273Y-58851739D01*
X132229032Y-58933636D01*
X132408398Y-59071350D01*
X132591091Y-59197313D01*
X132760181Y-59300662D01*
X132898625Y-59370586D01*
X132989428Y-59396291D01*
X133005802Y-59395517D01*
X133050967Y-59376830D01*
X133062301Y-59329016D01*
X133036770Y-59247117D01*
X132971372Y-59125979D01*
X132863102Y-58960439D01*
X132708948Y-58745471D01*
X132505888Y-58475974D01*
X132250924Y-58146796D01*
X131750833Y-57507066D01*
X131990046Y-57494141D01*
X132089843Y-57490725D01*
X132212799Y-57492566D01*
X132282510Y-57501704D01*
X132301797Y-57516549D01*
X132370697Y-57588401D01*
X132475600Y-57708457D01*
X132606169Y-57864715D01*
X132752108Y-58045301D01*
X132957305Y-58298707D01*
X133168660Y-58545739D01*
X133356688Y-58745708D01*
X133534372Y-58911493D01*
X133714684Y-59055887D01*
X133910520Y-59191681D01*
X133981231Y-59236530D01*
X134165384Y-59337645D01*
X134305233Y-59389016D01*
X134394064Y-59388884D01*
X134425171Y-59335275D01*
X134406169Y-59276833D01*
X134335745Y-59151769D01*
X134216656Y-58971230D01*
X134052400Y-58740204D01*
X133846373Y-58463598D01*
X133602005Y-58146467D01*
X133503900Y-58020620D01*
X133367635Y-57844673D01*
X133254910Y-57697754D01*
X133175424Y-57592516D01*
X133138791Y-57541499D01*
X133132748Y-57526921D01*
X133152398Y-57502094D01*
X133230857Y-57489434D01*
X133381034Y-57485849D01*
X133657206Y-57485849D01*
X133981816Y-57893544D01*
G37*
G36*
X136073331Y-55714213D02*
G01*
X136207978Y-55813059D01*
X136389967Y-55965376D01*
X136615308Y-56167692D01*
X136879995Y-56416620D01*
X137179943Y-56708738D01*
X137875698Y-57396290D01*
X138262516Y-57506224D01*
X138289909Y-57514145D01*
X138509913Y-57586413D01*
X138745409Y-57675902D01*
X138972141Y-57772279D01*
X139165829Y-57865399D01*
X139302214Y-57945058D01*
X139328146Y-57972078D01*
X139333002Y-58030687D01*
X139281793Y-58035724D01*
X139167779Y-57995753D01*
X138998534Y-57913358D01*
X138885164Y-57856227D01*
X138701603Y-57772159D01*
X138510342Y-57692152D01*
X138328337Y-57622675D01*
X138172545Y-57570006D01*
X138059853Y-57540583D01*
X138007197Y-57540709D01*
X138007960Y-57553092D01*
X138046143Y-57620744D01*
X138126197Y-57735017D01*
X138238657Y-57884260D01*
X138374100Y-58056589D01*
X138522999Y-58240324D01*
X138675988Y-58423749D01*
X138823524Y-58595077D01*
X138956223Y-58742519D01*
X139064574Y-58854421D01*
X139192203Y-58970107D01*
X139510746Y-59192262D01*
X139843380Y-59331888D01*
X140192620Y-59390226D01*
X140418833Y-59391488D01*
X140671162Y-59358385D01*
X140855021Y-59286004D01*
X140967459Y-59175719D01*
X141005574Y-59028836D01*
X141003127Y-58977205D01*
X140973997Y-58902698D01*
X140902270Y-58890343D01*
X140775798Y-58935331D01*
X140738553Y-58948807D01*
X140620121Y-58946872D01*
X140524576Y-58887477D01*
X140466367Y-58791232D01*
X140460162Y-58679006D01*
X140520383Y-58571449D01*
X140532729Y-58559634D01*
X140611646Y-58513387D01*
X140710855Y-58515376D01*
X140855519Y-58565073D01*
X140969875Y-58638340D01*
X141075536Y-58779476D01*
X141127601Y-58950373D01*
X141119689Y-59126696D01*
X141045337Y-59283914D01*
X141013653Y-59316951D01*
X140897524Y-59397565D01*
X140758759Y-59459457D01*
X140694200Y-59475946D01*
X140500388Y-59499747D01*
X140261649Y-59505655D01*
X140004224Y-59494344D01*
X139754291Y-59466564D01*
X139538104Y-59423159D01*
X139309212Y-59349457D01*
X138892955Y-59150989D01*
X138491256Y-58876633D01*
X138110977Y-58532098D01*
X137758967Y-58123219D01*
X137442074Y-57655624D01*
X137373635Y-57542082D01*
X137319258Y-57452793D01*
X137296338Y-57416495D01*
X137295909Y-57416175D01*
X137251153Y-57403605D01*
X137158310Y-57382500D01*
X137025830Y-57354146D01*
X137147713Y-57595766D01*
X137195416Y-57693997D01*
X137254428Y-57840943D01*
X137265820Y-57925602D01*
X137230616Y-57952818D01*
X137182882Y-57947594D01*
X137094214Y-57905560D01*
X137057321Y-57839415D01*
X137050595Y-57800513D01*
X137017459Y-57695708D01*
X136965981Y-57565247D01*
X136894402Y-57429177D01*
X136791196Y-57309940D01*
X136635257Y-57190333D01*
X136489871Y-57087354D01*
X136367203Y-56984999D01*
X136309482Y-56909594D01*
X136310733Y-56854881D01*
X136330739Y-56835708D01*
X136412051Y-56836926D01*
X136535791Y-56901661D01*
X136695657Y-57026989D01*
X136774047Y-57088949D01*
X136908166Y-57173426D01*
X137040431Y-57236934D01*
X137148834Y-57269466D01*
X137211305Y-57261100D01*
X137209842Y-57229966D01*
X137165026Y-57141717D01*
X137079772Y-57010965D01*
X136962990Y-56849607D01*
X136823833Y-56669668D01*
X136671262Y-56483084D01*
X136514322Y-56301754D01*
X136362093Y-56137669D01*
X136301381Y-56074509D01*
X136162148Y-55924638D01*
X136053395Y-55800517D01*
X135985052Y-55713546D01*
X135966823Y-55675263D01*
X135990100Y-55672179D01*
X136073331Y-55714213D01*
G37*
G36*
X137559234Y-50789511D02*
G01*
X137693893Y-50888389D01*
X137875872Y-51040688D01*
X138101202Y-51243007D01*
X138365911Y-51491933D01*
X138665860Y-51784062D01*
X139361594Y-52471589D01*
X139748439Y-52581535D01*
X139775789Y-52589440D01*
X139995846Y-52661735D01*
X140231349Y-52751194D01*
X140458024Y-52847598D01*
X140651708Y-52940709D01*
X140788157Y-53020316D01*
X140814031Y-53047385D01*
X140818889Y-53105965D01*
X140767693Y-53111025D01*
X140653689Y-53071108D01*
X140484431Y-52988654D01*
X140371070Y-52931566D01*
X140187475Y-52847433D01*
X139996216Y-52767468D01*
X139814261Y-52697947D01*
X139658468Y-52645316D01*
X139545775Y-52615875D01*
X139493111Y-52616014D01*
X139493888Y-52628393D01*
X139532052Y-52696016D01*
X139612094Y-52810327D01*
X139724551Y-52959515D01*
X139859984Y-53131919D01*
X140008892Y-53315620D01*
X140161873Y-53499041D01*
X140309403Y-53670374D01*
X140442113Y-53817822D01*
X140550481Y-53929721D01*
X140678052Y-54045357D01*
X140996649Y-54267544D01*
X141329304Y-54407212D01*
X141678514Y-54465524D01*
X141904711Y-54466847D01*
X142157063Y-54433665D01*
X142340912Y-54361307D01*
X142453332Y-54251052D01*
X142491476Y-54104122D01*
X142489008Y-54052493D01*
X142459868Y-53978016D01*
X142388161Y-53965659D01*
X142261705Y-54010604D01*
X142224429Y-54024111D01*
X142106000Y-54022172D01*
X142010438Y-53962774D01*
X141952267Y-53866588D01*
X141946045Y-53754326D01*
X142006257Y-53646767D01*
X142018603Y-53634965D01*
X142097551Y-53588676D01*
X142196748Y-53590699D01*
X142341423Y-53640402D01*
X142455805Y-53713620D01*
X142561417Y-53854773D01*
X142613558Y-54025695D01*
X142605624Y-54201996D01*
X142531212Y-54359207D01*
X142499538Y-54392245D01*
X142383378Y-54472879D01*
X142244692Y-54534750D01*
X142180125Y-54551215D01*
X141986282Y-54575050D01*
X141747548Y-54580953D01*
X141490102Y-54569590D01*
X141240204Y-54541868D01*
X141024013Y-54498478D01*
X140795111Y-54424769D01*
X140378847Y-54226288D01*
X139977145Y-53951945D01*
X139596917Y-53607401D01*
X139244888Y-53198473D01*
X138927971Y-52731002D01*
X138859514Y-52617361D01*
X138805112Y-52528098D01*
X138782262Y-52491775D01*
X138781796Y-52491494D01*
X138737067Y-52478907D01*
X138644263Y-52457829D01*
X138511705Y-52429386D01*
X138633610Y-52671091D01*
X138681324Y-52769320D01*
X138740344Y-52916204D01*
X138751707Y-53000896D01*
X138716508Y-53028153D01*
X138668791Y-53022881D01*
X138580153Y-52980899D01*
X138543231Y-52914733D01*
X138536498Y-52875798D01*
X138503355Y-52771006D01*
X138451861Y-52640566D01*
X138380288Y-52504494D01*
X138277071Y-52385253D01*
X138121137Y-52265660D01*
X137975764Y-52162667D01*
X137853068Y-52060322D01*
X137795365Y-51984892D01*
X137796661Y-51930218D01*
X137816660Y-51911038D01*
X137897938Y-51912268D01*
X138021702Y-51976971D01*
X138181534Y-52102316D01*
X138259906Y-52164255D01*
X138394058Y-52248710D01*
X138526317Y-52312210D01*
X138634777Y-52344799D01*
X138697202Y-52336414D01*
X138695720Y-52305235D01*
X138650941Y-52216995D01*
X138565671Y-52086247D01*
X138448862Y-51924924D01*
X138309689Y-51744976D01*
X138157139Y-51558338D01*
X138000245Y-51377064D01*
X137848011Y-51212955D01*
X137787259Y-51149856D01*
X137648009Y-50999942D01*
X137539304Y-50875794D01*
X137470918Y-50788895D01*
X137452725Y-50750586D01*
X137475947Y-50747497D01*
X137559234Y-50789511D01*
G37*
G36*
X156613770Y-56891253D02*
G01*
X156493815Y-57600868D01*
X156428300Y-57838059D01*
X156305702Y-58282035D01*
X156221279Y-58509918D01*
X156079472Y-58840064D01*
X156031281Y-58940491D01*
X155911564Y-59189868D01*
X155730519Y-59534052D01*
X155549012Y-59847463D01*
X155379803Y-60104966D01*
X155026195Y-60559207D01*
X154495452Y-61124454D01*
X153912776Y-61624539D01*
X153282315Y-62056999D01*
X152608342Y-62419386D01*
X151894903Y-62709252D01*
X151146329Y-62924024D01*
X150366725Y-63061355D01*
X150298402Y-63067672D01*
X150118975Y-63076074D01*
X149889042Y-63080434D01*
X149630425Y-63080911D01*
X149365465Y-63077722D01*
X149116207Y-63071037D01*
X148904864Y-63061081D01*
X148753419Y-63047995D01*
X148234041Y-62961966D01*
X147501518Y-62772305D01*
X146799239Y-62509583D01*
X146132602Y-62178215D01*
X145506803Y-61782331D01*
X144927057Y-61326369D01*
X144398636Y-60814389D01*
X143926800Y-60250747D01*
X143516740Y-59639703D01*
X143173704Y-58985549D01*
X142902997Y-58292448D01*
X142798378Y-57961791D01*
X142710690Y-57649457D01*
X142646591Y-57363758D01*
X142602604Y-57082448D01*
X142575422Y-56783294D01*
X142561540Y-56444078D01*
X142557564Y-56042401D01*
X142557564Y-55969683D01*
X142557758Y-55912539D01*
X143214136Y-55912539D01*
X143239561Y-56621129D01*
X143344679Y-57325392D01*
X143529671Y-58019462D01*
X143794631Y-58697532D01*
X144139704Y-59353832D01*
X144363899Y-59700855D01*
X144802707Y-60259443D01*
X145302004Y-60762702D01*
X145856394Y-61206979D01*
X146460557Y-61588596D01*
X147109178Y-61904076D01*
X147796915Y-62149623D01*
X148518480Y-62321832D01*
X148969292Y-62383661D01*
X149606905Y-62410719D01*
X150258272Y-62374814D01*
X150903618Y-62278094D01*
X151523055Y-62122957D01*
X152096756Y-61911634D01*
X152214502Y-61854761D01*
X152310860Y-61786972D01*
X152340819Y-61724098D01*
X152330815Y-61677153D01*
X152277141Y-61619243D01*
X152247371Y-61602891D01*
X152213519Y-61552685D01*
X152212571Y-61546787D01*
X152186149Y-61485915D01*
X152121796Y-61365869D01*
X152017882Y-61183536D01*
X151872288Y-60935679D01*
X151683522Y-60619133D01*
X151667822Y-60592807D01*
X151611238Y-60497539D01*
X151528239Y-60357431D01*
X151429676Y-60191008D01*
X151326476Y-60016573D01*
X151229548Y-59852632D01*
X151149697Y-59717539D01*
X151097978Y-59629752D01*
X151086154Y-59609945D01*
X151023144Y-59507702D01*
X150948032Y-59388938D01*
X150847946Y-59232983D01*
X150055399Y-59217918D01*
X150001401Y-59216898D01*
X149719703Y-59209912D01*
X149503332Y-59200454D01*
X149335520Y-59186963D01*
X149199369Y-59167569D01*
X149078146Y-59140653D01*
X149005541Y-59119277D01*
X152476162Y-59119277D01*
X152494533Y-59147061D01*
X152565539Y-59230855D01*
X152681906Y-59359323D01*
X152835506Y-59523578D01*
X153017939Y-59714574D01*
X153220929Y-59923426D01*
X153374692Y-60079465D01*
X153564965Y-60270061D01*
X153730175Y-60432581D01*
X153861856Y-60558913D01*
X153951467Y-60640769D01*
X153990530Y-60669881D01*
X154007854Y-60660631D01*
X154075163Y-60599940D01*
X154178677Y-60493288D01*
X154306726Y-60353526D01*
X154447677Y-60193402D01*
X154590147Y-60025752D01*
X154722397Y-59863280D01*
X154730396Y-59853021D01*
X154824441Y-59723369D01*
X154935207Y-59557499D01*
X155049805Y-59376512D01*
X155155077Y-59201604D01*
X155237851Y-59053921D01*
X155285123Y-58954648D01*
X155289716Y-58940491D01*
X155289292Y-58919259D01*
X155269535Y-58903665D01*
X155221043Y-58893165D01*
X155134518Y-58887261D01*
X155000568Y-58885533D01*
X154809836Y-58887480D01*
X154552977Y-58892604D01*
X154220570Y-58900447D01*
X153975375Y-58907273D01*
X153683576Y-58917693D01*
X153422131Y-58929489D01*
X153204756Y-58941966D01*
X153044937Y-58954423D01*
X152956423Y-58966166D01*
X152943585Y-58969120D01*
X152780884Y-59003663D01*
X152624751Y-59033369D01*
X152613371Y-59035387D01*
X152505063Y-59070662D01*
X152476162Y-59119277D01*
X149005541Y-59119277D01*
X148955132Y-59104436D01*
X148898581Y-59086139D01*
X148763305Y-59037956D01*
X148687706Y-58997438D01*
X148654837Y-58953132D01*
X148647969Y-58893311D01*
X148648140Y-58874662D01*
X148654774Y-58787906D01*
X148680201Y-58732054D01*
X148737471Y-58704055D01*
X148839413Y-58700980D01*
X148998956Y-58719703D01*
X149229026Y-58757315D01*
X149376853Y-58779457D01*
X149581395Y-58803307D01*
X149799082Y-58823224D01*
X150013603Y-58838246D01*
X150208713Y-58847427D01*
X150368180Y-58849865D01*
X150475854Y-58844607D01*
X150515297Y-58830727D01*
X150506887Y-58797800D01*
X150463518Y-58705162D01*
X150394948Y-58582172D01*
X150314171Y-58449871D01*
X150234224Y-58329277D01*
X150168149Y-58241497D01*
X150128999Y-58207565D01*
X150122389Y-58206990D01*
X150090759Y-58169031D01*
X150084572Y-58149190D01*
X150038593Y-58064901D01*
X149955179Y-57931512D01*
X149843277Y-57761685D01*
X149711663Y-57568050D01*
X149569182Y-57363258D01*
X149424693Y-57160055D01*
X149287083Y-56971024D01*
X149165235Y-56808815D01*
X149067859Y-56686075D01*
X149003995Y-56615552D01*
X148987720Y-56598037D01*
X148922517Y-56520679D01*
X148820697Y-56395887D01*
X148692588Y-56236265D01*
X148548376Y-56054458D01*
X148412052Y-55878988D01*
X148278667Y-55696081D01*
X148198187Y-55564635D01*
X148168817Y-55477799D01*
X148188432Y-55428592D01*
X148255178Y-55410234D01*
X148367115Y-55415794D01*
X148475261Y-55439331D01*
X148596003Y-55503511D01*
X148734381Y-55622248D01*
X148823265Y-55707554D01*
X148969055Y-55846589D01*
X149137612Y-56006464D01*
X149307536Y-56167034D01*
X149307806Y-56167308D01*
X149490706Y-56340068D01*
X149707868Y-56545669D01*
X149932052Y-56758387D01*
X150136181Y-56952423D01*
X150336369Y-57141969D01*
X150571813Y-57363244D01*
X150804964Y-57580968D01*
X151006478Y-57767412D01*
X151018789Y-57778674D01*
X151192940Y-57938919D01*
X151359736Y-58092526D01*
X151500870Y-58222579D01*
X151597882Y-58312051D01*
X151654234Y-58362404D01*
X151797628Y-58481047D01*
X151927665Y-58577920D01*
X151964764Y-58602872D01*
X152044587Y-58648493D01*
X152119738Y-58666568D01*
X152219614Y-58660747D01*
X152373400Y-58634872D01*
X152387490Y-58632524D01*
X152521818Y-58617826D01*
X152728462Y-58603558D01*
X152996481Y-58590204D01*
X153315031Y-58578266D01*
X153673239Y-58568247D01*
X154060253Y-58560562D01*
X154284308Y-58556575D01*
X154604689Y-58549503D01*
X154891074Y-58541499D01*
X155133456Y-58532947D01*
X155321549Y-58524225D01*
X155445137Y-58515698D01*
X155494045Y-58507749D01*
X155498225Y-58502440D01*
X155529721Y-58434814D01*
X155574880Y-58312565D01*
X155625435Y-58157674D01*
X155724032Y-57838059D01*
X155422834Y-57619365D01*
X155200437Y-57458300D01*
X154988032Y-57305429D01*
X154810128Y-57178880D01*
X154648454Y-57065697D01*
X154484756Y-56952864D01*
X154435078Y-56918626D01*
X154301984Y-56825876D01*
X154133078Y-56707447D01*
X153943515Y-56573886D01*
X153748238Y-56435851D01*
X153562341Y-56304028D01*
X153400791Y-56189008D01*
X153278753Y-56101453D01*
X153211163Y-56052001D01*
X153161243Y-56016306D01*
X153061178Y-55946718D01*
X152935175Y-55860195D01*
X152872942Y-55817269D01*
X152724568Y-55713927D01*
X152535660Y-55581403D01*
X152323955Y-55432184D01*
X152107293Y-55278874D01*
X151987607Y-55194028D01*
X151760870Y-55034089D01*
X151543331Y-54881483D01*
X151354951Y-54750094D01*
X151215763Y-54654030D01*
X151169008Y-54621873D01*
X151033395Y-54526351D01*
X150929233Y-54449679D01*
X150876100Y-54406022D01*
X150847474Y-54380897D01*
X150759195Y-54314995D01*
X150643463Y-54235870D01*
X150540844Y-54167176D01*
X150386241Y-54056194D01*
X150243420Y-53940930D01*
X150240540Y-53938492D01*
X150199391Y-53906090D01*
X150138697Y-53863769D01*
X150041059Y-53799731D01*
X149889139Y-53702242D01*
X149864308Y-53685770D01*
X149783668Y-53621243D01*
X149751114Y-53575826D01*
X149748979Y-53564466D01*
X149704162Y-53537580D01*
X149697794Y-53536909D01*
X149628727Y-53505682D01*
X149536119Y-53442071D01*
X149512753Y-53423909D01*
X149405064Y-53342404D01*
X149261152Y-53235461D01*
X149105427Y-53121341D01*
X149034984Y-53069886D01*
X148876520Y-52953638D01*
X148672459Y-52803512D01*
X148436746Y-52629618D01*
X148183127Y-52442312D01*
X147925575Y-52251809D01*
X147739234Y-52113993D01*
X147502854Y-51939760D01*
X147289446Y-51783026D01*
X147110251Y-51652028D01*
X146976587Y-51555135D01*
X146899801Y-51500534D01*
X146858661Y-51471553D01*
X146716655Y-51364240D01*
X146581382Y-51254086D01*
X146497253Y-51183646D01*
X146347419Y-51062066D01*
X146199019Y-50945406D01*
X145979541Y-50776272D01*
X145689560Y-50992318D01*
X145600489Y-51061312D01*
X145332428Y-51293843D01*
X145049852Y-51569664D01*
X144773506Y-51866804D01*
X144524210Y-52163151D01*
X144322788Y-52436808D01*
X144277247Y-52505814D01*
X143906429Y-53149646D01*
X143614582Y-53818049D01*
X143401830Y-54505177D01*
X143268287Y-55205238D01*
X143214136Y-55912539D01*
X142557758Y-55912539D01*
X142558569Y-55674065D01*
X142562384Y-55441997D01*
X142570458Y-55255986D01*
X142584157Y-55098332D01*
X142604966Y-54951540D01*
X142634308Y-54797969D01*
X142673600Y-54620172D01*
X142713412Y-54451534D01*
X142860353Y-53915357D01*
X143026781Y-53437442D01*
X143219459Y-52997858D01*
X143273337Y-52889355D01*
X143661338Y-52215823D01*
X144112635Y-51595625D01*
X144622570Y-51032109D01*
X145186458Y-50528845D01*
X145799408Y-50089211D01*
X146098636Y-49919685D01*
X147980235Y-49919685D01*
X147989479Y-49967391D01*
X147996694Y-49982496D01*
X148056691Y-50061006D01*
X148173818Y-50193895D01*
X148345205Y-50377983D01*
X148567723Y-50610154D01*
X148838413Y-50887171D01*
X149154297Y-51205984D01*
X149512371Y-51563499D01*
X149527110Y-51578107D01*
X149904183Y-51952545D01*
X150229849Y-52275299D01*
X150512489Y-52554420D01*
X150760512Y-52797961D01*
X150982340Y-53013985D01*
X151186247Y-53210426D01*
X151380732Y-53395403D01*
X151574217Y-53576910D01*
X151774961Y-53763065D01*
X151991408Y-53961739D01*
X152232000Y-54181087D01*
X152505136Y-54429144D01*
X152662743Y-54572934D01*
X152831001Y-54727804D01*
X152976130Y-54862835D01*
X153078205Y-54959595D01*
X153175564Y-55050002D01*
X153321557Y-55180559D01*
X153493479Y-55330908D01*
X153671181Y-55483330D01*
X153685626Y-55495544D01*
X153849119Y-55634981D01*
X153993079Y-55758974D01*
X154102290Y-55854330D01*
X154161726Y-55908058D01*
X154238463Y-55978931D01*
X154392210Y-56114069D01*
X154609901Y-56300892D01*
X154890405Y-56538358D01*
X155232717Y-56825561D01*
X155359466Y-56930557D01*
X155528262Y-57066896D01*
X155667877Y-57175643D01*
X155766460Y-57247576D01*
X155812249Y-57273582D01*
X155858744Y-57234052D01*
X155898175Y-57121655D01*
X155929982Y-56948276D01*
X155953614Y-56725751D01*
X155969015Y-56465997D01*
X155975793Y-56180879D01*
X155973703Y-55882236D01*
X155962432Y-55581943D01*
X155941747Y-55291925D01*
X155911278Y-55023982D01*
X155870896Y-54789995D01*
X155806285Y-54513668D01*
X155582193Y-53796917D01*
X155285730Y-53124035D01*
X154916471Y-52494102D01*
X154797782Y-52317971D01*
X154688410Y-52163313D01*
X154585061Y-52030080D01*
X154471210Y-51898055D01*
X154330121Y-51746981D01*
X154145121Y-51556594D01*
X153965817Y-51381100D01*
X153416879Y-50923192D01*
X152814918Y-50528662D01*
X152165767Y-50200548D01*
X151475110Y-49941952D01*
X150748770Y-49755937D01*
X150373881Y-49698214D01*
X149887877Y-49662223D01*
X149382808Y-49660534D01*
X148890542Y-49693121D01*
X148442706Y-49759991D01*
X148259706Y-49797363D01*
X148115749Y-49829909D01*
X148030040Y-49857086D01*
X147989307Y-49884940D01*
X147980235Y-49919685D01*
X146098636Y-49919685D01*
X146456767Y-49716788D01*
X147153696Y-49414928D01*
X147885446Y-49187197D01*
X148647322Y-49036988D01*
X148767366Y-49024156D01*
X148991938Y-49010648D01*
X149263507Y-49002362D01*
X149560095Y-48999089D01*
X149859780Y-49000931D01*
X150140583Y-49007851D01*
X150380577Y-49019830D01*
X150557770Y-49036988D01*
X151275957Y-49176628D01*
X152013343Y-49402419D01*
X152719871Y-49705650D01*
X153390638Y-50083935D01*
X154020923Y-50534958D01*
X154605766Y-51056220D01*
X154699187Y-51150558D01*
X155198115Y-51724755D01*
X155629577Y-52349225D01*
X155991578Y-53020516D01*
X156282331Y-53735161D01*
X156499864Y-54489825D01*
X156556046Y-54759050D01*
X156645728Y-55453647D01*
X156664680Y-56169965D01*
X156663961Y-56180879D01*
X156613770Y-56891253D01*
G37*
%TD*%
M02*
